<svg width="41" height="40" viewBox="0 0 41 40" fill="none" xmlns="http://www.w3.org/2000/svg">
    <g clip-path="url(#clip0_13_64)">
        <path d="M24.5961 7.78936H22.6134V5.87175C22.6134 5.70222 22.5438 5.53964 22.4198 5.41976C22.2959 5.29989 22.1278 5.23254 21.9525 5.23254H19.309C19.1337 5.23254 18.9656 5.29989 18.8416 5.41976C18.7177 5.53964 18.6481 5.70222 18.6481 5.87175V7.78936H16.6654C16.4901 7.78936 16.322 7.85671 16.1981 7.97658C16.0741 8.09646 16.0045 8.25904 16.0045 8.42857V10.9854C16.0045 11.1549 16.0741 11.3175 16.1981 11.4374C16.322 11.5572 16.4901 11.6246 16.6654 11.6246H18.6481V13.5422C18.6481 13.7117 18.7177 13.8743 18.8416 13.9942C18.9656 14.1141 19.1337 14.1814 19.309 14.1814H21.9525C22.1278 14.1814 22.2959 14.1141 22.4198 13.9942C22.5438 13.8743 22.6134 13.7117 22.6134 13.5422V11.6246H24.5961C24.7713 11.6246 24.9394 11.5572 25.0634 11.4374C25.1873 11.3175 25.257 11.1549 25.257 10.9854V8.42857C25.257 8.25904 25.1873 8.09646 25.0634 7.97658C24.9394 7.85671 24.7713 7.78936 24.5961 7.78936ZM23.9352 10.3462H21.9525C21.7772 10.3462 21.6091 10.4135 21.4852 10.5334C21.3613 10.6533 21.2916 10.8159 21.2916 10.9854V12.903H19.9698V10.9854C19.9698 10.8159 19.9002 10.6533 19.7763 10.5334C19.6523 10.4135 19.4842 10.3462 19.309 10.3462H17.3263V9.06777H19.309C19.4842 9.06777 19.6523 9.00043 19.7763 8.88055C19.9002 8.76068 19.9698 8.5981 19.9698 8.42857V6.51095H21.2916V8.42857C21.2916 8.5981 21.3613 8.76068 21.4852 8.88055C21.6091 9.00043 21.7772 9.06777 21.9525 9.06777H23.9352V10.3462Z" fill="currentColor"/>
        <path d="M38.9572 11.2186C38.9706 11.1061 38.9772 10.993 38.9771 10.8798C38.9739 10.2939 38.7637 9.72662 38.3815 9.27206C37.9992 8.81749 37.4679 8.50292 36.8754 8.3805C36.2053 8.25713 35.5118 8.38456 34.9351 8.73701C34.3584 9.08945 33.9417 9.6406 33.7693 10.2789L30.8613 18.3713C30.8182 18.3878 30.7763 18.407 30.7358 18.4288L24.8935 21.7399C23.9995 22.2478 23.258 22.9725 22.7422 23.8424C22.2264 24.7123 21.9543 25.6973 21.9525 26.7001V32.7214C21.7773 32.7214 21.6092 32.7887 21.4852 32.9086C21.3613 33.0285 21.2917 33.1911 21.2917 33.3606V38.4742C21.2917 38.6438 21.3613 38.8064 21.4852 38.9262C21.6092 39.0461 21.7773 39.1135 21.9525 39.1135H31.205C31.3803 39.1135 31.5484 39.0461 31.6723 38.9262C31.7963 38.8064 31.8659 38.6438 31.8659 38.4742V33.3606C31.8659 33.1911 31.7963 33.0285 31.6723 32.9086C31.5484 32.7887 31.3803 32.7214 31.205 32.7214V31.3152C31.2062 31.0452 31.2656 30.7784 31.3794 30.5319C31.4932 30.2854 31.6589 30.0645 31.8659 29.8833L36.3335 26.0417C36.8222 25.6282 37.172 25.0828 37.3381 24.4757L40.2063 14.1014C40.2675 13.8847 40.2987 13.6612 40.2988 13.4366C40.2962 12.9855 40.1709 12.543 39.9354 12.1537C39.6999 11.7643 39.3625 11.4418 38.9572 11.2186V11.2186ZM35.0315 10.6561C35.1127 10.3255 35.3196 10.0367 35.6112 9.8471C35.9027 9.65755 36.2573 9.58123 36.6045 9.63334C36.9007 9.69335 37.1667 9.84986 37.3579 10.0767C37.5492 10.3036 37.6541 10.5871 37.6553 10.8798V10.8926C37.0649 10.9032 36.4943 11.1 36.0303 11.453C35.5662 11.8061 35.2341 12.2961 35.0844 12.8485L33.2405 18.3521C32.9614 18.224 32.6621 18.1419 32.3549 18.1092L35.0315 10.6561ZM30.5441 37.835H22.6134V33.9998H30.5441V37.835ZM38.9308 13.769L36.0559 24.1497C35.9565 24.5104 35.7496 24.8349 35.4611 25.0829L30.9869 28.9245C30.6407 29.2265 30.3636 29.5952 30.1736 30.0069C29.9835 30.4186 29.8846 30.8643 29.8832 31.3152V32.7214H23.2743V26.7001C23.2776 25.9202 23.49 25.1545 23.8908 24.4778C24.2916 23.8011 24.8671 23.2365 25.561 22.8393L31.3967 19.5346C31.5471 19.4498 31.7134 19.3946 31.886 19.3722C32.0586 19.3498 32.2341 19.3605 32.4024 19.4039C32.5706 19.4473 32.7284 19.5224 32.8666 19.6249C33.0047 19.7274 33.1206 19.8553 33.2075 20.0012C33.3792 20.2966 33.4265 20.6446 33.3397 20.9728C33.2938 21.1349 33.2153 21.2867 33.1087 21.4194C33.0021 21.5521 32.8695 21.6632 32.7184 21.7463L28.9315 23.862C28.7877 23.9505 28.6847 24.0893 28.6442 24.2494C28.6036 24.4095 28.6286 24.5786 28.7139 24.7214C28.7992 24.8641 28.9382 24.9694 29.102 25.0154C29.2657 25.0613 29.4414 25.0443 29.5924 24.9679L33.3793 22.8521C33.682 22.686 33.9473 22.463 34.1595 22.1962C34.3718 21.9295 34.5267 21.6244 34.6152 21.2988C34.7951 20.6448 34.7001 19.9485 34.3508 19.362L34.3112 19.3045L36.3533 13.2129C36.4345 12.8823 36.6414 12.5935 36.9329 12.4039C37.2245 12.2144 37.5791 12.138 37.9262 12.1902C38.2225 12.2502 38.4884 12.4067 38.6797 12.6335C38.871 12.8604 38.9759 13.1439 38.9771 13.4366C38.9793 13.549 38.9637 13.6611 38.9308 13.769V13.769Z" fill="currentColor"/>
        <path d="M19.3089 32.7229V26.7016C19.3072 25.6988 19.035 24.7138 18.5192 23.8439C18.0035 22.974 17.262 22.2493 16.368 21.7414L10.5257 18.4239C10.4861 18.4048 10.4398 18.392 10.4001 18.3728L7.51206 10.3252C7.34421 9.67756 6.92751 9.11611 6.34677 8.75512C5.76604 8.39412 5.06491 8.26071 4.38606 8.38203C3.79364 8.50445 3.26226 8.81902 2.88002 9.27358C2.49778 9.72815 2.28764 10.2954 2.28444 10.8813C2.28427 10.9945 2.29089 11.1076 2.30426 11.2201C1.89899 11.4433 1.56163 11.7659 1.32612 12.1552C1.09061 12.5446 0.965255 12.987 0.962662 13.4381C0.963945 13.6622 0.992786 13.8854 1.04858 14.1029L3.92344 24.4708C4.08773 25.0805 4.43772 25.6284 4.92799 26.0433L9.38899 29.8849C9.59804 30.0648 9.76554 30.2852 9.88056 30.532C9.99557 30.7787 10.0555 31.0461 10.0565 31.3167V32.7229C9.8812 32.7229 9.7131 32.7903 9.58916 32.9102C9.46522 33.03 9.39559 33.1926 9.39559 33.3621V38.4758C9.39559 38.6453 9.46522 38.8079 9.58916 38.9278C9.7131 39.0476 9.8812 39.115 10.0565 39.115H19.3089C19.4842 39.115 19.6523 39.0476 19.7762 38.9278C19.9002 38.8079 19.9698 38.6453 19.9698 38.4758V33.3621C19.9698 33.1926 19.9002 33.03 19.7762 32.9102C19.6523 32.7903 19.4842 32.7229 19.3089 32.7229ZM3.60621 10.8813C3.60703 10.5895 3.71106 10.3067 3.90101 10.08C4.09096 9.85321 4.35541 9.69615 4.65042 9.63487C5.00707 9.5848 5.37011 9.66699 5.66673 9.86497C5.96335 10.0629 6.17162 10.3621 6.24977 10.7023L8.90654 18.1107C8.59942 18.1435 8.30011 18.2255 8.02095 18.3536L6.19029 12.882C6.0413 12.3242 5.70852 11.8284 5.24229 11.4697C4.77606 11.111 4.20174 10.909 3.60621 10.8941V10.8813ZM10.268 28.9261L5.80036 25.0844C5.51027 24.8351 5.30325 24.5081 5.20556 24.1448L2.32409 13.7705C2.29673 13.6617 2.28342 13.5501 2.28444 13.4381C2.28525 13.1463 2.38928 12.8635 2.57923 12.6368C2.76919 12.41 3.03364 12.253 3.32864 12.1917C3.68279 12.1403 4.04392 12.2205 4.33941 12.4161C4.63491 12.6118 4.84284 12.9084 4.92138 13.2464L6.95031 19.306L6.91065 19.3636C6.56144 19.95 6.4664 20.6463 6.6463 21.3004C6.73479 21.6259 6.88971 21.931 7.10195 22.1978C7.3142 22.4645 7.57947 22.6875 7.88216 22.8536L11.6691 24.9694C11.8201 25.0458 11.9958 25.0628 12.1595 25.0169C12.3232 24.971 12.4623 24.8656 12.5476 24.7229C12.6329 24.5801 12.6579 24.4111 12.6173 24.2509C12.5767 24.0908 12.4738 23.952 12.3299 23.8636L8.54305 21.7478C8.39202 21.6647 8.25941 21.5536 8.15282 21.4209C8.04622 21.2882 7.96772 21.1364 7.92181 20.9744C7.83499 20.6461 7.88233 20.2981 8.05399 20.0028C8.14034 19.8571 8.25551 19.7294 8.39291 19.6268C8.53032 19.5242 8.68727 19.4488 8.85481 19.4048C9.02235 19.3609 9.1972 19.3493 9.36936 19.3708C9.54152 19.3922 9.70764 19.4462 9.85822 19.5298L15.7005 22.8408C16.3944 23.2381 16.9698 23.8026 17.3706 24.4793C17.7714 25.1561 17.9839 25.9218 17.9871 26.7016V32.7229H11.3783V31.3167C11.3771 30.8651 11.2777 30.4189 11.0864 30.007C10.8951 29.5951 10.6162 29.2268 10.268 28.9261ZM18.648 37.8366H10.7174V34.0013H18.648V37.8366Z" fill="currentColor"/>
        <path d="M29.9801 2.76241C29.3666 2.16797 28.6379 1.69639 27.8357 1.37465C27.0335 1.05291 26.1736 0.887331 25.3052 0.88739C24.4368 0.88745 23.5769 1.05314 22.7747 1.37499C21.9726 1.69684 21.244 2.16852 20.6305 2.76305V2.76305C20.0171 2.16851 19.2885 1.69682 18.4864 1.37499C17.6843 1.05316 16.8244 0.887499 15.9561 0.887499C15.0877 0.887499 14.2278 1.05316 13.4257 1.37499C12.6236 1.69682 11.895 2.16851 11.2816 2.76305C10.0446 3.96199 9.34995 5.58657 9.34995 7.28031C9.34995 8.97406 10.0446 10.5986 11.2816 11.7976L20.1639 20.3885C20.2879 20.5083 20.4559 20.5757 20.6312 20.5757C20.8064 20.5757 20.9745 20.5083 21.0984 20.3885L29.9808 11.7976C31.2177 10.5984 31.9123 8.97371 31.9121 7.27986C31.912 5.58601 31.2172 3.96138 29.9801 2.76241V2.76241ZM20.6305 19.0328L12.2154 10.8937C11.4766 10.1782 10.9738 9.26691 10.7704 8.27502C10.567 7.28312 10.6723 6.25517 11.0728 5.32112C11.4734 4.38707 12.1513 3.58885 13.0209 3.02738C13.8904 2.4659 14.9125 2.16638 15.958 2.16667C16.6526 2.16436 17.3406 2.29583 17.982 2.5534C18.6235 2.81097 19.2054 3.18949 19.694 3.66688L20.1633 4.12072C20.2872 4.24055 20.4553 4.30787 20.6305 4.30787C20.8058 4.30787 20.9738 4.24055 21.0978 4.12072L21.5683 3.66561C22.059 3.1902 22.6417 2.81304 23.2832 2.5557C23.9248 2.29836 24.6125 2.1659 25.307 2.1659C26.0015 2.1659 26.6892 2.29836 27.3307 2.5557C27.9722 2.81304 28.555 3.1902 29.0456 3.66561C30.0356 4.6244 30.5916 5.92402 30.5916 7.27904C30.5916 8.63405 30.0356 9.93367 29.0456 10.8925L20.6305 19.0328Z" fill="currentColor"/>
    </g>
    <defs>
        <clipPath id="clip0_13_64">
            <rect width="39.3361" height="40" fill="currentColor" transform="translate(0.962662)"/>
        </clipPath>
    </defs>
</svg>
