<svg width="40" height="40" viewBox="0 0 40 40" fill="none" xmlns="http://www.w3.org/2000/svg">
    <g clip-path="url(#clip0_13_51)">
        <g clip-path="url(#clip1_13_51)">
            <path d="M39.0537 11.4139L34.3448 8.27601H34.4827V3.44843C34.4827 3.06757 34.1739 2.75878 33.793 2.75878H30.3448C29.9639 2.75878 29.6551 3.06757 29.6551 3.44843V5.14843L23.1413 0.803613C22.9096 0.648958 22.6075 0.648958 22.3758 0.803613L6.46343 11.4139C5.48723 12.0647 5.22335 13.3836 5.87413 14.3598C6.5249 15.336 7.84378 15.5999 8.81998 14.9491L11.0345 13.4732V26.8967H9.65515C9.65515 26.5158 9.34636 26.207 8.9655 26.207H3.44827C3.06741 26.207 2.75862 26.5158 2.75862 26.8967H0V28.276H2.75862V35.1725H0V36.5518H2.75862C2.75862 36.9327 3.06741 37.2415 3.44827 37.2415H8.9655C9.34636 37.2415 9.65515 36.9327 9.65515 36.5518V36.289L14.8041 38.427C17.611 39.5733 20.749 39.6082 23.5806 38.5242L34.2344 34.4615C34.8655 34.2216 35.3735 33.7376 35.6434 33.1187C35.9221 32.4911 35.9365 31.7778 35.6834 31.1394C35.4579 30.5686 35.0306 30.1006 34.4827 29.8242V13.4732L36.6972 14.9491C37.6734 15.5999 38.9922 15.336 39.643 14.3598C40.2938 13.3836 40.0299 12.0646 39.0537 11.4139ZM8.27585 35.8622H4.13792V27.5863H8.27585V35.8622ZM31.0344 4.13809H33.1034V7.44842L31.0344 6.06912V4.13809ZM34.3785 32.5628C34.2567 32.8444 34.0265 33.065 33.7399 33.1746L23.0862 37.2366C20.5828 38.1956 17.8083 38.1658 15.3262 37.1532L9.65515 34.7953V28.276H11.4034C13.6901 28.2786 15.9451 28.811 17.9917 29.8311C18.6675 30.1685 19.4123 30.3443 20.1675 30.3449H25.5172C26.0885 30.3486 26.5487 30.8147 26.5449 31.386C26.5418 31.8646 26.2109 32.2786 25.7448 32.387C25.6544 32.3953 25.5662 32.4139 25.4744 32.4139H17.2413V33.7932H25.4744C25.4889 33.7932 25.5027 33.7932 25.5172 33.7932C25.531 33.7932 25.5441 33.7891 25.5586 33.7891C26.1059 33.7803 26.6464 33.6657 27.1503 33.4518L32.9165 31.0042C33.1911 30.887 33.5018 30.887 33.7765 31.0042C34.0622 31.1248 34.2863 31.3566 34.3972 31.6463C34.5143 31.9419 34.5076 32.2722 34.3785 32.5628ZM25.5172 28.9656H20.1675C19.6263 28.9648 19.0926 28.8387 18.6082 28.5973C16.6752 27.6344 14.569 27.0679 12.4138 26.9311V12.5519L22.7586 5.65533L33.1034 12.5519V29.5587C32.8539 29.5798 32.609 29.6385 32.3772 29.7332L27.9055 31.6318C27.9185 31.5482 27.927 31.464 27.931 31.3794C27.931 30.0463 26.8503 28.9656 25.5172 28.9656ZM37.8752 13.9278C37.7281 13.9278 37.5844 13.8844 37.462 13.8029L23.1413 4.25395C22.9096 4.0993 22.6075 4.0993 22.3758 4.25395L8.05516 13.8015C7.7124 14.0297 7.24964 13.9368 7.02145 13.594C6.93999 13.4716 6.89654 13.3279 6.89654 13.1808C6.89611 12.9314 7.02068 12.6983 7.22826 12.5601L22.7586 2.20706L38.2889 12.5615C38.4965 12.6998 38.621 12.9328 38.6206 13.1822C38.6207 13.5939 38.2869 13.9277 37.8752 13.9278Z" fill="currentColor"/>
            <path d="M27.7496 14.9838C27.416 14.6295 27.0199 14.3485 26.5837 14.1567C26.1476 13.965 25.6801 13.8663 25.2079 13.8663C24.7358 13.8664 24.2683 13.9651 23.8322 14.1569C23.3961 14.3487 22.9999 14.6298 22.6664 14.9841C22.3329 14.6298 21.9368 14.3487 21.5007 14.1569C21.0646 13.9651 20.5971 13.8664 20.125 13.8664C19.6529 13.8664 19.1854 13.9651 18.7493 14.1569C18.3132 14.3487 17.917 14.6298 17.5836 14.9841C16.911 15.6987 16.5334 16.6668 16.5334 17.6762C16.5334 18.6856 16.911 19.6538 17.5836 20.3683L22.4127 25.4881C22.4801 25.5595 22.5715 25.5997 22.6668 25.5997C22.762 25.5997 22.8534 25.5595 22.9208 25.4881L27.75 20.3683C28.4225 19.6537 28.8001 18.6854 28.8 17.676C28.8 16.6665 28.4222 15.6983 27.7496 14.9838ZM22.6664 24.6802L18.0913 19.8297C17.6896 19.4033 17.4162 18.8602 17.3056 18.269C17.1951 17.6779 17.2523 17.0653 17.4701 16.5086C17.6879 15.952 18.0564 15.4763 18.5292 15.1417C19.0019 14.8071 19.5576 14.6286 20.1261 14.6287C20.5037 14.6274 20.8777 14.7057 21.2265 14.8592C21.5752 15.0127 21.8916 15.2383 22.1573 15.5228L22.4124 15.7933C22.4797 15.8647 22.5711 15.9048 22.6664 15.9048C22.7617 15.9048 22.8531 15.8647 22.9204 15.7933L23.1763 15.522C23.443 15.2387 23.7599 15.0139 24.1086 14.8606C24.4574 14.7072 24.8313 14.6283 25.2089 14.6283C25.5865 14.6283 25.9604 14.7072 26.3092 14.8606C26.6579 15.0139 26.9748 15.2387 27.2415 15.522C27.7798 16.0934 28.0821 16.8679 28.0821 17.6755C28.0821 18.483 27.7798 19.2575 27.2415 19.8289L22.6664 24.6802Z" fill="currentColor" stroke="currentColor"/>
            <path d="M6.89653 33.1034H5.51723V34.4827H6.89653V33.1034Z" fill="currentColor"/>
        </g>
    </g>
    <defs>
        <clipPath id="clip0_13_51">
            <rect width="40" height="40" fill="currentColor"/>
        </clipPath>
        <clipPath id="clip1_13_51">
            <rect width="40" height="40" fill="currentColor"/>
        </clipPath>
    </defs>
</svg>
