<svg width="40" height="40" viewBox="0 0 40 40" fill="none" xmlns="http://www.w3.org/2000/svg">
    <g clip-path="url(#clip0_13_74)">
        <path d="M38.4468 11.414L33.8355 8.27607H33.9706V3.4485C33.9706 3.06763 33.6682 2.75884 33.2953 2.75884H29.9185C29.5456 2.75884 29.2432 3.06763 29.2432 3.4485V5.14849L22.8645 0.803674C22.6376 0.649019 22.3418 0.649019 22.1149 0.803674L6.53266 11.414C5.57671 12.0648 5.31831 13.3836 5.95558 14.3599C6.59285 15.3361 7.88437 15.5999 8.84032 14.9492L11.0089 13.4733V26.8967H9.65816C9.65816 26.5159 9.35578 26.2071 8.98282 26.2071H3.58005C3.20709 26.2071 2.90471 26.5159 2.90471 26.8967H0.203323V28.276H2.90471V35.1726H0.203323V36.5519H2.90471C2.90471 36.9327 3.20709 37.2415 3.58005 37.2415H8.98282C9.35578 37.2415 9.65816 36.9327 9.65816 36.5519V36.2891L14.7003 38.427C17.4489 39.5734 20.5219 39.6082 23.2947 38.5243L33.7275 34.4615C34.3455 34.2217 34.8429 33.7377 35.1072 33.1188C35.3801 32.4912 35.3942 31.7778 35.1464 31.1395C34.9255 30.5687 34.5072 30.1007 33.9706 29.8243V13.4733L36.1391 14.9492C37.0951 15.5999 38.3866 15.3361 39.0239 14.3599C39.6611 13.3836 39.4027 12.0647 38.4468 11.414ZM8.30747 35.8622H4.2554V27.5864H8.30747V35.8622ZM30.5939 4.13815H32.6199V7.44849L30.5939 6.06918V4.13815ZM33.8686 32.5629C33.7493 32.8445 33.5239 33.0651 33.2433 33.1746L22.8105 37.2367C20.3591 38.1957 17.6422 38.1658 15.2115 37.1532L9.65816 34.7953V28.276H11.3702C13.6094 28.2787 15.8177 28.811 17.8217 29.8312C18.4835 30.1685 19.2129 30.3444 19.9525 30.345H25.1911C25.7505 30.3487 26.2012 30.8148 26.1975 31.3861C26.1945 31.8646 25.8704 32.2787 25.414 32.387C25.3255 32.3953 25.2391 32.4139 25.1492 32.4139H17.087V33.7933H25.1492C25.1634 33.7933 25.1769 33.7933 25.1911 33.7933C25.2046 33.7933 25.2174 33.7891 25.2316 33.7891C25.7676 33.7803 26.2969 33.6658 26.7903 33.4519L32.4369 31.0043C32.7058 30.8871 33.0101 30.8871 33.2791 31.0043C33.5588 31.1249 33.7783 31.3567 33.8869 31.6464C34.0016 31.942 33.995 32.2723 33.8686 32.5629ZM25.1911 28.9657H19.9525C19.4225 28.9649 18.8998 28.8388 18.4255 28.5974C16.5326 27.6345 14.4701 27.0679 12.3595 26.9312V12.5519L22.4897 5.65539L32.6199 12.5519V29.5588C32.3756 29.5798 32.1358 29.6386 31.9088 29.7333L27.5298 31.6319C27.5426 31.5483 27.5509 31.464 27.5548 31.3795C27.5548 30.0464 26.4966 28.9657 25.1911 28.9657ZM37.2927 13.9279C37.1487 13.9279 37.008 13.8844 36.8881 13.803L22.8645 4.25401C22.6376 4.09936 22.3418 4.09936 22.1149 4.25401L8.09136 13.8016C7.75571 14.0298 7.30256 13.9368 7.0791 13.5941C6.99933 13.4717 6.95678 13.328 6.95678 13.1809C6.95636 12.9315 7.07834 12.6984 7.28162 12.5602L22.4897 2.20712L37.6978 12.5616C37.9011 12.6999 38.0231 12.9329 38.0227 13.1823C38.0228 13.594 37.6959 13.9278 37.2927 13.9279Z" fill="currentColor"/>
        <path d="M6.95679 33.1036H5.60609V34.4829H6.95679V33.1036Z" fill="currentColor"/>
    </g>
    <defs>
        <clipPath id="clip0_13_74">
            <rect width="39.1701" height="40" fill="currentColor" transform="translate(0.203323)"/>
        </clipPath>
    </defs>
</svg>
