<svg width="40" height="40" viewBox="0 0 40 40" fill="none" xmlns="http://www.w3.org/2000/svg">
    <g clip-path="url(#clip0_13_39)">
        <path d="M39.0537 11.4137L34.3448 8.27577H34.4827V3.44819C34.4827 3.06733 34.1739 2.75854 33.793 2.75854H30.3448C29.9639 2.75854 29.6551 3.06733 29.6551 3.44819V5.14819L23.1413 0.803369C22.9096 0.648714 22.6075 0.648714 22.3758 0.803369L6.46343 11.4137C5.48723 12.0645 5.22335 13.3833 5.87412 14.3595C6.5249 15.3357 7.84378 15.5996 8.81998 14.9489L11.0345 13.473V26.8964H9.65515C9.65515 26.5156 9.34636 26.2068 8.9655 26.2068H3.44827C3.06741 26.2068 2.75861 26.5156 2.75861 26.8964H0V28.2757H2.75861V35.1723H0V36.5516H2.75861C2.75861 36.9324 3.06741 37.2412 3.44827 37.2412H8.9655C9.34636 37.2412 9.65515 36.9324 9.65515 36.5516V36.2888L14.8041 38.4267C17.611 39.5731 20.749 39.6079 23.5806 38.524L34.2344 34.4612C34.8655 34.2214 35.3735 33.7373 35.6434 33.1185C35.9221 32.4909 35.9365 31.7775 35.6834 31.1392C35.4579 30.5684 35.0306 30.1004 34.4827 29.824V13.473L36.6972 14.9489C37.6734 15.5996 38.9922 15.3357 39.643 14.3595C40.2938 13.3833 40.0299 12.0644 39.0537 11.4137ZM8.27584 35.8619H4.13792V27.5861H8.27584V35.8619ZM31.0344 4.13784H33.1034V7.44818L31.0344 6.06887V4.13784ZM34.3785 32.5626C34.2567 32.8442 34.0265 33.0648 33.7399 33.1743L23.0862 37.2364C20.5828 38.1954 17.8083 38.1655 15.3262 37.1529L9.65515 34.795V28.2757H11.4034C13.6901 28.2784 15.9451 28.8107 17.9917 29.8309C18.6675 30.1682 19.4123 30.3441 20.1675 30.3447H25.5172C26.0885 30.3484 26.5486 30.8145 26.5449 31.3858C26.5418 31.8643 26.2109 32.2784 25.7448 32.3867C25.6544 32.395 25.5661 32.4136 25.4744 32.4136H17.2413V33.7929H25.4744C25.4889 33.7929 25.5027 33.7929 25.5172 33.7929C25.531 33.7929 25.5441 33.7888 25.5586 33.7888C26.1059 33.78 26.6464 33.6654 27.1503 33.4516L32.9165 31.004C33.1911 30.8867 33.5018 30.8867 33.7765 31.004C34.0622 31.1246 34.2863 31.3564 34.3972 31.6461C34.5143 31.9417 34.5076 32.272 34.3785 32.5626ZM25.5172 28.9654H20.1675C19.6263 28.9646 19.0926 28.8385 18.6082 28.5971C16.6752 27.6342 14.569 27.0676 12.4138 26.9309V12.5516L22.7586 5.65508L33.1034 12.5516V29.5585C32.8539 29.5795 32.609 29.6383 32.3772 29.733L27.9055 31.6316C27.9185 31.548 27.927 31.4637 27.931 31.3792C27.931 30.0461 26.8503 28.9654 25.5172 28.9654ZM37.8752 13.9276C37.7281 13.9276 37.5844 13.8841 37.462 13.8026L23.1413 4.25371C22.9096 4.09905 22.6075 4.09905 22.3758 4.25371L8.05515 13.8013C7.7124 14.0295 7.24964 13.9365 7.02145 13.5938C6.93998 13.4714 6.89654 13.3276 6.89654 13.1806C6.89611 12.9312 7.02067 12.6981 7.22826 12.5599L22.7586 2.20681L38.2889 12.5613C38.4965 12.6995 38.621 12.9326 38.6206 13.182C38.6207 13.5937 38.2869 13.9275 37.8752 13.9276Z" fill="currentColor"/>
        <path d="M6.89661 33.1035H5.5173V34.4828H6.89661V33.1035Z" fill="currentColor"/>
        <path fill-rule="evenodd" clip-rule="evenodd" d="M16.0568 12.326C16.9891 12.469 18.4322 12.5302 19.7074 12.2648C20.9837 11.9992 21.9269 11.4508 22.2288 10.4787L22.9167 10L23.6045 10.4787C23.9064 11.4508 24.8496 11.9992 26.126 12.2648C27.4011 12.5302 28.8442 12.469 29.7766 12.326C30.0932 12.2775 30.408 12.4188 30.545 12.671C30.6358 12.838 30.6923 13.0709 30.7325 13.3227C30.776 13.5947 30.8096 13.9527 30.8247 14.4081C30.8549 15.3198 30.8113 16.6465 30.6098 18.4999C30.3918 20.5063 29.0918 22.5304 27.6391 24.2061C26.1749 25.8949 24.4874 27.3072 23.3672 28.1L22.9167 28.3333L22.4662 28.1C21.3459 27.3072 19.6584 25.8949 18.1943 24.2061C16.7415 22.5304 15.4416 20.5063 15.2235 18.4999C15.0221 16.6465 14.9785 15.3198 15.0086 14.4081C15.0237 13.9527 15.0574 13.5947 15.1008 13.3227C15.1411 13.0709 15.1975 12.838 15.2883 12.671C15.4253 12.4188 15.7402 12.2775 16.0568 12.326ZM22.9167 26.8127C23.9368 26.0394 25.2998 24.8486 26.5002 23.464C27.8992 21.8503 29.0104 20.0495 29.1914 18.384C29.3891 16.5656 29.4286 15.2914 29.4006 14.4435C29.3892 14.0998 29.3669 13.8302 29.3404 13.6255C28.3226 13.7202 27.0154 13.7201 25.7934 13.4658C24.7243 13.2433 23.6385 12.8042 22.9167 12.0051C22.1948 12.8042 21.109 13.2433 20.0399 13.4658C18.8179 13.7201 17.5108 13.7202 16.4929 13.6255C16.4665 13.8302 16.4441 14.0998 16.4327 14.4435C16.4047 15.2914 16.4443 16.5656 16.6419 18.384C16.8229 20.0495 17.9341 21.8503 19.3331 23.464C20.5335 24.8486 21.8965 26.0394 22.9167 26.8127Z" fill="currentColor"/>
        <path d="M19.4693 22C19.3893 22 19.3213 21.976 19.2653 21.928C19.2173 21.872 19.1933 21.804 19.1933 21.724V15.424C19.1933 15.344 19.2173 15.28 19.2653 15.232C19.3213 15.176 19.3893 15.148 19.4693 15.148H22.0853C23.1173 15.148 23.8813 15.396 24.3773 15.892C24.8813 16.38 25.1333 17.116 25.1333 18.1V19.708C25.1333 19.788 25.1053 19.856 25.0493 19.912C25.0013 19.96 24.9373 19.984 24.8573 19.984H24.3533C24.2733 19.984 24.2053 19.96 24.1493 19.912C24.1013 19.856 24.0773 19.788 24.0773 19.708V18.136C24.0773 16.76 23.3933 16.072 22.0253 16.072H20.2493V21.724C20.2493 21.804 20.2213 21.872 20.1653 21.928C20.1173 21.976 20.0533 22 19.9733 22H19.4693ZM21.7853 22C21.7053 22 21.6373 21.976 21.5813 21.928C21.5333 21.872 21.5093 21.804 21.5093 21.724V17.428C21.5093 17.348 21.5333 17.284 21.5813 17.236C21.6373 17.18 21.7053 17.152 21.7853 17.152H22.2893C22.3693 17.152 22.4333 17.18 22.4813 17.236C22.5373 17.284 22.5653 17.348 22.5653 17.428V21.064H24.3413C25.7093 21.064 26.3933 20.38 26.3933 19.012V15.424C26.3933 15.344 26.4173 15.28 26.4653 15.232C26.5213 15.176 26.5893 15.148 26.6693 15.148H27.1733C27.2613 15.148 27.3293 15.172 27.3773 15.22C27.4253 15.268 27.4493 15.336 27.4493 15.424V19.048C27.4493 20.032 27.1973 20.772 26.6933 21.268C26.1893 21.756 25.4213 22 24.3893 22H21.7853Z" fill="currentColor"/>
    </g>
    <defs>
        <clipPath id="clip0_13_39">
            <rect width="40" height="40" fill="currentColor"/>
        </clipPath>
    </defs>
</svg>
