<svg width="154" height="35" viewBox="0 0 154 35" fill="none" xmlns="http://www.w3.org/2000/svg">
<path d="M14.5458 5.93481C13.1917 5.5125 11.9795 5.30137 10.9093 5.30141C10.0275 5.30141 9.31917 5.45779 8.78414 5.77053C8.53125 5.90713 8.32197 6.11142 8.18006 6.36022C8.03815 6.60902 7.9693 6.89235 7.98132 7.17807C7.98132 7.86629 8.34336 8.39798 9.06744 8.77312C9.79133 9.14853 10.972 9.5708 12.6094 10.0399C14.121 10.4707 15.6037 10.9956 17.0488 11.6116C18.2221 12.1345 19.2569 12.9216 20.0712 13.9104C20.9213 14.9272 21.3463 16.2643 21.3463 17.9218C21.3463 20.4243 20.3782 22.3713 18.4419 23.7627C16.5057 25.1548 14.0263 25.8508 11.0038 25.8504C8.96881 25.8571 6.9452 25.5484 5.00595 24.9356C3.19039 24.3807 1.49337 23.498 0 22.3317L2.36133 17.4525C3.66207 18.4594 5.12243 19.2443 6.68257 19.7749C8.12925 20.2969 9.65373 20.5745 11.1927 20.596C12.1682 20.596 12.9474 20.4318 13.5303 20.1033C13.8023 19.965 14.029 19.7525 14.1837 19.4907C14.3385 19.229 14.415 18.9288 14.4041 18.6255C14.4041 17.9065 14.0342 17.3435 13.2943 16.9366C12.5541 16.5305 11.3655 16.0926 9.72859 15.6229C8.25751 15.2142 6.81416 14.7127 5.40736 14.1215C4.2502 13.6155 3.23642 12.834 2.45576 11.846C1.63677 10.8301 1.2275 9.50869 1.22793 7.88185C1.22793 5.3798 2.17245 3.44057 4.06148 2.06418C5.95059 0.688222 8.34337 0.000163219 11.2398 0C12.997 0.00364825 14.7452 0.24835 16.4349 0.727169C18.1051 1.18522 19.6969 1.88892 21.1576 2.81491L18.6544 7.7409C17.353 6.99623 15.9758 6.39081 14.5458 5.93481ZM65.0684 2.65063C66.7213 4.38657 67.5478 6.7402 67.5478 9.71154V25.569H60.322V11.8227C60.322 10.1967 59.8813 8.93 58.9997 8.02257C58.118 7.11573 56.9217 6.6622 55.4106 6.66198C53.6787 6.69341 52.3091 7.30331 51.3019 8.49169C50.2938 9.68062 49.7901 11.2132 49.7906 13.0893V25.569H42.565V11.8227C42.565 10.2276 42.1321 8.96872 41.2663 8.04595C40.3999 7.12375 39.2114 6.66242 37.7007 6.66195C35.9688 6.69338 34.5914 7.30328 33.5684 8.49166C32.5449 9.68059 32.0333 11.2131 32.0335 13.0893V25.569H24.7605V0.328358H32.0335V4.69157C33.7964 1.65805 36.6614 0.109794 40.6286 0.046791C42.7694 0.046791 44.5797 0.555079 46.0597 1.57165C47.5392 2.58829 48.5939 4.01922 49.2239 5.86446C50.0423 3.95703 51.2309 2.51824 52.7896 1.54809C54.3479 0.579082 56.2133 0.0786475 58.3858 0.046791C61.1876 0.046791 63.4151 0.914737 65.0684 2.65063ZM87.113 25.569V22.6133C86.2395 23.6942 85.1014 24.5342 83.8075 25.0529C82.4533 25.6159 80.8947 25.8974 79.1318 25.8974C76.4554 25.8974 74.3302 25.1702 72.7563 23.7159C71.1817 22.2614 70.3945 20.3613 70.395 18.0155C70.395 15.639 71.2372 13.7858 72.9217 12.4561C74.6055 11.1271 76.9905 10.4468 80.0765 10.4151H87.066V9.94602C87.066 8.60165 86.6174 7.56167 85.7203 6.8261C84.8229 6.09162 83.5084 5.72411 81.7767 5.72357C79.4154 5.72357 76.8966 6.45859 74.2203 7.92864L71.9535 2.95563C73.7634 2.03387 75.662 1.29514 77.6206 0.750572C79.5176 0.264821 81.4705 0.0282121 83.4294 0.046791C86.8297 0.046791 89.4665 0.844375 91.3399 2.43954C93.2126 4.03476 94.165 6.25542 94.197 9.10153L94.2444 25.569H87.113ZM85.0824 19.6576C86.184 18.9384 86.8451 18.0314 87.0658 16.9366V14.6845H81.3513C79.9346 14.6845 77.3411 14.6447 77.3411 14.6447C77.3411 14.6447 77.1956 16.5458 77.1956 17.5464C77.1956 18.5162 77.5498 19.2904 78.2582 19.8688C78.9666 20.4479 79.9348 20.7372 81.1626 20.7367C82.6737 20.7367 83.9803 20.377 85.0824 19.6576ZM120.87 1.71236C122.688 2.79977 124.149 4.38908 125.074 6.28662C126.065 8.25704 126.561 10.5246 126.561 13.0893C126.561 15.6228 126.073 17.8513 125.097 19.7749C124.182 21.6322 122.748 23.188 120.965 24.2554C119.186 25.319 117.116 25.8506 114.755 25.8504C112.991 25.8504 111.425 25.5142 110.056 24.8418C108.675 24.1605 107.483 23.1538 106.584 21.9096V34.6707H99.3114V0.328358H106.584V4.03476C107.458 2.78598 108.636 1.77727 110.008 1.10258C111.444 0.415449 113.02 0.0700377 114.613 0.0937549C116.974 0.0937549 119.06 0.63329 120.87 1.71236ZM119.955 19.2977C121.389 17.7006 122.106 15.6312 122.106 13.0894C122.106 12.4996 122.094 11.0382 122.094 11.0382L106.655 10.9133C106.655 10.9133 106.584 12.3075 106.584 13.0894C106.584 15.6693 107.311 17.7484 108.765 19.3268C110.218 20.906 112.088 21.6952 114.374 21.6945C116.661 21.6945 118.521 20.8956 119.955 19.2977ZM133.551 34.9991C132.298 35.0154 131.052 34.817 129.867 34.4126L126.312 33.1422L129.725 27.3517C130.827 28.2585 131.929 28.7121 133.031 28.7123C134.574 28.7123 135.691 27.9617 136.384 26.4604L136.683 25.8666C136.811 25.6115 136.883 25.3317 136.892 25.0466C136.901 24.7614 136.848 24.4778 136.736 24.215L126.561 0.328358H134.07L140.729 17.6871L146.727 0.328358H154L142.854 28.3839C141.091 32.794 137.99 34.9991 133.551 34.9991Z" fill="url(#paint0_linear_942_7213)"/>
<defs>
<linearGradient id="paint0_linear_942_7213" x1="0" y1="0" x2="154" y2="0" gradientUnits="userSpaceOnUse">
<stop stop-color="#FE0555"/>
<stop offset="1" stop-color="#FF8700"/>
</linearGradient>
</defs>
</svg>
