<svg width="241" height="187" viewBox="0 0 241 187" fill="none" xmlns="http://www.w3.org/2000/svg">
<path opacity="0.81" d="M171.818 144.022C171.818 144.022 198.976 74.6487 239.32 67.0703C240.036 66.9359 240.689 67.5145 240.654 68.25C240.246 76.8072 235.078 122.095 171.818 144.022Z" fill="url(#paint0_linear_6675_23200)"/>
<path opacity="0.62" d="M232.065 78.3284C230.005 81.3014 227.846 84.1959 225.658 87.0685C225.111 87.787 224.553 88.496 224.001 89.2106C223.444 89.9216 222.9 90.6416 222.334 91.3451L220.643 93.4592C220.076 94.1617 219.521 94.8743 218.941 95.5653C217.788 96.9539 216.647 98.3519 215.485 99.733L211.963 103.844C209.574 106.548 207.186 109.254 204.724 111.891L202.891 113.882C202.287 114.553 201.647 115.188 201.027 115.843L197.287 119.755L193.45 123.57C192.809 124.205 192.174 124.846 191.521 125.467L189.541 127.311C188.219 128.538 186.91 129.779 185.566 130.98L181.478 134.522L180.452 135.402C180.107 135.691 179.771 135.993 179.418 136.273L177.307 137.961C176.605 138.526 175.893 139.078 175.187 139.637C174.48 140.195 173.772 140.751 173.06 141.302C173.006 141.344 172.928 141.334 172.886 141.279C172.846 141.226 172.854 141.15 172.903 141.107L172.907 141.104C173.587 140.514 174.271 139.929 174.956 139.346C175.642 138.763 176.323 138.175 177.013 137.598L179.078 135.862C179.759 135.275 180.419 134.662 181.094 134.068L185.138 130.494L189.098 126.827L191.08 124.995C191.411 124.69 191.727 124.368 192.051 124.057L193.023 123.119L196.908 119.368C199.435 116.803 202.005 114.277 204.445 111.624C205.677 110.31 206.925 109.009 208.115 107.655C209.316 106.311 210.527 104.976 211.719 103.624L215.253 99.5301C216.419 98.155 217.565 96.7625 218.722 95.3794C219.304 94.6914 219.861 93.9813 220.43 93.2818L222.128 91.1757C222.696 90.4757 223.243 89.7577 223.801 89.0497C224.355 88.3381 224.916 87.6316 225.465 86.9156C227.651 84.0465 229.807 81.1495 231.86 78.1845L231.862 78.1825C231.901 78.1255 231.979 78.112 232.035 78.1515C232.09 78.193 232.104 78.2714 232.065 78.3284Z" fill="white"/>
<g opacity="0.79">
<path opacity="0.79" d="M165.242 104.239C165.242 104.239 178.444 42.9787 218.299 11.223C218.819 10.8088 219.588 11.0706 219.747 11.7202C222.254 21.9783 235.307 87.4063 165.242 104.239Z" fill="url(#paint1_linear_6675_23200)"/>
<path opacity="0.62" d="M214.069 28.8949C213.611 30.6717 213.079 32.4226 212.517 34.1654C211.954 35.9072 211.362 37.6406 210.734 39.3594C209.473 42.7966 208.101 46.1918 206.621 49.5396C206.254 50.378 205.867 51.2069 205.491 52.0414C205.112 52.8743 204.704 53.6933 204.312 54.5197C203.923 55.3482 203.502 56.1601 203.093 56.9786L202.476 58.2038L201.836 59.4174C200.132 62.6548 198.338 65.8456 196.404 68.95C194.464 72.0495 192.447 75.1034 190.272 78.0404C190.002 78.4097 189.738 78.7824 189.465 79.1482L188.63 80.235L187.796 81.3217C187.516 81.6825 187.245 82.0502 186.951 82.4005L185.218 84.5226L184.783 85.0517L184.333 85.5669L183.431 86.5977C178.648 92.1165 173.294 97.1261 167.504 101.536C167.457 101.573 167.389 101.563 167.353 101.515C167.318 101.468 167.326 101.401 167.371 101.364L167.373 101.362L169.475 99.6289L170.527 98.765L171.546 97.8601L173.581 96.0499L175.548 94.1646C175.873 93.8483 176.209 93.542 176.53 93.2207L177.482 92.2464C178.114 91.5938 178.759 90.9548 179.38 90.2912C180.601 88.9446 181.85 87.625 183.012 86.2259L183.898 85.1901L184.341 84.672L184.768 84.1408L186.482 82.0198C186.772 81.6705 187.041 81.3032 187.318 80.943L188.145 79.8582L188.972 78.7734C189.242 78.4082 189.504 78.0359 189.771 77.6677C191.926 74.7362 193.922 71.6877 195.842 68.5948C197.773 65.5073 199.577 62.3395 201.285 59.1196L201.927 57.9129L202.547 56.6948C202.957 55.8808 203.379 55.0729 203.77 54.2494C204.572 52.612 205.347 50.9611 206.109 49.3042C207.621 45.985 209.027 42.6152 210.325 39.203C210.983 37.5006 211.605 35.7838 212.198 34.057C212.496 33.194 212.783 32.3266 213.06 31.4572C213.342 30.5893 213.611 29.7149 213.86 28.839L213.86 28.837C213.877 28.779 213.937 28.7455 213.994 28.762C214.051 28.7785 214.084 28.838 214.069 28.8949Z" fill="white"/>
</g>
<path d="M47.16 176.513C44.838 176.587 42.5435 175.99 40.5485 174.793C34.5138 171.155 25.5972 165.148 17.5751 157.285C7.39463 147.306 1.54756 137.165 0.268279 127.204L0.247789 127.049L0 84.5501C0 76.1506 5.44753 69.3329 15.676 64.8531C24.1278 61.1517 35.3276 59.3161 47.16 59.6625C58.8554 60.0031 69.6769 62.431 77.6868 66.4724C87.2085 71.2786 92.2046 78.0325 92.2046 86.0406L91.9779 126.648L91.9594 126.797C90.7902 136.335 85.4092 146.194 75.8979 156.163C68.2695 164.159 59.6487 170.495 53.7287 174.422C51.7752 175.72 49.5004 176.444 47.16 176.513Z" fill="url(#paint2_linear_6675_23200)"/>
<path d="M49.4795 176.514C47.1853 176.587 44.9194 175.989 42.9563 174.793C37.0017 171.155 28.2029 165.148 20.2903 157.285C10.2455 147.306 4.47528 137.165 3.21137 127.204L3.19152 127.049L2.94629 84.5501C2.94629 76.1506 8.32467 69.333 18.4155 64.8531C26.7546 61.1517 37.8071 59.3161 49.484 59.6625C61.0244 60.0031 71.7018 62.431 79.6074 66.4724C89.0029 71.2786 93.9331 78.0325 93.9331 86.0406L93.7096 126.648L93.691 126.798C92.5385 136.335 87.2242 146.194 77.8421 156.163C70.3143 164.159 61.8075 170.495 55.9656 174.422C54.0425 175.719 51.7943 176.444 49.4795 176.514Z" fill="url(#paint3_linear_6675_23200)"/>
<path d="M6.04883 84.5791L6.29534 126.863C9.06328 148.437 34.2757 165.904 45.2598 172.54C48.4055 174.442 52.4277 174.329 55.5517 172.262C66.3039 165.147 90.1378 147.236 92.6842 126.493L92.9103 85.9955C92.9103 55.9534 6.04883 53.2068 6.04883 84.5791Z" fill="url(#paint4_linear_6675_23200)"/>
<g style="mix-blend-mode:soft-light" opacity="0.3">
<g style="mix-blend-mode:soft-light" opacity="0.3">
<path d="M50.3749 139.297C52.0851 120.326 61.9788 112.34 61.3045 95.3348C60.8141 82.966 54.9708 71.892 46.6581 62.2344C25.8098 62.3033 5.73438 69.4988 5.73438 84.5807L5.98088 126.865C8.74883 148.439 33.9612 165.906 44.9453 172.542C48.091 174.443 52.1165 174.331 55.2372 172.264C55.4805 172.102 55.7328 171.934 55.9895 171.762C50.6201 159.03 49.572 148.203 50.3749 139.297Z" fill="white" fill-opacity="0.5"/>
</g>
</g>
<path d="M50.1027 166.03C49.8164 166.038 49.5339 165.963 49.2889 165.814C44.7672 163.06 36.0024 157.293 28.3766 149.761C20.14 141.624 15.3897 133.716 14.3006 126.287L14.0586 84.7034C14.0688 80.7116 17.2101 77.2993 23.367 74.5662C30.2398 71.5163 40.0009 69.9157 50.1027 70.1565C60.1039 70.3954 69.5801 72.4196 76.1449 75.6936C81.9523 78.5908 84.888 82.007 84.8976 85.8591L84.6722 126.003C83.6554 133.192 79.1971 140.94 71.369 149.089C64.0058 156.75 55.41 162.82 50.9158 165.774C50.6739 165.934 50.3922 166.022 50.1027 166.03Z" fill="url(#paint5_linear_6675_23200)"/>
<path d="M49.07 163.18C44.5035 160.351 36.3834 154.89 29.2987 147.88C21.5583 140.218 17.0789 132.869 16.0256 126.068L15.7861 84.7256C15.7932 81.8727 18.401 79.2529 23.5169 76.9783C30.0279 74.081 39.3569 72.5512 49.0693 72.7708C58.6896 72.9877 67.7566 74.8954 73.9878 77.9987C78.829 80.4073 81.2781 83.0348 81.2871 85.8169L81.0623 125.813C80.0744 132.412 75.8491 139.629 68.4603 147.304C61.599 154.428 53.6153 160.158 49.07 163.18Z" fill="url(#paint6_linear_6675_23200)"/>
<g style="mix-blend-mode:soft-light" opacity="0.3">
<g style="mix-blend-mode:soft-light" opacity="0.3">
<path d="M50.384 139.297C52.0942 120.326 61.9879 112.34 61.3136 95.3348C60.998 87.3666 58.4593 79.9374 54.4716 73.0773C52.705 72.9183 50.9033 72.8159 49.0817 72.7747C39.3686 72.5551 30.0397 74.083 23.5286 76.9822C18.4128 79.2594 15.8049 81.8754 15.7979 84.7295L16.0373 126.072C17.0906 132.873 21.57 140.223 29.3104 147.884C36.3951 154.894 44.5152 160.355 49.0817 163.184C50.0203 162.56 51.112 161.814 52.3042 160.971C50.1702 152.797 49.818 145.57 50.384 139.297Z" fill="white" fill-opacity="0.5"/>
</g>
</g>
<mask id="mask0_6675_23200" style="mask-type:alpha" maskUnits="userSpaceOnUse" x="6" y="62" width="87" height="112">
<path d="M6.05762 84.583L6.30413 126.867C9.07207 148.441 34.2845 165.908 45.2686 172.544C48.4143 174.445 52.4365 174.333 55.5605 172.266C66.3127 165.151 90.1466 147.24 92.693 126.497L92.9191 85.9995C92.9191 55.9573 6.05762 53.2107 6.05762 84.583Z" fill="url(#paint7_linear_6675_23200)"/>
</mask>
<g mask="url(#mask0_6675_23200)">
<path d="M73.2795 107.467C71.4568 90.233 51.8155 82.4049 40.2873 89.4757C39.9359 89.6925 39.5838 89.7858 39.1431 89.2796C39.3336 88.6269 39.4766 87.8429 39.7863 87.139C40.8714 84.6604 40.1817 83.3902 37.4713 82.8056C34.4141 82.1495 31.4157 81.1655 28.445 80.1711C26.6533 79.5681 25.7882 79.9908 25.2488 81.8599C19.0763 103.133 12.87 124.395 6.61852 145.645C6.09596 147.414 6.64498 148.137 8.3134 148.574C11.2519 149.343 14.1423 150.277 17.056 151.131C20.7467 152.221 20.7597 152.218 21.8382 148.523C23.7906 141.856 25.7334 135.179 27.7994 128.101C28.3301 128.782 28.6296 129.036 28.7622 129.359C33.2639 140.103 52.6007 145.005 63.0709 135.427C71.3143 127.892 74.4253 118.305 73.2795 107.467ZM50.0195 130.895C39.2438 132.762 30.3723 123.213 32.5194 112.392C33.9994 104.907 33.9888 104.922 41.2303 107.245C43.9322 108.111 46.6672 108.863 49.3874 109.666C49.3542 109.78 57.632 112.144 61.7838 113.271C63.6239 113.771 63.9733 114.947 63.4 116.806C61.2613 123.777 57.7358 129.554 50.0195 130.895Z" fill="white"/>
</g>
<path d="M61.6934 180.25V184.45C61.6934 185.808 70.1252 186.908 80.5266 186.908C90.928 186.908 99.3606 185.808 99.3606 184.45V180.25H61.6934Z" fill="url(#paint8_linear_6675_23200)"/>
<path d="M99.3606 180.25C99.3606 181.608 90.9287 182.709 80.5266 182.709C70.1246 182.709 61.6934 181.608 61.6934 180.25C61.6934 178.893 70.1252 177.793 80.5266 177.793C90.928 177.793 99.3606 178.893 99.3606 180.25Z" fill="url(#paint9_linear_6675_23200)"/>
<path d="M80.5239 182.876C71.3121 182.876 61.6797 181.992 61.6797 180.285C61.6797 180.192 61.7123 180.027 61.8077 180.027C61.9031 180.027 61.8609 180.156 61.8609 180.25C61.8609 181.332 69.5264 182.538 80.5258 182.538C91.5252 182.538 99.1913 181.332 99.1913 180.25C99.1913 180.156 99.2073 180.069 99.3002 180.069C99.393 180.069 99.3712 180.193 99.3712 180.287C99.3693 181.992 89.7363 182.876 80.5239 182.876Z" fill="url(#paint10_linear_6675_23200)"/>
<path d="M78.7494 180.384C78.9345 180.256 79.1336 180.127 79.3411 180.004C79.5967 179.859 79.8683 179.745 80.1504 179.664C80.5568 179.548 80.972 179.466 81.3919 179.418C82.0083 179.348 82.6283 179.314 83.2487 179.317C83.9769 179.313 84.6599 179.336 85.2976 179.386C85.8636 179.427 86.4266 179.502 86.9835 179.611C87.391 179.687 87.7882 179.81 88.1667 179.98C88.4689 180.127 88.6493 180.295 88.7078 180.484L90.8284 180.506C90.9648 180.505 91.101 180.518 91.2349 180.544C91.3534 180.568 91.4104 180.599 91.411 180.636V180.812L88.6847 180.785C88.5891 181 88.3456 181.197 87.9541 181.375C87.4735 181.583 86.9723 181.738 86.4591 181.839L85.466 181.7C85.3915 181.69 85.3181 181.673 85.247 181.648C85.1894 181.627 85.1619 181.604 85.1619 181.579C85.1619 181.554 85.2381 181.507 85.3917 181.464C85.5454 181.421 85.7189 181.367 85.9116 181.303C86.1056 181.239 86.2957 181.163 86.4808 181.076C86.6659 180.99 86.7895 180.883 86.8541 180.765L80.4193 180.7C80.2368 180.834 80.0469 180.957 79.8507 181.069C79.5875 181.211 79.308 181.321 79.0183 181.395C78.5933 181.506 78.1605 181.585 77.7237 181.63C77.0751 181.697 76.4234 181.729 75.7715 181.726C75.1818 181.729 74.6074 181.707 74.0427 181.662C73.5393 181.622 73.0388 181.55 72.5444 181.447C72.1732 181.373 71.8122 181.254 71.4694 181.093C71.1909 180.952 71.034 180.791 71.0014 180.608L69.256 180.59C69.1175 180.59 68.9793 180.578 68.843 180.554C68.7226 180.53 68.6611 180.499 68.6611 180.46V180.285L71.0481 180.308C71.1538 180.122 71.3683 179.961 71.7006 179.824C72.0933 179.668 72.4985 179.545 72.912 179.458L73.7111 179.568C73.9544 179.602 74.0747 179.643 74.0747 179.688C74.0747 179.713 74.0261 179.744 73.9255 179.781C73.825 179.818 73.7046 179.862 73.567 179.913C73.4307 179.964 73.2979 180.025 73.1694 180.093C73.0563 180.149 72.9569 180.229 72.8787 180.328L78.7494 180.384ZM72.8588 180.624C72.9069 180.739 73.0138 180.838 73.179 180.921C73.3715 181.016 73.5753 181.085 73.7853 181.127C74.0547 181.185 74.3277 181.225 74.6023 181.246C74.9067 181.271 75.2245 181.282 75.5557 181.281C75.8935 181.282 76.2312 181.265 76.5674 181.231C76.8221 181.204 77.0749 181.161 77.3242 181.102C77.5189 181.055 77.7093 180.992 77.8934 180.913C78.0441 180.846 78.1895 180.768 78.3281 180.679L72.8588 180.624ZM86.8676 180.467C86.8196 180.35 86.703 180.248 86.5212 180.16C86.2982 180.059 86.0642 179.985 85.8239 179.939C85.4974 179.873 85.1669 179.828 84.8347 179.806C84.4595 179.776 84.0452 179.762 83.5919 179.765C83.2439 179.764 82.8962 179.782 82.5501 179.819C82.2951 179.847 82.0424 179.893 81.794 179.957C81.6061 180.005 81.4238 180.073 81.2504 180.16C81.1062 180.233 80.9668 180.315 80.8329 180.406L86.8676 180.467Z" fill="#FCB048"/>
<path d="M80.5234 178.059C72.1261 178.059 63.3824 178.802 61.9834 180.24C62.0378 180.29 62.0889 180.344 62.1364 180.402C63.3152 179.403 70.535 178.397 80.5234 178.397C90.768 178.397 98.1043 179.455 98.993 180.479C99.0367 180.422 99.0837 180.369 99.1339 180.318C97.9782 178.829 89.0706 178.059 80.5234 178.059Z" fill="url(#paint11_linear_6675_23200)"/>
<path d="M56.4492 175.836V180.037C56.4492 181.394 64.8811 182.495 75.2825 182.495C85.6839 182.495 94.1164 181.394 94.1164 180.037V175.836H56.4492Z" fill="url(#paint12_linear_6675_23200)"/>
<path d="M94.1164 175.836C94.1164 177.194 85.6845 178.295 75.2825 178.295C64.8805 178.295 56.4492 177.194 56.4492 175.836C56.4492 174.479 64.8811 173.379 75.2825 173.379C85.6839 173.379 94.1164 174.479 94.1164 175.836Z" fill="url(#paint13_linear_6675_23200)"/>
<path d="M75.2891 178.462C66.0774 178.462 56.4443 177.578 56.4443 175.871C56.4443 175.777 56.4776 175.613 56.5724 175.613C56.6672 175.613 56.6255 175.742 56.6255 175.835C56.6255 176.918 64.291 178.124 75.2904 178.124C86.2898 178.124 93.956 176.918 93.956 175.835C93.956 175.742 93.9713 175.654 94.0648 175.654C94.1583 175.654 94.1352 175.779 94.1352 175.873C94.1333 177.579 84.5009 178.462 75.2891 178.462Z" fill="url(#paint14_linear_6675_23200)"/>
<path d="M73.5134 175.978C73.6978 175.849 73.8976 175.721 74.1051 175.598C74.3607 175.453 74.6323 175.339 74.9144 175.258C75.3208 175.142 75.736 175.06 76.1559 175.012C76.7723 174.941 77.3923 174.908 78.0127 174.911C78.7409 174.907 79.4239 174.93 80.0616 174.98C80.6276 175.021 81.1906 175.096 81.7475 175.205C82.155 175.28 82.5522 175.404 82.9307 175.574C83.2329 175.721 83.4133 175.889 83.4718 176.078L85.5924 176.1C85.7288 176.099 85.865 176.112 85.9989 176.138C86.1174 176.162 86.1744 176.192 86.175 176.23V176.406L83.4487 176.379C83.3531 176.594 83.1093 176.79 82.7175 176.969C82.2371 177.176 81.7362 177.332 81.2231 177.433L80.23 177.294C80.1555 177.284 80.0821 177.267 80.011 177.242C79.9534 177.221 79.9259 177.198 79.9252 177.173C79.9246 177.148 80.0021 177.101 80.1557 177.058C80.3094 177.015 80.4829 176.961 80.6756 176.897C80.8697 176.833 81.0598 176.757 81.2448 176.67C81.4299 176.583 81.5535 176.477 81.6181 176.359L75.1833 176.294C75.0008 176.428 74.8109 176.55 74.6147 176.662C74.3514 176.805 74.0719 176.914 73.7824 176.989C73.3573 177.1 72.9245 177.178 72.4877 177.224C71.8391 177.291 71.1874 177.323 70.5355 177.32C69.9458 177.32 69.3714 177.301 68.8067 177.255C68.3033 177.216 67.8028 177.144 67.3085 177.04C66.9373 176.967 66.5765 176.848 66.2341 176.686C65.9549 176.546 65.7989 176.385 65.766 176.202L64.02 176.184C63.8817 176.184 63.7437 176.172 63.6076 176.147C63.4872 176.124 63.4258 176.093 63.4258 176.054V175.88L65.8128 175.903C65.9184 175.717 66.1329 175.556 66.4652 175.419C66.8579 175.263 67.2632 175.14 67.6766 175.053L68.4757 175.163C68.719 175.197 68.8394 175.238 68.8394 175.283C68.8394 175.308 68.7907 175.339 68.6902 175.376C68.5897 175.413 68.4693 175.457 68.3316 175.505C68.1953 175.556 68.0625 175.616 67.934 175.685C67.8209 175.74 67.7216 175.82 67.6433 175.919L73.5134 175.978ZM67.6228 176.218C67.6709 176.333 67.7778 176.432 67.943 176.515C68.1357 176.609 68.3397 176.679 68.55 176.721C68.8193 176.779 69.0923 176.818 69.367 176.84C69.6713 176.865 69.9889 176.877 70.3197 176.875C70.6575 176.876 70.9952 176.859 71.3313 176.825C71.5863 176.798 71.8393 176.755 72.0888 176.696C72.2832 176.649 72.4734 176.586 72.6574 176.507C72.8084 176.44 72.9539 176.362 73.0928 176.273L67.6228 176.218ZM81.6316 176.06C81.5836 175.944 81.467 175.842 81.2852 175.754C81.0621 175.653 80.8278 175.578 80.5873 175.533C80.261 175.467 79.9307 175.422 79.5987 175.399C79.2235 175.37 78.8092 175.356 78.3559 175.359C78.0079 175.358 77.6602 175.376 77.3142 175.413C77.0589 175.441 76.806 175.487 76.5573 175.551C76.3697 175.599 76.1876 175.667 76.0144 175.753C75.8702 175.827 75.7308 175.909 75.5969 176L81.6316 176.06Z" fill="#FCB048"/>
<path d="M75.2891 173.641C66.8918 173.641 58.148 174.384 56.749 175.823C56.8036 175.873 56.8547 175.927 56.9021 175.984C58.0808 174.986 65.3006 173.98 75.2891 173.98C85.5336 173.98 92.8699 175.038 93.7587 176.061C93.8023 176.005 93.8491 175.951 93.8989 175.9C92.7457 174.411 83.8381 173.641 75.2891 173.641Z" fill="url(#paint15_linear_6675_23200)"/>
<path d="M60.9697 171.438V175.638C60.9697 176.995 69.4023 178.095 79.8037 178.095C90.2051 178.095 98.6376 176.995 98.6376 175.638V171.438H60.9697Z" fill="url(#paint16_linear_6675_23200)"/>
<path d="M98.6376 171.443C98.6376 172.8 90.2051 173.9 79.8037 173.9C69.4023 173.9 60.9697 172.8 60.9697 171.443C60.9697 170.085 69.4023 168.984 79.8037 168.984C90.2051 168.984 98.6376 170.085 98.6376 171.443Z" fill="url(#paint17_linear_6675_23200)"/>
<path d="M79.8057 174.06C70.594 174.06 60.9609 173.175 60.9609 171.468C60.9609 171.375 60.9942 171.211 61.089 171.211C61.1838 171.211 61.1421 171.34 61.1421 171.434C61.1421 172.516 68.8076 173.721 79.807 173.721C90.8064 173.721 98.4719 172.516 98.4719 171.434C98.4719 171.34 98.4879 171.252 98.5814 171.252C98.6749 171.252 98.6518 171.377 98.6518 171.47C98.6505 173.177 89.0175 174.06 79.8057 174.06Z" fill="url(#paint18_linear_6675_23200)"/>
<path d="M78.0258 171.576C78.2102 171.447 78.41 171.318 78.6174 171.195C78.873 171.051 79.1447 170.937 79.4267 170.856C79.8332 170.74 80.2484 170.657 80.6683 170.609C81.2847 170.539 81.9047 170.505 82.5251 170.508C83.2533 170.504 83.9363 170.528 84.574 170.578C85.1397 170.618 85.7025 170.693 86.2592 170.802C86.6669 170.878 87.0643 171.002 87.4431 171.171C87.7453 171.318 87.9254 171.486 87.9835 171.676L90.1041 171.697C90.2406 171.696 90.3768 171.709 90.5107 171.735C90.6298 171.759 90.6868 171.79 90.6868 171.827V172.003L87.9604 171.977C87.8644 172.191 87.6207 172.388 87.2292 172.567C86.7486 172.774 86.2475 172.929 85.7342 173.03L84.7417 172.892C84.667 172.882 84.5934 172.864 84.5221 172.84C84.4651 172.818 84.437 172.796 84.437 172.771C84.437 172.746 84.5138 172.699 84.6675 172.655C84.8211 172.612 84.9946 172.558 85.1874 172.494C85.3814 172.43 85.5715 172.355 85.7566 172.268C85.9416 172.181 86.0652 172.075 86.1299 171.956L79.6944 171.892C79.5121 172.025 79.3225 172.148 79.1264 172.26C78.8632 172.402 78.5837 172.512 78.2941 172.587C77.869 172.697 77.4362 172.776 76.9994 172.822C76.3508 172.888 75.6992 172.92 75.0472 172.917C74.4569 172.917 73.8832 172.898 73.3184 172.853C72.815 172.813 72.3146 172.742 71.8202 172.638C71.449 172.565 71.0882 172.446 70.7458 172.284C70.4666 172.144 70.3106 171.982 70.2777 171.8L68.5317 171.782C68.3934 171.782 68.2554 171.77 68.1193 171.745C67.999 171.722 67.9375 171.69 67.9375 171.652V171.476L70.3251 171.499C70.4301 171.314 70.6453 171.153 70.9776 171.016C71.3703 170.859 71.7755 170.736 72.189 170.649L72.9881 170.759C73.2307 170.793 73.3517 170.834 73.3517 170.88C73.3517 170.905 73.3024 170.936 73.2019 170.972C73.1014 171.009 72.9817 171.054 72.844 171.101C72.7077 171.153 72.5749 171.213 72.4464 171.281C72.3333 171.337 72.2339 171.417 72.1557 171.516L78.0258 171.576ZM72.1352 171.815C72.1832 171.93 72.2901 172.03 72.4553 172.113C72.6481 172.207 72.8521 172.276 73.0623 172.319C73.3317 172.377 73.6047 172.416 73.8793 172.437C74.1837 172.463 74.5013 172.474 74.8321 172.473C75.1699 172.473 75.5076 172.456 75.8437 172.422C76.0985 172.396 76.3513 172.353 76.6005 172.294C76.7953 172.247 76.9857 172.184 77.1697 172.104C77.3205 172.038 77.4659 171.96 77.6045 171.871L72.1352 171.815ZM86.144 171.658C86.0959 171.542 85.9788 171.439 85.7969 171.352C85.574 171.25 85.3399 171.176 85.0996 171.13C84.7733 171.064 84.4431 171.02 84.1111 170.997C83.7359 170.967 83.3214 170.954 82.8676 170.956C82.5199 170.955 82.1723 170.973 81.8265 171.01C81.5713 171.038 81.3184 171.085 81.0697 171.149C80.8819 171.197 80.6996 171.264 80.5261 171.351C80.3822 171.424 80.243 171.507 80.1093 171.598L86.144 171.658Z" fill="#FCB048"/>
<path d="M79.8144 169.242C71.4171 169.242 62.6728 169.985 61.2744 171.423C61.3287 171.474 61.3798 171.528 61.4274 171.585C62.6062 170.587 69.826 169.581 79.8144 169.581C90.059 169.581 97.3953 170.639 98.2834 171.662C98.3271 171.606 98.3741 171.553 98.4243 171.502C97.2692 170.015 88.3616 169.242 79.8144 169.242Z" fill="url(#paint19_linear_6675_23200)"/>
<path d="M63.7109 167.027V171.228C63.7109 172.585 72.1428 173.685 82.5449 173.685C92.9469 173.685 101.379 172.585 101.379 171.228V167.027H63.7109Z" fill="url(#paint20_linear_6675_23200)"/>
<path d="M82.5449 169.478C92.9465 169.478 101.379 168.377 101.379 167.02C101.379 165.663 92.9465 164.562 82.5449 164.562C72.1432 164.562 63.7109 165.663 63.7109 167.02C63.7109 168.377 72.1432 169.478 82.5449 169.478Z" fill="url(#paint21_linear_6675_23200)"/>
<path d="M82.547 169.654C73.3346 169.654 63.7021 168.769 63.7021 167.062C63.7021 166.969 63.7354 166.805 63.8302 166.805C63.925 166.805 63.8833 166.933 63.8833 167.027C63.8833 168.109 71.5488 169.315 82.5489 169.315C93.5489 169.315 101.214 168.109 101.214 167.027C101.214 166.933 101.23 166.846 101.323 166.846C101.415 166.846 101.394 166.971 101.394 167.064C101.392 168.77 91.7587 169.654 82.547 169.654Z" fill="url(#paint22_linear_6675_23200)"/>
<path d="M80.7693 167.162C80.9544 167.033 81.1535 166.904 81.3616 166.781C81.6169 166.636 81.8884 166.523 82.1703 166.442C82.5767 166.326 82.9919 166.243 83.4118 166.195C84.0293 166.125 84.6504 166.091 85.2718 166.094C85.9975 166.09 86.6804 166.113 87.3207 166.164C87.8867 166.204 88.4497 166.279 89.0066 166.388C89.4141 166.464 89.8113 166.588 90.1898 166.757C90.4929 166.904 90.6732 167.072 90.7309 167.261L92.8515 167.283C92.9879 167.282 93.1241 167.295 93.2581 167.321C93.3765 167.345 93.4341 167.376 93.4341 167.413V167.589L90.7078 167.563C90.6122 167.777 90.3687 167.974 89.9772 168.153C89.4965 168.36 88.9954 168.515 88.4822 168.617L87.4891 168.478C87.4146 168.468 87.3412 168.45 87.2701 168.426C87.2125 168.404 87.185 168.382 87.185 168.357C87.185 168.332 87.2618 168.285 87.4155 168.241C87.5691 168.198 87.742 168.144 87.9354 168.08C88.1292 168.016 88.319 167.941 88.5039 167.854C88.6888 167.768 88.8132 167.664 88.8772 167.542L82.4424 167.478C82.2599 167.611 82.07 167.734 81.8738 167.846C81.6106 167.988 81.3311 168.098 81.0414 168.172C80.6161 168.283 80.1832 168.362 79.7462 168.407C79.0976 168.474 78.4459 168.506 77.7939 168.503C77.2042 168.507 76.6299 168.484 76.0652 168.439C75.5617 168.399 75.0613 168.328 74.5669 168.224C74.1955 168.151 73.8345 168.032 73.4919 167.87C73.2134 167.73 73.0565 167.568 73.0238 167.386L71.2784 167.368C71.1401 167.368 71.0021 167.356 70.8661 167.331C70.7457 167.308 70.6842 167.276 70.6836 167.238V167.062L73.0706 167.085C73.1762 166.9 73.3907 166.739 73.723 166.602C74.1157 166.445 74.521 166.322 74.9344 166.235L75.7386 166.346C75.9813 166.38 76.1017 166.421 76.1023 166.466C76.1023 166.491 76.053 166.522 75.9525 166.559C75.852 166.596 75.7322 166.64 75.5939 166.691C75.4576 166.742 75.3248 166.803 75.1963 166.871C75.0833 166.927 74.984 167.007 74.9056 167.106L80.7693 167.162ZM74.8787 167.401C74.9261 167.516 75.033 167.616 75.1989 167.699C75.3914 167.793 75.5952 167.862 75.8052 167.905C76.0748 167.963 76.348 168.002 76.6229 168.023C76.9264 168.048 77.2439 168.06 77.5756 168.059C77.9134 168.059 78.2511 168.042 78.5872 168.008C78.842 167.982 79.0948 167.939 79.3441 167.88C79.5388 167.833 79.7292 167.769 79.9133 167.69C80.064 167.624 80.2093 167.546 80.348 167.457L74.8787 167.401ZM88.8868 167.244C88.8395 167.128 88.7223 167.025 88.5404 166.938C88.3175 166.836 88.0835 166.762 87.8432 166.716C87.5167 166.65 87.1862 166.606 86.8539 166.583C86.4792 166.553 86.0649 166.54 85.6111 166.542C85.2634 166.541 84.9158 166.559 84.5701 166.596C84.3148 166.624 84.0619 166.67 83.8132 166.735C83.6253 166.782 83.4431 166.85 83.2696 166.937C83.1256 167.01 82.9863 167.092 82.8528 167.184L88.8868 167.244Z" fill="#FCB048"/>
<path d="M82.5508 164.832C74.1528 164.832 65.4091 165.575 64.0107 167.013C64.0649 167.064 64.1158 167.118 64.1631 167.175C65.3425 166.176 72.5624 165.171 82.5508 165.171C92.7953 165.171 100.131 166.229 101.02 167.252C101.063 167.196 101.11 167.142 101.161 167.092C100.004 165.602 91.0973 164.832 82.5508 164.832Z" fill="url(#paint23_linear_6675_23200)"/>
<path d="M61.6934 162.262V166.462C61.6934 167.82 70.1252 168.92 80.5266 168.92C90.928 168.92 99.3606 167.82 99.3606 166.462V162.262H61.6934Z" fill="url(#paint24_linear_6675_23200)"/>
<path d="M99.3606 162.266C99.3606 163.623 90.9287 164.724 80.5266 164.724C70.1246 164.724 61.6934 163.623 61.6934 162.266C61.6934 160.909 70.1252 159.809 80.5266 159.809C90.928 159.809 99.3606 160.909 99.3606 162.266Z" fill="url(#paint25_linear_6675_23200)"/>
<path d="M80.5239 164.895C71.3121 164.895 61.6797 164.011 61.6797 162.304C61.6797 162.21 61.7123 162.047 61.8077 162.047C61.9031 162.047 61.8609 162.176 61.8609 162.27C61.8609 163.352 69.5264 164.558 80.5258 164.558C91.5252 164.558 99.1913 163.352 99.1913 162.27C99.1913 162.176 99.2073 162.088 99.3002 162.088C99.393 162.088 99.3712 162.213 99.3712 162.307C99.3693 164.012 89.7363 164.895 80.5239 164.895Z" fill="url(#paint26_linear_6675_23200)"/>
<path d="M78.7494 162.404C78.9345 162.276 79.1336 162.147 79.3411 162.023C79.5966 161.879 79.8682 161.765 80.1504 161.685C80.5568 161.568 80.972 161.485 81.3919 161.437C82.0083 161.367 82.6283 161.333 83.2487 161.336C83.9769 161.333 84.6599 161.356 85.2976 161.406C85.8636 161.447 86.4265 161.522 86.9835 161.631C87.3911 161.706 87.7883 161.83 88.1667 162C88.4689 162.147 88.6493 162.315 88.7078 162.504L90.8284 162.525C90.9648 162.525 91.101 162.538 91.2349 162.563C91.3534 162.588 91.4104 162.618 91.411 162.655V162.831L88.6847 162.805C88.5891 163.019 88.3456 163.216 87.9541 163.395C87.4734 163.602 86.9723 163.758 86.4591 163.859L85.466 163.72C85.3915 163.71 85.3181 163.692 85.247 163.668C85.1894 163.647 85.1619 163.624 85.1619 163.599C85.1619 163.565 85.2381 163.527 85.3917 163.483C85.5454 163.44 85.7189 163.386 85.9116 163.323C86.1056 163.258 86.2956 163.183 86.4808 163.097C86.6659 163.01 86.7895 162.903 86.8541 162.785L80.4193 162.721C80.2366 162.854 80.0468 162.977 79.8507 163.089C79.5873 163.231 79.3078 163.341 79.0183 163.415C78.5933 163.526 78.1606 163.605 77.7237 163.65C77.0751 163.718 76.4235 163.75 75.7715 163.747C75.1818 163.747 74.6074 163.727 74.0427 163.679C73.5393 163.64 73.0388 163.568 72.5444 163.465C72.1732 163.391 71.8123 163.272 71.4694 163.111C71.1909 162.97 71.034 162.809 71.0014 162.626L69.256 162.608C69.1175 162.609 68.9792 162.596 68.843 162.571C68.7226 162.548 68.6611 162.517 68.6611 162.478V162.303L71.0481 162.325C71.1538 162.14 71.3683 161.979 71.7006 161.842C72.0934 161.685 72.4986 161.563 72.912 161.475L73.7111 161.585C73.9544 161.62 74.0747 161.66 74.0747 161.706C74.0747 161.731 74.0261 161.762 73.9255 161.799L73.567 161.931C73.4305 161.982 73.2976 162.042 73.1694 162.111C73.0564 162.167 72.9572 162.247 72.8787 162.345L78.7494 162.404ZM72.8588 162.643C72.9069 162.758 73.0138 162.858 73.179 162.941C73.3715 163.036 73.5753 163.105 73.7853 163.147C74.0547 163.205 74.3277 163.244 74.6023 163.265C74.9067 163.29 75.2245 163.302 75.5557 163.301C75.8935 163.301 76.2312 163.284 76.5674 163.25C76.8221 163.224 77.0749 163.181 77.3242 163.122C77.519 163.075 77.7094 163.012 77.8934 162.932C78.0441 162.866 78.1894 162.788 78.3281 162.699L72.8588 162.643ZM86.8676 162.486C86.8196 162.37 86.703 162.267 86.5212 162.18C86.2981 162.079 86.0641 162.005 85.8239 161.958C85.4974 161.892 85.1669 161.848 84.8347 161.825C84.4595 161.796 84.0452 161.783 83.5919 161.784C83.2439 161.783 82.8962 161.801 82.5501 161.838C82.2952 161.867 82.0425 161.913 81.794 161.977C81.6062 162.025 81.4239 162.092 81.2504 162.179C81.1062 162.252 80.9668 162.335 80.8329 162.426L86.8676 162.486Z" fill="#FCB048"/>
<path d="M80.5234 160.07C72.1261 160.07 63.3824 160.813 61.9834 162.252C62.038 162.302 62.0891 162.356 62.1364 162.414C63.3152 161.415 70.535 160.41 80.5234 160.41C90.768 160.41 98.1043 161.467 98.993 162.49C99.0365 162.434 99.0836 162.381 99.1339 162.33C97.9782 160.841 89.0706 160.07 80.5234 160.07Z" fill="url(#paint27_linear_6675_23200)"/>
<path d="M56.4492 157.859V162.06C56.4492 163.417 64.8811 164.517 75.2825 164.517C85.6839 164.517 94.1164 163.417 94.1164 162.06V157.859H56.4492Z" fill="url(#paint28_linear_6675_23200)"/>
<path d="M75.2831 160.31C85.6848 160.31 94.1171 159.209 94.1171 157.852C94.1171 156.495 85.6848 155.395 75.2831 155.395C64.8815 155.395 56.4492 156.495 56.4492 157.852C56.4492 159.209 64.8815 160.31 75.2831 160.31Z" fill="url(#paint29_linear_6675_23200)"/>
<path d="M75.2891 160.481C66.0774 160.481 56.4443 159.597 56.4443 157.89C56.4443 157.796 56.4776 157.633 56.5724 157.633C56.6672 157.633 56.6255 157.762 56.6255 157.856C56.6255 158.938 64.291 160.144 75.2904 160.144C86.2898 160.144 93.956 158.938 93.956 157.856C93.956 157.762 93.9713 157.674 94.0648 157.674C94.1583 157.674 94.1352 157.799 94.1352 157.893C94.1333 159.598 84.5009 160.481 75.2891 160.481Z" fill="url(#paint30_linear_6675_23200)"/>
<path d="M73.5102 157.99C73.6946 157.861 73.8944 157.733 74.1018 157.609C74.3574 157.464 74.629 157.351 74.9112 157.27C75.3176 157.154 75.7328 157.071 76.1527 157.023C76.7691 156.953 77.3891 156.919 78.0095 156.922C78.7377 156.919 79.4207 156.943 80.0584 156.992C80.6244 157.033 81.1873 157.107 81.7443 157.216C82.1519 157.292 82.5491 157.416 82.9275 157.586C83.2297 157.733 83.4101 157.901 83.4685 158.09L85.5892 158.111C85.7256 158.111 85.8618 158.123 85.9957 158.149C86.1142 158.174 86.1712 158.204 86.1718 158.241V158.417L83.4455 158.391C83.3499 158.605 83.1061 158.802 82.7143 158.981C82.2338 159.188 81.7329 159.344 81.2199 159.445L80.2268 159.306C80.1523 159.296 80.0789 159.278 80.0078 159.253C79.9502 159.233 79.9227 159.21 79.922 159.185C79.922 159.151 79.9988 159.112 80.1525 159.069C80.3062 159.026 80.4797 158.972 80.6724 158.908C80.8674 158.845 81.0585 158.771 81.2448 158.685C81.4299 158.598 81.5535 158.492 81.6181 158.373L75.1833 158.309C75.0006 158.442 74.8108 158.565 74.6147 158.678C74.3513 158.82 74.0718 158.929 73.7823 159.004C73.3574 159.115 72.9246 159.193 72.4877 159.239C71.8392 159.306 71.1875 159.338 70.5355 159.335C69.9458 159.335 69.3714 159.315 68.8067 159.27C68.3032 159.231 67.8028 159.159 67.3085 159.055C66.9374 158.982 66.5766 158.863 66.2341 158.702C65.9549 158.561 65.7987 158.4 65.766 158.217L64.02 158.199C63.8817 158.2 63.7436 158.187 63.6076 158.162C63.4873 158.139 63.4258 158.108 63.4258 158.069V157.894L65.8128 157.916C65.9184 157.731 66.1329 157.57 66.4652 157.433C66.858 157.276 67.2632 157.154 67.6766 157.066L68.4757 157.176C68.719 157.211 68.8394 157.251 68.8394 157.297C68.8394 157.322 68.7907 157.353 68.6902 157.39L68.3316 157.522C68.1951 157.573 68.0623 157.633 67.934 157.702C67.8211 157.758 67.7218 157.838 67.6433 157.936L73.5102 157.99ZM67.6196 158.229C67.6677 158.344 67.7746 158.444 67.9398 158.527C68.1327 158.621 68.3366 158.69 68.5468 158.733C68.8162 158.79 69.0891 158.83 69.3638 158.851C69.6681 158.876 69.9857 158.888 70.3165 158.886C70.6543 158.887 70.992 158.87 71.3281 158.836C71.5832 158.81 71.8362 158.767 72.0856 158.707C72.2802 158.661 72.4704 158.598 72.6542 158.518C72.8051 158.452 72.9507 158.374 73.0896 158.285L67.6196 158.229ZM81.6284 158.072C81.5804 157.955 81.4638 157.853 81.282 157.766C81.0587 157.665 80.8245 157.59 80.5841 157.544C80.2578 157.478 79.9275 157.434 79.5955 157.411C79.2203 157.382 78.806 157.369 78.3527 157.37C78.0047 157.369 77.657 157.387 77.311 157.424C77.0558 157.453 76.8029 157.499 76.5541 157.563C76.3666 157.611 76.1846 157.678 76.0112 157.765C75.867 157.838 75.7276 157.921 75.5937 158.012L81.6284 158.072Z" fill="#FCB048"/>
<path d="M75.2891 155.656C66.8918 155.656 58.148 156.399 56.749 157.838C56.8034 157.888 56.8545 157.942 56.9021 157.999C58.0808 157.001 65.3006 155.996 75.2891 155.996C85.5336 155.996 92.8699 157.053 93.7587 158.076C93.8021 158.02 93.849 157.967 93.8989 157.916C92.7457 156.429 83.8381 155.656 75.2891 155.656Z" fill="url(#paint31_linear_6675_23200)"/>
<path d="M60.9697 153.453V157.654C60.9697 159.011 69.4023 160.112 79.8037 160.112C90.2051 160.112 98.6376 159.011 98.6376 157.654V153.454L60.9697 153.453Z" fill="url(#paint32_linear_6675_23200)"/>
<path d="M79.8134 155.899C90.2151 155.899 98.6473 154.799 98.6473 153.442C98.6473 152.085 90.2151 150.984 79.8134 150.984C69.4117 150.984 60.9795 152.085 60.9795 153.442C60.9795 154.799 69.4117 155.899 79.8134 155.899Z" fill="url(#paint33_linear_6675_23200)"/>
<path d="M79.8057 156.079C70.594 156.079 60.9609 155.194 60.9609 153.488C60.9609 153.394 60.9942 153.23 61.089 153.23C61.1838 153.23 61.1421 153.359 61.1421 153.453C61.1421 154.536 68.8076 155.741 79.807 155.741C90.8064 155.741 98.4719 154.536 98.4719 153.453C98.4719 153.359 98.4879 153.272 98.5814 153.272C98.6749 153.272 98.6518 153.397 98.6518 153.491C98.6505 155.195 89.0175 156.079 79.8057 156.079Z" fill="url(#paint34_linear_6675_23200)"/>
<path d="M78.0258 153.588C78.2102 153.459 78.41 153.33 78.6174 153.207C78.873 153.062 79.1446 152.949 79.4267 152.868C79.8331 152.752 80.2484 152.669 80.6683 152.621C81.2847 152.551 81.9047 152.517 82.5251 152.52C83.2533 152.516 83.9363 152.54 84.574 152.59C85.1397 152.63 85.7025 152.705 86.2592 152.814C86.6671 152.889 87.0645 153.014 87.4431 153.184C87.7453 153.33 87.9254 153.498 87.9835 153.688L90.1041 153.709C90.2405 153.708 90.3767 153.721 90.5107 153.747C90.6298 153.771 90.6868 153.802 90.6868 153.839V154.015L87.9604 153.988C87.8644 154.203 87.6207 154.4 87.2292 154.579C86.7485 154.786 86.2474 154.941 85.7342 155.042L84.7417 154.903C84.667 154.893 84.5934 154.876 84.5221 154.851C84.4651 154.831 84.437 154.807 84.437 154.783C84.437 154.749 84.5138 154.71 84.6675 154.667C84.8211 154.624 84.9946 154.57 85.1874 154.506C85.3813 154.442 85.5713 154.366 85.7566 154.28C85.9416 154.193 86.0652 154.087 86.1299 153.968L79.6944 153.904C79.5119 154.037 79.3223 154.161 79.1264 154.273C78.863 154.415 78.5835 154.524 78.2941 154.599C77.8691 154.71 77.4363 154.789 76.9994 154.834C76.3509 154.901 75.6992 154.933 75.0472 154.93C74.4569 154.93 73.8832 154.91 73.3184 154.863C72.815 154.824 72.3145 154.752 71.8202 154.648C71.4492 154.574 71.0884 154.455 70.7458 154.294C70.4666 154.153 70.3104 153.992 70.2777 153.809L68.5317 153.791C68.3934 153.792 68.2554 153.78 68.1193 153.755C67.999 153.732 67.9375 153.701 67.9375 153.661V153.486L70.3251 153.509C70.4301 153.324 70.6453 153.162 70.9776 153.025C71.3704 152.869 71.7756 152.746 72.189 152.659L72.9881 152.769C73.2307 152.804 73.3517 152.844 73.3517 152.89C73.3517 152.915 73.3024 152.945 73.2019 152.982L72.844 153.115C72.7076 153.166 72.5748 153.226 72.4464 153.295C72.3335 153.35 72.2342 153.43 72.1557 153.529L78.0258 153.588ZM72.1352 153.827C72.1832 153.942 72.2901 154.041 72.4553 154.125C72.6482 154.219 72.8521 154.288 73.0623 154.331C73.3318 154.388 73.6047 154.428 73.8793 154.449C74.1837 154.474 74.5013 154.486 74.8321 154.484C75.1699 154.485 75.5076 154.468 75.8437 154.434C76.0985 154.408 76.3513 154.365 76.6005 154.305C76.7954 154.259 76.9858 154.195 77.1697 154.116C77.3205 154.05 77.4659 153.972 77.6045 153.883L72.1352 153.827ZM86.144 153.67C86.0959 153.553 85.9788 153.451 85.7969 153.363C85.5739 153.262 85.3399 153.188 85.0996 153.142C84.7733 153.076 84.4431 153.031 84.1111 153.009C83.7359 152.979 83.3214 152.966 82.8676 152.968C82.5199 152.967 82.1723 152.985 81.8265 153.022C81.5713 153.05 81.3184 153.096 81.0697 153.16C80.882 153.209 80.6998 153.276 80.5261 153.363C80.3822 153.436 80.243 153.518 80.1093 153.609L86.144 153.67Z" fill="#FCB048"/>
<path d="M79.8144 151.262C71.4171 151.262 62.6728 152.005 61.2744 153.443C61.3288 153.494 61.3799 153.548 61.4274 153.605C62.6062 152.606 69.826 151.601 79.8144 151.601C90.059 151.601 97.3953 152.659 98.2834 153.682C98.3271 153.626 98.3741 153.572 98.4243 153.522C97.2692 152.032 88.3616 151.262 79.8144 151.262Z" fill="url(#paint35_linear_6675_23200)"/>
<path d="M58.624 149.039V153.239C58.624 154.597 67.0566 155.698 77.4579 155.698C87.8593 155.698 96.2919 154.597 96.2919 153.239V149.039H58.624Z" fill="url(#paint36_linear_6675_23200)"/>
<path d="M77.4579 151.497C87.8596 151.497 96.2919 150.397 96.2919 149.04C96.2919 147.682 87.8596 146.582 77.4579 146.582C67.0563 146.582 58.624 147.682 58.624 149.04C58.624 150.397 67.0563 151.497 77.4579 151.497Z" fill="url(#paint37_linear_6675_23200)"/>
<path d="M77.4591 151.669C68.2473 151.669 58.6143 150.784 58.6143 149.078C58.6143 148.984 58.6476 148.82 58.7423 148.82C58.8371 148.82 58.7955 148.949 58.7955 149.043C58.7955 150.125 66.4609 151.331 77.4604 151.331C88.4598 151.331 96.1252 150.125 96.1252 149.043C96.1252 148.949 96.1413 148.862 96.2347 148.862C96.3282 148.862 96.3052 148.986 96.3052 149.08C96.3039 150.787 86.6708 151.669 77.4591 151.669Z" fill="url(#paint38_linear_6675_23200)"/>
<path d="M75.6752 149.178C75.8596 149.049 76.0594 148.92 76.2668 148.797C76.5224 148.652 76.794 148.538 77.0761 148.458C77.4825 148.342 77.8978 148.259 78.3177 148.211C78.9341 148.14 79.5541 148.107 80.1745 148.11C80.9027 148.106 81.5857 148.13 82.2234 148.18C82.7891 148.22 83.3519 148.295 83.9086 148.404C84.3165 148.479 84.7139 148.603 85.0925 148.774C85.3947 148.92 85.5748 149.088 85.6329 149.278L87.7535 149.299C87.8899 149.298 88.0261 149.311 88.1601 149.337C88.2792 149.361 88.3362 149.392 88.3362 149.429V149.605L85.6098 149.578C85.5138 149.793 85.2701 149.99 84.8786 150.169C84.3979 150.376 83.8968 150.531 83.3836 150.632L82.3911 150.493C82.3164 150.483 82.2428 150.466 82.1715 150.441C82.1145 150.42 82.0864 150.397 82.0864 150.373C82.0864 150.348 82.1632 150.3 82.3169 150.257C82.4705 150.214 82.6441 150.16 82.8368 150.096C83.0307 150.032 83.2207 149.956 83.406 149.87C83.591 149.783 83.7146 149.677 83.7793 149.558L77.3438 149.494C77.1614 149.627 76.9718 149.75 76.7759 149.863C76.5124 150.005 76.233 150.114 75.9435 150.189C75.5185 150.3 75.0857 150.378 74.6488 150.424C74.0003 150.491 73.3486 150.523 72.6966 150.52C72.1063 150.52 71.5326 150.5 70.9679 150.456C70.4644 150.416 69.964 150.345 69.4696 150.241C69.0986 150.167 68.7378 150.048 68.3952 149.887C68.116 149.746 67.9598 149.585 67.9272 149.403L66.1811 149.384C66.0428 149.385 65.9048 149.373 65.7688 149.348C65.6484 149.325 65.5869 149.294 65.5869 149.254V149.079L67.9745 149.102C68.0795 148.917 68.2947 148.755 68.627 148.618C69.0198 148.462 69.425 148.339 69.8384 148.252L70.6375 148.362C70.8801 148.397 71.0011 148.437 71.0011 148.483C71.0011 148.508 70.9518 148.538 70.8513 148.575L70.4934 148.708C70.3569 148.759 70.224 148.819 70.0958 148.888C69.9829 148.943 69.8836 149.023 69.8051 149.122L75.6752 149.178ZM69.7846 149.417C69.8326 149.532 69.9396 149.631 70.1048 149.715C70.2976 149.809 70.5016 149.878 70.7117 149.921C70.9812 149.978 71.2541 150.018 71.5287 150.039C71.8331 150.064 72.1507 150.076 72.4815 150.074C72.8193 150.075 73.157 150.058 73.4931 150.024C73.7479 149.998 74.0007 149.955 74.2499 149.895C74.4448 149.849 74.6352 149.785 74.8191 149.706C74.9699 149.64 75.1153 149.562 75.2539 149.473L69.7846 149.417ZM83.7934 149.26C83.7453 149.143 83.6282 149.041 83.4463 148.953C83.2233 148.852 82.9893 148.778 82.7491 148.732C82.4227 148.666 82.0925 148.621 81.7605 148.598C81.3853 148.57 80.9708 148.556 80.517 148.558C80.1693 148.557 79.8217 148.575 79.4759 148.612C79.2207 148.64 78.9678 148.686 78.7191 148.75C78.5314 148.798 78.3492 148.866 78.1755 148.952C78.0316 149.026 77.8924 149.108 77.7587 149.199L83.7934 149.26Z" fill="#FCB048"/>
<path d="M77.459 146.855C69.0617 146.855 60.3173 147.598 58.9189 149.037C58.9734 149.088 59.0245 149.142 59.072 149.199C60.2507 148.2 67.4706 147.195 77.459 147.195C87.7035 147.195 95.0399 148.253 95.9279 149.276C95.9714 149.219 96.0185 149.166 96.0688 149.115C94.9137 147.626 86.0061 146.855 77.459 146.855Z" fill="url(#paint39_linear_6675_23200)"/>
<path d="M101.649 152.004L98.2446 154.437C97.1446 155.224 101.141 162.771 107.17 171.294C113.198 179.817 118.978 186.089 120.078 185.302L123.482 182.868L101.649 152.004Z" fill="url(#paint40_linear_6675_23200)"/>
<path d="M123.486 182.866C122.386 183.652 116.607 177.381 110.578 168.858C104.549 160.335 100.553 152.787 101.653 152C102.753 151.213 108.532 157.485 114.561 166.008C120.59 174.531 124.586 182.079 123.486 182.866Z" fill="url(#paint41_linear_6675_23200)"/>
<path d="M110.436 168.957C105.096 161.409 100.23 153.003 101.613 152.014C101.689 151.959 101.842 151.891 101.895 151.968C101.949 152.044 101.822 152.086 101.746 152.14C100.869 152.767 104.335 159.748 110.71 168.761C117.085 177.774 122.506 183.356 123.383 182.729C123.459 182.674 123.54 182.637 123.593 182.713C123.647 182.789 123.533 182.842 123.457 182.898C122.075 183.887 115.775 176.506 110.436 168.957Z" fill="url(#paint42_linear_6675_23200)"/>
<path d="M111.42 166.054C111.631 166.131 111.848 166.219 112.071 166.319C112.337 166.444 112.586 166.6 112.815 166.785C113.145 167.05 113.453 167.343 113.735 167.659C114.15 168.124 114.537 168.613 114.894 169.124C115.321 169.719 115.698 170.292 116.026 170.845C116.321 171.332 116.587 171.836 116.821 172.356C116.995 172.734 117.124 173.131 117.205 173.539C117.262 173.873 117.23 174.119 117.11 174.275L118.322 176.025C118.402 176.137 118.47 176.256 118.527 176.381C118.575 176.491 118.584 176.556 118.554 176.578L118.412 176.681L116.853 174.431C116.624 174.477 116.323 174.392 115.952 174.173C115.505 173.9 115.088 173.579 114.709 173.217L114.246 172.324C114.211 172.257 114.183 172.186 114.161 172.114C114.145 172.055 114.147 172.019 114.168 172.004C114.188 171.989 114.27 172.025 114.394 172.126C114.519 172.227 114.663 172.337 114.827 172.458C114.991 172.58 115.162 172.692 115.339 172.794C115.517 172.895 115.672 172.936 115.808 172.919L112.13 167.609C111.916 167.536 111.706 167.452 111.502 167.357C111.233 167.223 110.982 167.057 110.754 166.862C110.418 166.578 110.103 166.269 109.813 165.937C109.382 165.444 108.978 164.929 108.603 164.392C108.259 163.911 107.943 163.426 107.657 162.938C107.397 162.503 107.165 162.052 106.963 161.586C106.807 161.24 106.694 160.875 106.626 160.501C106.579 160.191 106.619 159.969 106.747 159.836L105.751 158.396C105.67 158.282 105.6 158.162 105.541 158.036C105.49 157.924 105.477 157.856 105.511 157.833L105.653 157.73L107.018 159.7C107.229 159.679 107.485 159.764 107.787 159.954C108.141 160.185 108.476 160.446 108.786 160.735L109.16 161.453C109.273 161.672 109.31 161.794 109.273 161.821C109.253 161.836 109.199 161.813 109.111 161.753C109.024 161.692 108.919 161.619 108.796 161.536C108.676 161.453 108.55 161.379 108.42 161.314C108.309 161.253 108.187 161.218 108.061 161.212L111.42 166.054ZM107.814 161.368C107.75 161.473 107.73 161.619 107.756 161.8C107.791 162.012 107.854 162.22 107.942 162.417C108.051 162.671 108.177 162.918 108.319 163.155C108.475 163.419 108.649 163.686 108.843 163.956C109.038 164.233 109.248 164.5 109.47 164.756C109.639 164.95 109.821 165.132 110.014 165.301C110.164 165.434 110.326 165.554 110.496 165.659C110.638 165.743 110.785 165.817 110.937 165.88L107.814 161.368ZM116.06 172.755C116.124 172.648 116.142 172.493 116.108 172.293C116.061 172.052 115.986 171.817 115.884 171.594C115.748 171.288 115.592 170.991 115.418 170.706C115.225 170.382 114.996 170.035 114.731 169.664C114.53 169.378 114.314 169.104 114.083 168.842C113.913 168.649 113.729 168.469 113.533 168.302C113.385 168.176 113.224 168.066 113.054 167.974C112.911 167.898 112.763 167.832 112.612 167.776L116.06 172.755Z" fill="#FCB048"/>
<path d="M114.341 166.174C109.475 159.292 103.804 152.558 101.827 152.246C101.818 152.32 101.803 152.393 101.784 152.465C103.277 152.851 108.277 158.186 114.067 166.372C120.005 174.767 123.4 181.391 123.085 182.713C123.156 182.716 123.227 182.723 123.297 182.734C123.834 180.923 119.295 173.178 114.341 166.174Z" fill="url(#paint43_linear_6675_23200)"/>
<path d="M196.123 18.0365L107.119 12.3708C105.071 12.2607 103.225 14.7208 103.225 16.7868V142.85C103.225 145.716 105.886 146.292 107.935 146.063L196.123 136.156C197.734 135.975 199.035 134.353 199.035 132.534V21.4882C199.035 19.668 197.734 18.1228 196.123 18.0365Z" fill="url(#paint44_linear_6675_23200)"/>
<path d="M197.589 17.0257L108.41 12.1969C106.361 12.0855 104.69 13.6835 104.69 15.7657V142.816C104.69 144.898 106.36 146.397 108.41 146.164L197.589 136.068C199.2 135.885 200.501 134.251 200.501 132.417V20.5037C200.501 18.67 199.2 17.1126 197.589 17.0257Z" fill="#D8DEE8"/>
<path d="M108.407 144.441C107.301 144.564 106.4 143.751 106.4 142.629V15.8527C106.396 15.5906 106.446 15.3305 106.547 15.0887C106.647 14.8469 106.797 14.6286 106.985 14.4474C107.173 14.2661 107.397 14.1259 107.641 14.0353C107.886 13.9448 108.147 13.906 108.407 13.9212L197.586 18.5568C198.457 18.6025 199.164 19.4466 199.164 20.4388V132.562C199.164 133.554 198.46 134.44 197.586 134.537L108.407 144.441Z" fill="url(#paint45_linear_6675_23200)"/>
<path d="M191.841 131.539L115.565 139.622V22.6602L191.841 25.8201V131.539Z" fill="white"/>
<g style="mix-blend-mode:multiply" opacity="0.3">
<path d="M161.335 26.3886L130.852 26.8083L131.535 19.2465C131.587 18.264 132.233 17.4572 133.083 17.3149L138.246 16.4425C138.853 16.3395 139.377 15.8979 139.643 15.263L140.202 13.9258L153.706 14.8433L161.335 26.3886Z" fill="#97A6B7"/>
</g>
<path d="M177.614 21.4802C177.469 20.6245 176.845 20.0238 176.061 19.9852L171.19 19.745C168.979 19.6362 167.358 17.6609 167.439 15.1583L167.627 9.35991C167.662 8.28728 166.966 7.4284 166.008 7.36401L164.408 7.25842C163.187 7.17859 162.375 5.99521 162.546 4.62706C162.845 2.23584 161.356 0.172338 159.197 0.0100909C157.02 -0.1528 154.99 1.6757 154.667 4.09718C154.62 4.45913 154.506 4.80882 154.328 5.12732C153.826 6.01453 152.945 6.5032 152.082 6.44654L150.431 6.33774C149.431 6.27335 148.48 7.04596 148.227 8.13083L146.855 14.0207C146.262 16.5664 144.022 18.4058 141.644 18.2887L136.301 18.0253C135.425 17.9822 134.567 18.5404 134.164 19.4231L130.944 26.4506C130.68 27.0262 131.008 27.6475 131.58 27.6688L177.917 29.3614C178.424 29.3801 178.854 28.8238 178.762 28.2714L177.614 21.4802ZM158.541 5.0301C157.901 4.98696 157.459 4.3766 157.552 3.66709C157.645 2.95758 158.239 2.41998 158.876 2.46569C159.514 2.5114 159.954 3.12176 159.861 3.8287C159.768 4.53563 159.178 5.0713 158.541 5.0301Z" fill="url(#paint46_linear_6675_23200)"/>
<path d="M177.885 21.6364C177.74 20.7808 177.117 20.1807 176.332 20.1414L171.459 19.9019C169.248 19.7925 167.627 17.8172 167.708 15.3146L167.897 9.51617C167.931 8.44353 167.235 7.58465 166.278 7.52027L164.677 7.41468C163.457 7.33484 162.645 6.15147 162.815 4.78331C163.114 2.39209 161.625 0.328588 159.466 0.166341C157.289 0.00344969 155.26 1.83195 154.936 4.25343C154.89 4.61651 154.775 4.96731 154.597 5.28679C154.095 6.17336 153.214 6.66203 152.351 6.60537L150.701 6.49656C149.7 6.43218 148.75 7.20479 148.496 8.28965L147.129 14.1769C146.535 16.7227 144.296 18.5621 141.918 18.4449L136.575 18.1816C135.699 18.1385 134.841 18.6967 134.437 19.5794L131.216 26.6069C130.952 27.1825 131.28 27.8038 131.851 27.825L178.189 29.5177C178.696 29.5363 179.126 28.9801 179.033 28.4276L177.885 21.6364ZM158.812 5.187C158.171 5.14321 157.731 4.53286 157.824 3.82335C157.917 3.11384 158.51 2.57623 159.148 2.62194C159.786 2.66765 160.225 3.27801 160.133 3.98495C160.04 4.69188 159.449 5.23013 158.812 5.187Z" fill="#97A6B7"/>
<g style="mix-blend-mode:soft-light" opacity="0.5">
<path d="M169.955 24.8672C165.822 22.0607 162.65 24.0508 160.074 20.885C157.316 17.4965 159.177 13.0353 156.323 10.93C154.496 9.58244 152.865 10.771 150.742 10.4059C149.964 10.2726 149.134 9.93204 148.271 9.26953L147.129 14.1782C146.535 16.7239 144.296 18.5633 141.918 18.4462L136.575 18.1828C135.699 18.1397 134.841 18.7011 134.437 19.5806L131.216 26.6081C130.952 27.1837 131.28 27.805 131.851 27.8262L173.962 29.365C172.902 27.5121 171.587 25.9733 169.955 24.8672Z" fill="white"/>
</g>
<path d="M132.439 78.7524V85.5835L126.019 85.8217V78.9237L132.439 78.7498V78.7524ZM133.133 78.0352L125.321 78.2463V86.5461L133.133 86.2563V78.0352Z" fill="#D8DEE8"/>
<path d="M184.973 84.3312L136.006 86.1494V77.9572L184.973 76.6328V84.3312Z" fill="#D8DEE8"/>
<path d="M132.439 90.7393V97.5697L126.019 97.9026V91.0077L132.439 90.7393ZM133.133 90.0117L125.321 90.3375V98.6379L133.133 98.2329V90.0117Z" fill="#D8DEE8"/>
<path d="M184.973 95.5382L136.006 98.0756V89.8834L184.973 87.8398V95.5382Z" fill="#D8DEE8"/>
<path d="M132.439 102.727V109.556L126.019 109.983V103.089L132.439 102.727ZM133.133 101.988L125.321 102.429V110.729L133.133 110.209V101.988Z" fill="#D8DEE8"/>
<path d="M184.973 106.762L136.006 110.018V101.826L184.973 99.0625V106.762Z" fill="#D8DEE8"/>
<path d="M132.439 114.711V121.536L126.019 122.057V115.167L132.439 114.71V114.711ZM133.133 113.962L125.321 114.517V122.817L133.133 122.183V113.961V113.962Z" fill="#D8DEE8"/>
<path d="M184.973 117.98L136.006 121.955V113.763L184.973 110.281V117.98Z" fill="#D8DEE8"/>
<path d="M125.322 70.8997C125.276 70.9 125.231 70.8912 125.189 70.8739C125.147 70.8567 125.109 70.8312 125.076 70.799C125.044 70.7669 125.018 70.7286 125.001 70.6865C124.983 70.6443 124.974 70.5991 124.974 70.5533V31.8142C124.974 31.7675 124.983 31.7213 125.001 31.6782C125.019 31.6352 125.045 31.5963 125.079 31.5637C125.112 31.5305 125.151 31.5046 125.194 31.4876C125.238 31.4706 125.284 31.463 125.331 31.4652L156.385 32.3756C156.475 32.3785 156.561 32.4165 156.623 32.4818C156.686 32.547 156.721 32.6344 156.721 32.7252V70.0035C156.721 70.095 156.686 70.1829 156.622 70.2482C156.558 70.3135 156.471 70.3509 156.38 70.3524L125.326 70.9023L125.322 70.8997ZM125.67 32.1734V70.1953L156.026 69.6577V33.0639L125.67 32.1734Z" fill="#D8DEE8"/>
<path d="M184.977 38.2876L161.253 37.739V32.8594L184.977 33.5554V38.2876Z" fill="#D8DEE8"/>
<path d="M184.977 48.8107L161.253 48.5886V46.1484L184.977 46.4446V48.8107Z" fill="#D8DEE8"/>
<path d="M184.977 52.7086L161.253 52.6075V50.168L184.977 50.3425V52.7086Z" fill="#D8DEE8"/>
<path d="M184.977 56.6109L161.253 56.6309V54.1914L184.977 54.2448V56.6109Z" fill="#D8DEE8"/>
<path d="M126.535 69.1764V54.323L131.056 53.6051L150.366 53.3984L155.251 54.2811V68.7147L126.535 69.1764Z" fill="#D8DEE8"/>
<path d="M141.851 44.1289C142.075 46.4102 142.298 48.6901 142.521 50.9684C142.581 51.5852 143.041 52.0713 143.615 52.1273C145.877 52.3391 148.362 53.4614 150.599 53.6725L140.341 56.8917L131.289 53.8773C133.731 53.5032 135.509 52.7184 137.3 52.1338C137.53 52.0539 137.732 51.9092 137.882 51.7169C138.032 51.5246 138.124 51.293 138.147 51.0495C138.302 49.6374 138.457 48.2259 138.613 46.815L141.851 44.1289Z" fill="white"/>
<path d="M140.341 57.2311C140.304 57.2312 140.267 57.2253 140.232 57.2137L131.18 54.1967C131.106 54.1722 131.042 54.1232 130.999 54.0577C130.956 53.9922 130.936 53.914 130.943 53.8357C130.949 53.7575 130.982 53.6837 131.035 53.6264C131.089 53.5691 131.16 53.5316 131.237 53.52C133.057 53.2413 134.492 52.7333 135.881 52.242C136.329 52.0824 136.756 51.9317 137.193 51.7913C137.359 51.7323 137.505 51.6264 137.613 51.4864C137.721 51.3463 137.787 51.1779 137.802 51.0013L138.267 46.7662C138.277 46.6758 138.322 46.5928 138.392 46.535L141.631 43.8541C141.679 43.8136 141.738 43.7871 141.8 43.7775C141.863 43.7679 141.926 43.7755 141.985 43.7996C142.043 43.8237 142.094 43.8633 142.131 43.9142C142.169 43.9651 142.192 44.0253 142.198 44.0885L142.867 50.9279C142.911 51.3786 143.24 51.7327 143.648 51.7707C144.812 51.8795 146.035 52.2214 147.218 52.5562C148.363 52.8781 149.547 53.2116 150.633 53.3127C150.713 53.3201 150.787 53.3551 150.844 53.4118C150.902 53.4684 150.937 53.5432 150.946 53.6234C150.954 53.7037 150.935 53.7843 150.891 53.8518C150.847 53.9192 150.781 53.9692 150.704 53.9933L140.445 57.2125C140.412 57.2242 140.377 57.2305 140.341 57.2311ZM132.671 53.9598L140.341 56.5145L149.091 53.7679C148.404 53.6166 147.709 53.4215 147.027 53.2297C145.875 52.9078 144.682 52.5697 143.58 52.4667C142.842 52.3972 142.25 51.7791 142.171 50.9968L141.566 44.8089L138.94 46.9838L138.492 51.078C138.462 51.388 138.344 51.6828 138.152 51.9271C137.959 52.1714 137.701 52.3549 137.408 52.4558C136.98 52.5955 136.558 52.7442 136.112 52.9026C135.044 53.2805 133.949 53.6681 132.67 53.9598H132.671Z" fill="#D8DEE8"/>
<path d="M144.301 43.9109C144.301 47.2467 142.533 51.147 140.342 51.1335C138.138 51.1206 136.344 47.1604 136.344 43.7938C136.344 40.4271 138.137 38.9508 140.342 38.9972C142.533 39.0409 144.301 40.5752 144.301 43.9109Z" fill="white"/>
<path d="M140.354 51.4871H140.344C137.898 51.4723 136.001 47.3401 136.001 43.7952C136.001 42.0446 136.482 40.6455 137.392 39.7499C138.148 39.0056 139.174 38.6245 140.354 38.6496C143.523 38.714 144.652 41.413 144.652 43.9149C144.652 46.4529 143.692 49.1847 142.319 50.558C141.699 51.1748 141.039 51.4871 140.354 51.4871ZM140.243 39.3469C139.292 39.3469 138.474 39.6579 137.874 40.2483C137.1 41.0093 136.692 42.2358 136.692 43.7945C136.692 46.9332 138.377 50.7763 140.345 50.7879C140.852 50.7879 141.341 50.5471 141.826 50.0623C143.059 48.8293 143.954 46.2437 143.954 43.9143C143.954 41.102 142.602 39.3945 140.335 39.3469H140.243Z" fill="#D8DEE8"/>
<path d="M126.316 82.1949C126.316 82.1949 128.459 83.9977 128.872 85.1031C128.906 85.1514 129.581 84.9885 129.659 85.0214C129.899 84.5353 130.275 83.2096 131.263 81.6818C132.558 79.6807 134.081 77.7421 134.106 77.7177C134.112 77.7121 134.117 77.7047 134.119 77.6964C134.129 77.632 133.878 77.5271 133.837 77.5677C133.577 77.8252 132.057 79.3253 130.821 80.8686C130.147 81.7273 129.531 82.6307 128.977 83.5727C128.977 83.5727 126.929 81.9831 126.653 81.891L126.316 82.1949Z" fill="url(#paint47_linear_6675_23200)"/>
<path d="M126.316 94.6481C126.316 94.6481 128.459 96.4508 128.872 97.5563C128.906 97.6046 129.581 97.4417 129.659 97.4745C129.899 96.9884 130.275 95.6628 131.263 94.1349C132.558 92.1339 134.081 90.1953 134.106 90.1708C134.112 90.1652 134.117 90.1578 134.119 90.1496C134.129 90.0852 133.878 89.9802 133.837 90.0208C133.577 90.2783 132.057 91.7785 130.821 93.3218C130.147 94.1794 129.531 95.0817 128.977 96.0227C128.977 96.0227 126.929 94.433 126.653 94.341L126.316 94.6481Z" fill="url(#paint48_linear_6675_23200)"/>
<path d="M126.316 107.219C126.316 107.219 128.459 109.018 128.872 110.126C128.906 110.175 129.581 110.012 129.659 110.045C129.899 109.559 130.275 108.233 131.263 106.705C132.558 104.704 134.081 102.765 134.106 102.741C134.112 102.735 134.117 102.728 134.119 102.72C134.129 102.656 133.878 102.55 133.837 102.591C133.577 102.849 132.057 104.348 130.821 105.892C130.147 106.75 129.531 107.652 128.977 108.593C128.977 108.593 126.929 107.003 126.653 106.911L126.316 107.219Z" fill="url(#paint49_linear_6675_23200)"/>
<path d="M126.316 118.602C126.316 118.602 128.459 120.401 128.872 121.509C128.906 121.558 129.581 121.395 129.659 121.428C129.899 120.942 130.275 119.616 131.263 118.088C132.558 116.087 134.081 114.148 134.106 114.124C134.112 114.118 134.117 114.111 134.119 114.103C134.129 114.038 133.878 113.933 133.837 113.974C133.577 114.231 132.057 115.731 130.821 117.274C130.147 118.132 129.531 119.034 128.977 119.975C128.977 119.975 126.929 118.385 126.653 118.293L126.316 118.602Z" fill="url(#paint50_linear_6675_23200)"/>
<path d="M168.18 92.3358C168.634 91.9802 168.987 91.5105 169.204 90.9741C169.475 90.2742 169.284 89.9626 169.624 89.5248C170.055 88.9705 170.937 88.7316 171.545 89.0026C171.701 89.0603 171.834 89.1666 171.926 89.3059C172.195 89.7624 171.598 90.553 171.121 90.9741C170.763 91.2915 170.614 91.2677 170.234 91.5375C169.855 91.8072 169.396 92.2547 169.018 93.0865L168.18 92.3358Z" fill="url(#paint51_linear_6675_23200)"/>
<path d="M188.131 88.4977C187.574 88.3493 187.066 88.0559 186.658 87.6472C186.137 87.109 186.192 86.7459 185.709 86.478C185.097 86.1362 184.193 86.2623 183.74 86.7491C183.62 86.8636 183.538 87.0137 183.508 87.1779C183.437 87.7032 184.294 88.1977 184.896 88.4012C185.35 88.5518 185.477 88.472 185.932 88.5718C186.375 88.6684 186.982 88.9034 187.65 89.5214L188.131 88.4977Z" fill="url(#paint52_linear_6675_23200)"/>
<path d="M186.223 89.1536C185.958 90.4219 187.322 91.5499 188.305 92.658C190.279 94.8805 192.344 98.8459 191.586 102.251C191.172 104.11 189.844 106.12 187.969 107.073C185.951 108.098 184.741 107.166 182.643 108.383C182.488 108.473 179.833 110.057 179.756 112.191C179.661 114.826 183.513 117.629 186.811 117.844C192.842 118.236 200.11 110.171 199.771 102.168C199.402 93.455 190.092 86.5396 187.413 87.712C186.992 87.8955 186.372 88.4395 186.223 89.1536Z" fill="url(#paint53_linear_6675_23200)"/>
<path d="M183.535 179.369L183.318 181.577L184.341 181.39L185.028 179.316L183.535 179.369Z" fill="url(#paint54_linear_6675_23200)"/>
<path d="M189.775 138.59C189.688 141.956 189.297 145.307 188.606 148.602C187.987 151.548 187.626 152.057 187.432 154.094C187.012 158.526 188.432 159.161 188.694 164.171C188.982 169.703 187.519 174.101 186.944 175.778C186.537 176.963 186.061 178.122 185.518 179.251C185.014 179.693 184.243 179.523 183.43 179.357C183.13 174.339 182.757 169.616 182.457 164.598L179.559 141.953L189.775 138.59Z" fill="url(#paint55_linear_6675_23200)"/>
<path style="mix-blend-mode:multiply" opacity="0.3" d="M183.43 179.356C183.13 174.338 182.757 169.615 182.457 164.597L179.559 141.951L189.778 138.59C189.77 138.847 189.757 139.1 189.747 139.355C184.97 143.527 184.034 146.832 184.081 149.086C184.137 151.82 185.625 153.176 185.334 157.14C185.127 159.973 184.279 160.474 184.279 163.032C184.279 166.326 185.688 168.177 186.37 170.081C187.032 171.92 187.266 174.523 185.989 178.232C185.821 178.614 185.662 178.957 185.521 179.251C185.014 179.693 184.243 179.523 183.43 179.356Z" fill="url(#paint56_linear_6675_23200)"/>
<path d="M183.921 182.334C184.405 181.731 184.849 181.774 184.93 181.368C184.994 181.046 184.79 180.66 184.493 180.516C184.076 180.315 183.582 180.653 183.469 180.729C182.711 181.248 182.937 182.029 182.22 182.385C182.076 182.456 181.847 182.534 181.608 182.771C181.507 182.871 181.256 183.117 181.32 183.282C181.393 183.475 181.849 183.457 182.284 183.441C182.804 183.422 183.065 183.413 183.312 183.248C183.656 183.02 183.547 182.799 183.921 182.334Z" fill="url(#paint57_linear_6675_23200)"/>
<path d="M182.895 163.452L184.806 164.205L185.364 163.323L183.869 162.312L182.895 163.452Z" fill="url(#paint58_linear_6675_23200)"/>
<path d="M185.814 164.665C185.701 163.898 186.035 163.6 185.791 163.263C185.599 162.998 185.178 162.885 184.872 163.005C184.442 163.178 184.354 163.772 184.334 163.906C184.2 164.817 184.923 165.18 184.697 165.951C184.651 166.106 184.553 166.329 184.562 166.664C184.566 166.806 184.576 167.159 184.74 167.224C184.929 167.299 185.227 166.951 185.508 166.62C185.848 166.222 186.017 166.024 186.066 165.731C186.135 165.326 185.9 165.257 185.814 164.665Z" fill="url(#paint59_linear_6675_23200)"/>
<path d="M174.625 135.102C171.064 142.405 169.854 148.493 169.396 152.47C169.102 155.028 169.131 156.609 169.863 158.197C172.488 163.885 181.637 164.26 183.028 164.3C183.485 163.356 183.943 162.414 184.401 161.474C183.559 159.904 182.089 157.723 179.574 156.13C177.639 154.907 176.884 155.169 176.399 154.347C174.461 151.048 184.923 143.903 183.36 139.147C182.82 137.502 180.738 135.835 174.625 135.102Z" fill="url(#paint60_linear_6675_23200)"/>
<path d="M182.343 108.851C178.494 109.515 175.564 110.207 174.256 112.234C172.874 114.375 175.071 115.986 175.669 120.684C176.583 127.876 172.471 130.562 173.654 137.804C173.829 138.869 174.098 139.917 174.456 140.935C175.014 142.51 176.086 143.849 177.497 144.734C178.707 145.501 179.999 146.129 181.348 146.605C185.254 147.979 187.175 147.18 192.425 147.482C201.014 147.976 202.3 150.48 206.18 148.94C210.102 147.383 212.94 143.177 212.108 141.379C211.61 140.303 210.039 140.975 207.785 139.654C204.881 137.95 205.369 135.626 203.012 133.632C199.628 130.768 196.371 133.66 193.477 131.169C190.548 128.65 190.199 122.523 191.444 118.875C192.256 116.493 192.272 113.902 192.875 111.458C192.949 111.162 192.937 110.852 192.839 110.563C192.359 109.158 189.802 108.889 187.87 108.703C184.924 108.419 182.66 108.794 182.343 108.851Z" fill="url(#paint61_linear_6675_23200)"/>
<path style="mix-blend-mode:multiply" opacity="0.3" d="M205.731 146.211C204.542 145.414 205.186 143.155 203.426 141.956C201.791 140.843 200.517 142.299 198.107 141.556C195.018 140.604 195.179 137.612 192.217 136.657C190.088 135.971 189.446 137.338 186.374 137.397C183.303 137.455 179.289 136.184 176.744 132.915C175.777 131.664 175.089 130.218 174.729 128.676C173.91 131.339 173.019 133.913 173.654 137.8C173.879 139.162 174.254 140.495 174.773 141.773C175.173 142.758 175.848 143.605 176.716 144.212C178.145 145.217 179.704 146.021 181.349 146.603C185.254 147.976 187.175 147.178 192.425 147.48C201.014 147.974 202.3 150.478 206.18 148.938C208.687 147.943 210.745 145.868 211.691 144.029C208.298 146.514 206.594 146.789 205.731 146.211Z" fill="url(#paint62_linear_6675_23200)"/>
<path d="M180.119 102.152C180.119 102.152 179.059 104.154 178.991 105.559C178.924 106.964 180.501 106.861 180.501 106.861L180.442 107.748C180.418 108.118 180.287 108.473 180.065 108.771C179.844 109.068 179.542 109.294 179.196 109.422L178.573 109.652C178.573 109.652 182.634 110.526 184.851 108.951L184.211 108.887C183.772 108.844 183.362 108.649 183.049 108.336C182.737 108.023 182.542 107.612 182.497 107.17L182.458 106.791C182.458 106.791 183.164 102.414 180.119 102.152Z" fill="url(#paint63_linear_6675_23200)"/>
<path d="M170.117 92.733C170.72 93.879 169.718 95.3418 169.076 96.6797C167.789 99.3633 166.891 103.748 168.554 106.809C169.462 108.483 171.29 110.045 173.356 110.44C175.577 110.867 176.483 109.634 178.835 110.223C179.008 110.267 181.994 111.051 182.654 113.083C183.468 115.589 180.534 119.352 177.423 120.473C171.733 122.523 162.536 116.786 160.666 108.999C158.631 100.522 165.683 91.2934 168.579 91.6797C169.034 91.7376 169.78 92.0885 170.117 92.733Z" fill="url(#paint64_linear_6675_23200)"/>
<path d="M180.749 104.143C180.959 104.125 181.133 103.858 181.276 103.937C181.418 104.016 181.41 104.411 181.276 104.684C181.191 104.855 181.059 104.998 180.895 105.095C181.12 105.402 181.276 105.756 181.35 106.13C181.542 107.145 181.003 107.961 180.78 108.439C179.775 110.592 181.339 113.996 183.056 115.714C184.452 117.112 185.105 116.551 185.937 117.691C187.559 119.912 185.321 122.354 186.16 125.344C187.435 129.89 194.574 131.243 194.867 131.295C194.984 131.315 195.06 131.329 195.184 131.348C198.385 131.859 203.24 132.636 206.658 129.992C209.216 128.014 210.389 124.573 210.195 121.541C210.144 120.744 209.904 117.716 207.451 115.246C207.062 114.854 204.757 112.537 201.641 112.509C199.991 112.494 199.656 113.079 198.397 112.718C196.668 112.222 195.604 110.643 194.944 109.664C193.728 107.861 194.223 107.475 193.35 106.59C191.638 104.852 189.63 106.217 187.801 104.685C185.999 103.175 187.086 101.125 185.346 99.8176C183.554 98.4655 180.119 98.94 179.387 100.546C178.762 101.927 180.105 104.196 180.749 104.143Z" fill="url(#paint65_linear_6675_23200)"/>
<defs>
<linearGradient id="paint0_linear_6675_23200" x1="237.407" y1="108.191" x2="175.169" y2="103.096" gradientUnits="userSpaceOnUse">
<stop stop-color="#B37CFF"/>
<stop offset="1" stop-color="#F895E7"/>
</linearGradient>
<linearGradient id="paint1_linear_6675_23200" x1="216.613" y1="65.5757" x2="180.593" y2="54.1468" gradientUnits="userSpaceOnUse">
<stop stop-color="#A737D5"/>
<stop offset="1" stop-color="#EF497A"/>
</linearGradient>
<linearGradient id="paint2_linear_6675_23200" x1="0" y1="59.6211" x2="92.2046" y2="59.6211" gradientUnits="userSpaceOnUse">
<stop stop-color="#CB0645"/>
<stop offset="1" stop-color="#DC7400"/>
</linearGradient>
<linearGradient id="paint3_linear_6675_23200" x1="2.94629" y1="59.6211" x2="93.9331" y2="59.6211" gradientUnits="userSpaceOnUse">
<stop stop-color="#FF5C00"/>
<stop offset="1" stop-color="#FDB768"/>
</linearGradient>
<linearGradient id="paint4_linear_6675_23200" x1="6.04883" y1="62.2305" x2="92.9103" y2="62.2305" gradientUnits="userSpaceOnUse">
<stop stop-color="#FE0555"/>
<stop offset="1" stop-color="#FF8700"/>
</linearGradient>
<linearGradient id="paint5_linear_6675_23200" x1="14.0586" y1="70.1328" x2="84.8976" y2="70.1328" gradientUnits="userSpaceOnUse">
<stop stop-color="#CB0645"/>
<stop offset="1" stop-color="#DC7400"/>
</linearGradient>
<linearGradient id="paint6_linear_6675_23200" x1="15.7861" y1="72.75" x2="81.2871" y2="72.75" gradientUnits="userSpaceOnUse">
<stop stop-color="#FE0555"/>
<stop offset="1" stop-color="#FF8700"/>
</linearGradient>
<linearGradient id="paint7_linear_6675_23200" x1="6.05762" y1="62.2344" x2="92.919" y2="62.2344" gradientUnits="userSpaceOnUse">
<stop stop-color="#FE0555"/>
<stop offset="1" stop-color="#FF8700"/>
</linearGradient>
<linearGradient id="paint8_linear_6675_23200" x1="40001" y1="21922.7" x2="65494.2" y2="21922.7" gradientUnits="userSpaceOnUse">
<stop stop-color="#FCB148"/>
<stop offset="0.05" stop-color="#FDBA46"/>
<stop offset="0.14" stop-color="#FFC244"/>
<stop offset="0.32" stop-color="#FFC444"/>
<stop offset="0.48" stop-color="#FDB946"/>
<stop offset="0.78" stop-color="#F99C4D"/>
<stop offset="0.87" stop-color="#F8924F"/>
<stop offset="1" stop-color="#F8924F"/>
</linearGradient>
<linearGradient id="paint9_linear_6675_23200" x1="80.339" y1="178.671" x2="82.6487" y2="197.9" gradientUnits="userSpaceOnUse">
<stop stop-color="#FFDB44"/>
<stop offset="1" stop-color="#FEEF06"/>
</linearGradient>
<linearGradient id="paint10_linear_6675_23200" x1="52843.5" y1="9228.64" x2="52845.9" y2="9493.72" gradientUnits="userSpaceOnUse">
<stop stop-color="#FFDB44"/>
<stop offset="1" stop-color="#FEEF06"/>
</linearGradient>
<linearGradient id="paint11_linear_6675_23200" x1="80.8935" y1="183.1" x2="80.1873" y2="177.215" gradientUnits="userSpaceOnUse">
<stop stop-color="#F36F56"/>
<stop offset="0.31" stop-color="#F99C4C"/>
<stop offset="0.55" stop-color="#FDB946"/>
<stop offset="0.68" stop-color="#FFC444"/>
<stop offset="0.8" stop-color="#FFC244"/>
<stop offset="0.87" stop-color="#FEBA46"/>
<stop offset="0.92" stop-color="#FCAD49"/>
<stop offset="0.96" stop-color="#F99A4D"/>
<stop offset="1" stop-color="#F57E53"/>
</linearGradient>
<linearGradient id="paint12_linear_6675_23200" x1="36915.7" y1="21464.1" x2="62408.9" y2="21464.1" gradientUnits="userSpaceOnUse">
<stop stop-color="#FCB148"/>
<stop offset="0.05" stop-color="#FDBA46"/>
<stop offset="0.14" stop-color="#FFC244"/>
<stop offset="0.32" stop-color="#FFC444"/>
<stop offset="0.48" stop-color="#FDB946"/>
<stop offset="0.78" stop-color="#F99C4D"/>
<stop offset="0.87" stop-color="#F8924F"/>
<stop offset="1" stop-color="#F8924F"/>
</linearGradient>
<linearGradient id="paint13_linear_6675_23200" x1="49779.4" y1="15514.7" x2="49802.6" y2="17003.6" gradientUnits="userSpaceOnUse">
<stop stop-color="#FFDB44"/>
<stop offset="1" stop-color="#FEEF06"/>
</linearGradient>
<linearGradient id="paint14_linear_6675_23200" x1="49755.6" y1="9028.99" x2="49758" y2="9294.06" gradientUnits="userSpaceOnUse">
<stop stop-color="#FFDB44"/>
<stop offset="1" stop-color="#FEEF06"/>
</linearGradient>
<linearGradient id="paint15_linear_6675_23200" x1="12704" y1="2444.79" x2="12705.8" y2="2669.23" gradientUnits="userSpaceOnUse">
<stop stop-color="#F36F56"/>
<stop offset="0.31" stop-color="#F99C4C"/>
<stop offset="0.55" stop-color="#FDB946"/>
<stop offset="0.68" stop-color="#FFC444"/>
<stop offset="0.8" stop-color="#FFC244"/>
<stop offset="0.87" stop-color="#FEBA46"/>
<stop offset="0.92" stop-color="#FCAD49"/>
<stop offset="0.96" stop-color="#F99A4D"/>
<stop offset="1" stop-color="#F57E53"/>
</linearGradient>
<linearGradient id="paint16_linear_6675_23200" x1="39578.7" y1="21002.6" x2="65072.3" y2="21002.6" gradientUnits="userSpaceOnUse">
<stop stop-color="#FCB148"/>
<stop offset="0.05" stop-color="#FDBA46"/>
<stop offset="0.14" stop-color="#FFC244"/>
<stop offset="0.32" stop-color="#FFC444"/>
<stop offset="0.48" stop-color="#FDB946"/>
<stop offset="0.78" stop-color="#F99C4D"/>
<stop offset="0.87" stop-color="#F8924F"/>
<stop offset="1" stop-color="#F8924F"/>
</linearGradient>
<linearGradient id="paint17_linear_6675_23200" x1="52442.6" y1="15174.4" x2="52465.9" y2="16663.3" gradientUnits="userSpaceOnUse">
<stop stop-color="#FFDB44"/>
<stop offset="1" stop-color="#FEEF06"/>
</linearGradient>
<linearGradient id="paint18_linear_6675_23200" x1="52419.7" y1="8829.91" x2="52422.1" y2="9094.99" gradientUnits="userSpaceOnUse">
<stop stop-color="#FFDB44"/>
<stop offset="1" stop-color="#FEEF06"/>
</linearGradient>
<linearGradient id="paint19_linear_6675_23200" x1="10087.3" y1="2605.16" x2="10089" y2="2829.53" gradientUnits="userSpaceOnUse">
<stop stop-color="#F36F56"/>
<stop offset="0.31" stop-color="#F99C4C"/>
<stop offset="0.55" stop-color="#FDB946"/>
<stop offset="0.68" stop-color="#FFC444"/>
<stop offset="0.8" stop-color="#FFC244"/>
<stop offset="0.87" stop-color="#FEBA46"/>
<stop offset="0.92" stop-color="#FCAD49"/>
<stop offset="0.96" stop-color="#F99A4D"/>
<stop offset="1" stop-color="#F57E53"/>
</linearGradient>
<linearGradient id="paint20_linear_6675_23200" x1="41194.4" y1="20541.9" x2="66688" y2="20541.9" gradientUnits="userSpaceOnUse">
<stop stop-color="#FCB148"/>
<stop offset="0.05" stop-color="#FDBA46"/>
<stop offset="0.14" stop-color="#FFC244"/>
<stop offset="0.32" stop-color="#FFC444"/>
<stop offset="0.48" stop-color="#FDB946"/>
<stop offset="0.78" stop-color="#F99C4D"/>
<stop offset="0.87" stop-color="#F8924F"/>
<stop offset="1" stop-color="#F8924F"/>
</linearGradient>
<linearGradient id="paint21_linear_6675_23200" x1="48518.1" y1="13477.3" x2="48541.3" y2="14966" gradientUnits="userSpaceOnUse">
<stop stop-color="#FFDB44"/>
<stop offset="1" stop-color="#FEEF06"/>
</linearGradient>
<linearGradient id="paint22_linear_6675_23200" x1="54037" y1="8630.21" x2="54039.4" y2="8895.28" gradientUnits="userSpaceOnUse">
<stop stop-color="#FFDB44"/>
<stop offset="1" stop-color="#FEEF06"/>
</linearGradient>
<linearGradient id="paint23_linear_6675_23200" x1="8499.26" y1="2766.61" x2="8501" y2="2990.98" gradientUnits="userSpaceOnUse">
<stop stop-color="#F36F56"/>
<stop offset="0.31" stop-color="#F99C4C"/>
<stop offset="0.55" stop-color="#FDB946"/>
<stop offset="0.68" stop-color="#FFC444"/>
<stop offset="0.8" stop-color="#FFC244"/>
<stop offset="0.87" stop-color="#FEBA46"/>
<stop offset="0.92" stop-color="#FCAD49"/>
<stop offset="0.96" stop-color="#F99A4D"/>
<stop offset="1" stop-color="#F57E53"/>
</linearGradient>
<linearGradient id="paint24_linear_6675_23200" x1="40001" y1="20044.9" x2="65494.2" y2="20044.9" gradientUnits="userSpaceOnUse">
<stop stop-color="#FCB148"/>
<stop offset="0.05" stop-color="#FDBA46"/>
<stop offset="0.14" stop-color="#FFC244"/>
<stop offset="0.32" stop-color="#FFC444"/>
<stop offset="0.48" stop-color="#FDB946"/>
<stop offset="0.78" stop-color="#F99C4D"/>
<stop offset="0.87" stop-color="#F8924F"/>
<stop offset="1" stop-color="#F8924F"/>
</linearGradient>
<linearGradient id="paint25_linear_6675_23200" x1="52864.7" y1="14463.1" x2="52887.9" y2="15951.7" gradientUnits="userSpaceOnUse">
<stop stop-color="#FFDB44"/>
<stop offset="1" stop-color="#FEEF06"/>
</linearGradient>
<linearGradient id="paint26_linear_6675_23200" x1="52843.5" y1="8413.02" x2="52845.9" y2="8678" gradientUnits="userSpaceOnUse">
<stop stop-color="#FFDB44"/>
<stop offset="1" stop-color="#FEEF06"/>
</linearGradient>
<linearGradient id="paint27_linear_6675_23200" x1="9671.71" y1="2940.75" x2="9673.45" y2="3165.12" gradientUnits="userSpaceOnUse">
<stop stop-color="#F36F56"/>
<stop offset="0.31" stop-color="#F99C4C"/>
<stop offset="0.55" stop-color="#FDB946"/>
<stop offset="0.68" stop-color="#FFC444"/>
<stop offset="0.8" stop-color="#FFC244"/>
<stop offset="0.87" stop-color="#FEBA46"/>
<stop offset="0.92" stop-color="#FCAD49"/>
<stop offset="0.96" stop-color="#F99A4D"/>
<stop offset="1" stop-color="#F57E53"/>
</linearGradient>
<linearGradient id="paint28_linear_6675_23200" x1="36915.7" y1="19584.3" x2="62408.9" y2="19584.3" gradientUnits="userSpaceOnUse">
<stop stop-color="#FCB148"/>
<stop offset="0.05" stop-color="#FDBA46"/>
<stop offset="0.14" stop-color="#FFC244"/>
<stop offset="0.32" stop-color="#FFC444"/>
<stop offset="0.48" stop-color="#FDB946"/>
<stop offset="0.78" stop-color="#F99C4D"/>
<stop offset="0.87" stop-color="#F8924F"/>
<stop offset="1" stop-color="#F8924F"/>
</linearGradient>
<linearGradient id="paint29_linear_6675_23200" x1="44240.4" y1="12767.9" x2="44263.6" y2="14256.6" gradientUnits="userSpaceOnUse">
<stop stop-color="#FFDB44"/>
<stop offset="1" stop-color="#FEEF06"/>
</linearGradient>
<linearGradient id="paint30_linear_6675_23200" x1="49755.6" y1="8213.41" x2="49758" y2="8478.39" gradientUnits="userSpaceOnUse">
<stop stop-color="#FFDB44"/>
<stop offset="1" stop-color="#FEEF06"/>
</linearGradient>
<linearGradient id="paint31_linear_6675_23200" x1="12704" y1="3102.23" x2="12705.8" y2="3326.61" gradientUnits="userSpaceOnUse">
<stop stop-color="#F36F56"/>
<stop offset="0.31" stop-color="#F99C4C"/>
<stop offset="0.55" stop-color="#FDB946"/>
<stop offset="0.68" stop-color="#FFC444"/>
<stop offset="0.8" stop-color="#FFC244"/>
<stop offset="0.87" stop-color="#FEBA46"/>
<stop offset="0.92" stop-color="#FCAD49"/>
<stop offset="0.96" stop-color="#F99A4D"/>
<stop offset="1" stop-color="#F57E53"/>
</linearGradient>
<linearGradient id="paint32_linear_6675_23200" x1="39578.7" y1="19128.7" x2="65072.3" y2="19128.7" gradientUnits="userSpaceOnUse">
<stop stop-color="#FCB148"/>
<stop offset="0.05" stop-color="#FDBA46"/>
<stop offset="0.14" stop-color="#FFC244"/>
<stop offset="0.32" stop-color="#FFC444"/>
<stop offset="0.48" stop-color="#FDB946"/>
<stop offset="0.78" stop-color="#F99C4D"/>
<stop offset="0.87" stop-color="#F8924F"/>
<stop offset="1" stop-color="#F8924F"/>
</linearGradient>
<linearGradient id="paint33_linear_6675_23200" x1="46902.4" y1="12427.6" x2="46925.6" y2="13916.3" gradientUnits="userSpaceOnUse">
<stop stop-color="#FFDB44"/>
<stop offset="1" stop-color="#FEEF06"/>
</linearGradient>
<linearGradient id="paint34_linear_6675_23200" x1="52419.7" y1="8014.38" x2="52422.1" y2="8279.36" gradientUnits="userSpaceOnUse">
<stop stop-color="#FFDB44"/>
<stop offset="1" stop-color="#FEEF06"/>
</linearGradient>
<linearGradient id="paint35_linear_6675_23200" x1="10087.3" y1="3263.19" x2="10089" y2="3487.56" gradientUnits="userSpaceOnUse">
<stop stop-color="#F36F56"/>
<stop offset="0.31" stop-color="#F99C4C"/>
<stop offset="0.55" stop-color="#FDB946"/>
<stop offset="0.68" stop-color="#FFC444"/>
<stop offset="0.8" stop-color="#FFC244"/>
<stop offset="0.87" stop-color="#FEBA46"/>
<stop offset="0.92" stop-color="#FCAD49"/>
<stop offset="0.96" stop-color="#F99A4D"/>
<stop offset="1" stop-color="#F57E53"/>
</linearGradient>
<linearGradient id="paint36_linear_6675_23200" x1="38193.9" y1="18666" x2="63687.5" y2="18666" gradientUnits="userSpaceOnUse">
<stop stop-color="#FCB148"/>
<stop offset="0.05" stop-color="#FDBA46"/>
<stop offset="0.14" stop-color="#FFC244"/>
<stop offset="0.32" stop-color="#FFC444"/>
<stop offset="0.48" stop-color="#FDB946"/>
<stop offset="0.78" stop-color="#F99C4D"/>
<stop offset="0.87" stop-color="#F8924F"/>
<stop offset="1" stop-color="#F8924F"/>
</linearGradient>
<linearGradient id="paint37_linear_6675_23200" x1="45518.1" y1="12086.3" x2="45541.3" y2="13575" gradientUnits="userSpaceOnUse">
<stop stop-color="#FFDB44"/>
<stop offset="1" stop-color="#FEEF06"/>
</linearGradient>
<linearGradient id="paint38_linear_6675_23200" x1="51034.1" y1="7814.77" x2="51036.5" y2="8079.76" gradientUnits="userSpaceOnUse">
<stop stop-color="#FFDB44"/>
<stop offset="1" stop-color="#FEEF06"/>
</linearGradient>
<linearGradient id="paint39_linear_6675_23200" x1="11448.3" y1="3424.66" x2="11450.1" y2="3649.04" gradientUnits="userSpaceOnUse">
<stop stop-color="#F36F56"/>
<stop offset="0.31" stop-color="#F99C4C"/>
<stop offset="0.55" stop-color="#FDB946"/>
<stop offset="0.68" stop-color="#FFC444"/>
<stop offset="0.8" stop-color="#FFC244"/>
<stop offset="0.87" stop-color="#FEBA46"/>
<stop offset="0.92" stop-color="#FCAD49"/>
<stop offset="0.96" stop-color="#F99A4D"/>
<stop offset="1" stop-color="#F57E53"/>
</linearGradient>
<linearGradient id="paint40_linear_6675_23200" x1="-27394.5" y1="86337" x2="-17343" y2="100297" gradientUnits="userSpaceOnUse">
<stop stop-color="#FCB148"/>
<stop offset="0.05" stop-color="#FDBA46"/>
<stop offset="0.14" stop-color="#FFC244"/>
<stop offset="0.32" stop-color="#FFC444"/>
<stop offset="0.48" stop-color="#FDB946"/>
<stop offset="0.78" stop-color="#F99C4D"/>
<stop offset="0.87" stop-color="#F8924F"/>
<stop offset="1" stop-color="#F8924F"/>
</linearGradient>
<linearGradient id="paint41_linear_6675_23200" x1="-20892.6" y1="82579.4" x2="-27415.4" y2="89071.9" gradientUnits="userSpaceOnUse">
<stop stop-color="#FFDB44"/>
<stop offset="1" stop-color="#FEEF06"/>
</linearGradient>
<linearGradient id="paint42_linear_6675_23200" x1="-20623.1" y1="82448.9" x2="-22629.4" y2="84446.2" gradientUnits="userSpaceOnUse">
<stop stop-color="#FFDB44"/>
<stop offset="1" stop-color="#FEEF06"/>
</linearGradient>
<linearGradient id="paint43_linear_6675_23200" x1="57972.8" y1="-20410.5" x2="59931.5" y2="-22367.7" gradientUnits="userSpaceOnUse">
<stop stop-color="#F36F56"/>
<stop offset="0.31" stop-color="#F99C4C"/>
<stop offset="0.55" stop-color="#FDB946"/>
<stop offset="0.68" stop-color="#FFC444"/>
<stop offset="0.8" stop-color="#FFC244"/>
<stop offset="0.87" stop-color="#FEBA46"/>
<stop offset="0.92" stop-color="#FCAD49"/>
<stop offset="0.96" stop-color="#F99A4D"/>
<stop offset="1" stop-color="#F57E53"/>
</linearGradient>
<linearGradient id="paint44_linear_6675_23200" x1="102.914" y1="79.958" x2="198.329" y2="77.7405" gradientUnits="userSpaceOnUse">
<stop stop-color="#2B3582"/>
<stop offset="1" stop-color="#150E42"/>
</linearGradient>
<linearGradient id="paint45_linear_6675_23200" x1="106.099" y1="79.8886" x2="198.482" y2="77.7588" gradientUnits="userSpaceOnUse">
<stop stop-color="#2B3582"/>
<stop offset="1" stop-color="#150E42"/>
</linearGradient>
<linearGradient id="paint46_linear_6675_23200" x1="130.851" y1="14.6819" x2="178.774" y2="14.6819" gradientUnits="userSpaceOnUse">
<stop stop-color="#444B8C"/>
<stop offset="1" stop-color="#26264F"/>
</linearGradient>
<linearGradient id="paint47_linear_6675_23200" x1="17015.7" y1="11967.6" x2="18349.1" y2="18877.9" gradientUnits="userSpaceOnUse">
<stop stop-color="#FF9085"/>
<stop offset="1" stop-color="#FB6FBB"/>
</linearGradient>
<linearGradient id="paint48_linear_6675_23200" x1="16726.5" y1="12036" x2="18059.8" y2="18946.3" gradientUnits="userSpaceOnUse">
<stop stop-color="#FF9085"/>
<stop offset="1" stop-color="#FB6FBB"/>
</linearGradient>
<linearGradient id="paint49_linear_6675_23200" x1="16726.5" y1="13523" x2="18059.7" y2="20433.1" gradientUnits="userSpaceOnUse">
<stop stop-color="#FF9085"/>
<stop offset="1" stop-color="#FB6FBB"/>
</linearGradient>
<linearGradient id="paint50_linear_6675_23200" x1="16169.8" y1="12167.5" x2="17503.3" y2="19078" gradientUnits="userSpaceOnUse">
<stop stop-color="#FF9085"/>
<stop offset="1" stop-color="#FB6FBB"/>
</linearGradient>
<linearGradient id="paint51_linear_6675_23200" x1="169.931" y1="90.0154" x2="170.937" y2="95.8532" gradientUnits="userSpaceOnUse">
<stop stop-color="#FFC444"/>
<stop offset="1" stop-color="#F36F56"/>
</linearGradient>
<linearGradient id="paint52_linear_6675_23200" x1="-17631" y1="8589.77" x2="-17547.1" y2="8877.49" gradientUnits="userSpaceOnUse">
<stop stop-color="#FFC444"/>
<stop offset="1" stop-color="#F36F56"/>
</linearGradient>
<linearGradient id="paint53_linear_6675_23200" x1="-71121.3" y1="48187.5" x2="-70441" y2="69676.1" gradientUnits="userSpaceOnUse">
<stop stop-color="#FF9085"/>
<stop offset="1" stop-color="#FB6FBB"/>
</linearGradient>
<linearGradient id="paint54_linear_6675_23200" x1="-4734.87" y1="7570.06" x2="-4765.33" y2="6812.89" gradientUnits="userSpaceOnUse">
<stop stop-color="#FFC444"/>
<stop offset="1" stop-color="#F36F56"/>
</linearGradient>
<linearGradient id="paint55_linear_6675_23200" x1="185.53" y1="143.851" x2="188.884" y2="183.27" gradientUnits="userSpaceOnUse">
<stop stop-color="#311944"/>
<stop offset="1" stop-color="#893976"/>
</linearGradient>
<linearGradient id="paint56_linear_6675_23200" x1="31048.3" y1="104050" x2="26704" y2="128439" gradientUnits="userSpaceOnUse">
<stop stop-color="#311944"/>
<stop offset="1" stop-color="#893976"/>
</linearGradient>
<linearGradient id="paint57_linear_6675_23200" x1="-10616" y1="10178" x2="-10496.4" y2="9603.16" gradientUnits="userSpaceOnUse">
<stop stop-color="#FF9085"/>
<stop offset="1" stop-color="#FB6FBB"/>
</linearGradient>
<linearGradient id="paint58_linear_6675_23200" x1="-7975.87" y1="7712.8" x2="-8402.42" y2="7349.99" gradientUnits="userSpaceOnUse">
<stop stop-color="#FFC444"/>
<stop offset="1" stop-color="#F36F56"/>
</linearGradient>
<linearGradient id="paint59_linear_6675_23200" x1="-7368.18" y1="4080.32" x2="-7528.44" y2="3402.9" gradientUnits="userSpaceOnUse">
<stop stop-color="#FF9085"/>
<stop offset="1" stop-color="#FB6FBB"/>
</linearGradient>
<linearGradient id="paint60_linear_6675_23200" x1="-44462.5" y1="80552.8" x2="-53153.8" y2="80347.4" gradientUnits="userSpaceOnUse">
<stop stop-color="#311944"/>
<stop offset="1" stop-color="#893976"/>
</linearGradient>
<linearGradient id="paint61_linear_6675_23200" x1="-123396" y1="75884.2" x2="-117306" y2="109635" gradientUnits="userSpaceOnUse">
<stop stop-color="#FF9085"/>
<stop offset="1" stop-color="#FB6FBB"/>
</linearGradient>
<linearGradient id="paint62_linear_6675_23200" x1="-10345.5" y1="39622.1" x2="-3967.42" y2="52214.5" gradientUnits="userSpaceOnUse">
<stop stop-color="#FF9085"/>
<stop offset="1" stop-color="#FB6FBB"/>
</linearGradient>
<linearGradient id="paint63_linear_6675_23200" x1="-18591.9" y1="15965" x2="-18030.4" y2="16643.4" gradientUnits="userSpaceOnUse">
<stop stop-color="#FFC444"/>
<stop offset="1" stop-color="#F36F56"/>
</linearGradient>
<linearGradient id="paint64_linear_6675_23200" x1="-76643.9" y1="57152.7" x2="-72093.6" y2="77569.9" gradientUnits="userSpaceOnUse">
<stop stop-color="#FF9085"/>
<stop offset="1" stop-color="#FB6FBB"/>
</linearGradient>
<linearGradient id="paint65_linear_6675_23200" x1="-81370" y1="81683.7" x2="-90878.8" y2="64296.6" gradientUnits="userSpaceOnUse">
<stop stop-color="#444B8C"/>
<stop offset="1" stop-color="#26264F"/>
</linearGradient>
</defs>
</svg>
