<svg width="411" height="210" viewBox="0 0 411 210" fill="none" xmlns="http://www.w3.org/2000/svg">
    <g clip-path="url(#clip0_934_3852)">
        <path d="M135.293 180.031L99.0545 185.692L99.5157 173.857H99.5122L99.0545 185.694L98.4269 201.906H112.819V201.908H163.587V197.8H136.81L136.646 193.541L135.819 193.572L135.293 180.031Z" fill="url(#paint0_linear_934_3852)"/>
        <path d="M135.293 180.031L135.137 176L135.966 175.967L135.885 173.857H99.5156L99.0544 185.692L135.293 180.031Z" fill="url(#paint1_linear_934_3852)"/>
        <path d="M194.9 74.2135H40.5002V172.52H143.53V173.189H154.049V172.52H166.596V173.189H194.898V74.2135H194.9ZM117.699 168.606C116.094 168.606 114.792 167.301 114.792 165.691C114.792 164.081 116.094 162.776 117.699 162.776C119.305 162.776 120.607 164.081 120.607 165.691C120.607 167.301 119.305 168.606 117.699 168.606ZM191.084 158.183H189.085V158.852H102.343V158.183H44.3162V78.045H112.976H124.031H191.084V158.183Z" fill="url(#paint2_linear_934_3852)"/>
        <path d="M142.571 145.176V142.53L125.638 145.176H142.571Z" fill="white"/>
        <path d="M46.033 136.364V156.462H53.4066L58.1311 155.719L92.9275 150.282L83.9571 130.438L46.033 136.364Z" fill="white"/>
        <path d="M105.967 126.999L98.1562 128.221L100.636 133.709C102.083 131.787 103.865 129.528 105.967 126.999Z" fill="white"/>
        <path d="M189.367 135.218V113.975L143.905 121.074V142.321L189.367 135.218Z" fill="white"/>
        <path d="M107.522 148.006L117.078 146.513H112.819V145.176H125.638L142.572 142.53V121.283L127.885 123.576C114.66 136.887 108.129 147.045 107.522 148.006Z" fill="white"/>
        <path d="M102.343 157.515V158.183V158.852H189.083V158.183V157.515H102.343Z" fill="url(#paint3_linear_934_3852)"/>
        <path d="M40.5002 172.52V173.857H99.512H99.5155H135.884H143.53V173.187V172.52H40.5002Z" fill="#212429"/>
        <path d="M154.051 172.52V173.187V173.857H166.598V173.187V172.52H154.051Z" fill="#212429"/>
        <path d="M117.699 162.776C116.094 162.776 114.792 164.081 114.792 165.691C114.792 167.301 116.094 168.606 117.699 168.606C119.305 168.606 120.607 167.301 120.607 165.691C120.607 164.081 119.305 162.776 117.699 162.776Z" fill="#E9E6FF"/>
        <path d="M135.137 176L135.293 180.031L135.819 193.572L136.646 193.541L137.15 193.52L136.471 175.948L135.966 175.967L135.137 176Z" fill="#212429"/>
        <path d="M190.966 79.7659H46.0312V102.404L91.4954 95.3022V93.9601H100.088L151.473 85.9338C152.478 85.2402 153.493 84.5465 154.528 83.8546L155.493 85.3062L185.874 80.5603L190.966 79.7659Z" fill="white"/>
        <rect x="43.9998" y="77.9996" width="147" height="81" fill="white"/>
        <path d="M142.572 145.176H125.638H112.819V146.513H117.079H143.905V142.322V121.075V111.713H142.572V121.283V142.53V145.176Z" fill="url(#paint4_linear_934_3852)"/>
        <path d="M131.564 93.9603H128.622V95.2972H131.564V93.9603Z" fill="url(#paint5_linear_934_3852)"/>
        <path d="M91.4955 95.3024V113.975H92.8287V95.2972H122.878V93.9603H100.088H91.4955V95.3024Z" fill="url(#paint6_linear_934_3852)"/>
        <path d="M100.637 133.709L98.1582 128.221L83.9587 130.438L92.9292 150.282L107.524 148.006C108.129 147.045 114.662 136.887 127.887 123.576L105.967 126.999C103.866 129.528 102.083 131.787 100.637 133.709Z" fill="url(#paint7_linear_934_3852)"/>
        <path d="M93.1114 116.646L80.5001 122.379L83.9555 130.007L98.1566 127.791L93.1114 116.646Z" fill="url(#paint8_linear_934_3852)"/>
        <path d="M92.927 150.282L93.4229 151.377H105.445L107.47 148.081C107.478 148.072 107.487 148.046 107.52 148.004L92.927 150.282Z" fill="url(#paint9_linear_934_3852)"/>
        <path d="M151.473 85.5041C129.777 100.493 114.878 115.902 105.967 126.569L127.885 123.146C136.451 114.531 147.827 104.592 162.212 94.9733L155.493 84.8765L154.528 83.4249C153.493 84.1168 152.478 84.8105 151.473 85.5041Z" fill="url(#paint10_linear_934_3852)"/>
        <path d="M166.034 72.7028H38.9919V151.193H40.3269V74.0396H166.034V72.7028Z" fill="url(#paint11_linear_934_3852)"/>
        <path d="M394.782 201.908H0V208.594H394.782V201.908Z" fill="url(#paint12_linear_934_3852)"/>
        <path d="M259.648 207.928H111.709V209.265H259.648V207.928Z" fill="#212429"/>
        <path d="M91.4846 207.928H37.1418V209.265H91.4846V207.928Z" fill="#212429"/>
        <path d="M104.387 207.928H98.2327V209.265H104.387V207.928Z" fill="#212429"/>
        <path d="M273.213 106.275C272.89 106.275 272.575 106.242 272.268 106.181L272.329 106.359C272.616 106.306 272.911 106.275 273.213 106.275Z" fill="white"/>
        <path d="M306.161 122.168C305.99 121.756 305.808 121.346 305.646 120.934C304.273 117.42 303.245 113.914 302.555 110.548C301.87 107.183 301.503 103.97 301.291 101.022C301.144 98.082 301.134 95.3857 301.307 93.0457C301.362 91.8654 301.473 90.7771 301.581 89.774C301.64 89.2734 301.697 88.7849 301.747 88.3259C301.82 87.7957 301.9 87.2881 301.964 86.8152C302.042 86.3354 302.108 85.8834 302.177 85.4593C302.241 85.0507 302.319 84.5692 302.351 84.4284C302.436 84.0129 302.512 83.653 302.573 83.3645C302.689 82.7856 302.749 82.4761 302.749 82.4761C302.841 82.0328 302.952 81.5982 303.074 81.1688L293.531 87.8583C288.666 91.2691 287.634 98.0663 291.267 102.774L293.245 105.338L287.44 122.408C287.369 122.618 287.314 122.828 287.26 123.041H305.865L306.161 122.168Z" fill="#E2C07C"/>
        <path d="M408.463 55.9704C405.86 54.2476 402.358 54.9673 400.642 57.5767C400.338 58.0374 400.115 58.5276 399.96 59.03L399.957 59.0283L397.353 67.4892L398.07 66.7573L398.072 66.7591L396.068 68.8035L402.564 75.2043L402.566 75.2061L404.626 72.0769L404.628 72.0752L410.066 63.8142C411.783 61.203 411.065 57.6914 408.463 55.9704Z" fill="#E2C07C"/>
        <path d="M306.974 126.776V124.049C306.821 123.713 306.672 123.376 306.527 123.039H305.866H287.261H278.358V124.15L279.248 126.776H306.974Z" fill="white"/>
        <path d="M365.083 100.396C368.401 99.7214 371.898 99.6449 375.435 100.272C378.542 100.825 381.432 101.884 384.045 103.337L400.189 78.8099L393.098 71.8284L365.083 100.396Z" fill="url(#paint13_linear_934_3852)"/>
        <path d="M318.121 141.047C315.369 138.021 312.949 134.745 310.867 131.356C309.932 129.854 309.083 128.322 308.292 126.777H306.973H279.247L278.357 124.15L272.329 106.359L272.268 106.181L262.996 78.8168L263.501 23.9383L253.651 23.036L243.869 78.6865H243.873C243.869 78.7056 243.862 78.7247 243.859 78.7456C243.663 79.8982 243.693 81.0333 243.894 82.1199L243.882 82.1233L255.251 143.498H255.255C255.329 143.9 255.418 144.302 255.529 144.703C256.104 146.788 257.117 148.632 258.438 150.167L224.082 209.265H255.236H253.637H248.762L251.149 186.151C251.194 185.72 251.255 185.294 251.312 184.866L250.638 184.776C253.488 163.407 271.857 147.293 293.37 147.293C298.346 147.293 303.219 148.131 307.85 149.786L307.621 150.43C308.674 150.805 309.714 151.208 310.725 151.664C311.203 151.879 311.676 152.105 312.146 152.337C312.327 152.425 312.502 152.521 312.68 152.611C312.968 152.759 313.254 152.905 313.537 153.06C313.745 153.173 313.949 153.291 314.156 153.407C314.404 153.547 314.652 153.687 314.896 153.832C315.113 153.96 315.328 154.092 315.541 154.225C315.77 154.365 315.997 154.506 316.222 154.652C316.399 154.767 316.576 154.882 316.753 154.998L317.027 153.538L325.9 148.269C323.111 146.068 320.493 143.653 318.121 141.047Z" fill="url(#paint14_linear_934_3852)"/>
        <path d="M396.067 68.8033L398.071 66.7589L398.069 66.7572L397.353 67.4891L396.064 68.8033L393.101 71.8282L400.19 78.8097L402.563 75.2042L396.067 68.8033Z" fill="white"/>
        <path d="M263.544 19.2461L263.57 16.1778L267.464 8.13935L267.46 8.13761C267.689 7.66476 267.859 7.15366 267.951 6.60953C268.473 3.52731 266.405 0.605015 263.331 0.0817487C260.257 -0.441517 257.342 1.63242 256.82 4.71465L255.173 14.4464H255.17L254.469 18.4117L263.544 19.2461Z" fill="#E2C07C"/>
        <path d="M263.544 19.2462L254.467 18.41L253.654 23.0377L263.504 23.94L263.544 19.2462Z" fill="white"/>
        <path d="M327.039 164.606C327.185 164.796 327.328 164.989 327.471 165.182C327.328 164.99 327.186 164.797 327.039 164.606Z" fill="url(#paint15_linear_934_3852)"/>
        <path d="M334.344 179.346C334.386 179.503 334.428 179.659 334.468 179.816C334.428 179.659 334.386 179.503 334.344 179.346Z" fill="url(#paint16_linear_934_3852)"/>
        <path d="M334.738 180.923C334.775 181.083 334.811 181.245 334.848 181.405C334.813 181.243 334.777 181.083 334.738 180.923Z" fill="url(#paint17_linear_934_3852)"/>
        <path d="M333.893 177.798C333.938 177.944 333.982 178.09 334.027 178.237C333.984 178.09 333.94 177.944 333.893 177.798Z" fill="url(#paint18_linear_934_3852)"/>
        <path d="M331.394 171.584C331.436 171.668 331.481 171.751 331.521 171.835C331.48 171.75 331.436 171.668 331.394 171.584Z" fill="url(#paint19_linear_934_3852)"/>
        <path d="M335.079 182.536C335.109 182.693 335.14 182.848 335.168 183.004C335.138 182.848 335.109 182.691 335.079 182.536Z" fill="url(#paint20_linear_934_3852)"/>
        <path d="M330.556 169.987C330.64 170.14 330.727 170.289 330.808 170.442C330.727 170.289 330.64 170.138 330.556 169.987Z" fill="url(#paint21_linear_934_3852)"/>
        <path d="M333.386 176.276C333.431 176.402 333.471 176.529 333.517 176.654C333.473 176.529 333.431 176.402 333.386 176.276Z" fill="url(#paint22_linear_934_3852)"/>
        <path d="M332.824 174.781C332.857 174.861 332.885 174.943 332.916 175.023C332.887 174.943 332.857 174.861 332.824 174.781Z" fill="url(#paint23_linear_934_3852)"/>
        <path d="M335.815 191.182C335.812 191.335 335.808 191.488 335.803 191.642C335.807 191.488 335.812 191.335 335.815 191.182Z" fill="url(#paint24_linear_934_3852)"/>
        <path d="M335.357 184.19C335.378 184.334 335.402 184.476 335.421 184.621C335.402 184.476 335.378 184.334 335.357 184.19Z" fill="url(#paint25_linear_934_3852)"/>
        <path d="M323.091 160.137C322.855 159.904 322.613 159.676 322.372 159.448C322.613 159.678 322.854 159.904 323.091 160.137Z" fill="url(#paint26_linear_934_3852)"/>
        <path d="M335.753 192.824C335.744 192.981 335.737 193.137 335.727 193.296C335.737 193.137 335.744 192.981 335.753 192.824Z" fill="url(#paint27_linear_934_3852)"/>
        <path d="M335.815 189.586C335.817 189.664 335.815 189.742 335.817 189.82C335.815 189.742 335.817 189.664 335.815 189.586Z" fill="url(#paint28_linear_934_3852)"/>
        <path d="M335.577 185.916C335.589 186.029 335.605 186.142 335.616 186.255C335.605 186.142 335.589 186.029 335.577 185.916Z" fill="url(#paint29_linear_934_3852)"/>
        <path d="M327.975 165.877C328.111 166.067 328.242 166.256 328.374 166.449C328.242 166.256 328.111 166.067 327.975 165.877Z" fill="url(#paint30_linear_934_3852)"/>
        <path d="M320.01 157.388C320.218 157.557 320.427 157.726 320.634 157.899C320.427 157.726 320.218 157.557 320.01 157.388Z" fill="url(#paint31_linear_934_3852)"/>
        <path d="M321.205 158.393C321.406 158.569 321.611 158.744 321.808 158.923C321.609 158.743 321.406 158.569 321.205 158.393Z" fill="url(#paint32_linear_934_3852)"/>
        <path d="M323.988 161.042C324.158 161.22 324.321 161.402 324.487 161.583C324.321 161.402 324.158 161.22 323.988 161.042Z" fill="url(#paint33_linear_934_3852)"/>
        <path d="M317.523 155.518C317.741 155.669 317.956 155.822 318.171 155.979C317.956 155.822 317.741 155.669 317.523 155.518Z" fill="url(#paint34_linear_934_3852)"/>
        <path d="M329.729 168.552C329.835 168.728 329.942 168.902 330.045 169.079C329.941 168.902 329.835 168.728 329.729 168.552Z" fill="url(#paint35_linear_934_3852)"/>
        <path d="M325.046 162.19C325.21 162.374 325.37 162.564 325.531 162.751C325.37 162.565 325.21 162.376 325.046 162.19Z" fill="url(#paint36_linear_934_3852)"/>
        <path d="M318.781 156.429C318.996 156.59 319.209 156.752 319.423 156.917C319.211 156.752 318.996 156.59 318.781 156.429Z" fill="url(#paint37_linear_934_3852)"/>
        <path d="M328.872 167.19C328.994 167.376 329.116 167.562 329.234 167.748C329.116 167.562 328.994 167.376 328.872 167.19Z" fill="url(#paint38_linear_934_3852)"/>
        <path d="M326.063 163.379C326.219 163.568 326.371 163.76 326.524 163.953C326.371 163.76 326.219 163.567 326.063 163.379Z" fill="url(#paint39_linear_934_3852)"/>
        <path d="M316.879 155.08C316.84 155.052 316.8 155.024 316.758 154.996C316.583 154.88 316.406 154.765 316.228 154.65C316.448 154.791 316.664 154.935 316.879 155.08Z" fill="url(#paint40_linear_934_3852)"/>
        <path d="M314.901 153.83C315.117 153.958 315.333 154.091 315.546 154.223C315.331 154.091 315.117 153.958 314.901 153.83Z" fill="url(#paint41_linear_934_3852)"/>
        <path d="M313.54 153.058C313.748 153.171 313.953 153.289 314.159 153.406C313.955 153.289 313.75 153.171 313.54 153.058Z" fill="url(#paint42_linear_934_3852)"/>
        <path d="M312.149 152.335C312.329 152.423 312.505 152.519 312.683 152.609C312.505 152.519 312.329 152.423 312.149 152.335Z" fill="url(#paint43_linear_934_3852)"/>
        <path d="M255.239 208.597V207.928H258.479L259.142 201.48L259.188 201.012L260.423 189.083C262.651 167.386 280.888 150.892 302.647 150.892C305.414 150.892 308.115 151.153 310.728 151.66C309.717 151.207 308.677 150.801 307.624 150.426L307.404 151.043C302.917 149.44 298.194 148.627 293.371 148.627C272.526 148.627 254.724 164.241 251.962 184.949L251.315 184.862C251.258 185.29 251.197 185.716 251.152 186.147L248.765 209.261H253.64H255.239V208.597Z" fill="url(#paint44_linear_934_3852)"/>
        <path d="M293.374 148.628C298.197 148.628 302.92 149.44 307.407 151.045L307.627 150.428L307.856 149.785C303.223 148.13 298.351 147.292 293.375 147.292C271.865 147.292 253.494 163.405 250.644 184.774L251.318 184.864L251.965 184.951C254.725 164.243 272.527 148.628 293.374 148.628Z" fill="white"/>
        <path d="M334.052 209.863L335.379 210L335.455 209.265H334.113L334.052 209.863Z" fill="white"/>
        <path d="M334.251 207.928H335.592L336.143 202.577L336.361 200.458L335.037 200.32L334.251 207.928Z" fill="white"/>
        <path d="M316.229 154.65C316.004 154.506 315.775 154.364 315.548 154.223C315.333 154.091 315.12 153.959 314.903 153.83C314.659 153.686 314.411 153.545 314.163 153.406C313.956 153.289 313.752 153.171 313.544 153.058C313.261 152.905 312.973 152.757 312.687 152.61C312.509 152.517 312.334 152.423 312.153 152.335C311.683 152.102 311.21 151.878 310.732 151.662C308.117 151.154 305.418 150.894 302.651 150.894C280.892 150.894 262.655 167.388 260.427 189.085L259.192 201.014L259.145 201.482L258.483 207.93H263.653L335.412 196.722L335.599 194.897C335.654 194.361 335.696 193.829 335.731 193.296C335.741 193.139 335.748 192.983 335.757 192.824C335.779 192.43 335.795 192.035 335.807 191.642C335.812 191.489 335.815 191.335 335.819 191.182C335.828 190.726 335.828 190.274 335.821 189.82C335.819 189.742 335.821 189.664 335.819 189.586C335.819 189.56 335.819 189.532 335.819 189.506C335.795 188.412 335.727 187.329 335.621 186.255C335.611 186.142 335.595 186.029 335.583 185.916C335.536 185.483 335.486 185.052 335.427 184.621C335.408 184.477 335.384 184.334 335.363 184.19C335.304 183.793 335.242 183.397 335.171 183.004C335.143 182.848 335.112 182.691 335.082 182.536C335.009 182.158 334.935 181.78 334.853 181.405C334.819 181.243 334.782 181.083 334.744 180.923C334.659 180.553 334.569 180.183 334.474 179.816C334.434 179.659 334.392 179.503 334.35 179.346C334.25 178.974 334.142 178.604 334.031 178.237C333.986 178.09 333.945 177.944 333.898 177.798C333.778 177.413 333.652 177.033 333.52 176.654C333.477 176.528 333.435 176.402 333.39 176.276C333.241 175.856 333.083 175.438 332.922 175.025C332.891 174.945 332.861 174.863 332.83 174.783C332.431 173.782 331.996 172.8 331.526 171.836C331.485 171.751 331.441 171.67 331.4 171.586C331.209 171.202 331.015 170.821 330.812 170.444C330.73 170.291 330.644 170.14 330.56 169.989C330.392 169.684 330.224 169.382 330.049 169.081C329.945 168.904 329.839 168.73 329.733 168.554C329.571 168.285 329.408 168.017 329.239 167.751C329.121 167.563 329 167.377 328.879 167.193C328.716 166.945 328.551 166.698 328.383 166.453C328.251 166.261 328.119 166.07 327.984 165.881C327.819 165.648 327.65 165.416 327.48 165.187C327.337 164.994 327.194 164.801 327.048 164.612C326.878 164.391 326.706 164.174 326.533 163.956C326.38 163.765 326.228 163.572 326.072 163.383C325.897 163.172 325.718 162.964 325.54 162.757C325.378 162.569 325.219 162.379 325.054 162.195C324.87 161.99 324.683 161.79 324.496 161.587C324.329 161.406 324.165 161.223 323.996 161.046C323.703 160.74 323.402 160.439 323.1 160.142C322.864 159.909 322.622 159.681 322.381 159.454C322.193 159.278 322.008 159.099 321.817 158.927C321.62 158.748 321.415 158.572 321.214 158.397C321.025 158.232 320.836 158.065 320.643 157.903C320.437 157.729 320.229 157.562 320.019 157.392C319.825 157.234 319.629 157.076 319.432 156.921C319.22 156.756 319.005 156.594 318.79 156.432C318.587 156.279 318.384 156.13 318.18 155.98C317.965 155.826 317.748 155.673 317.531 155.52C317.318 155.372 317.105 155.226 316.888 155.082C316.664 154.936 316.448 154.791 316.229 154.65Z" fill="url(#paint45_linear_934_3852)"/>
        <path d="M263.651 207.928H334.252L335.038 200.321L335.409 196.72L263.651 207.928Z" fill="url(#paint46_linear_934_3852)"/>
        <path d="M334.251 207.928H263.649H258.479H255.238V208.597V209.263V209.265H334.112H335.454H360.895V207.928H340.284H335.591H334.251Z" fill="#212429"/>
        <path d="M365.083 100.396C363.308 100.757 361.586 101.295 359.935 101.983C357.311 98.0298 352.858 95.3909 347.765 95.304C347.18 95.2935 346.603 95.3213 346.034 95.377C346.189 94.8155 346.282 94.2279 346.293 93.6194C346.352 90.1913 343.975 87.2898 340.764 86.5736C340.59 85.986 340.422 85.388 340.261 84.7656C338.217 76.8801 333.257 69.5996 324.893 67.8716C315.201 65.8655 305.714 71.7605 303.074 81.1671C302.952 81.5965 302.841 82.0311 302.749 82.4744C302.749 82.4744 302.689 82.7838 302.573 83.3627C302.512 83.6513 302.434 84.0112 302.351 84.4266C302.319 84.5675 302.241 85.0473 302.177 85.4575C302.106 85.8817 302.042 86.332 301.964 86.8135C301.9 87.2864 301.82 87.7957 301.747 88.3242C301.697 88.7831 301.64 89.2699 301.581 89.7723C301.472 90.7754 301.362 91.8636 301.307 93.044C301.134 95.3839 301.144 98.0802 301.291 101.02C301.503 103.967 301.87 107.179 302.555 110.546C303.245 113.914 304.273 117.42 305.647 120.932C305.808 121.344 305.992 121.754 306.161 122.166C306.283 122.456 306.401 122.748 306.526 123.039C306.671 123.376 306.82 123.712 306.973 124.049C307.387 124.961 307.829 125.871 308.292 126.776C309.083 128.32 309.934 129.852 310.867 131.355C312.947 134.745 315.369 138.021 318.121 141.047C320.493 143.653 323.109 146.068 325.907 148.267C329.6 151.17 333.615 153.685 337.882 155.667C338.82 156.093 339.774 156.5 340.72 156.891C341.211 157.075 341.688 157.261 342.171 157.44L342.894 157.708L343.252 157.842L343.3 157.858L343.897 158.037L343.945 158.059L344.044 158.089L344.444 158.237L344.647 158.304L345.202 158.47C345.616 158.576 346.031 158.689 346.445 158.802L347.064 158.955L347.556 159.069C348.808 159.367 350.032 159.593 351.235 159.777C356.045 160.476 360.385 160.464 364.41 159.989C368.448 159.549 372.176 158.671 375.82 157.296C379.423 155.907 383.039 154.044 386.547 151.217C386.954 150.899 387.441 150.468 387.858 150.092C388.294 149.703 388.683 149.35 389.135 148.889C389.567 148.451 389.976 148.018 390.365 147.594C390.767 147.147 391.193 146.631 391.568 146.163C392.296 145.277 393.085 144.129 393.702 143.149C394.007 142.686 394.356 142.076 394.64 141.558C394.931 141.018 395.195 140.506 395.436 140.015C396.453 137.852 397.057 136.03 397.426 134.606C397.782 133.24 397.906 132.52 397.906 132.52C400.034 120.508 394.123 108.94 384.048 103.339C381.436 101.886 378.546 100.827 375.439 100.274C371.898 99.6465 368.401 99.7213 365.083 100.396Z" fill="#212429"/>
        <path d="M201.121 23.0137H199.788V28.2933H201.121V23.0137Z" fill="#C9CAD1"/>
        <path d="M201.121 54.6879H199.788V59.9675H201.121V54.6879Z" fill="#C9CAD1"/>
        <path d="M191.81 25.1443L190.656 25.8127L193.288 30.3849L194.443 29.7164L191.81 25.1443Z" fill="#C9CAD1"/>
        <path d="M207.617 52.5747L206.462 53.2433L209.095 57.8154L210.25 57.1468L207.617 52.5747Z" fill="#C9CAD1"/>
        <path d="M184.832 31.6798L184.164 32.8368L188.727 35.4717L189.394 34.3147L184.832 31.6798Z" fill="#C9CAD1"/>
        <path d="M212.179 47.5088L211.512 48.6665L216.07 51.3054L216.737 50.1477L212.179 47.5088Z" fill="#C9CAD1"/>
        <path d="M187.293 40.8203H182.028V42.1572H187.293V40.8203Z" fill="#C9CAD1"/>
        <path d="M218.883 40.8203H213.617V42.1572H218.883V40.8203Z" fill="#C9CAD1"/>
        <path d="M188.722 47.5203L184.159 50.1552L184.827 51.3121L189.39 48.6772L188.722 47.5203Z" fill="#C9CAD1"/>
        <path d="M216.076 31.6782L211.517 34.3171L212.184 35.4749L216.742 32.8359L216.076 31.6782Z" fill="#C9CAD1"/>
        <path d="M193.3 52.5809L190.662 57.1508L191.818 57.8178L194.455 53.248L193.3 52.5809Z" fill="#C9CAD1"/>
        <path d="M209.088 25.1468L206.456 29.7195L207.61 30.3878L210.242 25.8151L209.088 25.1468Z" fill="#C9CAD1"/>
        <path d="M304.148 28.2023H302.815C302.815 20.8436 296.844 14.8564 289.505 14.8564V13.5196C296.844 13.5196 302.815 7.53246 302.815 0.173706H304.148C304.148 7.53246 310.119 13.5196 317.458 13.5196V14.8564C310.119 14.8564 304.148 20.8436 304.148 28.2023ZM293.877 14.1872C298.439 15.6214 302.049 19.2408 303.481 23.8163C304.913 19.2408 308.521 15.6214 313.084 14.1872C308.521 12.753 304.913 9.13355 303.481 4.55801C302.05 9.13355 298.441 12.753 293.877 14.1872Z" fill="#495057"/>
        <path d="M366.547 75.3069H365.214C365.214 71.0895 361.793 67.6596 357.587 67.6596V66.3227C361.793 66.3227 365.214 62.8928 365.214 58.6754H366.547C366.547 62.8928 369.968 66.3227 374.174 66.3227V67.6596C369.968 67.6596 366.547 71.0895 366.547 75.3069ZM360.978 66.9903C363.196 67.903 364.969 69.6814 365.88 71.9048C366.79 69.6814 368.564 67.903 370.781 66.9903C368.564 66.0776 366.79 64.2992 365.88 62.0758C364.969 64.2992 363.196 66.0776 360.978 66.9903Z" fill="#C9CAD1"/>
        <path d="M277.053 65.2221C273.237 65.2221 270.13 62.1086 270.13 58.2806C270.13 54.4526 273.235 51.3391 277.053 51.3391C280.869 51.3391 283.975 54.4526 283.975 58.2806C283.974 62.1086 280.869 65.2221 277.053 65.2221ZM277.053 52.676C273.972 52.676 271.465 55.1897 271.465 58.2789C271.465 61.3681 273.972 63.8818 277.053 63.8818C280.133 63.8818 282.64 61.3681 282.64 58.2789C282.64 55.1897 280.133 52.676 277.053 52.676Z" fill="#495057"/>
        <path d="M230.527 117.754C227.935 117.754 225.827 115.64 225.827 113.041C225.827 110.442 227.935 108.328 230.527 108.328C233.119 108.328 235.226 110.442 235.226 113.041C235.226 115.64 233.119 117.754 230.527 117.754ZM230.527 109.667C228.672 109.667 227.162 111.181 227.162 113.041C227.162 114.901 228.672 116.415 230.527 116.415C232.382 116.415 233.893 114.901 233.893 113.041C233.893 111.181 232.384 109.667 230.527 109.667Z" fill="#495057"/>
    </g>
    <defs>
        <linearGradient id="paint0_linear_934_3852" x1="163.587" y1="173.857" x2="98.4269" y2="173.857" gradientUnits="userSpaceOnUse">
            <stop stop-color="#16D1C6"/>
            <stop offset="0.925" stop-color="#0E5D89"/>
        </linearGradient>
        <linearGradient id="paint1_linear_934_3852" x1="135.966" y1="173.857" x2="99.0544" y2="173.857" gradientUnits="userSpaceOnUse">
            <stop stop-color="#15928A"/>
            <stop offset="0.925" stop-color="#0D4666"/>
        </linearGradient>
        <linearGradient id="paint2_linear_934_3852" x1="194.9" y1="74.2135" x2="40.5002" y2="74.2135" gradientUnits="userSpaceOnUse">
            <stop stop-color="#16D1C6"/>
            <stop offset="0.925" stop-color="#0E5D89"/>
        </linearGradient>
        <linearGradient id="paint3_linear_934_3852" x1="189.083" y1="157.515" x2="102.343" y2="157.515" gradientUnits="userSpaceOnUse">
            <stop stop-color="#15928A"/>
            <stop offset="0.925" stop-color="#0D4666"/>
        </linearGradient>
        <linearGradient id="paint4_linear_934_3852" x1="143.905" y1="111.713" x2="112.819" y2="111.713" gradientUnits="userSpaceOnUse">
            <stop stop-color="#15928A"/>
            <stop offset="0.925" stop-color="#0D4666"/>
        </linearGradient>
        <linearGradient id="paint5_linear_934_3852" x1="131.564" y1="93.9603" x2="128.622" y2="93.9603" gradientUnits="userSpaceOnUse">
            <stop stop-color="#15928A"/>
            <stop offset="0.925" stop-color="#0D4666"/>
        </linearGradient>
        <linearGradient id="paint6_linear_934_3852" x1="122.878" y1="93.9603" x2="91.4955" y2="93.9603" gradientUnits="userSpaceOnUse">
            <stop stop-color="#15928A"/>
            <stop offset="0.925" stop-color="#0D4666"/>
        </linearGradient>
        <linearGradient id="paint7_linear_934_3852" x1="83.9587" y1="123.576" x2="127.887" y2="123.576" gradientUnits="userSpaceOnUse">
            <stop stop-color="#FE0555"/>
            <stop offset="1" stop-color="#FF8700"/>
        </linearGradient>
        <linearGradient id="paint8_linear_934_3852" x1="80.5001" y1="116.646" x2="98.1566" y2="116.646" gradientUnits="userSpaceOnUse">
            <stop stop-color="#FE0555"/>
            <stop offset="1" stop-color="#FF8700"/>
        </linearGradient>
        <linearGradient id="paint9_linear_934_3852" x1="92.927" y1="148.004" x2="107.52" y2="148.004" gradientUnits="userSpaceOnUse">
            <stop stop-color="#FE0555"/>
            <stop offset="1" stop-color="#FF8700"/>
        </linearGradient>
        <linearGradient id="paint10_linear_934_3852" x1="105.967" y1="83.4249" x2="162.212" y2="83.4249" gradientUnits="userSpaceOnUse">
            <stop stop-color="#FE0555"/>
            <stop offset="1" stop-color="#FF8700"/>
        </linearGradient>
        <linearGradient id="paint11_linear_934_3852" x1="166.034" y1="72.7028" x2="38.9919" y2="72.7028" gradientUnits="userSpaceOnUse">
            <stop stop-color="#15928A"/>
            <stop offset="0.925" stop-color="#0D4666"/>
        </linearGradient>
        <linearGradient id="paint12_linear_934_3852" x1="394.783" y1="201.908" x2="0" y2="201.908" gradientUnits="userSpaceOnUse">
            <stop stop-color="#15928A"/>
            <stop offset="0.925" stop-color="#0D4666"/>
        </linearGradient>
        <linearGradient id="paint13_linear_934_3852" x1="365.083" y1="71.8284" x2="400.189" y2="71.8284" gradientUnits="userSpaceOnUse">
            <stop stop-color="#FE0555"/>
            <stop offset="1" stop-color="#FF8700"/>
        </linearGradient>
        <linearGradient id="paint14_linear_934_3852" x1="224.082" y1="23.036" x2="325.9" y2="23.036" gradientUnits="userSpaceOnUse">
            <stop stop-color="#FE0555"/>
            <stop offset="1" stop-color="#FF8700"/>
        </linearGradient>
        <linearGradient id="paint15_linear_934_3852" x1="327.039" y1="164.606" x2="327.471" y2="164.606" gradientUnits="userSpaceOnUse">
            <stop stop-color="#FE0555"/>
            <stop offset="1" stop-color="#FF8700"/>
        </linearGradient>
        <linearGradient id="paint16_linear_934_3852" x1="334.344" y1="179.346" x2="334.468" y2="179.346" gradientUnits="userSpaceOnUse">
            <stop stop-color="#FE0555"/>
            <stop offset="1" stop-color="#FF8700"/>
        </linearGradient>
        <linearGradient id="paint17_linear_934_3852" x1="334.738" y1="180.923" x2="334.848" y2="180.923" gradientUnits="userSpaceOnUse">
            <stop stop-color="#FE0555"/>
            <stop offset="1" stop-color="#FF8700"/>
        </linearGradient>
        <linearGradient id="paint18_linear_934_3852" x1="333.893" y1="177.798" x2="334.027" y2="177.798" gradientUnits="userSpaceOnUse">
            <stop stop-color="#FE0555"/>
            <stop offset="1" stop-color="#FF8700"/>
        </linearGradient>
        <linearGradient id="paint19_linear_934_3852" x1="331.394" y1="171.584" x2="331.521" y2="171.584" gradientUnits="userSpaceOnUse">
            <stop stop-color="#FE0555"/>
            <stop offset="1" stop-color="#FF8700"/>
        </linearGradient>
        <linearGradient id="paint20_linear_934_3852" x1="335.079" y1="182.536" x2="335.168" y2="182.536" gradientUnits="userSpaceOnUse">
            <stop stop-color="#FE0555"/>
            <stop offset="1" stop-color="#FF8700"/>
        </linearGradient>
        <linearGradient id="paint21_linear_934_3852" x1="330.556" y1="169.987" x2="330.808" y2="169.987" gradientUnits="userSpaceOnUse">
            <stop stop-color="#FE0555"/>
            <stop offset="1" stop-color="#FF8700"/>
        </linearGradient>
        <linearGradient id="paint22_linear_934_3852" x1="333.386" y1="176.276" x2="333.517" y2="176.276" gradientUnits="userSpaceOnUse">
            <stop stop-color="#FE0555"/>
            <stop offset="1" stop-color="#FF8700"/>
        </linearGradient>
        <linearGradient id="paint23_linear_934_3852" x1="332.824" y1="174.781" x2="332.916" y2="174.781" gradientUnits="userSpaceOnUse">
            <stop stop-color="#FE0555"/>
            <stop offset="1" stop-color="#FF8700"/>
        </linearGradient>
        <linearGradient id="paint24_linear_934_3852" x1="335.803" y1="191.182" x2="335.815" y2="191.182" gradientUnits="userSpaceOnUse">
            <stop stop-color="#FE0555"/>
            <stop offset="1" stop-color="#FF8700"/>
        </linearGradient>
        <linearGradient id="paint25_linear_934_3852" x1="335.357" y1="184.19" x2="335.421" y2="184.19" gradientUnits="userSpaceOnUse">
            <stop stop-color="#FE0555"/>
            <stop offset="1" stop-color="#FF8700"/>
        </linearGradient>
        <linearGradient id="paint26_linear_934_3852" x1="322.372" y1="159.448" x2="323.091" y2="159.448" gradientUnits="userSpaceOnUse">
            <stop stop-color="#FE0555"/>
            <stop offset="1" stop-color="#FF8700"/>
        </linearGradient>
        <linearGradient id="paint27_linear_934_3852" x1="335.727" y1="192.824" x2="335.753" y2="192.824" gradientUnits="userSpaceOnUse">
            <stop stop-color="#FE0555"/>
            <stop offset="1" stop-color="#FF8700"/>
        </linearGradient>
        <linearGradient id="paint28_linear_934_3852" x1="335.815" y1="189.586" x2="335.817" y2="189.586" gradientUnits="userSpaceOnUse">
            <stop stop-color="#FE0555"/>
            <stop offset="1" stop-color="#FF8700"/>
        </linearGradient>
        <linearGradient id="paint29_linear_934_3852" x1="335.577" y1="185.916" x2="335.616" y2="185.916" gradientUnits="userSpaceOnUse">
            <stop stop-color="#FE0555"/>
            <stop offset="1" stop-color="#FF8700"/>
        </linearGradient>
        <linearGradient id="paint30_linear_934_3852" x1="327.975" y1="165.877" x2="328.374" y2="165.877" gradientUnits="userSpaceOnUse">
            <stop stop-color="#FE0555"/>
            <stop offset="1" stop-color="#FF8700"/>
        </linearGradient>
        <linearGradient id="paint31_linear_934_3852" x1="320.01" y1="157.388" x2="320.634" y2="157.388" gradientUnits="userSpaceOnUse">
            <stop stop-color="#FE0555"/>
            <stop offset="1" stop-color="#FF8700"/>
        </linearGradient>
        <linearGradient id="paint32_linear_934_3852" x1="321.205" y1="158.393" x2="321.808" y2="158.393" gradientUnits="userSpaceOnUse">
            <stop stop-color="#FE0555"/>
            <stop offset="1" stop-color="#FF8700"/>
        </linearGradient>
        <linearGradient id="paint33_linear_934_3852" x1="323.988" y1="161.042" x2="324.487" y2="161.042" gradientUnits="userSpaceOnUse">
            <stop stop-color="#FE0555"/>
            <stop offset="1" stop-color="#FF8700"/>
        </linearGradient>
        <linearGradient id="paint34_linear_934_3852" x1="317.523" y1="155.518" x2="318.171" y2="155.518" gradientUnits="userSpaceOnUse">
            <stop stop-color="#FE0555"/>
            <stop offset="1" stop-color="#FF8700"/>
        </linearGradient>
        <linearGradient id="paint35_linear_934_3852" x1="329.729" y1="168.552" x2="330.045" y2="168.552" gradientUnits="userSpaceOnUse">
            <stop stop-color="#FE0555"/>
            <stop offset="1" stop-color="#FF8700"/>
        </linearGradient>
        <linearGradient id="paint36_linear_934_3852" x1="325.046" y1="162.19" x2="325.531" y2="162.19" gradientUnits="userSpaceOnUse">
            <stop stop-color="#FE0555"/>
            <stop offset="1" stop-color="#FF8700"/>
        </linearGradient>
        <linearGradient id="paint37_linear_934_3852" x1="318.781" y1="156.429" x2="319.423" y2="156.429" gradientUnits="userSpaceOnUse">
            <stop stop-color="#FE0555"/>
            <stop offset="1" stop-color="#FF8700"/>
        </linearGradient>
        <linearGradient id="paint38_linear_934_3852" x1="328.872" y1="167.19" x2="329.234" y2="167.19" gradientUnits="userSpaceOnUse">
            <stop stop-color="#FE0555"/>
            <stop offset="1" stop-color="#FF8700"/>
        </linearGradient>
        <linearGradient id="paint39_linear_934_3852" x1="326.063" y1="163.379" x2="326.524" y2="163.379" gradientUnits="userSpaceOnUse">
            <stop stop-color="#FE0555"/>
            <stop offset="1" stop-color="#FF8700"/>
        </linearGradient>
        <linearGradient id="paint40_linear_934_3852" x1="316.228" y1="154.65" x2="316.879" y2="154.65" gradientUnits="userSpaceOnUse">
            <stop stop-color="#FE0555"/>
            <stop offset="1" stop-color="#FF8700"/>
        </linearGradient>
        <linearGradient id="paint41_linear_934_3852" x1="314.901" y1="153.83" x2="315.546" y2="153.83" gradientUnits="userSpaceOnUse">
            <stop stop-color="#FE0555"/>
            <stop offset="1" stop-color="#FF8700"/>
        </linearGradient>
        <linearGradient id="paint42_linear_934_3852" x1="313.54" y1="153.058" x2="314.159" y2="153.058" gradientUnits="userSpaceOnUse">
            <stop stop-color="#FE0555"/>
            <stop offset="1" stop-color="#FF8700"/>
        </linearGradient>
        <linearGradient id="paint43_linear_934_3852" x1="312.149" y1="152.335" x2="312.683" y2="152.335" gradientUnits="userSpaceOnUse">
            <stop stop-color="#FE0555"/>
            <stop offset="1" stop-color="#FF8700"/>
        </linearGradient>
        <linearGradient id="paint44_linear_934_3852" x1="310.728" y1="148.627" x2="248.765" y2="148.627" gradientUnits="userSpaceOnUse">
            <stop stop-color="#16D1C6"/>
            <stop offset="0.925" stop-color="#0E5D89"/>
        </linearGradient>
        <linearGradient id="paint45_linear_934_3852" x1="335.826" y1="150.894" x2="258.483" y2="150.894" gradientUnits="userSpaceOnUse">
            <stop stop-color="#16D1C6"/>
            <stop offset="0.925" stop-color="#0E5D89"/>
        </linearGradient>
        <linearGradient id="paint46_linear_934_3852" x1="335.409" y1="196.72" x2="263.651" y2="196.72" gradientUnits="userSpaceOnUse">
            <stop stop-color="#15928A"/>
            <stop offset="0.925" stop-color="#0D4666"/>
        </linearGradient>
        <clipPath id="clip0_934_3852">
            <rect width="411" height="210" fill="white"/>
        </clipPath>
    </defs>
</svg>
