<svg width="32" height="32" viewBox="0 0 32 32" fill="none" xmlns="http://www.w3.org/2000/svg">
<path fill-rule="evenodd" clip-rule="evenodd" d="M0 16C0 7.16344 7.16344 0 16 0C24.8366 0 32 7.16344 32 16C32 24.8366 24.8366 32 16 32C7.16344 32 0 24.8366 0 16ZM13.072 15.5429V17.28H15.9551C15.8389 18.0255 15.0836 19.4659 13.072 19.4659C11.3363 19.4659 9.92016 18.0328 9.92016 16.2667C9.92016 14.5006 11.3363 13.0674 13.072 13.0674C14.0596 13.0674 14.7205 13.4873 15.0981 13.8492L16.478 12.5246C15.592 11.6994 14.4445 11.2 13.072 11.2C10.2615 11.2 7.9884 13.4655 7.9884 16.2667C7.9884 19.0678 10.2615 21.3333 13.072 21.3333C16.0059 21.3333 17.9522 19.2777 17.9522 16.3825C17.9522 16.0495 17.9159 15.7962 17.8723 15.5429H13.072ZM22.5128 15.5428H23.9653V16.9905H22.5128V18.4381H21.0604V16.9905H19.6079V15.5428H21.0604V14.0952H22.5128V15.5428Z" fill="#495057"/>
</svg>
