<svg width="32" height="32" viewBox="0 0 32 32" fill="none" xmlns="http://www.w3.org/2000/svg">
<path fill-rule="evenodd" clip-rule="evenodd" d="M0 16C0 7.16344 7.16344 0 16 0C24.8366 0 32 7.16344 32 16C32 24.8366 24.8366 32 16 32C7.16344 32 0 24.8366 0 16ZM13.072 15.5429V17.28H15.9551C15.839 18.0255 15.0837 19.4659 13.072 19.4659C11.3364 19.4659 9.92023 18.0328 9.92023 16.2667C9.92023 14.5006 11.3364 13.0674 13.072 13.0674C14.0597 13.0674 14.7206 13.4872 15.0982 13.8491L16.478 12.5246C15.592 11.6994 14.4446 11.2 13.072 11.2C10.2616 11.2 7.98848 13.4655 7.98848 16.2667C7.98848 19.0678 10.2616 21.3333 13.072 21.3333C16.006 21.3333 17.9523 19.2777 17.9523 16.3825C17.9523 16.0495 17.916 15.7962 17.8724 15.5429H13.072ZM22.5129 15.5428H23.9653V16.9904H22.5129V18.438H21.0605V16.9904H19.608V15.5428H21.0605V14.0952H22.5129V15.5428Z" fill="white"/>
</svg>
