<svg width="78" height="50" viewBox="0 0 78 50" fill="none" xmlns="http://www.w3.org/2000/svg">
<path d="M69.4268 23.6381C63.6877 39.4621 48.6561 50 31.8236 50L-7.62939e-06 50L-1.80173e-06 -3.00428e-06L78 7.62939e-06L69.4268 23.6381Z" fill="url(#paint0_linear_1377_27432)"/>
<path fill-rule="evenodd" clip-rule="evenodd" d="M26 18.4118C26 17.6321 26.6321 17 27.4118 17H44.5882C45.3679 17 46 17.6321 46 18.4118C46 19.1915 45.3679 19.8235 44.5882 19.8235H27.4118C26.6321 19.8235 26 19.1915 26 18.4118ZM26 25C26 24.2203 26.6321 23.5882 27.4118 23.5882H44.5882C45.3679 23.5882 46 24.2203 46 25C46 25.7797 45.3679 26.4118 44.5882 26.4118H27.4118C26.6321 26.4118 26 25.7797 26 25ZM27.4118 30.1765C26.6321 30.1765 26 30.8085 26 31.5882C26 32.3679 26.6321 33 27.4118 33H44.5882C45.3679 33 46 32.3679 46 31.5882C46 30.8085 45.3679 30.1765 44.5882 30.1765H27.4118Z" fill="white"/>
<defs>
<linearGradient id="paint0_linear_1377_27432" x1="-12.5239" y1="54.5" x2="81.1446" y2="43.3008" gradientUnits="userSpaceOnUse">
<stop offset="0.275069" stop-color="#FE0555"/>
<stop offset="1" stop-color="#FF8700"/>
</linearGradient>
</defs>
</svg>
