<svg width="155" height="36" viewBox="0 0 155 36" fill="none" xmlns="http://www.w3.org/2000/svg">
<path d="M15.1757 5.97965C13.818 5.55414 12.6026 5.34142 11.5295 5.34146C10.6455 5.34146 9.93522 5.49902 9.39876 5.81413C9.1452 5.95176 8.93537 6.15759 8.79308 6.40827C8.6508 6.65895 8.58176 6.94442 8.59381 7.2323C8.59381 7.92572 8.95681 8.46142 9.68282 8.8394C10.4086 9.21764 11.5924 9.6431 13.2342 10.1158C14.7497 10.5498 16.2364 11.0787 17.6853 11.6993C18.8618 12.2262 19.8994 13.0192 20.7158 14.0155C21.5682 15.0399 21.9943 16.3872 21.9943 18.0572C21.9943 20.5786 21.0236 22.5403 19.0822 23.9422C17.1408 25.3449 14.6549 26.0461 11.6243 26.0457C9.58392 26.0524 7.55495 25.7414 5.61055 25.124C3.79016 24.5649 2.08864 23.6755 0.591309 22.5005L2.9589 17.5843C4.2631 18.5989 5.72734 19.3897 7.29162 19.9243C8.74213 20.4503 10.2707 20.7299 11.8137 20.7516C12.7918 20.7516 13.573 20.5862 14.1576 20.2552C14.4303 20.1158 14.6575 19.9017 14.8127 19.638C14.9679 19.3742 15.0445 19.0718 15.0337 18.7662C15.0337 18.0417 14.6628 17.4745 13.9209 17.0646C13.1787 16.6554 11.987 16.2142 10.3457 15.7409C8.87073 15.3292 7.42356 14.8239 6.01303 14.2282C4.85279 13.7184 3.83632 12.9309 3.05359 11.9355C2.23243 10.9119 1.82206 9.58052 1.8225 7.94139C1.8225 5.42044 2.76952 3.46657 4.66357 2.07977C6.55769 0.693422 8.95683 0.000164452 11.861 0C13.6228 0.00367581 15.3756 0.250226 17.0698 0.732663C18.7445 1.19417 20.3405 1.90319 21.805 2.83617L19.2952 7.79938C17.9904 7.04908 16.6095 6.43909 15.1757 5.97965ZM65.8324 2.67065C67.4897 4.41971 68.3184 6.79112 68.3184 9.78491V25.7622H61.0735V11.912C61.0735 10.2737 60.6315 8.99746 59.7476 8.08317C58.8636 7.16949 57.6641 6.71253 56.149 6.71231C54.4125 6.74397 53.0392 7.35848 52.0294 8.55584C51.0187 9.75376 50.5136 11.2979 50.5141 13.1882V25.7622H43.2693V11.912C43.2693 10.3049 42.8352 9.03647 41.9671 8.10674C41.0984 7.17757 39.9067 6.71275 38.3921 6.71228C36.6556 6.74395 35.2745 7.35845 34.2488 8.55581C33.2226 9.75373 32.7096 11.2979 32.7098 13.1882V25.7621H25.4176V0.330839H32.7098V4.72702C34.4774 1.67058 37.3501 0.110623 41.3278 0.0471445C43.4742 0.0471445 45.2894 0.559272 46.7733 1.58353C48.2567 2.60784 49.3142 4.04959 49.9458 5.90877C50.7665 3.98692 51.9582 2.53726 53.521 1.55979C55.0835 0.583456 56.9539 0.0792417 59.1321 0.0471445C61.9413 0.0471445 64.1748 0.921647 65.8324 2.67065ZM87.9356 25.7622V22.7842C87.0598 23.8732 85.9186 24.7195 84.6213 25.2422C83.2635 25.8095 81.7008 26.0931 79.9332 26.093C77.2497 26.093 75.1189 25.3604 73.5407 23.895C71.9619 22.4296 71.1727 20.5151 71.1731 18.1516C71.1731 15.7571 72.0176 13.89 73.7066 12.5502C75.3949 11.2112 77.7862 10.5257 80.8804 10.4938H87.8884V10.0212C87.8884 8.66663 87.4386 7.6188 86.5391 6.87767C85.6394 6.13764 84.3214 5.76735 82.5851 5.76681C80.2175 5.76681 77.692 6.50739 75.0087 7.98854L72.7358 2.97796C74.5505 2.04923 76.4541 1.30492 78.4179 0.756242C80.32 0.266822 82.278 0.0284252 84.2421 0.0471445C87.6515 0.0471445 90.2953 0.850754 92.1736 2.45797C94.0514 4.06524 95.0063 6.30268 95.0383 9.17028L95.0859 25.7622H87.9356ZM85.8995 19.8061C87.004 19.0815 87.667 18.1677 87.8883 17.0645V14.7955H82.1586C80.7381 14.7955 78.1377 14.7553 78.1377 14.7553C78.1377 14.7553 77.9919 16.6708 77.9919 17.679C77.9919 18.6561 78.347 19.4361 79.0572 20.0189C79.7675 20.6024 80.7382 20.8938 81.9693 20.8934C83.4844 20.8934 84.7945 20.5309 85.8995 19.8061ZM121.782 1.7253C123.605 2.82092 125.07 4.42224 125.997 6.33411C126.991 8.31942 127.488 10.6041 127.488 13.1882C127.488 15.7408 126.999 17.9862 126.021 19.9243C125.103 21.7957 123.665 23.3631 121.877 24.4386C120.093 25.5102 118.018 26.0459 115.65 26.0457C113.882 26.0457 112.312 25.707 110.939 25.0295C109.555 24.343 108.36 23.3287 107.459 22.0752V34.9327H100.166V0.330839H107.459V4.06524C108.335 2.80703 109.516 1.79069 110.892 1.11091C112.331 0.418587 113.911 0.0705668 115.508 0.0944632C117.876 0.0944632 119.967 0.638074 121.782 1.7253ZM120.865 19.4435C122.303 17.8344 123.022 15.7493 123.022 13.1883C123.022 12.5941 123.01 11.1216 123.01 11.1216L107.53 10.9957C107.53 10.9957 107.459 12.4004 107.459 13.1883C107.459 15.7876 108.187 17.8825 109.645 19.4728C111.102 21.0639 112.977 21.8591 115.269 21.8584C117.562 21.8584 119.427 21.0534 120.865 19.4435V19.4435ZM134.496 35.2635C133.24 35.2799 131.991 35.08 130.803 34.6726L127.239 33.3926L130.661 27.5583C131.766 28.472 132.871 28.929 133.976 28.9292C135.522 28.9292 136.643 28.1729 137.338 26.6603L137.637 26.062C137.766 25.805 137.837 25.5231 137.846 25.2358C137.855 24.9485 137.802 24.6627 137.69 24.398L127.489 0.330839H135.018L141.694 17.8208L147.708 0.330839H155L143.825 28.5983C142.057 33.0418 138.947 35.2635 134.496 35.2635L134.496 35.2635Z" fill="url(#paint0_linear_1377_26643)"/>
<path d="M0.708041 36.0002H0V30.3608H0.708041V36.0002Z" fill="#FF3000"/>
<path d="M5.69406 32.4888V34.8724H3.59259V34.3234H4.98602V32.5038C4.98602 31.3008 4.65461 30.9098 3.75831 30.9098H3.23856L2.54563 34.8724H1.83008L2.54563 30.9098H1.86017V30.3608H3.87882C5.16679 30.3608 5.69406 30.9173 5.69406 32.4888Z" fill="#FF3000"/>
<path d="M8.87973 30.9098H8.0587C7.7951 31.1429 7.57665 31.5339 7.78757 32.5866L8.24707 34.8724H7.55407L7.11722 32.6919C6.89877 31.6166 7.14731 31.1429 7.46365 30.9248L7.45613 30.9098H6.40918V30.3608H8.87973V30.9098Z" fill="#FF3000"/>
<path d="M13.3382 34.8724H12.6302V30.9098H9.64746V30.3608H13.3382V34.8724ZM10.3856 32.2332V34.8724H9.67762V32.2332H10.3856Z" fill="#FF3000"/>
<path d="M20.7114 32.0376V34.8724H16.998V30.3608H19.2803C20.3198 30.3608 20.7114 30.782 20.7114 32.0376ZM20.0185 32.1504C20.0185 31.188 19.7699 30.9098 19.0921 30.9098H17.691V34.3234H20.0185L20.0185 32.1504Z" fill="#FF3000"/>
<path d="M25.2301 30.3608V32.5716C25.2301 33.8272 24.733 34.4062 23.4827 34.7446L21.6976 35.2409L21.562 34.7071L22.6165 34.4062L21.7729 30.3609H22.4809L23.2642 34.2258L23.3621 34.1957C24.2585 33.9475 24.5221 33.5641 24.5221 32.5566V30.3608H25.2301Z" fill="#FF3000"/>
<path d="M29.4922 36.0002H28.7842V30.3608H29.4922V36.0002Z" fill="#FF3000"/>
<path d="M33.763 32.376V32.8572C33.763 34.3009 33.296 34.8724 31.9703 34.8724H30.6221V34.3234H31.8122C32.7688 34.3234 33.055 33.8724 33.055 32.8197V32.4137C33.055 31.361 32.7688 30.9098 31.8122 30.9098H30.6221V30.3608H31.9703C33.296 30.3608 33.763 30.9323 33.763 32.376Z" fill="#FF3000"/>
<path d="M38.0033 30.9098H37.4309V34.8724H36.7229V30.9098H34.4707V30.3608H38.0033V30.9098Z" fill="#FF3000"/>
<path d="M42.2804 30.3608V32.5716C42.2804 33.8272 41.7833 34.4062 40.5329 34.7446L38.7479 35.2409L38.6123 34.7071L39.6668 34.4062L38.8232 30.3609H39.5312L40.3146 34.2258L40.4124 34.1957C41.3088 33.9475 41.5724 33.5641 41.5724 32.5566V30.3608H42.2804Z" fill="#FF3000"/>
<path d="M47.4924 32.2857V34.8724H46.7844V32.346C46.7844 31.2407 46.4228 30.9098 45.647 30.9098H44.7205V34.8724H43.1162V34.3234H44.0426V30.9098H43.3723V30.3608H45.7976C46.9576 30.3608 47.4924 30.8346 47.4924 32.2857Z" fill="#FF3000"/>
<path d="M52.2898 32.4888V34.8724H50.1883V34.3234H51.5817V32.5038C51.5817 31.3008 51.2503 30.9098 50.354 30.9098H49.8343L49.1414 34.8724H48.4258L49.1414 30.9098H48.4558V30.3608H50.4745C51.7625 30.3608 52.2898 30.9173 52.2898 32.4888Z" fill="#FF3000"/>
<path d="M58.1265 32.5866C58.1265 34.3612 57.426 34.8724 55.9347 34.8724H53.8332L53.3662 30.3608H54.0516L54.4584 34.3234H55.8142C56.9515 34.3234 57.4486 33.9852 57.4486 32.5189V30.3608H58.1265V32.5866ZM55.4903 30.3608H56.1531V33.3385H55.4903V30.3608Z" fill="#FF3000"/>
<path d="M65.4316 32.0376V34.8724H61.7183V30.3608H64.0005C65.0399 30.3608 65.4316 30.782 65.4316 32.0376ZM64.7386 32.1504C64.7386 31.188 64.4901 30.9098 63.8122 30.9098H62.4112V34.3234H64.7386V32.1504Z" fill="#FF3000"/>
<path d="M69.5965 32.376V32.8572C69.5965 34.3009 69.1295 34.8724 67.8038 34.8724H66.4556V34.3234H67.6457C68.6022 34.3234 68.8885 33.8724 68.8885 32.8197V32.4137C68.8885 31.361 68.6023 30.9098 67.6457 30.9098H66.4556V30.3608H67.8038C69.1295 30.3608 69.5965 30.9323 69.5965 32.376Z" fill="#FF3000"/>
<path d="M74.5821 32.2857V34.8724H73.8816V32.2934C73.8816 31.1804 73.5803 30.9098 72.7592 30.9098H71.5391V34.8724H70.8311V30.3608H72.9551C74.1151 30.3608 74.5821 30.782 74.5821 32.2857Z" fill="#FF3000"/>
<path d="M81.9023 32.2857V34.8724H81.2018V32.2934C81.2018 31.1804 80.9006 30.9098 80.0796 30.9098H78.8594V34.8724H78.1514V30.3608H80.2755C81.4353 30.3608 81.9023 30.782 81.9023 32.2857Z" fill="#FF3000"/>
<path d="M83.2427 34.8724V30.3608H83.9507V34.8724H83.2427Z" fill="#FF3000"/>
<path d="M86.7149 34.8724H85.6002L85.0879 30.3608H85.7884L86.2329 34.3234H86.7149C87.9577 34.3234 88.3645 33.8122 88.3645 32.391V30.9098H87.0389V30.3608H89.065V32.391C89.065 34.2183 88.3494 34.8724 86.7149 34.8724Z" fill="#FF3000"/>
<path d="M90.292 32.9175V30.3608H91V32.9175H90.292Z" fill="#FF3000"/>
<path d="M95.662 34.3234V34.8724H91.8657V34.3234H94.3439V30.9098H91.8657V30.3608H95.0519V34.3234H95.662Z" fill="#FF3000"/>
<defs>
<linearGradient id="paint0_linear_1377_26643" x1="0.591309" y1="17.6317" x2="155" y2="17.6317" gradientUnits="userSpaceOnUse">
<stop stop-color="#FF005C"/>
<stop offset="0.5441" stop-color="#FF4E00"/>
<stop offset="1" stop-color="#FF9D00"/>
</linearGradient>
</defs>
</svg>
