<svg width="110" height="112" viewBox="0 0 110 112" fill="none" xmlns="http://www.w3.org/2000/svg">
<mask id="mask0_1377_30848" style="mask-type:alpha" maskUnits="userSpaceOnUse" x="0" y="0" width="110" height="112">
<rect width="110" height="112" fill="#C4C4C4"/>
</mask>
<g mask="url(#mask0_1377_30848)">
<path d="M104.866 30.3304C101.644 -0.0361004 66.9224 -13.8294 46.5429 -1.37055C45.9217 -0.988478 45.2992 -0.824055 44.5202 -1.71602C44.857 -2.86618 45.1098 -4.24747 45.6572 -5.48773C47.5755 -9.85513 46.3563 -12.0933 41.5649 -13.1233C36.1603 -14.2794 30.8599 -16.0133 25.6082 -17.7654C22.4409 -18.8279 -0.545467 -19.2932 -1.49908 -15.9998C-12.4107 21.483 -1.92501 60.1584 -12.9763 97.6001C-13.9 100.718 -12.9295 101.992 -9.98009 102.762C-4.78547 104.117 0.324215 105.762 5.4749 107.267C11.9994 109.188 12.0223 109.184 13.929 102.673C17.3803 90.924 20.8147 79.1594 24.4669 66.6876C25.4052 67.8872 25.9346 68.3363 26.169 68.905C34.1271 87.8357 68.3104 96.4734 86.8195 79.5967C101.392 66.3195 106.892 49.4269 104.866 30.3304ZM63.7473 71.6111C44.6982 74.9017 29.0153 58.0754 32.811 39.0084C35.4273 25.8189 35.4085 25.846 48.21 29.9396C52.9864 31.4649 57.8213 32.7901 62.6299 34.2054C62.5713 34.4054 77.2047 38.5711 84.5442 40.5574C87.797 41.4388 88.4147 43.5108 87.4012 46.7866C83.6204 59.0684 77.3882 69.2491 63.7473 71.6111Z" fill="url(#paint0_linear_1377_30848)"/>
</g>
<defs>
<linearGradient id="paint0_linear_1377_30848" x1="1.42383" y1="-25.981" x2="116.621" y2="7.7537" gradientUnits="userSpaceOnUse">
<stop stop-color="#FE0555"/>
<stop offset="1" stop-color="#FF8700"/>
</linearGradient>
</defs>
</svg>
