<svg width="68" height="66" viewBox="0 0 68 66" fill="none" xmlns="http://www.w3.org/2000/svg">
<path d="M40.8571 12.2857H37.4286V9.07143C37.4286 8.78727 37.3082 8.51475 37.0938 8.31381C36.8795 8.11288 36.5888 8 36.2857 8H31.7143C31.4112 8 31.1205 8.11288 30.9062 8.31381C30.6918 8.51475 30.5714 8.78727 30.5714 9.07143V12.2857H27.1429C26.8398 12.2857 26.5491 12.3986 26.3347 12.5995C26.1204 12.8005 26 13.073 26 13.3571V17.6429C26 17.927 26.1204 18.1995 26.3347 18.4005C26.5491 18.6014 26.8398 18.7143 27.1429 18.7143H30.5714V21.9286C30.5714 22.2127 30.6918 22.4853 30.9062 22.6862C31.1205 22.8871 31.4112 23 31.7143 23H36.2857C36.5888 23 36.8795 22.8871 37.0938 22.6862C37.3082 22.4853 37.4286 22.2127 37.4286 21.9286V18.7143H40.8571C41.1602 18.7143 41.4509 18.6014 41.6653 18.4005C41.8796 18.1995 42 17.927 42 17.6429V13.3571C42 13.073 41.8796 12.8005 41.6653 12.5995C41.4509 12.3986 41.1602 12.2857 40.8571 12.2857ZM39.7143 16.5714H36.2857C35.9826 16.5714 35.6919 16.6843 35.4776 16.8852C35.2633 17.0862 35.1429 17.3587 35.1429 17.6429V20.8571H32.8571V17.6429C32.8571 17.3587 32.7367 17.0862 32.5224 16.8852C32.3081 16.6843 32.0174 16.5714 31.7143 16.5714H28.2857V14.4286H31.7143C32.0174 14.4286 32.3081 14.3157 32.5224 14.1148C32.7367 13.9138 32.8571 13.6413 32.8571 13.3571V10.1429H35.1429V13.3571C35.1429 13.6413 35.2633 13.9138 35.4776 14.1148C35.6919 14.3157 35.9826 14.4286 36.2857 14.4286H39.7143V16.5714Z" fill="white"/>
<path d="M65.6707 17.9661C65.694 17.7724 65.7054 17.5777 65.7051 17.3827C65.6996 16.3738 65.3347 15.397 64.6711 14.6143C64.0075 13.8315 63.0849 13.2899 62.0563 13.0791C60.8929 12.8666 59.6887 13.086 58.6875 13.6929C57.6863 14.2998 56.9628 15.2489 56.6634 16.3481L51.6147 30.2828C51.5399 30.3113 51.4671 30.3443 51.3967 30.3818L41.2535 36.0834C39.7013 36.958 38.4139 38.2059 37.5185 39.7038C36.623 41.2018 36.1504 42.8979 36.1474 44.6247V54.9931C35.8431 54.9931 35.5513 55.1091 35.3361 55.3155C35.1209 55.5219 35 55.8019 35 56.0938V64.8993C35 65.1912 35.1209 65.4712 35.3361 65.6776C35.5513 65.884 35.8431 66 36.1474 66H52.2114C52.5157 66 52.8076 65.884 53.0228 65.6776C53.2379 65.4712 53.3588 65.1912 53.3588 64.8993V56.0938C53.3588 55.8019 53.2379 55.5219 53.0228 55.3155C52.8076 55.1091 52.5157 54.9931 52.2114 54.9931V52.5716C52.2136 52.1067 52.3167 51.6474 52.5143 51.2229C52.7118 50.7984 52.9995 50.418 53.3588 50.1061L61.1154 43.491C61.9639 42.7789 62.5712 41.8398 62.8595 40.7943L67.8394 22.9302C67.9457 22.5572 67.9997 22.1722 68 21.7855C67.9955 21.0087 67.7779 20.2468 67.369 19.5763C66.9601 18.9059 66.3744 18.3505 65.6707 17.9661V17.9661ZM58.855 16.9975C58.9959 16.4283 59.3552 15.9309 59.8613 15.6045C60.3674 15.2781 60.9832 15.1467 61.5859 15.2364C62.1002 15.3397 62.562 15.6092 62.894 15.9999C63.2261 16.3905 63.4083 16.8787 63.4103 17.3827V17.4047C62.3854 17.423 61.3947 17.7619 60.589 18.3699C59.7833 18.9778 59.2067 19.8216 58.9468 20.7728L55.7455 30.2497C55.2608 30.0292 54.7411 29.8878 54.2079 29.8315L58.855 16.9975ZM51.064 63.7986H37.2949V57.1945H51.064V63.7986ZM65.6248 22.3578L60.6335 40.233C60.4608 40.8541 60.1017 41.4129 59.6008 41.84L51.8328 48.4551C51.2317 48.975 50.7506 49.6099 50.4206 50.3189C50.0906 51.0279 49.9189 51.7952 49.9166 52.5716V54.9931H38.4423V44.6247C38.448 43.2818 38.8168 41.9633 39.5126 40.798C40.2085 39.6327 41.2076 38.6606 42.4124 37.9766L52.5442 32.286C52.8054 32.14 53.0941 32.045 53.3938 32.0063C53.6934 31.9677 53.9981 31.9862 54.2902 32.0609C54.5824 32.1356 54.8563 32.2649 55.0962 32.4414C55.3361 32.6179 55.5372 32.8382 55.6881 33.0895C55.9861 33.5981 56.0683 34.1973 55.9176 34.7626C55.8379 35.0417 55.7016 35.3029 55.5165 35.5315C55.3315 35.76 55.1012 35.9513 54.839 36.0944L48.2643 39.7376C48.0145 39.8899 47.8357 40.1289 47.7653 40.4047C47.6949 40.6804 47.7383 40.9716 47.8864 41.2174C48.0345 41.4632 48.2759 41.6445 48.5601 41.7236C48.8444 41.8027 49.1495 41.7734 49.4117 41.6418L55.9864 37.9986C56.512 37.7125 56.9725 37.3286 57.341 36.8692C57.7095 36.4099 57.9785 35.8845 58.1321 35.3239C58.4445 34.1977 58.2795 32.9987 57.6732 31.9888L57.6043 31.8898L61.1499 21.4002C61.2907 20.831 61.65 20.3336 62.1562 20.0072C62.6623 19.6808 63.2781 19.5494 63.8807 19.6391C64.395 19.7425 64.8568 20.012 65.1889 20.4026C65.5209 20.7933 65.7032 21.2814 65.7051 21.7855C65.709 21.9791 65.6819 22.1721 65.6248 22.3578V22.3578Z" fill="white"/>
<path d="M31.8526 54.9924V44.6232C31.8496 42.8963 31.377 41.2 30.4815 39.7019C29.5861 38.2039 28.2987 36.9559 26.7465 36.0812L16.6033 30.3683C16.5344 30.3352 16.4541 30.3132 16.3853 30.2802L11.371 16.4216C11.0796 15.3063 10.3561 14.3394 9.34784 13.7178C8.33957 13.0961 7.12227 12.8663 5.94367 13.0753C4.91511 13.2861 3.99254 13.8278 3.3289 14.6106C2.66526 15.3934 2.30042 16.3703 2.29485 17.3793C2.29456 17.5742 2.30605 17.769 2.32928 17.9627C1.62563 18.3471 1.03992 18.9025 0.631029 19.573C0.222142 20.2435 0.00450249 21.0055 0 21.7823C0.0022286 22.1682 0.0523021 22.5525 0.149165 22.9271L5.14047 40.7815C5.4257 41.8315 6.03336 42.7749 6.88456 43.4894L14.6297 50.105C14.9927 50.4147 15.2835 50.7944 15.4832 51.2193C15.6828 51.6442 15.7869 52.1046 15.7886 52.5707V54.9924C15.4843 54.9924 15.1924 55.1083 14.9772 55.3148C14.7621 55.5212 14.6412 55.8012 14.6412 56.0931V64.8992C14.6412 65.1912 14.7621 65.4712 14.9772 65.6776C15.1924 65.884 15.4843 66 15.7886 66H31.8526C32.1569 66 32.4487 65.884 32.6639 65.6776C32.8791 65.4712 33 65.1912 33 64.8992V56.0931C33 55.8012 32.8791 55.5212 32.6639 55.3148C32.4487 55.1083 32.1569 54.9924 31.8526 54.9924ZM4.58971 17.3793C4.59112 16.8767 4.77173 16.3897 5.10153 15.9993C5.43133 15.6088 5.89046 15.3383 6.40264 15.2328C7.02186 15.1465 7.65217 15.2881 8.16716 15.629C8.68215 15.97 9.04374 16.4851 9.17942 17.071L13.7921 29.8289C13.2589 29.8853 12.7392 30.0266 12.2545 30.2472L9.07615 20.8246C8.81748 19.8639 8.23972 19.0102 7.43025 18.3925C6.62079 17.7749 5.62366 17.4269 4.58971 17.4013V17.3793ZM16.1558 48.4538L8.39917 41.8382C7.89551 41.4089 7.53609 40.8457 7.36648 40.2201L2.3637 22.3547C2.3162 22.1674 2.29308 21.9751 2.29485 21.7823C2.29627 21.2798 2.47688 20.7928 2.80668 20.4023C3.13647 20.0118 3.5956 19.7414 4.10779 19.6358C4.72265 19.5473 5.34965 19.6854 5.86268 20.0224C6.37571 20.3593 6.73672 20.8701 6.87309 21.4521L10.3957 31.8873L10.3268 31.9864C9.72053 32.9963 9.55553 34.1954 9.86787 35.3217C10.0215 35.8823 10.2905 36.4078 10.659 36.8671C11.0275 37.3265 11.488 37.7105 12.0136 37.9966L18.5883 41.6401C18.8506 41.7717 19.1556 41.801 19.4399 41.7219C19.7241 41.6428 19.9655 41.4614 20.1136 41.2156C20.2617 40.9698 20.3051 40.6786 20.2347 40.4028C20.1642 40.1271 19.9855 39.8881 19.7357 39.7358L13.161 36.0922C12.8988 35.9491 12.6685 35.7578 12.4835 35.5293C12.2984 35.3008 12.1621 35.0394 12.0824 34.7603C11.9317 34.195 12.0139 33.5958 12.3119 33.0872C12.4618 32.8364 12.6618 32.6163 12.9003 32.4397C13.1389 32.263 13.4114 32.1331 13.7023 32.0575C13.9931 31.9818 14.2967 31.9619 14.5956 31.9988C14.8945 32.0357 15.1829 32.1288 15.4444 32.2726L25.5876 37.9746C26.7924 38.6586 27.7915 39.6308 28.4874 40.7962C29.1832 41.9615 29.552 43.2802 29.5577 44.6232V54.9924H18.0834V52.5707C18.0815 51.7931 17.9088 51.0246 17.5767 50.3153C17.2446 49.606 16.7604 48.9717 16.1558 48.4538ZM30.7051 63.7985H16.936V57.1939H30.7051V63.7985Z" fill="white"/>
<path d="M50.5747 3.238C49.487 2.21145 48.1951 1.39707 46.7729 0.841453C45.3508 0.285837 43.8263 -0.000102502 42.2867 2.75634e-08C40.7471 0.000102557 39.2226 0.286245 37.8005 0.84205C36.3784 1.39786 35.0866 2.21241 33.9991 3.2391V3.2391C32.9116 2.21239 31.6199 1.39782 30.1978 0.842045C28.7758 0.286266 27.2514 0.000187411 25.7118 0.000187411C24.1723 0.000187411 22.6478 0.286266 21.2258 0.842045C19.8038 1.39782 18.512 2.21239 17.4246 3.2391C15.2316 5.30958 14 8.11509 14 11.04C14 13.965 15.2316 16.7705 17.4246 18.841L33.1719 33.6768C33.3916 33.8837 33.6896 34 34.0002 34C34.3109 34 34.6089 33.8837 34.8286 33.6768L50.5759 18.841C52.7688 16.7702 54.0002 13.9644 54 11.0393C53.9998 8.11413 52.7679 5.30852 50.5747 3.238V3.238ZM33.9991 31.3355L19.0801 17.2801C17.7704 16.0445 16.8789 14.4707 16.5183 12.7578C16.1577 11.0449 16.3443 9.26971 17.0545 7.65668C17.7647 6.04366 18.9665 4.6652 20.5081 3.69558C22.0497 2.72596 23.8618 2.20871 25.7153 2.20921C26.9466 2.20522 28.1664 2.43226 29.3036 2.87706C30.4408 3.32186 31.4726 3.97554 32.3388 4.79996L33.1707 5.58369C33.3904 5.79063 33.6884 5.90689 33.9991 5.90689C34.3098 5.90689 34.6077 5.79063 34.8274 5.58369L35.6617 4.79775C36.5315 3.97676 37.5647 3.32543 38.702 2.88103C39.8394 2.43663 41.0586 2.20789 42.2898 2.20789C43.5211 2.20789 44.7403 2.43663 45.8776 2.88103C47.015 3.32543 48.0481 3.97676 48.918 4.79775C50.6731 6.4535 51.6589 8.69784 51.6589 11.0378C51.6589 13.3778 50.6731 15.6222 48.918 17.2779L33.9991 31.3355Z" fill="white"/>
</svg>
