<svg width="77" height="71" viewBox="0 0 77 71" fill="none" xmlns="http://www.w3.org/2000/svg">
<path d="M75.1784 19.7169L66.1137 13.9488H66.3792V5.07488C66.3792 4.37479 65.7848 3.80717 65.0516 3.80717H58.4137C57.6805 3.80717 57.0861 4.37479 57.0861 5.07488V8.19979L44.5471 0.213213C44.101 -0.071071 43.5195 -0.071071 43.0735 0.213213L12.4421 19.7169C10.5629 20.9132 10.055 23.3375 11.3077 25.132C12.5604 26.9264 15.0993 27.4115 16.9785 26.2152L21.2413 23.5023V48.177H18.5862C18.5862 47.4769 17.9918 46.9093 17.2586 46.9093H6.63792C5.90476 46.9093 5.31034 47.4769 5.31034 48.177H0V50.7124H5.31034V63.3895H0V65.925H5.31034C5.31034 66.6251 5.90476 67.1927 6.63792 67.1927H17.2586C17.9918 67.1927 18.5862 66.6251 18.5862 65.925V65.442L28.4979 69.3719C33.9012 71.4791 39.9419 71.5431 45.3928 69.5506L65.9013 62.0825C67.1162 61.6417 68.0939 60.7519 68.6135 59.6143C69.15 58.4607 69.1777 57.1494 68.6905 55.976C68.2564 54.9268 67.434 54.0665 66.3792 53.5584V23.5023L70.6421 26.2152C72.5213 27.4115 75.0601 26.9264 76.3128 25.132C77.5656 23.3375 77.0576 20.913 75.1784 19.7169ZM15.931 64.6572H7.9655V49.4447H15.931V64.6572ZM59.7413 6.34259H63.724V12.4276L59.7413 9.89218V6.34259ZM66.1787 58.5925C65.9443 59.1101 65.501 59.5156 64.9494 59.717L44.4409 67.1838C39.6219 68.9465 34.281 68.8917 29.5029 67.0304L18.5862 62.6961V50.7124H21.9516C26.3535 50.7174 30.6944 51.6959 34.634 53.5711C35.9349 54.1912 37.3687 54.5145 38.8225 54.5156H49.1206C50.2203 54.5224 51.1062 55.3792 51.099 56.4293C51.0931 57.309 50.456 58.0701 49.5587 58.2693C49.3848 58.2845 49.2149 58.3187 49.0383 58.3187H33.1896V60.8541H49.0383C49.0662 60.8541 49.0927 60.8541 49.1206 60.8541C49.1472 60.8541 49.1724 60.8465 49.2003 60.8465C50.2539 60.8304 51.2944 60.6198 52.2643 60.2266L63.3643 55.7275C63.893 55.512 64.4911 55.512 65.0198 55.7275C65.5697 55.9492 66.0012 56.3753 66.2146 56.9077C66.4401 57.4511 66.4272 58.0583 66.1787 58.5925ZM49.1206 51.9802H38.8225C37.7807 51.9787 36.7533 51.7469 35.8209 51.3032C32.0998 49.5332 28.0454 48.4917 23.8965 48.2404V21.8087L43.8103 9.13155L63.724 21.8087V53.0704C63.2438 53.109 62.7723 53.2171 62.3261 53.3911L53.718 56.8811C53.7431 56.7274 53.7595 56.5726 53.7672 56.4171C53.7672 53.9667 51.6868 51.9802 49.1206 51.9802ZM72.9098 24.3379C72.6266 24.3379 72.35 24.258 72.1144 24.1083L44.5471 6.55557C44.101 6.27128 43.5195 6.27128 43.0735 6.55557L15.5062 24.1057C14.8464 24.5252 13.9556 24.3544 13.5163 23.7243C13.3595 23.4993 13.2758 23.2351 13.2758 22.9648C13.275 22.5064 13.5148 22.0779 13.9144 21.8239L43.8103 2.793L73.7061 21.8264C74.1057 22.0806 74.3455 22.5089 74.3447 22.9673C74.3449 23.7242 73.7023 24.3377 72.9098 24.3379Z" fill="white"/>
<path d="M53.0305 25.9999C52.405 25.3659 51.6622 24.8629 50.8444 24.5197C50.0267 24.1765 49.1501 23.9999 48.2648 24C47.3796 24.0001 46.503 24.1768 45.6853 24.5201C44.8676 24.8634 44.1248 25.3665 43.4995 26.0006C42.8742 25.3665 42.1314 24.8634 41.3138 24.5201C40.4961 24.1768 39.6195 24.0001 38.7343 24.0001C37.8491 24.0001 36.9725 24.1768 36.1548 24.5201C35.3372 24.8634 34.5944 25.3665 33.9691 26.0006C32.7082 27.2794 32 29.0123 32 30.8189C32 32.6254 32.7082 34.3583 33.9691 35.6371L43.0238 44.8004C43.1502 44.9282 43.3215 45 43.5001 45C43.6788 45 43.8501 44.9282 43.9765 44.8004L53.0311 35.6371C54.2921 34.3581 55.0001 32.6251 55 30.8184C54.9999 29.0117 54.2916 27.2788 53.0305 25.9999ZM43.4995 43.3543L34.9211 34.673C34.168 33.9098 33.6553 32.9378 33.448 31.8798C33.2407 30.8218 33.348 29.7254 33.7563 28.7291C34.1647 27.7328 34.8557 26.8814 35.7421 26.2826C36.6286 25.6837 37.6705 25.3642 38.7363 25.3645C39.4443 25.362 40.1457 25.5023 40.7996 25.777C41.4535 26.0517 42.0467 26.4555 42.5448 26.9647L43.0231 27.4488C43.1495 27.5766 43.3208 27.6484 43.4995 27.6484C43.6781 27.6484 43.8494 27.5766 43.9758 27.4488L44.4555 26.9633C44.9556 26.4562 45.5497 26.0539 46.2037 25.7795C46.8576 25.505 47.5587 25.3637 48.2667 25.3637C48.9746 25.3637 49.6757 25.505 50.3296 25.7795C50.9836 26.0539 51.5777 26.4562 52.0778 26.9633C53.087 27.986 53.6539 29.3722 53.6539 30.8175C53.6539 32.2628 53.087 33.649 52.0778 34.6717L43.4995 43.3543Z" fill="white" stroke="white"/>
</svg>
