<svg width="13" height="12" viewBox="0 0 13 12" fill="none" xmlns="http://www.w3.org/2000/svg">
<path d="M5.98097 0.550911C6.14427 0.0483036 6.85533 0.0483039 7.01864 0.550912L8.09205 3.85453C8.16508 4.0793 8.37454 4.23148 8.61088 4.23148L12.0845 4.23148C12.613 4.23148 12.8327 4.90774 12.4052 5.21837L9.59494 7.26011C9.40374 7.39903 9.32373 7.64527 9.39676 7.87004L10.4702 11.1737C10.6335 11.6763 10.0582 12.0942 9.63068 11.7836L6.82046 9.74183C6.62926 9.60292 6.37035 9.60292 6.17914 9.74183L3.36892 11.7836C2.94138 12.0942 2.36612 11.6763 2.52943 11.1737L3.60284 7.87004C3.67587 7.64527 3.59586 7.39903 3.40466 7.26011L0.594438 5.21837C0.166895 4.90774 0.386623 4.23148 0.915096 4.23148L4.38872 4.23148C4.62506 4.23148 4.83452 4.0793 4.90756 3.85453L5.98097 0.550911Z" fill="#050505"/>
</svg>
