<svg width="148" height="34" viewBox="0 0 148 34" fill="none" xmlns="http://www.w3.org/2000/svg">
<g clip-path="url(#clip0_601_305)">
<path d="M14.4902 5.64745C13.1938 5.24558 12.0333 5.04467 11.0087 5.04472C10.1646 5.04472 9.48638 5.19352 8.97415 5.49112C8.73204 5.6211 8.53168 5.81551 8.39583 6.05226C8.25997 6.28901 8.19405 6.55862 8.20555 6.8305C8.20555 7.4854 8.55216 7.99134 9.24538 8.34832C9.93841 8.70555 11.0687 9.10738 12.6364 9.5538C14.0835 9.96371 15.503 10.4632 16.8865 11.0494C18.0098 11.547 19.0005 12.2959 19.7801 13.2369C20.594 14.2044 21.0009 15.4768 21.0008 17.054C21.0008 19.4354 20.074 21.2881 18.2202 22.6121C16.3666 23.9368 13.9929 24.5991 11.0992 24.5987C9.15095 24.6051 7.21361 24.3114 5.35702 23.7282C3.61884 23.2001 1.99416 22.3602 0.564453 21.2504L2.82512 16.6074C4.07042 17.5656 5.46853 18.3125 6.96217 18.8174C8.34718 19.3141 9.80668 19.5782 11.2801 19.5988C12.2139 19.5988 12.9599 19.4425 13.518 19.1299C13.7784 18.9983 13.9954 18.796 14.1436 18.547C14.2918 18.2979 14.365 18.0123 14.3546 17.7236C14.3546 17.0394 14.0004 16.5037 13.2921 16.1165C12.5834 15.7301 11.4455 15.3134 9.87835 14.8664C8.46997 14.4775 7.08815 14.0003 5.74132 13.4377C4.63348 12.9563 3.66292 12.2126 2.91553 11.2724C2.13146 10.3057 1.73962 9.04827 1.74004 7.5002C1.74004 5.1193 2.6443 3.27398 4.45281 1.96423C6.26139 0.654898 8.55218 0.000155316 11.3252 0C13.0074 0.0034716 14.6811 0.236324 16.2988 0.691959C17.8978 1.12783 19.4218 1.79746 20.8201 2.67861L18.4237 7.36608C17.1777 6.65747 15.8592 6.08137 14.4902 5.64745ZM62.8592 2.52228C64.4416 4.17417 65.2329 6.41384 65.2329 9.2413V24.3309H58.3152V11.2502C58.3152 9.70297 57.8932 8.4976 57.0492 7.63411C56.2051 6.77118 55.0597 6.33962 53.6131 6.33941C51.955 6.36931 50.6438 6.94968 49.6795 8.08051C48.7144 9.21188 48.2322 10.6702 48.2327 12.4555V24.3309H41.3151V11.2502C41.3151 9.7324 40.9006 8.53445 40.0717 7.65636C39.2422 6.77881 38.1044 6.33982 36.6581 6.33938C35 6.36928 33.6813 6.94965 32.7019 8.08049C31.7221 9.21185 31.2322 10.6702 31.2324 12.4555V24.3309H24.2695V0.312459H31.2324V4.46441C32.9202 1.57777 35.6631 0.104477 39.4612 0.0445254C41.5107 0.0445254 43.2439 0.528202 44.6608 1.49555C46.0772 2.46296 47.0869 3.82461 47.6901 5.5805C48.4736 3.76543 49.6115 2.3963 51.1038 1.47313C52.5957 0.551042 54.3816 0.0748394 56.4615 0.0445254C59.1438 0.0445254 61.2764 0.870445 62.8592 2.52228ZM83.9641 24.3309V21.5184C83.1279 22.5469 82.0383 23.3462 80.7996 23.8398C79.503 24.3756 78.0109 24.6435 76.3232 24.6434C73.7608 24.6434 71.7262 23.9515 70.2194 22.5675C68.7119 21.1835 67.9583 19.3754 67.9587 17.1432C67.9587 14.8817 68.7651 13.1183 70.3777 11.853C71.9898 10.5883 74.2731 9.94094 77.2276 9.91084H83.9191V9.46443C83.9191 8.18515 83.4896 7.19553 82.6307 6.49558C81.7716 5.79666 80.5131 5.44694 78.8553 5.44643C76.5946 5.44643 74.1832 6.14586 71.621 7.54473L69.4508 2.81251C71.1836 1.93538 73.0012 1.23242 74.8763 0.714229C76.6925 0.251999 78.5621 0.026846 80.4375 0.0445254C83.6929 0.0445254 86.2173 0.80349 88.0108 2.32142C89.8037 3.83939 90.7155 5.95253 90.7461 8.66082L90.7915 24.3309H83.9641ZM82.0201 18.7057C83.0747 18.0214 83.7077 17.1583 83.919 16.1165V13.9735H78.4481C77.0918 13.9735 74.6088 13.9356 74.6088 13.9356C74.6088 13.9356 74.4695 15.7447 74.4695 16.6968C74.4695 17.6197 74.8086 18.3563 75.4868 18.9067C76.165 19.4578 77.0919 19.7331 78.2673 19.7326C79.714 19.7326 80.9649 19.3903 82.0201 18.7057ZM116.282 1.62945C118.023 2.6642 119.421 4.17656 120.307 5.98222C121.256 7.85722 121.731 10.015 121.731 12.4555C121.731 14.8663 121.264 16.9869 120.329 18.8174C119.453 20.5848 118.08 22.0652 116.373 23.0809C114.67 24.093 112.688 24.5989 110.427 24.5987C108.739 24.5987 107.24 24.2788 105.929 23.639C104.607 22.9906 103.466 22.0327 102.606 20.8488V32.992H95.6425V0.312459H102.606V3.83939C103.442 2.65108 104.57 1.69121 105.884 1.04919C107.258 0.395332 108.767 0.0666465 110.292 0.0892152C112.552 0.0892152 114.549 0.602625 116.282 1.62945ZM115.406 18.3633C116.779 16.8436 117.466 14.8743 117.466 12.4556C117.466 11.8944 117.454 10.5037 117.454 10.5037L102.673 10.3848C102.673 10.3848 102.606 11.7115 102.606 12.4556C102.606 14.9105 103.301 16.889 104.693 18.391C106.084 19.8937 107.874 20.6447 110.063 20.6441C112.252 20.644 114.033 19.8838 115.406 18.3633V18.3633ZM128.422 33.3044C127.223 33.3199 126.03 33.1311 124.896 32.7463L121.492 31.5374L124.76 26.0273C125.815 26.8902 126.87 27.3218 127.925 27.322C129.402 27.322 130.472 26.6077 131.135 25.1792L131.421 24.6141C131.544 24.3713 131.612 24.1051 131.621 23.8338C131.63 23.5625 131.579 23.2925 131.472 23.0425L121.731 0.312459H128.92L135.295 16.8307L141.037 0.312459H148L137.329 27.0095C135.641 31.2061 132.672 33.3044 128.422 33.3044L128.422 33.3044Z" fill="white"/>
<path d="M0.676065 33.9999H0V28.6738H0.676065V33.9999Z" fill="white"/>
<path d="M5.43704 30.6836V32.9347H3.43047V32.4163H4.76098V30.6978C4.76098 29.5615 4.44453 29.1923 3.58871 29.1923H3.09243L2.4308 32.9347H1.74756L2.4308 29.1923H1.77629V28.6738H3.70378C4.93358 28.6738 5.43704 29.1994 5.43704 30.6836Z" fill="white"/>
<path d="M8.4786 29.1923H7.69466C7.44296 29.4124 7.23437 29.7817 7.43577 30.7759L7.87452 32.9347H7.21282L6.79569 30.8754C6.58711 29.8599 6.82442 29.4124 7.12647 29.2065L7.1193 29.1923H6.11963V28.6738H8.4786V29.1923Z" fill="white"/>
<path d="M12.736 32.9347H12.0599V29.1923H9.21191V28.6738H12.736V32.9347ZM9.91671 30.4421V32.9347H9.24071V30.4421H9.91671Z" fill="white"/>
<path d="M19.7761 30.2575V32.9347H16.2305V28.6738H18.4097C19.4022 28.6738 19.7761 29.0716 19.7761 30.2575ZM19.1145 30.364C19.1145 29.455 18.8772 29.1923 18.2299 29.1923H16.8921V32.4163H19.1145L19.1145 30.364Z" fill="white"/>
<path d="M24.0908 28.6738V30.7617C24.0908 31.9476 23.6161 32.4944 22.4223 32.814L20.7178 33.2827L20.5884 32.7786L21.5952 32.4945L20.7897 28.6738H21.4658L22.2137 32.3241L22.3072 32.2956C23.163 32.0613 23.4147 31.6991 23.4147 30.7476V28.6738H24.0908Z" fill="white"/>
<path d="M28.1604 33.9999H27.4844V28.6738H28.1604V33.9999Z" fill="white"/>
<path d="M32.2383 30.5773V31.0318C32.2383 32.3952 31.7924 32.935 30.5266 32.935H29.2393V32.4165H30.3756C31.289 32.4165 31.5623 31.9905 31.5623 30.9963V30.6129C31.5623 29.6187 31.289 29.1925 30.3756 29.1925H29.2393V28.6741H30.5266C31.7924 28.6741 32.2383 29.2138 32.2383 30.5773Z" fill="white"/>
<path d="M36.2866 29.1923H35.7401V32.9347H35.0641V29.1923H32.9136V28.6738H36.2866V29.1923Z" fill="white"/>
<path d="M40.3711 28.6738V30.7617C40.3711 31.9476 39.8964 32.4944 38.7026 32.814L36.9981 33.2827L36.8687 32.7786L37.8755 32.4945L37.07 28.6738H37.7461L38.494 32.3241L38.5875 32.2956C39.4433 32.0613 39.6951 31.6991 39.6951 30.7476V28.6738H40.3711Z" fill="white"/>
<path d="M45.3475 30.4918V32.9347H44.6715V30.5487C44.6715 29.5048 44.3262 29.1923 43.5855 29.1923H42.7008V32.9347H41.1689V32.4163H42.0535V29.1923H41.4135V28.6738H43.7293C44.8369 28.6738 45.3475 29.1212 45.3475 30.4918Z" fill="white"/>
<path d="M49.9283 30.6836V32.9347H47.9217V32.4163H49.2522V30.6978C49.2522 29.5615 48.9357 29.1923 48.0799 29.1923H47.5837L46.922 32.9347H46.2388L46.922 29.1923H46.2675V28.6738H48.195C49.4248 28.6738 49.9283 29.1994 49.9283 30.6836Z" fill="white"/>
<path d="M55.5014 30.7759C55.5014 32.452 54.8325 32.9347 53.4086 32.9347H51.402L50.9561 28.6738H51.6105L51.9989 32.4163H53.2935C54.3795 32.4163 54.8541 32.0968 54.8541 30.7119V28.6738H55.5014V30.7759ZM52.9842 28.6738H53.6171V31.486H52.9842V28.6738Z" fill="white"/>
<path d="M62.4768 30.2575V32.9347H58.9312V28.6738H61.1103C62.1028 28.6738 62.4768 29.0716 62.4768 30.2575ZM61.8151 30.364C61.8151 29.455 61.5778 29.1923 60.9305 29.1923H59.5928V32.4163H61.8151V30.364Z" fill="white"/>
<path d="M66.4536 30.5773V31.0318C66.4536 32.3952 66.0077 32.935 64.7419 32.935H63.4546V32.4165H64.591C65.5043 32.4165 65.7776 31.9905 65.7776 30.9963V30.6129C65.7776 29.6187 65.5043 29.1925 64.591 29.1925H63.4546V28.6741H64.742C66.0077 28.6741 66.4536 29.2138 66.4536 30.5773Z" fill="white"/>
<path d="M71.214 30.4918V32.9347H70.5451V30.499C70.5451 29.4479 70.2574 29.1923 69.4734 29.1923H68.3084V32.9347H67.6323V28.6738H69.6604C70.7681 28.6738 71.214 29.0716 71.214 30.4918Z" fill="white"/>
<path d="M78.2036 30.4918V32.9347H77.5348V30.499C77.5348 29.4479 77.2472 29.1923 76.4632 29.1923H75.2981V32.9347H74.6221V28.6738H76.6503C77.7577 28.6738 78.2036 29.0716 78.2036 30.4918Z" fill="white"/>
<path d="M79.4834 32.9347V28.6738H80.1595V32.9347H79.4834Z" fill="white"/>
<path d="M82.7986 32.9347H81.7343L81.2451 28.6738H81.914L82.3384 32.4163H82.7987C83.9853 32.4163 84.3738 31.9334 84.3738 30.5912V29.1923H83.108V28.6738H85.0426V30.5912C85.0426 32.317 84.3594 32.9347 82.7986 32.9347Z" fill="white"/>
<path d="M86.2144 31.0884V28.6738H86.8904V31.0884H86.2144Z" fill="white"/>
<path d="M91.3421 32.4163V32.9347H87.7173V32.4163H90.0835V29.1923H87.7173V28.6738H90.7596V32.4163H91.3421Z" fill="white"/>
</g>
<defs>
<clipPath id="clip0_601_305">
<rect width="148" height="34" fill="white"/>
</clipPath>
</defs>
</svg>
