<svg width="192" height="192" viewBox="0 0 192 192" fill="none" xmlns="http://www.w3.org/2000/svg">
    <path opacity="0.3" d="M169.745 164.993C165.802 169.124 162.071 171.788 159.124 173.893C124.479 198.636 83.4842 191.424 74.7723 189.662C61.9068 187.061 37.0375 182.034 19.0575 160.988C-8.14462 129.148 -3.90911 78.9851 17.1906 45.8717C21.0503 39.8149 41.4369 6.19657 82.873 0.805521C107.949 -2.45699 137.181 4.12352 158.349 21.776C202.785 58.8295 199.622 133.686 169.745 164.993Z" fill="url(#paint0_linear_4821_37998)"/>
    <path opacity="0.81" d="M96.5176 114.262C96.5176 114.262 119.984 54.664 154.844 48.1535C155.463 48.038 156.027 48.5351 155.996 49.1669C155.644 56.5184 151.178 95.4247 96.5176 114.262Z" fill="url(#paint1_linear_4821_37998)"/>
    <path opacity="0.62" d="M148.581 57.8198C146.801 60.3739 144.935 62.8606 143.045 65.3284C142.572 65.9457 142.09 66.5548 141.613 67.1686C141.132 67.7795 140.662 68.398 140.173 69.0024L138.711 70.8186C138.222 71.4221 137.742 72.0343 137.241 72.6279C136.245 73.8208 135.259 75.0219 134.255 76.2084L131.212 79.7403C129.147 82.063 127.084 84.3879 124.956 86.6531L123.372 88.3637C122.851 88.9398 122.298 89.4858 121.762 90.0485L118.53 93.4088L115.215 96.6866C114.661 97.2318 114.112 97.7829 113.548 98.3165L111.837 99.9005C110.695 100.954 109.564 102.021 108.402 103.053L104.87 106.096L103.983 106.851C103.685 107.1 103.395 107.359 103.091 107.6L101.266 109.05C100.66 109.535 100.044 110.009 99.4343 110.489C98.8233 110.969 98.2119 111.447 97.5966 111.92C97.5497 111.956 97.4822 111.947 97.4459 111.9C97.4113 111.854 97.4182 111.79 97.4609 111.753L97.4638 111.75C98.0518 111.243 98.6432 110.741 99.2349 110.24C99.8276 109.739 100.416 109.233 101.012 108.738L102.796 107.247C103.385 106.742 103.955 106.215 104.538 105.705L108.032 102.635L111.455 99.4845L113.167 97.9104C113.453 97.6486 113.726 97.3725 114.006 97.1047L114.846 96.2994L118.203 93.077C120.387 90.8727 122.607 88.7028 124.715 86.4239C125.78 85.2949 126.858 84.1771 127.886 83.0143C128.924 81.8596 129.971 80.713 131 79.5514L134.054 76.0341C135.062 74.8528 136.052 73.6564 137.052 72.4682C137.555 71.8772 138.036 71.2672 138.527 70.6662L139.995 68.8569C140.486 68.2555 140.958 67.6387 141.44 67.0304C141.919 66.4191 142.404 65.8122 142.878 65.197C144.767 62.7322 146.63 60.2434 148.404 57.6962L148.405 57.6945C148.439 57.6455 148.506 57.6339 148.555 57.6678C148.603 57.7035 148.615 57.7709 148.581 57.8198Z" fill="white"/>
    <g opacity="0.79">
        <path opacity="0.79" d="M90.832 80.0805C90.832 80.0805 102.24 27.4526 136.677 0.171455C137.127 -0.1844 137.791 0.0405312 137.928 0.598568C140.095 9.41125 151.373 65.6201 90.832 80.0805Z" fill="url(#paint2_linear_4821_37998)"/>
        <path opacity="0.62" d="M133.022 15.3522C132.626 16.8786 132.166 18.3827 131.68 19.88C131.194 21.3764 130.683 22.8655 130.14 24.3421C129.051 27.295 127.865 30.2118 126.586 33.0879C126.269 33.8082 125.935 34.5203 125.61 35.2372C125.283 35.9527 124.93 36.6563 124.591 37.3663C124.254 38.078 123.891 38.7755 123.538 39.4787L123.004 40.5312L122.452 41.5739C120.98 44.3551 119.429 47.0963 117.758 49.7633C116.081 52.426 114.339 55.0496 112.459 57.5728C112.226 57.89 111.998 58.2102 111.762 58.5245L111.041 59.4581L110.32 60.3917C110.078 60.7017 109.844 61.0176 109.59 61.3185L108.092 63.1416L107.717 63.5962L107.327 64.0387L106.549 64.9243C102.415 69.6654 97.7891 73.9692 92.7866 77.7578C92.7452 77.7892 92.6867 77.781 92.6555 77.7394C92.6252 77.699 92.6324 77.6419 92.6709 77.6102L92.673 77.6085L94.4889 76.1194L95.3984 75.3772L96.2784 74.5998L98.0367 73.0446L99.7365 71.425C100.018 71.1533 100.308 70.8901 100.585 70.6141L101.408 69.7771C101.954 69.2164 102.511 68.6674 103.048 68.0974C104.103 66.9405 105.182 65.8068 106.186 64.6049L106.952 63.7151L107.334 63.2699L107.704 62.8136L109.184 60.9914C109.435 60.6914 109.668 60.3759 109.907 60.0664L110.621 59.1344L111.336 58.2025C111.57 57.8887 111.796 57.5689 112.027 57.2526C113.888 54.7341 115.613 52.1152 117.273 49.4581C118.941 46.8057 120.5 44.0842 121.975 41.318L122.53 40.2814L123.066 39.2349C123.42 38.5356 123.785 37.8415 124.123 37.1341C124.816 35.7274 125.485 34.3091 126.143 32.8857C127.45 30.0341 128.665 27.1392 129.786 24.2078C130.355 22.7453 130.893 21.2704 131.405 19.7868C131.663 19.0455 131.911 18.3003 132.15 17.5534C132.394 16.8078 132.626 16.0566 132.841 15.3041L132.841 15.3024C132.856 15.2526 132.908 15.2238 132.957 15.238C133.006 15.2522 133.034 15.3032 133.022 15.3522Z" fill="white"/>
    </g>
    <g opacity="0.76">
        <path opacity="0.76" d="M72.937 77.2552C72.937 77.2552 68.4883 30.5694 41.5217 3.4029C41.1703 3.04876 40.5725 3.1741 40.3966 3.64199C37.6165 11.036 22.0835 58.4588 72.937 77.2552Z" fill="url(#paint3_linear_4821_37998)"/>
        <path opacity="0.62" d="M43.2937 16.8864C43.754 19.5782 44.3496 22.2512 45.0302 24.8976C45.7001 27.5474 46.4546 30.1754 47.2932 32.775C47.7176 34.0735 48.1505 35.3685 48.6049 36.6563C48.8243 37.3032 49.0685 37.9407 49.303 38.582L49.6586 39.5422L50.0314 40.4956C51.0228 43.0394 52.0916 45.5531 53.2606 48.0188C54.4207 50.4879 55.6414 52.9308 56.9911 55.3012C57.1576 55.5987 57.3203 55.8987 57.4903 56.194L58.0116 57.074L58.5329 57.954C58.708 58.2463 58.8762 58.5434 59.0624 58.8288L60.1542 60.5583L60.4257 60.9914L60.7105 61.416L61.2801 62.2655C62.0231 63.4094 62.8386 64.5019 63.6302 65.612C64.035 66.1601 64.4598 66.6933 64.8736 67.235L65.4982 68.0446C65.7092 68.3124 65.9325 68.5696 66.1472 68.8344L67.4478 70.4128L68.8056 71.9418L69.4853 72.7059L70.1941 73.4429L71.6083 74.9217L71.61 74.9235C71.6459 74.9608 71.6446 75.0205 71.6074 75.0565C71.5711 75.0917 71.5139 75.0913 71.4781 75.057C67.5353 71.2679 63.9731 67.0676 60.8835 62.5393L60.3002 61.6928L60.0086 61.2696L59.7298 60.8378L58.6213 59.1057C58.433 58.8194 58.2627 58.5219 58.0855 58.2283L57.5577 57.3462L57.03 56.4636C56.8579 56.1674 56.6935 55.8665 56.5244 55.5682C55.1581 53.1905 53.9207 50.7407 52.744 48.2639C51.5732 45.7836 50.5151 43.251 49.5293 40.6926L49.1591 39.7332L48.806 38.7674C48.5733 38.1227 48.3307 37.4809 48.1134 36.8306C47.8935 36.1811 47.6608 35.5364 47.452 34.883C47.2454 34.2293 47.0302 33.5785 46.8303 32.9226C45.2266 27.6792 43.8944 22.3453 43.1084 16.9121C43.1011 16.8606 43.1365 16.813 43.1874 16.8057C43.2377 16.7984 43.2843 16.8327 43.2928 16.8829L43.2937 16.8864Z" fill="white"/>
    </g>
    <path d="M49.0239 6.18098C48.638 24.5013 47.3852 87.6951 47.9834 110.089C48.0466 112.462 49.664 114.366 51.681 114.443C61.6578 114.828 98.2314 115.801 114.55 114.996C117.949 114.828 120.652 111.59 120.723 107.59C121.062 88.3604 121.81 34.2751 120.032 9.49829C119.819 6.52954 117.837 4.16561 115.317 3.86899C104.451 2.59066 67.72 -0.533919 53.6221 0.541804C51.0794 0.735829 49.0871 3.18561 49.0239 6.18098Z" fill="url(#paint4_linear_4821_37998)"/>
    <path d="M53.4752 11.8011C52.938 26.5882 51.2442 75.7821 51.7818 93.9728C51.8604 96.6317 53.6421 98.7814 55.9004 98.9372C65.1983 99.5773 96.9198 100.988 110.557 99.7039C113.013 99.4725 114.94 97.1369 115.073 94.2437C115.764 79.1578 117.748 33.3512 117.233 15.3644C117.15 12.4948 115.261 10.1515 112.829 9.89479C102.771 8.83238 69.0629 6.30533 57.4743 7.04881C55.2988 7.18832 53.5683 9.24103 53.4752 11.8011Z" fill="url(#paint5_linear_4821_37998)"/>
    <path opacity="0.61" d="M78.416 4.17568C78.416 4.738 78.7883 5.2016 79.2657 5.23079C81.622 5.37588 88.2599 5.78668 91.2264 5.98886C91.8114 6.02879 92.2703 5.41022 92.1593 4.73371L92.1405 4.61824C92.065 4.15636 91.7392 3.80909 91.3413 3.76616C89.3359 3.54982 83.2855 2.951 79.2763 3.11927C78.7947 3.13987 78.416 3.60905 78.416 4.17568Z" fill="url(#paint6_linear_4821_37998)"/>
    <path d="M83.0524 42.8159C90.7377 42.8159 96.968 36.5524 96.968 28.8259C96.968 21.0995 90.7377 14.8359 83.0524 14.8359C75.367 14.8359 69.1367 21.0995 69.1367 28.8259C69.1367 36.5524 75.367 42.8159 83.0524 42.8159Z" fill="url(#paint7_linear_4821_37998)"/>
    <path d="M87.3136 23.5379C87.3136 25.907 85.4033 28.4641 83.0474 28.4641C80.691 28.4641 78.7812 25.9066 78.7812 23.5379C78.7812 21.1693 80.6915 19.4883 83.0474 19.4883C85.4038 19.4887 87.3136 21.1693 87.3136 23.5379Z" fill="white"/>
    <path d="M77.752 37.5846H88.1667C89.2631 37.5846 90.2336 36.8724 90.5675 35.8225L91.1281 34.0616C91.5384 32.7722 90.8715 31.3762 89.6068 30.9113C85.3684 29.3531 80.9857 29.5531 76.4963 31.0551C75.2385 31.4758 74.5408 32.8284 74.8875 34.1144L75.3192 35.7139C75.6172 36.8179 76.6141 37.5846 77.752 37.5846Z" fill="white"/>
    <g opacity="0.71">
        <path opacity="0.65" d="M109.737 65.157H58.964C58.8047 65.157 58.6758 65.0274 58.6758 64.8673V57.5046C58.6758 57.3445 58.8047 57.2148 58.964 57.2148H109.737C109.896 57.2148 110.025 57.3445 110.025 57.5046V64.8673C110.025 65.0274 109.896 65.157 109.737 65.157Z" fill="white"/>
        <path opacity="0.65" d="M109.459 78.114H58.6866C58.5274 78.114 58.3984 77.9844 58.3984 77.8243V70.4616C58.3984 70.3015 58.5274 70.1719 58.6866 70.1719H109.459C109.619 70.1719 109.748 70.3015 109.748 70.4616V77.8243C109.748 77.984 109.618 78.114 109.459 78.114Z" fill="white"/>
        <path opacity="0.65" d="M99.5409 93.5707H67.0803C66.8839 93.5707 66.7246 93.4105 66.7246 93.2131V83.8029C66.7246 83.6054 66.8839 83.4453 67.0803 83.4453H99.5404C99.7368 83.4453 99.8961 83.6054 99.8961 83.8029V93.2131C99.8965 93.4105 99.7373 93.5707 99.5409 93.5707Z" fill="white"/>
    </g>
    <path opacity="0.75" d="M91.0232 63.428H61.4635C61.1805 63.428 60.9512 63.1975 60.9512 62.9129V59.5307C60.9512 59.2461 61.1805 59.0156 61.4635 59.0156H91.0232C91.3063 59.0156 91.5356 59.2461 91.5356 59.5307V62.9129C91.5356 63.197 91.3059 63.428 91.0232 63.428Z" fill="white"/>
    <g opacity="0.75">
        <path opacity="0.75" d="M62.7039 75.5993C63.6232 75.2164 64.0598 74.1567 63.679 73.2324C63.2982 72.3081 62.2442 71.8692 61.3248 72.2521C60.4054 72.6349 59.9689 73.6946 60.3497 74.6189C60.7305 75.5433 61.7845 75.9822 62.7039 75.5993Z" fill="white"/>
        <path opacity="0.75" d="M67.6472 75.693C68.5666 75.3102 69.0032 74.2505 68.6223 73.3262C68.2415 72.4019 67.1875 71.9629 66.2682 72.3458C65.3488 72.7287 64.9122 73.7884 65.2931 74.7127C65.6739 75.637 66.7279 76.0759 67.6472 75.693Z" fill="white"/>
        <path opacity="0.75" d="M72.405 75.9235C73.3244 75.5406 73.761 74.481 73.3802 73.5566C72.9993 72.6323 71.9453 72.1934 71.026 72.5763C70.1066 72.9592 69.67 74.0188 70.0509 74.9431C70.4317 75.8674 71.4857 76.3064 72.405 75.9235Z" fill="white"/>
        <path opacity="0.75" d="M77.9314 75.6246C78.6351 74.9172 78.6351 73.7703 77.9314 73.0629C77.2278 72.3554 76.087 72.3554 75.3834 73.0629C74.6798 73.7703 74.6798 74.9172 75.3834 75.6246C76.087 76.3321 77.2278 76.3321 77.9314 75.6246Z" fill="white"/>
        <path opacity="0.75" d="M83.3527 74.718C83.5813 73.7444 82.9817 72.7687 82.0133 72.5388C81.0448 72.3089 80.0744 72.9119 79.8457 73.8855C79.617 74.8591 80.2167 75.8348 81.1851 76.0647C82.1535 76.2946 83.124 75.6917 83.3527 74.718Z" fill="white"/>
        <path opacity="0.75" d="M88.3262 74.679C88.4856 73.6914 87.8185 72.761 86.8363 72.6007C85.854 72.4404 84.9285 73.1111 84.7691 74.0986C84.6097 75.0862 85.2767 76.0166 86.259 76.1769C87.2412 76.3372 88.1667 75.6665 88.3262 74.679Z" fill="white"/>
    </g>
    <path d="M107.119 80.3008L112.639 81.6881L111.259 92.0934C111.259 92.0934 113.329 94.1744 114.019 96.9492C114.709 99.7239 115.345 111.374 115.345 111.374L116.655 112.17L116.814 112.835L113.003 117.986L113.635 113.886C113.736 113.235 113.562 111.915 113.617 111.888C111.547 106.338 107.119 90.7056 107.119 90.7056V80.3008Z" fill="url(#paint8_linear_4821_37998)"/>
    <path d="M105.505 112.907C105.565 112.906 105.624 112.911 105.684 112.907C105.417 109.562 104.198 94.8378 102.978 89.3193C101.598 83.0761 105.048 70.5898 105.048 70.5898L111.258 76.833L107.808 88.6256C110.172 92.191 107.422 113.07 107.481 113.061L107.477 113.108L108.377 114.352L108.268 115.027L102.769 118.289L104.933 114.756C105.277 114.196 105.467 113.56 105.505 112.907Z" fill="url(#paint9_linear_4821_37998)"/>
    <path d="M112.492 42.9023C112.492 42.9023 124.582 56.6021 112.492 63.6265L111.26 62.7298C111.26 62.7298 117.262 56.9511 111.26 49.8769L112.492 42.9023Z" fill="url(#paint10_linear_4821_37998)"/>
    <path d="M102.409 118.8H104.164C104.493 118.8 104.803 118.649 105.003 118.387C105.55 117.672 106.683 116.278 107.225 116.241C107.955 116.192 107.861 118.8 107.861 118.8H108.27L108.788 115.56C108.918 114.745 108.515 113.937 107.787 113.555C107.787 113.555 107.62 114.795 106.716 115.343C105.811 115.892 103.036 117.856 103.036 117.856C103.036 117.856 102.696 117.807 102.322 117.875C101.769 117.976 101.847 118.8 102.409 118.8Z" fill="url(#paint11_linear_4821_37998)"/>
    <path d="M112.867 118.599L114.485 117.915C114.788 117.787 115.015 117.526 115.099 117.207C115.327 116.335 115.834 114.608 116.32 114.363C116.973 114.034 117.893 116.474 117.893 116.474L118.27 116.315L117.498 113.126C117.303 112.323 116.62 111.736 115.801 111.668C115.801 111.668 116.126 112.876 115.504 113.734C114.882 114.592 113.081 117.485 113.081 117.485C113.081 117.485 112.749 117.572 112.431 117.781C111.96 118.088 112.349 118.819 112.867 118.599Z" fill="url(#paint12_linear_4821_37998)"/>
    <path d="M103.468 60.0324C103.468 60.0324 103.671 61.2828 103.374 64.7203C103.077 68.1578 101.655 76.2283 101.945 83.9498C101.945 83.9498 105.985 84.8963 113.004 84.4482C113.004 84.4482 115.966 72.3924 115.245 67.8088C114.523 63.2256 110.609 59.9375 110.609 59.9375L103.468 60.0324Z" fill="url(#paint13_linear_4821_37998)"/>
    <path d="M106.453 37.0633L105.959 42.9008H110.65L109.484 33.9902L106.453 37.0633Z" fill="url(#paint14_linear_4821_37998)"/>
    <path d="M112.04 42.0916C110.421 42.0019 106.801 41.8357 104.236 41.9761C102.886 42.0499 101.755 43.0239 101.479 44.3546L100.853 47.368C100.62 48.4906 100.655 49.6526 100.955 50.7588L103.467 60.0308C103.467 60.0308 105.702 61.3808 110.607 59.9359C110.607 59.9359 114.915 49.6075 113.152 43.0003C113.015 42.4874 112.567 42.1208 112.04 42.0916Z" fill="url(#paint15_linear_4821_37998)"/>
    <path d="M101.601 43.815C100.91 45.6449 100.286 47.5641 99.6152 49.3614C99.2741 50.2607 98.9286 51.1428 98.5585 51.9524C98.3714 52.3559 98.1656 52.7264 97.9769 53.0625C97.7882 53.3952 97.5756 53.672 97.4645 53.7991C97.4428 53.818 97.5158 53.8326 97.5401 53.8334C97.5546 53.8352 97.073 53.9129 96.9253 53.9378L96.3476 53.9343C95.5197 53.8914 94.582 53.745 93.6418 53.5613C91.7452 53.2059 89.773 52.7066 87.7478 52.3289L87.7324 52.3259C87.3452 52.2538 86.9724 52.5109 86.9007 52.9002C86.8533 53.1569 86.9494 53.408 87.1308 53.5695C87.9472 54.2919 88.8127 54.8856 89.7106 55.4633C90.1624 55.7411 90.6222 56.0132 91.0898 56.2746C91.5663 56.5189 92.0441 56.7649 92.5406 56.9928C93.5402 57.4306 94.5722 57.8337 95.7618 58.093C96.0743 58.1453 96.383 58.2007 96.7045 58.2441C97.0653 58.2565 97.3928 58.2887 97.7865 58.266C97.9957 58.2449 98.2058 58.2192 98.4154 58.1887C98.5273 58.169 98.6093 58.1668 98.7446 58.129C98.8885 58.0857 99.0315 58.0372 99.1729 57.9839C99.4683 57.8775 99.6592 57.7483 99.8992 57.6144C100.098 57.4821 100.28 57.3444 100.456 57.2027C101.106 56.6459 101.51 56.0935 101.866 55.5629C102.221 55.0328 102.502 54.5018 102.754 53.9811C103.261 52.9414 103.656 51.9112 103.977 50.8741C104.628 48.7957 105.068 46.7528 105.254 44.5825C105.343 43.5433 104.577 42.6281 103.543 42.5384C102.687 42.4641 101.916 42.9788 101.625 43.748L101.601 43.815Z" fill="url(#paint16_linear_4821_37998)"/>
    <path d="M88.3855 53.2616L87.5483 51.2638L83.1421 50.1602C83.1421 50.1602 82.7894 50.9281 84.6403 51.2638C84.6403 51.2638 83.9793 51.9983 84.332 52.8624C84.6847 53.7256 88.4299 54.591 88.3855 53.2616Z" fill="url(#paint17_linear_4821_37998)"/>
    <path d="M104.467 30.321C104.3 30.4201 102.98 35.1004 104.086 37.0625C105.192 39.0246 108.569 36.8268 109.485 33.9894C110.4 31.152 108.929 27.675 104.467 30.321Z" fill="url(#paint18_linear_4821_37998)"/>
    <path d="M113.22 33.9894C113.978 37.7209 116.488 36.6997 118.266 38.3601C121.148 41.0507 125.27 38.2773 129.277 40.827C132.17 42.6677 133.564 47.3775 132.176 51.1799C130.252 56.4465 123.681 58.6121 120.276 57.0079C117.022 55.4751 117.485 50.8837 113.106 49.1092C111.247 48.3558 110.329 48.8452 109.216 47.7287C107.267 45.7743 107.793 41.9813 107.995 40.5201C108.435 37.3496 109.492 36.7757 108.987 35.3819C108.004 32.6716 103.419 33.2309 103.037 31.3177C102.689 29.5753 106.012 26.2726 109.139 26.7933C113.978 27.5986 112.883 32.3269 113.22 33.9894Z" fill="url(#paint19_linear_4821_37998)"/>
    <path opacity="0.6" d="M130.731 50.2878C130.788 50.2878 130.84 50.2487 130.854 50.1904C131.474 47.6049 131.193 45.4844 130.019 43.888C128.071 41.2382 124.284 40.9763 124.246 40.9737C124.186 40.9639 124.116 41.0227 124.112 41.0931C124.107 41.163 124.16 41.2236 124.23 41.2279C124.267 41.23 127.939 41.4863 129.816 44.0408C130.943 45.5737 131.209 47.6225 130.608 50.1307C130.592 50.1989 130.634 50.268 130.702 50.2844C130.711 50.2865 130.721 50.2878 130.731 50.2878Z" fill="white"/>
    <path opacity="0.72" d="M118.326 52.6543C118.331 52.6543 118.337 52.6534 118.342 52.6521C118.376 52.6431 118.396 52.6084 118.388 52.5744C117.784 50.247 116.726 48.6304 115.241 47.7698C114.161 47.1435 113.15 47.0851 112.258 47.034C111.398 46.9842 110.655 46.9413 110.057 46.4069C108.821 45.3019 108.893 42.6448 110.27 38.5098C110.281 38.4763 110.263 38.4402 110.229 38.4291C110.196 38.4179 110.16 38.436 110.149 38.4694C108.754 42.6573 108.695 45.3595 109.972 46.5017C110.603 47.0658 111.366 47.11 112.25 47.1611C113.128 47.2117 114.123 47.2692 115.177 47.8805C116.631 48.7236 117.67 50.314 118.265 52.6071C118.272 52.6354 118.298 52.6543 118.326 52.6543Z" fill="white"/>
    <path opacity="0.72" d="M111.428 33.0648C111.434 33.0648 111.441 33.064 111.448 33.0618C111.481 33.0507 111.499 33.0142 111.488 32.9811C111.008 31.5465 109.626 31.7594 108.162 31.9861C107.235 32.1295 106.277 32.2767 105.464 32.035C104.858 31.8543 104.498 31.574 104.393 31.2023C104.215 30.5691 104.838 29.8634 104.845 29.8561C104.868 29.8299 104.866 29.7896 104.84 29.7664C104.814 29.7428 104.774 29.7449 104.751 29.7711C104.723 29.802 104.075 30.5356 104.271 31.2366C104.388 31.653 104.777 31.9629 105.428 32.1569C106.268 32.4072 107.24 32.257 108.181 32.1119C109.651 31.8852 110.922 31.6882 111.367 33.0219C111.376 33.0481 111.401 33.0648 111.428 33.0648Z" fill="white"/>
    <defs>
        <linearGradient id="paint0_linear_4821_37998" x1="216.093" y1="249.442" x2="44.1483" y2="37.4977" gradientUnits="userSpaceOnUse">
            <stop stop-color="#B37CFF"/>
            <stop offset="1" stop-color="#F895E7"/>
        </linearGradient>
        <linearGradient id="paint1_linear_4821_37998" x1="153.191" y1="83.4799" x2="99.417" y2="79.052" gradientUnits="userSpaceOnUse">
            <stop stop-color="#B37CFF"/>
            <stop offset="1" stop-color="#F895E7"/>
        </linearGradient>
        <linearGradient id="paint2_linear_4821_37998" x1="135.22" y1="46.8655" x2="104.129" y2="36.9434" gradientUnits="userSpaceOnUse">
            <stop stop-color="#A737D5"/>
            <stop offset="1" stop-color="#EF497A"/>
        </linearGradient>
        <linearGradient id="paint3_linear_4821_37998" x1="37.9785" y1="43.9252" x2="65.8703" y2="38.5472" gradientUnits="userSpaceOnUse">
            <stop stop-color="#A737D5"/>
            <stop offset="1" stop-color="#EF497A"/>
        </linearGradient>
        <linearGradient id="paint4_linear_4821_37998" x1="116.226" y1="-0.0483923" x2="-10.8113" y2="229.209" gradientUnits="userSpaceOnUse">
            <stop stop-color="#2B3582"/>
            <stop offset="1" stop-color="#150E42"/>
        </linearGradient>
        <linearGradient id="paint5_linear_4821_37998" x1="90.4651" y1="13.7522" x2="66.5397" y2="163.899" gradientUnits="userSpaceOnUse">
            <stop stop-color="#53D8FF"/>
            <stop offset="1" stop-color="#3840F7"/>
        </linearGradient>
        <linearGradient id="paint6_linear_4821_37998" x1="78.4261" y1="-65.8941" x2="82.7777" y2="-21.7453" gradientUnits="userSpaceOnUse">
            <stop stop-color="#53D8FF"/>
            <stop offset="1" stop-color="#3840F7"/>
        </linearGradient>
        <linearGradient id="paint7_linear_4821_37998" x1="88.1411" y1="-2.38101" x2="77.6381" y2="61.3466" gradientUnits="userSpaceOnUse">
            <stop stop-color="#53D8FF"/>
            <stop offset="1" stop-color="#3840F7"/>
        </linearGradient>
        <linearGradient id="paint8_linear_4821_37998" x1="119.479" y1="117.069" x2="103.75" y2="76.793" gradientUnits="userSpaceOnUse">
            <stop stop-color="#F9B776"/>
            <stop offset="1" stop-color="#F47960"/>
        </linearGradient>
        <linearGradient id="paint9_linear_4821_37998" x1="119.715" y1="246.803" x2="67.6571" y2="-358.357" gradientUnits="userSpaceOnUse">
            <stop stop-color="#F9B776"/>
            <stop offset="1" stop-color="#F47960"/>
        </linearGradient>
        <linearGradient id="paint10_linear_4821_37998" x1="117.865" y1="53.2645" x2="111.26" y2="53.2645" gradientUnits="userSpaceOnUse">
            <stop stop-color="#F9B776"/>
            <stop offset="1" stop-color="#F47960"/>
        </linearGradient>
        <linearGradient id="paint11_linear_4821_37998" x1="106.437" y1="118.213" x2="90.6048" y2="94.0533" gradientUnits="userSpaceOnUse">
            <stop stop-color="#CB236D"/>
            <stop offset="1" stop-color="#4C246D"/>
        </linearGradient>
        <linearGradient id="paint12_linear_4821_37998" x1="120.594" y1="125.594" x2="103.018" y2="95.379" gradientUnits="userSpaceOnUse">
            <stop stop-color="#CB236D"/>
            <stop offset="1" stop-color="#4C246D"/>
        </linearGradient>
        <linearGradient id="paint13_linear_4821_37998" x1="112.928" y1="63.0839" x2="90.7823" y2="105.842" gradientUnits="userSpaceOnUse">
            <stop stop-color="#CB236D"/>
            <stop offset="1" stop-color="#4C246D"/>
        </linearGradient>
        <linearGradient id="paint14_linear_4821_37998" x1="110.65" y1="38.4455" x2="105.959" y2="38.4455" gradientUnits="userSpaceOnUse">
            <stop stop-color="#F9B776"/>
            <stop offset="1" stop-color="#F47960"/>
        </linearGradient>
        <linearGradient id="paint15_linear_4821_37998" x1="102.198" y1="43.5535" x2="127.207" y2="75.465" gradientUnits="userSpaceOnUse">
            <stop stop-color="#FDF53F"/>
            <stop offset="1" stop-color="#D93C65"/>
        </linearGradient>
        <linearGradient id="paint16_linear_4821_37998" x1="83.1242" y1="41.1332" x2="123.807" y2="64.3155" gradientUnits="userSpaceOnUse">
            <stop stop-color="#F9B776"/>
            <stop offset="1" stop-color="#F47960"/>
        </linearGradient>
        <linearGradient id="paint17_linear_4821_37998" x1="79.0932" y1="48.2082" x2="119.775" y2="71.3888" gradientUnits="userSpaceOnUse">
            <stop stop-color="#F9B776"/>
            <stop offset="1" stop-color="#F47960"/>
        </linearGradient>
        <linearGradient id="paint18_linear_4821_37998" x1="102.837" y1="38.4428" x2="112.021" y2="25.0864" gradientUnits="userSpaceOnUse">
            <stop stop-color="#F9B776"/>
            <stop offset="1" stop-color="#F47960"/>
        </linearGradient>
        <linearGradient id="paint19_linear_4821_37998" x1="107.665" y1="28.8671" x2="120.667" y2="45.6799" gradientUnits="userSpaceOnUse">
            <stop stop-color="#2B3582"/>
            <stop offset="1" stop-color="#150E42"/>
        </linearGradient>
    </defs>
</svg>
