<svg width="193" height="192" viewBox="0 0 193 192" fill="none" xmlns="http://www.w3.org/2000/svg">
    <path opacity="0.3" d="M170.629 164.993C166.666 169.124 162.916 171.789 159.953 173.894C125.127 198.636 83.9192 191.424 75.1614 189.662C62.2286 187.061 37.2301 182.034 19.1566 160.989C-8.18691 129.148 -3.9295 78.9853 17.28 45.8719C21.1599 39.8149 41.6523 6.19725 83.3043 0.805646C108.511 -2.45722 137.895 4.12361 159.174 21.7757C203.841 58.8299 200.661 133.686 170.629 164.993Z" fill="url(#paint0_linear_4821_37711)"/>
    <path d="M46.3392 103.724C46.3392 104.747 47.1855 105.584 48.2202 105.584H149.929C150.963 105.584 151.81 104.747 151.81 103.724L152.656 45.8346C152.656 44.8111 151.439 42.8129 149.207 42.9628L49.8063 40.4156C48.5084 40.3824 47.2531 40.8771 46.3341 41.7844C45.415 42.6917 44.9121 43.9324 44.9427 45.2166L46.3392 103.724Z" fill="url(#paint1_linear_4821_37711)"/>
    <path d="M48.1929 101.938C48.1929 102.907 48.9937 103.7 49.9723 103.7H147.473C148.451 103.7 149.252 102.907 149.252 101.938L150.051 49.3856C149.957 46.2233 147.157 45.0865 145.46 45.1535L50.1938 42.6223C49.282 42.5979 48.4003 42.9461 47.7546 43.5839C47.1089 44.2218 46.7535 45.095 46.7764 45.9981L48.1929 101.938Z" fill="url(#paint2_linear_4821_37711)"/>
    <path d="M148.2 76.9778C148.199 76.9778 148.198 76.9778 148.196 76.9778C148.052 76.9757 147.937 76.8587 147.939 76.7155L148.002 72.4535C148.005 72.3121 148.121 72.1992 148.263 72.1992C148.264 72.1992 148.266 72.1992 148.267 72.1992C148.411 72.2013 148.526 72.3184 148.524 72.4615L148.461 76.7235C148.459 76.8646 148.342 76.9778 148.2 76.9778Z" fill="white"/>
    <path d="M148.356 66.5325C148.355 66.5325 148.354 66.5325 148.352 66.5325C148.208 66.5304 148.093 66.4129 148.096 66.2702L148.337 49.9471C148.333 48.9775 148.036 48.2033 147.454 47.6513C146.368 46.6211 144.645 46.6737 144.572 46.6771L114.123 45.8683C113.979 45.8645 113.865 45.7458 113.869 45.6035C113.873 45.4607 113.984 45.3395 114.137 45.3525L144.568 46.1613C144.757 46.1504 146.593 46.1188 147.815 47.2787C148.502 47.9313 148.854 48.8302 148.859 49.9501L148.617 66.2782C148.615 66.4196 148.498 66.5325 148.356 66.5325Z" fill="white"/>
    <path d="M38.3281 110.391H157.758C157.89 110.391 157.998 110.284 157.998 110.153V105.543C157.998 105.412 157.89 105.305 157.758 105.305H38.3281C38.1959 105.305 38.0879 105.412 38.0879 105.543V110.153C38.0875 110.284 38.1959 110.391 38.3281 110.391Z" fill="url(#paint3_linear_4821_37711)"/>
    <path d="M68.0025 46.3674C68.4412 51.0091 69.4704 57.146 70.7078 62.4344H71.4849C69.8848 56.0526 68.4123 47.313 68.8459 37.2383C69.2833 27.0787 71.7497 14.7435 67.1502 8.85091C63.3222 3.94685 47.0783 3.21342 41.7366 3.10564C41.0692 3.09217 40.687 3.86769 41.1023 4.39481C43.1504 6.9942 47.4384 13.0136 47.8121 18.27C48.3043 25.1984 53.6427 30.6363 58.9466 32.9001C64.2506 35.164 67.1072 36.8906 68.0025 46.3674Z" fill="url(#paint4_linear_4821_37711)"/>
    <path d="M48.4143 7.39041C51.6999 8.23162 54.8078 9.74351 57.5267 11.8145C58.8887 12.846 60.1232 14.0577 61.1877 15.4109C62.2406 16.7716 63.1253 18.2785 63.7391 19.8973L63.9665 20.5053C64.0409 20.7082 64.0966 20.9179 64.1621 21.1237C64.2229 21.3305 64.2913 21.5389 64.3449 21.7443L64.5073 22.3599C64.7253 23.1804 64.94 24.0018 65.1458 24.8258C65.5602 26.4728 65.9483 28.1266 66.3114 29.7858C67.0387 33.1043 67.664 36.4452 68.0862 39.823C68.0964 39.9039 68.0394 39.978 67.9591 39.9881C67.8817 39.9977 67.8103 39.9447 67.7967 39.8681L67.7958 39.8634C67.4961 38.2008 67.1641 36.5378 66.8011 34.8848C66.4457 33.2298 66.0703 31.579 65.6771 29.9324L65.079 27.4652L64.4541 25.0047C64.2462 24.1846 64.0303 23.3661 63.8101 22.5489L63.6464 21.9359C63.592 21.7313 63.527 21.5376 63.4679 21.3376C63.4058 21.1397 63.354 20.9385 63.2838 20.7436L63.0692 20.16C62.4923 18.6027 61.6421 17.1607 60.6508 15.8323C60.1407 15.1785 59.6067 14.5398 59.0146 13.9563L58.7965 13.7335L58.5699 13.5192C58.4182 13.3769 58.2702 13.2308 58.1159 13.0915C57.803 12.8174 57.4931 12.5395 57.165 12.2823C55.8727 11.2297 54.4533 10.3363 52.9782 9.55236C51.5031 8.77095 49.9511 8.11036 48.3582 7.62156L48.351 7.61945C48.2889 7.6005 48.2537 7.53398 48.2728 7.47125C48.2911 7.40978 48.3536 7.37484 48.4143 7.39041Z" fill="white"/>
    <path d="M68.1544 52.6538C70.9324 56.768 70.5757 59.0702 70.6612 61.0203C70.6765 61.3664 70.6952 61.8561 70.7347 62.4341H71.4935C71.3388 61.6405 71.2287 60.8401 71.1896 60.0554C70.9192 54.6701 69.7149 45.4787 65.1111 39.9806C60.5073 34.4825 55.4656 33.9806 49.113 38.979C43.8192 43.1442 40.5171 45.2463 38.5803 45.637C38.1008 45.7339 37.856 46.2799 38.0893 46.7136C39.3315 49.0208 42.8432 54.321 48.7397 53.948C56.261 53.4714 65.3759 48.5391 68.1544 52.6538Z" fill="url(#paint5_linear_4821_37711)"/>
    <path d="M51.2652 45.601C51.6814 45.2014 52.1222 44.8414 52.577 44.4941C53.0319 44.1476 53.5004 43.8179 53.9879 43.5169C54.9601 42.911 55.9978 42.3944 57.1031 42.0383C57.6557 41.8623 58.2249 41.7267 58.8073 41.6518C59.3892 41.5806 59.9844 41.5709 60.5744 41.645C60.7211 41.669 60.8699 41.6829 61.0152 41.7162C61.1598 41.7507 61.309 41.7785 61.4493 41.8189L62.2782 42.0783L63.0893 42.3966L63.8757 42.7776C64.9066 43.3253 65.8388 44.0659 66.6146 44.9378C67.3968 45.8077 68.0085 46.8097 68.5118 47.8475L68.7006 48.2374C68.7656 48.3666 68.8124 48.5031 68.8693 48.6357C68.9765 48.9034 69.0917 49.1679 69.1911 49.4377L69.4704 50.2541C69.5695 50.5244 69.6324 50.8052 69.7123 51.0806C70.0277 52.1841 70.2445 53.3094 70.4324 54.4357C70.4431 54.4984 70.401 54.5582 70.3385 54.5687C70.279 54.5788 70.2224 54.5405 70.2084 54.4824L70.2076 54.4786C69.9427 53.3747 69.6877 52.2691 69.3234 51.2001C69.158 50.66 68.9484 50.137 68.7537 49.6099C68.6487 49.3493 68.5288 49.0954 68.4175 48.8382C68.3588 48.711 68.3091 48.5793 68.2428 48.4563L68.0489 48.0846C67.5358 47.0926 66.9135 46.163 66.1696 45.35C65.4252 44.537 64.5419 43.8663 63.5748 43.3527L62.833 42.9982L62.0644 42.7014L61.275 42.4589C61.144 42.4214 61.0152 42.3966 60.8856 42.3641C60.7559 42.3334 60.6224 42.3208 60.4911 42.2976C59.9614 42.2277 59.4194 42.2319 58.8812 42.2938C58.3422 42.3519 57.8058 42.4664 57.2791 42.6218C56.2235 42.9317 55.2059 43.3944 54.2286 43.9329C53.7418 44.2061 53.2593 44.4916 52.7909 44.8006C52.3241 45.11 51.8625 45.4368 51.4229 45.7803L51.4199 45.7824C51.3681 45.8228 51.2933 45.8136 51.2529 45.7609C51.2159 45.7121 51.2218 45.6426 51.2652 45.601Z" fill="white"/>
    <path d="M137.184 0.428255L66.6058 7.49897e-05C64.2864 -0.0138188 62.4313 1.90478 62.5461 4.19935L67.4015 103.513H145.942L150.302 14.7813L137.184 0.428255Z" fill="url(#paint6_linear_4821_37711)"/>
    <path d="M140.119 14.3555C137.82 14.2755 136.052 12.3127 136.233 10.0417L136.99 0.558594L150.317 14.723L140.119 14.3555Z" fill="url(#paint7_linear_4821_37711)"/>
    <path opacity="0.39" d="M137.514 50.8427H76.289C74.442 50.8427 72.9286 50.007 72.8725 48.9553L71.5934 25.0374C71.5347 23.9394 73.0813 23.0312 75.0099 23.0312H137.514C139.402 23.0312 140.932 23.9028 140.932 24.9781V48.8959C140.932 49.9708 139.402 50.8427 137.514 50.8427Z" fill="white"/>
    <path d="M137.415 51.0561H76.1904C74.2163 51.0561 72.6209 50.1378 72.5584 48.9657L71.2793 25.0478C71.2576 24.642 71.4208 24.2449 71.7515 23.8993C72.3913 23.2311 73.602 22.8164 74.9113 22.8164H137.415C139.453 22.8164 141.049 23.7654 141.049 24.9771V48.895C141.049 50.1067 139.453 51.0561 137.415 51.0561ZM74.9113 23.2442C73.7163 23.2442 72.626 23.6079 72.0648 24.1936C71.814 24.4554 71.695 24.735 71.7103 25.0251L72.9894 48.943C73.0392 49.8722 74.4751 50.6279 76.19 50.6279H137.415C139.15 50.6279 140.617 49.8343 140.617 48.895V24.9771C140.617 24.0378 139.151 23.2442 137.415 23.2442H74.9113Z" fill="white"/>
    <path d="M89.3763 22.8411L89.2383 50.8438L89.6702 50.8458L89.8082 22.8432L89.3763 22.8411Z" fill="white"/>
    <path d="M125.374 22.8372L125.236 50.8398L125.668 50.8419L125.806 22.8393L125.374 22.8372Z" fill="white"/>
    <path d="M89.592 30.4355L89.5898 30.8633L140.832 31.1118L140.834 30.6841L89.592 30.4355Z" fill="white"/>
    <path d="M140.829 41.4414H89.4512V41.8692H140.829V41.4414Z" fill="white"/>
    <path opacity="0.39" d="M137.619 97.3388H76.3945C74.5475 97.3388 73.0341 96.5031 72.978 95.4513L71.6989 71.5335C71.6402 70.4355 73.1867 69.5273 75.1154 69.5273H137.619C139.507 69.5273 141.037 70.3989 141.037 71.4741V95.392C141.037 96.4673 139.507 97.3388 137.619 97.3388Z" fill="white"/>
    <path d="M137.521 97.5521H76.2959C74.3217 97.5521 72.7263 96.6339 72.6638 95.4618L71.3847 71.5439C71.363 71.1381 71.5263 70.741 71.857 70.3954C72.4968 69.7272 73.7075 69.3125 75.0168 69.3125H137.521C139.558 69.3125 141.155 70.2615 141.155 71.4732V95.391C141.155 96.6028 139.558 97.5521 137.521 97.5521ZM75.0168 69.7403C73.8222 69.7403 72.7314 70.104 72.1707 70.6897C71.9199 70.9515 71.8005 71.2311 71.8162 71.5212L73.0953 95.439C73.1451 96.3682 74.581 97.124 76.2959 97.124H137.521C139.256 97.124 140.723 96.3303 140.723 95.391V71.4732C140.723 70.5339 139.257 69.7403 137.521 69.7403H75.0168V69.7403Z" fill="white"/>
    <path d="M89.4817 69.3333L89.3438 97.3359L89.7757 97.338L89.9137 69.3354L89.4817 69.3333Z" fill="white"/>
    <path d="M125.482 69.3333L125.344 97.3359L125.776 97.338L125.914 69.3354L125.482 69.3333Z" fill="white"/>
    <path d="M89.6994 76.9316L89.6973 77.3594L140.939 77.6079L140.942 77.1801L89.6994 76.9316Z" fill="white"/>
    <path d="M140.934 87.9375H89.5566V88.3652H140.934V87.9375Z" fill="white"/>
    <path opacity="0.55" d="M134.137 18.3015H76.91C76.728 18.3015 76.5801 18.1554 76.5801 17.9748V13.7056C76.5801 13.5254 76.7276 13.3789 76.91 13.3789H134.138C134.32 13.3789 134.468 13.525 134.468 13.7056V17.9748C134.467 18.1554 134.32 18.3015 134.137 18.3015Z" fill="white"/>
    <path opacity="0.42" d="M139.776 59.1845H73.3461C73.1841 59.1845 73.0527 59.0544 73.0527 58.894V55.7671C73.0527 55.6067 73.1841 55.4766 73.3461 55.4766H139.776C139.938 55.4766 140.069 55.6067 140.069 55.7671V58.894C140.069 59.0544 139.938 59.1845 139.776 59.1845Z" fill="white"/>
    <path opacity="0.42" d="M139.582 64.8915H73.1527C72.9907 64.8915 72.8594 64.7614 72.8594 64.601V61.4741C72.8594 61.3137 72.9907 61.1836 73.1527 61.1836H139.582C139.744 61.1836 139.876 61.3137 139.876 61.4741V64.601C139.876 64.7618 139.744 64.8915 139.582 64.8915Z" fill="white"/>
    <path d="M51.5631 60.949C51.2906 70.582 50.4073 103.811 50.829 115.585C50.8736 116.833 52.0142 117.834 53.437 117.875C60.4732 118.077 86.2677 118.589 97.7767 118.165C100.174 118.077 102.08 116.374 102.13 114.271C102.369 104.16 102.897 75.7206 101.643 62.6929C101.492 61.1321 100.095 59.8889 98.3175 59.7331C90.6547 59.0607 64.7492 57.4179 54.8062 57.9837C53.0131 58.086 51.6078 59.374 51.5631 60.949Z" fill="url(#paint8_linear_4821_37711)"/>
    <path d="M53.584 65.198V73.3616C53.584 74.927 54.8652 76.1964 56.4462 76.1964H95.8285C97.409 76.1964 98.6907 74.9274 98.6907 73.3616V65.198C98.6907 63.6327 97.4094 62.3633 95.8285 62.3633H56.4462C54.8657 62.3633 53.584 63.6327 53.584 65.198Z" fill="url(#paint9_linear_4821_37711)"/>
    <path opacity="0.2" d="M96.6828 65.1531C96.3347 64.7965 95.8577 64.5919 95.3569 64.5839L58.5065 64.0041C57.5211 63.9886 56.6901 64.7266 56.5982 65.6979L55.8326 73.795C55.7697 74.4581 56.8712 75.0164 58.2753 75.0332L94.5042 75.4681C95.9062 75.485 97.065 74.9553 97.0765 74.2926L97.2129 66.4848C97.2218 65.9884 97.031 65.5097 96.6828 65.1531Z" fill="white"/>
    <path opacity="0.63" d="M63.4288 84.4711C63.4288 85.9114 62.25 87.0789 60.7957 87.0789H57.5901C56.1358 87.0789 54.957 85.9114 54.957 84.4711C54.957 83.0308 56.1358 81.8633 57.5901 81.8633H60.7957C62.25 81.8633 63.4288 83.0308 63.4288 84.4711Z" fill="url(#paint10_linear_4821_37711)"/>
    <path opacity="0.63" d="M75.3351 84.4711C75.3351 85.9114 74.1563 87.0789 72.702 87.0789H69.4963C68.0421 87.0789 66.8633 85.9114 66.8633 84.4711C66.8633 83.0308 68.0421 81.8633 69.4963 81.8633H72.702C74.1563 81.8633 75.3351 83.0308 75.3351 84.4711Z" fill="url(#paint11_linear_4821_37711)"/>
    <path opacity="0.63" d="M86.7843 84.4711C86.7843 85.9114 85.6055 87.0789 84.1512 87.0789H80.9456C79.4913 87.0789 78.3125 85.9114 78.3125 84.4711C78.3125 83.0308 79.4913 81.8633 80.9456 81.8633H84.1512C85.6055 81.8633 86.7843 83.0308 86.7843 84.4711Z" fill="url(#paint12_linear_4821_37711)"/>
    <path d="M98.3907 84.8569C98.3907 86.3204 97.1927 87.5069 95.7151 87.5069H92.617C91.1393 87.5069 89.9414 86.3204 89.9414 84.8569C89.9414 83.3935 91.1393 82.207 92.617 82.207H95.7151C97.1927 82.207 98.3907 83.3935 98.3907 84.8569Z" fill="url(#paint13_linear_4821_37711)"/>
    <path opacity="0.63" d="M63.4288 92.6352C63.4288 94.0755 62.25 95.243 60.7957 95.243H57.5901C56.1358 95.243 54.957 94.0755 54.957 92.6352C54.957 91.1948 56.1358 90.0273 57.5901 90.0273H60.7957C62.25 90.0273 63.4288 91.1948 63.4288 92.6352Z" fill="url(#paint14_linear_4821_37711)"/>
    <path opacity="0.63" d="M75.3351 92.6352C75.3351 94.0755 74.1563 95.243 72.702 95.243H69.4963C68.0421 95.243 66.8633 94.0755 66.8633 92.6352C66.8633 91.1948 68.0421 90.0273 69.4963 90.0273H72.702C74.1563 90.0273 75.3351 91.1948 75.3351 92.6352Z" fill="url(#paint15_linear_4821_37711)"/>
    <path opacity="0.63" d="M86.7843 92.6352C86.7843 94.0755 85.6055 95.243 84.1512 95.243H80.9456C79.4913 95.243 78.3125 94.0755 78.3125 92.6352C78.3125 91.1948 79.4913 90.0273 80.9456 90.0273H84.1512C85.6055 90.0273 86.7843 91.1948 86.7843 92.6352Z" fill="url(#paint16_linear_4821_37711)"/>
    <path d="M98.6905 92.6352C98.6905 94.0755 97.5117 95.243 96.0575 95.243H92.8518C91.3975 95.243 90.2188 94.0755 90.2188 92.6352C90.2188 91.1948 91.3975 90.0273 92.8518 90.0273H96.0575C97.5117 90.0273 98.6905 91.1948 98.6905 92.6352Z" fill="url(#paint17_linear_4821_37711)"/>
    <path opacity="0.63" d="M63.4288 99.8656C63.4288 101.306 62.25 102.473 60.7957 102.473H57.5901C56.1358 102.473 54.957 101.306 54.957 99.8656C54.957 98.4253 56.1358 97.2578 57.5901 97.2578H60.7957C62.25 97.2578 63.4288 98.4253 63.4288 99.8656Z" fill="url(#paint18_linear_4821_37711)"/>
    <path opacity="0.63" d="M75.3351 99.8656C75.3351 101.306 74.1563 102.473 72.702 102.473H69.4963C68.0421 102.473 66.8633 101.306 66.8633 99.8656C66.8633 98.4253 68.0421 97.2578 69.4963 97.2578H72.702C74.1563 97.2578 75.3351 98.4253 75.3351 99.8656Z" fill="url(#paint19_linear_4821_37711)"/>
    <path opacity="0.63" d="M86.7823 99.8656C86.7823 101.306 85.6035 102.473 84.1493 102.473H80.9436C79.4893 102.473 78.3105 101.306 78.3105 99.8656C78.3105 98.4253 79.4893 97.2578 80.9436 97.2578H84.1493C85.6035 97.2578 86.7823 98.4253 86.7823 99.8656Z" fill="url(#paint20_linear_4821_37711)"/>
    <path opacity="0.63" d="M63.4288 107.799C63.4288 109.24 62.25 110.407 60.7957 110.407H57.5901C56.1358 110.407 54.957 109.24 54.957 107.799C54.957 106.359 56.1358 105.191 57.5901 105.191H60.7957C62.25 105.191 63.4288 106.359 63.4288 107.799Z" fill="url(#paint21_linear_4821_37711)"/>
    <path opacity="0.63" d="M75.3351 107.799C75.3351 109.24 74.1563 110.407 72.702 110.407H69.4963C68.0421 110.407 66.8633 109.24 66.8633 107.799C66.8633 106.359 68.0421 105.191 69.4963 105.191H72.702C74.1563 105.191 75.3351 106.359 75.3351 107.799Z" fill="url(#paint22_linear_4821_37711)"/>
    <path opacity="0.63" d="M86.7823 107.799C86.7823 109.24 85.6035 110.407 84.1493 110.407H80.9436C79.4893 110.407 78.3105 109.24 78.3105 107.799C78.3105 106.359 79.4893 105.191 80.9436 105.191H84.1493C85.6035 105.191 86.7823 106.359 86.7823 107.799Z" fill="url(#paint23_linear_4821_37711)"/>
    <path d="M97.5445 107.589C97.5445 109.412 96.0524 110.89 94.2117 110.89H94.0085C92.1679 110.89 90.6758 109.412 90.6758 107.589V101.266C90.6758 99.4426 92.1679 97.9648 94.0085 97.9648H94.2117C96.0524 97.9648 97.5445 99.4426 97.5445 101.266V107.589Z" fill="url(#paint24_linear_4821_37711)"/>
    <g opacity="0.7">
        <path opacity="0.7" d="M92.9666 66.3288C92.9666 66.642 92.7103 66.8959 92.394 66.8959H90.7914C90.4751 66.8959 90.2188 66.642 90.2188 66.3288C90.2188 66.0156 90.4751 65.7617 90.7914 65.7617H92.394C92.7103 65.7621 92.9666 66.016 92.9666 66.3288Z" fill="white"/>
        <path opacity="0.7" d="M92.9666 74.0398C92.9666 74.353 92.7103 74.6069 92.394 74.6069H90.7914C90.4751 74.6069 90.2188 74.353 90.2188 74.0398C90.2188 73.7265 90.4751 73.4727 90.7914 73.4727H92.394C92.7103 73.4731 92.9666 73.7269 92.9666 74.0398Z" fill="white"/>
        <path opacity="0.7" d="M90.4479 69.506C90.4479 69.8192 90.1916 70.0731 89.8753 70.0731C89.5591 70.0731 89.3027 69.8192 89.3027 69.506V67.9187C89.3027 67.6054 89.5591 67.3516 89.8753 67.3516C90.1916 67.3516 90.4479 67.6054 90.4479 67.9187V69.506Z" fill="white"/>
        <path opacity="0.7" d="M90.4479 72.6778C90.4479 72.9911 90.1916 73.2449 89.8753 73.2449C89.5591 73.2449 89.3027 72.9911 89.3027 72.6778V71.0906C89.3027 70.7773 89.5591 70.5234 89.8753 70.5234C90.1916 70.5234 90.4479 70.7773 90.4479 71.0906V72.6778Z" fill="white"/>
        <path opacity="0.7" d="M94.3405 69.506C94.3405 69.8192 94.0842 70.0731 93.7679 70.0731C93.4516 70.0731 93.1953 69.8192 93.1953 69.506V67.9187C93.1953 67.6054 93.4516 67.3516 93.7679 67.3516C94.0842 67.3516 94.3405 67.6054 94.3405 67.9187V69.506Z" fill="white"/>
        <path opacity="0.7" d="M94.3405 72.6778C94.3405 72.9911 94.0842 73.2449 93.7679 73.2449C93.4516 73.2449 93.1953 72.9911 93.1953 72.6778V71.0906C93.1953 70.7773 93.4516 70.5234 93.7679 70.5234C94.0842 70.5234 94.3405 70.7773 94.3405 71.0906V72.6778Z" fill="white"/>
    </g>
    <path d="M100.445 48.6856C104.11 48.6856 107.08 45.7435 107.08 42.1143C107.08 38.485 104.11 35.543 100.445 35.543C96.7811 35.543 93.8105 38.485 93.8105 42.1143C93.8105 45.7435 96.7811 48.6856 100.445 48.6856Z" fill="url(#paint25_linear_4821_37711)"/>
    <path d="M100.446 48.4673C103.988 48.4673 106.86 45.6231 106.86 42.1145C106.86 38.606 103.988 35.7617 100.446 35.7617C96.903 35.7617 94.0312 38.606 94.0312 42.1145C94.0312 45.6231 96.903 48.4673 100.446 48.4673Z" fill="url(#paint26_linear_4821_37711)"/>
    <path d="M94.8415 40.521C94.8096 40.5261 94.7756 40.524 94.7424 40.513C94.6297 40.4768 94.5677 40.3568 94.6042 40.2457C95.3222 38.0483 97.1982 36.4632 99.5005 36.1083C99.8678 36.0514 100.241 36.0279 100.609 36.0371C100.727 36.0401 100.821 36.1377 100.818 36.2548C100.815 36.3722 100.717 36.4657 100.598 36.4615C100.255 36.4531 99.9082 36.4754 99.5664 36.528C97.4252 36.8581 95.6802 38.3325 95.0123 40.3762C94.9868 40.4553 94.9192 40.5092 94.8415 40.521Z" fill="white"/>
    <path opacity="0.78" d="M104.444 46.0325C106.564 43.9327 106.564 40.5283 104.444 38.4285C102.324 36.3287 98.8866 36.3287 96.7665 38.4285C94.6464 40.5283 94.6464 43.9327 96.7665 46.0325C98.8866 48.1322 102.324 48.1322 104.444 46.0325Z" fill="white"/>
    <path d="M100.699 46.2565L100.608 45.6785C99.996 45.7484 99.3719 45.6987 98.9154 45.5791C98.7526 45.5366 98.648 45.3787 98.6667 45.2128L98.7305 44.6516C98.7538 44.4457 98.9545 44.3101 99.1577 44.3598C99.6091 44.4705 100.155 44.5291 100.719 44.4419C101.305 44.3514 101.711 44.0874 101.648 43.6841C101.591 43.3203 101.219 43.1557 100.37 43.0652C99.1589 42.9296 98.2458 42.5566 98.0864 41.5432C97.9427 40.6283 98.5081 39.8258 99.6508 39.4583L99.5598 38.8802C99.5305 38.6941 99.6593 38.5198 99.8468 38.4908L100.19 38.4377C100.378 38.4087 100.554 38.5362 100.583 38.7219L100.664 39.241C101.231 39.1766 101.656 39.2086 101.999 39.2718C102.174 39.3042 102.293 39.468 102.274 39.6439L102.215 40.1631C102.193 40.3631 102.002 40.5003 101.803 40.459C101.486 40.3929 101.045 40.3416 100.495 40.4266C99.7991 40.534 99.6457 40.8498 99.6856 41.1053C99.735 41.4202 100.186 41.5722 101.134 41.7082C102.485 41.8926 103.105 42.3414 103.255 43.2955C103.392 44.1708 102.861 45.0591 101.62 45.452L101.722 46.0986C101.751 46.2847 101.622 46.459 101.435 46.4877L101.092 46.5407C100.904 46.5698 100.728 46.4426 100.699 46.2565Z" fill="url(#paint27_linear_4821_37711)"/>
    <path d="M115.436 35.758C121.416 35.758 126.264 30.9564 126.264 25.0333C126.264 19.1102 121.416 14.3086 115.436 14.3086C109.456 14.3086 104.607 19.1102 104.607 25.0333C104.607 30.9564 109.456 35.758 115.436 35.758Z" fill="url(#paint28_linear_4821_37711)"/>
    <path d="M115.435 35.4042C121.217 35.4042 125.904 30.7622 125.904 25.0361C125.904 19.3099 121.217 14.668 115.435 14.668C109.654 14.668 104.967 19.3099 104.967 25.0361C104.967 30.7622 109.654 35.4042 115.435 35.4042Z" fill="url(#paint29_linear_4821_37711)"/>
    <path d="M106.269 22.2933C106.239 22.298 106.207 22.2959 106.176 22.2858C106.07 22.2521 106.013 22.1397 106.047 22.0352C107.201 18.5029 110.218 15.954 113.919 15.3831C114.509 15.2921 115.11 15.2534 115.702 15.269C115.813 15.2719 115.901 15.3633 115.898 15.4732C115.895 15.5831 115.803 15.6711 115.692 15.6668C115.123 15.6521 114.548 15.6892 113.981 15.7767C110.431 16.3241 107.537 18.7694 106.43 22.1578C106.405 22.2319 106.342 22.282 106.269 22.2933Z" fill="white"/>
    <path opacity="0.78" d="M121.961 31.4277C125.421 28.0008 125.421 22.4446 121.961 19.0176C118.501 15.5906 112.891 15.5906 109.431 19.0176C105.971 22.4446 105.971 28.0008 109.431 31.4277C112.891 34.8547 118.501 34.8547 121.961 31.4277Z" fill="white"/>
    <path d="M115.851 31.8022L115.702 30.8587C114.703 30.9724 113.685 30.8919 112.94 30.697C112.674 30.6275 112.503 30.3703 112.534 30.0992L112.638 29.183C112.676 28.847 113.004 28.6256 113.335 28.7068C114.072 28.8875 114.962 28.983 115.883 28.8407C116.84 28.6934 117.502 28.2622 117.399 27.6038C117.305 27.0097 116.698 26.7415 115.314 26.5933C113.337 26.3718 111.846 25.763 111.587 24.1097C111.352 22.6167 112.275 21.3069 114.14 20.707L113.991 19.7635C113.944 19.4599 114.153 19.1753 114.46 19.1281L115.019 19.0418C115.326 18.9947 115.613 19.2022 115.661 19.5058L115.794 20.3529C116.718 20.2476 117.412 20.3003 117.971 20.403C118.258 20.4556 118.452 20.723 118.42 21.0101L118.325 21.8572C118.289 22.1839 117.978 22.4075 117.653 22.3401C117.135 22.2323 116.415 22.1486 115.516 22.2871C114.382 22.4622 114.131 22.9776 114.196 23.3948C114.277 23.9084 115.013 24.1568 116.559 24.3787C118.765 24.6798 119.776 25.4119 120.021 26.9693C120.246 28.3982 119.378 29.8474 117.354 30.4882L117.519 31.5437C117.567 31.8472 117.357 32.1319 117.051 32.179L116.491 32.2653C116.185 32.3133 115.898 32.1058 115.851 31.8022Z" fill="url(#paint30_linear_4821_37711)"/>
    <path d="M126.535 58.606C132.689 58.606 137.677 53.6653 137.677 47.5706C137.677 41.4759 132.689 36.5352 126.535 36.5352C120.381 36.5352 115.393 41.4759 115.393 47.5706C115.393 53.6653 120.381 58.606 126.535 58.606Z" fill="url(#paint31_linear_4821_37711)"/>
    <path d="M126.534 58.2398C132.483 58.2398 137.306 53.4632 137.306 47.5711C137.306 41.6789 132.483 36.9023 126.534 36.9023C120.584 36.9023 115.762 41.6789 115.762 47.5711C115.762 53.4632 120.584 58.2398 126.534 58.2398Z" fill="url(#paint32_linear_4821_37711)"/>
    <path d="M117.101 44.7393C117.071 44.7439 117.039 44.7418 117.008 44.7321C116.902 44.698 116.845 44.586 116.879 44.4812C118.066 40.8486 121.168 38.2273 124.975 37.6404C125.582 37.547 126.199 37.507 126.808 37.523C126.919 37.5259 127.007 37.6173 127.004 37.7272C127.001 37.837 126.91 37.9242 126.798 37.9208C126.213 37.9061 125.62 37.944 125.037 38.0341C121.381 38.5978 118.402 41.1151 117.262 44.6037C117.237 44.6778 117.174 44.7283 117.101 44.7393Z" fill="white"/>
    <path opacity="0.78" d="M133.248 54.1466C136.809 50.6203 136.809 44.9031 133.248 41.3768C129.688 37.8506 123.915 37.8506 120.355 41.3768C116.794 44.9031 116.794 50.6203 120.355 54.1466C123.915 57.6729 129.688 57.6729 133.248 54.1466Z" fill="white"/>
    <path d="M126.959 54.5346L126.807 53.5637C125.779 53.6807 124.73 53.5978 123.964 53.3974C123.69 53.3258 123.515 53.061 123.546 52.7823L123.653 51.8396C123.692 51.4939 124.03 51.2662 124.371 51.3495C125.129 51.5352 126.045 51.6337 126.993 51.4876C127.977 51.3361 128.659 50.8923 128.553 50.2149C128.457 49.6035 127.833 49.3278 126.408 49.1754C124.373 48.9476 122.839 48.3211 122.572 46.6198C122.331 45.0834 123.28 43.7357 125.199 43.1185L125.047 42.1476C124.998 41.8352 125.213 41.5426 125.529 41.4942L126.105 41.4054C126.42 41.3565 126.716 41.5704 126.764 41.8828L126.901 42.7543C127.853 42.6461 128.566 42.7 129.142 42.8061C129.437 42.8604 129.637 43.1354 129.604 43.4309L129.507 44.3024C129.469 44.6384 129.149 44.8687 128.815 44.7992C128.282 44.6885 127.541 44.6018 126.616 44.7445C125.449 44.9247 125.191 45.4552 125.258 45.8846C125.341 46.4134 126.099 46.6686 127.689 46.8972C129.959 47.2071 131 47.9603 131.252 49.5627C131.483 51.0329 130.59 52.5242 128.507 53.1839L128.678 54.2702C128.727 54.5826 128.511 54.8752 128.196 54.9236L127.62 55.0124C127.304 55.0604 127.008 54.847 126.959 54.5346Z" fill="url(#paint33_linear_4821_37711)"/>
    <path d="M137.429 36.1166C142.35 36.1166 146.34 32.1652 146.34 27.2907C146.34 22.4163 142.35 18.4648 137.429 18.4648C132.507 18.4648 128.518 22.4163 128.518 27.2907C128.518 32.1652 132.507 36.1166 137.429 36.1166Z" fill="url(#paint34_linear_4821_37711)"/>
    <path d="M137.428 35.8227C142.185 35.8227 146.043 32.0026 146.043 27.2902C146.043 22.5779 142.185 18.7578 137.428 18.7578C132.67 18.7578 128.812 22.5779 128.812 27.2902C128.812 32.0026 132.67 35.8227 137.428 35.8227Z" fill="url(#paint35_linear_4821_37711)"/>
    <path d="M129.894 25.0812C129.861 25.0863 129.827 25.0842 129.793 25.0732C129.677 25.0362 129.614 24.9137 129.651 24.7996C130.607 21.8731 133.107 19.7616 136.173 19.2888C136.662 19.2135 137.158 19.1815 137.65 19.1941C137.771 19.197 137.866 19.2968 137.863 19.4168C137.86 19.5368 137.761 19.6332 137.639 19.6286C137.173 19.6168 136.703 19.6471 136.24 19.7183C133.339 20.1658 130.974 22.164 130.069 24.933C130.042 25.0139 129.973 25.069 129.894 25.0812Z" fill="white"/>
    <path opacity="0.78" d="M142.799 32.5476C145.646 29.7275 145.646 25.1553 142.799 22.3352C139.952 19.5151 135.335 19.5151 132.488 22.3352C129.64 25.1553 129.64 29.7275 132.488 32.5476C135.335 35.3677 139.952 35.3677 142.799 32.5476Z" fill="white"/>
    <path d="M137.771 32.8617L137.649 32.0853C136.827 32.1788 135.988 32.1127 135.375 31.9523C135.156 31.895 135.016 31.6832 135.041 31.4605L135.127 30.7069C135.158 30.4303 135.428 30.2484 135.7 30.3149C136.307 30.4635 137.04 30.5422 137.798 30.4252C138.585 30.304 139.13 29.949 139.045 29.4072C138.968 28.9184 138.469 28.6978 137.329 28.5757C135.702 28.3934 134.476 27.8923 134.262 26.5316C134.069 25.303 134.829 24.2248 136.363 23.7314L136.241 22.955C136.202 22.7053 136.375 22.4713 136.627 22.4321L137.087 22.3609C137.339 22.3222 137.576 22.4931 137.615 22.7428L137.725 23.44C138.486 23.3533 139.056 23.3967 139.517 23.4813C139.753 23.5246 139.912 23.7444 139.886 23.981L139.808 24.6782C139.778 24.9469 139.522 25.1313 139.255 25.0757C138.829 24.9873 138.236 24.9178 137.497 25.0319C136.563 25.1759 136.356 25.6003 136.41 25.9438C136.477 26.3665 137.083 26.5707 138.355 26.7535C140.17 27.0015 141.002 27.6035 141.204 28.8851C141.389 30.061 140.675 31.2538 139.009 31.7813L139.145 32.6503C139.184 32.9 139.012 33.1341 138.759 33.1732L138.299 33.2444C138.047 33.2823 137.81 33.1113 137.771 32.8617Z" fill="url(#paint36_linear_4821_37711)"/>
    <defs>
        <linearGradient id="paint0_linear_4821_37711" x1="218.095" y1="248.668" x2="47.6177" y2="34.848" gradientUnits="userSpaceOnUse">
            <stop stop-color="#B37CFF"/>
            <stop offset="1" stop-color="#F895E7"/>
        </linearGradient>
        <linearGradient id="paint1_linear_4821_37711" x1="108.364" y1="101.134" x2="84.7562" y2="29.6245" gradientUnits="userSpaceOnUse">
            <stop stop-color="#2B3582"/>
            <stop offset="1" stop-color="#150E42"/>
        </linearGradient>
        <linearGradient id="paint2_linear_4821_37711" x1="139.177" y1="37.7859" x2="52.3005" y2="114.8" gradientUnits="userSpaceOnUse">
            <stop stop-color="#FDF53F"/>
            <stop offset="0.6645" stop-color="#E57A58"/>
            <stop offset="1" stop-color="#D93C65"/>
        </linearGradient>
        <linearGradient id="paint3_linear_4821_37711" x1="52.451" y1="96.864" x2="159.345" y2="123.117" gradientUnits="userSpaceOnUse">
            <stop stop-color="#2B3582"/>
            <stop offset="1" stop-color="#150E42"/>
        </linearGradient>
        <linearGradient id="paint4_linear_4821_37711" x1="40.9297" y1="32.7699" x2="74.8907" y2="32.7699" gradientUnits="userSpaceOnUse">
            <stop stop-color="#CE1567"/>
            <stop offset="1" stop-color="#7A1DBC"/>
        </linearGradient>
        <linearGradient id="paint5_linear_4821_37711" x1="38.0001" y1="48.9783" x2="74.5035" y2="48.9783" gradientUnits="userSpaceOnUse">
            <stop stop-color="#A737D5"/>
            <stop offset="1" stop-color="#EF497A"/>
        </linearGradient>
        <linearGradient id="paint6_linear_4821_37711" x1="114.388" y1="-19.5308" x2="83.1601" y2="209.971" gradientUnits="userSpaceOnUse">
            <stop stop-color="#53D8FF"/>
            <stop offset="0.2057" stop-color="#4DB9FD"/>
            <stop offset="1" stop-color="#3840F7"/>
        </linearGradient>
        <linearGradient id="paint7_linear_4821_37711" x1="149.421" y1="-0.302801" x2="176.465" y2="-38.2696" gradientUnits="userSpaceOnUse">
            <stop stop-color="#53D8FF"/>
            <stop offset="0.2057" stop-color="#4DB9FD"/>
            <stop offset="1" stop-color="#3840F7"/>
        </linearGradient>
        <linearGradient id="paint8_linear_4821_37711" x1="73.2013" y1="107.661" x2="87.6168" y2="26.9662" gradientUnits="userSpaceOnUse">
            <stop stop-color="#2B3582"/>
            <stop offset="0.2347" stop-color="#283079"/>
            <stop offset="0.6173" stop-color="#202161"/>
            <stop offset="1" stop-color="#150E42"/>
        </linearGradient>
        <linearGradient id="paint9_linear_4821_37711" x1="72.7493" y1="83.1889" x2="77.4842" y2="63.3717" gradientUnits="userSpaceOnUse">
            <stop stop-color="#A737D5"/>
            <stop offset="1" stop-color="#EF497A"/>
        </linearGradient>
        <linearGradient id="paint10_linear_4821_37711" x1="46.1384" y1="96.9185" x2="80.5036" y2="63.5138" gradientUnits="userSpaceOnUse">
            <stop stop-color="#53D8FF"/>
            <stop offset="1" stop-color="#3840F7"/>
        </linearGradient>
        <linearGradient id="paint11_linear_4821_37711" x1="51.8656" y1="102.81" x2="86.2308" y2="69.4055" gradientUnits="userSpaceOnUse">
            <stop stop-color="#53D8FF"/>
            <stop offset="1" stop-color="#3840F7"/>
        </linearGradient>
        <linearGradient id="paint12_linear_4821_37711" x1="57.3733" y1="108.475" x2="91.7386" y2="75.0707" gradientUnits="userSpaceOnUse">
            <stop stop-color="#53D8FF"/>
            <stop offset="1" stop-color="#3840F7"/>
        </linearGradient>
        <linearGradient id="paint13_linear_4821_37711" x1="96.7801" y1="81.8039" x2="78.1202" y2="104.019" gradientUnits="userSpaceOnUse">
            <stop stop-color="#E40045"/>
            <stop offset="1" stop-color="#5C0E16"/>
        </linearGradient>
        <linearGradient id="paint14_linear_4821_37711" x1="50.2568" y1="101.156" x2="84.622" y2="67.7511" gradientUnits="userSpaceOnUse">
            <stop stop-color="#53D8FF"/>
            <stop offset="1" stop-color="#3840F7"/>
        </linearGradient>
        <linearGradient id="paint15_linear_4821_37711" x1="55.984" y1="107.048" x2="90.3493" y2="73.6429" gradientUnits="userSpaceOnUse">
            <stop stop-color="#53D8FF"/>
            <stop offset="1" stop-color="#3840F7"/>
        </linearGradient>
        <linearGradient id="paint16_linear_4821_37711" x1="61.4918" y1="112.713" x2="95.8571" y2="79.3081" gradientUnits="userSpaceOnUse">
            <stop stop-color="#53D8FF"/>
            <stop offset="1" stop-color="#3840F7"/>
        </linearGradient>
        <linearGradient id="paint17_linear_4821_37711" x1="67.2191" y1="118.605" x2="101.584" y2="85.1999" gradientUnits="userSpaceOnUse">
            <stop stop-color="#53D8FF"/>
            <stop offset="1" stop-color="#3840F7"/>
        </linearGradient>
        <linearGradient id="paint18_linear_4821_37711" x1="53.9042" y1="104.908" x2="88.2694" y2="71.5036" gradientUnits="userSpaceOnUse">
            <stop stop-color="#53D8FF"/>
            <stop offset="1" stop-color="#3840F7"/>
        </linearGradient>
        <linearGradient id="paint19_linear_4821_37711" x1="59.6314" y1="110.8" x2="93.9966" y2="77.3953" gradientUnits="userSpaceOnUse">
            <stop stop-color="#53D8FF"/>
            <stop offset="1" stop-color="#3840F7"/>
        </linearGradient>
        <linearGradient id="paint20_linear_4821_37711" x1="65.1372" y1="116.465" x2="99.5024" y2="83.0605" gradientUnits="userSpaceOnUse">
            <stop stop-color="#53D8FF"/>
            <stop offset="1" stop-color="#3840F7"/>
        </linearGradient>
        <linearGradient id="paint21_linear_4821_37711" x1="57.9082" y1="109.024" x2="92.2735" y2="75.6196" gradientUnits="userSpaceOnUse">
            <stop stop-color="#53D8FF"/>
            <stop offset="1" stop-color="#3840F7"/>
        </linearGradient>
        <linearGradient id="paint22_linear_4821_37711" x1="63.6354" y1="114.916" x2="98.0007" y2="81.5114" gradientUnits="userSpaceOnUse">
            <stop stop-color="#53D8FF"/>
            <stop offset="1" stop-color="#3840F7"/>
        </linearGradient>
        <linearGradient id="paint23_linear_4821_37711" x1="69.1412" y1="120.581" x2="103.506" y2="87.1766" gradientUnits="userSpaceOnUse">
            <stop stop-color="#53D8FF"/>
            <stop offset="1" stop-color="#3840F7"/>
        </linearGradient>
        <linearGradient id="paint24_linear_4821_37711" x1="90.4693" y1="109.666" x2="101.739" y2="93.1343" gradientUnits="userSpaceOnUse">
            <stop stop-color="#53D8FF"/>
            <stop offset="1" stop-color="#3840F7"/>
        </linearGradient>
        <linearGradient id="paint25_linear_4821_37711" x1="93.0947" y1="53.8106" x2="100.2" y2="42.2844" gradientUnits="userSpaceOnUse">
            <stop stop-color="#FDF53F"/>
            <stop offset="1" stop-color="#D93C65"/>
        </linearGradient>
        <linearGradient id="paint26_linear_4821_37711" x1="104.11" y1="34.2067" x2="84.5358" y2="77.2655" gradientUnits="userSpaceOnUse">
            <stop stop-color="#FDF53F"/>
            <stop offset="1" stop-color="#D93C65"/>
        </linearGradient>
        <linearGradient id="paint27_linear_4821_37711" x1="103.509" y1="35.437" x2="93.4498" y2="60.6611" gradientUnits="userSpaceOnUse">
            <stop stop-color="#FDF53F"/>
            <stop offset="1" stop-color="#D93C65"/>
        </linearGradient>
        <linearGradient id="paint28_linear_4821_37711" x1="103.44" y1="44.122" x2="115.036" y2="25.3111" gradientUnits="userSpaceOnUse">
            <stop stop-color="#FDF53F"/>
            <stop offset="1" stop-color="#D93C65"/>
        </linearGradient>
        <linearGradient id="paint29_linear_4821_37711" x1="121.416" y1="12.1308" x2="89.471" y2="82.4028" gradientUnits="userSpaceOnUse">
            <stop stop-color="#FDF53F"/>
            <stop offset="1" stop-color="#D93C65"/>
        </linearGradient>
        <linearGradient id="paint30_linear_4821_37711" x1="120.437" y1="14.1445" x2="104.02" y2="55.3103" gradientUnits="userSpaceOnUse">
            <stop stop-color="#FDF53F"/>
            <stop offset="1" stop-color="#D93C65"/>
        </linearGradient>
        <linearGradient id="paint31_linear_4821_37711" x1="114.191" y1="67.2126" x2="126.123" y2="47.8565" gradientUnits="userSpaceOnUse">
            <stop stop-color="#FDF53F"/>
            <stop offset="1" stop-color="#D93C65"/>
        </linearGradient>
        <linearGradient id="paint32_linear_4821_37711" x1="132.688" y1="34.2916" x2="99.8165" y2="106.601" gradientUnits="userSpaceOnUse">
            <stop stop-color="#FDF53F"/>
            <stop offset="1" stop-color="#D93C65"/>
        </linearGradient>
        <linearGradient id="paint33_linear_4821_37711" x1="131.678" y1="36.3649" x2="114.785" y2="78.7241" gradientUnits="userSpaceOnUse">
            <stop stop-color="#FDF53F"/>
            <stop offset="1" stop-color="#D93C65"/>
        </linearGradient>
        <linearGradient id="paint34_linear_4821_37711" x1="127.557" y1="42.9996" x2="137.1" y2="27.5192" gradientUnits="userSpaceOnUse">
            <stop stop-color="#FDF53F"/>
            <stop offset="1" stop-color="#D93C65"/>
        </linearGradient>
        <linearGradient id="paint35_linear_4821_37711" x1="142.349" y1="16.6697" x2="116.06" y2="74.4999" gradientUnits="userSpaceOnUse">
            <stop stop-color="#FDF53F"/>
            <stop offset="1" stop-color="#D93C65"/>
        </linearGradient>
        <linearGradient id="paint36_linear_4821_37711" x1="141.545" y1="18.3302" x2="128.035" y2="52.2075" gradientUnits="userSpaceOnUse">
            <stop stop-color="#FDF53F"/>
            <stop offset="1" stop-color="#D93C65"/>
        </linearGradient>
    </defs>
</svg>
