<svg width="192" height="193" viewBox="0 0 192 193" fill="none" xmlns="http://www.w3.org/2000/svg">
    <path opacity="0.3" d="M169.744 165.272C165.802 169.361 162.072 171.997 159.124 174.081C124.478 198.569 83.4841 191.431 74.7713 189.688C61.9056 187.113 37.0368 182.138 19.0571 161.309C-8.14455 129.797 -3.90915 80.1511 17.1909 47.3789C21.0507 41.3841 41.4372 8.11309 82.8735 2.77773C107.95 -0.451187 137.182 6.06108 158.35 23.5321C202.785 60.2036 199.621 134.288 169.744 165.272Z" fill="url(#paint0_linear_4821_37809)"/>
    <path d="M43.1304 0.821269C42.939 0.239826 43.6276 -0.237788 44.1248 0.127691C49.1762 3.83771 61.6022 15.2506 61.4188 37.647C61.1889 65.7465 68.2186 75.2032 76.2279 80.5554C76.2279 80.5554 65.8713 78.7762 58.382 69.2202C39.9933 45.7573 46.5312 11.1585 43.1304 0.821269Z" fill="url(#paint1_linear_4821_37809)"/>
    <path d="M47.6027 9.09002C48.5297 12.1114 49.3959 15.1495 50.1482 18.2141C50.9166 21.2746 51.5905 24.3562 52.1657 27.4545C52.7287 30.5544 53.2327 33.6643 53.6021 36.7908C53.9855 39.9156 54.2322 43.0529 54.4687 46.2035C54.723 49.3512 54.9609 52.5238 55.5294 55.6819C56.0936 58.8337 57.0493 61.9702 58.5582 64.8417C58.9352 65.5573 59.327 66.2687 59.7571 66.9507C60.1746 67.6405 60.6238 68.3125 61.0843 68.9762C62.0129 70.2994 63.0322 71.564 64.1422 72.7485C66.3684 75.1121 68.9587 77.1401 71.745 78.7897C72.0381 78.9633 72.4189 78.8699 72.5952 78.5812C72.7685 78.2975 72.6799 77.9312 72.3991 77.7535L72.3969 77.7522C71.7311 77.3319 71.0706 76.905 70.4317 76.4502C70.1087 76.228 69.7962 75.9917 69.4795 75.7616C69.1721 75.5199 68.8545 75.2902 68.5551 75.0394C67.3397 74.0567 66.1955 72.991 65.137 71.8473C63.0111 69.5726 61.2197 66.9735 59.7732 64.2328C59.0655 62.854 58.462 61.4266 57.9724 59.958C57.4836 58.489 57.1091 56.9806 56.8215 55.4501C56.2459 52.3876 55.984 49.2495 55.7069 46.1039C55.4256 42.9578 55.1207 39.7981 54.6847 36.6558C54.4709 35.0843 54.2284 33.5169 53.9576 31.9544C53.8269 31.1724 53.6806 30.3933 53.5359 29.6137C53.3837 28.8354 53.2268 28.0584 53.064 27.2825C52.4057 24.1805 51.6517 21.0997 50.8002 18.0467C49.9336 14.9979 48.9851 11.9727 47.9198 8.98826C47.8895 8.90312 47.7946 8.85827 47.7077 8.88817C47.6225 8.91725 47.5774 9.00695 47.6027 9.09002Z" fill="white"/>
    <path d="M66.9791 99.3118C66.7809 100.421 65.4968 100.97 64.5306 100.368C59.1984 97.0463 44.9851 86.3128 42.4122 65.0133C40.2391 47.0268 37.3254 37.477 35.6976 33.232C35.3535 32.3345 36.3728 31.5259 37.1909 32.0467C46.2187 37.7931 74.1661 59.1258 66.9791 99.3118Z" fill="url(#paint2_linear_4821_37809)"/>
    <path d="M65.4559 99.5827C65.4352 99.6018 65.4125 99.6192 65.388 99.635C65.1801 99.7654 64.9039 99.7048 64.7719 99.4996C64.6222 99.2675 49.7329 75.9836 45.5646 51.109C45.5245 50.8698 45.689 50.6434 45.9323 50.6036C46.1757 50.5641 46.4055 50.7261 46.4456 50.9657C50.5835 75.6592 65.3766 98.7969 65.5255 99.0278C65.6415 99.2085 65.6077 99.4411 65.4559 99.5827Z" fill="white"/>
    <path d="M64.3115 2.32339C61.4286 2.57009 59.2183 4.94819 59.2099 7.79768C59.1597 25.2256 59.0771 85.339 60.2305 106.616C60.3528 108.87 62.229 110.64 64.5211 110.665C75.8573 110.785 108.465 111.006 126.977 109.84C130.833 109.597 133.833 106.452 133.828 102.647C133.806 84.3555 133.509 32.9148 130.965 9.40164C130.66 6.58454 128.36 4.38544 125.492 4.16532C113.129 3.21715 80.2964 0.95451 64.3115 2.32339Z" fill="url(#paint3_linear_4821_37809)"/>
    <path d="M63.7601 12.3642C63.5374 27.272 62.9036 76.865 64.0102 95.1688C64.1717 97.8443 66.282 99.9561 68.8878 100.046C79.6159 100.414 107.126 101.127 122.802 99.4279C125.625 99.1222 127.782 96.7125 127.857 93.7949C128.25 78.5815 129.309 32.3916 128.233 14.2921C128.062 11.4048 125.822 9.10107 123.014 8.91459C111.398 8.14376 81.5698 6.3662 68.2396 7.45932C65.7371 7.66448 63.7989 9.78301 63.7601 12.3642Z" fill="url(#paint4_linear_4821_37809)"/>
    <path d="M89.6823 4.91594C89.6916 5.32793 90.0252 5.6606 90.4431 5.67306C92.5074 5.73494 98.3225 5.91021 100.922 6.00241C101.434 6.02068 101.826 5.55885 101.717 5.06504C101.709 5.04967 101.642 4.41673 100.986 4.37146C99.2275 4.25102 93.9231 3.92665 90.4178 4.12559C89.6984 4.16671 89.6591 4.97284 89.6823 4.91594Z" fill="#1F5AA9"/>
    <path d="M81.2676 45.7367C89.0384 45.7367 95.3378 39.5329 95.3378 31.8801C95.3378 24.2273 89.0384 18.0234 81.2676 18.0234C73.4968 18.0234 67.1973 24.2273 67.1973 31.8801C67.1973 39.5329 73.4968 45.7367 81.2676 45.7367Z" fill="white"/>
    <path d="M81.3213 34.136C84.354 34.136 86.8125 31.7148 86.8125 28.7282C86.8125 25.7415 84.354 23.3203 81.3213 23.3203C78.2886 23.3203 75.8301 25.7415 75.8301 28.7282C75.8301 31.7148 78.2886 34.136 81.3213 34.136Z" fill="url(#paint5_linear_4821_37809)"/>
    <path d="M72.9799 44.9689H90.475C91.5475 44.9689 92.1902 43.6037 91.6128 42.5621C90.1267 39.882 87.0177 35.9452 81.6332 36.123C76.4435 36.2941 73.3675 39.8505 71.821 42.401C71.1644 43.4837 71.8341 44.9689 72.9799 44.9689Z" fill="url(#paint6_linear_4821_37809)"/>
    <path d="M102.549 93.2281H85.0478C84.4759 93.2281 84.0078 92.7671 84.0078 92.2039V87.3015C84.0078 86.7384 84.4759 86.2773 85.0478 86.2773H102.549C103.121 86.2773 103.589 86.7384 103.589 87.3015V92.2039C103.589 92.7671 103.121 93.2281 102.549 93.2281Z" fill="url(#paint7_linear_4821_37809)"/>
    <g opacity="0.8">
        <g opacity="0.8">
            <path opacity="0.8" d="M115.65 61.1119H76.1678C75.8541 61.1119 75.5977 60.859 75.5977 60.5504V57.8467C75.5977 57.5377 75.8545 57.2852 76.1678 57.2852H115.65C115.964 57.2852 116.22 57.5381 116.22 57.8467V60.5504C116.22 60.859 115.964 61.1119 115.65 61.1119Z" fill="white"/>
            <path opacity="0.8" d="M70.385 61.5071C71.686 61.5071 72.7407 60.4684 72.7407 59.1871C72.7407 57.9059 71.686 56.8672 70.385 56.8672C69.084 56.8672 68.0293 57.9059 68.0293 59.1871C68.0293 60.4684 69.084 61.5071 70.385 61.5071Z" fill="white"/>
        </g>
        <g opacity="0.8">
            <path opacity="0.8" d="M115.648 68.2955H76.1659C75.8521 68.2955 75.5957 68.0426 75.5957 67.734V65.0303C75.5957 64.7213 75.8525 64.4688 76.1659 64.4688H115.648C115.962 64.4688 116.218 64.7217 116.218 65.0303V67.734C116.218 68.043 115.962 68.2955 115.648 68.2955Z" fill="white"/>
            <path opacity="0.8" d="M72.7117 66.7384C72.9201 65.4737 72.048 64.282 70.7637 64.0768C69.4795 63.8715 68.2694 64.7304 68.061 65.9951C67.8526 67.2599 68.7247 68.4516 70.0089 68.6568C71.2932 68.8621 72.5032 68.0032 72.7117 66.7384Z" fill="white"/>
        </g>
        <g opacity="0.8">
            <path opacity="0.8" d="M115.65 75.4713H76.1678C75.8541 75.4713 75.5977 75.2183 75.5977 74.9098V72.206C75.5977 71.897 75.8545 71.6445 76.1678 71.6445H115.65C115.964 71.6445 116.22 71.8975 116.22 72.206V74.9098C116.22 75.2187 115.964 75.4713 115.65 75.4713Z" fill="white"/>
            <path opacity="0.8" d="M70.385 75.8665C71.686 75.8665 72.7407 74.8278 72.7407 73.5465C72.7407 72.2652 71.686 71.2266 70.385 71.2266C69.084 71.2266 68.0293 72.2652 68.0293 73.5465C68.0293 74.8278 69.084 75.8665 70.385 75.8665Z" fill="white"/>
        </g>
        <g opacity="0.8">
            <path opacity="0.8" d="M115.65 82.6549H76.1678C75.8541 82.6549 75.5977 82.4019 75.5977 82.0934V79.3896C75.5977 79.0806 75.8545 78.8281 76.1678 78.8281H115.65C115.964 78.8281 116.22 79.0811 116.22 79.3896V82.0934C116.22 82.4019 115.964 82.6549 115.65 82.6549Z" fill="white"/>
            <path opacity="0.8" d="M70.385 83.0501C71.686 83.0501 72.7407 82.0114 72.7407 80.7301C72.7407 79.4488 71.686 78.4102 70.385 78.4102C69.084 78.4102 68.0293 79.4488 68.0293 80.7301C68.0293 82.0114 69.084 83.0501 70.385 83.0501Z" fill="white"/>
        </g>
    </g>
    <path d="M99.5962 53.6275H68.6272C68.3488 53.6275 68.1211 53.4032 68.1211 53.1291V50.2992C68.1211 50.0251 68.3488 49.8008 68.6272 49.8008H99.5962C99.8745 49.8008 100.102 50.0251 100.102 50.2992V53.1291C100.102 53.4032 99.8745 53.6275 99.5962 53.6275Z" fill="white"/>
    <path d="M135.353 15.0489C135.27 13.7831 134.494 12.6613 133.33 12.1172L118.254 5.06515C117.288 4.6137 116.167 4.6137 115.202 5.06515L100.125 12.1172C98.9616 12.6617 98.1852 13.7831 98.1017 15.0489C96.6876 36.5773 110.704 44.421 115.299 46.4024C116.21 46.7953 117.245 46.7953 118.156 46.4024C122.751 44.421 136.767 36.5773 135.353 15.0489Z" fill="url(#paint8_linear_4821_37809)"/>
    <path d="M112.167 8.17602C112.033 8.17602 111.904 8.10168 111.843 7.97459C111.759 7.79892 111.834 7.58876 112.013 7.50529L115.575 5.83903C115.754 5.75514 115.967 5.83031 116.052 6.00599C116.136 6.18167 116.061 6.39182 115.882 6.4753L112.32 8.14155C112.27 8.16523 112.218 8.17602 112.167 8.17602Z" fill="white"/>
    <path d="M99.2539 19.7964C99.062 19.7964 98.903 19.6465 98.8967 19.4559C98.8486 18.0509 98.8739 16.5864 98.9714 15.1029C99.0338 14.1498 99.6191 13.3025 100.498 12.8914L110.641 8.14763C110.819 8.06373 111.033 8.13891 111.117 8.31458C111.202 8.49026 111.126 8.70041 110.948 8.78389L100.805 13.5276C100.16 13.8292 99.7313 14.4505 99.6853 15.1482C99.5896 16.6085 99.5647 18.0496 99.612 19.4318C99.6187 19.6262 99.4639 19.7894 99.2666 19.796C99.2619 19.7964 99.2577 19.7964 99.2539 19.7964Z" fill="white"/>
    <path d="M131.707 15.8871C131.69 15.566 131.496 15.2795 131.201 15.1416L117.107 8.54926C116.866 8.43671 116.587 8.43671 116.346 8.54926L102.252 15.1416C101.957 15.2795 101.763 15.566 101.746 15.8871C101.329 23.9176 103.213 30.6183 107.348 35.8115C110.501 39.7711 114.189 41.8929 116.351 42.8826C116.589 42.9919 116.863 42.9919 117.101 42.8826C119.262 41.8925 122.951 39.7707 126.103 35.8115C130.24 30.6183 132.123 23.9176 131.707 15.8871Z" fill="url(#paint9_linear_4821_37809)"/>
    <path d="M107.777 24.6908C108.942 23.9797 110.473 24.351 111.17 25.5139L114.446 30.9832C114.774 31.5306 115.596 31.4762 115.846 30.8902L123.217 13.6276C123.584 12.7662 124.88 13.0237 124.888 13.9577C124.937 19.1837 123.773 29.1463 115.501 37.659C115.501 37.659 110.787 35.982 106.826 27.9377C106.254 26.7757 106.662 25.3711 107.777 24.6908Z" fill="url(#paint10_linear_4821_37809)"/>
    <path d="M137.817 111.023C137.817 111.023 138.087 112.528 138.22 114.018C138.271 114.6 137.816 115.106 137.223 115.13C135.209 115.212 130.9 115.373 129.354 115.305C129.121 115.295 128.97 115.06 129.056 114.848C129.128 114.67 129.267 114.525 129.444 114.445L136.561 111.224L137.817 111.023Z" fill="url(#paint11_linear_4821_37809)"/>
    <path d="M138.037 110.141L137.821 111.941C137.821 111.941 136.574 112.513 135.723 111.869L136.239 109.863L138.037 110.141Z" fill="url(#paint12_linear_4821_37809)"/>
    <path d="M137.873 76.2985C137.967 76.7687 138.376 99.7548 135.881 110.055C135.84 110.224 135.927 110.397 136.089 110.462C136.472 110.616 137.222 110.839 138.121 110.869C138.4 110.878 138.649 110.7 138.728 110.436C139.441 108.047 142.858 96.0722 143.304 84.6331C143.802 71.8513 143.304 84.1979 143.304 84.1979L143.012 76.2969L137.873 76.2985Z" fill="url(#paint13_linear_4821_37809)"/>
    <path d="M146.002 111.809C146.002 111.809 146.432 112.568 146.848 114.587C146.923 114.952 146.664 115.301 146.288 115.337C145.623 115.402 144.599 115.484 143.779 115.479C143.4 115.476 143.106 115.152 143.151 114.782C143.242 114.045 143.525 112.836 144.399 111.894L146.002 111.809Z" fill="url(#paint14_linear_4821_37809)"/>
    <path d="M146.38 109.497L145.873 112.219C145.873 112.219 145.372 112.586 144.381 112.319L144.623 109.391L146.38 109.497Z" fill="url(#paint15_linear_4821_37809)"/>
    <path d="M147.749 77.0069C149.789 89.1346 147.306 106.982 146.469 110.474C146.417 110.688 146.242 110.852 146.022 110.888C145.649 110.949 145.033 110.999 144.426 110.825C144.217 110.765 144.071 110.58 144.062 110.366C143.95 107.541 144.152 90.2048 142.251 83.3529C142.155 83.0057 141.939 82.703 141.641 82.4945L137.951 79.9108L137.668 75.7344L147.749 77.0069Z" fill="url(#paint16_linear_4821_37809)"/>
    <path d="M134.747 54.0273C140.862 53.9276 147.609 55.6084 147.609 55.6084C149.432 66.0827 147.928 78.1643 147.928 78.1643C143.194 79.387 137.854 77.4167 137.854 77.4167C137.067 73.0388 133.396 60.7176 133.396 60.7176C130.408 60.3526 127.947 59.5036 125.92 58.381C127.466 56.6159 128.195 54.3703 128.511 53.043C130.673 53.7046 132.861 54.058 134.747 54.0273Z" fill="url(#paint17_linear_4821_37809)"/>
    <path d="M116.686 45.1556C117.286 44.4413 118.046 44.779 118.046 44.779C118.946 48.5226 123.665 51.5577 128.512 53.0413C128.196 54.3686 127.467 56.6146 125.921 58.3793C117.876 53.9251 116.686 45.1556 116.686 45.1556Z" fill="url(#paint18_linear_4821_37809)"/>
    <path d="M116.829 45.3387C116.766 45.5355 117.494 45.835 117.923 45.0301C117.938 44.6443 118.176 42.9917 117.942 42.6777C116.695 41.004 114.279 38.9062 114.279 38.9062C113.87 39.3033 114.206 39.6929 114.206 39.6929L115.379 40.8956C115.134 41.3321 114.834 41.7005 114.694 42.2284C114.588 42.6283 114.653 43.0553 114.858 43.4191C115.064 43.7841 115.345 44.2588 115.61 44.6301C116.113 45.3333 116.829 45.3387 116.829 45.3387Z" fill="url(#paint19_linear_4821_37809)"/>
    <path d="M115.893 41.6758L116.961 42.5679L117.296 43.4558L116.343 44.4966C116.343 44.4966 116.023 42.7344 115.785 42.3532C115.548 41.9715 115.671 41.7871 115.893 41.6758Z" fill="url(#paint20_linear_4821_37809)"/>
    <path d="M145.264 61.4365L147.609 55.6055C147.609 55.6055 153.321 59.4276 154.26 64.2731C153.181 64.3512 151.217 64.6278 149.295 65.5838C148.873 63.2954 145.264 61.4365 145.264 61.4365Z" fill="url(#paint21_linear_4821_37809)"/>
    <path d="M140.272 66.9279C140.272 66.9279 146.685 70.4971 148.849 67.4495C149.298 66.8166 149.406 66.1878 149.295 65.5881C151.217 64.632 153.181 64.3558 154.26 64.2773C154.544 65.738 154.394 67.2921 153.522 68.8624C149.732 75.6906 139.424 68.4849 139.424 68.4849L140.272 66.9279Z" fill="url(#paint22_linear_4821_37809)"/>
    <path d="M141.042 71.4436L137.542 59.4065C137.503 59.2698 137.384 59.1702 137.241 59.1536C136.606 59.0809 134.769 58.8761 132.648 58.6996C130.092 58.4866 127.125 58.3142 125.351 58.4608C125.099 58.4816 124.947 58.7445 125.059 58.9675C126.067 60.9768 130.215 69.1498 132.293 71.8269C132.361 71.9158 132.468 71.9673 132.581 71.9665L140.701 71.8921C140.938 71.8905 141.107 71.667 141.042 71.4436Z" fill="url(#paint23_linear_4821_37809)"/>
    <path d="M132.285 57.6534L129.747 57.2369C129.612 57.2149 129.502 57.3419 129.545 57.4699L129.796 58.2195C129.818 58.2847 129.876 58.3321 129.945 58.3412L132.387 58.6622C132.513 58.6788 132.617 58.5659 132.588 58.4438L132.433 57.7892C132.416 57.7191 132.357 57.6655 132.285 57.6534Z" fill="url(#paint24_linear_4821_37809)"/>
    <path d="M134.183 59.7699L133.974 58.6976C133.953 58.59 133.863 58.5086 133.752 58.4978L128.627 57.9857C128.455 57.9683 128.316 58.124 128.357 58.2901L128.683 59.6262C128.709 59.733 128.803 59.8102 128.915 59.816L133.923 60.0644C134.087 60.0723 134.214 59.9278 134.183 59.7699Z" fill="url(#paint25_linear_4821_37809)"/>
    <path d="M140.196 68.5335C140.196 68.5335 140.684 66.5591 140.487 65.8589C140.291 65.1587 139.91 64.2579 138.639 64.4581C137.369 64.6582 135.871 65.1853 135.871 65.1853C135.871 65.1853 135.947 66.0977 136.912 65.8033L136.313 66.2593C136.313 66.2593 136.399 66.9898 137.214 66.5994L136.658 67.2045C136.658 67.2045 137.008 67.8047 137.608 67.4197C138.207 67.0347 138.495 68.7715 140.196 68.5335Z" fill="url(#paint26_linear_4821_37809)"/>
    <path d="M140.94 49.1328L142.886 54.6744C142.918 54.7662 142.88 54.8679 142.794 54.9148C142.263 55.2035 140.353 56.0383 138.05 54.6004C137.81 54.4505 137.647 54.2063 137.611 53.9289L136.98 49.1328H140.94Z" fill="url(#paint27_linear_4821_37809)"/>
    <path d="M136.707 44.0078C136.707 44.0078 134.571 47.9687 134.845 49.5685C135.118 51.1683 137.766 51.0537 140.079 49.7541L141.694 45.4772L136.707 44.0078Z" fill="url(#paint28_linear_4821_37809)"/>
    <path d="M139.976 47.6549C139.882 47.6138 139.848 47.5008 139.904 47.4161C140.075 47.1586 140.396 46.6332 140.498 46.173C140.498 46.173 140.883 45.9309 139.521 45.6099C138.159 45.2888 136.129 44.7909 135.702 43.6492C135.286 42.5361 136.379 39.7377 138.123 41.9675C138.189 42.0523 138.32 42.0543 138.386 41.9692C138.672 41.6025 139.424 40.842 140.468 41.303C141.444 41.7346 141.554 42.4393 141.541 42.7949C141.537 42.8995 141.632 42.9805 141.736 42.961C142.23 42.8684 143.415 42.7886 143.968 43.986C144.424 44.9724 144.128 45.5305 143.858 45.8034C143.771 45.8919 143.809 46.0376 143.929 46.0738C144.254 46.1718 144.673 46.4426 144.631 47.1914C144.573 48.2268 143.397 48.1354 143.063 48.0885C143.008 48.0806 142.953 48.0993 142.916 48.1396C142.629 48.4523 141.336 49.7801 139.937 49.94C139.816 49.9537 139.722 49.8361 139.761 49.7223L140.367 47.9888C140.395 47.9082 140.356 47.8202 140.277 47.7857L139.976 47.6549Z" fill="url(#paint29_linear_4821_37809)"/>
    <path d="M139.733 47.8997C139.733 47.8997 141.254 46.8718 141.365 47.7373C141.477 48.6028 139.996 48.9911 139.262 48.6684L139.733 47.8997Z" fill="url(#paint30_linear_4821_37809)"/>
    <defs>
        <linearGradient id="paint0_linear_4821_37809" x1="216.964" y1="248.085" x2="48.4408" y2="35.6204" gradientUnits="userSpaceOnUse">
            <stop stop-color="#B37CFF"/>
            <stop offset="1" stop-color="#F895E7"/>
        </linearGradient>
        <linearGradient id="paint1_linear_4821_37809" x1="33.6877" y1="32.8743" x2="85.699" y2="48.0101" gradientUnits="userSpaceOnUse">
            <stop stop-color="#A737D5"/>
            <stop offset="1" stop-color="#EF497A"/>
        </linearGradient>
        <linearGradient id="paint2_linear_4821_37809" x1="48.0184" y1="98.882" x2="54.5564" y2="33.6738" gradientUnits="userSpaceOnUse">
            <stop stop-color="#CE1567"/>
            <stop offset="1" stop-color="#7A1DBC"/>
        </linearGradient>
        <linearGradient id="paint3_linear_4821_37809" x1="58.9435" y1="56.9158" x2="133.282" y2="55.2624" gradientUnits="userSpaceOnUse">
            <stop stop-color="#2B3582"/>
            <stop offset="1" stop-color="#150E42"/>
        </linearGradient>
        <linearGradient id="paint4_linear_4821_37809" x1="67.4209" y1="15.356" x2="221.626" y2="233.071" gradientUnits="userSpaceOnUse">
            <stop stop-color="#FDF53F"/>
            <stop offset="1" stop-color="#D93C65"/>
        </linearGradient>
        <linearGradient id="paint5_linear_4821_37809" x1="69.0951" y1="70.3333" x2="97.1981" y2="-28.272" gradientUnits="userSpaceOnUse">
            <stop stop-color="#FDF53F"/>
            <stop offset="1" stop-color="#D93C65"/>
        </linearGradient>
        <linearGradient id="paint6_linear_4821_37809" x1="73.4096" y1="71.564" x2="101.513" y2="-27.0415" gradientUnits="userSpaceOnUse">
            <stop stop-color="#FDF53F"/>
            <stop offset="1" stop-color="#D93C65"/>
        </linearGradient>
        <linearGradient id="paint7_linear_4821_37809" x1="104.722" y1="45.2747" x2="88.772" y2="112.238" gradientUnits="userSpaceOnUse">
            <stop stop-color="#FDF53F"/>
            <stop offset="1" stop-color="#D93C65"/>
        </linearGradient>
        <linearGradient id="paint8_linear_4821_37809" x1="169.927" y1="-35.2253" x2="100.685" y2="42.3672" gradientUnits="userSpaceOnUse">
            <stop stop-color="#53D8FF"/>
            <stop offset="1" stop-color="#3840F7"/>
        </linearGradient>
        <linearGradient id="paint9_linear_4821_37809" x1="132.806" y1="2.01433" x2="63.7121" y2="91.4607" gradientUnits="userSpaceOnUse">
            <stop stop-color="#53D8FF"/>
            <stop offset="1" stop-color="#3840F7"/>
        </linearGradient>
        <linearGradient id="paint10_linear_4821_37809" x1="89.8346" y1="49.6877" x2="136.354" y2="8.91844" gradientUnits="userSpaceOnUse">
            <stop stop-color="#A737D5"/>
            <stop offset="1" stop-color="#EF497A"/>
        </linearGradient>
        <linearGradient id="paint11_linear_4821_37809" x1="129.579" y1="108.944" x2="155.21" y2="137.253" gradientUnits="userSpaceOnUse">
            <stop stop-color="#CB236D"/>
            <stop offset="1" stop-color="#4C246D"/>
        </linearGradient>
        <linearGradient id="paint12_linear_4821_37809" x1="138.038" y1="111.019" x2="135.723" y2="111.019" gradientUnits="userSpaceOnUse">
            <stop stop-color="#F9B776"/>
            <stop offset="1" stop-color="#F47960"/>
        </linearGradient>
        <linearGradient id="paint13_linear_4821_37809" x1="143.526" y1="93.5833" x2="135.871" y2="93.5833" gradientUnits="userSpaceOnUse">
            <stop stop-color="#2B3582"/>
            <stop offset="1" stop-color="#150E42"/>
        </linearGradient>
        <linearGradient id="paint14_linear_4821_37809" x1="135.423" y1="103.65" x2="161.054" y2="131.959" gradientUnits="userSpaceOnUse">
            <stop stop-color="#CB236D"/>
            <stop offset="1" stop-color="#4C246D"/>
        </linearGradient>
        <linearGradient id="paint15_linear_4821_37809" x1="146.38" y1="110.903" x2="144.381" y2="110.903" gradientUnits="userSpaceOnUse">
            <stop stop-color="#F9B776"/>
            <stop offset="1" stop-color="#F47960"/>
        </linearGradient>
        <linearGradient id="paint16_linear_4821_37809" x1="148.534" y1="93.3398" x2="137.667" y2="93.3398" gradientUnits="userSpaceOnUse">
            <stop stop-color="#2B3582"/>
            <stop offset="1" stop-color="#150E42"/>
        </linearGradient>
        <linearGradient id="paint17_linear_4821_37809" x1="141.138" y1="57.1105" x2="129.017" y2="90.2148" gradientUnits="userSpaceOnUse">
            <stop stop-color="#CE1567"/>
            <stop offset="1" stop-color="#7A1DBC"/>
        </linearGradient>
        <linearGradient id="paint18_linear_4821_37809" x1="128.512" y1="51.5394" x2="116.686" y2="51.5394" gradientUnits="userSpaceOnUse">
            <stop stop-color="#F9B776"/>
            <stop offset="1" stop-color="#F47960"/>
        </linearGradient>
        <linearGradient id="paint19_linear_4821_37809" x1="119.318" y1="49.5885" x2="127.053" y2="67.4579" gradientUnits="userSpaceOnUse">
            <stop stop-color="#F9B776"/>
            <stop offset="1" stop-color="#F47960"/>
        </linearGradient>
        <linearGradient id="paint20_linear_4821_37809" x1="116.741" y1="43.6658" x2="113.5" y2="38.6065" gradientUnits="userSpaceOnUse">
            <stop stop-color="#F9B776"/>
            <stop offset="1" stop-color="#F47960"/>
        </linearGradient>
        <linearGradient id="paint21_linear_4821_37809" x1="150.621" y1="60.5795" x2="138.5" y2="93.6835" gradientUnits="userSpaceOnUse">
            <stop stop-color="#CE1567"/>
            <stop offset="1" stop-color="#7A1DBC"/>
        </linearGradient>
        <linearGradient id="paint22_linear_4821_37809" x1="154.391" y1="68.04" x2="139.424" y2="68.04" gradientUnits="userSpaceOnUse">
            <stop stop-color="#F9B776"/>
            <stop offset="1" stop-color="#F47960"/>
        </linearGradient>
        <linearGradient id="paint23_linear_4821_37809" x1="134.895" y1="57.5605" x2="126.9" y2="91.3862" gradientUnits="userSpaceOnUse">
            <stop stop-color="#9CFFFB"/>
            <stop offset="1" stop-color="#9BFFFA"/>
        </linearGradient>
        <linearGradient id="paint24_linear_4821_37809" x1="129.743" y1="52.2349" x2="131.445" y2="59.826" gradientUnits="userSpaceOnUse">
            <stop stop-color="#53D8FF"/>
            <stop offset="1" stop-color="#3840F7"/>
        </linearGradient>
        <linearGradient id="paint25_linear_4821_37809" x1="130.658" y1="55.4152" x2="131.472" y2="60.3725" gradientUnits="userSpaceOnUse">
            <stop stop-color="#53D8FF"/>
            <stop offset="1" stop-color="#3840F7"/>
        </linearGradient>
        <linearGradient id="paint26_linear_4821_37809" x1="140.534" y1="66.4929" x2="135.871" y2="66.4929" gradientUnits="userSpaceOnUse">
            <stop stop-color="#F9B776"/>
            <stop offset="1" stop-color="#F47960"/>
        </linearGradient>
        <linearGradient id="paint27_linear_4821_37809" x1="142.897" y1="52.2757" x2="136.98" y2="52.2757" gradientUnits="userSpaceOnUse">
            <stop stop-color="#F9B776"/>
            <stop offset="1" stop-color="#F47960"/>
        </linearGradient>
        <linearGradient id="paint28_linear_4821_37809" x1="135.573" y1="48.5749" x2="142.025" y2="44.579" gradientUnits="userSpaceOnUse">
            <stop stop-color="#F9B776"/>
            <stop offset="1" stop-color="#F47960"/>
        </linearGradient>
        <linearGradient id="paint29_linear_4821_37809" x1="145.523" y1="40.5483" x2="137.217" y2="47.21" gradientUnits="userSpaceOnUse">
            <stop stop-color="#2B3582"/>
            <stop offset="1" stop-color="#150E42"/>
        </linearGradient>
        <linearGradient id="paint30_linear_4821_37809" x1="137.282" y1="50.0319" x2="143.086" y2="46.4367" gradientUnits="userSpaceOnUse">
            <stop stop-color="#F9B776"/>
            <stop offset="1" stop-color="#F47960"/>
        </linearGradient>
    </defs>
</svg>
