<svg width="192" height="208" viewBox="0 0 192 208" fill="none" xmlns="http://www.w3.org/2000/svg">
    <path opacity="0.3" d="M169.744 181.275C165.802 185.363 162.072 187.999 159.124 190.082C124.478 214.565 83.4841 207.428 74.7713 205.685C61.9056 203.112 37.0368 198.137 19.0571 177.314C-8.14455 145.808 -3.90915 96.173 17.1909 63.408C21.0507 57.4146 41.4372 24.1508 82.8735 18.8166C107.95 15.5884 137.182 22.0992 158.35 39.5664C202.785 76.2299 199.621 150.298 169.744 181.275Z" fill="url(#paint0_linear_4821_37878)"/>
    <path opacity="0.81" d="M131.24 104.658C131.24 104.658 149.929 57.1927 177.693 52.0075C178.186 51.9155 178.635 52.3114 178.611 52.8146C178.33 58.6696 174.774 89.6556 131.24 104.658Z" fill="url(#paint1_linear_4821_37878)"/>
    <path opacity="0.62" d="M172.704 59.7068C171.286 61.7409 169.8 63.7214 168.295 65.6868C167.918 66.1784 167.534 66.6636 167.154 67.1524C166.771 67.6389 166.397 68.1316 166.007 68.6129L164.843 70.0594C164.454 70.5401 164.072 71.0276 163.672 71.5004C162.879 72.4504 162.094 73.407 161.294 74.3519L158.871 77.1649C157.226 79.0147 155.583 80.8663 153.888 82.6704L152.627 84.0328C152.212 84.4916 151.771 84.9264 151.345 85.3746L148.771 88.0508L146.13 90.6613C145.689 91.0955 145.252 91.5345 144.802 91.9594L143.44 93.2209C142.53 94.0602 141.63 94.9098 140.704 95.7317L137.891 98.1549L137.185 98.7565C136.948 98.9548 136.717 99.161 136.474 99.3528L135.021 100.508C134.538 100.894 134.048 101.272 133.562 101.654C133.076 102.036 132.589 102.417 132.099 102.794C132.061 102.822 132.007 102.815 131.979 102.778C131.951 102.741 131.956 102.69 131.99 102.66L131.993 102.658C132.461 102.254 132.932 101.855 133.403 101.455C133.875 101.057 134.344 100.654 134.819 100.259L136.24 99.0718C136.708 98.6697 137.162 98.2502 137.627 97.8441L140.41 95.399L143.135 92.8897L144.499 91.636C144.727 91.4275 144.944 91.2076 145.168 90.9943L145.836 90.353L148.51 87.7865C150.249 86.031 152.017 84.3028 153.697 82.4878C154.545 81.5887 155.403 80.6985 156.222 79.7723C157.049 78.8527 157.882 77.9396 158.702 77.0144L161.134 74.2131C161.937 73.2723 162.725 72.3195 163.521 71.3732C163.922 70.9024 164.306 70.4166 164.697 69.938L165.865 68.497C166.257 68.0181 166.633 67.5268 167.017 67.0424C167.398 66.5555 167.784 66.0721 168.162 65.5822C169.667 63.6192 171.15 61.637 172.563 59.6083L172.564 59.607C172.591 59.568 172.645 59.5588 172.683 59.5858C172.721 59.6141 172.731 59.6678 172.704 59.7068Z" fill="white"/>
    <g opacity="0.79">
        <path opacity="0.79" d="M126.713 77.4345C126.713 77.4345 135.798 35.5202 163.225 13.7928C163.583 13.5094 164.112 13.6885 164.221 14.133C165.947 21.1516 174.929 65.9178 126.713 77.4345Z" fill="url(#paint2_linear_4821_37878)"/>
        <path opacity="0.62" d="M160.314 25.8829C159.999 27.0986 159.633 28.2965 159.246 29.489C158.859 30.6807 158.452 31.8667 158.019 33.0427C157.151 35.3945 156.207 37.7175 155.189 40.0081C154.936 40.5817 154.67 41.1489 154.411 41.7198C154.15 42.2897 153.869 42.85 153.6 43.4155C153.332 43.9823 153.042 44.5379 152.761 45.0979L152.336 45.9361L151.896 46.7665C150.723 48.9815 149.488 51.1647 148.157 53.2888C146.822 55.4094 145.434 57.499 143.938 59.5085C143.752 59.7612 143.57 60.0162 143.382 60.2664L142.808 61.01L142.234 61.7536C142.041 62.0004 141.854 62.252 141.652 62.4917L140.46 63.9436L140.161 64.3057L139.85 64.6581L139.23 65.3634C135.938 69.1394 132.254 72.567 128.27 75.5844C128.237 75.6094 128.19 75.6029 128.165 75.5697C128.141 75.5376 128.147 75.4921 128.178 75.4668L128.179 75.4654L129.626 74.2795L130.35 73.6884L131.051 73.0692L132.451 71.8306L133.805 70.5407C134.029 70.3243 134.26 70.1148 134.481 69.895L135.136 69.2283C135.571 68.7818 136.015 68.3446 136.442 67.8906C137.282 66.9692 138.142 66.0663 138.941 65.1091L139.551 64.4004L139.856 64.0458L140.15 63.6824L141.329 62.2312C141.529 61.9922 141.714 61.7409 141.905 61.4944L142.474 60.7522L143.043 60.01C143.229 59.7601 143.409 59.5054 143.593 59.2535C145.076 57.2477 146.45 55.1619 147.771 53.0457C149.1 50.9333 150.341 48.7658 151.516 46.5628L151.958 45.7372L152.385 44.9037C152.667 44.3468 152.958 43.794 153.227 43.2306C153.779 42.1102 154.312 40.9807 154.836 39.847C155.877 37.576 156.844 35.2704 157.737 32.9357C158.19 31.771 158.618 30.5963 159.027 29.4148C159.232 28.8244 159.429 28.2309 159.62 27.636C159.814 27.0422 159.999 26.4439 160.17 25.8446L160.17 25.8432C160.182 25.8036 160.223 25.7807 160.263 25.7919C160.301 25.8032 160.324 25.8439 160.314 25.8829Z" fill="white"/>
    </g>
    <path d="M45.4542 126.886C43.8563 126.937 42.2772 126.529 40.9043 125.709C36.7514 123.221 30.6153 119.111 25.0947 113.73C18.0888 106.902 14.065 99.9639 13.1846 93.149L13.1705 93.0424L13 63.9647C13 58.2178 16.7488 53.5531 23.7878 50.488C29.6041 47.9554 37.3115 46.6995 45.4542 46.9365C53.5027 47.1696 60.9497 48.8308 66.4619 51.5959C73.0144 54.8844 76.4526 59.5054 76.4526 64.9845L76.2966 92.7684L76.2839 92.8707C75.4793 99.3965 71.7763 106.142 65.2308 112.963C59.9812 118.433 54.0486 122.769 49.9746 125.455C48.6303 126.343 47.0648 126.839 45.4542 126.886Z" fill="url(#paint3_linear_4821_37878)"/>
    <path d="M47.0502 126.887C45.4714 126.937 43.9121 126.528 42.5611 125.71C38.4633 123.221 32.4082 119.111 26.963 113.731C20.0505 106.902 16.0796 99.9639 15.2098 93.1491L15.1961 93.0425L15.0273 63.9648C15.0273 58.2178 18.7286 53.5531 25.6728 50.488C31.4115 47.9554 39.0176 46.6995 47.0533 46.9365C54.9951 47.1696 62.343 48.8308 67.7834 51.5959C74.2491 54.8844 77.6419 59.5054 77.6419 64.9846L77.4881 92.7685L77.4753 92.8707C76.6822 99.3965 73.025 106.142 66.5686 112.963C61.3881 118.433 55.534 122.769 51.5137 125.455C50.1903 126.343 48.6432 126.839 47.0502 126.887Z" fill="url(#paint4_linear_4821_37878)"/>
    <path d="M17.166 63.9825L17.3357 92.9135C19.2405 107.674 36.591 119.626 44.1499 124.166C46.3147 125.467 49.0827 125.39 51.2325 123.976C58.6319 119.108 75.0337 106.853 76.7861 92.6602L76.9416 64.9516C76.9416 44.3966 17.166 42.5173 17.166 63.9825Z" fill="url(#paint5_linear_4821_37878)"/>
    <g style="mix-blend-mode:soft-light" opacity="0.3">
        <g style="mix-blend-mode:soft-light" opacity="0.3">
            <path d="M47.6676 101.424C48.8445 88.4439 55.6531 82.9797 55.1891 71.3447C54.8516 62.8819 50.8304 55.305 45.1098 48.6973C30.7626 48.7444 16.9473 53.6676 16.9473 63.9868L17.1169 92.9178C19.0217 107.679 36.3722 119.63 43.9311 124.17C46.0959 125.471 48.8661 125.394 51.0137 123.98C51.1812 123.869 51.3548 123.755 51.5315 123.636C47.8364 114.926 47.1151 107.517 47.6676 101.424Z" fill="white" fill-opacity="0.5"/>
        </g>
    </g>
    <path d="M47.4784 119.713C47.2814 119.718 47.087 119.667 46.9183 119.565C43.8066 117.681 37.7749 113.735 32.5271 108.582C26.8589 103.014 23.5899 97.6033 22.8404 92.5206L22.6738 64.0689C22.6809 61.3377 24.8426 59.0029 29.0796 57.1329C33.8093 55.0462 40.5266 53.9511 47.4784 54.1158C54.3609 54.2793 60.8822 55.6643 65.3999 57.9043C69.3964 59.8866 71.4166 62.224 71.4232 64.8596L71.2681 92.3264C70.5684 97.2447 67.5004 102.546 62.1133 108.122C57.0461 113.364 51.1307 117.517 48.038 119.538C47.8714 119.647 47.6776 119.708 47.4784 119.713Z" fill="url(#paint6_linear_4821_37878)"/>
    <path d="M46.7683 117.763C43.6257 115.828 38.0377 112.092 33.1622 107.295C27.8355 102.053 24.7529 97.0245 24.0281 92.3709L23.8633 64.0844C23.8681 62.1324 25.6628 60.34 29.1834 58.7836C33.6641 56.8013 40.084 55.7546 46.7678 55.9048C53.3882 56.0533 59.6279 57.3585 63.9161 59.4818C67.2476 61.1298 68.933 62.9276 68.9392 64.831L68.7845 92.1965C68.1047 96.7118 65.197 101.65 60.1122 106.901C55.3904 111.775 49.8963 115.696 46.7683 117.763Z" fill="url(#paint7_linear_4821_37878)"/>
    <g style="mix-blend-mode:soft-light" opacity="0.3">
        <g style="mix-blend-mode:soft-light" opacity="0.3">
            <path d="M47.6704 101.426C48.8473 88.4456 55.6558 82.9814 55.1918 71.3465C54.9746 65.8946 53.2275 60.8115 50.4833 56.1178C49.2676 56.0089 48.0277 55.9389 46.7741 55.9107C40.0899 55.7605 33.67 56.8058 29.1892 58.7895C25.6687 60.3476 23.874 62.1374 23.8691 64.0902L24.0339 92.3768C24.7588 97.03 27.8414 102.059 33.1681 107.301C38.0436 112.097 43.6316 115.834 46.7741 117.769C47.4201 117.342 48.1714 116.832 48.9918 116.255C47.5232 110.662 47.2809 105.718 47.6704 101.426Z" fill="white" fill-opacity="0.5"/>
        </g>
    </g>
    <mask id="mask0_4821_37878" style="mask-type:alpha" maskUnits="userSpaceOnUse" x="17" y="48" width="60" height="78">
        <path d="M17.166 63.9883L17.3357 92.9193C19.2405 107.68 36.591 119.631 44.1499 124.172C46.3147 125.473 49.0827 125.396 51.2325 123.982C58.6319 119.113 75.0337 106.859 76.7861 92.666L76.9416 64.9575C76.9416 44.4025 17.166 42.5232 17.166 63.9883Z" fill="url(#paint8_linear_4821_37878)"/>
    </mask>
    <g mask="url(#mask0_4821_37878)">
        <path d="M63.426 79.6437C62.1716 67.8522 48.655 62.4962 40.7216 67.334C40.4798 67.4824 40.2375 67.5462 39.9342 67.1999C40.0653 66.7533 40.1637 66.2169 40.3768 65.7353C41.1236 64.0394 40.649 63.1703 38.7838 62.7704C36.6799 62.3214 34.6165 61.6482 32.5721 60.9678C31.3391 60.5552 30.7438 60.8445 30.3725 62.1233C26.1248 76.6782 21.8538 91.2262 17.5517 105.765C17.1921 106.976 17.5699 107.47 18.7181 107.77C20.7403 108.296 22.7294 108.935 24.7345 109.519C27.2744 110.265 27.2833 110.263 28.0255 107.735C29.3691 103.173 30.706 98.6044 32.1278 93.7615C32.493 94.2273 32.6991 94.4017 32.7904 94.6226C35.8884 101.973 49.1954 105.328 56.4007 98.7742C62.0736 93.6186 64.2145 87.0591 63.426 79.6437ZM47.419 95.6733C40.0035 96.9511 33.8984 90.4173 35.376 83.0135C36.3945 77.8919 36.3872 77.9024 41.3706 79.492C43.23 80.0843 45.1121 80.5989 46.984 81.1484C46.9612 81.2261 52.6578 82.8437 55.5149 83.615C56.7812 83.9572 57.0217 84.7618 56.6272 86.0338C55.1553 90.8029 52.7292 94.7561 47.419 95.6733Z" fill="white"/>
    </g>
    <path d="M116.581 29.0372V29.1477C115.563 27.8262 113.74 25.9862 112.648 24.9214C112.628 24.8743 112.593 24.8276 112.573 24.7805C111.892 23.2313 111.052 21.7565 110.068 20.3797C109.002 18.8722 107.648 17.3881 106.068 16.0221C105.879 15.8459 105.661 15.6886 105.459 15.5208C105.355 15.4393 105.251 15.3547 105.147 15.2732L104.993 15.1485C104.939 15.1071 104.884 15.0697 104.83 15.0296C104.613 14.8731 104.396 14.7152 104.179 14.556L104.016 14.4371L103.844 14.3261C103.731 14.2516 103.617 14.1767 103.504 14.1058C103.056 13.7975 102.573 13.5296 102.102 13.2473C101.862 13.1103 101.611 12.9829 101.366 12.8543C101.245 12.7891 101.122 12.7222 100.998 12.6592C100.874 12.5962 100.744 12.5385 100.619 12.479C98.5655 11.4963 96.3855 10.8036 94.1415 10.4209C93.8595 10.3768 93.5775 10.3328 93.2924 10.2887C93.0074 10.2447 92.7196 10.2279 92.439 10.1958L92.0111 10.1517L91.5824 10.1293L91.1532 10.1046C91.0109 10.0976 90.8699 10.0839 90.7258 10.0865C90.4407 10.0865 90.1556 10.0826 89.8692 10.0808C89.7996 10.0808 89.7238 10.0768 89.6586 10.0808L89.4678 10.0905L89.0867 10.1099L88.7086 10.1279C88.6751 10.1279 88.6522 10.1279 88.6086 10.1324L88.2204 10.1601L87.7009 10.1945L87.3127 10.2222L87.2475 10.2262H87.2242C87.2242 10.2262 87.0889 10.2262 87.3158 10.2306L86.4786 10.3482C86.3407 10.3689 86.201 10.3812 86.0631 10.4103L85.6516 10.4896L85.24 10.5667L85.0347 10.6055C84.9664 10.6182 84.8994 10.6376 84.8329 10.6526C84.5637 10.7178 84.2949 10.7817 84.027 10.8478C83.8917 10.8755 83.7626 10.92 83.6304 10.9574L83.2378 11.0751L82.8452 11.187L82.4614 11.3213C82.2054 11.4125 81.9494 11.4931 81.7009 11.59C81.4524 11.6869 81.2048 11.7891 80.9594 11.8905C79.0835 12.6786 77.3292 13.7292 75.749 15.0106L75.467 15.2349L75.1991 15.4741C75.0228 15.6318 74.8386 15.7824 74.6703 15.945C74.6628 15.9503 74.6571 15.9586 74.65 15.9644C74.3213 16.2882 73.9891 16.5925 73.693 16.9278C73.6146 17.0093 73.5375 17.0925 73.4617 17.1754L73.3454 17.2974L73.2378 17.4295C73.0938 17.5983 72.9514 17.7687 72.8091 17.9361C72.7739 17.978 72.7364 18.0181 72.7012 18.0608L72.6038 18.1929C72.5368 18.2811 72.4716 18.3692 72.4059 18.452C72.2782 18.6282 72.1385 18.7872 72.0235 18.9669C71.0541 20.351 70.3121 21.7356 69.8089 23.0563C69.3533 24.2312 69.0226 25.4508 68.8223 26.6949C68.8038 26.8319 68.7849 26.9663 68.7659 27.0989C68.747 27.2315 68.7219 27.3592 68.7166 27.4879C68.6946 27.7456 68.6725 27.9905 68.6509 28.2244C68.6364 28.4623 68.6364 28.6909 68.6263 28.9055C68.6219 29.0134 68.6144 29.1187 68.613 29.2196C68.6117 29.3204 68.6205 29.4244 68.6219 29.5213C68.6249 29.7165 68.6276 29.9006 68.6307 30.0724C68.6311 30.1082 68.6345 30.1438 68.6408 30.179C68.6452 30.2107 68.6496 30.2429 68.654 30.2733C68.6598 30.3341 68.6686 30.3257 68.6743 30.3812C68.6787 30.4283 68.6844 30.4504 68.6888 30.4504H78.2619L72.4456 36.5894L58.9228 50.6675L39.582 30.4504H49.7512C49.7658 30.4504 49.7821 30.2843 49.7979 30.1539C49.8371 29.8733 49.8794 29.5988 49.9257 29.2654C49.9521 29.0993 49.9751 28.9442 50.0028 28.7658C50.0174 28.6777 50.0306 28.5953 50.0469 28.5042C50.0632 28.413 50.0729 28.3169 50.0909 28.2398C50.1623 27.905 50.2363 27.5522 50.3148 27.1756C50.3588 26.9888 50.3981 26.7976 50.4417 26.6029C50.4853 26.4082 50.5435 26.2064 50.5985 26.002C50.7091 25.5937 50.8188 25.165 50.951 24.7245C51.0935 24.2858 51.2413 23.8306 51.3943 23.3589C51.4688 23.1206 51.5661 22.8867 51.656 22.6444L51.9385 21.9122C52.8211 19.7101 53.9298 17.6053 55.2467 15.6318C56.6818 13.4732 58.51 11.3182 60.6796 9.32224C60.944 9.0663 61.2335 8.83239 61.5141 8.58702C61.6565 8.46676 61.7975 8.34517 61.9402 8.22315L62.157 8.04033L62.3773 7.86413C62.6756 7.6333 62.9766 7.39894 63.2762 7.16503L63.5031 6.98882L63.7384 6.82274C63.897 6.71085 64.0543 6.59984 64.2125 6.48927C64.8338 6.03642 65.5009 5.62806 66.1641 5.20736C66.4985 5.00252 66.8448 4.8109 67.1894 4.61354C67.3595 4.51663 67.5326 4.41972 67.7058 4.32016L68.2376 4.04616C71.1402 2.53947 74.2369 1.44057 77.4401 0.780598C77.8455 0.704388 78.2544 0.626857 78.6615 0.550647C79.0686 0.474438 79.4828 0.429065 79.8952 0.369595L80.5121 0.286337L81.1334 0.228189L81.7529 0.171362C81.9591 0.153301 82.1645 0.131275 82.3724 0.124226C82.7853 0.106606 83.1995 0.05947 83.6141 0.0414088C83.7159 0.0370036 83.8208 0 83.9226 0H84.2336L84.8505 0.0330388L85.4674 0.0524217C85.674 0.0524217 85.8807 0.0788531 86.0843 0.0885445L87.3132 0.159028C87.5921 0.162992 87.4092 0.166076 87.4802 0.167398L87.5123 0.171362L87.5775 0.178411L87.7058 0.19515L87.9644 0.225546L88.4795 0.286337L88.7382 0.316732L88.8659 0.332151L89.0246 0.352855L89.6762 0.444043L90.3275 0.538313L90.6505 0.58677C90.7567 0.60351 90.8509 0.625536 90.9527 0.644919C91.3493 0.725093 91.7459 0.80703 92.1424 0.885882C92.3403 0.923326 92.535 0.977069 92.7302 1.02553L93.3162 1.17354L93.8979 1.32199L94.4707 1.49468C94.8518 1.6123 95.2343 1.72331 95.6079 1.85062C95.9816 1.97793 96.3526 2.11493 96.7232 2.24708C99.6652 3.35983 102.349 4.84614 104.657 6.57429C104.803 6.6809 104.947 6.78882 105.091 6.89543C105.234 7.00203 105.37 7.11833 105.508 7.23198C105.785 7.45621 106.062 7.6725 106.328 7.90201C106.853 8.37116 107.377 8.82093 107.855 9.30814C107.977 9.42708 108.097 9.54779 108.219 9.6654L108.398 9.84161L108.569 10.0257C108.798 10.2721 109.023 10.5168 109.245 10.7597L109.413 10.942L109.573 11.1306C109.676 11.2566 109.782 11.3812 109.885 11.5054C110.092 11.7561 110.309 11.9944 110.494 12.2543C111.499 13.5406 112.398 14.9058 113.182 16.3366C113.543 16.9942 113.864 17.6471 114.148 18.2956C114.937 20.07 115.538 21.922 115.942 23.8214C115.982 24.032 116.024 24.2382 116.063 24.4417C116.102 24.6452 116.146 24.8417 116.171 25.0395C116.226 25.4359 116.281 25.8121 116.332 26.176C116.376 26.5416 116.399 26.8932 116.431 27.2267C116.444 27.3927 116.461 27.5548 116.472 27.7152C116.482 27.8755 116.512 28.0284 116.52 28.1804C116.531 28.4804 116.581 28.7698 116.581 29.0372Z" fill="url(#paint9_linear_4821_37878)"/>
    <path style="mix-blend-mode:multiply" opacity="0.4" d="M116.582 29.036V29.1465C115.564 27.825 113.74 25.9849 112.648 24.9202C112.628 24.8731 112.593 24.8264 112.573 24.7792C111.892 23.2301 111.053 21.7553 110.069 20.3785C109.003 18.871 107.648 17.3869 106.069 16.0209C105.88 15.8447 105.661 15.6874 105.459 15.5196C105.356 15.4381 105.252 15.3535 105.147 15.272L104.994 15.1473C104.94 15.1059 104.884 15.0685 104.831 15.0284C104.614 14.8719 104.397 14.714 104.179 14.5548L104.016 14.4359L103.844 14.3249C103.731 14.2504 103.618 14.1755 103.504 14.1046C103.056 13.7963 102.574 13.5284 102.102 13.2461C101.862 13.1091 101.611 12.9817 101.366 12.8531C101.246 12.7879 101.122 12.721 100.998 12.658C100.875 12.595 100.744 12.5373 100.619 12.4778C98.5658 11.4951 96.3859 10.8024 94.1419 10.4197C93.8599 10.3756 93.5779 10.3316 93.2928 10.2875C93.0077 10.2435 92.72 10.2267 92.4393 10.1946L92.0114 10.1505L91.5827 10.1281L91.1536 10.1034C91.0112 10.0963 90.8702 10.0827 90.7261 10.0853C90.4411 10.0853 90.156 10.0814 89.8696 10.0796C89.8 10.0796 89.7242 10.0756 89.659 10.0796L89.4682 10.0893L89.087 10.1087L88.709 10.1267C88.6755 10.1267 88.6526 10.1267 88.6089 10.1311L88.2208 10.1589L87.7013 10.1933L87.3131 10.221L87.2479 10.225H87.2245C87.2245 10.225 87.0892 10.225 87.3161 10.2294L86.479 10.347C86.341 10.3677 86.2014 10.38 86.0635 10.4091L85.6519 10.4884L85.2404 10.5655L85.035 10.6043C84.9667 10.617 84.8998 10.6364 84.8332 10.6514C84.564 10.7166 84.2952 10.7805 84.0273 10.8465C83.8921 10.8743 83.7629 10.9188 83.6308 10.9562L83.2382 11.0739L82.8456 11.1857L82.4618 11.3201C82.2058 11.4113 81.9498 11.4919 81.7013 11.5888C81.4528 11.6857 81.2051 11.7879 80.9597 11.8893C79.0839 12.6774 77.3296 13.728 75.7493 15.0094L75.4673 15.2337L75.1994 15.4729C75.0232 15.6306 74.839 15.7812 74.6707 15.9438C74.6632 15.9491 74.6574 15.9574 74.6504 15.9632C78.9474 10.8972 85.9088 7.60742 93.7643 7.60742C101.813 7.60742 108.922 11.0611 113.189 16.3367C113.55 16.9943 113.871 17.6473 114.155 18.2957C114.944 20.0702 115.545 21.9222 115.949 23.8216C115.988 24.0321 116.031 24.2383 116.07 24.4418C116.109 24.6453 116.153 24.8418 116.178 25.0396C116.233 25.4361 116.288 25.8123 116.339 26.1761C116.383 26.5418 116.406 26.8933 116.438 27.2268C116.451 27.3928 116.468 27.5549 116.478 27.7153C116.489 27.8756 116.519 28.0285 116.526 28.1805C116.531 28.4792 116.582 28.7686 116.582 29.036Z" fill="url(#paint10_linear_4821_37878)"/>
    <path d="M55.4551 129.443V132.317C55.4551 133.246 61.2577 133.999 68.4156 133.999C75.5736 133.999 81.3766 133.246 81.3766 132.317V129.443H55.4551Z" fill="url(#paint11_linear_4821_37878)"/>
    <path d="M81.3766 129.443C81.3766 130.372 75.574 131.125 68.4156 131.125C61.2572 131.125 55.4551 130.372 55.4551 129.443C55.4551 128.514 61.2577 127.762 68.4156 127.762C75.5736 127.762 81.3766 128.515 81.3766 129.443Z" fill="url(#paint12_linear_4821_37878)"/>
    <path d="M68.4153 131.236C62.076 131.236 55.4473 130.631 55.4473 129.463C55.4473 129.399 55.4697 129.287 55.5354 129.287C55.601 129.287 55.572 129.375 55.572 129.44C55.572 130.18 60.8471 131.005 68.4166 131.005C75.9861 131.005 81.2617 130.18 81.2617 129.44C81.2617 129.375 81.2727 129.315 81.3366 129.315C81.4005 129.315 81.3855 129.401 81.3855 129.465C81.3842 130.631 74.755 131.236 68.4153 131.236Z" fill="url(#paint13_linear_4821_37878)"/>
    <path d="M67.1925 129.535C67.3198 129.447 67.4569 129.359 67.5996 129.275C67.7755 129.176 67.9625 129.098 68.1566 129.043C68.4363 128.963 68.722 128.907 69.0109 128.874C69.4352 128.826 69.8618 128.803 70.2888 128.805C70.7899 128.802 71.2599 128.818 71.6988 128.853C72.0882 128.88 72.4757 128.932 72.8589 129.006C73.1394 129.058 73.4127 129.143 73.6732 129.259C73.8812 129.359 74.0053 129.474 74.0455 129.604L75.5049 129.619C75.5988 129.618 75.6925 129.627 75.7847 129.645C75.8662 129.661 75.9054 129.682 75.9058 129.708V129.828L74.0297 129.81C73.9639 129.957 73.7963 130.091 73.5269 130.213C73.1962 130.355 72.8513 130.461 72.498 130.53L71.8146 130.436C71.7633 130.429 71.7129 130.417 71.6639 130.4C71.6243 130.386 71.6053 130.37 71.6053 130.353C71.6053 130.336 71.6578 130.304 71.7635 130.274C71.8693 130.245 71.9887 130.208 72.1213 130.164C72.2548 130.12 72.3856 130.068 72.513 130.009C72.6404 129.949 72.7254 129.877 72.7699 129.796L68.3416 129.752C68.216 129.843 68.0854 129.927 67.9504 130.004C67.7692 130.101 67.5769 130.176 67.3775 130.227C67.085 130.303 66.7872 130.357 66.4866 130.388C66.0403 130.433 65.5918 130.455 65.1431 130.453C64.7373 130.456 64.3421 130.44 63.9535 130.409C63.607 130.382 63.2626 130.333 62.9224 130.262C62.6669 130.212 62.4185 130.131 62.1826 130.02C61.9909 129.924 61.883 129.813 61.8605 129.689L60.6593 129.676C60.5641 129.676 60.4689 129.668 60.3751 129.651C60.2923 129.635 60.25 129.614 60.25 129.587V129.467L61.8927 129.483C61.9654 129.356 62.113 129.246 62.3416 129.152C62.6119 129.045 62.8908 128.961 63.1753 128.901L63.7252 128.977C63.8926 129 63.9755 129.028 63.9755 129.059C63.9755 129.076 63.942 129.097 63.8728 129.123C63.8036 129.148 63.7208 129.178 63.6261 129.213C63.5323 129.248 63.4409 129.289 63.3524 129.336C63.2746 129.374 63.2063 129.429 63.1524 129.497L67.1925 129.535ZM63.1387 129.699C63.1718 129.778 63.2454 129.846 63.3591 129.903C63.4915 129.967 63.6318 130.015 63.7763 130.044C63.9617 130.083 64.1495 130.11 64.3386 130.125C64.548 130.142 64.7667 130.15 64.9946 130.149C65.2271 130.149 65.4595 130.138 65.6908 130.115C65.8661 130.096 66.0401 130.067 66.2117 130.027C66.3456 129.994 66.4767 129.951 66.6034 129.897C66.7071 129.852 66.8071 129.798 66.9026 129.737L63.1387 129.699ZM72.7792 129.592C72.7461 129.512 72.6659 129.442 72.5408 129.382C72.3873 129.313 72.2263 129.262 72.0609 129.231C71.8362 129.185 71.6088 129.155 71.3802 129.139C71.122 129.119 70.8369 129.11 70.5249 129.112C70.2855 129.111 70.0461 129.123 69.808 129.149C69.6325 129.168 69.4586 129.199 69.2877 129.243C69.1583 129.276 69.0329 129.322 68.9136 129.382C68.8143 129.432 68.7184 129.488 68.6263 129.55L72.7792 129.592Z" fill="#FCB048"/>
    <path d="M68.413 127.943C62.6342 127.943 56.6171 128.452 55.6543 129.436C55.6917 129.47 55.7269 129.507 55.7596 129.546C56.5708 128.863 61.5393 128.175 68.413 128.175C75.463 128.175 80.5117 128.899 81.1233 129.599C81.1533 129.561 81.1857 129.524 81.2202 129.489C80.4249 128.47 74.2949 127.943 68.413 127.943Z" fill="url(#paint14_linear_4821_37878)"/>
    <path d="M51.8496 126.422V129.296C51.8496 130.225 57.6522 130.978 64.8101 130.978C71.9681 130.978 77.7711 130.225 77.7711 129.296V126.422H51.8496Z" fill="url(#paint15_linear_4821_37878)"/>
    <path d="M77.7711 126.422C77.7711 127.351 71.9685 128.104 64.8101 128.104C57.6518 128.104 51.8496 127.351 51.8496 126.422C51.8496 125.493 57.6522 124.74 64.8101 124.74C71.9681 124.74 77.7711 125.493 77.7711 126.422Z" fill="url(#paint16_linear_4821_37878)"/>
    <path d="M64.8142 128.221C58.4749 128.221 51.8457 127.616 51.8457 126.448C51.8457 126.384 51.8686 126.271 51.9338 126.271C51.999 126.271 51.9704 126.36 51.9704 126.423C51.9704 127.164 57.2456 127.989 64.8151 127.989C72.3846 127.989 77.6602 127.164 77.6602 126.423C77.6602 126.36 77.6707 126.3 77.7351 126.3C77.7994 126.3 77.7835 126.385 77.7835 126.449C77.7822 127.616 71.1534 128.221 64.8142 128.221Z" fill="url(#paint17_linear_4821_37878)"/>
    <path d="M63.5905 126.518C63.7174 126.43 63.8549 126.342 63.9976 126.257C64.1735 126.159 64.3605 126.081 64.5546 126.025C64.8343 125.946 65.12 125.889 65.4089 125.857C65.8331 125.808 66.2598 125.785 66.6867 125.787C67.1879 125.785 67.6579 125.801 68.0967 125.835C68.4862 125.863 68.8737 125.914 69.2569 125.989C69.5374 126.04 69.8107 126.125 70.0712 126.241C70.2792 126.342 70.4033 126.457 70.4435 126.586L71.9029 126.601C71.9968 126.6 72.0905 126.609 72.1827 126.627C72.2642 126.643 72.3034 126.664 72.3038 126.69V126.81L70.4277 126.792C70.3619 126.939 70.1941 127.074 69.9245 127.196C69.5939 127.338 69.2491 127.444 68.896 127.513L68.2126 127.418C68.1613 127.411 68.1109 127.399 68.0619 127.383C68.0223 127.368 68.0033 127.353 68.0029 127.335C68.0025 127.318 68.0558 127.286 68.1615 127.257C68.2673 127.227 68.3867 127.19 68.5193 127.146C68.6529 127.103 68.7837 127.051 68.911 126.991C69.0384 126.932 69.1234 126.859 69.1679 126.778L64.7396 126.734C64.614 126.825 64.4834 126.909 64.3484 126.986C64.1672 127.083 63.9748 127.158 63.7755 127.209C63.483 127.285 63.1852 127.339 62.8846 127.37C62.4383 127.416 61.9898 127.438 61.5411 127.436C61.1353 127.436 60.7401 127.423 60.3514 127.392C60.005 127.365 59.6606 127.316 59.3204 127.245C59.065 127.194 58.8166 127.113 58.581 127.002C58.3889 126.906 58.2815 126.796 58.2589 126.671L57.0573 126.659C56.9622 126.659 56.8672 126.65 56.7736 126.634C56.6907 126.618 56.6484 126.596 56.6484 126.57V126.45L58.2911 126.466C58.3638 126.339 58.5114 126.229 58.7401 126.135C59.0103 126.028 59.2892 125.944 59.5737 125.885L60.1236 125.96C60.2911 125.983 60.3739 126.011 60.3739 126.042C60.3739 126.06 60.3404 126.081 60.2713 126.106C60.2021 126.131 60.1192 126.161 60.0245 126.194C59.9307 126.229 59.8393 126.27 59.7509 126.317C59.673 126.355 59.6047 126.41 59.5508 126.478L63.5905 126.518ZM59.5367 126.682C59.5698 126.761 59.6434 126.828 59.757 126.885C59.8897 126.95 60.0301 126.997 60.1748 127.026C60.3601 127.066 60.548 127.093 60.737 127.107C60.9464 127.125 61.165 127.133 61.3926 127.131C61.6251 127.132 61.8575 127.12 62.0888 127.097C62.2643 127.079 62.4384 127.049 62.6101 127.009C62.7439 126.977 62.8748 126.933 63.0014 126.879C63.1053 126.834 63.2055 126.781 63.301 126.72L59.5367 126.682ZM69.1772 126.574C69.1441 126.494 69.0639 126.424 68.9388 126.364C68.7853 126.295 68.624 126.244 68.4585 126.213C68.2339 126.168 68.0067 126.137 67.7782 126.122C67.52 126.101 67.2349 126.092 66.9229 126.094C66.6835 126.093 66.4441 126.106 66.206 126.131C66.0304 126.15 65.8563 126.182 65.6852 126.226C65.5561 126.258 65.4308 126.305 65.3116 126.364C65.2123 126.414 65.1164 126.471 65.0243 126.533L69.1772 126.574Z" fill="#FCB048"/>
    <path d="M64.8115 124.922C59.0327 124.922 53.0155 125.431 52.0527 126.415C52.0903 126.449 52.1255 126.486 52.158 126.525C52.9692 125.842 57.9377 125.154 64.8115 125.154C71.8615 125.154 76.9101 125.878 77.5217 126.578C77.5518 126.54 77.584 126.503 77.6182 126.468C76.8247 125.449 70.6947 124.922 64.8115 124.922Z" fill="url(#paint18_linear_4821_37878)"/>
    <path d="M54.959 123.414V126.288C54.959 127.217 60.762 127.969 67.92 127.969C75.0779 127.969 80.8809 127.217 80.8809 126.288V123.414H54.959Z" fill="url(#paint19_linear_4821_37878)"/>
    <path d="M80.8809 123.414C80.8809 124.343 75.0779 125.096 67.92 125.096C60.762 125.096 54.959 124.343 54.959 123.414C54.959 122.486 60.762 121.732 67.92 121.732C75.0779 121.732 80.8809 122.486 80.8809 123.414Z" fill="url(#paint20_linear_4821_37878)"/>
    <path d="M67.9235 125.209C61.5843 125.209 54.9551 124.604 54.9551 123.436C54.9551 123.372 54.978 123.26 55.0432 123.26C55.1084 123.26 55.0798 123.348 55.0798 123.412C55.0798 124.153 60.3549 124.977 67.9244 124.977C75.4939 124.977 80.7691 124.153 80.7691 123.412C80.7691 123.348 80.7801 123.288 80.8444 123.288C80.9087 123.288 80.8929 123.373 80.8929 123.437C80.892 124.605 74.2628 125.209 67.9235 125.209Z" fill="url(#paint21_linear_4821_37878)"/>
    <path d="M66.6964 123.506C66.8233 123.418 66.9608 123.33 67.1035 123.246C67.2794 123.147 67.4664 123.069 67.6605 123.014C67.9402 122.934 68.2259 122.878 68.5149 122.845C68.9391 122.797 69.3657 122.774 69.7927 122.776C70.2938 122.773 70.7638 122.789 71.2027 122.823C71.592 122.851 71.9793 122.902 72.3624 122.977C72.643 123.029 72.9165 123.113 73.1771 123.229C73.3851 123.33 73.509 123.445 73.549 123.574L75.0083 123.589C75.1022 123.589 75.196 123.597 75.2881 123.615C75.3701 123.632 75.4093 123.653 75.4093 123.678V123.799L73.5331 123.78C73.467 123.927 73.2993 124.062 73.0299 124.184C72.6992 124.326 72.3543 124.432 72.0011 124.501L71.3181 124.406C71.2667 124.4 71.2161 124.388 71.167 124.371C71.1278 124.356 71.1084 124.341 71.1084 124.324C71.1084 124.306 71.1612 124.274 71.267 124.245C71.3727 124.215 71.4922 124.178 71.6248 124.135C71.7583 124.091 71.8891 124.039 72.0165 123.98C72.1438 123.92 72.2289 123.847 72.2734 123.766L67.8447 123.722C67.7192 123.814 67.5887 123.898 67.4538 123.974C67.2726 124.072 67.0803 124.147 66.881 124.198C66.5885 124.274 66.2907 124.327 65.9901 124.358C65.5437 124.404 65.0953 124.426 64.6466 124.424C64.2404 124.424 63.8456 124.411 63.4569 124.38C63.1105 124.353 62.7661 124.304 62.4259 124.233C62.1704 124.183 61.9221 124.101 61.6865 123.991C61.4944 123.895 61.387 123.784 61.3644 123.659L60.1628 123.647C60.0677 123.647 59.9727 123.639 59.879 123.622C59.7962 123.606 59.7539 123.584 59.7539 123.558V123.438L61.397 123.454C61.4693 123.327 61.6173 123.217 61.846 123.123C62.1162 123.016 62.3951 122.932 62.6797 122.872L63.2296 122.947C63.3966 122.971 63.4798 122.999 63.4798 123.03C63.4798 123.047 63.4459 123.068 63.3767 123.093C63.3076 123.118 63.2251 123.149 63.1304 123.181C63.0366 123.217 62.9452 123.258 62.8568 123.305C62.779 123.343 62.7106 123.397 62.6567 123.465L66.6964 123.506ZM62.6426 123.67C62.6757 123.749 62.7493 123.817 62.863 123.873C62.9956 123.938 63.136 123.985 63.2807 124.014C63.466 124.054 63.6539 124.081 63.8429 124.095C64.0524 124.113 64.2709 124.121 64.4986 124.12C64.7311 124.12 64.9634 124.109 65.1947 124.085C65.3701 124.067 65.544 124.038 65.7156 123.997C65.8496 123.965 65.9806 123.922 66.1073 123.868C66.211 123.822 66.3111 123.769 66.4065 123.708L62.6426 123.67ZM72.2831 123.562C72.25 123.483 72.1694 123.413 72.0443 123.353C71.8908 123.284 71.7298 123.233 71.5644 123.201C71.3399 123.156 71.1126 123.126 70.8841 123.11C70.6259 123.09 70.3407 123.081 70.0284 123.082C69.7891 123.082 69.5499 123.094 69.3119 123.119C69.1363 123.138 68.9622 123.17 68.7911 123.214C68.6619 123.247 68.5365 123.293 68.417 123.352C68.318 123.403 68.2222 123.459 68.1302 123.521L72.2831 123.562Z" fill="#FCB048"/>
    <path d="M67.9267 121.91C62.1479 121.91 56.1303 122.419 55.168 123.403C55.2053 123.437 55.2405 123.474 55.2733 123.513C56.0845 122.83 61.053 122.142 67.9267 122.142C74.9767 122.142 80.0254 122.866 80.6365 123.566C80.6666 123.528 80.699 123.491 80.7335 123.456C79.9386 122.439 73.8086 121.91 67.9267 121.91Z" fill="url(#paint22_linear_4821_37878)"/>
    <path d="M56.8438 120.393V123.267C56.8438 124.195 62.6463 124.948 69.8047 124.948C76.9631 124.948 82.7657 124.195 82.7657 123.267V120.393H56.8438Z" fill="url(#paint23_linear_4821_37878)"/>
    <path d="M69.8047 122.076C76.9629 122.076 82.7657 121.323 82.7657 120.394C82.7657 119.466 76.9629 118.713 69.8047 118.713C62.6466 118.713 56.8438 119.466 56.8438 120.394C56.8438 121.323 62.6466 122.076 69.8047 122.076Z" fill="url(#paint24_linear_4821_37878)"/>
    <path d="M69.8083 122.191C63.4686 122.191 56.8398 121.586 56.8398 120.418C56.8398 120.355 56.8628 120.242 56.928 120.242C56.9932 120.242 56.9645 120.33 56.9645 120.395C56.9645 121.135 62.2397 121.96 69.8096 121.96C77.3796 121.96 82.6543 121.135 82.6543 120.395C82.6543 120.33 82.6653 120.27 82.7292 120.27C82.7931 120.27 82.7781 120.356 82.7781 120.42C82.7768 121.587 76.1476 122.191 69.8083 122.191Z" fill="url(#paint25_linear_4821_37878)"/>
    <path d="M68.5853 120.49C68.7126 120.402 68.8496 120.314 68.9928 120.23C69.1685 120.131 69.3553 120.053 69.5493 119.998C69.829 119.918 70.1148 119.862 70.4037 119.829C70.8286 119.781 71.2561 119.758 71.6837 119.76C72.1831 119.757 72.6531 119.773 73.0937 119.808C73.4832 119.835 73.8707 119.887 74.2539 119.961C74.5344 120.013 74.8077 120.098 75.0682 120.214C75.2767 120.314 75.4008 120.429 75.4405 120.559L76.8998 120.574C76.9937 120.573 77.0875 120.582 77.1796 120.6C77.2612 120.616 77.3008 120.637 77.3008 120.663V120.783L75.4246 120.765C75.3588 120.912 75.1912 121.046 74.9219 121.168C74.5911 121.31 74.2462 121.417 73.893 121.486L73.2096 121.391C73.1583 121.384 73.1078 121.372 73.0589 121.355C73.0193 121.341 73.0003 121.325 73.0003 121.308C73.0003 121.291 73.0532 121.259 73.1589 121.229C73.2647 121.2 73.3837 121.163 73.5167 121.119C73.6501 121.075 73.7808 121.023 73.908 120.964C74.0352 120.905 74.1208 120.834 74.1649 120.751L69.7366 120.707C69.611 120.798 69.4804 120.882 69.3453 120.959C69.1642 121.056 68.9718 121.131 68.7725 121.182C68.4798 121.258 68.1819 121.312 67.8811 121.343C67.4348 121.389 66.9863 121.41 66.5377 121.408C66.1319 121.411 65.7366 121.395 65.348 121.364C65.0015 121.337 64.6571 121.288 64.3169 121.217C64.0613 121.167 63.8129 121.086 63.5771 120.975C63.3854 120.879 63.2775 120.768 63.255 120.644L62.0539 120.631C61.9587 120.632 61.8637 120.623 61.7701 120.606C61.6873 120.59 61.645 120.569 61.6445 120.542V120.422L63.2872 120.438C63.3599 120.311 63.5075 120.201 63.7362 120.107C64.0064 120 64.2853 119.916 64.5698 119.857L65.1233 119.932C65.2903 119.956 65.3731 119.983 65.3735 120.015C65.3735 120.032 65.3396 120.053 65.2704 120.078C65.2013 120.103 65.1189 120.134 65.0237 120.168C64.9299 120.204 64.8385 120.245 64.7501 120.292C64.6723 120.33 64.604 120.384 64.55 120.452L68.5853 120.49ZM64.5315 120.654C64.5641 120.733 64.6377 120.801 64.7518 120.858C64.8843 120.922 65.0245 120.97 65.1691 120.999C65.3546 121.038 65.5426 121.065 65.7318 121.08C65.9406 121.097 66.1592 121.105 66.3874 121.104C66.6199 121.104 66.8523 121.093 67.0836 121.07C67.2589 121.051 67.4329 121.022 67.6044 120.982C67.7384 120.95 67.8695 120.906 67.9961 120.852C68.0999 120.807 68.1999 120.753 68.2953 120.692L64.5315 120.654ZM74.1715 120.547C74.1389 120.467 74.0583 120.397 73.9331 120.337C73.7797 120.268 73.6186 120.217 73.4533 120.186C73.2286 120.14 73.0012 120.11 72.7725 120.094C72.5146 120.074 72.2295 120.065 71.9173 120.067C71.6779 120.066 71.4388 120.078 71.2008 120.104C71.0251 120.123 70.8511 120.154 70.68 120.198C70.5507 120.231 70.4252 120.277 70.3059 120.337C70.2068 120.387 70.1109 120.443 70.019 120.505L74.1715 120.547Z" fill="#FCB048"/>
    <path d="M69.8115 118.895C64.0322 118.895 58.0151 119.403 57.0527 120.387C57.09 120.422 57.1251 120.458 57.1576 120.498C57.9692 119.814 62.9377 119.126 69.8115 119.126C76.8615 119.126 81.9097 119.85 82.5213 120.55C82.5512 120.512 82.5836 120.475 82.6182 120.441C81.8225 119.421 75.6929 118.895 69.8115 118.895Z" fill="url(#paint26_linear_4821_37878)"/>
    <path d="M55.4551 117.137V120.011C55.4551 120.94 61.2577 121.692 68.4156 121.692C75.5736 121.692 81.3766 120.94 81.3766 120.011V117.137H55.4551Z" fill="url(#paint27_linear_4821_37878)"/>
    <path d="M81.3766 117.138C81.3766 118.067 75.574 118.82 68.4156 118.82C61.2572 118.82 55.4551 118.067 55.4551 117.138C55.4551 116.21 61.2577 115.457 68.4156 115.457C75.5736 115.457 81.3766 116.21 81.3766 117.138Z" fill="url(#paint28_linear_4821_37878)"/>
    <path d="M68.4153 118.935C62.076 118.935 55.4473 118.33 55.4473 117.163C55.4473 117.098 55.4697 116.986 55.5354 116.986C55.601 116.986 55.572 117.074 55.572 117.139C55.572 117.879 60.8471 118.704 68.4166 118.704C75.9861 118.704 81.2617 117.879 81.2617 117.139C81.2617 117.074 81.2727 117.015 81.3366 117.015C81.4005 117.015 81.3855 117.1 81.3855 117.164C81.3842 118.331 74.755 118.935 68.4153 118.935Z" fill="url(#paint29_linear_4821_37878)"/>
    <path d="M67.1925 117.235C67.3198 117.147 67.4569 117.059 67.5996 116.974C67.7755 116.875 67.9624 116.797 68.1566 116.742C68.4363 116.663 68.722 116.606 69.0109 116.573C69.4352 116.525 69.8618 116.502 70.2888 116.504C70.7899 116.502 71.2599 116.518 71.6988 116.552C72.0882 116.58 72.4757 116.631 72.8589 116.705C73.1394 116.757 73.4128 116.842 73.6732 116.958C73.8812 117.059 74.0053 117.174 74.0455 117.303L75.5049 117.318C75.5988 117.317 75.6925 117.326 75.7847 117.344C75.8662 117.36 75.9054 117.381 75.9058 117.407V117.527L74.0297 117.509C73.9639 117.656 73.7963 117.79 73.5269 117.913C73.1961 118.055 72.8512 118.161 72.498 118.23L71.8146 118.135C71.7633 118.128 71.7129 118.116 71.6639 118.099C71.6243 118.085 71.6053 118.069 71.6053 118.053C71.6053 118.029 71.6578 118.003 71.7635 117.973C71.8693 117.944 71.9887 117.907 72.1213 117.863C72.2548 117.819 72.3856 117.768 72.513 117.709C72.6404 117.649 72.7254 117.576 72.7699 117.495L68.3416 117.451C68.2159 117.542 68.0853 117.627 67.9504 117.704C67.7691 117.801 67.5768 117.876 67.3775 117.927C67.0851 118.003 66.7872 118.056 66.4866 118.087C66.0403 118.133 65.5918 118.155 65.1431 118.153C64.7373 118.153 64.3421 118.14 63.9535 118.107C63.607 118.08 63.2626 118.031 62.9224 117.96C62.6669 117.91 62.4185 117.828 62.1826 117.718C61.9909 117.622 61.883 117.512 61.8605 117.386L60.6593 117.374C60.564 117.375 60.4689 117.366 60.3751 117.349C60.2923 117.333 60.25 117.312 60.25 117.285V117.165L61.8927 117.181C61.9654 117.054 62.113 116.944 62.3416 116.85C62.612 116.743 62.8909 116.659 63.1753 116.599L63.7252 116.675C63.8926 116.698 63.9755 116.726 63.9755 116.757C63.9755 116.774 63.942 116.795 63.8728 116.82L63.6261 116.911C63.5321 116.946 63.4407 116.987 63.3524 117.035C63.2747 117.072 63.2064 117.127 63.1524 117.194L67.1925 117.235ZM63.1387 117.398C63.1718 117.477 63.2454 117.545 63.3591 117.602C63.4916 117.667 63.6318 117.714 63.7763 117.743C63.9617 117.782 64.1495 117.81 64.3386 117.824C64.548 117.841 64.7667 117.849 64.9946 117.848C65.2271 117.849 65.4595 117.837 65.6908 117.814C65.8662 117.796 66.0401 117.766 66.2117 117.726C66.3457 117.694 66.4768 117.651 66.6034 117.596C66.7071 117.551 66.8071 117.498 66.9026 117.437L63.1387 117.398ZM72.7792 117.291C72.7461 117.211 72.6659 117.141 72.5408 117.081C72.3873 117.012 72.2262 116.961 72.0609 116.93C71.8362 116.885 71.6088 116.854 71.3802 116.838C71.122 116.819 70.8369 116.81 70.5249 116.811C70.2855 116.81 70.0461 116.822 69.808 116.848C69.6326 116.867 69.4587 116.899 69.2877 116.942C69.1584 116.975 69.033 117.022 68.9136 117.081C68.8143 117.131 68.7184 117.187 68.6263 117.249L72.7792 117.291Z" fill="#FCB048"/>
    <path d="M68.413 115.639C62.6342 115.639 56.6171 116.147 55.6543 117.131C55.6919 117.166 55.727 117.203 55.7596 117.242C56.5708 116.558 61.5393 115.871 68.413 115.871C75.463 115.871 80.5117 116.595 81.1233 117.295C81.1532 117.256 81.1856 117.219 81.2202 117.185C80.4249 116.166 74.2949 115.639 68.413 115.639Z" fill="url(#paint30_linear_4821_37878)"/>
    <path d="M51.8496 114.121V116.995C51.8496 117.924 57.6522 118.676 64.8101 118.676C71.9681 118.676 77.7711 117.924 77.7711 116.995V114.121H51.8496Z" fill="url(#paint31_linear_4821_37878)"/>
    <path d="M64.8106 115.798C71.9687 115.798 77.7716 115.046 77.7716 114.117C77.7716 113.188 71.9687 112.436 64.8106 112.436C57.6524 112.436 51.8496 113.188 51.8496 114.117C51.8496 115.046 57.6524 115.798 64.8106 115.798Z" fill="url(#paint32_linear_4821_37878)"/>
    <path d="M64.8142 115.92C58.4749 115.92 51.8457 115.314 51.8457 114.147C51.8457 114.083 51.8686 113.971 51.9338 113.971C51.999 113.971 51.9704 114.059 51.9704 114.123C51.9704 114.864 57.2456 115.689 64.8151 115.689C72.3846 115.689 77.6602 114.864 77.6602 114.123C77.6602 114.059 77.6707 113.999 77.7351 113.999C77.7994 113.999 77.7835 114.084 77.7835 114.149C77.7822 115.315 71.1534 115.92 64.8142 115.92Z" fill="url(#paint33_linear_4821_37878)"/>
    <path d="M63.5883 114.213C63.7152 114.125 63.8526 114.037 63.9954 113.953C64.1713 113.854 64.3582 113.776 64.5524 113.721C64.832 113.641 65.1178 113.585 65.4067 113.552C65.8309 113.504 66.2576 113.481 66.6845 113.483C67.1857 113.481 67.6557 113.497 68.0945 113.531C68.484 113.558 68.8715 113.609 69.2547 113.684C69.5352 113.736 69.8086 113.82 70.069 113.937C70.277 114.037 70.4011 114.152 70.4413 114.282L71.9007 114.296C71.9945 114.296 72.0883 114.304 72.1805 114.322C72.262 114.339 72.3012 114.36 72.3016 114.385V114.505L70.4254 114.487C70.3596 114.634 70.1919 114.769 69.9223 114.891C69.5916 115.033 69.2469 115.139 68.8938 115.209L68.2104 115.113C68.1591 115.107 68.1087 115.095 68.0597 115.078C68.0201 115.064 68.0011 115.048 68.0007 115.031C68.0007 115.008 68.0536 114.981 68.1593 114.952C68.2651 114.922 68.3845 114.885 68.5171 114.842C68.6513 114.798 68.7828 114.747 68.911 114.689C69.0384 114.629 69.1234 114.557 69.1679 114.476L64.7396 114.431C64.6139 114.523 64.4833 114.607 64.3484 114.684C64.1671 114.781 63.9747 114.856 63.7755 114.907C63.4831 114.983 63.1852 115.037 62.8846 115.068C62.4383 115.114 61.9898 115.136 61.5411 115.133C61.1353 115.133 60.7401 115.12 60.3514 115.089C60.005 115.062 59.6606 115.013 59.3204 114.942C59.065 114.892 58.8168 114.81 58.581 114.7C58.3889 114.604 58.2814 114.494 58.2589 114.368L57.0573 114.356C56.9622 114.357 56.8672 114.348 56.7736 114.331C56.6907 114.315 56.6484 114.294 56.6484 114.267V114.147L58.2911 114.163C58.3638 114.036 58.5114 113.926 58.7401 113.832C59.0104 113.725 59.2893 113.641 59.5737 113.581L60.1236 113.657C60.2911 113.68 60.3739 113.708 60.3739 113.739C60.3739 113.756 60.3404 113.777 60.2713 113.802L60.0245 113.893C59.9306 113.928 59.8391 113.969 59.7509 114.016C59.6732 114.054 59.6048 114.109 59.5508 114.176L63.5883 114.213ZM59.5345 114.377C59.5676 114.456 59.6412 114.524 59.7548 114.581C59.8876 114.645 60.028 114.692 60.1726 114.721C60.3579 114.761 60.5458 114.788 60.7348 114.802C60.9442 114.82 61.1628 114.828 61.3904 114.827C61.6229 114.827 61.8553 114.816 62.0866 114.792C62.2621 114.774 62.4362 114.745 62.6079 114.704C62.7418 114.672 62.8727 114.629 62.9992 114.575C63.1031 114.529 63.2032 114.476 63.2988 114.415L59.5345 114.377ZM69.175 114.269C69.1419 114.19 69.0617 114.12 68.9366 114.06C68.7829 113.991 68.6217 113.94 68.4563 113.908C68.2317 113.863 68.0045 113.833 67.776 113.817C67.5178 113.797 67.2327 113.788 66.9207 113.789C66.6813 113.788 66.4419 113.801 66.2038 113.826C66.0282 113.845 65.8542 113.877 65.683 113.921C65.5539 113.954 65.4287 114 65.3094 114.059C65.2101 114.109 65.1142 114.166 65.0221 114.228L69.175 114.269Z" fill="#FCB048"/>
    <path d="M64.8115 112.617C59.0327 112.617 53.0155 113.126 52.0527 114.11C52.0902 114.144 52.1254 114.181 52.158 114.22C52.9692 113.537 57.9377 112.849 64.8115 112.849C71.8615 112.849 76.9101 113.573 77.5217 114.273C77.5516 114.235 77.5839 114.198 77.6182 114.163C76.8247 113.146 70.6947 112.617 64.8115 112.617Z" fill="url(#paint34_linear_4821_37878)"/>
    <path d="M54.959 111.109V113.984C54.959 114.912 60.762 115.666 67.92 115.666C75.0779 115.666 80.8809 114.912 80.8809 113.984V111.11L54.959 111.109Z" fill="url(#paint35_linear_4821_37878)"/>
    <path d="M67.9239 112.787C75.082 112.787 80.8848 112.034 80.8848 111.105C80.8848 110.177 75.082 109.424 67.9239 109.424C60.7657 109.424 54.9629 110.177 54.9629 111.105C54.9629 112.034 60.7657 112.787 67.9239 112.787Z" fill="url(#paint36_linear_4821_37878)"/>
    <path d="M67.9235 112.908C61.5843 112.908 54.9551 112.303 54.9551 111.135C54.9551 111.071 54.978 110.959 55.0432 110.959C55.1084 110.959 55.0798 111.047 55.0798 111.111C55.0798 111.852 60.3549 112.677 67.9244 112.677C75.4939 112.677 80.7691 111.852 80.7691 111.111C80.7691 111.047 80.7801 110.987 80.8444 110.987C80.9087 110.987 80.8929 111.073 80.8929 111.137C80.892 112.303 74.2628 112.908 67.9235 112.908Z" fill="url(#paint37_linear_4821_37878)"/>
    <path d="M66.6964 111.202C66.8233 111.114 66.9608 111.026 67.1035 110.941C67.2794 110.842 67.4663 110.764 67.6605 110.709C67.9402 110.63 68.2259 110.573 68.5149 110.54C68.9391 110.492 69.3657 110.469 69.7927 110.471C70.2938 110.469 70.7638 110.485 71.2027 110.519C71.592 110.546 71.9793 110.598 72.3624 110.672C72.6431 110.724 72.9166 110.809 73.1771 110.925C73.3851 111.026 73.509 111.141 73.549 111.27L75.0083 111.285C75.1022 111.284 75.1959 111.293 75.2881 111.311C75.3701 111.327 75.4093 111.348 75.4093 111.374V111.494L73.5331 111.476C73.467 111.623 73.2993 111.757 73.0299 111.88C72.6991 112.021 72.3543 112.128 72.0011 112.197L71.3181 112.102C71.2667 112.095 71.2161 112.083 71.167 112.066C71.1278 112.052 71.1084 112.036 71.1084 112.019C71.1084 111.996 71.1612 111.969 71.267 111.94C71.3727 111.911 71.4922 111.874 71.6248 111.83C71.7582 111.786 71.889 111.734 72.0165 111.675C72.1438 111.616 72.2289 111.543 72.2734 111.462L67.8447 111.418C67.7191 111.509 67.5886 111.594 67.4538 111.67C67.2725 111.767 67.0802 111.842 66.881 111.893C66.5885 111.969 66.2907 112.023 65.9901 112.054C65.5438 112.1 65.0953 112.122 64.6466 112.12C64.2404 112.12 63.8456 112.107 63.4569 112.074C63.1104 112.047 62.766 111.998 62.4259 111.927C62.1705 111.877 61.9223 111.795 61.6865 111.685C61.4944 111.589 61.3869 111.478 61.3644 111.353L60.1628 111.341C60.0677 111.341 59.9727 111.333 59.879 111.316C59.7962 111.3 59.7539 111.279 59.7539 111.252V111.132L61.397 111.148C61.4693 111.021 61.6173 110.911 61.846 110.817C62.1163 110.71 62.3952 110.626 62.6797 110.566L63.2296 110.641C63.3966 110.665 63.4798 110.693 63.4798 110.724C63.4798 110.741 63.4459 110.762 63.3767 110.787L63.1304 110.878C63.0366 110.913 62.9451 110.954 62.8568 111.001C62.7791 111.039 62.7108 111.094 62.6567 111.161L66.6964 111.202ZM62.6426 111.365C62.6757 111.444 62.7493 111.512 62.863 111.569C62.9957 111.634 63.136 111.681 63.2807 111.71C63.4661 111.749 63.6539 111.776 63.8429 111.791C64.0524 111.808 64.2709 111.816 64.4986 111.815C64.7311 111.815 64.9634 111.804 65.1947 111.781C65.3701 111.763 65.5441 111.733 65.7156 111.692C65.8496 111.661 65.9807 111.617 66.1073 111.563C66.211 111.518 66.3111 111.464 66.4065 111.403L62.6426 111.365ZM72.2831 111.258C72.25 111.178 72.1694 111.108 72.0443 111.048C71.8908 110.979 71.7297 110.928 71.5644 110.896C71.3399 110.851 71.1126 110.821 70.8841 110.805C70.6259 110.785 70.3407 110.776 70.0284 110.778C69.7891 110.777 69.5499 110.789 69.3119 110.815C69.1363 110.834 68.9623 110.865 68.7911 110.909C68.6619 110.942 68.5365 110.988 68.417 111.048C68.318 111.098 68.2222 111.154 68.1302 111.216L72.2831 111.258Z" fill="#FCB048"/>
    <path d="M67.9267 109.609C62.1479 109.609 56.1303 110.118 55.168 111.102C55.2054 111.137 55.2406 111.174 55.2733 111.213C56.0845 110.529 61.053 109.842 67.9267 109.842C74.9767 109.842 80.0254 110.565 80.6365 111.265C80.6666 111.227 80.699 111.19 80.7335 111.156C79.9386 110.137 73.8086 109.609 67.9267 109.609Z" fill="url(#paint38_linear_4821_37878)"/>
    <path d="M53.3438 108.088V110.962C53.3438 111.891 59.1468 112.644 66.3047 112.644C73.4627 112.644 79.2657 111.891 79.2657 110.962V108.088H53.3438Z" fill="url(#paint39_linear_4821_37878)"/>
    <path d="M66.3047 109.771C73.4629 109.771 79.2657 109.018 79.2657 108.09C79.2657 107.161 73.4629 106.408 66.3047 106.408C59.1466 106.408 53.3438 107.161 53.3438 108.09C53.3438 109.018 59.1466 109.771 66.3047 109.771Z" fill="url(#paint40_linear_4821_37878)"/>
    <path d="M66.3044 109.886C59.9651 109.886 53.3359 109.281 53.3359 108.114C53.3359 108.049 53.3589 107.938 53.4241 107.938C53.4893 107.938 53.4606 108.026 53.4606 108.09C53.4606 108.83 58.7358 109.656 66.3053 109.656C73.8748 109.656 79.15 108.83 79.15 108.09C79.15 108.026 79.161 107.966 79.2253 107.966C79.2896 107.966 79.2738 108.051 79.2738 108.115C79.2729 109.283 72.6437 109.886 66.3044 109.886Z" fill="url(#paint41_linear_4821_37878)"/>
    <path d="M65.0773 108.186C65.2042 108.098 65.3416 108.01 65.4844 107.925C65.6602 107.826 65.8472 107.749 66.0413 107.694C66.321 107.614 66.6068 107.557 66.8957 107.524C67.3199 107.476 67.7466 107.453 68.1735 107.455C68.6747 107.453 69.1447 107.469 69.5835 107.503C69.9728 107.531 70.3601 107.582 70.7432 107.657C71.0239 107.708 71.2974 107.793 71.558 107.909C71.7659 108.01 71.8899 108.125 71.9298 108.254L73.3892 108.269C73.4831 108.268 73.5768 108.277 73.669 108.295C73.7509 108.312 73.7902 108.332 73.7902 108.358V108.478L71.914 108.46C71.8479 108.607 71.6802 108.742 71.4108 108.864C71.08 109.006 70.7351 109.112 70.3819 109.181L69.699 109.086C69.6475 109.079 69.5969 109.067 69.5478 109.05C69.5086 109.036 69.4892 109.02 69.4892 109.004C69.4892 108.987 69.5421 108.954 69.6479 108.924C69.7536 108.895 69.873 108.858 70.0056 108.814C70.1391 108.77 70.2699 108.719 70.3974 108.66C70.5247 108.6 70.6097 108.528 70.6542 108.446L66.2255 108.402C66.1 108.494 65.9695 108.578 65.8347 108.655C65.6534 108.752 65.4611 108.827 65.2619 108.878C64.9694 108.954 64.6716 109.008 64.3709 109.039C63.9246 109.085 63.4761 109.107 63.0275 109.105C62.6212 109.105 62.2264 109.091 61.8378 109.061C61.4913 109.034 61.1469 108.985 60.8067 108.914C60.5514 108.863 60.3031 108.782 60.0673 108.672C59.8752 108.575 59.7677 108.465 59.7453 108.34L58.5437 108.328C58.4485 108.328 58.3535 108.32 58.2599 108.302C58.1771 108.287 58.1348 108.265 58.1348 108.239V108.119L59.7779 108.134C59.8501 108.008 59.9982 107.897 60.2269 107.803C60.4972 107.696 60.776 107.613 61.0605 107.553L61.6104 107.628C61.7774 107.652 61.8607 107.679 61.8607 107.711C61.8607 107.728 61.8268 107.749 61.7576 107.774L61.5113 107.865C61.4173 107.899 61.3259 107.941 61.2376 107.988C61.1599 108.026 61.0916 108.08 61.0376 108.148L65.0773 108.186ZM61.0235 108.35C61.0566 108.428 61.1301 108.496 61.2438 108.554C61.3765 108.618 61.5169 108.665 61.6615 108.694C61.847 108.734 62.0348 108.761 62.2238 108.775C62.4332 108.792 62.6518 108.8 62.8794 108.799C63.1119 108.8 63.3443 108.788 63.5756 108.765C63.7509 108.747 63.9249 108.718 64.0964 108.677C64.2305 108.645 64.3615 108.602 64.4881 108.547C64.5919 108.502 64.6919 108.449 64.7873 108.388L61.0235 108.35ZM70.6639 108.242C70.6309 108.162 70.5503 108.092 70.4251 108.032C70.2716 107.963 70.1106 107.912 69.9453 107.881C69.7207 107.836 69.4935 107.805 69.2649 107.79C69.0067 107.77 68.7215 107.761 68.4093 107.762C68.1699 107.761 67.9308 107.774 67.6928 107.799C67.5172 107.818 67.3431 107.85 67.172 107.894C67.0428 107.926 66.9174 107.973 66.7979 108.032C66.6989 108.082 66.6031 108.139 66.511 108.201L70.6639 108.242Z" fill="#FCB048"/>
    <path d="M66.3076 106.594C60.5288 106.594 54.5112 107.102 53.5488 108.086C53.5863 108.121 53.6214 108.158 53.6541 108.197C54.4653 107.514 59.4338 106.826 66.3076 106.826C73.3576 106.826 78.4062 107.55 79.0174 108.25C79.0473 108.211 79.0797 108.174 79.1143 108.14C78.3194 107.121 72.1895 106.594 66.3076 106.594Z" fill="url(#paint42_linear_4821_37878)"/>
    <path d="M82.9525 110.115L80.6097 111.78C79.8527 112.318 82.6027 117.482 86.7516 123.314C90.9005 129.145 94.878 133.436 95.635 132.898L97.9774 131.232L82.9525 110.115Z" fill="url(#paint43_linear_4821_37878)"/>
    <path d="M97.9764 131.236C97.2194 131.774 93.2423 127.484 89.0934 121.652C84.9445 115.82 82.1945 110.656 82.9515 110.118C83.7085 109.58 87.6856 113.871 91.8345 119.702C95.9834 125.534 98.7334 130.698 97.9764 131.236Z" fill="url(#paint44_linear_4821_37878)"/>
    <path d="M89.0008 121.72C85.3264 116.555 81.9777 110.804 82.9294 110.127C82.9814 110.09 83.0868 110.043 83.1238 110.096C83.1608 110.148 83.0731 110.177 83.0211 110.214C82.4174 110.643 84.8025 115.419 89.1898 121.586C93.5771 127.753 97.3075 131.572 97.9107 131.143C97.9631 131.105 98.0186 131.08 98.0557 131.132C98.0927 131.184 98.0142 131.22 97.9618 131.258C97.0105 131.935 92.6756 126.885 89.0008 121.72Z" fill="url(#paint45_linear_4821_37878)"/>
    <path d="M89.6787 119.732C89.8241 119.785 89.9735 119.845 90.1273 119.913C90.3098 119.999 90.4815 120.106 90.6388 120.232C90.8659 120.414 91.0777 120.614 91.272 120.83C91.5575 121.149 91.824 121.483 92.07 121.833C92.3637 122.239 92.6233 122.632 92.8486 123.01C93.052 123.343 93.2348 123.688 93.3958 124.044C93.5157 124.302 93.6044 124.574 93.6602 124.854C93.699 125.082 93.6769 125.25 93.5945 125.357L94.4286 126.554C94.4835 126.631 94.5307 126.712 94.5696 126.798C94.6031 126.873 94.6089 126.918 94.5881 126.933L94.4908 127.003L93.4178 125.464C93.2601 125.495 93.0533 125.437 92.7974 125.288C92.49 125.1 92.2033 124.881 91.9422 124.633L91.6236 124.022C91.5996 123.976 91.5802 123.928 91.5655 123.878C91.554 123.838 91.5558 123.813 91.5699 123.803C91.584 123.793 91.6404 123.818 91.7258 123.887C91.8113 123.956 91.9105 124.031 92.0233 124.114C92.1362 124.197 92.2539 124.274 92.3758 124.343C92.4983 124.413 92.6053 124.441 92.6987 124.429L90.1674 120.796C90.0203 120.746 89.876 120.689 89.7351 120.624C89.5506 120.532 89.3778 120.418 89.2205 120.285C88.9891 120.09 88.7726 119.879 88.5727 119.652C88.2766 119.315 87.9988 118.962 87.7404 118.595C87.5033 118.266 87.2863 117.934 87.0891 117.6C86.9104 117.303 86.7508 116.994 86.6115 116.675C86.5045 116.438 86.4268 116.189 86.3802 115.933C86.3473 115.72 86.375 115.569 86.4635 115.478L85.7774 114.492C85.722 114.415 85.6738 114.332 85.6333 114.246C85.5981 114.17 85.5893 114.123 85.6126 114.107L85.7104 114.037L86.6498 115.385C86.7948 115.371 86.9711 115.429 87.1786 115.559C87.4227 115.717 87.6528 115.895 87.8664 116.093L88.1237 116.584C88.2013 116.734 88.2268 116.818 88.2013 116.836C88.1876 116.846 88.1506 116.83 88.0902 116.789C88.0299 116.748 87.9581 116.697 87.8735 116.641C87.7905 116.584 87.704 116.534 87.6144 116.489C87.5384 116.448 87.4541 116.424 87.3676 116.419L89.6787 119.732ZM87.1971 116.526C87.153 116.598 87.1394 116.697 87.1574 116.821C87.1819 116.967 87.2249 117.109 87.2852 117.244C87.3606 117.418 87.4474 117.586 87.5452 117.748C87.6521 117.929 87.7723 118.112 87.9056 118.297C88.0401 118.486 88.184 118.669 88.337 118.844C88.4534 118.976 88.5783 119.101 88.7111 119.217C88.8147 119.308 88.9259 119.39 89.0433 119.462C89.1405 119.52 89.242 119.57 89.3469 119.613L87.1971 116.526ZM92.8724 124.317C92.9164 124.244 92.9288 124.138 92.9054 124.001C92.8727 123.836 92.8208 123.675 92.7507 123.522C92.6572 123.313 92.5502 123.11 92.4304 122.915C92.2973 122.693 92.1396 122.456 91.9572 122.202C91.8189 122.007 91.6702 121.819 91.5117 121.64C91.3943 121.508 91.2677 121.384 91.1328 121.27C91.0312 121.184 90.9207 121.109 90.8032 121.046C90.7048 120.994 90.6033 120.949 90.4991 120.91L92.8724 124.317Z" fill="#FCB048"/>
    <path d="M91.6884 119.809C88.3397 115.1 84.4366 110.493 83.0764 110.279C83.07 110.33 83.0601 110.38 83.0469 110.429C84.0744 110.693 87.5148 114.343 91.4994 119.944C95.5857 125.688 97.9219 130.22 97.7056 131.125C97.7545 131.127 97.8032 131.132 97.8514 131.14C98.2211 129.9 95.0975 124.601 91.6884 119.809Z" fill="url(#paint46_linear_4821_37878)"/>
    <path d="M147.967 18.4513L86.7174 14.5747C85.3074 14.4994 84.0371 16.1826 84.0371 17.5962V103.85C84.0371 105.81 85.8683 106.205 87.2788 106.047L147.967 99.2691C149.076 99.1453 149.971 98.0357 149.971 96.7908V20.8129C149.971 19.5675 149.076 18.5103 147.967 18.4513Z" fill="url(#paint47_linear_4821_37878)"/>
    <path d="M148.975 17.7608L87.6045 14.4569C86.1945 14.3807 85.0449 15.474 85.0449 16.8987V103.827C85.0449 105.252 86.1936 106.277 87.6045 106.118L148.975 99.2099C150.084 99.0852 150.979 97.9672 150.979 96.7122V20.1404C150.979 18.8858 150.084 17.8202 148.975 17.7608Z" fill="#D8DEE8"/>
    <path d="M87.6041 104.941C86.8432 105.025 86.2228 104.469 86.2228 103.702V16.9605C86.2202 16.7811 86.2547 16.6032 86.324 16.4378C86.3933 16.2723 86.496 16.1229 86.6256 15.9989C86.7552 15.8749 86.909 15.779 87.0774 15.717C87.2457 15.6551 87.425 15.6285 87.6041 15.6389L148.975 18.8107C149.574 18.8419 150.061 19.4195 150.061 20.0983V96.8136C150.061 97.4925 149.576 98.0986 148.975 98.1647L87.6041 104.941Z" fill="url(#paint48_linear_4821_37878)"/>
    <path d="M145.02 96.1127L92.5293 101.643V21.6172L145.02 23.7792V96.1127Z" fill="white"/>
    <g style="mix-blend-mode:multiply" opacity="0.3">
        <path d="M124.025 24.1677L103.047 24.4549L103.517 19.2811C103.553 18.6088 103.997 18.0569 104.582 17.9595L108.135 17.3626C108.553 17.2921 108.914 16.9899 109.097 16.5556L109.482 15.6406L118.775 16.2684L124.025 24.1677Z" fill="#97A6B7"/>
    </g>
    <path d="M135.227 20.8101C135.128 20.2247 134.698 19.8137 134.159 19.7873L130.806 19.6229C129.285 19.5485 128.17 18.197 128.225 16.4847L128.355 12.5174C128.379 11.7835 127.9 11.1958 127.241 11.1518L126.139 11.0795C125.299 11.0249 124.74 10.2152 124.858 9.27914C125.064 7.64306 124.039 6.2312 122.554 6.12019C121.055 6.00873 119.659 7.2598 119.436 8.91659C119.404 9.16424 119.325 9.4035 119.203 9.62142C118.857 10.2285 118.251 10.5628 117.657 10.524L116.521 10.4496C115.833 10.4055 115.178 10.9342 115.004 11.6764L114.06 15.7063C113.652 17.4481 112.11 18.7067 110.474 18.6265L106.797 18.4463C106.194 18.4168 105.604 18.7987 105.326 19.4027L103.111 24.2109C102.929 24.6048 103.155 25.0299 103.548 25.0444L135.436 26.2025C135.785 26.2153 136.081 25.8347 136.017 25.4567L135.227 20.8101ZM122.102 9.5549C121.661 9.52539 121.358 9.10778 121.422 8.62233C121.485 8.13688 121.894 7.76904 122.333 7.80032C122.772 7.8316 123.074 8.24921 123.01 8.7329C122.947 9.21659 122.54 9.5831 122.102 9.5549Z" fill="url(#paint49_linear_4821_37878)"/>
    <path d="M135.417 20.9176C135.317 20.3321 134.888 19.9215 134.348 19.8947L130.995 19.7308C129.473 19.6559 128.357 18.3044 128.413 16.5921L128.543 12.6248C128.567 11.8909 128.088 11.3033 127.429 11.2592L126.328 11.187C125.488 11.1323 124.929 10.3227 125.046 9.38656C125.252 7.75048 124.227 6.33862 122.741 6.22761C121.243 6.11616 119.847 7.36723 119.624 9.02402C119.592 9.27244 119.513 9.51246 119.391 9.73105C119.045 10.3376 118.439 10.672 117.845 10.6332L116.709 10.5588C116.02 10.5147 115.367 11.0433 115.192 11.7856L114.251 15.8137C113.842 17.5555 112.302 18.8141 110.665 18.7339L106.988 18.5537C106.386 18.5242 105.795 18.9062 105.517 19.5101L103.3 24.3184C103.118 24.7122 103.344 25.1373 103.737 25.1518L135.626 26.3099C135.975 26.3227 136.271 25.9421 136.206 25.5641L135.417 20.9176ZM122.291 9.66277C121.85 9.63281 121.547 9.2152 121.611 8.72975C121.675 8.2443 122.083 7.87647 122.522 7.90774C122.962 7.93902 123.263 8.35663 123.2 8.84032C123.136 9.32401 122.73 9.69228 122.291 9.66277Z" fill="#97A6B7"/>
    <g style="mix-blend-mode:soft-light" opacity="0.5">
        <path d="M129.959 23.129C127.115 21.2088 124.932 22.5704 123.159 20.4044C121.262 18.086 122.543 15.0336 120.578 13.5931C119.321 12.6711 118.199 13.4843 116.737 13.2345C116.202 13.1434 115.631 12.9103 115.037 12.457L114.251 15.8155C113.842 17.5573 112.302 18.8159 110.665 18.7357L106.988 18.5556C106.386 18.526 105.795 18.9102 105.517 19.5119L103.3 24.3202C103.118 24.714 103.344 25.1391 103.737 25.1536L132.717 26.2065C131.987 24.9387 131.083 23.8858 129.959 23.129Z" fill="white"/>
    </g>
    <path d="M104.142 59.9946V64.6685L99.724 64.8315V60.1118L104.142 59.9929V59.9946ZM104.62 59.5039L99.2441 59.6484V65.3271L104.62 65.1289V59.5039Z" fill="#D8DEE8"/>
    <path d="M140.294 63.8122L106.596 65.0562V59.4511L140.294 58.5449V63.8122Z" fill="#D8DEE8"/>
    <path d="M104.142 68.199V72.8724L99.724 73.1002V68.3827L104.142 68.199ZM104.62 67.7012L99.2441 67.9241V73.6032L104.62 73.3261V67.7012Z" fill="#D8DEE8"/>
    <path d="M140.294 71.4821L106.596 73.2182V67.613L140.294 66.2148V71.4821Z" fill="#D8DEE8"/>
    <path d="M104.142 76.3998V81.0724L99.724 81.3644V76.6478L104.142 76.3998ZM104.62 75.8945L99.2441 76.1958V81.875L104.62 81.5195V75.8945Z" fill="#D8DEE8"/>
    <path d="M140.294 79.1603L106.596 81.3884V75.7833L140.294 73.8926V79.1603Z" fill="#D8DEE8"/>
    <path d="M104.142 84.5991V89.2686L99.724 89.6254V84.911L104.142 84.5987V84.5991ZM104.62 84.0864L99.2441 84.4665V90.1453L104.62 89.7113V84.0859V84.0864Z" fill="#D8DEE8"/>
    <path d="M140.294 86.8395L106.596 89.5598V83.9546L140.294 81.5723V86.8395Z" fill="#D8DEE8"/>
    <path d="M99.2456 54.6222C99.2143 54.6223 99.1832 54.6164 99.1542 54.6045C99.1252 54.5927 99.0989 54.5753 99.0766 54.5533C99.0544 54.5313 99.0367 54.5051 99.0245 54.4763C99.0124 54.4474 99.006 54.4165 99.0059 54.3852V27.8796C99.0058 27.8477 99.0122 27.8161 99.0246 27.7866C99.037 27.7572 99.0552 27.7305 99.0781 27.7083C99.1007 27.6855 99.1279 27.6678 99.1578 27.6562C99.1877 27.6446 99.2197 27.6394 99.2517 27.6409L120.622 28.2638C120.684 28.2657 120.743 28.2918 120.786 28.3364C120.83 28.3811 120.854 28.4408 120.854 28.503V54.009C120.854 54.0716 120.829 54.1317 120.785 54.1764C120.741 54.2211 120.682 54.2467 120.619 54.2477L99.2486 54.6239L99.2456 54.6222ZM99.4848 28.1255V54.1402L120.375 53.7724V28.7347L99.4848 28.1255Z" fill="#D8DEE8"/>
    <path d="M140.297 32.3117L123.971 31.9363V28.5977L140.297 29.0739V32.3117Z" fill="#D8DEE8"/>
    <path d="M140.297 39.509L123.971 39.3571V37.6875L140.297 37.8901V39.509Z" fill="#D8DEE8"/>
    <path d="M140.297 42.1758L123.971 42.1066V40.4375L140.297 40.5569V42.1758Z" fill="#D8DEE8"/>
    <path d="M140.297 44.8488L123.971 44.8625V43.1934L140.297 43.2299V44.8488Z" fill="#D8DEE8"/>
    <path d="M100.08 53.4418V43.2791L103.191 42.7879L116.48 42.6465L119.842 43.2504V53.126L100.08 53.4418Z" fill="#D8DEE8"/>
    <path d="M110.616 36.3047C110.77 37.8656 110.924 39.4255 111.077 40.9843C111.119 41.4063 111.435 41.7389 111.83 41.7772C113.387 41.9222 115.097 42.69 116.636 42.8345L109.577 45.0371L103.348 42.9746C105.028 42.7186 106.251 42.1816 107.484 41.7817C107.642 41.727 107.781 41.628 107.885 41.4964C107.988 41.3649 108.051 41.2064 108.067 41.0398C108.174 40.0736 108.281 39.1079 108.388 38.1425L110.616 36.3047Z" fill="white"/>
    <path d="M109.58 45.2723C109.555 45.2723 109.529 45.2683 109.505 45.2604L103.276 43.1961C103.225 43.1794 103.181 43.1458 103.151 43.101C103.121 43.0562 103.108 43.0027 103.112 42.9491C103.117 42.8956 103.139 42.8451 103.176 42.8059C103.213 42.7667 103.262 42.7411 103.315 42.7331C104.568 42.5424 105.555 42.1948 106.511 41.8587C106.819 41.7495 107.113 41.6464 107.414 41.5503C107.528 41.51 107.628 41.4375 107.703 41.3417C107.777 41.2458 107.822 41.1306 107.833 41.0098L108.153 38.1121C108.16 38.0503 108.19 37.9935 108.238 37.954L110.468 36.1196C110.501 36.0919 110.541 36.0738 110.584 36.0672C110.627 36.0606 110.671 36.0659 110.711 36.0824C110.751 36.0989 110.786 36.126 110.812 36.1608C110.838 36.1956 110.854 36.2368 110.858 36.28L111.318 40.9596C111.349 41.268 111.575 41.5103 111.856 41.5362C112.657 41.6107 113.499 41.8446 114.312 42.0737C115.1 42.2939 115.915 42.5221 116.662 42.5913C116.717 42.5964 116.769 42.6203 116.808 42.6591C116.847 42.6978 116.872 42.749 116.878 42.8039C116.884 42.8588 116.87 42.914 116.84 42.9601C116.81 43.0062 116.764 43.0404 116.712 43.0569L109.652 45.2595C109.629 45.2675 109.604 45.2718 109.58 45.2723ZM104.301 43.034L109.58 44.782L115.602 42.9027C115.128 42.7992 114.65 42.6657 114.181 42.5345C113.388 42.3142 112.568 42.0829 111.809 42.0124C111.301 41.9649 110.894 41.542 110.839 41.0067L110.423 36.7729L108.616 38.261L108.308 41.0623C108.287 41.2744 108.205 41.4761 108.073 41.6432C107.941 41.8104 107.763 41.936 107.562 42.005C107.267 42.1005 106.976 42.2023 106.669 42.3107C105.935 42.5693 105.181 42.8345 104.301 43.034H104.301Z" fill="#D8DEE8"/>
    <path d="M112.304 36.1577C112.304 38.44 111.087 41.1087 109.579 41.0994C108.063 41.0906 106.828 38.381 106.828 36.0775C106.828 33.774 108.062 32.7639 109.579 32.7956C111.087 32.8256 112.304 33.8754 112.304 36.1577Z" fill="white"/>
    <path d="M109.588 41.339H109.581C107.897 41.3288 106.592 38.5016 106.592 36.0761C106.592 34.8783 106.923 33.9211 107.549 33.3083C108.069 32.7991 108.776 32.5383 109.587 32.5555C111.768 32.5995 112.546 34.4462 112.546 36.158C112.546 37.8946 111.885 39.7637 110.94 40.7033C110.513 41.1253 110.059 41.339 109.588 41.339ZM109.511 33.0326C108.857 33.0326 108.294 33.2453 107.881 33.6493C107.348 34.17 107.067 35.0092 107.067 36.0757C107.067 38.2232 108.227 40.8526 109.581 40.8606C109.93 40.8606 110.267 40.6958 110.6 40.3641C111.449 39.5205 112.065 37.7514 112.065 36.1576C112.065 34.2334 111.134 33.0652 109.574 33.0326H109.511Z" fill="#D8DEE8"/>
    <path d="M99.9258 62.3519C99.9258 62.3519 101.401 63.5853 101.684 64.3417C101.708 64.3747 102.173 64.2633 102.226 64.2858C102.392 63.9532 102.65 63.0461 103.33 62.0008C104.221 60.6317 105.269 59.3053 105.286 59.2885C105.291 59.2847 105.294 59.2796 105.295 59.274C105.302 59.2299 105.129 59.1581 105.101 59.1859C104.922 59.3621 103.876 60.3885 103.026 61.4444C102.562 62.0319 102.138 62.65 101.757 63.2946C101.757 63.2946 100.347 62.207 100.158 62.144L99.9258 62.3519Z" fill="url(#paint50_linear_4821_37878)"/>
    <path d="M99.9258 70.8734C99.9258 70.8734 101.401 72.1068 101.684 72.8632C101.708 72.8963 102.173 72.7848 102.226 72.8073C102.392 72.4747 102.65 71.5677 103.33 70.5223C104.221 69.1532 105.269 67.8268 105.286 67.81C105.291 67.8062 105.294 67.8011 105.295 67.7955C105.302 67.7514 105.129 67.6796 105.101 67.7074C104.922 67.8836 103.876 68.91 103.026 69.9659C102.562 70.5527 102.138 71.1701 101.757 71.8139C101.757 71.8139 100.347 70.7263 100.158 70.6633L99.9258 70.8734Z" fill="url(#paint51_linear_4821_37878)"/>
    <path d="M99.9258 79.4751C99.9258 79.4751 101.401 80.7063 101.684 81.4645C101.708 81.4979 102.173 81.3861 102.226 81.409C102.392 81.0764 102.65 80.1689 103.33 79.124C104.221 77.7544 105.269 76.428 105.286 76.4113C105.291 76.4076 105.294 76.4027 105.295 76.3972C105.302 76.3531 105.129 76.2809 105.101 76.3091C104.922 76.4853 103.876 77.5113 103.026 78.5676C102.562 79.1543 102.138 79.7717 101.757 80.4156C101.757 80.4156 100.347 79.3275 100.158 79.2645L99.9258 79.4751Z" fill="url(#paint52_linear_4821_37878)"/>
    <path d="M99.9258 87.2644C99.9258 87.2644 101.401 88.4957 101.684 89.2538C101.708 89.2873 102.173 89.1754 102.226 89.1983C102.392 88.8657 102.65 87.9583 103.33 86.9129C104.221 85.5438 105.269 84.2174 105.286 84.2006C105.291 84.1968 105.294 84.1918 105.295 84.1861C105.302 84.1421 105.129 84.0702 105.101 84.098C104.922 84.2742 103.876 85.3002 103.026 86.3561C102.562 86.9429 102.138 87.5603 101.757 88.2041C101.757 88.2041 100.347 87.1164 100.158 87.0534L99.9258 87.2644Z" fill="url(#paint53_linear_4821_37878)"/>
    <path d="M128.738 69.2908C129.051 69.0475 129.294 68.7261 129.443 68.3591C129.63 67.8803 129.498 67.6671 129.732 67.3675C130.029 66.9882 130.636 66.8248 131.054 67.0102C131.162 67.0497 131.253 67.1224 131.316 67.2177C131.501 67.5301 131.09 68.071 130.763 68.3591C130.516 68.5763 130.414 68.56 130.152 68.7446C129.891 68.9291 129.575 69.2353 129.315 69.8045L128.738 69.2908Z" fill="url(#paint54_linear_4821_37878)"/>
    <path d="M142.465 66.6682C142.082 66.5666 141.733 66.3659 141.452 66.0862C141.093 65.718 141.131 65.4695 140.799 65.2863C140.378 65.0524 139.755 65.1387 139.444 65.4717C139.361 65.55 139.305 65.6528 139.284 65.7651C139.235 66.1246 139.825 66.4629 140.239 66.6021C140.551 66.7052 140.639 66.6505 140.952 66.7188C141.257 66.7849 141.674 66.9457 142.135 67.3686L142.465 66.6682Z" fill="url(#paint55_linear_4821_37878)"/>
    <path d="M141.157 67.1163C140.975 67.9841 141.913 68.7559 142.59 69.514C143.948 71.0347 145.369 73.7478 144.848 76.0777C144.563 77.3495 143.649 78.7248 142.358 79.3767C140.97 80.0785 140.137 79.4402 138.693 80.2732C138.586 80.3344 136.76 81.4185 136.706 82.8789C136.641 84.6815 139.292 86.5995 141.561 86.7462C145.712 87.0144 150.713 81.4965 150.48 76.0209C150.226 70.0594 143.82 65.3278 141.976 66.1299C141.686 66.2555 141.26 66.6277 141.157 67.1163Z" fill="url(#paint56_linear_4821_37878)"/>
    <path d="M139.307 128.841L139.158 130.351L139.862 130.224L140.335 128.805L139.307 128.841Z" fill="url(#paint57_linear_4821_37878)"/>
    <path d="M143.599 100.938C143.539 103.241 143.27 105.534 142.795 107.788C142.368 109.803 142.12 110.152 141.987 111.546C141.698 114.578 142.675 115.012 142.855 118.441C143.053 122.225 142.046 125.234 141.651 126.382C141.371 127.192 141.043 127.986 140.67 128.758C140.322 129.061 139.792 128.944 139.232 128.831C139.026 125.397 138.769 122.166 138.563 118.733L136.568 103.238L143.599 100.938Z" fill="url(#paint58_linear_4821_37878)"/>
    <path style="mix-blend-mode:multiply" opacity="0.3" d="M139.228 128.83C139.022 125.396 138.765 122.165 138.559 118.732L136.564 103.237L143.597 100.938C143.592 101.114 143.583 101.286 143.576 101.461C140.288 104.315 139.644 106.577 139.677 108.119C139.715 109.99 140.739 110.917 140.539 113.63C140.396 115.568 139.813 115.911 139.813 117.661C139.813 119.915 140.783 121.182 141.252 122.484C141.707 123.742 141.869 125.523 140.99 128.061C140.874 128.322 140.765 128.557 140.668 128.758C140.319 129.06 139.788 128.944 139.228 128.83Z" fill="url(#paint59_linear_4821_37878)"/>
    <path d="M139.57 130.867C139.903 130.454 140.209 130.484 140.265 130.206C140.309 129.986 140.169 129.722 139.964 129.623C139.677 129.486 139.337 129.717 139.259 129.769C138.738 130.124 138.894 130.658 138.4 130.902C138.301 130.951 138.143 131.004 137.979 131.166C137.909 131.234 137.736 131.403 137.781 131.516C137.831 131.648 138.145 131.635 138.444 131.625C138.802 131.611 138.981 131.605 139.151 131.492C139.388 131.336 139.313 131.185 139.57 130.867Z" fill="url(#paint60_linear_4821_37878)"/>
    <path d="M138.863 117.948L140.179 118.463L140.563 117.859L139.534 117.168L138.863 117.948Z" fill="url(#paint61_linear_4821_37878)"/>
    <path d="M140.874 118.78C140.796 118.255 141.026 118.051 140.858 117.82C140.726 117.639 140.436 117.562 140.225 117.644C139.93 117.762 139.869 118.169 139.855 118.261C139.763 118.884 140.261 119.132 140.105 119.66C140.073 119.766 140.006 119.918 140.012 120.148C140.015 120.245 140.022 120.486 140.135 120.531C140.265 120.582 140.47 120.344 140.663 120.117C140.897 119.845 141.014 119.71 141.047 119.509C141.095 119.232 140.933 119.185 140.874 118.78Z" fill="url(#paint62_linear_4821_37878)"/>
    <path d="M133.171 98.5508C130.721 103.548 129.888 107.714 129.573 110.435C129.371 112.184 129.39 113.266 129.894 114.353C131.701 118.245 137.997 118.501 138.954 118.529C139.269 117.883 139.584 117.238 139.899 116.595C139.319 115.52 138.308 114.028 136.577 112.939C135.245 112.102 134.726 112.281 134.392 111.718C133.059 109.461 140.258 104.573 139.183 101.319C138.811 100.193 137.378 99.0525 133.171 98.5508Z" fill="url(#paint63_linear_4821_37878)"/>
    <path d="M138.483 80.5912C135.835 81.0458 133.818 81.5193 132.918 82.9061C131.967 84.3708 133.479 85.4734 133.89 88.6875C134.519 93.608 131.69 95.4463 132.504 100.401C132.624 101.13 132.809 101.847 133.056 102.544C133.44 103.621 134.177 104.537 135.148 105.143C135.981 105.667 136.87 106.097 137.799 106.423C140.487 107.363 141.809 106.817 145.422 107.023C151.332 107.361 152.217 109.074 154.887 108.02C157.586 106.955 159.539 104.077 158.967 102.847C158.624 102.111 157.543 102.571 155.992 101.667C153.993 100.501 154.329 98.911 152.707 97.5463C150.378 95.5868 148.137 97.5656 146.145 95.8617C144.13 94.138 143.89 89.9456 144.746 87.45C145.305 85.8201 145.316 84.0475 145.731 82.3748C145.782 82.1728 145.774 81.9602 145.706 81.7629C145.376 80.8013 143.616 80.6176 142.287 80.4898C140.259 80.2956 138.701 80.5524 138.483 80.5912Z" fill="url(#paint64_linear_4821_37878)"/>
    <path style="mix-blend-mode:multiply" opacity="0.3" d="M154.578 106.154C153.76 105.609 154.203 104.063 152.992 103.243C151.867 102.481 150.99 103.477 149.332 102.969C147.206 102.317 147.317 100.271 145.278 99.6173C143.813 99.1478 143.371 100.083 141.257 100.123C139.144 100.163 136.381 99.2931 134.63 97.0571C133.964 96.2011 133.492 95.2116 133.244 94.1562C132.68 95.9782 132.067 97.7399 132.504 100.399C132.658 101.331 132.917 102.243 133.274 103.117C133.549 103.791 134.013 104.371 134.611 104.786C135.594 105.474 136.667 106.024 137.799 106.422C140.487 107.362 141.809 106.816 145.422 107.022C151.332 107.36 152.217 109.074 154.887 108.02C156.612 107.339 158.028 105.919 158.68 104.661C156.345 106.361 155.172 106.549 154.578 106.154Z" fill="url(#paint65_linear_4821_37878)"/>
    <path d="M136.952 76.0078C136.952 76.0078 136.223 77.3774 136.176 78.3386C136.13 79.2998 137.215 79.2298 137.215 79.2298L137.175 79.8364C137.158 80.0897 137.068 80.3327 136.916 80.536C136.763 80.7393 136.555 80.8941 136.317 80.9817L135.889 81.139C135.889 81.139 138.683 81.7372 140.209 80.6597L139.768 80.6156C139.466 80.5861 139.184 80.453 138.969 80.2389C138.754 80.0248 138.62 79.743 138.589 79.4412L138.562 79.1817C138.562 79.1817 139.048 76.1867 136.952 76.0078Z" fill="url(#paint66_linear_4821_37878)"/>
    <path d="M130.068 69.5646C130.483 70.3488 129.794 71.3496 129.352 72.265C128.466 74.1011 127.849 77.101 128.993 79.1952C129.617 80.3406 130.875 81.4097 132.297 81.6802C133.826 81.9718 134.449 81.1287 136.068 81.5313C136.187 81.5613 138.242 82.0983 138.696 83.4881C139.256 85.203 137.237 87.7774 135.096 88.5443C131.18 89.947 124.851 86.0215 123.564 80.6939C122.164 74.894 127.017 68.5796 129.01 68.844C129.323 68.8836 129.837 69.1237 130.068 69.5646Z" fill="url(#paint67_linear_4821_37878)"/>
    <path d="M137.39 77.3712C137.534 77.3593 137.654 77.176 137.753 77.2302C137.851 77.2844 137.845 77.5544 137.753 77.7416C137.694 77.8586 137.603 77.9562 137.491 78.0227C137.646 78.2328 137.753 78.4745 137.804 78.7306C137.936 79.4253 137.565 79.9839 137.411 80.3103C136.72 81.7838 137.796 84.1129 138.978 85.2882C139.938 86.2445 140.388 85.8608 140.961 86.641C142.077 88.1608 140.536 89.8312 141.114 91.877C141.991 94.9875 146.904 95.913 147.106 95.9487C147.186 95.9628 147.238 95.972 147.324 95.9853C149.527 96.335 152.868 96.8663 155.22 95.0571C156.98 93.7043 157.788 91.3493 157.654 89.2753C157.619 88.7295 157.454 86.6582 155.766 84.9679C155.498 84.6996 153.912 83.1146 151.767 83.0953C150.632 83.0851 150.402 83.4851 149.535 83.238C148.345 82.8992 147.613 81.8186 147.159 81.1486C146.322 79.9152 146.663 79.6509 146.062 79.0456C144.884 77.8562 143.502 78.7905 142.243 77.7421C141.003 76.7086 141.751 75.3065 140.554 74.4118C139.32 73.4867 136.957 73.8113 136.453 74.91C136.023 75.8549 136.947 77.4077 137.39 77.3712Z" fill="url(#paint68_linear_4821_37878)"/>
    <defs>
        <linearGradient id="paint0_linear_4821_37878" x1="216.964" y1="264.07" x2="48.4862" y2="51.6161" gradientUnits="userSpaceOnUse">
            <stop stop-color="#B37CFF"/>
            <stop offset="1" stop-color="#F895E7"/>
        </linearGradient>
        <linearGradient id="paint1_linear_4821_37878" x1="176.377" y1="80.1424" x2="133.549" y2="76.6159" gradientUnits="userSpaceOnUse">
            <stop stop-color="#B37CFF"/>
            <stop offset="1" stop-color="#F895E7"/>
        </linearGradient>
        <linearGradient id="paint2_linear_4821_37878" x1="162.065" y1="50.9812" x2="137.303" y2="43.0789" gradientUnits="userSpaceOnUse">
            <stop stop-color="#A737D5"/>
            <stop offset="1" stop-color="#EF497A"/>
        </linearGradient>
        <linearGradient id="paint3_linear_4821_37878" x1="13" y1="46.9082" x2="76.4526" y2="46.9082" gradientUnits="userSpaceOnUse">
            <stop stop-color="#CB0645"/>
            <stop offset="1" stop-color="#DC7400"/>
        </linearGradient>
        <linearGradient id="paint4_linear_4821_37878" x1="15.0273" y1="46.9082" x2="77.6419" y2="46.9082" gradientUnits="userSpaceOnUse">
            <stop stop-color="#FF5C00"/>
            <stop offset="1" stop-color="#FDB768"/>
        </linearGradient>
        <linearGradient id="paint5_linear_4821_37878" x1="17.166" y1="48.6914" x2="76.9416" y2="48.6914" gradientUnits="userSpaceOnUse">
            <stop stop-color="#FE0555"/>
            <stop offset="1" stop-color="#FF8700"/>
        </linearGradient>
        <linearGradient id="paint6_linear_4821_37878" x1="22.6738" y1="54.0996" x2="71.4232" y2="54.0996" gradientUnits="userSpaceOnUse">
            <stop stop-color="#CB0645"/>
            <stop offset="1" stop-color="#DC7400"/>
        </linearGradient>
        <linearGradient id="paint7_linear_4821_37878" x1="23.8633" y1="55.8906" x2="68.9392" y2="55.8906" gradientUnits="userSpaceOnUse">
            <stop stop-color="#FE0555"/>
            <stop offset="1" stop-color="#FF8700"/>
        </linearGradient>
        <linearGradient id="paint8_linear_4821_37878" x1="17.166" y1="48.6973" x2="76.9416" y2="48.6973" gradientUnits="userSpaceOnUse">
            <stop stop-color="#FE0555"/>
            <stop offset="1" stop-color="#FF8700"/>
        </linearGradient>
        <linearGradient id="paint9_linear_4821_37878" x1="61.4864" y1="52.5375" x2="98.3678" y2="1.97909" gradientUnits="userSpaceOnUse">
            <stop stop-color="#FCB148"/>
            <stop offset="0.05" stop-color="#FDBA46"/>
            <stop offset="0.14" stop-color="#FFC244"/>
            <stop offset="0.32" stop-color="#FFC444"/>
            <stop offset="0.48" stop-color="#FDB946"/>
            <stop offset="0.78" stop-color="#F99C4D"/>
            <stop offset="0.87" stop-color="#F8924F"/>
            <stop offset="1" stop-color="#F8924F"/>
        </linearGradient>
        <linearGradient id="paint10_linear_4821_37878" x1="80916.3" y1="19747.3" x2="85517.7" y2="7470.8" gradientUnits="userSpaceOnUse">
            <stop stop-color="#FCB148"/>
            <stop offset="0.05" stop-color="#FDBA46"/>
            <stop offset="0.14" stop-color="#FFC244"/>
            <stop offset="0.32" stop-color="#FFC444"/>
            <stop offset="0.48" stop-color="#FDB946"/>
            <stop offset="0.78" stop-color="#F99C4D"/>
            <stop offset="0.87" stop-color="#F8924F"/>
            <stop offset="1" stop-color="#F8924F"/>
        </linearGradient>
        <linearGradient id="paint11_linear_4821_37878" x1="27540.6" y1="15005.7" x2="45084.3" y2="15005.7" gradientUnits="userSpaceOnUse">
            <stop stop-color="#FCB148"/>
            <stop offset="0.05" stop-color="#FDBA46"/>
            <stop offset="0.14" stop-color="#FFC244"/>
            <stop offset="0.32" stop-color="#FFC444"/>
            <stop offset="0.48" stop-color="#FDB946"/>
            <stop offset="0.78" stop-color="#F99C4D"/>
            <stop offset="0.87" stop-color="#F8924F"/>
            <stop offset="1" stop-color="#F8924F"/>
        </linearGradient>
        <linearGradient id="paint12_linear_4821_37878" x1="68.2865" y1="128.363" x2="69.8579" y2="141.521" gradientUnits="userSpaceOnUse">
            <stop stop-color="#FFDB44"/>
            <stop offset="1" stop-color="#FEEF06"/>
        </linearGradient>
        <linearGradient id="paint13_linear_4821_37878" x1="36378.4" y1="6320.4" x2="36380.1" y2="6501.76" gradientUnits="userSpaceOnUse">
            <stop stop-color="#FFDB44"/>
            <stop offset="1" stop-color="#FEEF06"/>
        </linearGradient>
        <linearGradient id="paint14_linear_4821_37878" x1="68.6677" y1="131.393" x2="68.1872" y2="127.366" gradientUnits="userSpaceOnUse">
            <stop stop-color="#F36F56"/>
            <stop offset="0.31" stop-color="#F99C4C"/>
            <stop offset="0.55" stop-color="#FDB946"/>
            <stop offset="0.68" stop-color="#FFC444"/>
            <stop offset="0.8" stop-color="#FFC244"/>
            <stop offset="0.87" stop-color="#FEBA46"/>
            <stop offset="0.92" stop-color="#FCAD49"/>
            <stop offset="0.96" stop-color="#F99A4D"/>
            <stop offset="1" stop-color="#F57E53"/>
        </linearGradient>
        <linearGradient id="paint15_linear_4821_37878" x1="25417.3" y1="14692" x2="42961" y2="14692" gradientUnits="userSpaceOnUse">
            <stop stop-color="#FCB148"/>
            <stop offset="0.05" stop-color="#FDBA46"/>
            <stop offset="0.14" stop-color="#FFC244"/>
            <stop offset="0.32" stop-color="#FFC444"/>
            <stop offset="0.48" stop-color="#FDB946"/>
            <stop offset="0.78" stop-color="#F99C4D"/>
            <stop offset="0.87" stop-color="#F8924F"/>
            <stop offset="1" stop-color="#F8924F"/>
        </linearGradient>
        <linearGradient id="paint16_linear_4821_37878" x1="34269.8" y1="10621.4" x2="34285.6" y2="11640.1" gradientUnits="userSpaceOnUse">
            <stop stop-color="#FFDB44"/>
            <stop offset="1" stop-color="#FEEF06"/>
        </linearGradient>
        <linearGradient id="paint17_linear_4821_37878" x1="34253.4" y1="6183.8" x2="34255" y2="6365.16" gradientUnits="userSpaceOnUse">
            <stop stop-color="#FFDB44"/>
            <stop offset="1" stop-color="#FEEF06"/>
        </linearGradient>
        <linearGradient id="paint18_linear_4821_37878" x1="8755.57" y1="1678.86" x2="8756.76" y2="1832.41" gradientUnits="userSpaceOnUse">
            <stop stop-color="#F36F56"/>
            <stop offset="0.31" stop-color="#F99C4C"/>
            <stop offset="0.55" stop-color="#FDB946"/>
            <stop offset="0.68" stop-color="#FFC444"/>
            <stop offset="0.8" stop-color="#FFC244"/>
            <stop offset="0.87" stop-color="#FEBA46"/>
            <stop offset="0.92" stop-color="#FCAD49"/>
            <stop offset="0.96" stop-color="#F99A4D"/>
            <stop offset="1" stop-color="#F57E53"/>
        </linearGradient>
        <linearGradient id="paint19_linear_4821_37878" x1="27250" y1="14376.2" x2="44793.9" y2="14376.2" gradientUnits="userSpaceOnUse">
            <stop stop-color="#FCB148"/>
            <stop offset="0.05" stop-color="#FDBA46"/>
            <stop offset="0.14" stop-color="#FFC244"/>
            <stop offset="0.32" stop-color="#FFC444"/>
            <stop offset="0.48" stop-color="#FDB946"/>
            <stop offset="0.78" stop-color="#F99C4D"/>
            <stop offset="0.87" stop-color="#F8924F"/>
            <stop offset="1" stop-color="#F8924F"/>
        </linearGradient>
        <linearGradient id="paint20_linear_4821_37878" x1="36102.6" y1="10388.5" x2="36118.4" y2="11407.2" gradientUnits="userSpaceOnUse">
            <stop stop-color="#FFDB44"/>
            <stop offset="1" stop-color="#FEEF06"/>
        </linearGradient>
        <linearGradient id="paint21_linear_4821_37878" x1="36086.8" y1="6047.59" x2="36088.4" y2="6228.96" gradientUnits="userSpaceOnUse">
            <stop stop-color="#FFDB44"/>
            <stop offset="1" stop-color="#FEEF06"/>
        </linearGradient>
        <linearGradient id="paint22_linear_4821_37878" x1="6954.78" y1="1788.58" x2="6955.97" y2="1942.1" gradientUnits="userSpaceOnUse">
            <stop stop-color="#F36F56"/>
            <stop offset="0.31" stop-color="#F99C4C"/>
            <stop offset="0.55" stop-color="#FDB946"/>
            <stop offset="0.68" stop-color="#FFC444"/>
            <stop offset="0.8" stop-color="#FFC244"/>
            <stop offset="0.87" stop-color="#FEBA46"/>
            <stop offset="0.92" stop-color="#FCAD49"/>
            <stop offset="0.96" stop-color="#F99A4D"/>
            <stop offset="1" stop-color="#F57E53"/>
        </linearGradient>
        <linearGradient id="paint23_linear_4821_37878" x1="28361.8" y1="14061" x2="45905.8" y2="14061" gradientUnits="userSpaceOnUse">
            <stop stop-color="#FCB148"/>
            <stop offset="0.05" stop-color="#FDBA46"/>
            <stop offset="0.14" stop-color="#FFC244"/>
            <stop offset="0.32" stop-color="#FFC444"/>
            <stop offset="0.48" stop-color="#FDB946"/>
            <stop offset="0.78" stop-color="#F99C4D"/>
            <stop offset="0.87" stop-color="#F8924F"/>
            <stop offset="1" stop-color="#F8924F"/>
        </linearGradient>
        <linearGradient id="paint24_linear_4821_37878" x1="33401.8" y1="9227.38" x2="33417.6" y2="10245.9" gradientUnits="userSpaceOnUse">
            <stop stop-color="#FFDB44"/>
            <stop offset="1" stop-color="#FEEF06"/>
        </linearGradient>
        <linearGradient id="paint25_linear_4821_37878" x1="37199.8" y1="5910.95" x2="37201.4" y2="6092.31" gradientUnits="userSpaceOnUse">
            <stop stop-color="#FFDB44"/>
            <stop offset="1" stop-color="#FEEF06"/>
        </linearGradient>
        <linearGradient id="paint26_linear_4821_37878" x1="5861.95" y1="1899.04" x2="5863.14" y2="2052.56" gradientUnits="userSpaceOnUse">
            <stop stop-color="#F36F56"/>
            <stop offset="0.31" stop-color="#F99C4C"/>
            <stop offset="0.55" stop-color="#FDB946"/>
            <stop offset="0.68" stop-color="#FFC444"/>
            <stop offset="0.8" stop-color="#FFC244"/>
            <stop offset="0.87" stop-color="#FEBA46"/>
            <stop offset="0.92" stop-color="#FCAD49"/>
            <stop offset="0.96" stop-color="#F99A4D"/>
            <stop offset="1" stop-color="#F57E53"/>
        </linearGradient>
        <linearGradient id="paint27_linear_4821_37878" x1="27540.6" y1="13721" x2="45084.3" y2="13721" gradientUnits="userSpaceOnUse">
            <stop stop-color="#FCB148"/>
            <stop offset="0.05" stop-color="#FDBA46"/>
            <stop offset="0.14" stop-color="#FFC244"/>
            <stop offset="0.32" stop-color="#FFC444"/>
            <stop offset="0.48" stop-color="#FDB946"/>
            <stop offset="0.78" stop-color="#F99C4D"/>
            <stop offset="0.87" stop-color="#F8924F"/>
            <stop offset="1" stop-color="#F8924F"/>
        </linearGradient>
        <linearGradient id="paint28_linear_4821_37878" x1="36393" y1="9901.82" x2="36408.8" y2="10920.4" gradientUnits="userSpaceOnUse">
            <stop stop-color="#FFDB44"/>
            <stop offset="1" stop-color="#FEEF06"/>
        </linearGradient>
        <linearGradient id="paint29_linear_4821_37878" x1="36378.4" y1="5762.35" x2="36380" y2="5943.65" gradientUnits="userSpaceOnUse">
            <stop stop-color="#FFDB44"/>
            <stop offset="1" stop-color="#FEEF06"/>
        </linearGradient>
        <linearGradient id="paint30_linear_4821_37878" x1="6668.8" y1="2018.19" x2="6669.98" y2="2171.71" gradientUnits="userSpaceOnUse">
            <stop stop-color="#F36F56"/>
            <stop offset="0.31" stop-color="#F99C4C"/>
            <stop offset="0.55" stop-color="#FDB946"/>
            <stop offset="0.68" stop-color="#FFC444"/>
            <stop offset="0.8" stop-color="#FFC244"/>
            <stop offset="0.87" stop-color="#FEBA46"/>
            <stop offset="0.92" stop-color="#FCAD49"/>
            <stop offset="0.96" stop-color="#F99A4D"/>
            <stop offset="1" stop-color="#F57E53"/>
        </linearGradient>
        <linearGradient id="paint31_linear_4821_37878" x1="25417.3" y1="13405.8" x2="42961" y2="13405.8" gradientUnits="userSpaceOnUse">
            <stop stop-color="#FCB148"/>
            <stop offset="0.05" stop-color="#FDBA46"/>
            <stop offset="0.14" stop-color="#FFC244"/>
            <stop offset="0.32" stop-color="#FFC444"/>
            <stop offset="0.48" stop-color="#FDB946"/>
            <stop offset="0.78" stop-color="#F99C4D"/>
            <stop offset="0.87" stop-color="#F8924F"/>
            <stop offset="1" stop-color="#F8924F"/>
        </linearGradient>
        <linearGradient id="paint32_linear_4821_37878" x1="30458" y1="8741.96" x2="30473.8" y2="9760.55" gradientUnits="userSpaceOnUse">
            <stop stop-color="#FFDB44"/>
            <stop offset="1" stop-color="#FEEF06"/>
        </linearGradient>
        <linearGradient id="paint33_linear_4821_37878" x1="34253.4" y1="5625.78" x2="34255" y2="5807.08" gradientUnits="userSpaceOnUse">
            <stop stop-color="#FFDB44"/>
            <stop offset="1" stop-color="#FEEF06"/>
        </linearGradient>
        <linearGradient id="paint34_linear_4821_37878" x1="8755.57" y1="2128.68" x2="8756.76" y2="2282.2" gradientUnits="userSpaceOnUse">
            <stop stop-color="#F36F56"/>
            <stop offset="0.31" stop-color="#F99C4C"/>
            <stop offset="0.55" stop-color="#FDB946"/>
            <stop offset="0.68" stop-color="#FFC444"/>
            <stop offset="0.8" stop-color="#FFC244"/>
            <stop offset="0.87" stop-color="#FEBA46"/>
            <stop offset="0.92" stop-color="#FCAD49"/>
            <stop offset="0.96" stop-color="#F99A4D"/>
            <stop offset="1" stop-color="#F57E53"/>
        </linearGradient>
        <linearGradient id="paint35_linear_4821_37878" x1="27250" y1="13094" x2="44793.9" y2="13094" gradientUnits="userSpaceOnUse">
            <stop stop-color="#FCB148"/>
            <stop offset="0.05" stop-color="#FDBA46"/>
            <stop offset="0.14" stop-color="#FFC244"/>
            <stop offset="0.32" stop-color="#FFC444"/>
            <stop offset="0.48" stop-color="#FDB946"/>
            <stop offset="0.78" stop-color="#F99C4D"/>
            <stop offset="0.87" stop-color="#F8924F"/>
            <stop offset="1" stop-color="#F8924F"/>
        </linearGradient>
        <linearGradient id="paint36_linear_4821_37878" x1="32289.9" y1="8509.13" x2="32305.7" y2="9527.72" gradientUnits="userSpaceOnUse">
            <stop stop-color="#FFDB44"/>
            <stop offset="1" stop-color="#FEEF06"/>
        </linearGradient>
        <linearGradient id="paint37_linear_4821_37878" x1="36086.8" y1="5489.6" x2="36088.4" y2="5670.9" gradientUnits="userSpaceOnUse">
            <stop stop-color="#FFDB44"/>
            <stop offset="1" stop-color="#FEEF06"/>
        </linearGradient>
        <linearGradient id="paint38_linear_4821_37878" x1="6954.78" y1="2238.81" x2="6955.97" y2="2392.32" gradientUnits="userSpaceOnUse">
            <stop stop-color="#F36F56"/>
            <stop offset="0.31" stop-color="#F99C4C"/>
            <stop offset="0.55" stop-color="#FDB946"/>
            <stop offset="0.68" stop-color="#FFC444"/>
            <stop offset="0.8" stop-color="#FFC244"/>
            <stop offset="0.87" stop-color="#FEBA46"/>
            <stop offset="0.92" stop-color="#FCAD49"/>
            <stop offset="0.96" stop-color="#F99A4D"/>
            <stop offset="1" stop-color="#F57E53"/>
        </linearGradient>
        <linearGradient id="paint39_linear_4821_37878" x1="26297" y1="12777.5" x2="43841" y2="12777.5" gradientUnits="userSpaceOnUse">
            <stop stop-color="#FCB148"/>
            <stop offset="0.05" stop-color="#FDBA46"/>
            <stop offset="0.14" stop-color="#FFC244"/>
            <stop offset="0.32" stop-color="#FFC444"/>
            <stop offset="0.48" stop-color="#FDB946"/>
            <stop offset="0.78" stop-color="#F99C4D"/>
            <stop offset="0.87" stop-color="#F8924F"/>
            <stop offset="1" stop-color="#F8924F"/>
        </linearGradient>
        <linearGradient id="paint40_linear_4821_37878" x1="31337.3" y1="8275.62" x2="31353" y2="9294.21" gradientUnits="userSpaceOnUse">
            <stop stop-color="#FFDB44"/>
            <stop offset="1" stop-color="#FEEF06"/>
        </linearGradient>
        <linearGradient id="paint41_linear_4821_37878" x1="35133.2" y1="5353.02" x2="35134.8" y2="5534.33" gradientUnits="userSpaceOnUse">
            <stop stop-color="#FFDB44"/>
            <stop offset="1" stop-color="#FEEF06"/>
        </linearGradient>
        <linearGradient id="paint42_linear_4821_37878" x1="7891.42" y1="2349.29" x2="7892.61" y2="2502.8" gradientUnits="userSpaceOnUse">
            <stop stop-color="#F36F56"/>
            <stop offset="0.31" stop-color="#F99C4C"/>
            <stop offset="0.55" stop-color="#FDB946"/>
            <stop offset="0.68" stop-color="#FFC444"/>
            <stop offset="0.8" stop-color="#FFC244"/>
            <stop offset="0.87" stop-color="#FEBA46"/>
            <stop offset="0.92" stop-color="#FCAD49"/>
            <stop offset="0.96" stop-color="#F99A4D"/>
            <stop offset="1" stop-color="#F57E53"/>
        </linearGradient>
        <linearGradient id="paint43_linear_4821_37878" x1="-18839.1" y1="59078.3" x2="-11974.6" y2="68667.4" gradientUnits="userSpaceOnUse">
            <stop stop-color="#FCB148"/>
            <stop offset="0.05" stop-color="#FDBA46"/>
            <stop offset="0.14" stop-color="#FFC244"/>
            <stop offset="0.32" stop-color="#FFC444"/>
            <stop offset="0.48" stop-color="#FDB946"/>
            <stop offset="0.78" stop-color="#F99C4D"/>
            <stop offset="0.87" stop-color="#F8924F"/>
            <stop offset="1" stop-color="#F8924F"/>
        </linearGradient>
        <linearGradient id="paint44_linear_4821_37878" x1="-14364.7" y1="56507.4" x2="-18827.7" y2="60975.4" gradientUnits="userSpaceOnUse">
            <stop stop-color="#FFDB44"/>
            <stop offset="1" stop-color="#FEEF06"/>
        </linearGradient>
        <linearGradient id="paint45_linear_4821_37878" x1="-14179.2" y1="56418.1" x2="-15552" y2="57792.6" gradientUnits="userSpaceOnUse">
            <stop stop-color="#FFDB44"/>
            <stop offset="1" stop-color="#FEEF06"/>
        </linearGradient>
        <linearGradient id="paint46_linear_4821_37878" x1="39908.3" y1="-13958.9" x2="41248.4" y2="-15305.7" gradientUnits="userSpaceOnUse">
            <stop stop-color="#F36F56"/>
            <stop offset="0.31" stop-color="#F99C4C"/>
            <stop offset="0.55" stop-color="#FDB946"/>
            <stop offset="0.68" stop-color="#FFC444"/>
            <stop offset="0.8" stop-color="#FFC244"/>
            <stop offset="0.87" stop-color="#FEBA46"/>
            <stop offset="0.92" stop-color="#FCAD49"/>
            <stop offset="0.96" stop-color="#F99A4D"/>
            <stop offset="1" stop-color="#F57E53"/>
        </linearGradient>
        <linearGradient id="paint47_linear_4821_37878" x1="83.8233" y1="60.8182" x2="149.485" y2="59.2834" gradientUnits="userSpaceOnUse">
            <stop stop-color="#2B3582"/>
            <stop offset="1" stop-color="#150E42"/>
        </linearGradient>
        <linearGradient id="paint48_linear_4821_37878" x1="86.0157" y1="60.7742" x2="149.591" y2="59.3" gradientUnits="userSpaceOnUse">
            <stop stop-color="#2B3582"/>
            <stop offset="1" stop-color="#150E42"/>
        </linearGradient>
        <linearGradient id="paint49_linear_4821_37878" x1="103.047" y1="16.1587" x2="136.026" y2="16.1587" gradientUnits="userSpaceOnUse">
            <stop stop-color="#444B8C"/>
            <stop offset="1" stop-color="#26264F"/>
        </linearGradient>
        <linearGradient id="paint50_linear_4821_37878" x1="11722.8" y1="8194.41" x2="12630.2" y2="12924.4" gradientUnits="userSpaceOnUse">
            <stop stop-color="#FF9085"/>
            <stop offset="1" stop-color="#FB6FBB"/>
        </linearGradient>
        <linearGradient id="paint51_linear_4821_37878" x1="11523.7" y1="8241.18" x2="12431.1" y2="12971.2" gradientUnits="userSpaceOnUse">
            <stop stop-color="#FF9085"/>
            <stop offset="1" stop-color="#FB6FBB"/>
        </linearGradient>
        <linearGradient id="paint52_linear_4821_37878" x1="11523.7" y1="9258.6" x2="12431" y2="13988.5" gradientUnits="userSpaceOnUse">
            <stop stop-color="#FF9085"/>
            <stop offset="1" stop-color="#FB6FBB"/>
        </linearGradient>
        <linearGradient id="paint53_linear_4821_37878" x1="11140.6" y1="8331.19" x2="12048.1" y2="13061.4" gradientUnits="userSpaceOnUse">
            <stop stop-color="#FF9085"/>
            <stop offset="1" stop-color="#FB6FBB"/>
        </linearGradient>
        <linearGradient id="paint54_linear_4821_37878" x1="129.943" y1="67.7032" x2="130.628" y2="71.6988" gradientUnits="userSpaceOnUse">
            <stop stop-color="#FFC444"/>
            <stop offset="1" stop-color="#F36F56"/>
        </linearGradient>
        <linearGradient id="paint55_linear_4821_37878" x1="-12120.1" y1="5883.29" x2="-12063" y2="6080.33" gradientUnits="userSpaceOnUse">
            <stop stop-color="#FFC444"/>
            <stop offset="1" stop-color="#F36F56"/>
        </linearGradient>
        <linearGradient id="paint56_linear_4821_37878" x1="-48930.7" y1="32976.2" x2="-48467.9" y2="47679" gradientUnits="userSpaceOnUse">
            <stop stop-color="#FF9085"/>
            <stop offset="1" stop-color="#FB6FBB"/>
        </linearGradient>
        <linearGradient id="paint57_linear_4821_37878" x1="-3245.4" y1="5185.59" x2="-3266.12" y2="4667.52" gradientUnits="userSpaceOnUse">
            <stop stop-color="#FFC444"/>
            <stop offset="1" stop-color="#F36F56"/>
        </linearGradient>
        <linearGradient id="paint58_linear_4821_37878" x1="140.678" y1="104.537" x2="142.959" y2="131.51" gradientUnits="userSpaceOnUse">
            <stop stop-color="#311944"/>
            <stop offset="1" stop-color="#893976"/>
        </linearGradient>
        <linearGradient id="paint59_linear_4821_37878" x1="21379.6" y1="71197.6" x2="18423.3" y2="87891" gradientUnits="userSpaceOnUse">
            <stop stop-color="#311944"/>
            <stop offset="1" stop-color="#893976"/>
        </linearGradient>
        <linearGradient id="paint60_linear_4821_37878" x1="-7292.64" y1="6969.98" x2="-7211.27" y2="6576.46" gradientUnits="userSpaceOnUse">
            <stop stop-color="#FF9085"/>
            <stop offset="1" stop-color="#FB6FBB"/>
        </linearGradient>
        <linearGradient id="paint61_linear_4821_37878" x1="-5475.77" y1="5283.25" x2="-5767.88" y2="5033.35" gradientUnits="userSpaceOnUse">
            <stop stop-color="#FFC444"/>
            <stop offset="1" stop-color="#F36F56"/>
        </linearGradient>
        <linearGradient id="paint62_linear_4821_37878" x1="-5057.57" y1="2797.89" x2="-5166.66" y2="2334.12" gradientUnits="userSpaceOnUse">
            <stop stop-color="#FF9085"/>
            <stop offset="1" stop-color="#FB6FBB"/>
        </linearGradient>
        <linearGradient id="paint63_linear_4821_37878" x1="-30584.8" y1="55120.8" x2="-36566" y2="54978.6" gradientUnits="userSpaceOnUse">
            <stop stop-color="#311944"/>
            <stop offset="1" stop-color="#893976"/>
        </linearGradient>
        <linearGradient id="paint64_linear_4821_37878" x1="-84904.7" y1="51926.5" x2="-80760.4" y2="75027" gradientUnits="userSpaceOnUse">
            <stop stop-color="#FF9085"/>
            <stop offset="1" stop-color="#FB6FBB"/>
        </linearGradient>
        <linearGradient id="paint65_linear_4821_37878" x1="-7106.46" y1="27115.8" x2="-2757.51" y2="35751.8" gradientUnits="userSpaceOnUse">
            <stop stop-color="#FF9085"/>
            <stop offset="1" stop-color="#FB6FBB"/>
        </linearGradient>
        <linearGradient id="paint66_linear_4821_37878" x1="-12781.4" y1="10929.5" x2="-12397.7" y2="11395.8" gradientUnits="userSpaceOnUse">
            <stop stop-color="#FFC444"/>
            <stop offset="1" stop-color="#F36F56"/>
        </linearGradient>
        <linearGradient id="paint67_linear_4821_37878" x1="-52731.2" y1="39110.3" x2="-49634.1" y2="53087.5" gradientUnits="userSpaceOnUse">
            <stop stop-color="#FF9085"/>
            <stop offset="1" stop-color="#FB6FBB"/>
        </linearGradient>
        <linearGradient id="paint68_linear_4821_37878" x1="-55983.6" y1="55894.5" x2="-62469.2" y2="43966.6" gradientUnits="userSpaceOnUse">
            <stop stop-color="#444B8C"/>
            <stop offset="1" stop-color="#26264F"/>
        </linearGradient>
    </defs>
</svg>
