<svg width="193" height="188" viewBox="0 0 193 188" fill="none" xmlns="http://www.w3.org/2000/svg">
    <path opacity="0.3" d="M170.209 161.956C166.347 165.94 162.692 168.509 159.804 170.539C125.859 194.401 85.6947 187.445 77.1582 185.746C64.5528 183.238 40.1872 178.39 22.5714 158.094C-4.07983 127.388 0.0698594 79.0121 20.7429 47.0783C24.5246 41.2369 44.4986 8.81692 85.0964 3.61805C109.666 0.471736 138.306 6.81741 159.046 23.8415C202.581 59.5749 199.482 131.764 170.209 161.956Z" fill="url(#paint0_linear_803_3755)"/>
    <path d="M12.1905 1.32802C11.8793 0.388024 12.9985 -0.384119 13.8065 0.206738C22.0154 6.20461 42.2087 24.6555 41.9106 60.8629C41.5371 106.29 52.9609 121.579 65.9767 130.232C65.9767 130.232 49.1463 127.355 36.9755 111.906C7.09228 73.9746 17.717 18.0399 12.1905 1.32802Z" fill="url(#paint1_linear_803_3755)"/>
    <path d="M19.4591 14.6941C20.9655 19.5788 22.3732 24.4903 23.5958 29.4448C24.8445 34.3925 25.9397 39.3745 26.8744 44.3834C27.7894 49.3949 28.6083 54.4226 29.2087 59.4771C29.8317 64.5289 30.2326 69.6009 30.617 74.6943C31.0303 79.7831 31.4168 84.9121 32.3407 90.0177C33.2576 95.1131 34.8106 100.184 37.2627 104.826C37.8754 105.983 38.5121 107.133 39.2111 108.236C39.8896 109.351 40.6195 110.437 41.3679 111.51C42.877 113.649 44.5334 115.694 46.3372 117.609C49.9551 121.43 54.1644 124.708 58.6924 127.375C59.1687 127.656 59.7876 127.505 60.074 127.038C60.3557 126.58 60.2118 125.987 59.7554 125.7L59.7519 125.698C58.6698 125.019 57.5966 124.328 56.5583 123.593C56.0333 123.234 55.5255 122.852 55.0108 122.48C54.5112 122.089 53.9951 121.718 53.5086 121.312C51.5334 119.724 49.6741 118.001 47.9539 116.152C44.4992 112.474 41.5879 108.272 39.2372 103.842C38.0872 101.613 37.1065 99.3049 36.3108 96.9307C35.5165 94.5559 34.9079 92.1172 34.4405 89.643C33.505 84.6919 33.0794 79.6186 32.6292 74.5332C32.1721 69.4471 31.6766 64.3389 30.9679 59.2589C30.6205 56.7182 30.2264 54.1842 29.7864 51.6583C29.574 50.394 29.3362 49.1344 29.1011 47.8741C28.8537 46.6159 28.5987 45.3596 28.3342 44.1054C27.2644 39.0905 26.039 34.1098 24.6553 29.1742C23.247 24.2452 21.7057 19.3545 19.9745 14.5296C19.9252 14.392 19.771 14.3195 19.6298 14.3678C19.4913 14.4148 19.418 14.5599 19.4591 14.6941Z" fill="white"/>
    <path d="M50.9468 160.552C50.6247 162.345 48.5379 163.233 46.9678 162.26C38.3025 156.89 15.2047 139.537 11.0235 105.103C7.49197 76.025 2.75701 60.5862 0.111624 53.7235C-0.447608 52.2725 1.20884 50.9653 2.53839 51.8072C17.2093 61.0971 62.6263 95.585 50.9468 160.552Z" fill="url(#paint2_linear_803_3755)"/>
    <path d="M48.4716 160.991C48.438 161.022 48.401 161.05 48.3612 161.076C48.0234 161.287 47.5745 161.189 47.36 160.857C47.1167 160.482 22.9203 122.84 16.1465 82.6256C16.0814 82.2389 16.3487 81.873 16.7441 81.8085C17.1395 81.7447 17.513 82.0066 17.5781 82.394C24.3026 122.315 48.3427 159.721 48.5846 160.094C48.7731 160.386 48.7183 160.762 48.4716 160.991Z" fill="white"/>
    <path d="M46.6123 3.7576C41.9273 4.15643 38.3355 8.00103 38.3218 12.6077C38.2403 40.7829 38.1059 137.966 39.9803 172.363C40.1791 176.007 43.2281 178.87 46.9529 178.91C65.3753 179.104 118.366 179.461 148.449 177.576C154.715 177.183 159.591 172.099 159.583 165.947C159.547 136.376 159.064 53.2137 154.93 15.2008C154.434 10.6465 150.697 7.09124 146.036 6.73538C125.944 5.20251 72.5891 1.54457 46.6123 3.7576Z" fill="url(#paint3_linear_803_3755)"/>
    <path d="M45.7164 19.9919C45.3545 44.0929 44.3245 124.268 46.1228 153.859C46.3852 158.185 49.8147 161.599 54.0493 161.744C71.4835 162.339 116.19 163.491 141.665 160.745C146.252 160.251 149.758 156.355 149.88 151.638C150.517 127.043 152.238 52.3696 150.491 23.1087C150.212 18.4409 146.572 14.7165 142.009 14.415C123.132 13.1689 74.6587 10.2952 52.996 12.0624C48.9292 12.394 45.7794 15.819 45.7164 19.9919Z" fill="url(#paint4_linear_803_3755)"/>
    <path d="M87.8395 7.94821C87.8546 8.61426 88.3967 9.15208 89.0758 9.17222C92.4305 9.27227 101.881 9.55561 106.104 9.70467C106.937 9.73421 107.574 8.98758 107.398 8.18925C107.383 8.16441 107.275 7.14115 106.208 7.06796C103.351 6.87325 94.7312 6.34886 89.0347 6.67048C87.8655 6.73695 87.8018 8.04019 87.8395 7.94821Z" fill="#1F5AA9"/>
    <path d="M74.1652 73.9438C86.7935 73.9438 97.0307 63.9143 97.0307 51.5422C97.0307 39.1702 86.7935 29.1407 74.1652 29.1407C61.537 29.1407 51.2998 39.1702 51.2998 51.5422C51.2998 63.9143 61.537 73.9438 74.1652 73.9438Z" fill="white"/>
    <path d="M74.2533 55.189C79.1818 55.189 83.177 51.2748 83.177 46.4463C83.177 41.6179 79.1818 37.7036 74.2533 37.7036C69.3249 37.7036 65.3296 41.6179 65.3296 46.4463C65.3296 51.2748 69.3249 55.189 74.2533 55.189Z" fill="url(#paint5_linear_803_3755)"/>
    <path d="M60.6985 72.7002H89.1295C90.8723 72.7002 91.9168 70.4932 90.9785 68.8092C88.5634 64.4765 83.5112 58.112 74.7608 58.3994C66.3271 58.676 61.3283 64.4254 58.8152 68.5487C57.7481 70.2991 58.8364 72.7002 60.6985 72.7002Z" fill="url(#paint6_linear_803_3755)"/>
    <path d="M108.75 150.72H80.3082C79.3789 150.72 78.6182 149.975 78.6182 149.064V141.139C78.6182 140.228 79.3789 139.483 80.3082 139.483H108.75C109.679 139.483 110.44 140.228 110.44 141.139V149.064C110.44 149.975 109.679 150.72 108.75 150.72Z" fill="url(#paint7_linear_803_3755)"/>
    <g opacity="0.8">
        <g opacity="0.8">
            <path opacity="0.8" d="M130.039 98.7952H65.8763C65.3664 98.7952 64.9497 98.3863 64.9497 97.8875V93.5165C64.9497 93.0169 65.3671 92.6087 65.8763 92.6087H130.039C130.548 92.6087 130.965 93.0176 130.965 93.5165V97.8875C130.965 98.3863 130.548 98.7952 130.039 98.7952Z" fill="white"/>
            <path opacity="0.8" d="M56.4811 99.433C58.5954 99.433 60.3093 97.7538 60.3093 95.6824C60.3093 93.611 58.5954 91.9318 56.4811 91.9318C54.3668 91.9318 52.6528 93.611 52.6528 95.6824C52.6528 97.7538 54.3668 99.433 56.4811 99.433Z" fill="white"/>
        </g>
        <g opacity="0.8">
            <path opacity="0.8" d="M130.039 110.403H65.8763C65.3664 110.403 64.9497 109.994 64.9497 109.495V105.124C64.9497 104.625 65.3671 104.217 65.8763 104.217H130.039C130.548 104.217 130.965 104.626 130.965 105.124V109.495C130.965 109.995 130.548 110.403 130.039 110.403Z" fill="white"/>
            <path opacity="0.8" d="M60.2623 107.893C60.6011 105.849 59.1838 103.922 57.0968 103.59C55.0097 103.258 53.0433 104.647 52.7046 106.691C52.3659 108.736 53.7832 110.663 55.8702 110.995C57.9572 111.326 59.9236 109.938 60.2623 107.893Z" fill="white"/>
        </g>
        <g opacity="0.8">
            <path opacity="0.8" d="M130.039 122.014H65.8763C65.3664 122.014 64.9497 121.605 64.9497 121.106V116.735C64.9497 116.236 65.3671 115.828 65.8763 115.828H130.039C130.548 115.828 130.965 116.237 130.965 116.735V121.106C130.965 121.606 130.548 122.014 130.039 122.014Z" fill="white"/>
            <path opacity="0.8" d="M56.4811 122.652C58.5954 122.652 60.3093 120.973 60.3093 118.902C60.3093 116.83 58.5954 115.151 56.4811 115.151C54.3668 115.151 52.6528 116.83 52.6528 118.902C52.6528 120.973 54.3668 122.652 56.4811 122.652Z" fill="white"/>
        </g>
        <g opacity="0.8">
            <path opacity="0.8" d="M130.039 133.624H65.8763C65.3664 133.624 64.9497 133.215 64.9497 132.716V128.345C64.9497 127.845 65.3671 127.437 65.8763 127.437H130.039C130.548 127.437 130.965 127.846 130.965 128.345V132.716C130.965 133.215 130.548 133.624 130.039 133.624Z" fill="white"/>
            <path opacity="0.8" d="M56.4811 134.262C58.5954 134.262 60.3093 132.583 60.3093 130.512C60.3093 128.44 58.5954 126.761 56.4811 126.761C54.3668 126.761 52.6528 128.44 52.6528 130.512C52.6528 132.583 54.3668 134.262 56.4811 134.262Z" fill="white"/>
        </g>
    </g>
    <path d="M103.953 86.7041H53.6251C53.1728 86.7041 52.8027 86.3415 52.8027 85.8983V81.3232C52.8027 80.8801 53.1728 80.5175 53.6251 80.5175H103.953C104.405 80.5175 104.775 80.8801 104.775 81.3232V85.8983C104.775 86.3415 104.405 86.7041 103.953 86.7041Z" fill="white"/>
    <path d="M162.059 24.3252C161.924 22.2787 160.662 20.4651 158.771 19.5856L134.27 8.18471C132.701 7.45487 130.88 7.45487 129.311 8.18471L104.81 19.5856C102.919 20.4658 101.657 22.2787 101.521 24.3252C99.2235 59.1294 122.001 71.81 129.468 75.0133C130.949 75.6485 132.631 75.6485 134.112 75.0133C141.579 71.81 164.357 59.1294 162.059 24.3252Z" fill="url(#paint8_linear_803_3755)"/>
    <path d="M124.379 13.2176C124.162 13.2176 123.953 13.0974 123.854 12.892C123.716 12.608 123.839 12.2682 124.129 12.1333L129.918 9.4395C130.209 9.30387 130.556 9.4254 130.693 9.70941C130.83 9.99343 130.707 10.3332 130.417 10.4681L124.628 13.1619C124.547 13.2002 124.463 13.2176 124.379 13.2176Z" fill="white"/>
    <path d="M103.395 32.0024C103.083 32.0024 102.825 31.76 102.814 31.4518C102.736 29.1804 102.777 26.8129 102.936 24.4146C103.037 22.8736 103.988 21.5039 105.417 20.8392L121.899 13.1701C122.189 13.0345 122.536 13.1561 122.674 13.4401C122.812 13.7241 122.688 14.0638 122.398 14.1988L105.916 21.8678C104.868 22.3553 104.171 23.3598 104.096 24.4878C103.94 26.8485 103.9 29.1784 103.977 31.4129C103.988 31.7271 103.736 31.991 103.415 32.0017C103.408 32.0024 103.401 32.0024 103.395 32.0024Z" fill="white"/>
    <path d="M156.134 25.6835C156.108 25.1645 155.792 24.7012 155.313 24.4783L132.408 13.8207C132.017 13.6388 131.563 13.6388 131.172 13.8207L108.267 24.4783C107.788 24.7012 107.473 25.1645 107.446 25.6835C106.768 38.6663 109.829 49.4991 116.55 57.8946C121.673 64.296 127.667 67.7264 131.179 69.3264C131.567 69.503 132.011 69.503 132.399 69.3264C135.911 67.7257 141.905 64.2954 147.028 57.8946C153.751 49.4991 156.811 38.6663 156.134 25.6835Z" fill="url(#paint9_linear_803_3755)"/>
    <path d="M117.245 39.9142C119.138 38.7647 121.627 39.3649 122.759 41.2449L128.083 50.087C128.617 50.9719 129.952 50.884 130.358 49.9366L142.336 22.0286C142.934 20.6361 145.039 21.0524 145.053 22.5624C145.132 31.011 143.24 47.1173 129.797 60.8795C129.797 60.8795 122.136 58.1683 115.7 45.1634C114.77 43.2847 115.434 41.014 117.245 39.9142Z" fill="url(#paint10_linear_803_3755)"/>
    <path d="M166.065 179.488C166.065 179.488 166.504 181.92 166.719 184.329C166.803 185.27 166.062 186.087 165.099 186.126C161.826 186.26 154.824 186.519 152.311 186.409C151.934 186.393 151.687 186.014 151.827 185.67C151.944 185.382 152.17 185.148 152.458 185.019L164.024 179.811L166.065 179.488Z" fill="url(#paint11_linear_803_3755)"/>
    <path d="M166.424 178.058L166.072 180.968C166.072 180.968 164.046 181.892 162.663 180.852L163.501 177.609L166.424 178.058Z" fill="url(#paint12_linear_803_3755)"/>
    <path d="M166.16 123.351C166.312 124.111 166.977 161.272 162.922 177.924C162.856 178.196 162.997 178.476 163.261 178.582C163.882 178.831 165.101 179.191 166.563 179.239C167.015 179.254 167.421 178.966 167.548 178.54C168.707 174.677 174.261 155.318 174.985 136.825C175.795 116.161 174.985 136.121 174.985 136.121L174.51 123.348L166.16 123.351Z" fill="url(#paint13_linear_803_3755)"/>
    <path d="M179.369 180.756C179.369 180.756 180.068 181.984 180.744 185.248C180.866 185.838 180.445 186.402 179.834 186.461C178.753 186.565 177.089 186.698 175.756 186.69C175.142 186.686 174.663 186.161 174.737 185.564C174.884 184.372 175.344 182.418 176.765 180.894L179.369 180.756Z" fill="url(#paint14_linear_803_3755)"/>
    <path d="M179.983 177.014L179.159 181.414C179.159 181.414 178.345 182.008 176.734 181.578L177.128 176.843L179.983 177.014Z" fill="url(#paint15_linear_803_3755)"/>
    <path d="M182.207 124.491C185.524 144.098 181.488 172.95 180.127 178.597C180.044 178.943 179.759 179.207 179.402 179.266C178.794 179.364 177.794 179.445 176.808 179.164C176.468 179.068 176.23 178.767 176.216 178.421C176.034 173.855 176.362 145.828 173.273 134.751C173.116 134.189 172.766 133.7 172.282 133.363L166.285 129.186L165.825 122.434L182.207 124.491Z" fill="url(#paint16_linear_803_3755)"/>
    <path d="M161.078 87.341C171.015 87.1799 181.98 89.8972 181.98 89.8972C184.942 106.831 182.498 126.363 182.498 126.363C174.805 128.339 166.126 125.154 166.126 125.154C164.848 118.076 158.882 98.1571 158.882 98.1571C154.026 97.5669 150.027 96.1945 146.733 94.3796C149.245 91.5261 150.43 87.8956 150.944 85.7498C154.457 86.8193 158.013 87.3907 161.078 87.341Z" fill="url(#paint17_linear_803_3755)"/>
    <path d="M131.724 73.001C132.7 71.8461 133.936 72.392 133.936 72.392C135.398 78.4442 143.066 83.351 150.944 85.7494C150.429 87.8952 149.245 91.5263 146.732 94.3792C133.659 87.1782 131.724 73.001 131.724 73.001Z" fill="url(#paint18_linear_803_3755)"/>
    <path d="M131.961 73.2943C131.859 73.6125 133.042 74.0966 133.738 72.7954C133.763 72.1717 134.149 69.5 133.769 68.9924C131.743 66.2866 127.816 62.8952 127.816 62.8952C127.152 63.5371 127.699 64.1669 127.699 64.1669L129.604 66.1113C129.206 66.817 128.719 67.4126 128.492 68.266C128.319 68.9125 128.425 69.6028 128.758 70.1909C129.092 70.7811 129.549 71.5486 129.98 72.1488C130.797 73.2856 131.961 73.2943 131.961 73.2943Z" fill="url(#paint19_linear_803_3755)"/>
    <path d="M130.438 67.3736L132.174 68.8158L132.718 70.2513L131.17 71.9339C131.17 71.9339 130.65 69.0851 130.263 68.4687C129.877 67.8517 130.078 67.5535 130.438 67.3736Z" fill="url(#paint20_linear_803_3755)"/>
    <path d="M178.168 99.3248L181.98 89.898C181.98 89.898 191.262 96.0771 192.788 103.911C191.034 104.037 187.843 104.484 184.719 106.03C184.033 102.33 178.168 99.3248 178.168 99.3248Z" fill="url(#paint21_linear_803_3755)"/>
    <path d="M170.057 108.196C170.057 108.196 180.478 113.966 183.994 109.039C184.724 108.016 184.899 106.999 184.719 106.03C187.843 104.484 191.035 104.038 192.788 103.911C193.249 106.272 193.006 108.785 191.589 111.323C185.429 122.362 168.678 110.713 168.678 110.713L170.057 108.196Z" fill="url(#paint22_linear_803_3755)"/>
    <path d="M171.309 115.495L165.621 96.0353C165.557 95.8144 165.364 95.6532 165.131 95.6264C164.101 95.5089 161.115 95.1778 157.667 94.8925C153.514 94.548 148.692 94.2694 145.81 94.5064C145.4 94.54 145.152 94.965 145.335 95.3256C146.973 98.5739 153.714 111.787 157.09 116.115C157.202 116.259 157.375 116.342 157.559 116.341L170.755 116.22C171.14 116.218 171.414 115.856 171.309 115.495Z" fill="url(#paint23_linear_803_3755)"/>
    <path d="M157.077 93.2052L152.954 92.5318C152.735 92.4962 152.554 92.7016 152.624 92.9084L153.033 94.1203C153.068 94.2258 153.162 94.3023 153.275 94.3171L157.243 94.8361C157.448 94.8629 157.618 94.6803 157.57 94.4829L157.317 93.4248C157.29 93.3113 157.195 93.2247 157.077 93.2052Z" fill="url(#paint24_linear_803_3755)"/>
    <path d="M160.165 96.6253L159.825 94.8917C159.79 94.7178 159.644 94.5862 159.464 94.5687L151.135 93.7408C150.855 93.7126 150.63 93.9644 150.696 94.233L151.226 96.393C151.268 96.5656 151.422 96.6904 151.603 96.6998L159.742 97.1014C160.008 97.1141 160.215 96.8805 160.165 96.6253Z" fill="url(#paint25_linear_803_3755)"/>
    <path d="M169.935 110.794C169.935 110.794 170.727 107.602 170.408 106.47C170.089 105.338 169.469 103.881 167.405 104.205C165.341 104.528 162.906 105.381 162.906 105.381C162.906 105.381 163.029 106.856 164.598 106.38L163.625 107.117C163.625 107.117 163.764 108.298 165.089 107.667L164.184 108.645C164.184 108.645 164.753 109.615 165.728 108.993C166.703 108.37 167.17 111.178 169.935 110.794Z" fill="url(#paint26_linear_803_3755)"/>
    <path d="M171.144 79.4371L174.306 88.396C174.358 88.5444 174.296 88.7089 174.156 88.7847C173.294 89.2514 170.188 90.601 166.446 88.2765C166.057 88.0341 165.791 87.6393 165.732 87.1908L164.708 79.4371H171.144Z" fill="url(#paint27_linear_803_3755)"/>
    <path d="M164.263 71.1406C164.263 71.1406 160.791 77.544 161.236 80.1303C161.681 82.7167 165.984 82.5313 169.742 80.4304L172.367 73.5161L164.263 71.1406Z" fill="url(#paint28_linear_803_3755)"/>
    <path d="M169.576 77.0353C169.423 76.9688 169.367 76.7862 169.458 76.6492C169.736 76.2329 170.258 75.3835 170.425 74.6396C170.425 74.6396 171.049 74.2482 168.836 73.7291C166.623 73.2101 163.323 72.4051 162.63 70.5593C161.953 68.7599 163.73 64.2358 166.565 67.8407C166.672 67.9777 166.884 67.981 166.992 67.8434C167.456 67.2505 168.678 66.0212 170.375 66.7664C171.962 67.4641 172.141 68.6035 172.119 69.1782C172.113 69.3474 172.267 69.4783 172.436 69.4468C173.239 69.2971 175.164 69.1681 176.064 71.1039C176.804 72.6985 176.323 73.6009 175.885 74.042C175.743 74.185 175.805 74.4207 176 74.4791C176.527 74.6376 177.208 75.0754 177.14 76.2859C177.046 77.9598 175.136 77.8121 174.592 77.7362C174.503 77.7235 174.413 77.7537 174.353 77.8188C173.887 78.3244 171.786 80.471 169.512 80.7295C169.315 80.7516 169.162 80.5616 169.227 80.3776L170.211 77.5751C170.257 77.4448 170.193 77.3025 170.065 77.2468L169.576 77.0353Z" fill="url(#paint29_linear_803_3755)"/>
    <path d="M169.181 77.4337C169.181 77.4337 171.653 75.7719 171.833 77.1712C172.014 78.5704 169.608 79.1982 168.415 78.6765L169.181 77.4337Z" fill="url(#paint30_linear_803_3755)"/>
    <defs>
        <linearGradient id="paint0_linear_803_3755" x1="216.474" y1="242.65" x2="52.468" y2="34.7469" gradientUnits="userSpaceOnUse">
            <stop stop-color="#B37CFF"/>
            <stop offset="1" stop-color="#F895E7"/>
        </linearGradient>
        <linearGradient id="paint1_linear_803_3755" x1="-3.15482" y1="53.1471" x2="81.2992" y2="77.8521" gradientUnits="userSpaceOnUse">
            <stop stop-color="#A737D5"/>
            <stop offset="1" stop-color="#EF497A"/>
        </linearGradient>
        <linearGradient id="paint2_linear_803_3755" x1="20.134" y1="159.858" x2="30.65" y2="54.4268" gradientUnits="userSpaceOnUse">
            <stop stop-color="#CE1567"/>
            <stop offset="1" stop-color="#7A1DBC"/>
        </linearGradient>
        <linearGradient id="paint3_linear_803_3755" x1="37.8889" y1="92.0154" x2="158.695" y2="89.3144" gradientUnits="userSpaceOnUse">
            <stop stop-color="#2B3582"/>
            <stop offset="1" stop-color="#150E42"/>
        </linearGradient>
        <linearGradient id="paint4_linear_803_3755" x1="51.6655" y1="24.8286" x2="300.531" y2="378.021" gradientUnits="userSpaceOnUse">
            <stop stop-color="#FDF53F"/>
            <stop offset="1" stop-color="#D93C65"/>
        </linearGradient>
        <linearGradient id="paint5_linear_803_3755" x1="54.3847" y1="113.708" x2="99.6175" y2="-45.8278" gradientUnits="userSpaceOnUse">
            <stop stop-color="#FDF53F"/>
            <stop offset="1" stop-color="#D93C65"/>
        </linearGradient>
        <linearGradient id="paint6_linear_803_3755" x1="61.3967" y1="115.696" x2="106.63" y2="-43.8405" gradientUnits="userSpaceOnUse">
            <stop stop-color="#FDF53F"/>
            <stop offset="1" stop-color="#D93C65"/>
        </linearGradient>
        <linearGradient id="paint7_linear_803_3755" x1="112.28" y1="73.1952" x2="86.614" y2="181.513" gradientUnits="userSpaceOnUse">
            <stop stop-color="#FDF53F"/>
            <stop offset="1" stop-color="#D93C65"/>
        </linearGradient>
        <linearGradient id="paint8_linear_803_3755" x1="218.243" y1="-56.9515" x2="106.37" y2="69.0671" gradientUnits="userSpaceOnUse">
            <stop stop-color="#53D8FF"/>
            <stop offset="1" stop-color="#3840F7"/>
        </linearGradient>
        <linearGradient id="paint9_linear_803_3755" x1="157.921" y1="3.25594" x2="46.3667" y2="148.422" gradientUnits="userSpaceOnUse">
            <stop stop-color="#53D8FF"/>
            <stop offset="1" stop-color="#3840F7"/>
        </linearGradient>
        <linearGradient id="paint10_linear_803_3755" x1="88.0875" y1="80.3258" x2="163.343" y2="14.028" gradientUnits="userSpaceOnUse">
            <stop stop-color="#A737D5"/>
            <stop offset="1" stop-color="#EF497A"/>
        </linearGradient>
        <linearGradient id="paint11_linear_803_3755" x1="152.677" y1="176.125" x2="194.092" y2="222.105" gradientUnits="userSpaceOnUse">
            <stop stop-color="#CB236D"/>
            <stop offset="1" stop-color="#4C246D"/>
        </linearGradient>
        <linearGradient id="paint12_linear_803_3755" x1="166.424" y1="179.477" x2="162.662" y2="179.477" gradientUnits="userSpaceOnUse">
            <stop stop-color="#F9B776"/>
            <stop offset="1" stop-color="#F47960"/>
        </linearGradient>
        <linearGradient id="paint13_linear_803_3755" x1="175.345" y1="151.294" x2="162.906" y2="151.294" gradientUnits="userSpaceOnUse">
            <stop stop-color="#2B3582"/>
            <stop offset="1" stop-color="#150E42"/>
        </linearGradient>
        <linearGradient id="paint14_linear_803_3755" x1="162.178" y1="167.567" x2="203.593" y2="213.547" gradientUnits="userSpaceOnUse">
            <stop stop-color="#CB236D"/>
            <stop offset="1" stop-color="#4C246D"/>
        </linearGradient>
        <linearGradient id="paint15_linear_803_3755" x1="179.983" y1="179.288" x2="176.734" y2="179.288" gradientUnits="userSpaceOnUse">
            <stop stop-color="#F9B776"/>
            <stop offset="1" stop-color="#F47960"/>
        </linearGradient>
        <linearGradient id="paint16_linear_803_3755" x1="183.484" y1="150.896" x2="165.824" y2="150.896" gradientUnits="userSpaceOnUse">
            <stop stop-color="#2B3582"/>
            <stop offset="1" stop-color="#150E42"/>
        </linearGradient>
        <linearGradient id="paint17_linear_803_3755" x1="171.463" y1="92.3256" x2="151.945" y2="145.91" gradientUnits="userSpaceOnUse">
            <stop stop-color="#CE1567"/>
            <stop offset="1" stop-color="#7A1DBC"/>
        </linearGradient>
        <linearGradient id="paint18_linear_803_3755" x1="150.944" y1="83.3213" x2="131.724" y2="83.3213" gradientUnits="userSpaceOnUse">
            <stop stop-color="#F9B776"/>
            <stop offset="1" stop-color="#F47960"/>
        </linearGradient>
        <linearGradient id="paint19_linear_803_3755" x1="136.006" y1="80.1649" x2="148.465" y2="109.101" gradientUnits="userSpaceOnUse">
            <stop stop-color="#F9B776"/>
            <stop offset="1" stop-color="#F47960"/>
        </linearGradient>
        <linearGradient id="paint20_linear_803_3755" x1="131.816" y1="70.5908" x2="126.589" y2="62.3869" gradientUnits="userSpaceOnUse">
            <stop stop-color="#F9B776"/>
            <stop offset="1" stop-color="#F47960"/>
        </linearGradient>
        <linearGradient id="paint21_linear_803_3755" x1="186.874" y1="97.9393" x2="167.356" y2="151.523" gradientUnits="userSpaceOnUse">
            <stop stop-color="#CE1567"/>
            <stop offset="1" stop-color="#7A1DBC"/>
        </linearGradient>
        <linearGradient id="paint22_linear_803_3755" x1="193" y1="109.994" x2="168.678" y2="109.994" gradientUnits="userSpaceOnUse">
            <stop stop-color="#F9B776"/>
            <stop offset="1" stop-color="#F47960"/>
        </linearGradient>
        <linearGradient id="paint23_linear_803_3755" x1="161.319" y1="93.0509" x2="148.454" y2="147.766" gradientUnits="userSpaceOnUse">
            <stop stop-color="#9CFFFB"/>
            <stop offset="1" stop-color="#9BFFFA"/>
        </linearGradient>
        <linearGradient id="paint24_linear_803_3755" x1="152.946" y1="84.4452" x2="155.685" y2="96.7237" gradientUnits="userSpaceOnUse">
            <stop stop-color="#53D8FF"/>
            <stop offset="1" stop-color="#3840F7"/>
        </linearGradient>
        <linearGradient id="paint25_linear_803_3755" x1="154.436" y1="89.5852" x2="155.745" y2="97.6017" gradientUnits="userSpaceOnUse">
            <stop stop-color="#53D8FF"/>
            <stop offset="1" stop-color="#3840F7"/>
        </linearGradient>
        <linearGradient id="paint26_linear_803_3755" x1="170.484" y1="107.495" x2="162.906" y2="107.495" gradientUnits="userSpaceOnUse">
            <stop stop-color="#F9B776"/>
            <stop offset="1" stop-color="#F47960"/>
        </linearGradient>
        <linearGradient id="paint27_linear_803_3755" x1="174.324" y1="84.5181" x2="164.708" y2="84.5181" gradientUnits="userSpaceOnUse">
            <stop stop-color="#F9B776"/>
            <stop offset="1" stop-color="#F47960"/>
        </linearGradient>
        <linearGradient id="paint28_linear_803_3755" x1="162.42" y1="78.524" x2="172.875" y2="72.0154" gradientUnits="userSpaceOnUse">
            <stop stop-color="#F9B776"/>
            <stop offset="1" stop-color="#F47960"/>
        </linearGradient>
        <linearGradient id="paint29_linear_803_3755" x1="178.59" y1="65.5464" x2="165.147" y2="76.3842" gradientUnits="userSpaceOnUse">
            <stop stop-color="#2B3582"/>
            <stop offset="1" stop-color="#150E42"/>
        </linearGradient>
        <linearGradient id="paint30_linear_803_3755" x1="165.197" y1="80.8807" x2="174.603" y2="75.0248" gradientUnits="userSpaceOnUse">
            <stop stop-color="#F9B776"/>
            <stop offset="1" stop-color="#F47960"/>
        </linearGradient>
    </defs>
</svg>
