<svg width="364" height="231" viewBox="0 0 364 231" fill="none" xmlns="http://www.w3.org/2000/svg">
    <path d="M61.2432 67.614C61.2432 67.614 67.4252 54.9583 82.2084 56.3646C82.2084 56.3646 103.672 35.2708 126.559 53.5519C126.559 53.5519 150.888 49.0225 168.906 57.4737C180.92 63.1093 184.888 69.0203 184.888 69.0203L61.2432 67.614Z" fill="#F8FCFF"/>
    <path d="M234.557 46.1164C211.296 13.6101 178.287 51.6311 178.287 51.6311C178.287 51.6311 147.51 11.7184 122.428 42.7893C97.3464 73.8602 175.831 137.426 175.831 137.426C175.831 137.426 257.82 78.6214 234.557 46.1164Z" fill="#F78248"/>
    <path d="M225.47 57.9355C223.011 58.74 220.324 57.7607 218.94 55.5411C217.457 53.1627 215.056 50.4331 211.565 49.6257C209.218 49.0821 207.746 46.7037 208.28 44.3136C208.814 41.9235 211.149 40.4254 213.498 40.969C221.062 42.7193 225.391 48.8241 227.504 52.912C228.511 54.8649 227.535 57.2695 225.47 57.9355Z" fill="#FFB699"/>
    <path d="M169.768 124.942C165.419 120.671 153.643 107.379 153.643 107.379C151.741 105.504 148.984 101.024 150.826 99.0857C152.669 97.1474 158.003 102.073 159.906 103.949C159.906 103.949 168.439 114.548 173.226 118.075C178.485 121.95 180.623 124.97 178.781 126.907C177.841 127.896 173.589 128.696 169.768 124.942Z" fill="#FFB699"/>
    <g opacity="0.5">
        <path opacity="0.5" d="M136.909 168.696C136.909 168.696 122.159 154.449 106.506 151.74C104.426 151.38 103.052 153.89 104.433 155.513C104.456 155.541 104.48 155.567 104.503 155.595C106.908 158.329 125.522 162.695 136.909 168.696Z" fill="#AEC3FF"/>
        <path opacity="0.5" d="M141.569 172.405C141.569 172.405 117.52 159.343 96.8443 162.052C95.5832 162.217 94.6228 163.357 94.7373 164.645C94.8132 165.484 95.3313 166.457 96.7985 167.418C100.715 169.983 125.366 168.915 141.569 172.405Z" fill="#AEC3FF"/>
    </g>
    <g opacity="0.5">
        <path opacity="0.5" d="M229.635 147.9C229.635 147.9 241.382 136.553 253.849 134.395C255.507 134.107 256.6 136.107 255.5 137.4C255.481 137.421 255.462 137.443 255.444 137.465C253.529 139.644 238.704 143.121 229.635 147.9Z" fill="#AEC3FF"/>
        <path opacity="0.5" d="M225.923 150.855C225.923 150.855 245.076 140.453 261.543 142.61C262.546 142.741 263.312 143.649 263.22 144.675C263.16 145.344 262.748 146.118 261.579 146.883C258.461 148.926 238.829 148.075 225.923 150.855Z" fill="#AEC3FF"/>
    </g>
    <path opacity="0.3" d="M131.085 182.774C131.085 182.774 134.027 195.525 131.662 195.936C129.298 196.347 129.391 181.486 129.391 181.486C129.391 181.486 117.4 176.272 112.814 176.935C112.814 176.935 120.646 189.161 118.255 188.965C115.864 188.772 107.134 176.435 107.134 176.435C107.134 176.435 94.9992 174.712 93.386 182.063C91.7729 189.413 95.0521 192.902 96.8557 193.275C98.6592 193.648 110.093 192.976 109.863 194.502C109.632 196.028 102.011 198.801 97.6429 197.635C97.6429 197.635 102.922 209.37 109.137 208.481C115.35 207.592 117.11 203.571 120.96 203.093C124.81 202.615 127.68 203.545 125.794 204.692C123.909 205.839 117.34 205.425 114.337 208.267C111.335 211.11 108.872 212.955 114.731 213.835C130.765 216.244 134.708 204.287 134.708 204.287C134.708 204.287 145.574 197.425 139.994 189.04C139.996 189.038 135.603 183.933 131.085 182.774Z" fill="#AEC3FF"/>
    <path opacity="0.5" d="M248.715 163.45C247.278 156.028 235.05 157.444 235.05 157.444C235.05 157.444 225.976 169.607 223.572 169.74C221.165 169.874 229.334 157.798 229.334 157.798C224.745 157.014 212.574 161.942 212.574 161.942C212.574 161.942 212.298 176.866 209.934 176.393C207.57 175.919 210.841 163.191 210.841 163.191C206.276 164.238 201.738 169.252 201.738 169.252C195.926 177.53 206.667 184.7 206.667 184.7C206.667 184.7 206.461 189.869 202.926 195.564C202.926 195.564 202.144 196.606 201.298 198.412L202.518 198.5C202.641 198.173 202.772 197.86 202.914 197.56C202.914 197.557 202.916 197.555 202.917 197.554C202.918 197.549 202.921 197.545 202.923 197.541C203.019 197.354 203.157 197.09 203.331 196.768C203.331 196.768 203.331 196.768 203.331 196.767C203.331 196.765 203.332 196.765 203.332 196.765C203.756 196.05 204.045 195.519 204.231 195.134C204.231 195.133 204.232 195.132 204.232 195.132C205.508 192.881 207.324 189.959 208.441 189.4C208.441 189.4 208.319 189.197 208.219 188.812C208.289 189 208.363 189.196 208.441 189.4C210.214 194.101 220.594 195.602 226.49 194.804C232.386 194.004 229.967 192.154 227.024 189.222C224.081 186.29 217.474 186.536 215.609 185.337C213.744 184.136 216.649 183.276 220.503 183.856C224.357 184.436 226.024 188.519 232.241 189.572C238.459 190.625 244.053 178.977 244.053 178.977C239.637 180.035 232.054 177.054 231.861 175.515C231.667 173.976 243.133 174.946 244.952 174.618C246.773 174.291 250.152 170.872 248.715 163.45Z" fill="#AEC3FF"/>
    <path opacity="0.5" d="M168.921 211.484C169.586 213.025 178.376 213.757 182.652 211.276C182.652 211.276 180.343 225.146 173.556 225.992C166.768 226.841 163.804 223.111 159.618 223.713C155.432 224.315 152.669 226.118 154.971 226.784C157.272 227.451 164.073 225.128 168.02 227.26C169.835 228.241 171.466 229.017 172.124 229.83C170.392 229.83 168.653 229.83 166.91 229.828C159.866 229.825 152.743 229.822 145.642 229.817C145.552 229.234 145.472 228.916 145.472 228.916C145.472 228.916 132.135 224.812 135.686 214.38C135.686 214.38 138.896 207.745 143.332 205.23C143.332 205.23 143.764 219.497 146.368 219.251C148.97 219.004 144.759 203.389 144.759 203.389C144.759 203.389 155.938 194.457 160.951 193.839C160.951 193.839 156.091 208.956 158.553 208.066C161.017 207.174 166.791 191.682 166.791 191.682C166.791 191.682 179.089 186.386 182.822 193.661C186.555 200.935 184.069 205.55 182.274 206.46C180.479 207.369 168.255 209.943 168.921 211.484Z" fill="#AEC3FF"/>
    <path d="M155.02 24.0928C155.02 24.0928 159.796 14.9391 171.217 15.9563C171.217 15.9563 187.798 0.70068 205.48 13.9219C205.48 13.9219 224.275 10.6457 238.195 16.7579C247.476 20.8327 250.54 25.1086 250.54 25.1086L155.02 24.0928Z" fill="#F8FCFF"/>
    <path d="M229.024 9.10537C229.024 9.10537 231.459 4.1212 237.28 4.675C237.28 4.675 245.732 -3.63195 254.746 3.5674C254.746 3.5674 264.327 1.78359 271.422 5.1122C276.153 7.33176 277.716 9.65917 277.716 9.65917L229.024 9.10537Z" fill="#F8FCFF"/>
    <path d="M52.0322 34.9093C52.0322 34.9093 54.467 29.9252 60.2884 30.4789C60.2884 30.4789 68.7406 22.172 77.7539 29.3714C77.7539 29.3714 87.3355 27.5875 94.4308 30.9162C99.1615 33.1357 100.725 35.4631 100.725 35.4631L52.0322 34.9093Z" fill="#F8FCFF"/>
    <path d="M52.2998 148.053C46.1635 146.463 39.4175 136.77 39.4175 136.77L41.1451 135.244C42.9344 137.391 50.3717 141.09 50.3717 141.09C50.3317 139.125 50.3818 137.333 50.5049 135.7C51.3308 124.613 55.4359 120.918 56.5552 120.108C56.7356 119.977 56.8401 119.922 56.8401 119.922C56.8401 119.922 56.8444 120.002 56.8501 120.155C56.8659 120.484 56.8959 121.149 56.926 122.059C57.155 128.846 57.4269 149.383 52.2998 148.053Z" fill="#FFB27D"/>
    <path d="M57.2183 132.92C57.2039 133.527 57.1839 134.137 57.1596 134.747C56.962 139.68 56.4353 144.584 55.2458 147.454C54.9524 148.158 54.6218 148.741 54.2439 149.169C53.6957 149.796 53.0515 150.099 52.2958 149.985C48.1505 149.369 47.0699 145.43 46.8509 142.5C46.7135 140.677 46.911 139.246 46.911 139.246C46.911 139.246 48.9979 140.412 49.3271 140.103C50.0056 139.465 50.2561 135.222 50.4379 131.824C50.6769 127.369 50.7399 122.361 51.1578 121.498C52.353 119.034 56.9663 119.034 56.9663 119.034C56.9663 119.034 57.3986 125.745 57.2183 132.92Z" fill="#F99746"/>
    <path d="M62.106 107.751C62.106 107.751 58.6879 109.802 60.7849 113.773C60.7849 113.773 57.7933 113.215 57.1463 112.305C57.1463 112.305 57.2222 112.684 57.3324 112.875C57.3324 112.875 54.5813 112.24 53.6824 111.072C52.7821 109.904 57.1964 95.9042 64.3461 99.5301C64.3461 99.5301 70.8846 100.766 68.3239 108.156C65.7632 115.546 68.1836 116.199 68.1836 116.199C68.1836 116.199 67.4221 116.355 67.0972 116.268C67.0972 116.268 66.6706 115.956 66.6463 115.663C66.6463 115.663 66.6306 116.108 66.7179 116.275C66.7179 116.275 64.0398 115.823 62.9963 114.467C61.9529 113.111 61.3288 109.208 62.106 107.751Z" fill="#233862"/>
    <path d="M57.1737 119.65C57.169 119.652 57.1658 119.654 57.161 119.655C57.1372 119.652 57.1419 119.65 57.1737 119.65Z" fill="#FFB27D"/>
    <path d="M65.4786 117.215C65.5788 118.132 65.699 118.954 65.752 119.344C65.8722 120.222 57.6934 119.65 57.1724 119.649C57.5359 119.489 58.6452 115.905 58.9974 114.538C59.4225 112.88 59.7574 111.09 59.7574 111.09L65.533 111.462L65.8765 111.483C65.6632 112.285 65.5115 113.041 65.407 113.745C65.3927 113.84 65.3798 113.936 65.3669 114.028C65.261 114.809 65.3526 116.084 65.4786 117.215Z" fill="#FFB27D"/>
    <path d="M58.9589 110.498C58.9589 110.498 58.0228 107.474 58.2117 105.157C58.3463 103.501 60.6608 97.8556 66.2245 100.259C66.2245 100.259 67.8606 100.88 69.1574 102.391C70.188 103.593 71.5163 105.945 68.1597 110.513L67.185 112.098L58.9589 110.498Z" fill="#233862"/>
    <path d="M57.9067 133.393L57.6004 143.375C57.6004 143.375 56.5169 145.265 55.2458 147.452C54.9195 148.014 54.5802 148.595 54.2439 149.168C53.6957 149.794 53.0515 150.098 52.2958 149.984C48.1505 149.367 47.0699 145.428 46.8509 142.499C46.7135 140.676 46.911 139.245 46.911 139.245C46.911 139.245 48.7245 140.037 49.0537 139.727C49.7322 139.089 50.2575 135.221 50.4393 131.822L53.2691 130.194L57.2182 132.918L57.9067 133.393Z" fill="#ED7D2B"/>
    <path d="M65.4787 117.215C61.4394 116.01 59.7246 111.259 59.7246 111.259C61.4337 111.31 63.6594 112.518 65.4057 113.745C65.3914 113.84 65.3785 113.936 65.3656 114.028C65.2611 114.809 65.3527 116.084 65.4787 117.215Z" fill="#ED975D"/>
    <path d="M65.7636 115.547C65.7636 115.547 58.4651 113.71 59.6588 109.099C60.8526 104.49 60.7137 101.148 65.4244 102.124C70.135 103.102 70.5816 105.103 70.5501 106.741C70.52 108.379 67.6931 115.905 65.7636 115.547Z" fill="#FFB27D"/>
    <path d="M71.0008 104.121C68.828 100.622 66.2387 100.257 66.2258 100.257C64.3707 98.9909 61.9174 102.098 61.9174 102.098C60.5719 105.274 57.7363 106.537 57.7363 106.537C57.7363 106.537 58.8442 107.728 62.1063 107.751C63.1025 107.758 64.1102 107.308 65.032 106.68C63.2485 108.456 61.1702 109.522 61.1702 109.522C65.0836 108.821 67.8218 104.43 68.307 103.602C68.8338 104.465 69.3576 105.467 69.3848 106.088C69.4421 107.359 68.9769 109.819 69.6897 109.924C69.6897 109.925 72.4637 106.477 71.0008 104.121Z" fill="#233862"/>
    <path d="M64.624 112.591C64.624 112.591 64.7156 113.293 65.1551 113.458C65.5945 113.624 66.7625 113.924 66.8799 113.85C66.9987 113.776 67.4352 113.228 67.4352 113.228C67.4352 113.228 65.5974 112.511 64.624 112.591Z" fill="white"/>
    <path d="M61.8987 183.113C61.8057 183.508 61.7126 183.897 61.6225 184.284C61.0728 186.612 60.5604 188.772 60.2369 190.577C59.8175 192.928 59.7187 194.677 60.2684 195.413C62.5342 198.438 60.2684 222.451 60.2684 222.451L57.6891 225.157C57.6891 225.157 53.2046 201.449 51.9879 197.734C51.434 196.045 50.6295 188.833 49.9167 181.47C49.8809 181.101 49.8452 180.733 49.8108 180.366C49.6877 179.077 49.5689 177.795 49.4558 176.543C48.8174 169.577 48.3394 163.61 48.3394 163.61C48.3394 163.61 53.0958 160.204 57.4185 159.825C59.9649 159.6 62.3596 160.424 63.5419 163.61C65.2653 168.243 63.5205 176.246 61.8987 183.113Z" fill="#FFB27D"/>
    <path d="M61.1732 184.706C57.8439 181.01 55.651 175.717 51.5874 168.307C51.2424 164.539 54.161 160.956 57.4188 159.825C59.9652 159.6 62.3599 160.424 63.5422 163.61C65.2655 168.243 62.795 177.84 61.1732 184.706Z" fill="#ED975D"/>
    <path d="M74.7884 137.322L92.158 141.89V143.955C92.158 143.955 74.8728 143.748 73.7578 141.788C72.6427 139.828 74.7884 137.322 74.7884 137.322Z" fill="#FFB27D"/>
    <path d="M92.1579 205.387L91.3463 208.8C91.3463 208.8 67.8504 196.443 64.8116 194.071C63.5906 193.117 61.9775 187.939 60.4831 182.082C58.2574 173.353 56.2964 163.113 56.2964 163.113C56.2964 163.113 59.59 150.216 68.4072 158.109C73.6832 162.832 72.863 171.935 72.2848 179.015C71.8997 183.764 71.6235 187.604 73.3726 188.6C76.785 190.539 86.8003 199.473 89.9708 205.62L92.1579 205.387Z" fill="#FFB27D"/>
    <path d="M83.312 137.322C84.4356 138.947 83.8173 142.098 81.4598 144.634C79.9955 146.209 78.0145 147.141 74.7882 146.657C73.3826 146.445 70.9021 144.845 69.6081 142.197C69.4149 141.802 68.9239 140.641 68.9239 140.641C68.9239 140.641 67.1347 142.464 67.0689 142.809C67.0388 142.964 66.8842 144.342 66.8599 144.53C66.8327 144.758 66.9916 145.596 66.9916 145.596C66.9916 145.596 58.4449 149.401 51.3796 145.068C51.3796 145.068 49.7078 134.019 50.8114 124.566C51.0232 122.755 55.5635 120.283 56.9677 119.033C57.2826 118.751 57.6032 117.903 57.5173 117.358C57.4458 116.896 57.9668 116.119 58.4048 116.261C59.2493 116.536 61.6382 117.74 63.3201 117.281C64.1575 117.055 65.2195 116.068 66.0311 116.294C67.0231 116.57 65.9753 119.002 66.5378 119.033C67.3122 119.072 70.7933 119.127 71.8496 120.611C72.7142 121.826 73.1736 124.094 74.6823 128.384C74.6823 128.384 74.6837 128.387 74.6852 128.396C77.5135 136.448 81.6631 134.937 83.312 137.322Z" fill="#F99746"/>
    <path d="M68.9239 140.642C68.9239 140.642 68.0637 138.596 67.4367 135.179C67.2593 134.214 59.975 141.625 61.8 144.634C63.6236 147.643 68.9239 140.642 68.9239 140.642Z" fill="#ED7D2B"/>
    <path d="M79.4231 171.515C79.4231 171.515 77.1343 172.182 73.6962 172.92C66.5923 174.446 54.5774 176.275 47.6968 173.15C47.6968 173.15 48.1362 162.847 49.3328 155.057C50.289 148.825 51.1764 144.736 51.1764 144.736C51.1764 144.736 57.5732 146.368 64.0688 145.102C64.1303 145.09 64.1919 145.078 64.2534 145.065C65.1037 144.893 65.9553 144.669 66.7927 144.385C66.7927 144.385 71.6965 151.542 74.2258 156.52C75.9763 159.965 79.4231 171.515 79.4231 171.515Z" fill="#B0D0FF"/>
    <path d="M79.423 171.515C79.423 171.515 77.1342 172.182 73.6961 172.92C72.9575 173.001 72.1888 173.077 71.393 173.15C59.8633 158.161 64.1145 145.138 64.1145 145.138C64.1603 145.113 64.2075 145.089 64.2533 145.065C65.1035 144.893 65.9552 144.669 66.7926 144.385C66.7926 144.385 71.6964 151.542 74.2257 156.52C75.9762 159.965 79.423 171.515 79.423 171.515Z" fill="#98BAF4"/>
    <path d="M92.1577 141.89C92.1577 141.89 95.3439 140.291 96.6107 140.136C97.8775 139.982 100.006 139.93 100.006 140.136C100.006 140.343 97.7257 141.785 97.1174 141.89C96.5091 141.995 95.3439 142.87 95.6989 142.974C96.0539 143.077 97.929 142.639 97.9533 142.974C97.9791 143.309 96.8125 143.516 96.6107 143.774C96.4074 144.032 95.6989 144.341 94.5581 144.186C93.4173 144.032 92.1562 143.955 92.1562 143.955V141.89H92.1577Z" fill="#FFB27D"/>
    <path d="M96.8027 206.712C96.8027 206.712 96.7955 206.71 96.7812 206.707C96.6753 206.681 96.1929 206.518 95.8723 205.735C95.6619 205.219 95.5974 204.797 95.4042 204.287L94.6112 202.892C93.781 201.78 93.4905 202.039 93.4905 202.039C93.4905 202.039 93.2729 202.322 92.9523 202.697C92.4227 203.313 91.6111 204.173 91.0371 204.393C90.6292 204.549 90.3729 204.807 90.2169 205.047C90.0165 205.349 89.9722 205.62 89.9722 205.62C89.9722 205.62 91.6755 205.923 91.5281 206.777C91.2389 208.431 91.3076 208.733 91.3363 208.787L91.3463 208.799C91.3463 208.799 94.252 210.348 95.1809 210.651C96.8341 211.19 97.6987 212.334 98.234 212.857C98.4516 213.069 98.7522 213.166 99.047 213.118C99.4836 213.048 100.049 212.905 100.172 212.633L96.8027 206.712Z" fill="#2B478B"/>
    <path d="M62.8619 226.36L61.4706 227.126C60.9653 227.309 60.5473 227.361 60.0349 227.561C59.2577 227.864 58.7094 228.46 58.6837 228.568C58.2915 230.193 57.7161 230.143 57.7161 230.143H52.1423C51.8789 230.009 52.3255 228.859 52.5402 228.645C53.0684 228.114 54.6515 228.381 55.2283 226.714C55.5533 225.777 57.1578 222.865 57.1578 222.865L57.1693 222.855C57.2237 222.826 57.5214 222.766 59.1374 223.108C59.9719 223.285 60.3183 221.559 60.3183 221.559C60.3183 221.559 60.5845 221.613 60.8737 221.824C61.1041 221.991 61.3503 222.259 61.492 222.678C61.6924 223.27 62.5126 224.121 63.1023 224.677C63.4602 225.013 63.7321 225.242 63.7321 225.242C63.7321 225.242 63.9783 225.548 62.8619 226.36Z" fill="#2B478B"/>
    <path d="M41.1453 135.244C41.1453 135.244 41.4029 133.447 40.9478 132.262C40.4668 131.014 40.3595 129.655 39.9759 130.195C39.5908 130.734 39.9158 132.255 39.578 132.207C39.4291 132.185 38.9739 131.923 38.7936 131.191C38.566 130.262 39.1199 129.042 38.3599 129.161C37.6356 129.276 36.6637 132.704 37.1446 133.635C37.6256 134.567 39.4176 136.77 39.4176 136.77L41.1453 135.244Z" fill="#FFB27D"/>
    <path d="M57.9682 146.657C53.2304 146.657 51.2766 144.997 51.132 144.883L50.8257 142.611C50.8715 142.645 57.2296 146.533 67.0689 142.809L66.8599 144.53C63.0753 145.963 60.4287 146.657 57.9682 146.657Z" fill="#EA7147"/>
    <path d="M100.297 118.206C101.015 121.436 102.424 127.676 107.776 135.206C111.635 140.637 118.973 148.667 126.157 159.161C131.337 166.729 134.343 171.194 135.995 173.673C137.17 175.437 137.982 177.4 138.387 179.458L125.958 217.47L155.505 220.102C155.505 220.102 166.636 180.507 166.646 163.9C166.646 163.894 166.645 163.889 166.648 163.886C166.646 161.961 166.665 159.909 166.712 157.715C166.923 147.553 169.823 139.546 140.969 139.267C140.849 139.267 140.739 139.179 140.608 139.133C139.483 138.689 137.766 137.891 135.234 135.813C134.807 135.464 134.359 135.081 133.89 134.66C131.073 132.126 128.4 130.129 125.887 128.551C112.77 120.293 99.6441 115.271 100.297 118.206Z" fill="#FFB27D"/>
    <path d="M98.2442 98.9312C98.6764 94.1554 102.169 79.1329 102.169 79.1329C102.169 79.1329 105.587 79.933 106.84 82.1613C110.504 88.683 109.306 101.54 109.113 101.616C109.107 101.616 115.073 113.291 116.085 120.799C116.086 120.805 116.085 120.799 116.085 120.799C116.085 120.799 131.906 129.54 135.238 135.813C135.44 136.194 135.601 136.57 135.719 136.932C136.171 138.341 136.363 140.271 136.337 142.414C136.226 150.013 133.277 160.29 128.87 159.499C127.782 159.301 102.328 130.327 101.274 125.225C101.027 124.022 98.0123 101.48 98.2442 98.9312Z" fill="#FFB27D"/>
    <path d="M139.356 131.439C139.356 131.439 140.109 138.812 132.611 132.346L132.006 140.819L142.448 146.481L145.992 140.263L139.356 131.439Z" fill="#FFB27D"/>
    <path d="M102.905 86.5553C103.048 86.277 103.145 85.9695 103.193 85.6445C103.193 85.6445 103.592 82.7341 103.877 80.5991C104.066 79.1913 103.138 78.0516 102.611 77.8388C102.278 77.7048 100.231 83.1626 100.151 88.3013C101.353 88.3217 102.388 87.5653 102.905 86.5553Z" fill="#FFC69F"/>
    <path d="M116.083 120.8C119.499 121.94 140.304 136.345 141.429 136.789C144.03 140.134 144.469 145.089 143.198 145.64C141.482 146.389 137.661 144.888 135.112 142.503C131.694 139.312 130.703 135.106 129.683 132.764C129.222 131.71 126.195 130.179 125.048 128.638C122.034 124.591 116.474 121.114 116.083 120.8Z" fill="#F6A56E"/>
    <path d="M155.892 134.561C155.892 134.561 128.806 112.356 125.814 106.718C125.814 106.718 121.047 108.473 122.949 115.84C124.852 123.206 138.171 136.432 138.966 141.649C141.955 161.251 152.891 167.283 152.891 167.283C152.891 167.283 182.576 156.49 155.892 134.561Z" fill="#FFB27D"/>
    <path d="M127.556 114.923C127.307 114.723 127.086 114.481 126.906 114.203C126.906 114.203 125.303 111.702 124.132 109.864C123.36 108.653 123.605 107.079 124.719 106.152C124.992 105.925 125.155 105.811 125.155 105.811C126.471 106.967 129.866 109.123 132.129 113.785C130.881 114.697 128.459 115.644 127.556 114.923Z" fill="#FFC69F"/>
    <path d="M165.792 188.965C165.792 188.965 165.662 192.631 165.443 198.437C165.437 198.588 165.431 198.743 165.425 198.899C165.126 206.84 164.671 218.559 164.157 230.372C146.992 230.362 130.013 230.347 113.86 230.327C118.627 220.631 126.734 204.878 131.652 195.376C133.985 190.864 135.599 187.76 135.795 187.387C135.808 187.362 135.815 187.349 135.815 187.349C136.088 186.947 136.392 186.581 136.724 186.253C137.179 185.797 137.684 185.408 138.237 185.082C142.781 182.364 150.329 183.656 156.376 185.452C159.163 186.278 161.629 187.211 163.338 187.906C164.501 188.381 165.314 188.745 165.636 188.894C165.739 188.941 165.792 188.965 165.792 188.965Z" fill="#F99746"/>
    <path d="M165.434 198.897C165.434 198.897 153.481 202.185 146.574 202.292L144.025 197.459L141.795 201.545C141.795 201.545 133.069 198.848 131.292 196.209L137.372 185.063L165.7 185.64L165.434 198.897Z" fill="#ED7D2B"/>
    <path d="M164.937 179.477C164.937 179.477 168.62 188.186 169.4 198.51C169.4 198.51 154.999 200.136 148.143 199.276L145.141 187.164L140.772 197.689C140.772 197.689 132.839 196.641 130.082 194.463C130.082 194.463 135.216 185.509 138.45 179.576C138.45 179.576 151.796 183.671 164.937 179.477Z" fill="#F3F8FF"/>
    <path d="M156.228 196.168C156.584 195.499 156.309 194.677 155.615 194.331C154.919 193.986 154.068 194.248 153.711 194.917C153.355 195.586 153.63 196.408 154.324 196.754C155.02 197.099 155.871 196.837 156.228 196.168Z" fill="#F99746"/>
    <path d="M251.354 118.206C250.636 121.436 249.227 127.676 243.876 135.206C240.017 140.637 232.678 148.667 225.494 159.161C220.314 166.729 217.308 171.194 215.656 173.673C214.481 175.437 213.669 177.4 213.264 179.458L225.693 217.47L196.147 220.102C196.147 220.102 185.015 180.507 185.005 163.9C185.005 163.894 185.006 163.889 185.004 163.886C185.005 161.961 184.986 159.909 184.939 157.715C184.729 147.553 181.829 139.546 210.682 139.267C210.802 139.267 210.913 139.179 211.043 139.133C212.168 138.689 213.886 137.891 216.418 135.813C216.844 135.464 217.292 135.081 217.762 134.66C220.579 132.126 223.251 130.129 225.765 128.551C238.88 120.293 252.007 115.271 251.354 118.206Z" fill="#FFB27D"/>
    <path d="M253.407 98.9312C252.975 94.1554 249.482 79.1329 249.482 79.1329C249.482 79.1329 246.064 79.933 244.812 82.1613C241.147 88.683 242.345 101.54 242.539 101.616C242.544 101.616 236.578 113.291 235.567 120.799C235.567 120.805 235.567 120.799 235.567 120.799C235.567 120.799 219.746 129.54 216.413 135.813C216.212 136.194 216.05 136.57 215.932 136.932C215.48 138.341 215.288 140.271 215.316 142.414C215.427 150.013 218.376 160.29 222.783 159.499C223.869 159.301 249.325 130.327 250.378 125.225C250.623 124.022 253.638 101.48 253.407 98.9312Z" fill="#FFB27D"/>
    <path d="M212.296 131.439C212.296 131.439 211.543 138.812 219.04 132.346L219.647 140.819L209.205 146.481L205.661 140.263L212.296 131.439Z" fill="#FFB27D"/>
    <path d="M248.745 86.5553C248.602 86.277 248.504 85.9695 248.457 85.6445C248.457 85.6445 248.058 82.7341 247.773 80.5991C247.584 79.1913 248.512 78.0516 249.038 77.8388C249.372 77.7048 251.419 83.1626 251.499 88.3013C250.297 88.3217 249.262 87.5653 248.745 86.5553Z" fill="#FFC69F"/>
    <path d="M235.566 120.8C232.151 121.94 211.346 136.345 210.221 136.789C207.62 140.134 207.181 145.089 208.452 145.64C210.168 146.389 213.988 144.888 216.538 142.503C219.956 139.312 220.946 135.106 221.967 132.764C222.428 131.71 225.455 130.179 226.602 128.638C229.618 124.591 235.177 121.114 235.566 120.8Z" fill="#F6A56E"/>
    <path d="M195.757 134.561C195.757 134.561 222.843 112.356 225.836 106.718C225.836 106.718 230.602 108.473 228.7 115.84C226.798 123.206 213.479 136.432 212.683 141.649C209.694 161.251 198.759 167.283 198.759 167.283C198.759 167.283 169.074 156.49 195.757 134.561Z" fill="#FFB27D"/>
    <path d="M224.094 114.923C224.343 114.723 224.563 114.481 224.744 114.203C224.744 114.203 226.347 111.702 227.518 109.864C228.289 108.653 228.045 107.079 226.932 106.152C226.659 105.925 226.496 105.811 226.496 105.811C225.18 106.967 221.582 109.318 219.32 113.98C220.408 114.468 223.192 115.644 224.094 114.923Z" fill="#FFC69F"/>
    <path d="M237.83 230.41C221.813 230.408 204.812 230.403 187.493 230.395C186.98 218.575 186.525 206.844 186.226 198.9C186.219 198.744 186.213 198.59 186.209 198.438C185.99 192.632 185.859 188.967 185.859 188.967C185.859 188.967 185.912 188.942 186.015 188.894C186.337 188.745 187.15 188.381 188.313 187.906C190.023 187.211 192.489 186.278 195.275 185.452C201.322 183.656 208.87 182.365 213.415 185.082C213.966 185.408 214.471 185.797 214.928 186.253C215.261 186.581 215.563 186.947 215.837 187.349C215.837 187.349 215.844 187.362 215.857 187.387C216.053 187.76 217.666 190.864 219.999 195.376C224.93 204.905 233.067 220.72 237.83 230.41Z" fill="#F99746"/>
    <path d="M186.216 198.897C186.216 198.897 198.169 202.185 205.076 202.292L207.625 197.459L209.855 201.545C209.855 201.545 218.581 198.848 220.358 196.209L214.278 185.063L185.95 185.64L186.216 198.897Z" fill="#ED7D2B"/>
    <path d="M186.713 179.477C186.713 179.477 183.03 188.186 182.25 198.51C182.25 198.51 196.651 200.136 203.507 199.276L206.508 187.164L210.878 197.689C210.878 197.689 218.811 196.641 221.568 194.463C221.568 194.463 216.433 185.509 213.2 179.576C213.2 179.576 199.854 183.671 186.713 179.477Z" fill="#F3F8FF"/>
    <path d="M195.422 196.168C195.066 195.499 195.339 194.677 196.035 194.331C196.731 193.986 197.582 194.248 197.939 194.917C198.295 195.586 198.02 196.408 197.326 196.754C196.632 197.099 195.779 196.837 195.422 196.168Z" fill="#F99746"/>
    <path d="M229.182 216.313C230.145 216.711 233.589 216.388 233.699 216.109C233.811 215.829 231.559 213.157 230.596 212.76C229.632 212.362 228.535 212.835 228.144 213.816C227.753 214.797 228.218 215.915 229.182 216.313Z" fill="#A8D29F"/>
    <path d="M237.867 217.986C237.326 218.889 237.081 222.401 237.335 222.559C237.588 222.716 240.541 220.884 241.082 219.981C241.623 219.077 241.342 217.897 240.454 217.346C239.566 216.795 238.408 217.082 237.867 217.986Z" fill="#A8D29F"/>
    <path d="M233.227 224.857C234.217 225.179 237.627 224.592 237.717 224.303C237.807 224.015 235.362 221.527 234.372 221.205C233.381 220.883 232.322 221.44 232.006 222.448C231.689 223.457 232.236 224.535 233.227 224.857Z" fill="#A8D29F"/>
    <path d="M238.241 228.256C238.238 228.176 237.856 220.229 233.583 216.126L233.673 216.028C237.986 220.17 238.37 228.171 238.372 228.251L238.241 228.256Z" fill="#A8D29F"/>
    <path d="M252.506 216.485C251.906 216.89 249.524 217.156 249.411 216.983C249.298 216.808 250.463 214.677 251.063 214.272C251.662 213.867 252.473 214.033 252.871 214.644C253.27 215.255 253.107 216.078 252.506 216.485Z" fill="#A8D29F"/>
    <path d="M246.837 218.844C247.327 219.382 247.971 221.731 247.819 221.874C247.669 222.017 245.414 221.189 244.925 220.651C244.435 220.113 244.465 219.274 244.994 218.774C245.522 218.276 246.346 218.306 246.837 218.844Z" fill="#A8D29F"/>
    <path d="M250.921 222.856C250.292 223.215 247.898 223.296 247.797 223.113C247.697 222.931 249.018 220.896 249.647 220.538C250.275 220.179 251.071 220.408 251.421 221.049C251.774 221.689 251.549 222.498 250.921 222.856Z" fill="#A8D29F"/>
    <path d="M247.978 225.869C247.969 225.813 247.148 220.364 249.492 216.977L249.418 216.923C247.052 220.342 247.879 225.829 247.889 225.883L247.978 225.869Z" fill="#A8D29F"/>
    <path d="M243.747 227.792L243.475 227.749C242.404 213.641 238.173 203.517 238.113 203.38L238.361 203.271C238.421 203.409 242.682 213.601 243.747 227.792Z" fill="#A8D29F"/>
    <path d="M235.243 201.959C235.764 202.561 238.208 203.529 238.376 203.377C238.545 203.226 237.906 200.637 237.383 200.035C236.862 199.434 235.959 199.377 235.368 199.907C234.778 200.439 234.722 201.357 235.243 201.959Z" fill="#CCDBFD"/>
    <path d="M238.988 199.862C238.517 200.506 238.089 203.14 238.269 203.277C238.45 203.414 240.806 202.243 241.278 201.599C241.749 200.955 241.619 200.044 240.986 199.565C240.353 199.085 239.459 199.218 238.988 199.862Z" fill="#CCDBFD"/>
    <path d="M241.798 202.662C241.038 202.45 238.473 203.008 238.414 203.228C238.355 203.45 240.286 205.254 241.048 205.466C241.808 205.677 242.594 205.219 242.801 204.445C243.007 203.672 242.559 202.873 241.798 202.662Z" fill="#CCDBFD"/>
    <path d="M240.066 206.153C239.99 205.355 238.568 203.11 238.345 203.134C238.122 203.156 237.149 205.635 237.224 206.433C237.3 207.232 237.997 207.818 238.783 207.74C239.568 207.663 240.142 206.952 240.066 206.153Z" fill="#CCDBFD"/>
    <path d="M236.177 205.981C236.875 205.608 238.378 203.421 238.274 203.218C238.169 203.016 235.547 203.035 234.85 203.408C234.151 203.781 233.884 204.66 234.25 205.371C234.616 206.08 235.48 206.354 236.177 205.981Z" fill="#CCDBFD"/>
    <path d="M237.81 203.144C237.851 202.883 238.092 202.705 238.348 202.746C238.604 202.788 238.779 203.033 238.739 203.294C238.697 203.555 238.457 203.733 238.201 203.692C237.944 203.65 237.77 203.405 237.81 203.144Z" fill="#163560"/>
    <path d="M243.67 213.369C242.894 214.341 242.057 218.416 242.329 218.64C242.601 218.866 246.348 217.2 247.124 216.228C247.9 215.256 247.755 213.829 246.802 213.039C245.849 212.249 244.446 212.397 243.67 213.369Z" fill="#A8D29F"/>
    <path d="M228.314 229.235L228.129 229.231C226.202 219.965 222.522 213.625 222.471 213.539L222.625 213.444C222.677 213.532 226.384 219.914 228.314 229.235Z" fill="#A8D29F"/>
    <path d="M220.444 212.854C220.842 213.207 222.547 213.631 222.646 213.516C222.745 213.401 222.098 211.739 221.698 211.387C221.3 211.034 220.696 211.076 220.35 211.481C220.005 211.887 220.046 212.502 220.444 212.854Z" fill="#CCDBFD"/>
    <path d="M222.748 211.127C222.491 211.597 222.435 213.382 222.565 213.458C222.697 213.532 224.16 212.545 224.416 212.076C224.674 211.607 224.508 211.014 224.047 210.753C223.587 210.489 223.005 210.658 222.748 211.127Z" fill="#CCDBFD"/>
    <path d="M224.854 212.733C224.332 212.662 222.678 213.261 222.658 213.412C222.638 213.564 224.075 214.59 224.598 214.661C225.12 214.733 225.603 214.36 225.673 213.828C225.744 213.296 225.378 212.806 224.854 212.733Z" fill="#CCDBFD"/>
    <path d="M224.005 215.205C223.887 214.682 222.75 213.321 222.603 213.354C222.455 213.389 222.024 215.12 222.143 215.644C222.262 216.167 222.776 216.493 223.29 216.372C223.805 216.251 224.126 215.73 224.005 215.205Z" fill="#CCDBFD"/>
    <path d="M221.41 215.44C221.841 215.129 222.651 213.544 222.564 213.418C222.477 213.293 220.739 213.539 220.308 213.85C219.877 214.16 219.774 214.766 220.079 215.205C220.383 215.645 220.979 215.749 221.41 215.44Z" fill="#CCDBFD"/>
    <path d="M222.249 213.41C222.253 213.233 222.398 213.093 222.573 213.098C222.746 213.102 222.883 213.249 222.879 213.427C222.875 213.603 222.73 213.743 222.555 213.739C222.382 213.735 222.245 213.587 222.249 213.41Z" fill="#163560"/>
    <path d="M227.018 219.672C226.587 220.386 226.383 223.165 226.583 223.29C226.784 223.416 229.127 221.976 229.558 221.262C229.988 220.548 229.769 219.613 229.068 219.175C228.368 218.735 227.451 218.958 227.018 219.672Z" fill="#A8D29F"/>
    <path d="M257.71 228.011L257.952 227.971C258.905 215.408 262.674 206.391 262.727 206.268L262.506 206.172C262.453 206.296 258.658 215.371 257.71 228.011Z" fill="#A8D29F"/>
    <path d="M265.283 205.003C264.818 205.54 262.643 206.401 262.492 206.267C262.342 206.131 262.912 203.826 263.377 203.291C263.842 202.755 264.645 202.704 265.172 203.177C265.699 203.65 265.749 204.469 265.283 205.003Z" fill="#CCDBFD"/>
    <path d="M261.948 203.135C262.367 203.708 262.748 206.054 262.588 206.177C262.428 206.299 260.329 205.256 259.908 204.683C259.489 204.11 259.605 203.298 260.167 202.871C260.733 202.444 261.529 202.562 261.948 203.135Z" fill="#CCDBFD"/>
    <path d="M259.446 205.629C260.123 205.441 262.408 205.938 262.459 206.134C262.512 206.331 260.792 207.939 260.115 208.127C259.437 208.315 258.738 207.908 258.553 207.219C258.368 206.529 258.768 205.817 259.446 205.629Z" fill="#CCDBFD"/>
    <path d="M260.988 208.739C261.055 208.027 262.32 206.029 262.521 206.048C262.72 206.067 263.587 208.275 263.518 208.988C263.451 209.699 262.83 210.221 262.13 210.152C261.433 210.082 260.921 209.45 260.988 208.739Z" fill="#CCDBFD"/>
    <path d="M264.452 208.586C263.83 208.253 262.491 206.306 262.584 206.126C262.677 205.945 265.011 205.961 265.634 206.293C266.255 206.625 266.496 207.408 266.169 208.041C265.841 208.674 265.074 208.918 264.452 208.586Z" fill="#CCDBFD"/>
    <path d="M262.997 206.059C262.962 205.825 262.747 205.668 262.518 205.704C262.289 205.741 262.134 205.959 262.17 206.193C262.206 206.424 262.421 206.583 262.65 206.547C262.879 206.509 263.035 206.29 262.997 206.059Z" fill="#163560"/>
    <path d="M257.147 218.529C257.839 219.395 258.584 223.024 258.341 223.225C258.099 223.426 254.761 221.942 254.07 221.077C253.378 220.211 253.507 218.94 254.357 218.236C255.208 217.532 256.456 217.664 257.147 218.529Z" fill="#A8D29F"/>
    <path d="M218.562 230.207C218.562 230.207 219.93 226.543 224.902 226.313C229.871 226.083 233.294 229.073 237.4 227.693C241.507 226.313 248.303 223.197 254.733 225.272C261.162 227.348 262.246 230.207 262.246 230.207H218.562Z" fill="#A8D29F"/>
    <path d="M34.9702 230.179H43.5542C44.0136 229.782 43.2364 228.879 42.4219 228.82C42.0684 228.792 41.6218 228.868 41.1122 228.977C40.9949 227.38 40.3193 220.198 37.7771 220.487C34.9187 220.81 37.7771 223.649 38.5859 225.329C39.1842 226.574 39.8154 228.361 40.1046 229.203C39.8727 229.254 39.6322 229.305 39.3874 229.35C39.0081 228.165 37.5982 224.181 35.8061 224.414C33.7006 224.687 34.5465 226.284 36.0395 227.231C37.1345 227.929 38.4785 228.919 39.1169 229.398C38.5758 229.489 38.0105 229.548 37.4379 229.535C35.9665 229.502 35.2479 229.942 34.9702 230.179Z" fill="#A8D29F"/>
    <path d="M124.022 229.93H132.606C133.065 229.532 132.288 228.63 131.473 228.571C131.12 228.543 130.673 228.619 130.164 228.728C130.046 227.131 129.371 219.949 126.828 220.237C123.97 220.561 126.828 223.4 127.637 225.082C128.236 226.326 128.867 228.113 129.156 228.955C128.924 229.006 128.684 229.057 128.439 229.103C128.059 227.918 126.65 223.933 124.857 224.166C122.752 224.439 123.599 226.036 125.091 226.984C126.186 227.682 127.53 228.673 128.168 229.151C127.627 229.241 127.062 229.301 126.489 229.288C125.018 229.253 124.301 229.693 124.022 229.93Z" fill="#A8D29F"/>
    <path d="M131.532 229.011L131.749 228.976C132.605 217.702 135.986 209.61 136.033 209.501L135.836 209.414C135.789 209.526 132.382 217.67 131.532 229.011Z" fill="#A8D29F"/>
    <path d="M138.328 208.367C137.912 208.848 135.959 209.622 135.823 209.501C135.689 209.38 136.2 207.311 136.618 206.83C137.034 206.349 137.756 206.302 138.228 206.728C138.699 207.152 138.745 207.885 138.328 208.367Z" fill="#CCDBFD"/>
    <path d="M135.335 206.69C135.712 207.204 136.054 209.309 135.909 209.418C135.765 209.527 133.882 208.592 133.506 208.077C133.129 207.563 133.234 206.835 133.739 206.452C134.244 206.069 134.959 206.175 135.335 206.69Z" fill="#CCDBFD"/>
    <path d="M133.089 208.928C133.697 208.759 135.746 209.205 135.793 209.382C135.84 209.558 134.297 211.001 133.689 211.17C133.081 211.339 132.454 210.973 132.288 210.355C132.123 209.734 132.481 209.096 133.089 208.928Z" fill="#CCDBFD"/>
    <path d="M134.474 211.718C134.534 211.079 135.67 209.287 135.849 209.304C136.028 209.322 136.805 211.302 136.745 211.942C136.685 212.58 136.127 213.048 135.5 212.987C134.873 212.924 134.413 212.356 134.474 211.718Z" fill="#CCDBFD"/>
    <path d="M137.581 211.581C137.022 211.282 135.821 209.535 135.904 209.373C135.988 209.211 138.083 209.226 138.641 209.524C139.2 209.823 139.414 210.524 139.121 211.092C138.829 211.661 138.139 211.879 137.581 211.581Z" fill="#CCDBFD"/>
    <path d="M136.277 209.313C136.244 209.105 136.052 208.962 135.848 208.995C135.643 209.029 135.503 209.224 135.536 209.433C135.568 209.641 135.76 209.784 135.966 209.75C136.17 209.717 136.31 209.522 136.277 209.313Z" fill="#233862"/>
    <path d="M132.396 214.616C132.939 215.295 133.523 218.142 133.332 218.299C133.142 218.456 130.524 217.293 129.982 216.614C129.439 215.935 129.541 214.938 130.208 214.386C130.875 213.835 131.854 213.937 132.396 214.616Z" fill="#A8D29F"/>
    <path d="M135.208 220.186C134.246 220.664 132.12 223.567 132.255 223.846C132.388 224.126 135.945 224.207 136.905 223.731C137.867 223.254 138.266 222.074 137.797 221.094C137.327 220.116 136.168 219.71 135.208 220.186Z" fill="#A8D29F"/>
    <path d="M344.688 229.871H336.104C335.643 229.473 336.422 228.571 337.235 228.511C337.589 228.483 338.035 228.559 338.545 228.668C338.664 227.071 339.338 219.889 341.88 220.178C344.738 220.501 341.88 223.34 341.071 225.02C340.473 226.265 339.842 228.052 339.553 228.894C339.784 228.945 340.025 228.996 340.271 229.041C340.65 227.856 342.06 223.872 343.852 224.105C345.958 224.378 345.111 225.975 343.619 226.922C342.524 227.62 341.18 228.61 340.542 229.089C341.083 229.18 341.648 229.24 342.221 229.226C343.692 229.193 344.409 229.634 344.688 229.871Z" fill="#A8D29F"/>
    <path d="M71.4987 229.26L71.3097 229.229C70.564 219.41 67.6196 212.363 67.5781 212.267L67.7499 212.191C67.7914 212.289 70.7586 219.382 71.4987 229.26Z" fill="#A8D29F"/>
    <path d="M65.5802 211.279C65.9438 211.697 67.6443 212.372 67.7616 212.266C67.879 212.161 67.4339 210.358 67.0703 209.94C66.7067 209.52 66.0798 209.481 65.6676 209.851C65.2567 210.221 65.2167 210.861 65.5802 211.279Z" fill="#CCDBFD"/>
    <path d="M68.1867 209.819C67.8589 210.266 67.5612 212.099 67.6857 212.196C67.8116 212.29 69.452 211.476 69.7798 211.028C70.1075 210.581 70.0174 209.947 69.5765 209.612C69.1371 209.278 68.5144 209.371 68.1867 209.819Z" fill="#CCDBFD"/>
    <path d="M70.1431 211.769C69.6135 211.621 67.8286 212.011 67.7871 212.164C67.7456 212.318 69.0911 213.574 69.6192 213.721C70.1488 213.869 70.6956 213.551 70.8388 213.012C70.9848 212.471 70.6727 211.914 70.1431 211.769Z" fill="#CCDBFD"/>
    <path d="M68.9367 214.198C68.8837 213.641 67.8946 212.08 67.7386 212.095C67.5826 212.111 66.9055 213.837 66.9585 214.392C67.0115 214.949 67.4967 215.355 68.0435 215.301C68.5903 215.249 68.9896 214.755 68.9367 214.198Z" fill="#CCDBFD"/>
    <path d="M66.2299 214.079C66.7151 213.819 67.7629 212.296 67.6899 212.155C67.6169 212.013 65.7919 212.027 65.3067 212.286C64.8214 212.545 64.6339 213.157 64.8887 213.652C65.1435 214.148 65.7447 214.338 66.2299 214.079Z" fill="#CCDBFD"/>
    <path d="M67.3665 212.104C67.3951 211.922 67.5626 211.798 67.7415 211.827C67.9204 211.856 68.0421 212.027 68.0135 212.209C67.9848 212.391 67.8174 212.515 67.6384 212.486C67.4595 212.455 67.3379 212.284 67.3665 212.104Z" fill="#233862"/>
    <path d="M70.6083 214.991C70.0687 215.667 69.4861 218.503 69.675 218.66C69.864 218.818 72.4734 217.658 73.013 216.982C73.5526 216.305 73.4524 215.311 72.7883 214.762C72.1241 214.213 71.1479 214.315 70.6083 214.991Z" fill="#A8D29F"/>
    <path d="M69.2801 223.137C69.8412 223.416 71.0808 225.109 71.002 225.272C70.9248 225.436 68.8507 225.484 68.2896 225.205C67.7285 224.927 67.4966 224.239 67.77 223.668C68.0434 223.097 68.719 222.859 69.2801 223.137Z" fill="#A8D29F"/>
    <path d="M76.9033 229.26L77.1209 229.225C77.9769 217.951 81.3577 209.859 81.405 209.75L81.2075 209.663C81.1602 209.775 77.755 217.919 76.9033 229.26Z" fill="#A8D29F"/>
    <path d="M83.6997 208.616C83.2832 209.097 81.3308 209.871 81.1948 209.75C81.0603 209.629 81.5713 207.56 81.9892 207.079C82.4057 206.598 83.1271 206.553 83.5995 206.977C84.0718 207.401 84.1162 208.135 83.6997 208.616Z" fill="#CCDBFD"/>
    <path d="M80.7081 206.939C81.0846 207.453 81.4267 209.558 81.2821 209.667C81.1375 209.776 79.2553 208.841 78.8774 208.326C78.501 207.812 78.6055 207.085 79.1107 206.701C79.616 206.318 80.3317 206.424 80.7081 206.939Z" fill="#CCDBFD"/>
    <path d="M78.4606 209.177C79.069 209.008 81.1173 209.454 81.1645 209.631C81.2118 209.807 79.6687 211.25 79.0604 211.419C78.4521 211.588 77.8251 211.222 77.6591 210.604C77.4945 209.985 77.8537 209.345 78.4606 209.177Z" fill="#CCDBFD"/>
    <path d="M79.8463 211.967C79.9065 211.329 81.043 209.536 81.2219 209.553C81.4008 209.571 82.1781 211.552 82.1179 212.191C82.0578 212.83 81.4996 213.297 80.8726 213.236C80.2443 213.174 79.7848 212.605 79.8463 211.967Z" fill="#CCDBFD"/>
    <path d="M82.9537 211.83C82.3954 211.531 81.1945 209.784 81.2775 209.622C81.3606 209.46 83.4561 209.475 84.0143 209.773C84.5725 210.072 84.7872 210.775 84.4938 211.342C84.2018 211.91 83.5119 212.129 82.9537 211.83Z" fill="#CCDBFD"/>
    <path d="M81.6486 209.562C81.6156 209.354 81.4238 209.211 81.2177 209.244C81.013 209.278 80.8727 209.473 80.9057 209.683C80.9386 209.892 81.1304 210.034 81.3365 210.001C81.5426 209.966 81.6815 209.771 81.6486 209.562Z" fill="#233862"/>
    <path d="M76.9664 217.734C77.5862 218.51 78.256 221.766 78.0385 221.947C77.8209 222.128 74.8265 220.796 74.2067 220.02C73.5869 219.243 73.7029 218.102 74.4643 217.471C75.2258 216.84 76.3452 216.957 76.9664 217.734Z" fill="#A8D29F"/>
    <path d="M79.4514 222.231C78.8072 222.55 77.3845 224.494 77.4732 224.682C77.5634 224.869 79.9437 224.924 80.5879 224.605C81.232 224.286 81.4996 223.495 81.1847 222.839C80.8713 222.183 80.0955 221.91 79.4514 222.231Z" fill="#A8D29F"/>
    <path d="M66.9556 230.179C66.9556 230.179 69.5993 226.622 73.3609 227.923C77.1211 229.225 82.1338 228.041 82.1209 229.824L66.9556 230.179Z" fill="#A8D29F"/>
    <path d="M272.032 120.22C272.032 120.22 271.478 117.689 270.243 116.826C269.006 115.963 267.137 116.304 265.391 115.325C263.645 114.344 262.587 113.744 262.698 114.607C262.81 115.469 264.731 117.622 266.044 118.19C267.356 118.759 268.839 119.024 269.261 119.917C269.683 120.811 269.736 121.63 269.736 121.63L272.032 120.22Z" fill="#FFB27D"/>
    <path d="M269.098 117.582C269.098 117.582 266.271 115.315 265.959 114.87C265.648 114.426 267.243 114.915 268.137 115.427C269.032 115.939 270.242 116.826 270.242 116.826L269.098 117.582Z" fill="#FFB27D"/>
    <path d="M294.273 122.38C293.723 122.502 280.898 131.934 279.347 130.148C278.901 129.635 272.245 119.502 272.245 119.502C272.245 119.502 269.38 120.2 268.836 122.581C268.836 122.581 272.819 137.328 278.11 139.393C281.634 140.769 295.351 134.298 295.351 134.298L294.273 122.38Z" fill="#ED7D2B"/>
    <path d="M325.288 220.06C325.288 220.06 327.418 222.039 327.003 223.445C326.588 224.851 324.665 225.789 324.405 227.508C324.144 229.226 323.106 230.163 322.17 230.163C321.236 230.163 317.712 230.163 317.712 230.163C317.712 230.163 317.023 228.954 318.685 228.59C320.347 228.225 320.974 226.205 320.871 224.331C320.766 222.456 321.027 219.956 321.027 219.956L324.559 219.123L325.288 220.06Z" fill="#305387"/>
    <path d="M299.157 225.178C299.157 225.178 299.539 229.683 298.604 230.15L286.637 230.126C286.637 230.126 286.637 228.719 288.559 228.407C290.481 228.095 293.858 226.949 294.429 224.397C295 221.845 299.157 225.178 299.157 225.178Z" fill="#305387"/>
    <path d="M289.053 161.555C289.053 161.555 289.684 169.45 290.425 178.94C291.433 191.832 292.645 207.668 292.766 210.667C292.973 215.876 293.805 224.209 293.805 224.209C293.805 224.209 295.779 226.188 299.728 225.354C299.728 225.354 303.248 213.459 304.252 200.874C304.268 200.667 304.284 200.46 304.3 200.251C305.234 187.44 306.689 160.461 306.689 160.461L289.053 161.555Z" fill="#AEC3FF"/>
    <path d="M289.053 161.555C289.053 161.555 289.684 169.45 290.425 178.94L304.252 200.874C304.268 200.667 304.284 200.46 304.3 200.251C305.234 187.44 306.689 160.461 306.689 160.461L289.053 161.555Z" fill="#91B0F2"/>
    <path d="M291.936 162.492C291.936 162.492 303.312 191.086 310.794 204.523C318.274 217.96 320.613 221.709 320.613 221.709C320.613 221.709 324.898 219.991 325.288 218.819C325.288 218.819 322.427 192.878 317.417 186.555C314.585 182.981 311.26 172.258 311.104 168.508C310.948 164.759 310.091 157.336 310.091 157.336L291.936 162.492Z" fill="#AEC3FF"/>
    <path d="M306.567 121.085C306.567 121.085 298.576 124.171 294.274 122.38C294.274 122.38 294.969 121.633 296.174 120.891C296.948 120.414 297.413 119.551 297.366 118.632C297.352 118.346 297.342 118.077 297.338 117.824C297.282 116.274 297.431 115.182 297.431 115.182L300.518 113.298L303.518 111.279C302.75 117.636 306.567 121.085 306.567 121.085Z" fill="#FFB27D"/>
    <path d="M311.311 160.408C311.339 160.886 310.344 161.458 309.905 161.675C306.647 163.226 303.601 164.327 300.126 164.753C296.026 165.282 291.14 164.461 289.469 164.537C289.299 164.54 289.142 164.479 289.003 164.359C288.88 164.279 288.679 159.232 288.612 152.884C288.606 152.629 288.599 152.37 288.612 152.115L288.61 152.029C288.586 149.547 288.61 146.945 288.666 144.343C288.704 142.315 288.768 140.313 288.865 138.439C288.984 136.091 289.157 133.943 289.395 132.184C289.504 131.381 289.627 130.662 289.763 130.04C290.384 127.293 291.563 125.21 292.89 123.591C293.564 122.772 294.366 122.071 295.248 121.495L296.208 120.869C297.753 121.138 299.055 120.964 300.658 120.121C302.41 119.203 304.301 118.216 304.613 118.451C306.975 120.121 308.637 123.966 309.59 128.906C310.118 131.653 310.427 134.727 310.505 137.955C310.506 138.069 310.51 138.184 310.512 138.297C310.536 139.338 310.536 140.403 310.513 141.46C310.51 141.655 310.503 141.85 310.498 142.044C310.407 144.561 310.425 146.95 310.499 149.137C310.51 149.459 310.522 149.778 310.535 150.092C310.674 153.38 310.933 156.15 311.119 158.101C311.212 159.094 311.281 159.861 311.311 160.408Z" fill="#F99746"/>
    <path d="M303.36 113.722C303.36 113.722 301.114 117.147 297.336 117.824C297.209 115.863 297.624 112.849 297.624 112.849L300.517 113.298L303.36 113.722Z" fill="#ED985F"/>
    <path d="M295.385 113.496C295.385 113.496 301.932 117.096 304.059 112.98C306.186 108.866 308.464 106.559 304.373 104.087C300.282 101.616 298.652 102.751 297.608 103.947C296.565 105.144 293.736 112.453 295.385 113.496Z" fill="#FFB27D"/>
    <path d="M309.49 105.306C309.579 105.255 309.743 105.246 310.072 105.342C310.072 105.342 309.869 105.087 309.527 104.956C309.614 104.474 309.652 103.58 308.944 103.109C308.944 103.109 309.284 103.481 309.172 103.988C308.594 102.735 306.905 101.377 301.441 99.931C294.24 98.0262 294.999 103.41 295.721 104.274C296.444 105.138 299.235 104.449 300.88 105.18C302.525 105.912 302.001 108.513 302.459 109.057C302.917 109.601 302.895 108.917 303.793 108.834C304.69 108.749 304.32 110.086 303.806 110.858C303.292 111.631 303.978 113.129 303.978 113.129C303.978 113.129 303.978 113.129 305.456 112.327C306.935 111.526 309.65 106.878 309.523 105.638C309.511 105.529 309.501 105.418 309.49 105.306Z" fill="#2C3A64"/>
    <path d="M317.53 159.758C317.473 159.892 315.556 162.672 315.834 164.933C316.014 166.391 319.252 170.142 319.127 168.128C318.858 163.759 319.749 164.234 320.355 160.844L317.53 159.758Z" fill="#FFB27D"/>
    <path d="M316.916 160.819C316.916 160.819 314.189 162.673 314.588 162.989C314.989 163.307 316.634 162.22 316.634 162.22L316.916 160.819Z" fill="#FFB27D"/>
    <path d="M310.499 142.044C310.409 144.561 310.426 146.95 310.5 149.137L310.499 149.143C306.092 145.45 302.382 134.304 302.297 134.094L310.506 137.955C310.508 138.069 310.512 138.184 310.513 138.297C310.538 139.338 310.538 140.403 310.515 141.46C310.512 141.655 310.505 141.85 310.499 142.044Z" fill="#ED7D2B"/>
    <path d="M299.31 124.62C299.85 120.455 304.616 118.448 306.246 120.082C306.307 120.142 316.428 130.404 319.837 140.265C322.239 147.212 320.815 160.949 320.815 160.949C320.815 160.949 317.799 161.386 316.716 160.021C316.716 160.021 315.147 148.795 313.502 145.721C312.393 143.647 298.178 131.838 298.811 128.061C298.979 127.063 299.15 125.856 299.31 124.62Z" fill="#F99746"/>
    <path d="M290.875 84.9098C283.117 76.393 274.921 88.441 274.921 88.441C274.921 88.441 264.759 78.0602 258.604 87.8406C252.45 97.6209 277.085 113.132 277.085 113.132C277.085 113.132 298.633 93.4266 290.875 84.9098Z" fill="#F78248"/>
    <path d="M288.663 88.6158C287.985 88.932 287.182 88.744 286.711 88.1553C286.206 87.5242 285.427 86.8247 284.398 86.7139C283.707 86.6396 283.206 86.0086 283.279 85.3047C283.352 84.6008 283.971 84.0907 284.663 84.165C286.891 84.4055 288.337 86.0057 289.079 87.1045C289.433 87.6292 289.233 88.352 288.663 88.6158Z" fill="#FFB699"/>
    <path d="M274.928 109.764C273.538 108.69 269.716 105.285 269.716 105.285C269.108 104.813 268.167 103.624 268.631 103.004C269.095 102.385 270.79 103.612 271.398 104.084C271.398 104.084 274.2 106.828 275.691 107.674C277.328 108.604 278.042 109.395 277.578 110.014C277.341 110.331 276.149 110.708 274.928 109.764Z" fill="#FFB699"/>
    <path d="M363.222 231H1.27754C1.02991 231 0.82666 230.794 0.82666 230.542V230.284C0.82666 230.032 1.02991 229.825 1.27754 229.825H363.223C363.471 229.825 363.673 230.032 363.673 230.284V230.542C363.673 230.793 363.469 231 363.222 231Z" fill="#233862"/>
</svg>
