<svg width="331" height="385" viewBox="0 0 331 385" fill="none" xmlns="http://www.w3.org/2000/svg">
<path opacity="0.2" d="M284.458 206.611L155.261 347.008C152.183 350.352 148.467 353.045 144.33 354.929L122.89 364.69C103.747 373.405 81.3632 362.824 75.9478 342.5L32.0205 177.639C29.1366 166.815 31.7686 155.266 39.0573 146.761L125.804 45.5345C136.606 32.9295 154.931 29.9677 169.154 38.528L272.349 100.638C281.683 106.256 287.759 116.006 288.692 126.859L293.315 180.678C294.131 190.182 290.917 199.592 284.458 206.611Z" fill="#139FAC"/>
<g clip-path="url(#clip0_1717_23320)">
<path opacity="0.3" d="M170.209 248.956C166.347 252.94 162.692 255.509 159.804 257.539C125.859 281.4 85.6947 274.445 77.1582 272.746C64.5528 270.238 40.1872 265.39 22.5714 245.094C-4.07983 214.388 0.0698593 166.012 20.7429 134.078C24.5246 128.237 44.4986 95.8169 85.0964 90.618C109.666 87.4717 138.306 93.8173 159.046 110.841C202.581 146.575 199.482 218.764 170.209 248.956Z" fill="url(#paint0_linear_1717_23320)"/>
<path d="M12.1905 88.328C11.8793 87.388 12.9985 86.6159 13.8065 87.2067C22.0154 93.2046 42.2087 111.655 41.9106 147.863C41.5371 193.29 52.9609 208.579 65.9767 217.232C65.9767 217.232 49.1463 214.355 36.9755 198.906C7.09228 160.975 17.717 105.04 12.1905 88.328Z" fill="url(#paint1_linear_1717_23320)"/>
<path d="M19.4591 101.694C20.9655 106.579 22.3732 111.49 23.5958 116.445C24.8445 121.393 25.9397 126.375 26.8744 131.383C27.7894 136.395 28.6083 141.423 29.2087 146.477C29.8317 151.529 30.2326 156.601 30.617 161.694C31.0303 166.783 31.4168 171.912 32.3407 177.018C33.2576 182.113 34.8106 187.184 37.2627 191.826C37.8754 192.983 38.5121 194.133 39.2111 195.236C39.8896 196.351 40.6195 197.437 41.3679 198.51C42.877 200.649 44.5334 202.694 46.3372 204.609C49.9551 208.43 54.1644 211.708 58.6924 214.375C59.1687 214.656 59.7876 214.505 60.074 214.038C60.3557 213.58 60.2118 212.987 59.7554 212.7L59.7519 212.698C58.6698 212.019 57.5966 211.328 56.5583 210.593C56.0333 210.234 55.5255 209.852 55.0108 209.48C54.5112 209.089 53.9951 208.718 53.5085 208.312C51.5334 206.724 49.6741 205.001 47.9539 203.152C44.4992 199.474 41.5879 195.272 39.2372 190.842C38.0872 188.613 37.1065 186.305 36.3108 183.931C35.5165 181.556 34.9079 179.117 34.4405 176.643C33.505 171.692 33.0794 166.619 32.6292 161.533C32.1721 156.447 31.6766 151.339 30.9679 146.259C30.6205 143.718 30.2264 141.184 29.7864 138.658C29.574 137.394 29.3362 136.134 29.1011 134.874C28.8537 133.616 28.5987 132.36 28.3342 131.105C27.2644 126.09 26.039 121.11 24.6553 116.174C23.247 111.245 21.7057 106.355 19.9745 101.53C19.9252 101.392 19.771 101.319 19.6298 101.368C19.4913 101.415 19.418 101.56 19.4591 101.694Z" fill="white"/>
<path d="M50.9468 247.552C50.6247 249.345 48.5379 250.233 46.9678 249.26C38.3025 243.89 15.2047 226.537 11.0235 192.103C7.49197 163.025 2.75701 147.586 0.111624 140.723C-0.447608 139.273 1.20884 137.965 2.53839 138.807C17.2093 148.097 62.6263 182.585 50.9468 247.552Z" fill="url(#paint2_linear_1717_23320)"/>
<path d="M48.4716 247.991C48.438 248.022 48.401 248.05 48.3612 248.076C48.0234 248.287 47.5745 248.189 47.36 247.857C47.1167 247.482 22.9203 209.84 16.1465 169.626C16.0814 169.239 16.3487 168.873 16.7441 168.809C17.1395 168.745 17.513 169.007 17.5781 169.394C24.3026 209.315 48.3427 246.721 48.5846 247.094C48.7731 247.386 48.7183 247.762 48.4716 247.991Z" fill="white"/>
<path d="M46.6123 90.7576C41.9273 91.1564 38.3355 95.001 38.3218 99.6077C38.2403 127.783 38.1059 224.966 39.9803 259.363C40.1791 263.007 43.2281 265.87 46.9529 265.91C65.3753 266.104 118.366 266.461 148.449 264.576C154.715 264.183 159.591 259.099 159.583 252.947C159.547 223.376 159.064 140.214 154.93 102.201C154.434 97.6464 150.697 94.0912 146.036 93.7354C125.944 92.2025 72.5891 88.5445 46.6123 90.7576Z" fill="url(#paint3_linear_1717_23320)"/>
<path d="M45.7164 106.992C45.3545 131.093 44.3245 211.268 46.1228 240.859C46.3852 245.185 49.8147 248.599 54.0493 248.744C71.4835 249.339 116.19 250.491 141.665 247.745C146.252 247.251 149.758 243.355 149.88 238.638C150.517 214.043 152.238 139.37 150.491 110.109C150.212 105.441 146.572 101.716 142.009 101.415C123.132 100.169 74.6587 97.2951 52.996 99.0623C48.9292 99.394 45.7794 102.819 45.7164 106.992Z" fill="url(#paint4_linear_1717_23320)"/>
<path d="M87.8395 94.9481C87.8546 95.6142 88.3967 96.152 89.0758 96.1722C92.4305 96.2722 101.881 96.5555 106.104 96.7046C106.937 96.7341 107.574 95.9875 107.398 95.1892C107.383 95.1643 107.275 94.1411 106.208 94.0679C103.351 93.8732 94.7312 93.3488 89.0347 93.6704C87.8655 93.7369 87.8018 95.0401 87.8395 94.9481Z" fill="#1F5AA9"/>
<path d="M74.1652 160.944C86.7935 160.944 97.0307 150.914 97.0307 138.542C97.0307 126.17 86.7935 116.141 74.1652 116.141C61.537 116.141 51.2998 126.17 51.2998 138.542C51.2998 150.914 61.537 160.944 74.1652 160.944Z" fill="white"/>
<path d="M74.2533 142.189C79.1818 142.189 83.177 138.275 83.177 133.446C83.177 128.618 79.1818 124.704 74.2533 124.704C69.3249 124.704 65.3296 128.618 65.3296 133.446C65.3296 138.275 69.3249 142.189 74.2533 142.189Z" fill="url(#paint5_linear_1717_23320)"/>
<path d="M60.6985 159.7H89.1295C90.8723 159.7 91.9168 157.493 90.9785 155.809C88.5634 151.476 83.5112 145.112 74.7608 145.399C66.3271 145.676 61.3283 151.425 58.8152 155.549C57.7481 157.299 58.8364 159.7 60.6985 159.7Z" fill="url(#paint6_linear_1717_23320)"/>
<path d="M108.75 237.72H80.3082C79.3789 237.72 78.6182 236.975 78.6182 236.064V228.139C78.6182 227.228 79.3789 226.483 80.3082 226.483H108.75C109.679 226.483 110.44 227.228 110.44 228.139V236.064C110.44 236.975 109.679 237.72 108.75 237.72Z" fill="url(#paint7_linear_1717_23320)"/>
<g opacity="0.8">
<g opacity="0.8">
<path opacity="0.8" d="M130.039 185.795H65.8763C65.3664 185.795 64.9497 185.386 64.9497 184.887V180.516C64.9497 180.017 65.3671 179.609 65.8763 179.609H130.039C130.548 179.609 130.965 180.018 130.965 180.516V184.887C130.965 185.386 130.548 185.795 130.039 185.795Z" fill="white"/>
<path opacity="0.8" d="M56.4811 186.433C58.5954 186.433 60.3093 184.754 60.3093 182.682C60.3093 180.611 58.5954 178.932 56.4811 178.932C54.3668 178.932 52.6528 180.611 52.6528 182.682C52.6528 184.754 54.3668 186.433 56.4811 186.433Z" fill="white"/>
</g>
<g opacity="0.8">
<path opacity="0.8" d="M130.039 197.403H65.8763C65.3664 197.403 64.9497 196.994 64.9497 196.495V192.124C64.9497 191.625 65.3671 191.217 65.8763 191.217H130.039C130.548 191.217 130.965 191.626 130.965 192.124V196.495C130.965 196.995 130.548 197.403 130.039 197.403Z" fill="white"/>
<path opacity="0.8" d="M60.2623 194.893C60.6011 192.848 59.1838 190.922 57.0968 190.59C55.0097 190.258 53.0433 191.647 52.7046 193.691C52.3659 195.736 53.7832 197.663 55.8702 197.994C57.9572 198.326 59.9236 196.938 60.2623 194.893Z" fill="white"/>
</g>
<g opacity="0.8">
<path opacity="0.8" d="M130.039 209.014H65.8763C65.3664 209.014 64.9497 208.605 64.9497 208.106V203.735C64.9497 203.236 65.3671 202.828 65.8763 202.828H130.039C130.548 202.828 130.965 203.236 130.965 203.735V208.106C130.965 208.606 130.548 209.014 130.039 209.014Z" fill="white"/>
<path opacity="0.8" d="M56.4811 209.652C58.5954 209.652 60.3093 207.973 60.3093 205.902C60.3093 203.83 58.5954 202.151 56.4811 202.151C54.3668 202.151 52.6528 203.83 52.6528 205.902C52.6528 207.973 54.3668 209.652 56.4811 209.652Z" fill="white"/>
</g>
<g opacity="0.8">
<path opacity="0.8" d="M130.039 220.623H65.8763C65.3664 220.623 64.9497 220.215 64.9497 219.716V215.345C64.9497 214.845 65.3671 214.437 65.8763 214.437H130.039C130.548 214.437 130.965 214.846 130.965 215.345V219.716C130.965 220.215 130.548 220.623 130.039 220.623Z" fill="white"/>
<path opacity="0.8" d="M56.4811 221.262C58.5954 221.262 60.3093 219.583 60.3093 217.512C60.3093 215.44 58.5954 213.761 56.4811 213.761C54.3668 213.761 52.6528 215.44 52.6528 217.512C52.6528 219.583 54.3668 221.262 56.4811 221.262Z" fill="white"/>
</g>
</g>
<path d="M103.952 173.704H53.6251C53.1728 173.704 52.8027 173.341 52.8027 172.898V168.323C52.8027 167.88 53.1728 167.517 53.6251 167.517H103.952C104.405 167.517 104.775 167.88 104.775 168.323V172.898C104.775 173.341 104.405 173.704 103.952 173.704Z" fill="white"/>
<path d="M162.059 111.325C161.924 109.279 160.662 107.465 158.771 106.586L134.27 95.1847C132.701 94.4549 130.88 94.4549 129.311 95.1847L104.81 106.586C102.919 107.466 101.657 109.279 101.521 111.325C99.2235 146.129 122.001 158.81 129.468 162.013C130.949 162.649 132.631 162.649 134.112 162.013C141.579 158.81 164.357 146.129 162.059 111.325Z" fill="url(#paint8_linear_1717_23320)"/>
<path d="M124.379 100.218C124.162 100.218 123.953 100.097 123.854 99.892C123.716 99.608 123.839 99.2683 124.129 99.1333L129.918 96.4395C130.209 96.3039 130.556 96.4254 130.693 96.7094C130.83 96.9935 130.707 97.3332 130.417 97.4682L124.628 100.162C124.547 100.2 124.463 100.218 124.379 100.218Z" fill="white"/>
<path d="M103.395 119.002C103.083 119.002 102.825 118.76 102.814 118.452C102.736 116.18 102.777 113.813 102.936 111.415C103.037 109.874 103.988 108.504 105.417 107.839L121.899 100.17C122.189 100.035 122.536 100.156 122.674 100.44C122.812 100.724 122.688 101.064 122.398 101.199L105.916 108.868C104.868 109.355 104.171 110.36 104.096 111.488C103.94 113.849 103.9 116.178 103.977 118.413C103.988 118.727 103.736 118.991 103.415 119.002C103.408 119.002 103.401 119.002 103.395 119.002Z" fill="white"/>
<path d="M156.134 112.684C156.108 112.165 155.792 111.701 155.313 111.478L132.408 100.821C132.017 100.639 131.563 100.639 131.172 100.821L108.267 111.478C107.788 111.701 107.473 112.165 107.446 112.684C106.768 125.666 109.829 136.499 116.55 144.895C121.673 151.296 127.667 154.726 131.179 156.326C131.567 156.503 132.011 156.503 132.399 156.326C135.911 154.726 141.905 151.295 147.028 144.895C153.751 136.499 156.811 125.666 156.134 112.684Z" fill="url(#paint9_linear_1717_23320)"/>
<path d="M117.245 126.914C119.138 125.765 121.627 126.365 122.759 128.245L128.083 137.087C128.617 137.972 129.952 137.884 130.358 136.937L142.336 109.029C142.934 107.636 145.039 108.052 145.053 109.562C145.132 118.011 143.24 134.117 129.797 147.88C129.797 147.88 122.136 145.168 115.7 132.163C114.77 130.285 115.434 128.014 117.245 126.914Z" fill="url(#paint10_linear_1717_23320)"/>
<path d="M166.065 266.487C166.065 266.487 166.504 268.92 166.719 271.329C166.803 272.27 166.062 273.087 165.099 273.126C161.826 273.26 154.824 273.519 152.311 273.409C151.934 273.393 151.687 273.014 151.827 272.67C151.944 272.382 152.17 272.148 152.458 272.019L164.024 266.811L166.065 266.487Z" fill="url(#paint11_linear_1717_23320)"/>
<path d="M166.424 265.058L166.072 267.968C166.072 267.968 164.046 268.892 162.663 267.852L163.501 264.609L166.424 265.058Z" fill="url(#paint12_linear_1717_23320)"/>
<path d="M166.16 210.351C166.312 211.111 166.977 248.272 162.922 264.924C162.856 265.196 162.997 265.476 163.261 265.582C163.882 265.831 165.101 266.191 166.563 266.239C167.015 266.254 167.421 265.966 167.548 265.54C168.707 261.677 174.261 242.318 174.985 223.825C175.795 203.161 174.985 223.121 174.985 223.121L174.51 210.348L166.16 210.351Z" fill="url(#paint13_linear_1717_23320)"/>
<path d="M179.369 267.756C179.369 267.756 180.068 268.984 180.744 272.248C180.866 272.837 180.445 273.401 179.834 273.461C178.753 273.565 177.089 273.698 175.756 273.69C175.142 273.685 174.663 273.161 174.737 272.564C174.884 271.372 175.344 269.418 176.765 267.894L179.369 267.756Z" fill="url(#paint14_linear_1717_23320)"/>
<path d="M179.983 264.014L179.159 268.414C179.159 268.414 178.345 269.008 176.734 268.578L177.128 263.843L179.983 264.014Z" fill="url(#paint15_linear_1717_23320)"/>
<path d="M182.207 211.491C185.524 231.097 181.488 259.95 180.127 265.597C180.044 265.943 179.759 266.207 179.402 266.266C178.794 266.364 177.794 266.445 176.808 266.164C176.468 266.067 176.23 265.767 176.216 265.421C176.034 260.855 176.362 232.828 173.273 221.751C173.116 221.189 172.766 220.7 172.282 220.363L166.285 216.186L165.825 209.434L182.207 211.491Z" fill="url(#paint16_linear_1717_23320)"/>
<path d="M161.078 174.341C171.015 174.18 181.98 176.897 181.98 176.897C184.942 193.831 182.498 213.362 182.498 213.362C174.805 215.339 166.126 212.154 166.126 212.154C164.848 205.076 158.882 185.157 158.882 185.157C154.026 184.567 150.027 183.194 146.733 181.38C149.245 178.526 150.43 174.896 150.944 172.75C154.457 173.819 158.013 174.391 161.078 174.341Z" fill="url(#paint17_linear_1717_23320)"/>
<path d="M131.724 160.001C132.7 158.846 133.936 159.392 133.936 159.392C135.398 165.444 143.066 170.351 150.944 172.749C150.429 174.895 149.245 178.526 146.732 181.379C133.659 174.178 131.724 160.001 131.724 160.001Z" fill="url(#paint18_linear_1717_23320)"/>
<path d="M131.961 160.294C131.859 160.612 133.042 161.097 133.738 159.795C133.763 159.172 134.149 156.5 133.769 155.992C131.743 153.287 127.816 149.895 127.816 149.895C127.152 150.537 127.699 151.167 127.699 151.167L129.604 153.111C129.206 153.817 128.719 154.413 128.492 155.266C128.319 155.912 128.425 156.603 128.758 157.191C129.092 157.781 129.549 158.549 129.98 159.149C130.797 160.285 131.961 160.294 131.961 160.294Z" fill="url(#paint19_linear_1717_23320)"/>
<path d="M130.438 154.374L132.174 155.816L132.718 157.251L131.17 158.934C131.17 158.934 130.65 156.085 130.263 155.469C129.877 154.852 130.078 154.553 130.438 154.374Z" fill="url(#paint20_linear_1717_23320)"/>
<path d="M178.168 186.325L181.98 176.898C181.98 176.898 191.262 183.077 192.788 190.911C191.034 191.037 187.843 191.484 184.719 193.03C184.033 189.33 178.168 186.325 178.168 186.325Z" fill="url(#paint21_linear_1717_23320)"/>
<path d="M170.057 195.196C170.057 195.196 180.478 200.966 183.994 196.039C184.724 195.016 184.899 193.999 184.719 193.03C187.843 191.484 191.035 191.037 192.788 190.911C193.249 193.272 193.006 195.784 191.589 198.323C185.429 209.362 168.678 197.713 168.678 197.713L170.057 195.196Z" fill="url(#paint22_linear_1717_23320)"/>
<path d="M171.309 202.495L165.621 183.035C165.557 182.814 165.364 182.653 165.131 182.626C164.101 182.509 161.115 182.178 157.667 181.892C153.514 181.548 148.692 181.269 145.81 181.506C145.4 181.54 145.152 181.965 145.335 182.326C146.973 185.574 153.714 198.787 157.09 203.115C157.202 203.259 157.375 203.342 157.559 203.341L170.755 203.22C171.14 203.218 171.414 202.856 171.309 202.495Z" fill="url(#paint23_linear_1717_23320)"/>
<path d="M157.077 180.205L152.954 179.532C152.735 179.496 152.554 179.702 152.624 179.908L153.033 181.12C153.068 181.226 153.162 181.302 153.275 181.317L157.243 181.836C157.448 181.863 157.618 181.68 157.57 181.483L157.317 180.425C157.29 180.311 157.195 180.225 157.077 180.205Z" fill="url(#paint24_linear_1717_23320)"/>
<path d="M160.165 183.625L159.825 181.892C159.79 181.718 159.644 181.586 159.464 181.569L151.135 180.741C150.855 180.713 150.63 180.964 150.696 181.233L151.226 183.393C151.268 183.566 151.422 183.69 151.603 183.7L159.742 184.101C160.008 184.114 160.215 183.88 160.165 183.625Z" fill="url(#paint25_linear_1717_23320)"/>
<path d="M169.935 197.794C169.935 197.794 170.727 194.602 170.408 193.47C170.089 192.337 169.469 190.881 167.405 191.205C165.341 191.528 162.906 192.38 162.906 192.38C162.906 192.38 163.029 193.856 164.598 193.38L163.625 194.117C163.625 194.117 163.764 195.298 165.089 194.667L164.184 195.645C164.184 195.645 164.753 196.615 165.728 195.993C166.703 195.37 167.17 198.178 169.935 197.794Z" fill="url(#paint26_linear_1717_23320)"/>
<path d="M171.144 166.437L174.306 175.396C174.358 175.544 174.296 175.709 174.156 175.785C173.294 176.251 170.188 177.601 166.446 175.276C166.057 175.034 165.791 174.639 165.732 174.191L164.708 166.437H171.144Z" fill="url(#paint27_linear_1717_23320)"/>
<path d="M164.263 158.141C164.263 158.141 160.791 164.544 161.236 167.13C161.681 169.717 165.984 169.531 169.742 167.43L172.367 160.516L164.263 158.141Z" fill="url(#paint28_linear_1717_23320)"/>
<path d="M169.576 164.035C169.423 163.969 169.367 163.786 169.458 163.649C169.736 163.233 170.258 162.383 170.425 161.64C170.425 161.64 171.049 161.248 168.836 160.729C166.623 160.21 163.323 159.405 162.63 157.559C161.953 155.76 163.73 151.236 166.565 154.841C166.672 154.978 166.884 154.981 166.992 154.843C167.456 154.25 168.678 153.021 170.375 153.766C171.962 154.464 172.141 155.603 172.119 156.178C172.113 156.347 172.267 156.478 172.436 156.447C173.239 156.297 175.164 156.168 176.064 158.104C176.804 159.698 176.323 160.601 175.885 161.042C175.743 161.185 175.805 161.421 176 161.479C176.527 161.638 177.208 162.075 177.14 163.286C177.046 164.96 175.136 164.812 174.592 164.736C174.503 164.723 174.413 164.754 174.353 164.819C173.887 165.324 171.786 167.471 169.512 167.729C169.315 167.752 169.162 167.562 169.227 167.378L170.211 164.575C170.257 164.445 170.193 164.302 170.065 164.247L169.576 164.035Z" fill="url(#paint29_linear_1717_23320)"/>
<path d="M169.181 164.434C169.181 164.434 171.653 162.772 171.833 164.171C172.014 165.57 169.608 166.198 168.415 165.676L169.181 164.434Z" fill="url(#paint30_linear_1717_23320)"/>
</g>
<defs>
<linearGradient id="paint0_linear_1717_23320" x1="216.474" y1="329.65" x2="52.468" y2="121.747" gradientUnits="userSpaceOnUse">
<stop stop-color="#B37CFF"/>
<stop offset="1" stop-color="#F895E7"/>
</linearGradient>
<linearGradient id="paint1_linear_1717_23320" x1="-3.15482" y1="140.147" x2="81.2992" y2="164.852" gradientUnits="userSpaceOnUse">
<stop stop-color="#A737D5"/>
<stop offset="1" stop-color="#EF497A"/>
</linearGradient>
<linearGradient id="paint2_linear_1717_23320" x1="20.134" y1="246.857" x2="30.65" y2="141.427" gradientUnits="userSpaceOnUse">
<stop stop-color="#CE1567"/>
<stop offset="1" stop-color="#7A1DBC"/>
</linearGradient>
<linearGradient id="paint3_linear_1717_23320" x1="37.8889" y1="179.015" x2="158.695" y2="176.314" gradientUnits="userSpaceOnUse">
<stop stop-color="#2B3582"/>
<stop offset="1" stop-color="#150E42"/>
</linearGradient>
<linearGradient id="paint4_linear_1717_23320" x1="51.6655" y1="111.829" x2="300.531" y2="465.021" gradientUnits="userSpaceOnUse">
<stop stop-color="#FDF53F"/>
<stop offset="1" stop-color="#D93C65"/>
</linearGradient>
<linearGradient id="paint5_linear_1717_23320" x1="54.3847" y1="200.708" x2="99.6175" y2="41.1722" gradientUnits="userSpaceOnUse">
<stop stop-color="#FDF53F"/>
<stop offset="1" stop-color="#D93C65"/>
</linearGradient>
<linearGradient id="paint6_linear_1717_23320" x1="61.3967" y1="202.696" x2="106.63" y2="43.1595" gradientUnits="userSpaceOnUse">
<stop stop-color="#FDF53F"/>
<stop offset="1" stop-color="#D93C65"/>
</linearGradient>
<linearGradient id="paint7_linear_1717_23320" x1="112.28" y1="160.195" x2="86.614" y2="268.513" gradientUnits="userSpaceOnUse">
<stop stop-color="#FDF53F"/>
<stop offset="1" stop-color="#D93C65"/>
</linearGradient>
<linearGradient id="paint8_linear_1717_23320" x1="218.243" y1="30.0485" x2="106.37" y2="156.067" gradientUnits="userSpaceOnUse">
<stop stop-color="#53D8FF"/>
<stop offset="1" stop-color="#3840F7"/>
</linearGradient>
<linearGradient id="paint9_linear_1717_23320" x1="157.921" y1="90.2559" x2="46.3667" y2="235.422" gradientUnits="userSpaceOnUse">
<stop stop-color="#53D8FF"/>
<stop offset="1" stop-color="#3840F7"/>
</linearGradient>
<linearGradient id="paint10_linear_1717_23320" x1="88.0875" y1="167.326" x2="163.343" y2="101.028" gradientUnits="userSpaceOnUse">
<stop stop-color="#A737D5"/>
<stop offset="1" stop-color="#EF497A"/>
</linearGradient>
<linearGradient id="paint11_linear_1717_23320" x1="152.677" y1="263.125" x2="194.092" y2="309.105" gradientUnits="userSpaceOnUse">
<stop stop-color="#CB236D"/>
<stop offset="1" stop-color="#4C246D"/>
</linearGradient>
<linearGradient id="paint12_linear_1717_23320" x1="166.424" y1="266.477" x2="162.662" y2="266.477" gradientUnits="userSpaceOnUse">
<stop stop-color="#F9B776"/>
<stop offset="1" stop-color="#F47960"/>
</linearGradient>
<linearGradient id="paint13_linear_1717_23320" x1="175.345" y1="238.294" x2="162.906" y2="238.294" gradientUnits="userSpaceOnUse">
<stop stop-color="#2B3582"/>
<stop offset="1" stop-color="#150E42"/>
</linearGradient>
<linearGradient id="paint14_linear_1717_23320" x1="162.178" y1="254.567" x2="203.593" y2="300.547" gradientUnits="userSpaceOnUse">
<stop stop-color="#CB236D"/>
<stop offset="1" stop-color="#4C246D"/>
</linearGradient>
<linearGradient id="paint15_linear_1717_23320" x1="179.983" y1="266.288" x2="176.734" y2="266.288" gradientUnits="userSpaceOnUse">
<stop stop-color="#F9B776"/>
<stop offset="1" stop-color="#F47960"/>
</linearGradient>
<linearGradient id="paint16_linear_1717_23320" x1="183.484" y1="237.896" x2="165.824" y2="237.896" gradientUnits="userSpaceOnUse">
<stop stop-color="#2B3582"/>
<stop offset="1" stop-color="#150E42"/>
</linearGradient>
<linearGradient id="paint17_linear_1717_23320" x1="171.463" y1="179.326" x2="151.945" y2="232.91" gradientUnits="userSpaceOnUse">
<stop stop-color="#CE1567"/>
<stop offset="1" stop-color="#7A1DBC"/>
</linearGradient>
<linearGradient id="paint18_linear_1717_23320" x1="150.944" y1="170.321" x2="131.724" y2="170.321" gradientUnits="userSpaceOnUse">
<stop stop-color="#F9B776"/>
<stop offset="1" stop-color="#F47960"/>
</linearGradient>
<linearGradient id="paint19_linear_1717_23320" x1="136.006" y1="167.165" x2="148.465" y2="196.101" gradientUnits="userSpaceOnUse">
<stop stop-color="#F9B776"/>
<stop offset="1" stop-color="#F47960"/>
</linearGradient>
<linearGradient id="paint20_linear_1717_23320" x1="131.816" y1="157.591" x2="126.589" y2="149.387" gradientUnits="userSpaceOnUse">
<stop stop-color="#F9B776"/>
<stop offset="1" stop-color="#F47960"/>
</linearGradient>
<linearGradient id="paint21_linear_1717_23320" x1="186.874" y1="184.939" x2="167.356" y2="238.523" gradientUnits="userSpaceOnUse">
<stop stop-color="#CE1567"/>
<stop offset="1" stop-color="#7A1DBC"/>
</linearGradient>
<linearGradient id="paint22_linear_1717_23320" x1="193" y1="196.993" x2="168.678" y2="196.993" gradientUnits="userSpaceOnUse">
<stop stop-color="#F9B776"/>
<stop offset="1" stop-color="#F47960"/>
</linearGradient>
<linearGradient id="paint23_linear_1717_23320" x1="161.319" y1="180.051" x2="148.454" y2="234.766" gradientUnits="userSpaceOnUse">
<stop stop-color="#9CFFFB"/>
<stop offset="1" stop-color="#9BFFFA"/>
</linearGradient>
<linearGradient id="paint24_linear_1717_23320" x1="152.946" y1="171.445" x2="155.685" y2="183.724" gradientUnits="userSpaceOnUse">
<stop stop-color="#53D8FF"/>
<stop offset="1" stop-color="#3840F7"/>
</linearGradient>
<linearGradient id="paint25_linear_1717_23320" x1="154.436" y1="176.585" x2="155.745" y2="184.602" gradientUnits="userSpaceOnUse">
<stop stop-color="#53D8FF"/>
<stop offset="1" stop-color="#3840F7"/>
</linearGradient>
<linearGradient id="paint26_linear_1717_23320" x1="170.484" y1="194.494" x2="162.906" y2="194.494" gradientUnits="userSpaceOnUse">
<stop stop-color="#F9B776"/>
<stop offset="1" stop-color="#F47960"/>
</linearGradient>
<linearGradient id="paint27_linear_1717_23320" x1="174.324" y1="171.518" x2="164.708" y2="171.518" gradientUnits="userSpaceOnUse">
<stop stop-color="#F9B776"/>
<stop offset="1" stop-color="#F47960"/>
</linearGradient>
<linearGradient id="paint28_linear_1717_23320" x1="162.42" y1="165.524" x2="172.875" y2="159.015" gradientUnits="userSpaceOnUse">
<stop stop-color="#F9B776"/>
<stop offset="1" stop-color="#F47960"/>
</linearGradient>
<linearGradient id="paint29_linear_1717_23320" x1="178.59" y1="152.546" x2="165.147" y2="163.384" gradientUnits="userSpaceOnUse">
<stop stop-color="#2B3582"/>
<stop offset="1" stop-color="#150E42"/>
</linearGradient>
<linearGradient id="paint30_linear_1717_23320" x1="165.197" y1="167.881" x2="174.603" y2="162.025" gradientUnits="userSpaceOnUse">
<stop stop-color="#F9B776"/>
<stop offset="1" stop-color="#F47960"/>
</linearGradient>
<clipPath id="clip0_1717_23320">
<rect width="193" height="188" fill="white" transform="translate(0 87)"/>
</clipPath>
</defs>
</svg>
