<svg width="447" height="447" viewBox="0 0 447 447" fill="none" xmlns="http://www.w3.org/2000/svg">
<path opacity="0.2" d="M57.3556 227.777L48.1922 291.152C45.9004 307.002 53.2834 322.691 66.9571 331.029L175.761 397.369C192.706 407.7 214.665 404.045 227.349 388.781L314.438 283.98C321.826 275.089 325.006 263.436 323.16 252.025L295.921 83.712C290.864 52.4622 253.231 39.1918 229.691 60.3572L70.2 203.756C63.2401 210.014 58.6949 218.514 57.3556 227.777Z" fill="#F2994A"/>
<g clip-path="url(#clip0_1717_23313)">
<g opacity="0.3">
<path opacity="0.3" d="M201.348 161.205C200.934 161.079 200.484 161.285 200.313 161.693C199.938 162.585 199.597 163.506 199.298 164.431C199.153 164.881 199.4 165.364 199.85 165.51C199.855 165.511 199.861 165.512 199.866 165.515C200.311 165.649 200.783 165.403 200.927 164.958C201.211 164.079 201.535 163.204 201.891 162.357C202.074 161.921 201.869 161.419 201.433 161.236C201.405 161.223 201.376 161.213 201.348 161.205ZM199.245 168.362C199.213 168.352 199.18 168.344 199.146 168.339C198.681 168.256 198.237 168.566 198.154 169.032C197.985 169.989 197.854 170.962 197.767 171.925C197.724 172.396 198.069 172.811 198.541 172.855C199.012 172.898 199.428 172.551 199.47 172.08C199.553 171.165 199.678 170.241 199.839 169.331C199.916 168.899 199.654 168.485 199.245 168.362ZM198.769 175.804C198.678 175.777 198.58 175.764 198.48 175.769C198.008 175.792 197.644 176.193 197.667 176.666C197.714 177.634 197.804 178.612 197.934 179.573C197.998 180.042 198.429 180.37 198.897 180.307C199.365 180.244 199.694 179.812 199.63 179.344C199.507 178.431 199.421 177.502 199.376 176.582C199.359 176.211 199.106 175.906 198.769 175.804ZM199.969 183.168C199.819 183.122 199.653 183.118 199.49 183.164C199.035 183.292 198.77 183.765 198.898 184.22C199.161 185.154 199.467 186.087 199.808 186.995C199.975 187.437 200.468 187.661 200.911 187.496C201.353 187.329 201.576 186.835 201.41 186.393C201.086 185.531 200.795 184.644 200.546 183.756C200.464 183.464 200.24 183.25 199.969 183.168ZM202.779 190.08C202.568 190.016 202.333 190.033 202.123 190.147C201.708 190.373 201.554 190.893 201.78 191.308C202.242 192.158 202.747 193.001 203.281 193.812C203.542 194.207 204.072 194.316 204.467 194.056C204.861 193.796 204.97 193.265 204.71 192.869C204.202 192.099 203.723 191.298 203.283 190.49C203.172 190.284 202.988 190.142 202.779 190.08ZM207.047 196.196C206.774 196.113 206.465 196.169 206.234 196.372C205.879 196.684 205.845 197.225 206.157 197.58C206.796 198.308 207.475 199.018 208.174 199.689C208.516 200.016 209.057 200.005 209.384 199.663C209.711 199.322 209.7 198.78 209.359 198.453C208.695 197.815 208.049 197.141 207.442 196.449C207.333 196.325 207.196 196.24 207.047 196.196ZM236.478 207.221C236.364 207.187 236.242 207.176 236.117 207.193C235.206 207.315 234.277 207.399 233.356 207.442C232.884 207.465 232.519 207.865 232.542 208.337C232.563 208.81 232.965 209.175 233.437 209.152C234.406 209.107 235.385 209.019 236.345 208.89C236.813 208.827 237.142 208.396 237.079 207.927C237.034 207.584 236.789 207.315 236.478 207.221ZM212.561 201.21C212.221 201.108 211.839 201.225 211.62 201.529C211.343 201.913 211.43 202.448 211.812 202.724C212.598 203.292 213.418 203.832 214.249 204.33C214.655 204.57 215.18 204.441 215.423 204.035C215.666 203.629 215.533 203.104 215.128 202.86C214.339 202.388 213.561 201.874 212.814 201.336C212.735 201.279 212.649 201.237 212.561 201.21ZM229.024 207.372C228.97 207.356 228.914 207.344 228.855 207.338C227.939 207.253 227.014 207.127 226.107 206.965C225.642 206.881 225.196 207.191 225.114 207.656C225.03 208.121 225.339 208.569 225.805 208.65C226.759 208.821 227.732 208.954 228.696 209.043C229.167 209.087 229.584 208.741 229.627 208.27C229.667 207.858 229.406 207.487 229.024 207.372ZM219.055 204.867C218.641 204.742 218.191 204.947 218.02 205.353C217.836 205.789 218.04 206.291 218.475 206.476C219.367 206.853 220.287 207.196 221.209 207.496C221.215 207.498 221.221 207.5 221.226 207.502C221.671 207.636 222.143 207.391 222.287 206.947C222.433 206.497 222.188 206.014 221.738 205.868C220.862 205.583 219.988 205.257 219.141 204.899C219.113 204.887 219.084 204.876 219.055 204.867Z" fill="#7D97F4"/>
<path opacity="0.3" d="M242.337 205.887C242.176 205.838 241.999 205.836 241.827 205.893C241.407 206.03 240.978 206.16 240.55 206.28C240.095 206.408 239.829 206.88 239.957 207.335C240.085 207.791 240.557 208.057 241.012 207.928C241.462 207.801 241.913 207.665 242.355 207.522C242.804 207.375 243.05 206.892 242.904 206.443C242.814 206.165 242.596 205.966 242.337 205.887Z" fill="#7D97F4"/>
</g>
<g opacity="0.3">
<path opacity="0.3" d="M262.03 188.761C261.634 188.641 261.2 188.823 261.013 189.206C260.821 189.603 260.616 190.003 260.406 190.394C260.182 190.811 260.338 191.33 260.754 191.554C261.172 191.779 261.689 191.622 261.913 191.206C262.134 190.794 262.349 190.373 262.552 189.955C262.758 189.53 262.581 189.017 262.156 188.811C262.115 188.79 262.073 188.774 262.03 188.761Z" fill="#7D97F4"/>
<path opacity="0.3" d="M241.731 142.246C241.354 142.132 240.974 142.024 240.59 141.922C240.133 141.801 239.664 142.073 239.543 142.53C239.422 142.988 239.696 143.459 240.15 143.578C241.035 143.814 241.91 144.084 242.757 144.386C243.203 144.545 243.691 144.313 243.85 143.867C244.009 143.422 243.777 142.932 243.331 142.773C242.808 142.586 242.268 142.409 241.731 142.246ZM236.154 141.063C236.108 141.049 236.06 141.039 236.012 141.033C235.064 140.915 234.101 140.835 233.15 140.798C232.677 140.779 232.279 141.147 232.26 141.619C232.241 142.091 232.609 142.491 233.081 142.508C233.985 142.545 234.9 142.62 235.8 142.732C236.269 142.791 236.697 142.458 236.755 141.989C236.807 141.568 236.546 141.181 236.154 141.063ZM247.459 144.577C247.072 144.46 246.645 144.631 246.453 145.002C246.235 145.421 246.398 145.938 246.818 146.157C247.62 146.574 248.415 147.032 249.181 147.517C249.581 147.769 250.109 147.65 250.362 147.25C250.615 146.851 250.496 146.321 250.096 146.069C249.289 145.558 248.452 145.076 247.607 144.637C247.559 144.612 247.509 144.592 247.459 144.577ZM228.817 140.962C228.713 140.931 228.601 140.919 228.486 140.93C227.537 141.023 226.58 141.158 225.642 141.33C225.177 141.416 224.87 141.862 224.956 142.327C225.042 142.792 225.487 143.1 225.952 143.014C226.842 142.85 227.751 142.722 228.653 142.634C229.123 142.588 229.467 142.17 229.421 141.698C229.387 141.343 229.139 141.059 228.817 140.962ZM253.55 148.661C253.233 148.565 252.875 148.659 252.648 148.929C252.343 149.29 252.389 149.83 252.75 150.135C253.44 150.719 254.115 151.34 254.757 151.982C255.091 152.316 255.633 152.316 255.967 151.982C256.301 151.647 256.301 151.105 255.967 150.771C255.292 150.095 254.581 149.441 253.854 148.827C253.762 148.749 253.658 148.694 253.55 148.661ZM258.597 153.984C258.344 153.908 258.059 153.949 257.832 154.121C257.456 154.407 257.382 154.944 257.668 155.321C258.216 156.044 258.74 156.798 259.225 157.562C259.478 157.962 260.007 158.08 260.407 157.826C260.805 157.572 260.924 157.043 260.67 156.644C260.16 155.839 259.609 155.045 259.032 154.285C258.918 154.137 258.764 154.035 258.597 153.984ZM262.365 160.282C262.173 160.224 261.959 160.232 261.762 160.323C261.332 160.52 261.143 161.029 261.34 161.458C261.718 162.283 262.065 163.133 262.373 163.986C262.533 164.431 263.023 164.661 263.468 164.5C263.913 164.34 264.143 163.85 263.983 163.404C263.66 162.508 263.294 161.613 262.897 160.744C262.79 160.512 262.592 160.35 262.365 160.282ZM264.671 167.252C264.537 167.212 264.393 167.203 264.247 167.234C263.785 167.332 263.49 167.787 263.588 168.25C263.776 169.138 263.928 170.043 264.041 170.942C264.1 171.41 264.529 171.743 264.996 171.685C265.466 171.626 265.798 171.197 265.739 170.728C265.621 169.782 265.46 168.829 265.262 167.894C265.194 167.577 264.96 167.339 264.671 167.252ZM265.392 174.56C265.317 174.538 265.237 174.525 265.155 174.524C264.683 174.517 264.294 174.896 264.288 175.369C264.276 176.274 264.226 177.19 264.138 178.093C264.092 178.564 264.437 178.982 264.906 179.028C265.377 179.074 265.796 178.73 265.842 178.259C265.935 177.309 265.988 176.344 266 175.391C266.005 175.001 265.748 174.668 265.392 174.56ZM264.492 181.844C264.475 181.839 264.457 181.835 264.441 181.83C263.981 181.721 263.519 182.006 263.411 182.466C263.258 183.116 263.082 183.769 262.889 184.406C262.82 184.637 262.748 184.867 262.673 185.095C262.526 185.545 262.772 186.028 263.221 186.175C263.673 186.332 264.154 186.076 264.3 185.626C264.379 185.386 264.454 185.145 264.528 184.902C264.731 184.231 264.915 183.545 265.076 182.861C265.18 182.418 264.921 181.974 264.492 181.844Z" fill="#7D97F4"/>
<path opacity="0.3" d="M221.618 142.487C221.455 142.438 221.276 142.436 221.103 142.494C220.663 142.639 220.218 142.797 219.78 142.962C219.337 143.129 219.114 143.623 219.28 144.065C219.448 144.508 219.94 144.731 220.383 144.565C220.799 144.408 221.222 144.258 221.639 144.12C222.087 143.971 222.331 143.487 222.183 143.038C222.092 142.764 221.876 142.566 221.618 142.487Z" fill="#7D97F4"/>
</g>
<path d="M219.853 152.33C219.994 152.235 220.18 152.24 220.317 152.342L224.205 155.274C226.33 154.466 228.6 153.992 230.938 153.903L233.374 149.689C233.46 149.541 233.629 149.464 233.797 149.496L239.528 150.614C239.696 150.647 239.824 150.782 239.848 150.951L240.525 155.772C242.659 156.732 244.585 158.024 246.252 159.571L250.955 158.314C251.12 158.269 251.294 158.335 251.389 158.477L254.652 163.322C254.748 163.464 254.743 163.65 254.64 163.786L251.71 167.677C252.518 169.804 252.991 172.074 253.079 174.414L257.291 176.852C257.438 176.938 257.516 177.107 257.483 177.275L256.367 183.01C256.334 183.178 256.199 183.306 256.029 183.33L251.212 184.008C250.253 186.143 248.962 188.07 247.416 189.738L248.672 194.444C248.715 194.609 248.651 194.784 248.509 194.879L243.667 198.144C243.525 198.24 243.339 198.235 243.203 198.132L239.315 195.201C237.189 196.008 234.92 196.482 232.582 196.571L230.146 200.785C230.06 200.933 229.891 201.011 229.723 200.978L223.991 199.86C223.824 199.828 223.696 199.692 223.672 199.523L222.995 194.702C220.861 193.743 218.935 192.451 217.268 190.903L212.565 192.161C212.4 192.205 212.226 192.14 212.13 191.998L208.867 187.152C208.771 187.011 208.776 186.825 208.879 186.688L211.809 182.797C211.001 180.671 210.528 178.4 210.44 176.06L206.228 173.622C206.081 173.537 206.003 173.367 206.036 173.199L207.152 167.464C207.185 167.296 207.32 167.168 207.49 167.144L212.307 166.466C213.266 164.331 214.557 162.404 216.103 160.736L214.848 156.03C214.804 155.865 214.869 155.69 215.011 155.594L219.853 152.33Z" fill="#91B3FA"/>
<path d="M233.453 169.614C230.714 168.786 227.702 170.072 226.448 172.738C225.071 175.669 226.333 179.174 229.261 180.553C230.68 181.221 232.273 181.296 233.748 180.764C235.223 180.232 236.403 179.157 237.071 177.738C238.448 174.807 237.186 171.301 234.258 169.923C233.994 169.799 233.725 169.696 233.453 169.614ZM230.468 179.552C230.256 179.488 230.049 179.409 229.844 179.313C227.599 178.257 226.631 175.568 227.688 173.321C228.744 171.075 231.43 170.105 233.676 171.163C235.921 172.22 236.889 174.908 235.832 177.155C235.321 178.244 234.416 179.067 233.285 179.475C232.366 179.806 231.386 179.83 230.468 179.552Z" fill="#BDD0FB"/>
<path d="M236.019 161.528C235.549 161.386 235.069 161.266 234.58 161.171C234.426 161.141 234.272 161.114 234.117 161.088C233.353 160.965 232.582 160.902 231.813 160.901C231.803 160.901 231.792 160.901 231.782 160.901C231.752 160.901 231.722 160.901 231.692 160.902C231.634 160.902 231.577 160.904 231.519 160.904C231.367 160.907 231.24 161.009 231.198 161.147C231.187 161.181 231.182 161.217 231.183 161.253C231.187 161.442 231.344 161.592 231.532 161.588C232.505 161.569 233.486 161.655 234.448 161.842C239.23 162.774 242.951 166.096 244.616 170.326C245.542 172.679 245.831 175.314 245.313 177.975C245.222 178.442 245.109 178.901 244.973 179.35C244.061 182.371 242.153 184.965 239.503 186.753C236.458 188.806 232.795 189.55 229.192 188.847C221.748 187.395 216.877 180.159 218.326 172.714C218.415 172.255 218.527 171.802 218.662 171.357C219.244 169.43 220.241 167.652 221.588 166.153C221.623 166.115 221.647 166.07 221.661 166.023C221.698 165.9 221.664 165.76 221.562 165.669C221.421 165.543 221.205 165.553 221.079 165.694C219.665 167.268 218.618 169.135 218.007 171.158C217.866 171.625 217.748 172.101 217.654 172.582C216.132 180.399 221.251 187.997 229.06 189.518C232.844 190.256 236.689 189.475 239.885 187.319C242.668 185.442 244.67 182.72 245.629 179.547C245.771 179.076 245.89 178.595 245.985 178.105C246.722 174.318 245.942 170.471 243.787 167.272C241.913 164.49 239.19 162.486 236.019 161.528Z" fill="#BDD0FB"/>
<g opacity="0.3">
<path opacity="0.3" d="M179.912 131.151C179.693 131.085 179.448 131.167 179.317 131.368C179.071 131.744 178.834 132.132 178.611 132.523C178.467 132.777 178.555 133.099 178.808 133.244C179.062 133.39 179.384 133.301 179.529 133.047C179.741 132.675 179.968 132.305 180.202 131.946C180.362 131.702 180.293 131.374 180.049 131.214C180.006 131.186 179.959 131.165 179.912 131.151Z" fill="#7D97F4"/>
<path opacity="0.3" d="M178.01 134.747C177.753 134.669 177.475 134.797 177.37 135.05C177.073 135.763 176.808 136.501 176.585 137.241C176.538 137.396 176.493 137.553 176.448 137.711C176.37 137.993 176.552 138.278 176.815 138.363C177.097 138.442 177.388 138.278 177.466 137.996C177.509 137.846 177.551 137.695 177.597 137.547C177.809 136.842 178.062 136.139 178.345 135.458C178.458 135.188 178.33 134.878 178.061 134.766C178.044 134.759 178.027 134.752 178.01 134.747ZM176.534 140.036C176.51 140.029 176.486 140.023 176.46 140.02C176.172 139.976 175.902 140.175 175.858 140.464C175.718 141.39 175.633 142.334 175.607 143.268C175.599 143.561 175.831 143.803 176.121 143.811C176.413 143.819 176.656 143.59 176.664 143.297C176.688 142.407 176.768 141.507 176.903 140.622C176.943 140.358 176.782 140.111 176.534 140.036ZM176.385 145.526C176.321 145.506 176.252 145.499 176.181 145.505C175.89 145.534 175.678 145.793 175.707 146.083C175.797 147.015 175.947 147.951 176.153 148.865C176.217 149.151 176.499 149.329 176.785 149.265C177.07 149.201 177.248 148.918 177.185 148.633C176.988 147.762 176.845 146.869 176.759 145.981C176.737 145.761 176.584 145.586 176.385 145.526ZM177.589 150.884C177.485 150.852 177.369 150.853 177.259 150.893C176.984 150.992 176.841 151.295 176.94 151.57C177.256 152.453 177.631 153.322 178.052 154.157C178.184 154.417 178.503 154.521 178.762 154.39C179.023 154.258 179.127 153.94 178.995 153.679C178.593 152.884 178.236 152.054 177.934 151.212C177.876 151.048 177.744 150.932 177.589 150.884ZM180.064 155.786C179.918 155.742 179.753 155.762 179.616 155.853C179.375 156.016 179.31 156.344 179.472 156.587C179.993 157.364 180.567 158.117 181.178 158.824C181.369 159.046 181.703 159.07 181.923 158.879C182.144 158.687 182.168 158.353 181.978 158.133C181.395 157.458 180.847 156.74 180.35 155.998C180.279 155.892 180.177 155.82 180.064 155.786ZM183.653 159.938C183.463 159.88 183.249 159.933 183.107 160.09C182.912 160.307 182.928 160.641 183.145 160.837C183.839 161.464 184.579 162.054 185.344 162.59C185.585 162.757 185.913 162.699 186.08 162.459C186.247 162.22 186.189 161.89 185.95 161.723C185.221 161.212 184.515 160.65 183.853 160.051C183.794 159.998 183.725 159.96 183.653 159.938ZM188.145 163.085C187.908 163.013 187.646 163.117 187.526 163.344C187.389 163.602 187.488 163.922 187.746 164.058C188.57 164.495 189.433 164.885 190.309 165.219C190.585 165.318 190.888 165.185 190.991 164.912C191.095 164.639 190.958 164.334 190.685 164.23C189.848 163.912 189.025 163.54 188.24 163.124C188.209 163.107 188.178 163.094 188.145 163.085ZM195.982 165.523C195.953 165.515 195.922 165.508 195.89 165.504C195.125 165.414 194.351 165.28 193.59 165.106C193.475 165.081 193.362 165.054 193.25 165.026C192.966 164.956 192.68 165.129 192.61 165.414C192.54 165.698 192.713 165.993 192.997 166.054C193.117 166.083 193.237 166.112 193.358 166.139C194.153 166.321 194.964 166.461 195.767 166.556C196.057 166.59 196.32 166.383 196.354 166.093C196.384 165.833 196.223 165.596 195.982 165.523Z" fill="#7D97F4"/>
</g>
<g opacity="0.3">
<path opacity="0.3" d="M205.331 122.09C205.055 122.006 204.762 122.16 204.674 122.437C204.586 122.715 204.74 123.013 205.018 123.101C205.856 123.366 206.685 123.684 207.482 124.047C207.748 124.165 208.061 124.052 208.183 123.785C208.304 123.519 208.186 123.206 207.921 123.085C207.086 122.704 206.217 122.37 205.338 122.092C205.336 122.091 205.333 122.091 205.331 122.09ZM202.709 121.43C202.69 121.425 202.672 121.42 202.653 121.417C201.749 121.246 200.825 121.129 199.907 121.068C199.615 121.049 199.364 121.269 199.344 121.561C199.325 121.852 199.547 122.104 199.836 122.124C200.712 122.182 201.593 122.294 202.456 122.457C202.743 122.512 203.02 122.323 203.073 122.035C203.125 121.766 202.964 121.508 202.709 121.43ZM210.242 124.329C210.017 124.262 209.768 124.35 209.639 124.559C209.486 124.808 209.564 125.133 209.813 125.286C210.562 125.747 211.29 126.256 211.976 126.802C212.205 126.983 212.537 126.946 212.718 126.717C212.9 126.489 212.862 126.156 212.633 125.974C211.915 125.402 211.152 124.868 210.366 124.385C210.326 124.361 210.285 124.342 210.242 124.329ZM197.32 121.076C197.263 121.059 197.201 121.051 197.138 121.055C196.219 121.106 195.293 121.216 194.388 121.38C194.101 121.431 193.909 121.707 193.961 121.994C194.013 122.28 194.288 122.472 194.575 122.42C195.438 122.264 196.32 122.16 197.197 122.11C197.489 122.094 197.712 121.844 197.695 121.553C197.682 121.325 197.527 121.139 197.32 121.076ZM214.466 127.691C214.286 127.637 214.084 127.68 213.942 127.82C213.733 128.025 213.731 128.36 213.936 128.568C214.551 129.193 215.135 129.863 215.67 130.559C215.848 130.791 216.181 130.834 216.412 130.655C216.643 130.477 216.686 130.144 216.507 129.913C215.946 129.184 215.334 128.482 214.689 127.826C214.625 127.76 214.548 127.715 214.466 127.691ZM217.761 131.967C217.624 131.926 217.471 131.94 217.338 132.019C217.087 132.168 217.004 132.493 217.153 132.744C217.602 133.501 218.009 134.291 218.362 135.093C218.48 135.361 218.793 135.481 219.059 135.363C219.327 135.246 219.447 134.934 219.33 134.666C218.959 133.825 218.533 132.997 218.062 132.204C217.992 132.086 217.883 132.004 217.761 131.967ZM219.937 136.911C219.84 136.882 219.735 136.88 219.631 136.912C219.351 136.996 219.194 137.292 219.278 137.572C219.533 138.414 219.739 139.278 219.888 140.142C219.938 140.429 220.212 140.622 220.499 140.572C220.787 140.522 220.98 140.249 220.93 139.961C220.772 139.056 220.557 138.148 220.289 137.265C220.237 137.089 220.101 136.961 219.937 136.911Z" fill="#7D97F4"/>
<path opacity="0.3" d="M191.983 122.043C191.885 122.013 191.778 122.011 191.673 122.044C191.241 122.179 190.811 122.326 190.395 122.483C190.122 122.587 189.984 122.892 190.087 123.165C190.191 123.438 190.495 123.576 190.769 123.474C191.165 123.324 191.576 123.183 191.988 123.054C192.267 122.968 192.422 122.671 192.335 122.392C192.281 122.218 192.145 122.091 191.983 122.043Z" fill="#7D97F4"/>
</g>
<path d="M190.429 128.711C190.524 128.647 190.649 128.65 190.74 128.719L193.341 130.68C194.763 130.14 196.282 129.822 197.846 129.763L199.476 126.944C199.534 126.845 199.647 126.793 199.759 126.815L203.594 127.563C203.706 127.584 203.791 127.675 203.807 127.788L204.261 131.014C205.689 131.657 206.977 132.521 208.093 133.556L211.24 132.715C211.35 132.686 211.467 132.729 211.531 132.824L213.715 136.066C213.779 136.16 213.775 136.285 213.707 136.377L211.746 138.981C212.286 140.404 212.604 141.923 212.662 143.489L215.48 145.119C215.579 145.177 215.631 145.29 215.609 145.402L214.862 149.24C214.84 149.352 214.749 149.438 214.637 149.453L211.413 149.907C210.771 151.336 209.906 152.625 208.873 153.741L209.713 156.891C209.742 157.001 209.699 157.118 209.604 157.182L206.364 159.366C206.269 159.43 206.144 159.427 206.053 159.358L203.451 157.397C202.029 157.937 200.511 158.255 198.946 158.314L197.316 161.133C197.259 161.232 197.145 161.284 197.033 161.262L193.198 160.514C193.086 160.493 193.001 160.402 192.985 160.289L192.531 157.063C191.104 156.421 189.815 155.556 188.699 154.521L185.552 155.362C185.442 155.392 185.325 155.348 185.261 155.253L183.078 152.011C183.014 151.917 183.017 151.792 183.086 151.7L185.046 149.096C184.506 147.674 184.188 146.154 184.13 144.589L181.312 142.958C181.213 142.9 181.161 142.787 181.183 142.675L181.93 138.837C181.952 138.725 182.043 138.64 182.155 138.624L185.379 138.17C186.021 136.741 186.885 135.452 187.92 134.335L187.079 131.186C187.049 131.076 187.093 130.959 187.188 130.895L190.429 128.711Z" fill="#91B3FA"/>
<path d="M199.544 140.206C198.729 139.96 197.858 139.981 197.041 140.276C196.036 140.638 195.233 141.37 194.779 142.337C193.841 144.333 194.699 146.72 196.695 147.66C198.694 148.596 201.076 147.738 202.015 145.742C202.47 144.775 202.521 143.689 202.159 142.684C201.797 141.678 201.065 140.874 200.099 140.419C199.917 140.334 199.733 140.263 199.544 140.206ZM197.548 146.857C197.412 146.816 197.277 146.765 197.145 146.702C195.678 146.011 195.045 144.255 195.736 142.786C196.07 142.075 196.661 141.536 197.4 141.27C198.14 141.004 198.938 141.042 199.649 141.376C200.36 141.71 200.898 142.302 201.164 143.041C201.43 143.782 201.393 144.58 201.058 145.292C200.43 146.627 198.92 147.272 197.548 146.857Z" fill="#BDD0FB"/>
<path d="M201.324 134.576C201.003 134.479 200.676 134.398 200.341 134.332C199.675 134.202 198.996 134.141 198.32 134.148C198.289 134.149 198.259 134.149 198.229 134.149C197.994 134.154 197.798 134.311 197.734 134.524C197.718 134.576 197.71 134.632 197.711 134.689C197.717 134.981 197.959 135.212 198.25 135.206C198.881 135.194 199.516 135.249 200.138 135.371C200.172 135.377 200.206 135.385 200.24 135.391C201.709 135.692 203.047 136.348 204.164 137.289C204.77 137.801 205.311 138.397 205.772 139.068C205.776 139.073 205.779 139.079 205.783 139.084C205.795 139.101 205.805 139.117 205.817 139.134C207.145 141.107 207.627 143.479 207.172 145.814C207.113 146.116 207.04 146.413 206.952 146.704C206.361 148.66 205.127 150.339 203.41 151.497C201.439 152.826 199.068 153.307 196.735 152.853C194.403 152.397 192.384 151.061 191.055 149.089C189.727 147.116 189.245 144.743 189.7 142.409C189.758 142.111 189.831 141.818 189.918 141.531C190.295 140.283 190.94 139.131 191.812 138.161C191.866 138.102 191.903 138.033 191.924 137.961C191.982 137.771 191.93 137.556 191.772 137.415C191.555 137.22 191.221 137.236 191.025 137.455C190.05 138.54 189.327 139.828 188.905 141.224C188.808 141.546 188.727 141.874 188.662 142.206C188.153 144.818 188.692 147.472 190.178 149.68C191.665 151.886 193.919 153.383 196.531 153.891C199.142 154.4 201.794 153.861 203.999 152.373C205.919 151.079 207.301 149.2 207.961 147.012C208.059 146.687 208.142 146.355 208.208 146.017C209.194 140.96 206.151 136.035 201.324 134.576Z" fill="#BDD0FB"/>
<path d="M82.4596 415.567C98.0466 398.471 136.415 361.246 178.559 345.793C182.066 344.508 184.919 341.883 186.534 338.514L192.838 325.363C192.838 325.363 223.568 318.157 242.502 337.995C242.502 337.995 241.348 356.865 217.568 363.764C195.369 370.204 129.589 396.35 90.7901 425.648C89.9 426.32 88.6655 426.352 87.7849 425.668C84.7005 423.274 82.7677 420.285 81.9459 418.179C81.5964 417.288 81.8137 416.276 82.4596 415.567Z" fill="url(#paint0_linear_1717_23313)"/>
<path d="M245.843 337.744C245.843 337.744 239.573 340.489 228.826 335.518C218.079 330.547 188.857 330.052 188.857 330.052C188.857 330.052 198.324 294.598 177.286 269.232C177.286 269.232 160.342 300.968 148.435 305.705L143.101 305.95V283.309C143.101 283.309 147.624 255.36 176.234 234.488L185.142 226.454C185.142 226.454 216.466 220.134 237.768 257.525C259.07 294.916 245.843 337.744 245.843 337.744Z" fill="url(#paint1_linear_1717_23313)"/>
<path d="M141.3 239.98C141.002 238.409 140.889 234.734 144.678 230.254C149.746 224.261 156.248 227.317 156.248 227.317C162.009 230.545 164.443 241.086 164.443 241.086L158.352 237.833C157.429 240.515 148.434 243.406 148.434 243.406L148.384 243.388C148.296 249.218 148.437 266.223 152.57 278.05C154.189 282.684 157.482 291.292 146.61 306.045L140.62 305.8C140.62 305.799 127.197 282.999 141.3 239.98Z" fill="url(#paint2_linear_1717_23313)"/>
<path d="M171.75 205.417L188.43 228.986C189.514 230.518 189.367 232.596 188.084 233.966C185.837 236.367 182.047 239.749 177.961 240.521C176.693 240.761 175.402 240.228 174.697 239.146L165.826 225.52C165.826 225.52 164.128 204.114 171.75 205.417Z" fill="url(#paint3_linear_1717_23313)"/>
<path d="M160.673 190.098C160.395 190.469 151.371 219.749 151.371 219.749L168.188 224.55L180.862 198.069C180.861 198.069 165.327 183.892 160.673 190.098Z" fill="url(#paint4_linear_1717_23313)"/>
<path d="M174.187 202.417L168.834 216.287C168.717 216.59 168.557 216.869 168.356 217.123C167.457 218.251 164.844 220.909 161.951 218.064C159.758 215.909 157.692 213.928 155.723 212.938C153.989 212.066 151.887 213.017 151.334 214.879C150.505 217.671 149.199 222.464 148.518 227.032C148.272 228.683 149.353 230.243 150.985 230.585C154.408 231.302 160.383 232.347 165.616 232.225C166.777 232.198 167.818 231.514 168.333 230.472C170.27 226.554 175.135 216.829 176.965 214.238C178.648 211.856 182.448 211.87 184.386 212.053C185.285 212.138 186.173 211.837 186.832 211.217C188.376 209.766 190.446 206.84 187.499 203.206C186.473 201.943 186.559 200.145 187.688 198.972C189.319 197.278 190.67 194.572 188.094 191.174C185.364 187.573 181.673 187.768 179.186 188.483C177.974 188.831 176.735 188.3 175.939 187.32C175.707 187.035 175.377 186.817 174.912 186.742C173.392 186.497 172.223 185.326 172.18 183.787C172.116 181.511 171.134 178.865 167.381 177.575C160.047 175.055 155.224 182.075 154.611 187.4C153.999 192.726 162.105 195.006 166.918 194.786C170.253 194.633 172.712 197.694 173.908 199.588C174.443 200.435 174.548 201.481 174.187 202.417Z" fill="url(#paint5_linear_1717_23313)"/>
<path d="M174.881 219.483C174.881 219.483 176.345 210.249 180.212 209.908C184.079 209.566 187.737 212.844 183.755 217.935C178.801 224.267 174.881 219.483 174.881 219.483Z" fill="url(#paint6_linear_1717_23313)"/>
<path d="M216.731 229.877C216.731 229.877 250.355 251.336 257.716 276.25C265.077 301.163 248.603 306.065 232.917 308.272L231.736 289.248C231.736 289.248 242.725 289.248 235.715 278.849C228.706 268.451 209.868 261.518 209.868 261.518C209.868 261.518 162.141 216.457 216.731 229.877Z" fill="url(#paint7_linear_1717_23313)"/>
<path d="M231.736 289.681C231.929 289.681 236.47 289.648 238.001 286.766C239.046 284.8 238.398 282.054 236.074 278.607C229.066 268.211 210.792 261.396 210.018 261.111C209.793 261.029 209.544 261.144 209.462 261.369C209.38 261.593 209.495 261.842 209.718 261.925C209.906 261.994 228.505 268.93 235.356 279.092C237.485 282.252 238.119 284.696 237.238 286.358C235.952 288.781 231.778 288.815 231.736 288.815C231.497 288.816 231.303 289.009 231.303 289.249C231.304 289.488 231.497 289.681 231.736 289.681Z" fill="url(#paint8_linear_1717_23313)"/>
<path d="M232.917 308.272C232.917 308.272 237.829 300.147 231.36 290.441L187.936 297.635C187.936 297.635 167.15 294.116 166.156 294.188C165.162 294.259 151.597 302.62 151.597 302.62C151.597 302.62 152.052 303.589 155.28 303.411C158.509 303.232 156.389 303.801 156.389 303.801L156.506 305.433C156.506 305.433 158.754 305.948 160.556 304.029C162.359 302.111 167.37 301.181 167.37 301.181C167.37 301.181 178.02 309.056 188.482 305.246L232.917 308.272Z" fill="url(#paint9_linear_1717_23313)"/>
<path d="M169.736 445.342C170.076 445.342 170.421 445.272 170.754 445.126C172.063 444.549 172.667 442.994 172.104 441.653L118.013 312.767C117.45 311.426 115.935 310.807 114.625 311.383C113.317 311.961 112.712 313.515 113.275 314.856L167.366 443.743C167.785 444.743 168.737 445.342 169.736 445.342Z" fill="url(#paint10_linear_1717_23313)"/>
<path d="M108.801 445.341C109.801 445.341 110.752 444.742 111.171 443.742L165.262 314.856C165.825 313.514 165.221 311.96 163.912 311.382C162.604 310.805 161.087 311.425 160.524 312.766L106.433 441.652C105.87 442.993 106.474 444.548 107.783 445.125C108.115 445.271 108.461 445.341 108.801 445.341Z" fill="url(#paint11_linear_1717_23313)"/>
<path d="M68.7896 308.918C68.7111 308.119 68.8179 307.293 69.0817 306.664C69.3447 306.037 69.7371 305.673 70.1505 305.673H210.31C210.854 305.673 211.361 306.219 211.654 307.12C211.947 308.022 211.987 309.155 211.759 310.127L210.24 316.593C209.892 318.073 209.139 319.021 208.31 319.021H71.114C70.3423 319.021 69.6797 317.945 69.5329 316.455L68.7896 308.918Z" fill="url(#paint12_linear_1717_23313)"/>
<path d="M129.414 153.243C147.763 162.009 159.818 180.252 145.57 179.4C118.819 177.801 136.874 192.71 122.805 192.271C108.736 191.833 86.9594 188.83 72.71 174.055C58.4607 159.28 72.3119 155.749 78.0869 156.32C97.102 158.204 71.9377 125.786 129.414 153.243Z" fill="#BDD0FB"/>
<path d="M135.63 199.532C135.592 201.611 134.063 205.023 130.63 204.96C127.197 204.897 123.159 201.381 123.198 199.302C123.236 197.222 126.05 195.589 129.483 195.652C132.917 195.715 135.668 197.452 135.63 199.532Z" fill="#BDD0FB"/>
<path d="M140.785 207.911C140.766 208.918 139.881 209.718 138.808 209.698C137.735 209.679 135.613 208.609 135.632 207.602C135.65 206.595 136.981 205.588 138.054 205.608C139.126 205.628 140.803 206.904 140.785 207.911Z" fill="#BDD0FB"/>
<path d="M101.178 169.759C101.207 169.41 101.563 169.108 102.165 168.866C101.51 168.504 101.147 168.117 101.178 167.737C101.271 166.586 104.91 165.942 109.307 166.297C113.703 166.652 117.192 167.872 117.1 169.021C117.072 169.37 116.716 169.672 116.113 169.914C116.769 170.276 117.131 170.663 117.1 171.043C117.072 171.392 116.716 171.694 116.113 171.936C116.769 172.298 117.131 172.685 117.1 173.065C117.072 173.414 116.716 173.716 116.113 173.958C116.769 174.32 117.131 174.707 117.1 175.087C117.059 175.596 116.323 176.006 115.136 176.274C115.151 176.65 115.143 177.062 115.106 177.516C114.934 179.635 112.552 181.297 109.402 181.297C106.251 181.297 103.524 179.031 103.494 176.906C103.487 176.384 103.508 175.926 103.556 175.518C102.048 175.015 101.13 174.399 101.178 173.803C101.207 173.454 101.563 173.152 102.165 172.91C101.51 172.548 101.147 172.161 101.178 171.781C101.207 171.432 101.563 171.13 102.165 170.888C101.51 170.526 101.148 170.138 101.178 169.759Z" fill="url(#paint13_linear_1717_23313)"/>
<path d="M111.341 176.731C112.647 176.731 113.842 176.635 114.829 176.445C114.886 176.435 114.924 176.379 114.913 176.322C114.902 176.264 114.847 176.227 114.789 176.238C113.244 176.534 111.182 176.6 108.98 176.422C107.179 176.276 105.494 175.985 104.107 175.58C104.051 175.564 103.993 175.596 103.977 175.652C103.961 175.708 103.993 175.767 104.049 175.783C105.448 176.192 107.147 176.485 108.963 176.632C109.781 176.698 110.58 176.731 111.341 176.731Z" fill="url(#paint14_linear_1717_23313)"/>
<path d="M111.32 174.707C113.016 174.707 114.533 174.547 115.602 174.242C115.657 174.226 115.69 174.168 115.674 174.112C115.658 174.056 115.6 174.023 115.543 174.039C114.02 174.473 111.566 174.607 108.979 174.399C106.421 174.192 104.035 173.673 102.597 173.009C102.544 172.985 102.481 173.008 102.457 173.061C102.432 173.114 102.455 173.177 102.508 173.201C103.968 173.875 106.38 174.401 108.962 174.61C109.768 174.675 110.562 174.707 111.32 174.707Z" fill="url(#paint15_linear_1717_23313)"/>
<path d="M111.341 172.687C113.173 172.687 114.776 172.499 115.855 172.143C115.91 172.124 115.941 172.065 115.922 172.01C115.904 171.954 115.845 171.924 115.79 171.942C114.288 172.437 111.742 172.6 108.981 172.377C106.422 172.171 104.037 171.652 102.598 170.988C102.545 170.964 102.483 170.987 102.458 171.04C102.433 171.093 102.456 171.155 102.509 171.18C103.969 171.853 106.381 172.38 108.963 172.588C109.781 172.655 110.581 172.687 111.341 172.687Z" fill="url(#paint16_linear_1717_23313)"/>
<path d="M111.327 170.664C112.78 170.664 114.101 170.546 115.129 170.318C115.186 170.305 115.222 170.249 115.209 170.192C115.196 170.135 115.14 170.099 115.083 170.112C113.538 170.455 111.313 170.545 108.98 170.356C106.445 170.152 104.071 169.638 102.63 168.981C102.577 168.957 102.514 168.981 102.49 169.034C102.466 169.087 102.49 169.149 102.543 169.173C104.005 169.839 106.405 170.36 108.963 170.566C109.771 170.632 110.567 170.664 111.327 170.664Z" fill="url(#paint17_linear_1717_23313)"/>
<path d="M120.051 159.553C120.585 157.66 121.492 155.891 122.713 154.35C125.33 151.049 129.601 144.336 130.126 135.174C130.89 121.848 119.079 115.175 108.3 116.081C97.5219 116.987 86.8866 125.018 88.0506 137.416C88.767 145.044 93.0344 150.831 96.2111 154.154C98.2281 156.264 99.6675 158.849 100.446 161.663C101.4 165.108 103.669 169.401 109.062 169.663C116.041 170 118.94 163.491 120.051 159.553Z" fill="url(#paint18_linear_1717_23313)"/>
<path d="M107.28 167.004L103.509 142.459C103.431 141.952 103.182 141.611 102.952 141.698C102.722 141.786 102.599 142.267 102.677 142.775C102.679 142.788 102.682 142.805 102.684 142.818L106.98 167.135C107.012 167.318 107.105 167.433 107.187 167.393C107.267 167.353 107.307 167.181 107.28 167.004Z" fill="url(#paint19_linear_1717_23313)"/>
<path d="M111.195 167.199L114.966 142.654C115.044 142.147 115.293 141.806 115.523 141.893C115.754 141.981 115.877 142.462 115.798 142.969C115.796 142.982 115.793 142.999 115.791 143.012L111.495 167.329C111.463 167.512 111.37 167.627 111.288 167.588C111.208 167.548 111.168 167.376 111.195 167.199Z" fill="url(#paint20_linear_1717_23313)"/>
<path opacity="0.79" d="M103.536 140.351C103.632 140.197 103.854 140.14 104.031 140.223L106.131 141.204L106.86 139.126C106.898 139.018 106.988 138.922 107.115 138.869C107.356 138.769 107.645 138.859 107.76 139.068L107.764 139.074L109.491 142.226L111.094 137.74L111.096 137.733C111.136 137.623 111.219 137.525 111.339 137.46C111.608 137.313 111.963 137.383 112.132 137.616L114.546 140.942C114.644 141.078 114.611 141.261 114.461 141.361C114.301 141.469 114.072 141.444 113.948 141.305L111.822 138.932L109.908 143.199L109.906 143.202C109.876 143.27 109.818 143.33 109.738 143.367C109.558 143.451 109.334 143.393 109.237 143.238L107.39 140.272L106.695 141.772L106.689 141.785C106.684 141.796 106.678 141.806 106.671 141.817C106.576 141.971 106.355 142.029 106.177 141.946L103.684 140.78C103.507 140.698 103.44 140.505 103.536 140.351Z" fill="white"/>
<path opacity="0.79" d="M96.1297 150.878C96.206 150.878 96.2823 150.855 96.3484 150.805C96.5119 150.684 96.5453 150.454 96.4247 150.29C95.7802 149.421 95.1895 148.523 94.6685 147.621C94.5675 147.445 94.3422 147.384 94.1664 147.486C93.9905 147.588 93.9302 147.812 94.032 147.988C94.5668 148.915 95.1735 149.837 95.8347 150.729C95.9067 150.827 96.0178 150.878 96.1297 150.878Z" fill="white"/>
<path opacity="0.79" d="M93.0273 145.551C93.076 145.551 93.1262 145.54 93.1734 145.52C93.3594 145.439 93.4451 145.223 93.3638 145.037C89.3653 135.822 92.8159 128.054 92.8515 127.976C92.9358 127.792 92.8544 127.574 92.6699 127.489C92.4853 127.405 92.2673 127.486 92.183 127.67C92.146 127.75 88.5551 135.803 92.6895 145.33C92.7505 145.468 92.8857 145.551 93.0273 145.551Z" fill="white"/>
<path d="M95.805 235.503C98.7818 228.404 109.565 206.882 128.641 213.529C128.921 213.627 128.889 214.035 128.596 214.09C124.39 214.87 108.805 218.809 96.3056 235.784C96.1014 236.061 95.672 235.819 95.805 235.503Z" fill="#91B3FA"/>
<path d="M95.9678 235.947C100.256 231.902 113.025 216.254 129.984 223.405C130.17 223.484 130.132 223.76 129.931 223.781C125.74 224.225 104.932 226.862 96.0492 236.29C95.8137 236.54 95.7186 236.182 95.9678 235.947Z" fill="#91B3FA"/>
<path d="M96.371 234.17C96.7787 228.82 99.1677 208.618 112.169 204.451C112.265 204.421 112.345 204.529 112.288 204.61C110.721 206.821 99.3232 223.156 96.5738 234.203C96.5433 234.326 96.3609 234.297 96.371 234.17Z" fill="#91B3FA"/>
<path d="M95.077 240.302C94.963 240.364 94.8511 240.216 94.9433 240.124C97.2401 237.835 106.75 229.421 118.823 233.564C132.5 238.257 108.551 232.986 95.077 240.302Z" fill="#91B3FA"/>
<path d="M95.3921 236.109C95.4198 236.509 95.9879 236.557 96.0773 236.166C97.5196 229.82 100.576 212.321 91.6799 207.87C81.1501 202.601 93.9622 215.359 95.3921 236.109Z" fill="#91B3FA"/>
<path d="M96.007 236.065C94.5124 232.168 88.7512 220.069 76.7609 226.607C76.5589 226.717 76.6243 227.025 76.8546 227.039C79.5524 227.209 88.5216 228.373 95.6212 236.296C95.7905 236.486 96.0978 236.304 96.007 236.065Z" fill="#91B3FA"/>
<path d="M95.6831 237.043C95.1316 234.636 92.2637 229.811 77.6685 234.231C77.5813 234.257 77.6038 234.388 77.6946 234.379C80.5625 234.081 90.2532 233.422 95.0037 237.457C95.3089 237.718 95.7725 237.433 95.6831 237.043Z" fill="#91B3FA"/>
<path d="M91.4824 302.905L91.4773 302.412V301.882L91.4853 300.822L91.4991 298.701L91.5609 294.458C91.5987 291.63 91.6546 288.802 91.7142 285.975C91.8428 280.322 92.0048 274.671 92.2628 269.025C92.5156 263.38 92.8644 257.74 93.4072 252.122C93.6854 249.314 94.0212 246.512 94.4731 243.731C94.917 240.95 95.4889 238.182 96.4175 235.525L96.1654 235.422C95.6124 236.733 95.1285 238.078 94.7637 239.453L94.4789 240.482C94.3895 240.826 94.3125 241.173 94.229 241.519L93.9819 242.557L93.7632 243.601C93.1994 246.387 92.7634 249.195 92.4219 252.013C92.0717 254.83 91.8123 257.655 91.5812 260.482C91.3654 263.309 91.2034 266.14 91.0624 268.97C90.9396 271.802 90.8481 274.634 90.782 277.467C90.7376 280.3 90.694 283.133 90.7093 285.966C90.7122 288.799 90.7551 291.631 90.8263 294.463L90.9767 298.709L91.0697 300.832L91.1329 301.894L91.1685 302.426C91.1838 302.604 91.1881 302.769 91.223 302.992L91.4824 302.905Z" fill="#91B3FA"/>
<path d="M86.548 252.888C84.5543 248.132 77.3304 233.715 64.5517 238.168C64.3635 238.233 64.3853 238.507 64.5815 238.544C67.3992 239.067 77.8397 241.705 86.2131 253.077C86.3497 253.263 86.6374 253.101 86.548 252.888Z" fill="#91B3FA"/>
<path d="M86.4391 253.186C83.5662 250.476 75.0126 239.993 63.6523 244.784C63.5273 244.837 63.5527 245.022 63.6871 245.036C66.4947 245.332 80.4338 247.099 86.3839 253.415C86.5423 253.583 86.6063 253.343 86.4391 253.186Z" fill="#91B3FA"/>
<path d="M86.1697 251.996C85.8965 248.412 84.2965 234.879 75.5861 232.087C75.5228 232.067 75.4684 232.14 75.5069 232.193C76.5561 233.675 84.1919 244.617 86.0338 252.017C86.0542 252.1 86.1755 252.081 86.1697 251.996Z" fill="#91B3FA"/>
<path d="M87.0367 256.103C87.113 256.145 87.1878 256.046 87.1261 255.984C85.5871 254.45 79.217 248.814 71.1293 251.59C61.9668 254.734 78.0102 251.203 87.0367 256.103Z" fill="#91B3FA"/>
<path d="M86.8249 253.295C86.8068 253.564 86.426 253.595 86.3664 253.333C85.4001 249.082 83.3525 237.359 89.3121 234.378C96.3659 230.848 87.7826 239.394 86.8249 253.295Z" fill="#91B3FA"/>
<path d="M86.4131 253.266C87.4144 250.655 91.2741 242.55 99.3059 246.929C99.4411 247.003 99.3975 247.209 99.2434 247.219C97.4364 247.333 91.4281 248.114 86.6718 253.42C86.5584 253.547 86.3521 253.425 86.4131 253.266Z" fill="#91B3FA"/>
<path d="M86.6304 253.921C86.9995 252.309 88.9214 249.076 98.6985 252.037C98.7574 252.054 98.7414 252.143 98.6811 252.136C96.7599 251.937 90.2678 251.495 87.086 254.199C86.8811 254.372 86.5701 254.182 86.6304 253.921Z" fill="#91B3FA"/>
<path d="M88.5136 302.99C88.542 302.812 88.5434 302.692 88.5551 302.557L88.5805 302.159L88.6255 301.365C88.6553 300.836 88.6742 300.307 88.6946 299.777L88.7999 296.602C88.8697 294.484 88.8748 292.366 88.8886 290.248C88.8929 288.13 88.8966 286.01 88.8559 283.892C88.8115 281.773 88.7607 279.654 88.6691 277.536C88.5747 275.418 88.4621 273.3 88.3131 271.184C88.1503 269.069 87.9622 266.954 87.7006 264.846L87.4971 263.265L87.2566 261.689C87.0866 260.639 86.9079 259.59 86.6797 258.55C86.5758 258.028 86.4581 257.509 86.3259 256.992C86.2597 256.734 86.1994 256.475 86.129 256.218L85.9066 255.449C85.6189 254.423 85.2512 253.415 84.8189 252.44L84.5668 252.543C84.8879 253.544 85.1786 254.551 85.39 255.582L85.5535 256.353C85.6044 256.61 85.6458 256.871 85.6915 257.129L85.8325 257.905L85.9553 258.685C86.0367 259.204 86.1181 259.724 86.1827 260.246C86.251 260.768 86.3331 261.287 86.3884 261.812C86.5141 262.858 86.6245 263.906 86.7342 264.954C87.1375 269.152 87.4303 273.364 87.6381 277.584C87.8437 281.804 87.984 286.029 88.0929 290.256C88.1489 292.37 88.1642 294.484 88.2092 296.599L88.2477 299.772L88.2572 301.357L88.2608 302.15L88.2564 302.905L88.5136 302.99Z" fill="#91B3FA"/>
<path d="M100.728 261.684C103.276 257.523 111.993 245.099 121.938 251.387C122.085 251.479 122.016 251.734 121.845 251.737C119.377 251.769 110.104 252.555 100.976 261.917C100.828 262.07 100.615 261.87 100.728 261.684Z" fill="#91B3FA"/>
<path d="M100.766 261.983C103.68 259.896 112.798 251.402 121.487 257.776C121.583 257.846 121.528 258.017 121.412 258.008C118.994 257.83 106.934 257.222 100.77 262.209C100.607 262.341 100.597 262.105 100.766 261.983Z" fill="#91B3FA"/>
<path d="M101.211 260.904C102.096 257.567 105.916 245.06 113.759 243.848C113.817 243.839 113.849 243.916 113.807 243.961C112.653 245.187 104.224 254.265 101.321 260.947C101.289 261.021 101.19 260.984 101.211 260.904Z" fill="#91B3FA"/>
<path d="M99.7309 264.638C99.6589 264.665 99.6139 264.559 99.6771 264.511C101.253 263.315 107.646 259.036 113.949 262.976C121.089 267.439 108.226 261.487 99.7309 264.638Z" fill="#91B3FA"/>
<path d="M100.422 262.023C100.389 262.279 100.703 262.372 100.801 262.134C102.391 258.28 106.257 247.554 101.784 243.768C96.4896 239.286 102.155 248.751 100.422 262.023Z" fill="#91B3FA"/>
<path d="M100.774 262.062C100.407 259.436 98.6388 251.158 91.0757 253.978C90.9478 254.025 90.9478 254.228 91.0757 254.262C92.5768 254.664 97.493 256.381 100.528 262.165C100.601 262.305 100.796 262.222 100.774 262.062Z" fill="#91B3FA"/>
<path d="M100.471 262.645C100.454 261.064 99.4278 257.699 90.6541 258.898C90.6018 258.905 90.5981 258.991 90.6512 258.994C92.3057 259.119 97.8518 259.763 100.037 262.833C100.178 263.03 100.474 262.902 100.471 262.645Z" fill="#91B3FA"/>
<path d="M90.0988 303.813L90.3466 302.508L90.6103 301.171L91.1524 298.497L92.2714 293.158C92.6528 291.38 93.0459 289.606 93.4506 287.834C93.8452 286.06 94.2528 284.289 94.675 282.521C95.5229 278.987 96.4479 275.475 97.4498 271.989L97.8313 270.683L98.228 269.383C98.4932 268.518 98.7635 267.652 99.0629 266.798C99.6638 265.092 100.286 263.389 101.124 261.79L100.89 261.65C100.395 262.422 99.9493 263.229 99.5606 264.058C99.3608 264.471 99.1624 264.885 98.9902 265.309C98.8093 265.73 98.6349 266.153 98.4722 266.58C97.8015 268.282 97.2057 270.011 96.6724 271.757C95.6014 275.247 94.728 278.79 93.8982 282.338C93.4877 284.113 93.0924 285.891 92.7095 287.672C92.3426 289.457 91.988 291.243 91.6457 293.032C91.3042 294.82 90.9678 296.61 90.6692 298.406L90.2231 301.101L90.0131 302.452L89.915 303.128L89.8678 303.467C89.8539 303.583 89.835 303.683 89.8271 303.841L90.0988 303.813Z" fill="#91B3FA"/>
<path d="M96.4169 286.119H84.7993C84.0378 286.119 83.4747 287.267 83.6454 288.469C84.3888 293.69 85.2796 298.986 87.1026 304.362C87.439 305.355 88.0806 305.977 88.7796 305.977H92.5703C93.2584 305.977 93.8905 305.364 94.2167 304.381C95.6772 299.982 97.0817 294.739 97.7756 288.788C97.9369 287.404 97.2866 286.119 96.4169 286.119Z" fill="url(#paint21_linear_1717_23313)"/>
</g>
<defs>
<linearGradient id="paint0_linear_1717_23313" x1="91.996" y1="358.293" x2="200.805" y2="388.85" gradientUnits="userSpaceOnUse">
<stop stop-color="#CB236D"/>
<stop offset="1" stop-color="#4C246D"/>
</linearGradient>
<linearGradient id="paint1_linear_1717_23313" x1="237.474" y1="320.665" x2="156.101" y2="248.653" gradientUnits="userSpaceOnUse">
<stop stop-color="#4F52FF"/>
<stop offset="1" stop-color="#4042E2"/>
</linearGradient>
<linearGradient id="paint2_linear_1717_23313" x1="164.444" y1="266.291" x2="134.851" y2="266.291" gradientUnits="userSpaceOnUse">
<stop stop-color="#FEBBBA"/>
<stop offset="1" stop-color="#FF928E"/>
</linearGradient>
<linearGradient id="paint3_linear_1717_23313" x1="196.324" y1="235.871" x2="161.918" y2="215.948" gradientUnits="userSpaceOnUse">
<stop stop-color="#FEBBBA"/>
<stop offset="1" stop-color="#FF928E"/>
</linearGradient>
<linearGradient id="paint4_linear_1717_23313" x1="166.065" y1="194.401" x2="166.272" y2="252.695" gradientUnits="userSpaceOnUse">
<stop stop-color="#FEBBBA"/>
<stop offset="1" stop-color="#FF928E"/>
</linearGradient>
<linearGradient id="paint5_linear_1717_23313" x1="180.884" y1="219.369" x2="147.304" y2="194.189" gradientUnits="userSpaceOnUse">
<stop stop-color="#09005D"/>
<stop offset="1" stop-color="#1A0F91"/>
</linearGradient>
<linearGradient id="paint6_linear_1717_23313" x1="185.13" y1="254.757" x2="179.936" y2="214.698" gradientUnits="userSpaceOnUse">
<stop stop-color="#FEBBBA"/>
<stop offset="1" stop-color="#FF928E"/>
</linearGradient>
<linearGradient id="paint7_linear_1717_23313" x1="257.971" y1="297.504" x2="176.598" y2="225.492" gradientUnits="userSpaceOnUse">
<stop stop-color="#4F52FF"/>
<stop offset="1" stop-color="#4042E2"/>
</linearGradient>
<linearGradient id="paint8_linear_1717_23313" x1="216.069" y1="80.9043" x2="221.955" y2="224.053" gradientUnits="userSpaceOnUse">
<stop stop-color="#09005D"/>
<stop offset="1" stop-color="#1A0F91"/>
</linearGradient>
<linearGradient id="paint9_linear_1717_23313" x1="193.842" y1="311.079" x2="192.492" y2="292.296" gradientUnits="userSpaceOnUse">
<stop stop-color="#FEBBBA"/>
<stop offset="1" stop-color="#FF928E"/>
</linearGradient>
<linearGradient id="paint10_linear_1717_23313" x1="172.315" y1="378.255" x2="113.064" y2="378.255" gradientUnits="userSpaceOnUse">
<stop stop-color="#9CFFFB"/>
<stop offset="1" stop-color="#9BFFFA"/>
</linearGradient>
<linearGradient id="paint11_linear_1717_23313" x1="165.473" y1="378.254" x2="106.222" y2="378.254" gradientUnits="userSpaceOnUse">
<stop stop-color="#9CFFFB"/>
<stop offset="1" stop-color="#9BFFFA"/>
</linearGradient>
<linearGradient id="paint12_linear_1717_23313" x1="234.321" y1="423.118" x2="65.2367" y2="223.307" gradientUnits="userSpaceOnUse">
<stop stop-color="#09005D"/>
<stop offset="1" stop-color="#1A0F91"/>
</linearGradient>
<linearGradient id="paint13_linear_1717_23313" x1="100.437" y1="164.354" x2="70.4682" y2="136.683" gradientUnits="userSpaceOnUse">
<stop stop-color="#09005D"/>
<stop offset="1" stop-color="#1A0F91"/>
</linearGradient>
<linearGradient id="paint14_linear_1717_23313" x1="117.56" y1="194.587" x2="74.891" y2="97.0515" gradientUnits="userSpaceOnUse">
<stop stop-color="#4F52FF"/>
<stop offset="1" stop-color="#4042E2"/>
</linearGradient>
<linearGradient id="paint15_linear_1717_23313" x1="118.116" y1="194.344" x2="75.4463" y2="96.8073" gradientUnits="userSpaceOnUse">
<stop stop-color="#4F52FF"/>
<stop offset="1" stop-color="#4042E2"/>
</linearGradient>
<linearGradient id="paint16_linear_1717_23313" x1="118.976" y1="193.968" x2="76.3056" y2="96.4306" gradientUnits="userSpaceOnUse">
<stop stop-color="#4F52FF"/>
<stop offset="1" stop-color="#4042E2"/>
</linearGradient>
<linearGradient id="paint17_linear_1717_23313" x1="119.393" y1="193.785" x2="76.7231" y2="96.2489" gradientUnits="userSpaceOnUse">
<stop stop-color="#4F52FF"/>
<stop offset="1" stop-color="#4042E2"/>
</linearGradient>
<linearGradient id="paint18_linear_1717_23313" x1="108.797" y1="129.326" x2="111.373" y2="181.901" gradientUnits="userSpaceOnUse">
<stop stop-color="#FF928E"/>
<stop offset="1" stop-color="#FE7062"/>
</linearGradient>
<linearGradient id="paint19_linear_1717_23313" x1="59.7573" y1="114.793" x2="121.886" y2="169.166" gradientUnits="userSpaceOnUse">
<stop stop-color="#E1473D"/>
<stop offset="1" stop-color="#E9605A"/>
</linearGradient>
<linearGradient id="paint20_linear_1717_23313" x1="63.2605" y1="110.79" x2="125.389" y2="165.163" gradientUnits="userSpaceOnUse">
<stop stop-color="#E1473D"/>
<stop offset="1" stop-color="#E9605A"/>
</linearGradient>
<linearGradient id="paint21_linear_1717_23313" x1="84.5648" y1="321.089" x2="88.8832" y2="298.334" gradientUnits="userSpaceOnUse">
<stop stop-color="#4F52FF"/>
<stop offset="1" stop-color="#4042E2"/>
</linearGradient>
<clipPath id="clip0_1717_23313">
<rect width="223" height="203" fill="white" transform="matrix(-1 0 0 1 266 116)"/>
</clipPath>
</defs>
</svg>
