<svg width="223" height="203" viewBox="0 0 223 203" fill="none" xmlns="http://www.w3.org/2000/svg">
    <g opacity="0.3">
        <path opacity="0.3" d="M158.348 45.2046C157.934 45.0795 157.484 45.2853 157.313 45.6932C156.938 46.5853 156.597 47.5065 156.298 48.4314C156.153 48.8814 156.4 49.3642 156.85 49.5096C156.855 49.5111 156.861 49.5125 156.866 49.5147C157.311 49.6492 157.783 49.4027 157.927 48.9585C158.211 48.0795 158.535 47.2041 158.891 46.357C159.074 45.9208 158.869 45.4191 158.433 45.2359C158.405 45.2228 158.376 45.2126 158.348 45.2046ZM156.245 52.3619C156.213 52.3525 156.18 52.3445 156.146 52.3387C155.681 52.2558 155.237 52.5662 155.154 53.0323C154.985 53.9891 154.854 54.962 154.767 55.9246C154.724 56.3958 155.069 56.8109 155.541 56.8553C156.012 56.8982 156.428 56.5506 156.47 56.0802C156.553 55.1648 156.678 54.2407 156.839 53.3311C156.916 52.8992 156.654 52.4855 156.245 52.3619ZM155.769 59.8043C155.678 59.7767 155.58 59.7643 155.48 59.7687C155.008 59.7919 154.644 60.1933 154.667 60.6659C154.714 61.6344 154.804 62.6123 154.934 63.5735C154.998 64.0424 155.429 64.3696 155.897 64.3071C156.365 64.2438 156.694 63.8119 156.63 63.3437C156.507 62.4312 156.421 61.502 156.376 60.5823C156.359 60.2115 156.106 59.9061 155.769 59.8043ZM156.969 67.1681C156.819 67.1223 156.653 67.118 156.49 67.1638C156.035 67.2917 155.77 67.7651 155.898 68.2202C156.161 69.1538 156.467 70.0874 156.808 70.9955C156.975 71.4375 157.468 71.6615 157.911 71.4957C158.353 71.3292 158.576 70.8355 158.41 70.3927C158.086 69.5311 157.795 68.6441 157.546 67.7563C157.464 67.4641 157.24 67.2503 156.969 67.1681ZM159.779 74.0797C159.568 74.0157 159.333 74.0332 159.123 74.1473C158.708 74.3735 158.554 74.8933 158.78 75.3085C159.242 76.1584 159.747 77.0011 160.281 77.8118C160.542 78.2066 161.072 78.3164 161.467 78.0561C161.861 77.7958 161.97 77.2651 161.71 76.8695C161.202 76.0988 160.723 75.2983 160.283 74.4905C160.172 74.284 159.988 74.1423 159.779 74.0797ZM164.047 80.1959C163.774 80.113 163.465 80.169 163.234 80.3719C162.879 80.6845 162.845 81.2254 163.157 81.5803C163.796 82.3081 164.475 83.0177 165.174 83.6888C165.516 84.016 166.057 84.0051 166.384 83.6633C166.711 83.3223 166.7 82.7799 166.359 82.4528C165.695 81.8151 165.049 81.1411 164.442 80.4489C164.333 80.3253 164.196 80.2403 164.047 80.1959ZM193.478 91.2213C193.364 91.1871 193.242 91.1762 193.117 91.1929C192.206 91.3151 191.277 91.3994 190.356 91.4423C189.884 91.4649 189.519 91.8655 189.542 92.3374C189.563 92.81 189.965 93.175 190.437 93.1524C191.406 93.1066 192.385 93.0186 193.345 92.8899C193.813 92.8274 194.142 92.3963 194.079 91.9273C194.034 91.5841 193.789 91.3151 193.478 91.2213ZM169.561 85.2106C169.221 85.108 168.839 85.2251 168.62 85.529C168.343 85.9129 168.43 86.448 168.812 86.7243C169.598 87.2922 170.418 87.8324 171.249 88.3297C171.655 88.5704 172.18 88.441 172.423 88.0353C172.666 87.6295 172.533 87.1039 172.128 86.8603C171.339 86.3877 170.561 85.8744 169.814 85.3356C169.735 85.2789 169.649 85.2375 169.561 85.2106ZM186.024 91.3718C185.97 91.3558 185.914 91.3442 185.855 91.3384C184.939 91.2533 184.014 91.1275 183.107 90.9646C182.642 90.881 182.196 91.1908 182.114 91.6561C182.03 92.1214 182.339 92.5686 182.805 92.65C183.759 92.8209 184.732 92.9539 185.696 93.0434C186.167 93.087 186.584 92.7409 186.627 92.2698C186.667 91.8582 186.406 91.4874 186.024 91.3718ZM176.055 88.867C175.641 88.742 175.191 88.947 175.02 89.3534C174.836 89.789 175.04 90.2914 175.475 90.476C176.367 90.8527 177.287 91.1959 178.209 91.4961C178.215 91.4983 178.221 91.4998 178.226 91.502C178.671 91.6365 179.143 91.3907 179.287 90.9472C179.433 90.4971 179.188 90.0144 178.738 89.8682C177.862 89.5832 176.988 89.2567 176.141 88.899C176.113 88.8867 176.084 88.8758 176.055 88.867Z" fill="#7D97F4"/>
        <path opacity="0.3" d="M199.337 89.8871C199.176 89.8384 198.999 89.8362 198.827 89.8929C198.407 90.0296 197.978 90.1598 197.55 90.2797C197.095 90.4077 196.829 90.8803 196.957 91.3354C197.085 91.7906 197.557 92.0567 198.012 91.928C198.462 91.8015 198.913 91.6648 199.355 91.5216C199.804 91.3754 200.05 90.8919 199.904 90.4426C199.814 90.1648 199.596 89.9656 199.337 89.8871Z" fill="#7D97F4"/>
    </g>
    <g opacity="0.3">
        <path opacity="0.3" d="M219.03 72.7607C218.634 72.6415 218.2 72.8233 218.013 73.2064C217.821 73.6034 217.616 74.0033 217.406 74.3945C217.182 74.8111 217.338 75.3302 217.754 75.5542C218.172 75.7789 218.689 75.6218 218.913 75.2059C219.134 74.7944 219.349 74.3734 219.552 73.9553C219.758 73.53 219.581 73.0174 219.156 72.8109C219.115 72.7898 219.073 72.7738 219.03 72.7607Z" fill="#7D97F4"/>
        <path opacity="0.3" d="M198.731 26.246C198.354 26.1319 197.974 26.0243 197.59 25.9225C197.133 25.8011 196.664 26.073 196.543 26.5303C196.422 26.9877 196.696 27.4588 197.15 27.578C198.035 27.8136 198.91 28.0841 199.757 28.3865C200.203 28.545 200.691 28.3131 200.85 27.8674C201.009 27.4217 200.777 26.9317 200.331 26.7732C199.808 26.5856 199.268 26.4089 198.731 26.246ZM193.154 25.0631C193.108 25.0493 193.06 25.0391 193.012 25.0333C192.064 24.9148 191.101 24.8355 190.15 24.7977C189.677 24.7788 189.279 25.1467 189.26 25.6186C189.241 26.0912 189.609 26.4911 190.081 26.5085C190.985 26.5449 191.9 26.6205 192.8 26.7324C193.269 26.7913 193.697 26.4576 193.755 25.9886C193.807 25.5684 193.546 25.1809 193.154 25.0631ZM204.459 28.577C204.072 28.46 203.645 28.6308 203.453 29.0017C203.235 29.4212 203.398 29.9381 203.818 30.157C204.62 30.5743 205.415 31.0317 206.181 31.5166C206.581 31.7689 207.109 31.6504 207.362 31.2505C207.615 30.8506 207.496 30.3213 207.096 30.069C206.289 29.5579 205.452 29.0765 204.607 28.6367C204.559 28.6119 204.509 28.5916 204.459 28.577ZM185.817 24.962C185.713 24.9307 185.601 24.9191 185.486 24.93C184.537 25.0231 183.58 25.1576 182.642 25.3299C182.177 25.4157 181.87 25.8621 181.956 26.3267C182.042 26.7921 182.487 27.0996 182.952 27.0138C183.842 26.8502 184.751 26.7223 185.653 26.6343C186.123 26.5885 186.467 26.1697 186.421 25.6985C186.387 25.343 186.139 25.0594 185.817 24.962ZM210.55 32.661C210.233 32.5651 209.875 32.6589 209.648 32.9286C209.343 33.29 209.389 33.8302 209.75 34.1355C210.44 34.7187 211.115 35.3403 211.757 35.9816C212.091 36.316 212.633 36.316 212.967 35.9816C213.301 35.6471 213.301 35.1055 212.967 34.771C212.292 34.0956 211.581 33.4412 210.854 32.8268C210.762 32.749 210.658 32.6937 210.55 32.661ZM215.597 37.984C215.344 37.9076 215.059 37.9491 214.832 38.1214C214.456 38.4071 214.382 38.9444 214.668 39.3211C215.216 40.0438 215.74 40.7978 216.225 41.5619C216.478 41.9618 217.007 42.0796 217.407 41.8258C217.805 41.5721 217.924 41.0435 217.67 40.6436C217.16 39.8387 216.609 39.0455 216.032 38.285C215.918 38.1366 215.764 38.0349 215.597 37.984ZM219.365 44.2819C219.173 44.2237 218.959 44.2325 218.762 44.3233C218.332 44.5204 218.143 45.0286 218.34 45.4583C218.718 46.2835 219.065 47.1335 219.373 47.9856C219.533 48.4306 220.023 48.6611 220.468 48.5004C220.913 48.3397 221.143 47.8497 220.983 47.404C220.66 46.5082 220.294 45.6132 219.897 44.7443C219.79 44.5124 219.592 44.3502 219.365 44.2819ZM221.671 51.2517C221.537 51.2117 221.393 51.2029 221.247 51.2342C220.785 51.3324 220.49 51.7868 220.588 52.2499C220.776 53.1377 220.928 54.0429 221.041 54.9416C221.1 55.4105 221.529 55.7435 221.996 55.6847C222.466 55.6258 222.798 55.1975 222.739 54.7285C222.621 53.7819 222.46 52.8287 222.262 51.8944C222.194 51.5767 221.96 51.3389 221.671 51.2517ZM222.392 58.5602C222.317 58.5377 222.237 58.5253 222.155 58.5239C221.683 58.5173 221.294 58.8961 221.288 59.3687C221.276 60.274 221.226 61.1901 221.138 62.0931C221.092 62.5643 221.437 62.9823 221.906 63.0281C222.377 63.0739 222.796 62.73 222.842 62.2589C222.935 61.3093 222.988 60.3445 223 59.3913C223.005 59.0008 222.748 58.6678 222.392 58.5602ZM221.492 65.8441C221.475 65.839 221.457 65.8346 221.441 65.8303C220.981 65.7212 220.519 66.0062 220.411 66.4665C220.258 67.1165 220.082 67.7687 219.889 68.4063C219.82 68.6375 219.748 68.8673 219.673 69.0949C219.526 69.5449 219.772 70.0284 220.221 70.1746C220.673 70.3316 221.154 70.0757 221.3 69.6264C221.379 69.3864 221.454 69.145 221.528 68.9022C221.731 68.2311 221.915 67.5447 222.076 66.8613C222.18 66.4178 221.921 65.9742 221.492 65.8441Z" fill="#7D97F4"/>
        <path opacity="0.3" d="M178.618 26.4875C178.455 26.438 178.276 26.4366 178.103 26.494C177.663 26.6394 177.218 26.7972 176.78 26.9622C176.337 27.1287 176.114 27.6231 176.28 28.0652C176.448 28.508 176.94 28.7312 177.383 28.5647C177.799 28.4077 178.222 28.2579 178.639 28.1197C179.087 27.9714 179.331 27.4872 179.183 27.0378C179.092 26.7637 178.876 26.566 178.618 26.4875Z" fill="#7D97F4"/>
    </g>
    <path d="M176.853 36.3299C176.994 36.2347 177.18 36.2397 177.317 36.3423L181.205 39.2738C183.33 38.466 185.6 37.992 187.938 37.9033L190.374 33.6892C190.46 33.5416 190.629 33.4638 190.797 33.4965L196.528 34.614C196.696 34.6467 196.824 34.7819 196.848 34.9514L197.525 39.7719C199.659 40.7316 201.585 42.0236 203.252 43.5709L207.955 42.3137C208.12 42.2694 208.294 42.3348 208.389 42.4766L211.652 47.3219C211.748 47.4636 211.743 47.6498 211.64 47.7865L208.71 51.6771C209.518 53.8038 209.991 56.0744 210.079 58.4141L214.291 60.852C214.438 60.9378 214.516 61.1072 214.483 61.2752L213.367 67.0104C213.334 67.1776 213.199 67.3063 213.029 67.3303L208.212 68.0079C207.253 70.1434 205.962 72.0701 204.416 73.738L205.672 78.4444C205.715 78.6095 205.651 78.784 205.509 78.8792L200.667 82.1445C200.525 82.2398 200.339 82.2347 200.203 82.1321L196.315 79.2006C194.189 80.0084 191.92 80.4824 189.582 80.5711L187.146 84.7853C187.06 84.9329 186.891 85.0106 186.723 84.9779L180.991 83.8604C180.824 83.8277 180.696 83.6925 180.672 83.523L179.995 78.7025C177.861 77.7428 175.935 76.4508 174.268 74.9035L169.565 76.1607C169.4 76.205 169.226 76.1396 169.13 75.9978L165.867 71.1525C165.771 71.0108 165.776 70.8246 165.879 70.6879L168.809 66.7974C168.001 64.6707 167.528 62.4 167.44 60.0603L163.228 57.6224C163.081 57.5373 163.003 57.3672 163.036 57.1992L164.152 51.464C164.185 51.2961 164.32 51.1681 164.49 51.1441L169.307 50.4665C170.266 48.331 171.557 46.4043 173.103 44.7364L171.848 40.03C171.804 39.8649 171.869 39.6905 172.011 39.5945L176.853 36.3299Z" fill="#91B3FA"/>
    <path d="M190.453 53.614C187.714 52.7858 184.702 54.072 183.448 56.7382C182.071 59.669 183.333 63.1743 186.261 64.5528C187.68 65.221 189.273 65.2959 190.748 64.7637C192.223 64.2322 193.403 63.1576 194.071 61.7376C195.448 58.8067 194.186 55.3015 191.258 53.923C190.994 53.7986 190.725 53.6961 190.453 53.614ZM187.468 63.5524C187.256 63.4884 187.049 63.4091 186.844 63.3132C184.599 62.2567 183.631 59.568 184.688 57.3213C185.744 55.0747 188.43 54.1055 190.676 55.1634C192.921 56.2198 193.889 58.9085 192.832 61.1552C192.321 62.2436 191.416 63.0674 190.285 63.4753C189.366 63.8061 188.386 63.8301 187.468 63.5524Z" fill="#BDD0FB"/>
    <path d="M193.019 45.5282C192.549 45.3857 192.069 45.2664 191.58 45.1712C191.426 45.1414 191.272 45.1137 191.117 45.0883C190.353 44.9647 189.582 44.9022 188.813 44.9014C188.803 44.9014 188.792 44.9014 188.782 44.9014C188.752 44.9014 188.722 44.9014 188.692 44.9022C188.634 44.9022 188.577 44.9036 188.519 44.9043C188.367 44.9072 188.24 45.009 188.198 45.1472C188.187 45.1806 188.182 45.217 188.183 45.2533C188.187 45.4424 188.344 45.5922 188.532 45.5885C189.505 45.5689 190.486 45.6547 191.448 45.8423C196.23 46.7737 199.951 50.0957 201.616 54.3265C202.542 56.6794 202.831 59.3143 202.313 61.9754C202.222 62.4422 202.109 62.901 201.973 63.3496C201.061 66.3713 199.153 68.9648 196.503 70.7527C193.458 72.8059 189.795 73.5505 186.192 72.8474C178.748 71.3954 173.877 64.1595 175.326 56.7143C175.415 56.2555 175.527 55.8025 175.662 55.3575C176.244 53.43 177.241 51.6516 178.588 50.1531C178.623 50.1146 178.647 50.0702 178.661 50.023C178.698 49.9001 178.664 49.7605 178.562 49.6689C178.421 49.5431 178.205 49.5533 178.079 49.6943C176.665 51.2677 175.618 53.1349 175.007 55.1583C174.866 55.6251 174.748 56.1006 174.654 56.5819C173.132 64.3987 178.251 71.9967 186.06 73.5185C189.844 74.2565 193.689 73.4748 196.885 71.3191C199.668 69.4425 201.67 66.7196 202.629 63.5473C202.771 63.0762 202.89 62.5949 202.985 62.1048C203.722 58.3182 202.942 54.4712 200.787 51.2721C198.913 48.4903 196.19 46.4865 193.019 45.5282Z" fill="#BDD0FB"/>
    <g opacity="0.3">
        <path opacity="0.3" d="M136.912 15.1508C136.693 15.0847 136.448 15.1668 136.317 15.3682C136.071 15.7441 135.834 16.1324 135.611 16.5228C135.467 16.7766 135.555 17.0994 135.808 17.2441C136.062 17.3902 136.384 17.3008 136.529 17.047C136.741 16.6755 136.968 16.3047 137.202 15.9463C137.362 15.702 137.293 15.374 137.049 15.2141C137.006 15.1865 136.959 15.1654 136.912 15.1508Z" fill="#7D97F4"/>
        <path opacity="0.3" d="M135.01 18.7469C134.753 18.6691 134.475 18.7971 134.37 19.0501C134.073 19.7634 133.808 20.5007 133.585 21.2408C133.538 21.3964 133.493 21.5535 133.448 21.7112C133.37 21.9926 133.552 22.2784 133.815 22.3634C134.097 22.4419 134.388 22.2776 134.466 21.9963C134.509 21.8457 134.551 21.6952 134.597 21.5469C134.809 20.8417 135.062 20.1386 135.345 19.458C135.458 19.1883 135.33 18.8785 135.061 18.7658C135.044 18.7586 135.027 18.752 135.01 18.7469ZM133.534 24.0364C133.51 24.0292 133.486 24.0233 133.46 24.0197C133.172 23.9761 132.902 24.1746 132.858 24.464C132.718 25.3903 132.633 26.334 132.607 27.2683C132.599 27.5606 132.831 27.8034 133.121 27.8114C133.413 27.8194 133.656 27.5897 133.664 27.2974C133.688 26.4067 133.768 25.5066 133.903 24.6225C133.943 24.3585 133.782 24.1113 133.534 24.0364ZM133.385 29.5259C133.321 29.5062 133.252 29.499 133.181 29.5055C132.89 29.5339 132.678 29.7927 132.707 30.0835C132.797 31.0149 132.947 31.9507 133.153 32.8653C133.217 33.1511 133.499 33.3292 133.785 33.2652C134.07 33.2012 134.248 32.9184 134.185 32.6334C133.988 31.7616 133.845 30.8695 133.759 29.981C133.737 29.7614 133.584 29.5862 133.385 29.5259ZM134.589 34.8844C134.485 34.8524 134.369 34.8532 134.259 34.8932C133.984 34.992 133.841 35.2952 133.94 35.5701C134.256 36.4527 134.631 37.3223 135.052 38.157C135.184 38.4173 135.503 38.5213 135.762 38.3897C136.023 38.2581 136.127 37.9396 135.995 37.6786C135.593 36.8839 135.236 36.0536 134.934 35.2123C134.876 35.048 134.744 34.9317 134.589 34.8844ZM137.064 39.7864C136.918 39.742 136.753 39.7617 136.616 39.8533C136.375 40.0161 136.31 40.344 136.472 40.5869C136.993 41.3641 137.567 42.1174 138.178 42.8241C138.369 43.0459 138.703 43.0699 138.923 42.8786C139.144 42.6874 139.168 42.353 138.978 42.1327C138.395 41.4579 137.847 40.7396 137.35 39.998C137.279 39.8925 137.177 39.8206 137.064 39.7864ZM140.653 43.938C140.463 43.8806 140.249 43.9329 140.107 44.09C139.912 44.3066 139.928 44.6411 140.145 44.8367C140.839 45.4641 141.579 46.0545 142.344 46.5896C142.585 46.7569 142.913 46.6987 143.08 46.4595C143.247 46.2203 143.189 45.8902 142.95 45.723C142.221 45.2118 141.515 44.6498 140.853 44.0514C140.794 43.9976 140.725 43.9598 140.653 43.938ZM145.145 47.0848C144.908 47.0128 144.646 47.1168 144.526 47.3436C144.389 47.6017 144.488 47.9217 144.746 48.0583C145.57 48.4946 146.433 48.885 147.309 49.2188C147.585 49.3184 147.888 49.1846 147.991 48.9119C148.095 48.6393 147.958 48.3339 147.685 48.2299C146.848 47.9122 146.025 47.5399 145.24 47.124C145.209 47.1073 145.178 47.0942 145.145 47.0848ZM152.982 49.5234C152.953 49.5147 152.922 49.5081 152.89 49.5045C152.125 49.4143 151.351 49.2798 150.59 49.1061C150.475 49.0806 150.362 49.0537 150.25 49.0261C149.966 48.9563 149.68 49.1293 149.61 49.4136C149.54 49.6979 149.713 49.9931 149.997 50.0542C150.117 50.0833 150.237 50.1123 150.358 50.1392C151.153 50.321 151.964 50.4613 152.767 50.5559C153.057 50.59 153.32 50.3828 153.354 50.0927C153.384 49.8331 153.223 49.5961 152.982 49.5234Z" fill="#7D97F4"/>
    </g>
    <g opacity="0.3">
        <path opacity="0.3" d="M162.331 6.08999C162.055 6.00638 161.762 6.16052 161.674 6.43681C161.586 6.71528 161.74 7.01265 162.018 7.10063C162.856 7.36601 163.685 7.68447 164.482 8.04728C164.748 8.16507 165.061 8.05165 165.183 7.78554C165.304 7.51943 165.186 7.20605 164.921 7.08463C164.086 6.70437 163.217 6.36992 162.338 6.09217C162.336 6.09145 162.333 6.09072 162.331 6.08999ZM159.709 5.43053C159.69 5.42472 159.672 5.42035 159.653 5.41672C158.749 5.24585 157.825 5.12879 156.907 5.06772C156.615 5.04882 156.364 5.26912 156.344 5.56068C156.325 5.85224 156.547 6.10381 156.836 6.12416C157.712 6.18233 158.593 6.2943 159.456 6.45716C159.743 6.5117 160.02 6.32266 160.073 6.03546C160.125 5.76644 159.964 5.5076 159.709 5.43053ZM167.242 8.32939C167.017 8.26177 166.768 8.34975 166.639 8.55915C166.486 8.80781 166.564 9.13354 166.813 9.28622C167.562 9.74719 168.29 10.2561 168.976 10.8022C169.205 10.9832 169.537 10.9461 169.718 10.7171C169.9 10.4888 169.862 10.1558 169.633 9.97404C168.915 9.40255 168.152 8.86815 167.366 8.38537C167.326 8.36138 167.285 8.34248 167.242 8.32939ZM154.32 5.07645C154.263 5.059 154.201 5.051 154.138 5.05463C153.219 5.10626 152.293 5.21604 151.388 5.37964C151.101 5.43126 150.909 5.70682 150.961 5.99402C151.013 6.28049 151.288 6.47171 151.575 6.42008C152.438 6.26376 153.32 6.15979 154.197 6.11035C154.489 6.09363 154.712 5.84424 154.695 5.55268C154.682 5.32511 154.527 5.13897 154.32 5.07645ZM171.466 11.6907C171.286 11.6369 171.084 11.6798 170.942 11.8201C170.733 12.0251 170.731 12.3603 170.936 12.5682C171.551 13.1935 172.135 13.8632 172.67 14.559C172.848 14.7909 173.181 14.8338 173.412 14.655C173.643 14.4768 173.686 14.1446 173.507 13.9133C172.946 13.1841 172.334 12.4817 171.689 11.8259C171.625 11.7605 171.548 11.7154 171.466 11.6907ZM174.761 15.9673C174.624 15.9259 174.471 15.9397 174.338 16.019C174.087 16.168 174.004 16.493 174.153 16.7439C174.602 17.5007 175.009 18.2911 175.362 19.093C175.48 19.3606 175.793 19.4813 176.059 19.3635C176.327 19.2457 176.447 18.9338 176.33 18.6662C175.959 17.825 175.533 16.9969 175.062 16.2036C174.992 16.0859 174.883 16.0044 174.761 15.9673ZM176.937 20.9115C176.84 20.8824 176.735 20.8802 176.631 20.9122C176.351 20.9965 176.194 21.2917 176.278 21.5716C176.533 22.4136 176.739 23.2781 176.888 24.1419C176.938 24.4291 177.212 24.6225 177.499 24.5723C177.787 24.5221 177.98 24.2487 177.93 23.9608C177.772 23.0556 177.557 22.1482 177.289 21.2648C177.237 21.0889 177.101 20.9609 176.937 20.9115Z" fill="#7D97F4"/>
        <path opacity="0.3" d="M148.983 6.04274C148.885 6.01293 148.778 6.01148 148.673 6.04419C148.241 6.1787 147.811 6.3263 147.395 6.48335C147.122 6.58659 146.984 6.89197 147.087 7.16535C147.191 7.438 147.495 7.57615 147.769 7.47363C148.165 7.32385 148.576 7.1828 148.988 7.05411C149.267 6.96758 149.422 6.67094 149.335 6.39174C149.281 6.21797 149.145 6.09146 148.983 6.04274Z" fill="#7D97F4"/>
    </g>
    <path d="M147.429 12.7107C147.524 12.6468 147.649 12.6504 147.74 12.7187L150.341 14.6804C151.763 14.1402 153.282 13.8224 154.846 13.7635L156.476 10.9439C156.534 10.8451 156.647 10.7934 156.759 10.8153L160.594 11.5627C160.706 11.5845 160.791 11.6754 160.807 11.7881L161.261 15.0141C162.689 15.6569 163.977 16.5206 165.093 17.556L168.24 16.7148C168.35 16.6857 168.467 16.7293 168.531 16.8238L170.715 20.0659C170.779 20.1604 170.775 20.2854 170.707 20.377L168.746 22.9807C169.286 24.4036 169.604 25.9232 169.662 27.4886L172.48 29.1194C172.579 29.1769 172.631 29.2903 172.609 29.4023L171.862 33.2398C171.84 33.3517 171.749 33.4383 171.637 33.4535L168.413 33.9072C167.771 35.3359 166.906 36.625 165.873 37.7411L166.713 40.8908C166.742 41.0013 166.699 41.1184 166.604 41.1816L163.364 43.3665C163.269 43.4305 163.144 43.4268 163.053 43.3585L160.451 41.3968C159.029 41.9371 157.511 42.2548 155.946 42.3137L154.316 45.1333C154.259 45.2322 154.145 45.2838 154.033 45.262L150.198 44.5146C150.086 44.4927 150.001 44.4019 149.985 44.2892L149.531 41.0631C148.104 40.4211 146.815 39.5559 145.699 38.5213L142.552 39.3625C142.442 39.3923 142.325 39.3479 142.261 39.2534L140.078 36.0114C140.014 35.9169 140.017 35.7918 140.086 35.7002L142.046 33.0965C141.506 31.6736 141.188 30.1541 141.13 28.5887L138.312 26.9578C138.213 26.9004 138.161 26.787 138.183 26.675L138.93 22.8375C138.952 22.7255 139.043 22.6397 139.155 22.6237L142.379 22.17C143.021 20.7413 143.885 19.4522 144.92 18.3354L144.079 15.1864C144.049 15.0759 144.093 14.9589 144.188 14.8949L147.429 12.7107Z" fill="#91B3FA"/>
    <path d="M156.544 24.2065C155.729 23.9601 154.858 23.9811 154.041 24.2756C153.036 24.6377 152.233 25.3699 151.779 26.3369C150.841 28.3327 151.699 30.7204 153.695 31.6598C155.694 32.5963 158.076 31.7383 159.015 29.7425C159.47 28.7755 159.521 27.6892 159.159 26.6837C158.797 25.6781 158.065 24.874 157.099 24.4188C156.917 24.3338 156.733 24.2632 156.544 24.2065ZM154.548 30.8571C154.412 30.8157 154.277 30.7648 154.145 30.7022C152.678 30.0108 152.045 28.2549 152.736 26.7862C153.07 26.0751 153.661 25.5364 154.4 25.2702C155.14 25.0041 155.938 25.0419 156.649 25.3757C157.36 25.7101 157.898 26.302 158.164 27.0414C158.43 27.7816 158.393 28.5799 158.058 29.2917C157.43 30.6274 155.92 31.2723 154.548 30.8571Z" fill="#BDD0FB"/>
    <path d="M158.324 18.5761C158.003 18.4794 157.676 18.398 157.341 18.3325C156.675 18.2024 155.996 18.1406 155.32 18.1479C155.289 18.1486 155.259 18.1486 155.229 18.1493C154.994 18.1537 154.798 18.3107 154.734 18.5245C154.718 18.5761 154.71 18.6321 154.711 18.6888C154.717 18.9811 154.959 19.2116 155.25 19.2065C155.881 19.1941 156.516 19.2494 157.138 19.3708C157.172 19.3773 157.206 19.3846 157.24 19.3912C158.709 19.6922 160.047 20.348 161.164 21.2896C161.77 21.8007 162.311 22.3969 162.772 23.068C162.776 23.0731 162.779 23.0789 162.783 23.084C162.795 23.1007 162.805 23.1174 162.817 23.1341C164.145 25.1067 164.627 27.4792 164.172 29.8138C164.113 30.1163 164.04 30.4129 163.952 30.7037C163.361 32.6596 162.127 34.3391 160.41 35.4966C158.439 36.8257 156.068 37.3071 153.735 36.8526C151.403 36.3975 149.384 35.0611 148.055 33.0886C146.727 31.116 146.245 28.7435 146.7 26.4089C146.758 26.1115 146.831 25.8185 146.918 25.5306C147.295 24.2829 147.94 23.1312 148.812 22.1613C148.866 22.1017 148.903 22.0334 148.924 21.9606C148.982 21.7709 148.93 21.5557 148.772 21.4146C148.555 21.2198 148.221 21.2365 148.025 21.4546C147.05 22.5401 146.327 23.8278 145.905 25.2238C145.808 25.5459 145.727 25.8738 145.662 26.206C145.153 28.8184 145.692 31.4723 147.178 33.6797C148.665 35.8864 150.919 37.3834 153.531 37.8909C156.142 38.3999 158.794 37.8611 160.999 36.3735C162.919 35.0786 164.301 33.1998 164.961 31.012C165.059 30.687 165.142 30.3548 165.208 30.0174C166.194 24.9598 163.151 20.0346 158.324 18.5761Z" fill="#BDD0FB"/>
    <path d="M39.4596 299.567C55.0466 282.471 93.4155 245.246 135.559 229.793C139.066 228.508 141.919 225.883 143.534 222.514L149.838 209.363C149.838 209.363 180.568 202.157 199.502 221.996C199.502 221.996 198.348 240.865 174.568 247.764C152.369 254.204 86.5891 280.35 47.7901 309.648C46.9 310.32 45.6655 310.352 44.7849 309.668C41.7005 307.274 39.7677 304.285 38.9459 302.179C38.5964 301.288 38.8137 300.276 39.4596 299.567Z" fill="url(#paint0_linear_601_394)"/>
    <path d="M202.843 221.744C202.843 221.744 196.573 224.489 185.826 219.519C175.079 214.548 145.857 214.052 145.857 214.052C145.857 214.052 155.324 178.598 134.286 153.232C134.286 153.232 117.342 184.969 105.435 189.705L100.101 189.95V167.309C100.101 167.309 104.624 139.36 133.234 118.488L142.142 110.454C142.142 110.454 173.466 104.134 194.768 141.525C216.07 178.916 202.843 221.744 202.843 221.744Z" fill="url(#paint1_linear_601_394)"/>
    <path d="M98.3 123.981C98.0021 122.409 97.8895 118.734 101.678 114.254C106.746 108.261 113.248 111.317 113.248 111.317C119.009 114.545 121.443 125.086 121.443 125.086L115.352 121.834C114.429 124.515 105.434 127.407 105.434 127.407L105.384 127.388C105.296 133.218 105.437 150.223 109.57 162.05C111.189 166.684 114.482 175.293 103.61 190.045L97.6199 189.8C97.6199 189.799 84.1967 166.999 98.3 123.981Z" fill="url(#paint2_linear_601_394)"/>
    <path d="M128.75 89.4175L145.43 112.986C146.514 114.518 146.367 116.596 145.084 117.966C142.837 120.367 139.047 123.749 134.961 124.522C133.693 124.761 132.402 124.228 131.697 123.146L122.826 109.52C122.826 109.52 121.128 88.1146 128.75 89.4175Z" fill="url(#paint3_linear_601_394)"/>
    <path d="M117.673 74.0979C117.395 74.4687 108.371 103.749 108.371 103.749L125.188 108.55L137.862 82.0696C137.861 82.0696 122.327 67.8922 117.673 74.0979Z" fill="url(#paint4_linear_601_394)"/>
    <path d="M131.187 86.4168L125.834 100.287C125.717 100.59 125.557 100.869 125.356 101.123C124.457 102.251 121.844 104.909 118.951 102.064C116.758 99.9091 114.692 97.9286 112.723 96.9383C110.989 96.0658 108.887 97.0168 108.334 98.8796C107.505 101.671 106.199 106.464 105.518 111.032C105.272 112.683 106.353 114.243 107.985 114.585C111.408 115.302 117.383 116.348 122.616 116.225C123.777 116.199 124.818 115.514 125.333 114.472C127.27 110.554 132.135 100.829 133.965 98.2383C135.648 95.8564 139.448 95.8702 141.386 96.0527C142.285 96.1378 143.173 95.8368 143.832 95.2173C145.376 93.7661 147.446 90.8403 144.499 87.2064C143.473 85.9427 143.559 84.1454 144.688 82.9726C146.319 81.2778 147.67 78.5724 145.094 75.174C142.364 71.5735 138.673 71.7684 136.186 72.4831C134.974 72.8314 133.735 72.2999 132.939 71.3205C132.707 71.0355 132.377 70.8166 131.912 70.7417C130.392 70.4967 129.223 69.3261 129.18 67.7869C129.116 65.5112 128.134 62.8653 124.381 61.5755C117.047 59.0547 112.224 66.0754 111.611 71.4005C110.999 76.7263 119.105 79.0064 123.918 78.7861C127.253 78.6334 129.712 81.6944 130.908 83.5877C131.443 84.4348 131.548 85.481 131.187 86.4168Z" fill="url(#paint5_linear_601_394)"/>
    <path d="M131.881 103.483C131.881 103.483 133.345 94.2495 137.212 93.9078C141.079 93.5661 144.737 96.8438 140.755 101.935C135.801 108.267 131.881 103.483 131.881 103.483Z" fill="url(#paint6_linear_601_394)"/>
    <path d="M173.731 113.877C173.731 113.877 207.355 135.336 214.716 160.25C222.077 185.163 205.603 190.065 189.917 192.272L188.736 173.248C188.736 173.248 199.725 173.248 192.715 162.849C185.706 152.451 166.868 145.518 166.868 145.518C166.868 145.518 119.141 100.457 173.731 113.877Z" fill="url(#paint7_linear_601_394)"/>
    <path d="M188.736 173.681C188.929 173.681 193.47 173.648 195.001 170.766C196.046 168.8 195.398 166.054 193.074 162.607C186.066 152.211 167.792 145.397 167.018 145.112C166.793 145.029 166.544 145.144 166.462 145.369C166.38 145.594 166.495 145.842 166.718 145.925C166.906 145.994 185.505 152.931 192.356 163.092C194.485 166.252 195.119 168.696 194.238 170.358C192.952 172.781 188.778 172.815 188.736 172.815C188.497 172.816 188.303 173.009 188.303 173.249C188.304 173.488 188.497 173.681 188.736 173.681Z" fill="url(#paint8_linear_601_394)"/>
    <path d="M189.917 192.272C189.917 192.272 194.829 184.148 188.36 174.441L144.936 181.636C144.936 181.636 124.15 178.117 123.156 178.188C122.162 178.259 108.597 186.62 108.597 186.62C108.597 186.62 109.052 187.59 112.28 187.411C115.509 187.232 113.389 187.801 113.389 187.801L113.506 189.433C113.506 189.433 115.754 189.948 117.556 188.03C119.359 186.111 124.37 185.182 124.37 185.182C124.37 185.182 135.02 193.057 145.482 189.246L189.917 192.272Z" fill="url(#paint9_linear_601_394)"/>
    <path d="M126.736 329.342C127.076 329.342 127.421 329.273 127.754 329.126C129.063 328.549 129.667 326.995 129.104 325.653L75.0133 196.767C74.4502 195.426 72.9352 194.808 71.6252 195.383C70.3166 195.961 69.7121 197.515 70.2752 198.857L124.366 327.743C124.785 328.743 125.737 329.342 126.736 329.342Z" fill="url(#paint10_linear_601_394)"/>
    <path d="M65.8009 329.341C66.8007 329.341 67.7518 328.742 68.171 327.742L122.262 198.856C122.825 197.514 122.221 195.96 120.912 195.383C119.604 194.805 118.087 195.425 117.524 196.766L63.4329 325.652C62.8697 326.993 63.4743 328.548 64.7829 329.126C65.1149 329.272 65.4608 329.341 65.8009 329.341Z" fill="url(#paint11_linear_601_394)"/>
    <path d="M25.7896 192.918C25.7111 192.119 25.8179 191.293 26.0817 190.664C26.3447 190.037 26.7371 189.673 27.1505 189.673H167.31C167.854 189.673 168.361 190.219 168.654 191.12C168.947 192.022 168.987 193.155 168.759 194.127L167.24 200.593C166.892 202.073 166.139 203.021 165.31 203.021H28.114C27.3423 203.021 26.6797 201.945 26.5329 200.455L25.7896 192.918Z" fill="url(#paint12_linear_601_394)"/>
    <path d="M86.4139 37.2431C104.763 46.0088 116.818 64.2519 102.57 63.3997C75.8193 61.8009 93.8739 76.7103 79.8054 76.2712C65.7363 75.8328 43.9594 72.8299 29.71 58.055C15.4607 43.28 29.3119 39.7486 35.0869 40.3201C54.102 42.204 28.9377 9.78575 86.4139 37.2431Z" fill="#BDD0FB"/>
    <path d="M92.6305 83.5317C92.592 85.6112 91.0632 89.0233 87.63 88.9601C84.1968 88.8968 80.1591 85.3814 80.1976 83.302C80.2361 81.2225 83.0502 79.5888 86.4834 79.652C89.9166 79.7153 92.6683 81.4523 92.6305 83.5317Z" fill="#BDD0FB"/>
    <path d="M97.7845 91.9113C97.7664 92.9183 96.8814 93.7181 95.8082 93.6985C94.735 93.6789 92.6126 92.6086 92.6315 91.6016C92.6497 90.5946 93.9808 89.5883 95.054 89.6079C96.1264 89.6276 97.8027 90.9043 97.7845 91.9113Z" fill="#BDD0FB"/>
    <path d="M58.1782 53.7587C58.2065 53.4097 58.5626 53.1079 59.1649 52.8658C58.5095 52.5045 58.147 52.1169 58.1782 51.7367C58.2712 50.5864 61.91 49.9422 66.3067 50.2971C70.7033 50.6519 74.1925 51.8719 74.1002 53.0214C74.0718 53.3704 73.7158 53.6722 73.1135 53.9143C73.7688 54.2756 74.1314 54.6632 74.1002 55.0434C74.0718 55.3924 73.7158 55.6942 73.1135 55.9363C73.7688 56.2976 74.1314 56.6852 74.1002 57.0654C74.0718 57.4144 73.7158 57.7162 73.1135 57.9583C73.7688 58.3196 74.1314 58.7072 74.1002 59.0874C74.0595 59.5956 73.3234 60.0057 72.1362 60.274C72.1514 60.6499 72.1427 61.0622 72.1064 61.5166C71.9342 63.6353 69.5524 65.2967 66.4019 65.2967C63.2513 65.2967 60.5244 63.0311 60.4939 60.9058C60.4866 60.3845 60.5084 59.9265 60.5556 59.5186C59.0479 59.0147 58.1302 58.3996 58.1782 57.8027C58.2065 57.4537 58.5626 57.1519 59.1649 56.9098C58.5095 56.5485 58.147 56.1609 58.1782 55.7807C58.2065 55.4317 58.5626 55.1299 59.1649 54.8878C58.5095 54.5257 58.1477 54.1382 58.1782 53.7587Z" fill="url(#paint13_linear_601_394)"/>
    <path d="M68.3414 60.7306C69.6471 60.7306 70.8416 60.6347 71.8291 60.4456C71.8865 60.4347 71.9235 60.3795 71.9127 60.322C71.9018 60.2646 71.8465 60.2275 71.7891 60.2384C70.2444 60.5343 68.1816 60.5998 65.98 60.4216C64.1787 60.2762 62.4937 59.9854 61.1074 59.5804C61.0514 59.5644 60.9926 59.5964 60.9766 59.6524C60.9606 59.7084 60.9926 59.7673 61.0485 59.7833C62.448 60.1919 64.1475 60.4856 65.9632 60.6317C66.7807 60.6979 67.5799 60.7306 68.3414 60.7306Z" fill="url(#paint14_linear_601_394)"/>
    <path d="M68.3196 58.7071C70.0162 58.7071 71.5327 58.5472 72.6015 58.2425C72.6575 58.2265 72.6902 58.1684 72.6742 58.1116C72.6582 58.0557 72.6 58.0229 72.5434 58.0389C71.0197 58.473 68.566 58.6075 65.9793 58.3988C63.4209 58.1924 61.0355 57.6732 59.5968 57.0094C59.5438 56.9847 59.4813 57.0079 59.4566 57.061C59.4319 57.1141 59.4551 57.1766 59.5082 57.2013C60.9679 57.8746 63.3802 58.401 65.9618 58.6097C66.7683 58.6751 67.5618 58.7071 68.3196 58.7071Z" fill="url(#paint15_linear_601_394)"/>
    <path d="M68.3413 56.6866C70.173 56.6866 71.7759 56.499 72.8549 56.1427C72.9101 56.1245 72.9406 56.0649 72.9225 56.0096C72.9043 55.9544 72.8447 55.9238 72.7895 55.942C71.2884 56.4372 68.7423 56.6 65.9805 56.3776C63.4222 56.1711 61.0367 55.6519 59.5981 54.9881C59.545 54.9641 59.4826 54.9866 59.4578 55.0397C59.4331 55.0928 59.4564 55.1553 59.5094 55.18C60.9692 55.8533 63.3815 56.3805 65.9631 56.5884C66.7805 56.6546 67.5805 56.6866 68.3413 56.6866Z" fill="url(#paint16_linear_601_394)"/>
    <path d="M68.3265 54.6638C69.7797 54.6638 71.1014 54.546 72.1288 54.3177C72.1855 54.3054 72.2218 54.2487 72.2088 54.192C72.1964 54.1352 72.1397 54.0989 72.0831 54.112C70.5383 54.4551 68.3135 54.5446 65.9796 54.3563C63.4445 54.152 61.0707 53.6379 59.6299 52.9814C59.5768 52.9574 59.5143 52.9806 59.4903 53.0337C59.4664 53.0868 59.4896 53.1493 59.5427 53.1733C61.0046 53.8393 63.4045 54.3599 65.9629 54.5664C66.7709 54.6318 67.5672 54.6638 68.3265 54.6638Z" fill="url(#paint17_linear_601_394)"/>
    <path d="M77.0508 43.5527C77.5849 41.6601 78.4917 39.8911 79.7131 38.3504C82.3303 35.0495 86.6006 28.3364 87.1259 19.1745C87.8903 5.84787 76.0787 -0.824516 65.3003 0.0814226C54.5219 0.987361 43.8866 9.01793 45.0506 21.4161C45.767 29.0445 50.0344 34.8306 53.2111 38.1541C55.2281 40.2641 56.6675 42.8488 57.4464 45.6634C58.3997 49.1082 60.6689 53.4009 66.0617 53.6627C73.0415 54 75.9399 47.4912 77.0508 43.5527Z" fill="url(#paint18_linear_601_394)"/>
    <path d="M64.2802 51.0045L60.5092 26.4591C60.4314 25.9523 60.1822 25.6113 59.9519 25.6986C59.7223 25.7858 59.5987 26.2671 59.6772 26.7746C59.6794 26.7884 59.6823 26.8052 59.6845 26.8183L63.9801 51.1354C64.0121 51.3179 64.1051 51.4335 64.1872 51.3935C64.2672 51.3535 64.3071 51.1812 64.2802 51.0045Z" fill="url(#paint19_linear_601_394)"/>
    <path d="M68.195 51.1993L71.9661 26.6539C72.0439 26.1471 72.2931 25.8061 72.5234 25.8934C72.7538 25.9806 72.8766 26.462 72.7981 26.9687C72.7959 26.9825 72.793 26.9993 72.7908 27.0124L68.4951 51.3295C68.4632 51.5119 68.3702 51.6276 68.2881 51.5876C68.2081 51.5483 68.1682 51.376 68.195 51.1993Z" fill="url(#paint20_linear_601_394)"/>
    <path opacity="0.79" d="M60.5362 24.3513C60.6321 24.1971 60.8537 24.1397 61.031 24.2226L63.1309 25.2041L63.8597 23.1261C63.8982 23.0178 63.9875 22.9218 64.1147 22.8688C64.3559 22.7692 64.6451 22.8586 64.7599 23.068L64.7635 23.0745L66.4907 26.2257L68.0936 21.7403L68.0965 21.7331C68.1357 21.6233 68.2185 21.5251 68.3391 21.4597C68.608 21.3128 68.9626 21.3826 69.1319 21.616L71.5464 24.9417C71.6445 25.0776 71.611 25.2608 71.4613 25.3612C71.3015 25.4688 71.0719 25.4441 70.9476 25.3052L68.8216 22.932L66.9077 27.1992L66.9063 27.2021C66.8758 27.2705 66.8176 27.3301 66.7377 27.3672C66.5582 27.4515 66.3337 27.3934 66.2371 27.2378L64.3901 24.272L63.6947 25.772L63.6889 25.7851C63.6838 25.796 63.678 25.8062 63.6715 25.8171C63.5755 25.9712 63.3547 26.0286 63.1766 25.9458L60.6837 24.7802C60.5071 24.6981 60.4403 24.5054 60.5362 24.3513Z" fill="white"/>
    <path opacity="0.79" d="M53.1297 34.8779C53.206 34.8779 53.2823 34.8546 53.3484 34.8052C53.5119 34.6845 53.5453 34.454 53.4247 34.2904C52.7802 33.4215 52.1895 32.5229 51.6685 31.6206C51.5675 31.4446 51.3422 31.3843 51.1664 31.4861C50.9905 31.5879 50.9302 31.8125 51.032 31.9885C51.5668 32.9155 52.1735 33.8374 52.8347 34.7288C52.9067 34.827 53.0178 34.8779 53.1297 34.8779Z" fill="white"/>
    <path opacity="0.79" d="M50.0273 29.5506C50.076 29.5506 50.1262 29.5404 50.1734 29.5201C50.3594 29.4394 50.4451 29.2227 50.3638 29.0366C46.3653 19.8223 49.8159 12.0542 49.8515 11.9764C49.9358 11.7918 49.8544 11.5736 49.6699 11.4893C49.4853 11.405 49.2673 11.4857 49.183 11.6703C49.146 11.7503 45.5551 19.8027 49.6895 29.3296C49.7505 29.4677 49.8857 29.5506 50.0273 29.5506Z" fill="white"/>
    <path d="M52.805 119.503C55.7818 112.404 66.5653 90.8817 85.6407 97.5286C85.9212 97.6268 85.8892 98.0354 85.5964 98.0899C81.3901 98.8701 65.8045 102.809 53.3056 119.784C53.1014 120.061 52.672 119.819 52.805 119.503Z" fill="#91B3FA"/>
    <path d="M52.9678 119.947C57.2562 115.902 70.0254 100.254 86.9835 107.405C87.1695 107.484 87.1324 107.76 86.9312 107.781C82.7402 108.225 61.9318 110.862 53.0492 120.29C52.8137 120.54 52.7186 120.182 52.9678 119.947Z" fill="#91B3FA"/>
    <path d="M53.371 118.17C53.7787 112.82 56.1677 92.618 69.1695 88.4511C69.2647 88.4205 69.3453 88.5289 69.2879 88.6103C67.7214 90.8213 56.3232 107.156 53.5738 118.203C53.5433 118.326 53.3609 118.297 53.371 118.17Z" fill="#91B3FA"/>
    <path d="M52.077 124.302C51.963 124.364 51.8511 124.216 51.9433 124.124C54.2401 121.835 63.7498 113.421 75.823 117.564C89.5005 122.257 65.5511 116.986 52.077 124.302Z" fill="#91B3FA"/>
    <path d="M52.3921 120.109C52.4198 120.509 52.9879 120.557 53.0773 120.166C54.5196 113.82 57.5764 96.3209 48.6799 91.8697C38.1501 86.6013 50.9622 99.3593 52.3921 120.109Z" fill="#91B3FA"/>
    <path d="M53.007 120.065C51.5124 116.168 45.7512 104.069 33.7609 110.607C33.5589 110.717 33.6243 111.025 33.8546 111.039C36.5524 111.209 45.5216 112.373 52.6212 120.296C52.7905 120.486 53.0978 120.304 53.007 120.065Z" fill="#91B3FA"/>
    <path d="M52.6831 121.043C52.1316 118.636 49.2637 113.811 34.6685 118.231C34.5813 118.257 34.6038 118.388 34.6946 118.379C37.5625 118.081 47.2532 117.422 52.0037 121.457C52.3089 121.718 52.7725 121.433 52.6831 121.043Z" fill="#91B3FA"/>
    <path d="M48.4824 186.905L48.4773 186.412V185.882L48.4853 184.822L48.4991 182.701L48.5609 178.458C48.5987 175.63 48.6546 172.802 48.7142 169.975C48.8428 164.322 49.0048 158.671 49.2628 153.025C49.5156 147.38 49.8644 141.74 50.4072 136.122C50.6854 133.314 51.0212 130.512 51.4731 127.731C51.917 124.95 52.4889 122.182 53.4175 119.525L53.1654 119.422C52.6124 120.733 52.1285 122.078 51.7637 123.453L51.4789 124.482C51.3895 124.826 51.3125 125.173 51.229 125.519L50.9819 126.557L50.7632 127.601C50.1994 130.387 49.7634 133.195 49.4219 136.013C49.0717 138.83 48.8123 141.655 48.5812 144.482C48.3654 147.309 48.2034 150.14 48.0624 152.97C47.9396 155.802 47.8481 158.634 47.782 161.467C47.7376 164.3 47.694 167.132 47.7093 169.966C47.7122 172.799 47.7551 175.631 47.8263 178.462L47.9767 182.709L48.0697 184.832L48.1329 185.894L48.1685 186.425C48.1838 186.604 48.1881 186.769 48.223 186.992L48.4824 186.905Z" fill="#91B3FA"/>
    <path d="M43.548 136.888C41.5543 132.132 34.3304 117.715 21.5517 122.168C21.3635 122.233 21.3853 122.507 21.5815 122.544C24.3992 123.066 34.8397 125.705 43.2131 137.076C43.3497 137.263 43.6374 137.1 43.548 136.888Z" fill="#91B3FA"/>
    <path d="M43.4391 137.186C40.5662 134.476 32.0126 123.993 20.6523 128.784C20.5273 128.837 20.5527 129.022 20.6871 129.036C23.4947 129.332 37.4338 131.099 43.3839 137.415C43.5423 137.583 43.6063 137.343 43.4391 137.186Z" fill="#91B3FA"/>
    <path d="M43.1697 135.996C42.8965 132.412 41.2965 118.878 32.5861 116.087C32.5228 116.067 32.4684 116.14 32.5069 116.193C33.5561 117.674 41.1919 128.617 43.0338 136.017C43.0542 136.1 43.1755 136.081 43.1697 135.996Z" fill="#91B3FA"/>
    <path d="M44.0367 140.103C44.113 140.145 44.1878 140.046 44.1261 139.984C42.5871 138.45 36.217 132.814 28.1293 135.59C18.9668 138.734 35.0102 135.203 44.0367 140.103Z" fill="#91B3FA"/>
    <path d="M43.8249 137.295C43.8068 137.564 43.426 137.595 43.3664 137.333C42.4001 133.082 40.3525 121.359 46.3121 118.378C53.3659 114.848 44.7826 123.394 43.8249 137.295Z" fill="#91B3FA"/>
    <path d="M43.4131 137.266C44.4144 134.655 48.2741 126.55 56.3059 130.929C56.4411 131.003 56.3975 131.209 56.2434 131.219C54.4364 131.333 48.4281 132.113 43.6718 137.42C43.5584 137.547 43.3521 137.425 43.4131 137.266Z" fill="#91B3FA"/>
    <path d="M43.6304 137.921C43.9995 136.309 45.9214 133.075 55.6985 136.037C55.7574 136.054 55.7414 136.143 55.6811 136.136C53.7599 135.936 47.2678 135.495 44.086 138.199C43.8811 138.372 43.5701 138.182 43.6304 137.921Z" fill="#91B3FA"/>
    <path d="M45.5136 186.99C45.542 186.812 45.5434 186.692 45.5551 186.557L45.5805 186.159L45.6255 185.365C45.6553 184.836 45.6742 184.307 45.6946 183.777L45.7999 180.602C45.8697 178.484 45.8748 176.366 45.8886 174.248C45.8929 172.13 45.8966 170.01 45.8559 167.892C45.8115 165.773 45.7607 163.654 45.6691 161.536C45.5747 159.418 45.4621 157.3 45.3131 155.184C45.1503 153.069 44.9622 150.954 44.7006 148.846L44.4971 147.265L44.2566 145.689C44.0866 144.639 43.9079 143.59 43.6797 142.55C43.5758 142.028 43.4581 141.509 43.3259 140.992C43.2597 140.734 43.1994 140.475 43.129 140.218L42.9066 139.449C42.6189 138.423 42.2512 137.415 41.8189 136.44L41.5668 136.543C41.8879 137.544 42.1786 138.551 42.39 139.582L42.5535 140.353C42.6044 140.61 42.6458 140.871 42.6915 141.129L42.8325 141.905L42.9553 142.685C43.0367 143.204 43.1181 143.724 43.1827 144.246C43.251 144.768 43.3331 145.287 43.3884 145.812C43.5141 146.858 43.6245 147.906 43.7342 148.954C44.1375 153.152 44.4303 157.364 44.6381 161.584C44.8437 165.804 44.984 170.029 45.0929 174.256C45.1489 176.37 45.1642 178.484 45.2092 180.599L45.2477 183.772L45.2572 185.357L45.2608 186.15L45.2564 186.905L45.5136 186.99Z" fill="#91B3FA"/>
    <path d="M57.7283 145.684C60.2758 141.523 68.9928 129.099 78.9385 135.387C79.0853 135.479 79.0162 135.734 78.8448 135.736C76.3765 135.769 67.1036 136.555 57.9761 145.917C57.8279 146.07 57.615 145.87 57.7283 145.684Z" fill="#91B3FA"/>
    <path d="M57.7662 145.983C60.6799 143.896 69.798 135.402 78.4874 141.776C78.5826 141.846 78.5281 142.017 78.4118 142.008C75.9937 141.83 63.9343 141.222 57.7699 146.209C57.6071 146.341 57.5969 146.105 57.7662 145.983Z" fill="#91B3FA"/>
    <path d="M58.2109 144.904C59.0959 141.567 62.9157 129.06 70.7593 127.848C70.8167 127.839 70.8494 127.916 70.8066 127.961C69.6527 129.187 61.2242 138.265 58.3214 144.947C58.2894 145.021 58.1899 144.984 58.2109 144.904Z" fill="#91B3FA"/>
    <path d="M56.7308 148.638C56.6589 148.665 56.6139 148.559 56.6771 148.511C58.2531 147.315 64.6464 143.036 70.9489 146.976C78.0892 151.439 65.2262 145.487 56.7308 148.638Z" fill="#91B3FA"/>
    <path d="M57.4219 146.023C57.3885 146.279 57.7031 146.372 57.8012 146.134C59.391 142.28 63.2573 131.554 58.7843 127.768C53.4896 123.286 59.1549 132.751 57.4219 146.023Z" fill="#91B3FA"/>
    <path d="M57.7736 146.062C57.4074 143.436 55.6388 135.158 48.0757 137.978C47.9478 138.025 47.9478 138.228 48.0757 138.262C49.5768 138.664 54.493 140.381 57.528 146.165C57.6007 146.305 57.7961 146.223 57.7736 146.062Z" fill="#91B3FA"/>
    <path d="M57.4712 146.645C57.4545 145.063 56.4278 141.699 47.6541 142.897C47.6018 142.905 47.5981 142.991 47.6512 142.994C49.3057 143.119 54.8518 143.763 57.0374 146.833C57.1776 147.03 57.4741 146.902 57.4712 146.645Z" fill="#91B3FA"/>
    <path d="M47.0988 187.813L47.3466 186.508L47.6103 185.171L48.1524 182.497L49.2714 177.158C49.6528 175.38 50.0459 173.606 50.4506 171.834C50.8452 170.06 51.2528 168.289 51.675 166.521C52.5229 162.987 53.4479 159.475 54.4498 155.989L54.8313 154.683L55.228 153.383C55.4932 152.518 55.7635 151.652 56.0629 150.798C56.6638 149.092 57.2865 147.389 58.1235 145.79L57.8903 145.65C57.3947 146.422 56.9493 147.229 56.5606 148.058C56.3608 148.471 56.1624 148.885 55.9902 149.309C55.8093 149.73 55.6349 150.153 55.4722 150.58C54.8015 152.282 54.2057 154.011 53.6724 155.757C52.6014 159.247 51.728 162.79 50.8982 166.338C50.4877 168.113 50.0924 169.891 49.7095 171.672C49.3426 173.457 48.988 175.243 48.6457 177.032C48.3042 178.82 47.9678 180.61 47.6692 182.406L47.2231 185.101L47.0131 186.452L46.915 187.128L46.8678 187.467C46.8539 187.583 46.835 187.683 46.8271 187.841L47.0988 187.813Z" fill="#91B3FA"/>
    <path d="M53.4169 170.119H41.7993C41.0378 170.119 40.4747 171.267 40.6454 172.469C41.3888 177.69 42.2796 182.986 44.1026 188.362C44.439 189.355 45.0806 189.977 45.7796 189.977H49.5703C50.2584 189.977 50.8905 189.364 51.2167 188.381C52.6772 183.982 54.0817 178.739 54.7756 172.788C54.9369 171.404 54.2866 170.119 53.4169 170.119Z" fill="url(#paint21_linear_601_394)"/>
    <defs>
        <linearGradient id="paint0_linear_601_394" x1="48.996" y1="242.293" x2="157.805" y2="272.85" gradientUnits="userSpaceOnUse">
            <stop stop-color="#CB236D"/>
            <stop offset="1" stop-color="#4C246D"/>
        </linearGradient>
        <linearGradient id="paint1_linear_601_394" x1="194.474" y1="204.665" x2="113.101" y2="132.654" gradientUnits="userSpaceOnUse">
            <stop stop-color="#4F52FF"/>
            <stop offset="1" stop-color="#4042E2"/>
        </linearGradient>
        <linearGradient id="paint2_linear_601_394" x1="121.444" y1="150.291" x2="91.8507" y2="150.291" gradientUnits="userSpaceOnUse">
            <stop stop-color="#FEBBBA"/>
            <stop offset="1" stop-color="#FF928E"/>
        </linearGradient>
        <linearGradient id="paint3_linear_601_394" x1="153.324" y1="119.871" x2="118.918" y2="99.9483" gradientUnits="userSpaceOnUse">
            <stop stop-color="#FEBBBA"/>
            <stop offset="1" stop-color="#FF928E"/>
        </linearGradient>
        <linearGradient id="paint4_linear_601_394" x1="123.065" y1="78.4007" x2="123.272" y2="136.695" gradientUnits="userSpaceOnUse">
            <stop stop-color="#FEBBBA"/>
            <stop offset="1" stop-color="#FF928E"/>
        </linearGradient>
        <linearGradient id="paint5_linear_601_394" x1="137.884" y1="103.369" x2="104.304" y2="78.1888" gradientUnits="userSpaceOnUse">
            <stop stop-color="#09005D"/>
            <stop offset="1" stop-color="#1A0F91"/>
        </linearGradient>
        <linearGradient id="paint6_linear_601_394" x1="142.13" y1="138.757" x2="136.936" y2="98.6983" gradientUnits="userSpaceOnUse">
            <stop stop-color="#FEBBBA"/>
            <stop offset="1" stop-color="#FF928E"/>
        </linearGradient>
        <linearGradient id="paint7_linear_601_394" x1="214.971" y1="181.504" x2="133.598" y2="109.493" gradientUnits="userSpaceOnUse">
            <stop stop-color="#4F52FF"/>
            <stop offset="1" stop-color="#4042E2"/>
        </linearGradient>
        <linearGradient id="paint8_linear_601_394" x1="173.069" y1="-35.0957" x2="178.955" y2="108.053" gradientUnits="userSpaceOnUse">
            <stop stop-color="#09005D"/>
            <stop offset="1" stop-color="#1A0F91"/>
        </linearGradient>
        <linearGradient id="paint9_linear_601_394" x1="150.842" y1="195.079" x2="149.492" y2="176.296" gradientUnits="userSpaceOnUse">
            <stop stop-color="#FEBBBA"/>
            <stop offset="1" stop-color="#FF928E"/>
        </linearGradient>
        <linearGradient id="paint10_linear_601_394" x1="129.315" y1="262.255" x2="70.0643" y2="262.255" gradientUnits="userSpaceOnUse">
            <stop stop-color="#9CFFFB"/>
            <stop offset="1" stop-color="#9BFFFA"/>
        </linearGradient>
        <linearGradient id="paint11_linear_601_394" x1="122.473" y1="262.254" x2="63.2225" y2="262.254" gradientUnits="userSpaceOnUse">
            <stop stop-color="#9CFFFB"/>
            <stop offset="1" stop-color="#9BFFFA"/>
        </linearGradient>
        <linearGradient id="paint12_linear_601_394" x1="191.321" y1="307.118" x2="22.2367" y2="107.307" gradientUnits="userSpaceOnUse">
            <stop stop-color="#09005D"/>
            <stop offset="1" stop-color="#1A0F91"/>
        </linearGradient>
        <linearGradient id="paint13_linear_601_394" x1="57.4374" y1="48.3537" x2="27.4682" y2="20.6829" gradientUnits="userSpaceOnUse">
            <stop stop-color="#09005D"/>
            <stop offset="1" stop-color="#1A0F91"/>
        </linearGradient>
        <linearGradient id="paint14_linear_601_394" x1="74.5595" y1="78.5872" x2="31.891" y2="-18.9484" gradientUnits="userSpaceOnUse">
            <stop stop-color="#4F52FF"/>
            <stop offset="1" stop-color="#4042E2"/>
        </linearGradient>
        <linearGradient id="paint15_linear_601_394" x1="75.116" y1="78.344" x2="32.4463" y2="-19.1927" gradientUnits="userSpaceOnUse">
            <stop stop-color="#4F52FF"/>
            <stop offset="1" stop-color="#4042E2"/>
        </linearGradient>
        <linearGradient id="paint16_linear_601_394" x1="75.9761" y1="77.968" x2="33.3056" y2="-19.5693" gradientUnits="userSpaceOnUse">
            <stop stop-color="#4F52FF"/>
            <stop offset="1" stop-color="#4042E2"/>
        </linearGradient>
        <linearGradient id="paint17_linear_601_394" x1="76.3926" y1="77.7853" x2="33.7231" y2="-19.751" gradientUnits="userSpaceOnUse">
            <stop stop-color="#4F52FF"/>
            <stop offset="1" stop-color="#4042E2"/>
        </linearGradient>
        <linearGradient id="paint18_linear_601_394" x1="65.7974" y1="13.3258" x2="68.3727" y2="65.9009" gradientUnits="userSpaceOnUse">
            <stop stop-color="#FF928E"/>
            <stop offset="1" stop-color="#FE7062"/>
        </linearGradient>
        <linearGradient id="paint19_linear_601_394" x1="16.7573" y1="-1.20723" x2="78.8863" y2="53.1661" gradientUnits="userSpaceOnUse">
            <stop stop-color="#E1473D"/>
            <stop offset="1" stop-color="#E9605A"/>
        </linearGradient>
        <linearGradient id="paint20_linear_601_394" x1="20.2605" y1="-5.21038" x2="82.3895" y2="49.163" gradientUnits="userSpaceOnUse">
            <stop stop-color="#E1473D"/>
            <stop offset="1" stop-color="#E9605A"/>
        </linearGradient>
        <linearGradient id="paint21_linear_601_394" x1="41.5648" y1="205.089" x2="45.8832" y2="182.334" gradientUnits="userSpaceOnUse">
            <stop stop-color="#4F52FF"/>
            <stop offset="1" stop-color="#4042E2"/>
        </linearGradient>
    </defs>
</svg>
