<svg width="476" height="473" viewBox="0 0 476 473" fill="none" xmlns="http://www.w3.org/2000/svg">
<path opacity="0.2" d="M127.655 290.96L142.234 83.0345C142.578 78.1324 143.98 73.3631 146.344 69.0551L157.846 48.0965C168.229 29.1769 193.384 24.5929 209.773 38.6337L369.052 175.088C376.896 181.808 381.26 191.73 380.912 202.054L375.984 348.268C375.367 366.549 360.398 381.066 342.107 381.122L208.17 381.534C198.213 381.564 188.744 377.229 182.261 369.672L135.766 315.477C129.943 308.689 127.029 299.881 127.655 290.96Z" fill="#139FAC"/>
<path d="M94.2432 163.614C94.2432 163.614 100.425 150.958 115.208 152.365C115.208 152.365 136.672 131.271 159.559 149.552C159.559 149.552 183.888 145.022 201.906 153.474C213.92 159.109 217.888 165.02 217.888 165.02L94.2432 163.614Z" fill="#F8FCFF"/>
<path d="M267.557 142.116C244.296 109.61 211.287 147.631 211.287 147.631C211.287 147.631 180.51 107.718 155.428 138.789C130.346 169.86 208.831 233.426 208.831 233.426C208.831 233.426 290.82 174.621 267.557 142.116Z" fill="#F78248"/>
<path d="M258.47 153.936C256.011 154.74 253.324 153.761 251.94 151.541C250.457 149.163 248.056 146.433 244.565 145.626C242.218 145.082 240.746 142.704 241.28 140.314C241.814 137.924 244.149 136.425 246.498 136.969C254.062 138.719 258.391 144.824 260.504 148.912C261.511 150.865 260.535 153.27 258.47 153.936Z" fill="#FFB699"/>
<path d="M202.768 220.942C198.419 216.671 186.643 203.379 186.643 203.379C184.741 201.504 181.984 197.024 183.826 195.086C185.669 193.147 191.003 198.073 192.906 199.949C192.906 199.949 201.439 210.548 206.226 214.075C211.485 217.95 213.623 220.97 211.781 222.907C210.841 223.896 206.589 224.696 202.768 220.942Z" fill="#FFB699"/>
<g opacity="0.5">
<path opacity="0.5" d="M169.909 264.696C169.909 264.696 155.159 250.449 139.506 247.74C137.426 247.38 136.052 249.89 137.433 251.513C137.456 251.541 137.48 251.567 137.503 251.595C139.908 254.329 158.522 258.695 169.909 264.696Z" fill="#AEC3FF"/>
<path opacity="0.5" d="M174.569 268.405C174.569 268.405 150.52 255.343 129.844 258.052C128.583 258.217 127.623 259.357 127.737 260.645C127.813 261.484 128.331 262.457 129.798 263.418C133.715 265.983 158.366 264.915 174.569 268.405Z" fill="#AEC3FF"/>
</g>
<g opacity="0.5">
<path opacity="0.5" d="M262.635 243.9C262.635 243.9 274.382 232.553 286.849 230.395C288.507 230.107 289.6 232.107 288.5 233.4C288.481 233.421 288.462 233.443 288.444 233.465C286.529 235.644 271.704 239.121 262.635 243.9Z" fill="#AEC3FF"/>
<path opacity="0.5" d="M258.923 246.855C258.923 246.855 278.076 236.453 294.543 238.61C295.546 238.741 296.312 239.649 296.22 240.675C296.16 241.344 295.748 242.118 294.579 242.883C291.461 244.926 271.829 244.075 258.923 246.855Z" fill="#AEC3FF"/>
</g>
<path opacity="0.3" d="M164.085 278.774C164.085 278.774 167.027 291.525 164.662 291.936C162.298 292.347 162.391 277.486 162.391 277.486C162.391 277.486 150.4 272.272 145.814 272.935C145.814 272.935 153.646 285.161 151.255 284.965C148.864 284.772 140.134 272.435 140.134 272.435C140.134 272.435 127.999 270.712 126.386 278.063C124.773 285.413 128.052 288.902 129.856 289.275C131.659 289.648 143.093 288.976 142.863 290.502C142.632 292.028 135.011 294.801 130.643 293.635C130.643 293.635 135.922 305.37 142.137 304.481C148.35 303.592 150.11 299.571 153.96 299.093C157.81 298.615 160.68 299.545 158.794 300.692C156.909 301.839 150.34 301.425 147.337 304.267C144.335 307.11 141.872 308.955 147.731 309.835C163.765 312.244 167.708 300.287 167.708 300.287C167.708 300.287 178.574 293.425 172.994 285.04C172.996 285.038 168.603 279.933 164.085 278.774Z" fill="#AEC3FF"/>
<path opacity="0.5" d="M281.715 259.45C280.278 252.028 268.05 253.444 268.05 253.444C268.05 253.444 258.976 265.607 256.572 265.74C254.165 265.874 262.334 253.798 262.334 253.798C257.745 253.014 245.574 257.942 245.574 257.942C245.574 257.942 245.298 272.866 242.934 272.393C240.57 271.919 243.841 259.191 243.841 259.191C239.276 260.238 234.738 265.252 234.738 265.252C228.926 273.53 239.667 280.7 239.667 280.7C239.667 280.7 239.461 285.869 235.926 291.564C235.926 291.564 235.144 292.606 234.298 294.412L235.518 294.5C235.641 294.173 235.772 293.86 235.914 293.56C235.914 293.557 235.916 293.555 235.917 293.554C235.918 293.549 235.921 293.545 235.923 293.541C236.019 293.354 236.157 293.09 236.331 292.768C236.331 292.768 236.331 292.768 236.331 292.767C236.331 292.765 236.332 292.765 236.332 292.765C236.756 292.05 237.045 291.519 237.231 291.134C237.231 291.133 237.232 291.132 237.232 291.132C238.508 288.881 240.324 285.959 241.441 285.4C241.441 285.4 241.319 285.197 241.219 284.812C241.289 285 241.363 285.196 241.441 285.4C243.214 290.101 253.594 291.602 259.49 290.804C265.386 290.004 262.967 288.154 260.024 285.222C257.081 282.29 250.474 282.536 248.609 281.337C246.744 280.136 249.649 279.276 253.503 279.856C257.357 280.436 259.024 284.519 265.241 285.572C271.459 286.625 277.053 274.977 277.053 274.977C272.637 276.035 265.054 273.054 264.861 271.515C264.667 269.976 276.133 270.946 277.952 270.618C279.773 270.291 283.152 266.872 281.715 259.45Z" fill="#AEC3FF"/>
<path opacity="0.5" d="M201.921 307.484C202.586 309.025 211.376 309.757 215.652 307.276C215.652 307.276 213.343 321.146 206.556 321.992C199.768 322.841 196.804 319.111 192.618 319.713C188.432 320.315 185.669 322.118 187.971 322.784C190.272 323.451 197.073 321.128 201.02 323.26C202.835 324.241 204.466 325.017 205.124 325.83C203.392 325.83 201.653 325.83 199.91 325.828C192.866 325.825 185.743 325.822 178.642 325.817C178.552 325.234 178.472 324.916 178.472 324.916C178.472 324.916 165.135 320.812 168.686 310.38C168.686 310.38 171.896 303.745 176.332 301.23C176.332 301.23 176.764 315.497 179.368 315.251C181.97 315.004 177.759 299.389 177.759 299.389C177.759 299.389 188.938 290.457 193.951 289.839C193.951 289.839 189.091 304.956 191.553 304.066C194.017 303.174 199.791 287.682 199.791 287.682C199.791 287.682 212.089 282.386 215.822 289.661C219.555 296.935 217.069 301.55 215.274 302.46C213.479 303.369 201.255 305.943 201.921 307.484Z" fill="#AEC3FF"/>
<path d="M188.02 120.093C188.02 120.093 192.796 110.939 204.217 111.956C204.217 111.956 220.798 96.7007 238.48 109.922C238.48 109.922 257.275 106.646 271.195 112.758C280.476 116.833 283.54 121.109 283.54 121.109L188.02 120.093Z" fill="#F8FCFF"/>
<path d="M262.024 105.105C262.024 105.105 264.459 100.121 270.28 100.675C270.28 100.675 278.732 92.368 287.746 99.5674C287.746 99.5674 297.327 97.7836 304.422 101.112C309.153 103.332 310.716 105.659 310.716 105.659L262.024 105.105Z" fill="#F8FCFF"/>
<path d="M85.0322 130.909C85.0322 130.909 87.467 125.925 93.2884 126.479C93.2884 126.479 101.741 118.172 110.754 125.371C110.754 125.371 120.336 123.588 127.431 126.916C132.161 129.136 133.725 131.463 133.725 131.463L85.0322 130.909Z" fill="#F8FCFF"/>
<path d="M85.2998 244.053C79.1635 242.463 72.4175 232.77 72.4175 232.77L74.1451 231.244C75.9344 233.391 83.3717 237.09 83.3717 237.09C83.3317 235.125 83.3818 233.333 83.5049 231.7C84.3308 220.613 88.4359 216.918 89.5552 216.108C89.7356 215.977 89.8401 215.922 89.8401 215.922C89.8401 215.922 89.8444 216.002 89.8501 216.155C89.8659 216.484 89.8959 217.149 89.926 218.059C90.155 224.846 90.4269 245.383 85.2998 244.053Z" fill="#FFB27D"/>
<path d="M90.2183 228.92C90.2039 229.527 90.1839 230.137 90.1596 230.747C89.962 235.68 89.4353 240.584 88.2458 243.454C87.9524 244.158 87.6218 244.741 87.2439 245.169C86.6957 245.796 86.0515 246.099 85.2958 245.985C81.1505 245.369 80.0699 241.43 79.8509 238.5C79.7135 236.677 79.911 235.246 79.911 235.246C79.911 235.246 81.9979 236.412 82.3271 236.103C83.0056 235.465 83.2561 231.222 83.4379 227.824C83.6769 223.369 83.7399 218.361 84.1578 217.498C85.353 215.034 89.9663 215.034 89.9663 215.034C89.9663 215.034 90.3986 221.745 90.2183 228.92Z" fill="#F99746"/>
<path d="M95.106 203.751C95.106 203.751 91.6879 205.802 93.7849 209.773C93.7849 209.773 90.7933 209.215 90.1463 208.305C90.1463 208.305 90.2222 208.684 90.3324 208.875C90.3324 208.875 87.5813 208.24 86.6824 207.072C85.7821 205.904 90.1964 191.904 97.3461 195.53C97.3461 195.53 103.885 196.766 101.324 204.156C98.7632 211.546 101.184 212.199 101.184 212.199C101.184 212.199 100.422 212.355 100.097 212.268C100.097 212.268 99.6706 211.956 99.6463 211.663C99.6463 211.663 99.6306 212.108 99.7179 212.275C99.7179 212.275 97.0398 211.823 95.9963 210.467C94.9529 209.111 94.3288 205.208 95.106 203.751Z" fill="#233862"/>
<path d="M90.1737 215.65C90.169 215.652 90.1658 215.654 90.161 215.655C90.1372 215.652 90.1419 215.65 90.1737 215.65Z" fill="#FFB27D"/>
<path d="M98.4786 213.215C98.5788 214.132 98.699 214.954 98.752 215.344C98.8722 216.222 90.6934 215.65 90.1724 215.649C90.5359 215.489 91.6452 211.905 91.9974 210.538C92.4225 208.88 92.7574 207.09 92.7574 207.09L98.533 207.462L98.8765 207.483C98.6632 208.285 98.5115 209.041 98.407 209.745C98.3927 209.84 98.3798 209.936 98.3669 210.028C98.261 210.809 98.3526 212.084 98.4786 213.215Z" fill="#FFB27D"/>
<path d="M91.9589 206.498C91.9589 206.498 91.0228 203.474 91.2117 201.157C91.3463 199.501 93.6608 193.856 99.2245 196.259C99.2245 196.259 100.861 196.88 102.157 198.391C103.188 199.593 104.516 201.945 101.16 206.513L100.185 208.098L91.9589 206.498Z" fill="#233862"/>
<path d="M90.9067 229.393L90.6004 239.375C90.6004 239.375 89.5169 241.265 88.2458 243.452C87.9195 244.014 87.5802 244.595 87.2439 245.168C86.6957 245.794 86.0515 246.098 85.2958 245.984C81.1505 245.367 80.0699 241.428 79.8509 238.499C79.7135 236.676 79.911 235.245 79.911 235.245C79.911 235.245 81.7245 236.037 82.0537 235.727C82.7322 235.089 83.2575 231.221 83.4393 227.822L86.2691 226.194L90.2182 228.918L90.9067 229.393Z" fill="#ED7D2B"/>
<path d="M98.4787 213.215C94.4394 212.01 92.7246 207.259 92.7246 207.259C94.4337 207.31 96.6594 208.518 98.4057 209.745C98.3914 209.84 98.3785 209.936 98.3656 210.028C98.2611 210.809 98.3527 212.084 98.4787 213.215Z" fill="#ED975D"/>
<path d="M98.7636 211.547C98.7636 211.547 91.4651 209.71 92.6588 205.099C93.8526 200.49 93.7137 197.148 98.4244 198.124C103.135 199.102 103.582 201.103 103.55 202.741C103.52 204.379 100.693 211.905 98.7636 211.547Z" fill="#FFB27D"/>
<path d="M104.001 200.121C101.828 196.622 99.2387 196.257 99.2258 196.257C97.3707 194.991 94.9174 198.098 94.9174 198.098C93.5719 201.274 90.7363 202.537 90.7363 202.537C90.7363 202.537 91.8442 203.728 95.1063 203.751C96.1025 203.758 97.1102 203.308 98.032 202.68C96.2485 204.456 94.1702 205.522 94.1702 205.522C98.0836 204.821 100.822 200.43 101.307 199.602C101.834 200.465 102.358 201.467 102.385 202.088C102.442 203.359 101.977 205.819 102.69 205.924C102.69 205.925 105.464 202.477 104.001 200.121Z" fill="#233862"/>
<path d="M97.624 208.591C97.624 208.591 97.7156 209.293 98.1551 209.458C98.5945 209.624 99.7625 209.924 99.8799 209.85C99.9987 209.776 100.435 209.228 100.435 209.228C100.435 209.228 98.5974 208.511 97.624 208.591Z" fill="white"/>
<path d="M94.8987 279.113C94.8057 279.508 94.7126 279.897 94.6225 280.284C94.0728 282.612 93.5604 284.772 93.2369 286.577C92.8175 288.928 92.7187 290.677 93.2684 291.413C95.5342 294.438 93.2684 318.451 93.2684 318.451L90.6891 321.157C90.6891 321.157 86.2046 297.449 84.9879 293.734C84.434 292.045 83.6295 284.833 82.9167 277.47C82.8809 277.101 82.8452 276.733 82.8108 276.366C82.6877 275.077 82.5689 273.795 82.4558 272.543C81.8174 265.577 81.3394 259.61 81.3394 259.61C81.3394 259.61 86.0958 256.204 90.4185 255.825C92.9649 255.6 95.3596 256.424 96.5419 259.61C98.2653 264.243 96.5205 272.246 94.8987 279.113Z" fill="#FFB27D"/>
<path d="M94.1732 280.706C90.8439 277.01 88.651 271.717 84.5874 264.307C84.2424 260.539 87.161 256.956 90.4188 255.825C92.9652 255.6 95.3599 256.424 96.5422 259.61C98.2655 264.243 95.795 273.84 94.1732 280.706Z" fill="#ED975D"/>
<path d="M107.788 233.322L125.158 237.89V239.955C125.158 239.955 107.873 239.748 106.758 237.788C105.643 235.828 107.788 233.322 107.788 233.322Z" fill="#FFB27D"/>
<path d="M125.158 301.387L124.346 304.8C124.346 304.8 100.85 292.443 97.8116 290.071C96.5906 289.117 94.9775 283.939 93.4831 278.082C91.2574 269.353 89.2964 259.113 89.2964 259.113C89.2964 259.113 92.59 246.216 101.407 254.109C106.683 258.832 105.863 267.935 105.285 275.015C104.9 279.764 104.623 283.604 106.373 284.6C109.785 286.539 119.8 295.473 122.971 301.62L125.158 301.387Z" fill="#FFB27D"/>
<path d="M116.312 233.322C117.436 234.947 116.817 238.098 114.46 240.634C112.996 242.209 111.015 243.141 107.788 242.657C106.383 242.445 103.902 240.845 102.608 238.197C102.415 237.802 101.924 236.641 101.924 236.641C101.924 236.641 100.135 238.464 100.069 238.809C100.039 238.964 99.8842 240.342 99.8599 240.53C99.8327 240.758 99.9916 241.596 99.9916 241.596C99.9916 241.596 91.4449 245.401 84.3796 241.068C84.3796 241.068 82.7078 230.019 83.8114 220.566C84.0232 218.755 88.5635 216.283 89.9677 215.033C90.2826 214.751 90.6032 213.903 90.5173 213.358C90.4458 212.896 90.9668 212.119 91.4048 212.261C92.2493 212.536 94.6382 213.74 96.3201 213.281C97.1575 213.055 98.2195 212.068 99.0311 212.294C100.023 212.57 98.9753 215.002 99.5378 215.033C100.312 215.072 103.793 215.127 104.85 216.611C105.714 217.826 106.174 220.094 107.682 224.384C107.682 224.384 107.684 224.387 107.685 224.396C110.514 232.448 114.663 230.937 116.312 233.322Z" fill="#F99746"/>
<path d="M101.924 236.642C101.924 236.642 101.064 234.596 100.437 231.179C100.259 230.214 92.975 237.625 94.8 240.634C96.6236 243.643 101.924 236.642 101.924 236.642Z" fill="#ED7D2B"/>
<path d="M112.423 267.515C112.423 267.515 110.134 268.182 106.696 268.92C99.5923 270.446 87.5774 272.275 80.6968 269.15C80.6968 269.15 81.1362 258.847 82.3328 251.057C83.289 244.825 84.1764 240.736 84.1764 240.736C84.1764 240.736 90.5732 242.368 97.0688 241.102C97.1303 241.09 97.1919 241.078 97.2534 241.065C98.1037 240.893 98.9553 240.669 99.7927 240.385C99.7927 240.385 104.697 247.542 107.226 252.52C108.976 255.965 112.423 267.515 112.423 267.515Z" fill="#B0D0FF"/>
<path d="M112.423 267.515C112.423 267.515 110.134 268.182 106.696 268.92C105.957 269.001 105.189 269.077 104.393 269.15C92.8633 254.161 97.1145 241.138 97.1145 241.138C97.1603 241.113 97.2075 241.089 97.2533 241.065C98.1035 240.893 98.9552 240.669 99.7926 240.385C99.7926 240.385 104.696 247.542 107.226 252.52C108.976 255.965 112.423 267.515 112.423 267.515Z" fill="#98BAF4"/>
<path d="M125.158 237.89C125.158 237.89 128.344 236.291 129.611 236.136C130.877 235.982 133.006 235.93 133.006 236.136C133.006 236.343 130.726 237.785 130.117 237.89C129.509 237.995 128.344 238.87 128.699 238.974C129.054 239.077 130.929 238.639 130.953 238.974C130.979 239.309 129.813 239.516 129.611 239.774C129.407 240.032 128.699 240.341 127.558 240.186C126.417 240.032 125.156 239.955 125.156 239.955V237.89H125.158Z" fill="#FFB27D"/>
<path d="M129.803 302.712C129.803 302.712 129.796 302.71 129.781 302.707C129.675 302.681 129.193 302.518 128.872 301.735C128.662 301.219 128.597 300.797 128.404 300.287L127.611 298.892C126.781 297.78 126.49 298.039 126.49 298.039C126.49 298.039 126.273 298.322 125.952 298.697C125.423 299.313 124.611 300.173 124.037 300.393C123.629 300.549 123.373 300.807 123.217 301.047C123.017 301.349 122.972 301.62 122.972 301.62C122.972 301.62 124.675 301.923 124.528 302.777C124.239 304.431 124.308 304.733 124.336 304.787L124.346 304.799C124.346 304.799 127.252 306.348 128.181 306.651C129.834 307.19 130.699 308.334 131.234 308.857C131.452 309.069 131.752 309.166 132.047 309.118C132.484 309.048 133.049 308.905 133.172 308.633L129.803 302.712Z" fill="#2B478B"/>
<path d="M95.8619 322.36L94.4706 323.126C93.9653 323.309 93.5473 323.361 93.0349 323.561C92.2577 323.864 91.7094 324.46 91.6837 324.568C91.2915 326.193 90.7161 326.143 90.7161 326.143H85.1423C84.8789 326.009 85.3255 324.859 85.5402 324.645C86.0684 324.114 87.6515 324.381 88.2283 322.714C88.5533 321.777 90.1578 318.865 90.1578 318.865L90.1693 318.855C90.2237 318.826 90.5214 318.766 92.1374 319.108C92.9719 319.285 93.3183 317.559 93.3183 317.559C93.3183 317.559 93.5845 317.613 93.8737 317.824C94.1041 317.991 94.3503 318.259 94.492 318.678C94.6924 319.27 95.5126 320.121 96.1023 320.677C96.4602 321.013 96.7321 321.242 96.7321 321.242C96.7321 321.242 96.9783 321.548 95.8619 322.36Z" fill="#2B478B"/>
<path d="M74.1453 231.244C74.1453 231.244 74.4029 229.447 73.9478 228.262C73.4668 227.014 73.3595 225.655 72.9759 226.195C72.5908 226.734 72.9158 228.255 72.578 228.207C72.4291 228.185 71.9739 227.923 71.7936 227.191C71.566 226.262 72.1199 225.042 71.3599 225.161C70.6356 225.276 69.6637 228.704 70.1446 229.635C70.6256 230.567 72.4176 232.77 72.4176 232.77L74.1453 231.244Z" fill="#FFB27D"/>
<path d="M90.9682 242.657C86.2304 242.657 84.2766 240.997 84.132 240.883L83.8257 238.611C83.8715 238.645 90.2296 242.533 100.069 238.809L99.8599 240.53C96.0753 241.963 93.4287 242.657 90.9682 242.657Z" fill="#EA7147"/>
<path d="M133.297 214.206C134.015 217.436 135.424 223.676 140.776 231.206C144.635 236.637 151.973 244.667 159.157 255.161C164.337 262.729 167.343 267.194 168.995 269.673C170.17 271.437 170.982 273.4 171.387 275.458L158.958 313.47L188.505 316.102C188.505 316.102 199.636 276.507 199.646 259.9C199.646 259.894 199.645 259.889 199.648 259.886C199.646 257.961 199.665 255.909 199.712 253.715C199.923 243.553 202.823 235.546 173.969 235.267C173.849 235.267 173.739 235.179 173.608 235.133C172.483 234.689 170.766 233.891 168.234 231.813C167.807 231.464 167.359 231.081 166.89 230.66C164.073 228.126 161.4 226.129 158.887 224.551C145.77 216.293 132.644 211.271 133.297 214.206Z" fill="#FFB27D"/>
<path d="M131.244 194.931C131.676 190.155 135.169 175.133 135.169 175.133C135.169 175.133 138.587 175.933 139.84 178.161C143.504 184.683 142.306 197.54 142.113 197.616C142.107 197.616 148.073 209.291 149.085 216.799C149.085 216.799 149.086 216.805 149.085 216.799C149.085 216.799 164.906 225.54 168.238 231.813C168.44 232.194 168.601 232.57 168.719 232.932C169.171 234.341 169.363 236.271 169.337 238.414C169.226 246.013 166.277 256.29 161.87 255.499C160.782 255.301 135.328 226.327 134.274 221.225C134.027 220.022 131.012 197.48 131.244 194.931Z" fill="#FFB27D"/>
<path d="M172.356 227.439C172.356 227.439 173.109 234.812 165.611 228.346L165.006 236.819L175.448 242.481L178.992 236.263L172.356 227.439Z" fill="#FFB27D"/>
<path d="M135.905 182.555C136.048 182.277 136.145 181.969 136.193 181.644C136.193 181.644 136.592 178.734 136.877 176.599C137.066 175.191 136.138 174.052 135.611 173.839C135.278 173.705 133.231 179.163 133.151 184.301C134.353 184.322 135.388 183.565 135.905 182.555Z" fill="#FFC69F"/>
<path d="M149.083 216.8C152.499 217.94 173.304 232.345 174.429 232.789C177.03 236.134 177.469 241.089 176.198 241.64C174.482 242.389 170.661 240.888 168.112 238.503C164.694 235.312 163.703 231.106 162.683 228.764C162.222 227.71 159.195 226.179 158.048 224.638C155.034 220.591 149.474 217.114 149.083 216.8Z" fill="#F6A56E"/>
<path d="M188.892 230.561C188.892 230.561 161.806 208.356 158.814 202.718C158.814 202.718 154.047 204.473 155.949 211.84C157.852 219.206 171.171 232.432 171.966 237.649C174.955 257.251 185.891 263.283 185.891 263.283C185.891 263.283 215.576 252.49 188.892 230.561Z" fill="#FFB27D"/>
<path d="M160.556 210.923C160.307 210.723 160.086 210.481 159.906 210.203C159.906 210.203 158.303 207.702 157.132 205.864C156.36 204.653 156.605 203.079 157.719 202.152C157.992 201.925 158.155 201.811 158.155 201.811C159.471 202.967 162.866 205.123 165.129 209.785C163.881 210.697 161.459 211.644 160.556 210.923Z" fill="#FFC69F"/>
<path d="M198.792 284.965C198.792 284.965 198.662 288.631 198.443 294.437C198.437 294.588 198.431 294.743 198.425 294.899C198.126 302.84 197.671 314.559 197.157 326.372C179.992 326.362 163.013 326.347 146.86 326.327C151.627 316.631 159.734 300.878 164.652 291.376C166.985 286.864 168.599 283.76 168.795 283.387C168.808 283.362 168.815 283.349 168.815 283.349C169.088 282.947 169.392 282.581 169.724 282.253C170.179 281.797 170.684 281.408 171.237 281.082C175.781 278.364 183.329 279.656 189.376 281.452C192.163 282.278 194.629 283.211 196.338 283.906C197.501 284.381 198.314 284.745 198.636 284.894C198.739 284.941 198.792 284.965 198.792 284.965Z" fill="#F99746"/>
<path d="M198.434 294.897C198.434 294.897 186.481 298.185 179.574 298.292L177.025 293.459L174.795 297.545C174.795 297.545 166.069 294.848 164.292 292.209L170.372 281.063L198.7 281.64L198.434 294.897Z" fill="#ED7D2B"/>
<path d="M197.937 275.477C197.937 275.477 201.62 284.186 202.4 294.51C202.4 294.51 187.999 296.136 181.143 295.276L178.141 283.164L173.772 293.689C173.772 293.689 165.839 292.641 163.082 290.463C163.082 290.463 168.216 281.509 171.45 275.576C171.45 275.576 184.796 279.671 197.937 275.477Z" fill="#F3F8FF"/>
<path d="M189.228 292.168C189.584 291.499 189.309 290.677 188.615 290.331C187.919 289.986 187.068 290.248 186.711 290.917C186.355 291.586 186.63 292.408 187.324 292.754C188.02 293.099 188.871 292.837 189.228 292.168Z" fill="#F99746"/>
<path d="M284.354 214.206C283.636 217.436 282.227 223.676 276.876 231.206C273.017 236.637 265.678 244.667 258.494 255.161C253.314 262.729 250.308 267.194 248.656 269.673C247.481 271.437 246.669 273.4 246.264 275.458L258.693 313.47L229.147 316.102C229.147 316.102 218.015 276.507 218.005 259.9C218.005 259.894 218.006 259.889 218.004 259.886C218.005 257.961 217.986 255.909 217.939 253.715C217.729 243.553 214.829 235.546 243.682 235.267C243.802 235.267 243.913 235.179 244.043 235.133C245.168 234.689 246.886 233.891 249.418 231.813C249.844 231.464 250.292 231.081 250.762 230.66C253.579 228.126 256.251 226.129 258.765 224.551C271.88 216.293 285.007 211.271 284.354 214.206Z" fill="#FFB27D"/>
<path d="M286.407 194.931C285.975 190.155 282.482 175.133 282.482 175.133C282.482 175.133 279.064 175.933 277.812 178.161C274.147 184.683 275.345 197.54 275.539 197.616C275.544 197.616 269.578 209.291 268.567 216.799C268.567 216.799 268.567 216.805 268.567 216.799C268.567 216.799 252.746 225.54 249.413 231.813C249.212 232.194 249.05 232.57 248.932 232.932C248.48 234.341 248.288 236.271 248.316 238.414C248.427 246.013 251.376 256.29 255.783 255.499C256.869 255.301 282.325 226.327 283.378 221.225C283.623 220.022 286.638 197.48 286.407 194.931Z" fill="#FFB27D"/>
<path d="M245.296 227.439C245.296 227.439 244.543 234.812 252.04 228.346L252.647 236.819L242.205 242.481L238.661 236.263L245.296 227.439Z" fill="#FFB27D"/>
<path d="M281.745 182.555C281.602 182.277 281.504 181.969 281.457 181.644C281.457 181.644 281.058 178.734 280.773 176.599C280.584 175.191 281.512 174.052 282.038 173.839C282.372 173.705 284.419 179.163 284.499 184.301C283.297 184.322 282.262 183.565 281.745 182.555Z" fill="#FFC69F"/>
<path d="M268.566 216.8C265.151 217.94 244.346 232.345 243.221 232.789C240.62 236.134 240.181 241.089 241.452 241.64C243.168 242.389 246.988 240.888 249.538 238.503C252.956 235.312 253.946 231.106 254.967 228.764C255.428 227.71 258.455 226.179 259.602 224.638C262.618 220.591 268.177 217.114 268.566 216.8Z" fill="#F6A56E"/>
<path d="M228.757 230.561C228.757 230.561 255.843 208.356 258.836 202.718C258.836 202.718 263.602 204.473 261.7 211.84C259.798 219.206 246.479 232.432 245.683 237.649C242.694 257.251 231.759 263.283 231.759 263.283C231.759 263.283 202.074 252.49 228.757 230.561Z" fill="#FFB27D"/>
<path d="M257.094 210.923C257.343 210.723 257.563 210.481 257.744 210.203C257.744 210.203 259.347 207.702 260.518 205.864C261.289 204.653 261.045 203.079 259.932 202.152C259.659 201.925 259.496 201.811 259.496 201.811C258.18 202.967 254.582 205.318 252.32 209.98C253.408 210.468 256.192 211.644 257.094 210.923Z" fill="#FFC69F"/>
<path d="M270.83 326.41C254.813 326.408 237.812 326.403 220.493 326.395C219.98 314.575 219.525 302.844 219.226 294.9C219.219 294.744 219.213 294.59 219.209 294.438C218.99 288.632 218.859 284.967 218.859 284.967C218.859 284.967 218.912 284.942 219.015 284.894C219.337 284.745 220.15 284.381 221.313 283.906C223.023 283.211 225.489 282.278 228.275 281.452C234.322 279.656 241.87 278.365 246.415 281.082C246.966 281.408 247.471 281.797 247.928 282.253C248.261 282.581 248.563 282.947 248.837 283.349C248.837 283.349 248.844 283.362 248.857 283.387C249.053 283.76 250.666 286.864 252.999 291.376C257.93 300.905 266.067 316.72 270.83 326.41Z" fill="#F99746"/>
<path d="M219.216 294.897C219.216 294.897 231.169 298.185 238.076 298.292L240.625 293.459L242.855 297.545C242.855 297.545 251.581 294.848 253.358 292.209L247.278 281.063L218.95 281.64L219.216 294.897Z" fill="#ED7D2B"/>
<path d="M219.713 275.477C219.713 275.477 216.03 284.186 215.25 294.51C215.25 294.51 229.651 296.136 236.507 295.276L239.508 283.164L243.878 293.689C243.878 293.689 251.811 292.641 254.568 290.463C254.568 290.463 249.433 281.509 246.2 275.576C246.2 275.576 232.854 279.671 219.713 275.477Z" fill="#F3F8FF"/>
<path d="M228.422 292.168C228.066 291.499 228.339 290.677 229.035 290.331C229.731 289.986 230.582 290.248 230.939 290.917C231.295 291.586 231.02 292.408 230.326 292.754C229.632 293.099 228.779 292.837 228.422 292.168Z" fill="#F99746"/>
<path d="M262.182 312.313C263.145 312.711 266.589 312.388 266.699 312.109C266.811 311.829 264.559 309.157 263.596 308.76C262.632 308.362 261.535 308.835 261.144 309.816C260.753 310.797 261.218 311.915 262.182 312.313Z" fill="#A8D29F"/>
<path d="M270.867 313.986C270.326 314.889 270.081 318.401 270.335 318.559C270.588 318.716 273.541 316.884 274.082 315.981C274.623 315.077 274.342 313.897 273.454 313.346C272.566 312.795 271.408 313.082 270.867 313.986Z" fill="#A8D29F"/>
<path d="M266.227 320.857C267.217 321.179 270.627 320.592 270.717 320.303C270.807 320.015 268.362 317.527 267.372 317.205C266.381 316.883 265.322 317.44 265.006 318.448C264.689 319.457 265.236 320.535 266.227 320.857Z" fill="#A8D29F"/>
<path d="M271.241 324.256C271.238 324.176 270.856 316.229 266.583 312.126L266.673 312.028C270.986 316.17 271.37 324.171 271.372 324.251L271.241 324.256Z" fill="#A8D29F"/>
<path d="M285.506 312.485C284.906 312.89 282.524 313.156 282.411 312.983C282.298 312.808 283.463 310.677 284.063 310.272C284.662 309.867 285.473 310.033 285.871 310.644C286.27 311.255 286.107 312.078 285.506 312.485Z" fill="#A8D29F"/>
<path d="M279.837 314.844C280.327 315.382 280.971 317.731 280.819 317.874C280.669 318.017 278.414 317.189 277.925 316.651C277.435 316.113 277.465 315.274 277.994 314.774C278.522 314.276 279.346 314.306 279.837 314.844Z" fill="#A8D29F"/>
<path d="M283.921 318.856C283.292 319.215 280.898 319.296 280.797 319.113C280.697 318.931 282.018 316.896 282.647 316.538C283.275 316.179 284.071 316.408 284.421 317.049C284.774 317.689 284.549 318.498 283.921 318.856Z" fill="#A8D29F"/>
<path d="M280.978 321.869C280.969 321.813 280.148 316.364 282.492 312.977L282.418 312.923C280.052 316.342 280.879 321.829 280.889 321.883L280.978 321.869Z" fill="#A8D29F"/>
<path d="M276.747 323.792L276.475 323.749C275.404 309.641 271.173 299.517 271.113 299.38L271.361 299.271C271.421 299.409 275.682 309.601 276.747 323.792Z" fill="#A8D29F"/>
<path d="M268.243 297.959C268.764 298.561 271.208 299.529 271.376 299.377C271.545 299.226 270.906 296.637 270.383 296.035C269.862 295.434 268.959 295.377 268.368 295.907C267.778 296.439 267.722 297.357 268.243 297.959Z" fill="#CCDBFD"/>
<path d="M271.988 295.862C271.517 296.506 271.089 299.14 271.269 299.277C271.45 299.414 273.806 298.243 274.278 297.599C274.749 296.955 274.619 296.044 273.986 295.565C273.353 295.085 272.459 295.218 271.988 295.862Z" fill="#CCDBFD"/>
<path d="M274.798 298.662C274.038 298.45 271.473 299.008 271.414 299.228C271.355 299.45 273.286 301.254 274.048 301.466C274.808 301.677 275.594 301.219 275.801 300.445C276.007 299.672 275.559 298.873 274.798 298.662Z" fill="#CCDBFD"/>
<path d="M273.066 302.153C272.99 301.355 271.568 299.11 271.345 299.134C271.122 299.156 270.149 301.635 270.224 302.433C270.3 303.232 270.997 303.818 271.783 303.74C272.568 303.663 273.142 302.952 273.066 302.153Z" fill="#CCDBFD"/>
<path d="M269.177 301.981C269.875 301.608 271.378 299.421 271.274 299.218C271.169 299.016 268.547 299.035 267.85 299.408C267.151 299.781 266.884 300.66 267.25 301.371C267.616 302.08 268.48 302.354 269.177 301.981Z" fill="#CCDBFD"/>
<path d="M270.81 299.144C270.851 298.883 271.092 298.705 271.348 298.746C271.604 298.788 271.779 299.033 271.739 299.294C271.697 299.555 271.457 299.733 271.201 299.692C270.944 299.65 270.77 299.405 270.81 299.144Z" fill="#163560"/>
<path d="M276.67 309.369C275.894 310.341 275.057 314.416 275.329 314.64C275.601 314.866 279.348 313.2 280.124 312.228C280.9 311.256 280.755 309.829 279.802 309.039C278.849 308.249 277.446 308.397 276.67 309.369Z" fill="#A8D29F"/>
<path d="M261.314 325.235L261.129 325.231C259.202 315.965 255.522 309.625 255.471 309.539L255.625 309.444C255.677 309.532 259.384 315.914 261.314 325.235Z" fill="#A8D29F"/>
<path d="M253.444 308.854C253.842 309.207 255.547 309.631 255.646 309.516C255.745 309.401 255.098 307.739 254.698 307.387C254.3 307.034 253.696 307.076 253.35 307.481C253.005 307.887 253.046 308.502 253.444 308.854Z" fill="#CCDBFD"/>
<path d="M255.748 307.127C255.491 307.597 255.435 309.382 255.565 309.458C255.697 309.532 257.16 308.545 257.416 308.076C257.674 307.607 257.508 307.014 257.047 306.753C256.587 306.489 256.005 306.658 255.748 307.127Z" fill="#CCDBFD"/>
<path d="M257.854 308.733C257.332 308.662 255.678 309.261 255.658 309.412C255.638 309.564 257.075 310.59 257.598 310.661C258.12 310.733 258.603 310.36 258.673 309.828C258.744 309.296 258.378 308.806 257.854 308.733Z" fill="#CCDBFD"/>
<path d="M257.005 311.205C256.887 310.682 255.75 309.321 255.603 309.354C255.455 309.389 255.024 311.12 255.143 311.644C255.262 312.167 255.776 312.493 256.29 312.372C256.805 312.251 257.126 311.73 257.005 311.205Z" fill="#CCDBFD"/>
<path d="M254.41 311.44C254.841 311.129 255.651 309.544 255.564 309.418C255.477 309.293 253.739 309.539 253.308 309.85C252.877 310.16 252.774 310.766 253.079 311.205C253.383 311.645 253.979 311.749 254.41 311.44Z" fill="#CCDBFD"/>
<path d="M255.249 309.41C255.253 309.233 255.398 309.093 255.573 309.098C255.746 309.102 255.883 309.249 255.879 309.427C255.875 309.603 255.73 309.743 255.555 309.739C255.382 309.735 255.245 309.587 255.249 309.41Z" fill="#163560"/>
<path d="M260.018 315.672C259.587 316.386 259.383 319.165 259.583 319.29C259.784 319.416 262.127 317.976 262.558 317.262C262.988 316.548 262.769 315.613 262.068 315.175C261.368 314.735 260.451 314.958 260.018 315.672Z" fill="#A8D29F"/>
<path d="M290.71 324.011L290.952 323.971C291.905 311.408 295.674 302.391 295.727 302.268L295.506 302.172C295.453 302.296 291.658 311.371 290.71 324.011Z" fill="#A8D29F"/>
<path d="M298.283 301.003C297.818 301.54 295.643 302.401 295.492 302.267C295.342 302.131 295.912 299.826 296.377 299.291C296.842 298.755 297.645 298.704 298.172 299.177C298.699 299.65 298.749 300.469 298.283 301.003Z" fill="#CCDBFD"/>
<path d="M294.948 299.135C295.367 299.708 295.748 302.054 295.588 302.177C295.428 302.299 293.329 301.256 292.908 300.683C292.489 300.11 292.605 299.298 293.167 298.871C293.733 298.444 294.529 298.562 294.948 299.135Z" fill="#CCDBFD"/>
<path d="M292.446 301.629C293.123 301.441 295.408 301.938 295.459 302.134C295.512 302.331 293.792 303.939 293.115 304.127C292.437 304.315 291.738 303.908 291.553 303.219C291.368 302.529 291.768 301.817 292.446 301.629Z" fill="#CCDBFD"/>
<path d="M293.988 304.739C294.055 304.027 295.32 302.029 295.521 302.048C295.72 302.067 296.587 304.275 296.518 304.988C296.451 305.699 295.83 306.221 295.13 306.152C294.433 306.082 293.921 305.45 293.988 304.739Z" fill="#CCDBFD"/>
<path d="M297.452 304.586C296.83 304.253 295.491 302.306 295.584 302.126C295.677 301.945 298.011 301.961 298.634 302.293C299.255 302.625 299.496 303.408 299.169 304.041C298.841 304.674 298.074 304.918 297.452 304.586Z" fill="#CCDBFD"/>
<path d="M295.997 302.059C295.962 301.825 295.747 301.668 295.518 301.704C295.289 301.741 295.134 301.959 295.17 302.193C295.206 302.424 295.421 302.583 295.65 302.547C295.879 302.509 296.035 302.29 295.997 302.059Z" fill="#163560"/>
<path d="M290.147 314.529C290.839 315.395 291.584 319.024 291.341 319.225C291.099 319.426 287.761 317.942 287.07 317.077C286.378 316.211 286.507 314.94 287.357 314.236C288.208 313.532 289.456 313.664 290.147 314.529Z" fill="#A8D29F"/>
<path d="M251.562 326.207C251.562 326.207 252.93 322.543 257.902 322.313C262.871 322.083 266.294 325.073 270.4 323.693C274.507 322.313 281.303 319.197 287.733 321.272C294.162 323.348 295.246 326.207 295.246 326.207H251.562Z" fill="#A8D29F"/>
<path d="M67.9702 326.179H76.5542C77.0136 325.782 76.2364 324.879 75.4219 324.82C75.0684 324.792 74.6218 324.868 74.1122 324.977C73.9949 323.38 73.3193 316.198 70.7771 316.487C67.9187 316.81 70.7771 319.649 71.5859 321.329C72.1842 322.574 72.8154 324.361 73.1046 325.203C72.8727 325.254 72.6322 325.305 72.3874 325.35C72.0081 324.165 70.5982 320.181 68.8061 320.414C66.7006 320.687 67.5465 322.284 69.0395 323.231C70.1345 323.929 71.4785 324.919 72.1169 325.398C71.5758 325.489 71.0105 325.548 70.4379 325.535C68.9665 325.502 68.2479 325.942 67.9702 326.179Z" fill="#A8D29F"/>
<path d="M157.022 325.93H165.606C166.065 325.532 165.288 324.63 164.473 324.571C164.12 324.543 163.673 324.619 163.164 324.728C163.046 323.131 162.371 315.949 159.828 316.237C156.97 316.561 159.828 319.4 160.637 321.082C161.236 322.326 161.867 324.113 162.156 324.955C161.924 325.006 161.684 325.057 161.439 325.103C161.059 323.918 159.65 319.933 157.857 320.166C155.752 320.439 156.599 322.036 158.091 322.984C159.186 323.682 160.53 324.673 161.168 325.151C160.627 325.241 160.062 325.301 159.489 325.288C158.018 325.253 157.301 325.693 157.022 325.93Z" fill="#A8D29F"/>
<path d="M164.532 325.011L164.749 324.976C165.605 313.702 168.986 305.61 169.033 305.501L168.836 305.414C168.789 305.526 165.382 313.67 164.532 325.011Z" fill="#A8D29F"/>
<path d="M171.328 304.367C170.912 304.848 168.959 305.622 168.823 305.501C168.689 305.38 169.2 303.311 169.618 302.83C170.034 302.349 170.756 302.302 171.228 302.728C171.699 303.152 171.745 303.885 171.328 304.367Z" fill="#CCDBFD"/>
<path d="M168.335 302.69C168.712 303.204 169.054 305.309 168.909 305.418C168.765 305.527 166.882 304.592 166.506 304.077C166.129 303.563 166.234 302.835 166.739 302.452C167.244 302.069 167.959 302.175 168.335 302.69Z" fill="#CCDBFD"/>
<path d="M166.089 304.928C166.697 304.759 168.746 305.205 168.793 305.382C168.84 305.558 167.297 307.001 166.689 307.17C166.081 307.339 165.454 306.973 165.288 306.355C165.123 305.734 165.481 305.096 166.089 304.928Z" fill="#CCDBFD"/>
<path d="M167.474 307.718C167.534 307.079 168.67 305.287 168.849 305.304C169.028 305.322 169.805 307.302 169.745 307.942C169.685 308.58 169.127 309.048 168.5 308.987C167.873 308.924 167.413 308.356 167.474 307.718Z" fill="#CCDBFD"/>
<path d="M170.581 307.581C170.022 307.282 168.821 305.535 168.904 305.373C168.988 305.211 171.083 305.226 171.641 305.524C172.2 305.823 172.414 306.524 172.121 307.092C171.829 307.661 171.139 307.879 170.581 307.581Z" fill="#CCDBFD"/>
<path d="M169.277 305.313C169.244 305.105 169.052 304.962 168.848 304.995C168.643 305.029 168.503 305.224 168.536 305.433C168.568 305.641 168.76 305.784 168.966 305.75C169.17 305.717 169.31 305.522 169.277 305.313Z" fill="#233862"/>
<path d="M165.396 310.616C165.939 311.295 166.523 314.142 166.332 314.299C166.142 314.456 163.524 313.293 162.982 312.614C162.439 311.935 162.541 310.938 163.208 310.386C163.875 309.835 164.854 309.937 165.396 310.616Z" fill="#A8D29F"/>
<path d="M168.208 316.186C167.246 316.664 165.12 319.567 165.255 319.846C165.388 320.126 168.945 320.207 169.905 319.731C170.867 319.254 171.266 318.074 170.797 317.094C170.327 316.116 169.168 315.71 168.208 316.186Z" fill="#A8D29F"/>
<path d="M377.688 325.871H369.104C368.643 325.473 369.422 324.571 370.235 324.511C370.589 324.483 371.035 324.559 371.545 324.668C371.664 323.071 372.338 315.889 374.88 316.178C377.738 316.501 374.88 319.34 374.071 321.02C373.473 322.265 372.842 324.052 372.553 324.894C372.784 324.945 373.025 324.996 373.271 325.041C373.65 323.856 375.06 319.872 376.852 320.105C378.958 320.378 378.111 321.975 376.619 322.922C375.524 323.62 374.18 324.61 373.542 325.089C374.083 325.18 374.648 325.24 375.221 325.226C376.692 325.193 377.409 325.634 377.688 325.871Z" fill="#A8D29F"/>
<path d="M104.499 325.26L104.31 325.229C103.564 315.41 100.62 308.363 100.578 308.267L100.75 308.191C100.791 308.289 103.759 315.382 104.499 325.26Z" fill="#A8D29F"/>
<path d="M98.5802 307.279C98.9438 307.697 100.644 308.372 100.762 308.266C100.879 308.161 100.434 306.358 100.07 305.94C99.7067 305.52 99.0798 305.481 98.6676 305.851C98.2567 306.221 98.2167 306.861 98.5802 307.279Z" fill="#CCDBFD"/>
<path d="M101.187 305.819C100.859 306.266 100.561 308.099 100.686 308.196C100.812 308.29 102.452 307.476 102.78 307.028C103.108 306.581 103.017 305.947 102.577 305.612C102.137 305.278 101.514 305.371 101.187 305.819Z" fill="#CCDBFD"/>
<path d="M103.143 307.769C102.614 307.621 100.829 308.011 100.787 308.164C100.746 308.318 102.091 309.574 102.619 309.721C103.149 309.869 103.696 309.551 103.839 309.012C103.985 308.471 103.673 307.914 103.143 307.769Z" fill="#CCDBFD"/>
<path d="M101.937 310.198C101.884 309.641 100.895 308.08 100.739 308.095C100.583 308.111 99.9055 309.837 99.9585 310.392C100.011 310.949 100.497 311.355 101.043 311.301C101.59 311.249 101.99 310.755 101.937 310.198Z" fill="#CCDBFD"/>
<path d="M99.2299 310.079C99.7151 309.819 100.763 308.296 100.69 308.155C100.617 308.013 98.7919 308.027 98.3067 308.286C97.8214 308.545 97.6339 309.157 97.8887 309.652C98.1435 310.148 98.7447 310.338 99.2299 310.079Z" fill="#CCDBFD"/>
<path d="M100.366 308.104C100.395 307.922 100.563 307.798 100.741 307.827C100.92 307.856 101.042 308.027 101.013 308.209C100.985 308.391 100.817 308.515 100.638 308.486C100.46 308.455 100.338 308.284 100.366 308.104Z" fill="#233862"/>
<path d="M103.608 310.991C103.069 311.667 102.486 314.503 102.675 314.66C102.864 314.818 105.473 313.658 106.013 312.982C106.553 312.305 106.452 311.311 105.788 310.762C105.124 310.213 104.148 310.315 103.608 310.991Z" fill="#A8D29F"/>
<path d="M102.28 319.137C102.841 319.416 104.081 321.109 104.002 321.272C103.925 321.436 101.851 321.484 101.29 321.205C100.728 320.927 100.497 320.239 100.77 319.668C101.043 319.097 101.719 318.859 102.28 319.137Z" fill="#A8D29F"/>
<path d="M109.903 325.26L110.121 325.225C110.977 313.951 114.358 305.859 114.405 305.75L114.207 305.663C114.16 305.775 110.755 313.919 109.903 325.26Z" fill="#A8D29F"/>
<path d="M116.7 304.616C116.283 305.097 114.331 305.871 114.195 305.75C114.06 305.629 114.571 303.56 114.989 303.079C115.406 302.598 116.127 302.553 116.599 302.977C117.072 303.401 117.116 304.135 116.7 304.616Z" fill="#CCDBFD"/>
<path d="M113.708 302.939C114.085 303.453 114.427 305.558 114.282 305.667C114.138 305.776 112.255 304.841 111.877 304.326C111.501 303.812 111.605 303.085 112.111 302.701C112.616 302.318 113.332 302.424 113.708 302.939Z" fill="#CCDBFD"/>
<path d="M111.461 305.177C112.069 305.008 114.117 305.454 114.165 305.631C114.212 305.807 112.669 307.25 112.06 307.419C111.452 307.588 110.825 307.222 110.659 306.604C110.494 305.985 110.854 305.345 111.461 305.177Z" fill="#CCDBFD"/>
<path d="M112.846 307.967C112.906 307.329 114.043 305.536 114.222 305.553C114.401 305.571 115.178 307.552 115.118 308.191C115.058 308.83 114.5 309.297 113.873 309.236C113.244 309.174 112.785 308.605 112.846 307.967Z" fill="#CCDBFD"/>
<path d="M115.954 307.83C115.395 307.531 114.195 305.784 114.278 305.622C114.361 305.46 116.456 305.475 117.014 305.773C117.573 306.072 117.787 306.775 117.494 307.342C117.202 307.91 116.512 308.129 115.954 307.83Z" fill="#CCDBFD"/>
<path d="M114.649 305.562C114.616 305.354 114.424 305.211 114.218 305.244C114.013 305.278 113.873 305.473 113.906 305.683C113.939 305.892 114.13 306.034 114.337 306.001C114.543 305.966 114.681 305.771 114.649 305.562Z" fill="#233862"/>
<path d="M109.966 313.734C110.586 314.51 111.256 317.766 111.038 317.947C110.821 318.128 107.826 316.796 107.207 316.02C106.587 315.243 106.703 314.102 107.464 313.471C108.226 312.84 109.345 312.957 109.966 313.734Z" fill="#A8D29F"/>
<path d="M112.451 318.231C111.807 318.55 110.384 320.494 110.473 320.682C110.563 320.869 112.944 320.924 113.588 320.605C114.232 320.286 114.5 319.495 114.185 318.839C113.871 318.183 113.095 317.91 112.451 318.231Z" fill="#A8D29F"/>
<path d="M99.9556 326.179C99.9556 326.179 102.599 322.622 106.361 323.923C110.121 325.225 115.134 324.041 115.121 325.824L99.9556 326.179Z" fill="#A8D29F"/>
<path d="M305.032 216.22C305.032 216.22 304.478 213.689 303.243 212.826C302.006 211.963 300.137 212.304 298.391 211.325C296.645 210.344 295.587 209.744 295.698 210.607C295.81 211.469 297.731 213.622 299.044 214.19C300.356 214.759 301.839 215.024 302.261 215.917C302.683 216.811 302.736 217.63 302.736 217.63L305.032 216.22Z" fill="#FFB27D"/>
<path d="M302.098 213.582C302.098 213.582 299.271 211.315 298.959 210.87C298.648 210.426 300.243 210.915 301.138 211.427C302.032 211.939 303.242 212.826 303.242 212.826L302.098 213.582Z" fill="#FFB27D"/>
<path d="M327.273 218.38C326.723 218.502 313.898 227.934 312.347 226.148C311.901 225.635 305.245 215.502 305.245 215.502C305.245 215.502 302.38 216.2 301.836 218.581C301.836 218.581 305.819 233.328 311.11 235.393C314.634 236.769 328.351 230.298 328.351 230.298L327.273 218.38Z" fill="#ED7D2B"/>
<path d="M358.288 316.06C358.288 316.06 360.418 318.039 360.003 319.445C359.588 320.851 357.665 321.789 357.405 323.508C357.144 325.226 356.106 326.163 355.17 326.163C354.236 326.163 350.712 326.163 350.712 326.163C350.712 326.163 350.023 324.954 351.685 324.59C353.347 324.225 353.974 322.205 353.871 320.331C353.766 318.456 354.027 315.956 354.027 315.956L357.559 315.123L358.288 316.06Z" fill="#305387"/>
<path d="M332.157 321.178C332.157 321.178 332.539 325.683 331.604 326.15L319.637 326.126C319.637 326.126 319.637 324.719 321.559 324.407C323.481 324.095 326.858 322.949 327.429 320.397C328 317.845 332.157 321.178 332.157 321.178Z" fill="#305387"/>
<path d="M322.053 257.555C322.053 257.555 322.684 265.45 323.425 274.94C324.433 287.832 325.645 303.668 325.766 306.667C325.973 311.876 326.805 320.209 326.805 320.209C326.805 320.209 328.779 322.188 332.728 321.354C332.728 321.354 336.248 309.459 337.252 296.874C337.268 296.667 337.284 296.46 337.3 296.251C338.234 283.44 339.689 256.461 339.689 256.461L322.053 257.555Z" fill="#AEC3FF"/>
<path d="M322.053 257.555C322.053 257.555 322.684 265.45 323.425 274.94L337.252 296.874C337.268 296.667 337.284 296.46 337.3 296.251C338.234 283.44 339.689 256.461 339.689 256.461L322.053 257.555Z" fill="#91B0F2"/>
<path d="M324.936 258.492C324.936 258.492 336.312 287.086 343.794 300.523C351.274 313.96 353.613 317.709 353.613 317.709C353.613 317.709 357.898 315.991 358.288 314.819C358.288 314.819 355.427 288.878 350.417 282.555C347.585 278.981 344.26 268.258 344.104 264.508C343.948 260.759 343.091 253.336 343.091 253.336L324.936 258.492Z" fill="#AEC3FF"/>
<path d="M339.567 217.085C339.567 217.085 331.576 220.171 327.274 218.38C327.274 218.38 327.969 217.633 329.174 216.891C329.948 216.414 330.413 215.551 330.366 214.632C330.352 214.346 330.342 214.077 330.338 213.824C330.282 212.274 330.431 211.182 330.431 211.182L333.518 209.298L336.518 207.279C335.75 213.636 339.567 217.085 339.567 217.085Z" fill="#FFB27D"/>
<path d="M344.311 256.408C344.339 256.886 343.344 257.458 342.905 257.675C339.647 259.226 336.601 260.327 333.126 260.753C329.026 261.282 324.14 260.461 322.469 260.537C322.299 260.54 322.142 260.479 322.003 260.359C321.88 260.279 321.679 255.232 321.612 248.884C321.606 248.629 321.599 248.37 321.612 248.115L321.61 248.029C321.586 245.547 321.61 242.945 321.666 240.343C321.704 238.315 321.768 236.313 321.865 234.439C321.984 232.091 322.157 229.943 322.395 228.184C322.504 227.381 322.627 226.662 322.763 226.04C323.384 223.293 324.563 221.21 325.89 219.591C326.564 218.772 327.366 218.071 328.248 217.495L329.208 216.869C330.753 217.138 332.055 216.964 333.658 216.121C335.41 215.203 337.301 214.216 337.613 214.451C339.975 216.121 341.637 219.966 342.59 224.906C343.118 227.653 343.427 230.727 343.505 233.955C343.506 234.069 343.51 234.184 343.512 234.297C343.536 235.338 343.536 236.403 343.513 237.46C343.51 237.655 343.503 237.85 343.498 238.044C343.407 240.561 343.425 242.95 343.499 245.137C343.51 245.459 343.522 245.778 343.535 246.092C343.674 249.38 343.933 252.15 344.119 254.101C344.212 255.094 344.281 255.861 344.311 256.408Z" fill="#F99746"/>
<path d="M336.36 209.722C336.36 209.722 334.114 213.147 330.336 213.824C330.209 211.863 330.624 208.849 330.624 208.849L333.517 209.298L336.36 209.722Z" fill="#ED985F"/>
<path d="M328.385 209.496C328.385 209.496 334.932 213.096 337.059 208.98C339.186 204.866 341.464 202.559 337.373 200.087C333.282 197.616 331.652 198.751 330.608 199.947C329.565 201.144 326.736 208.453 328.385 209.496Z" fill="#FFB27D"/>
<path d="M342.49 201.306C342.579 201.255 342.743 201.246 343.072 201.342C343.072 201.342 342.869 201.087 342.527 200.956C342.614 200.474 342.652 199.58 341.944 199.109C341.944 199.109 342.284 199.481 342.172 199.988C341.594 198.735 339.905 197.377 334.441 195.931C327.24 194.026 327.999 199.41 328.721 200.274C329.444 201.138 332.235 200.449 333.88 201.18C335.525 201.912 335.001 204.513 335.459 205.057C335.917 205.601 335.895 204.917 336.793 204.834C337.69 204.749 337.32 206.086 336.806 206.858C336.292 207.631 336.978 209.129 336.978 209.129C336.978 209.129 336.978 209.129 338.456 208.327C339.935 207.526 342.65 202.878 342.523 201.638C342.511 201.529 342.501 201.418 342.49 201.306Z" fill="#2C3A64"/>
<path d="M350.53 255.758C350.473 255.892 348.556 258.672 348.834 260.933C349.014 262.391 352.252 266.142 352.127 264.128C351.858 259.759 352.749 260.234 353.355 256.844L350.53 255.758Z" fill="#FFB27D"/>
<path d="M349.916 256.819C349.916 256.819 347.189 258.673 347.588 258.989C347.989 259.307 349.634 258.22 349.634 258.22L349.916 256.819Z" fill="#FFB27D"/>
<path d="M343.499 238.044C343.409 240.561 343.426 242.95 343.5 245.137L343.499 245.143C339.092 241.45 335.382 230.304 335.297 230.094L343.506 233.955C343.508 234.069 343.512 234.184 343.513 234.297C343.538 235.338 343.538 236.403 343.515 237.46C343.512 237.655 343.505 237.85 343.499 238.044Z" fill="#ED7D2B"/>
<path d="M332.31 220.62C332.85 216.455 337.616 214.448 339.246 216.082C339.307 216.142 349.428 226.404 352.837 236.265C355.239 243.212 353.815 256.949 353.815 256.949C353.815 256.949 350.799 257.386 349.716 256.021C349.716 256.021 348.147 244.795 346.502 241.721C345.393 239.647 331.178 227.838 331.811 224.061C331.979 223.063 332.15 221.856 332.31 220.62Z" fill="#F99746"/>
<path d="M323.875 180.91C316.117 172.393 307.921 184.441 307.921 184.441C307.921 184.441 297.759 174.06 291.604 183.841C285.45 193.621 310.085 209.132 310.085 209.132C310.085 209.132 331.633 189.427 323.875 180.91Z" fill="#F78248"/>
<path d="M321.663 184.616C320.985 184.932 320.182 184.744 319.711 184.155C319.206 183.524 318.427 182.825 317.398 182.714C316.707 182.64 316.206 182.009 316.279 181.305C316.352 180.601 316.971 180.091 317.663 180.165C319.891 180.405 321.337 182.006 322.079 183.105C322.433 183.629 322.233 184.352 321.663 184.616Z" fill="#FFB699"/>
<path d="M307.928 205.764C306.538 204.69 302.716 201.285 302.716 201.285C302.108 200.813 301.167 199.624 301.631 199.004C302.095 198.385 303.79 199.612 304.398 200.084C304.398 200.084 307.2 202.828 308.691 203.674C310.328 204.604 311.042 205.395 310.578 206.014C310.341 206.331 309.149 206.708 307.928 205.764Z" fill="#FFB699"/>
<path d="M396.222 327H34.2775C34.0299 327 33.8267 326.794 33.8267 326.542V326.284C33.8267 326.032 34.0299 325.825 34.2775 325.825H396.223C396.471 325.825 396.673 326.032 396.673 326.284V326.542C396.673 326.793 396.469 327 396.222 327Z" fill="#233862"/>
</svg>
