<svg width="264" height="230" viewBox="0 0 264 230" fill="none" xmlns="http://www.w3.org/2000/svg">
<path opacity="0.2" d="M217.985 113.163L149.883 125.715C147.296 126.192 144.639 126.145 142.071 125.578C130.183 122.952 123.508 110.271 128.071 98.9849L148.479 48.5143C150.949 42.4059 156.269 37.906 162.703 36.4833L203.7 27.4178C213.234 25.3095 222.897 30.3945 226.559 39.4469L240.483 73.8729C242.886 79.8134 242.296 86.5455 238.898 91.9782L231.316 104.1C228.34 108.858 223.503 112.146 217.985 113.163Z" fill="#139FAC"/>
<path d="M186.094 88V71.284H183.538V68.2H189.238V88H186.094Z" fill="#212429"/>
<g clip-path="url(#clip0_1802_23313)">
<path opacity="0.3" d="M148.161 207.142C144.799 210.638 141.618 212.893 139.104 214.675C109.556 235.617 74.5941 229.513 67.1634 228.022C56.1909 225.82 34.9814 221.565 19.6474 203.753C-3.55156 176.803 0.0606079 134.345 18.0558 106.318C21.3476 101.191 38.7343 72.7378 74.0733 68.175C95.46 65.4136 120.39 70.9829 138.444 85.9243C176.34 117.286 173.642 180.644 148.161 207.142Z" fill="url(#paint0_linear_1802_23313)"/>
<path d="M10.6118 66.1653C10.341 65.3403 11.3151 64.6626 12.0185 65.1812C19.1641 70.4453 36.7417 86.6388 36.4822 118.417C36.157 158.287 46.1011 171.705 57.4309 179.299C57.4309 179.299 42.7806 176.774 32.1863 163.215C6.17399 129.924 15.4224 80.8326 10.6118 66.1653Z" fill="url(#paint1_linear_1802_23313)"/>
<path d="M16.9391 77.8962C18.2503 82.1833 19.4757 86.4939 20.5399 90.8422C21.6269 95.1847 22.5802 99.5572 23.3939 103.953C24.1903 108.352 24.9032 112.764 25.4258 117.2C25.968 121.634 26.317 126.086 26.6517 130.556C27.0114 135.022 27.3479 139.524 28.152 144.005C28.9502 148.477 30.302 152.927 32.4365 157.001C32.9699 158.017 33.5241 159.026 34.1325 159.994C34.7231 160.973 35.3585 161.926 36.0099 162.868C37.3235 164.745 38.7654 166.54 40.3356 168.22C43.4848 171.574 47.1489 174.451 51.0903 176.792C51.505 177.038 52.0437 176.906 52.293 176.496C52.5382 176.094 52.4129 175.574 52.0156 175.322L52.0126 175.32C51.0707 174.724 50.1365 174.118 49.2327 173.472C48.7757 173.157 48.3336 172.822 47.8856 172.495C47.4507 172.152 47.0015 171.827 46.578 171.471C44.8587 170.076 43.2402 168.564 41.7429 166.941C38.7356 163.714 36.2014 160.026 34.1552 156.137C33.1542 154.181 32.3005 152.156 31.6079 150.072C30.9165 147.988 30.3868 145.847 29.9799 143.676C29.1656 139.33 28.7951 134.878 28.4032 130.415C28.0053 125.951 27.574 121.467 26.9571 117.009C26.6547 114.779 26.3117 112.555 25.9287 110.338C25.7437 109.229 25.5367 108.123 25.3321 107.017C25.1167 105.913 24.8948 104.81 24.6646 103.709C23.7333 99.3079 22.6667 94.9366 21.4622 90.6048C20.2363 86.2788 18.8946 81.9865 17.3877 77.7518C17.3448 77.631 17.2105 77.5674 17.0877 77.6098C16.9671 77.6511 16.9033 77.7784 16.9391 77.8962Z" fill="white"/>
<path d="M44.3475 205.91C44.0671 207.484 42.2506 208.263 40.8839 207.409C33.341 202.696 13.2352 187.466 9.59558 157.245C6.52151 131.724 2.39988 118.174 0.0971646 112.151C-0.389627 110.877 1.05226 109.73 2.20958 110.469C14.9801 118.622 54.5141 148.891 44.3475 205.91Z" fill="url(#paint2_linear_1802_23313)"/>
<path d="M42.1928 206.295C42.1636 206.322 42.1313 206.347 42.0967 206.369C41.8026 206.554 41.4119 206.468 41.2252 206.177C41.0134 205.848 19.9513 172.811 14.0549 137.517C13.9982 137.177 14.2309 136.856 14.5751 136.799C14.9193 136.743 15.2444 136.973 15.3011 137.313C21.1545 172.35 42.0806 205.18 42.2912 205.508C42.4553 205.764 42.4075 206.094 42.1928 206.295Z" fill="white"/>
<path d="M40.5743 68.298C36.4962 68.648 33.3696 72.0222 33.3577 76.0653C33.2867 100.794 33.1698 186.087 34.8014 216.276C34.9744 219.475 37.6285 221.987 40.8708 222.022C56.9069 222.192 103.033 222.506 129.22 220.851C134.674 220.506 138.918 216.044 138.912 210.645C138.88 184.692 138.46 111.704 134.861 78.3412C134.43 74.344 131.177 71.2238 127.12 70.9114C109.63 69.5661 63.1863 66.3557 40.5743 68.298Z" fill="url(#paint3_linear_1802_23313)"/>
<path d="M39.7944 82.5462C39.4794 103.699 38.5828 174.065 40.1482 200.036C40.3766 203.832 43.3618 206.829 47.048 206.956C62.2238 207.479 101.139 208.489 123.314 206.079C127.307 205.646 130.359 202.227 130.465 198.087C131.02 176.501 132.518 110.963 130.997 85.2816C130.754 81.1849 127.586 77.9161 123.614 77.6515C107.182 76.5578 64.9877 74.0357 46.1311 75.5867C42.5911 75.8778 39.8493 78.8837 39.7944 82.5462Z" fill="url(#paint4_linear_1802_23313)"/>
<path d="M76.4611 71.9756C76.4742 72.5601 76.9461 73.0322 77.5373 73.0498C80.4574 73.1377 88.6834 73.3863 92.36 73.5172C93.0848 73.5431 93.639 72.8878 93.4857 72.1871C93.4731 72.1653 93.3789 71.2673 92.4506 71.203C89.9636 71.0321 82.4601 70.5719 77.5015 70.8542C76.4838 70.9125 76.4283 72.0563 76.4611 71.9756Z" fill="#1F5AA9"/>
<path d="M64.5584 129.898C75.5508 129.898 84.462 121.096 84.462 110.237C84.462 99.3787 75.5508 90.5762 64.5584 90.5762C53.5659 90.5762 44.6548 99.3787 44.6548 110.237C44.6548 121.096 53.5659 129.898 64.5584 129.898Z" fill="white"/>
<path d="M64.6355 113.438C68.9255 113.438 72.4033 110.003 72.4033 105.765C72.4033 101.527 68.9255 98.0918 64.6355 98.0918C60.3454 98.0918 56.8677 101.527 56.8677 105.765C56.8677 110.003 60.3454 113.438 64.6355 113.438Z" fill="url(#paint5_linear_1802_23313)"/>
<path d="M52.8361 128.807H77.5844C79.1014 128.807 80.0106 126.87 79.1939 125.392C77.0916 121.589 72.6938 116.003 65.0769 116.255C57.7357 116.498 53.3844 121.544 51.1968 125.163C50.2679 126.699 51.2153 128.807 52.8361 128.807Z" fill="url(#paint6_linear_1802_23313)"/>
<path d="M94.6624 197.281H69.9052C69.0963 197.281 68.4341 196.627 68.4341 195.828V188.872C68.4341 188.073 69.0963 187.419 69.9052 187.419H94.6624C95.4713 187.419 96.1335 188.073 96.1335 188.872V195.828C96.1335 196.627 95.4713 197.281 94.6624 197.281Z" fill="url(#paint7_linear_1802_23313)"/>
<g opacity="0.8">
<g opacity="0.8">
<path opacity="0.8" d="M113.194 151.708H57.3432C56.8993 151.708 56.5366 151.349 56.5366 150.911V147.075C56.5366 146.637 56.8999 146.278 57.3432 146.278H113.194C113.638 146.278 114.001 146.637 114.001 147.075V150.911C114.001 151.349 113.638 151.708 113.194 151.708Z" fill="white"/>
<path opacity="0.8" d="M49.1649 152.268C51.0053 152.268 52.4972 150.794 52.4972 148.976C52.4972 147.158 51.0053 145.685 49.1649 145.685C47.3245 145.685 45.8325 147.158 45.8325 148.976C45.8325 150.794 47.3245 152.268 49.1649 152.268Z" fill="white"/>
</g>
<g opacity="0.8">
<path opacity="0.8" d="M113.194 161.896H57.3432C56.8993 161.896 56.5366 161.538 56.5366 161.1V157.264C56.5366 156.825 56.8999 156.467 57.3432 156.467H113.194C113.638 156.467 114.001 156.826 114.001 157.264V161.1C114.001 161.538 113.638 161.896 113.194 161.896Z" fill="white"/>
<path opacity="0.8" d="M52.4564 159.693C52.7512 157.899 51.5175 156.208 49.7008 155.917C47.8841 155.625 46.1724 156.844 45.8776 158.638C45.5828 160.433 46.8165 162.124 48.6331 162.415C50.4498 162.706 52.1615 161.488 52.4564 159.693Z" fill="white"/>
</g>
<g opacity="0.8">
<path opacity="0.8" d="M113.194 172.087H57.3432C56.8993 172.087 56.5366 171.728 56.5366 171.29V167.454C56.5366 167.016 56.8999 166.657 57.3432 166.657H113.194C113.638 166.657 114.001 167.016 114.001 167.454V171.29C114.001 171.729 113.638 172.087 113.194 172.087Z" fill="white"/>
<path opacity="0.8" d="M49.1649 172.647C51.0053 172.647 52.4972 171.173 52.4972 169.355C52.4972 167.537 51.0053 166.063 49.1649 166.063C47.3245 166.063 45.8325 167.537 45.8325 169.355C45.8325 171.173 47.3245 172.647 49.1649 172.647Z" fill="white"/>
</g>
<g opacity="0.8">
<path opacity="0.8" d="M113.194 182.275H57.3432C56.8993 182.275 56.5366 181.917 56.5366 181.479V177.642C56.5366 177.204 56.8999 176.846 57.3432 176.846H113.194C113.638 176.846 114.001 177.205 114.001 177.642V181.479C114.001 181.917 113.638 182.275 113.194 182.275Z" fill="white"/>
<path opacity="0.8" d="M49.1649 182.836C51.0053 182.836 52.4972 181.363 52.4972 179.545C52.4972 177.727 51.0053 176.253 49.1649 176.253C47.3245 176.253 45.8325 177.727 45.8325 179.545C45.8325 181.363 47.3245 182.836 49.1649 182.836Z" fill="white"/>
</g>
</g>
<path d="M90.487 141.097H46.6788C46.285 141.097 45.9629 140.778 45.9629 140.39V136.374C45.9629 135.985 46.285 135.667 46.6788 135.667H90.487C90.8808 135.667 91.2029 135.985 91.2029 136.374V140.39C91.2029 140.778 90.8808 141.097 90.487 141.097Z" fill="white"/>
<path d="M141.067 86.3494C140.949 84.5532 139.851 82.9616 138.205 82.1896L116.878 72.1835C115.511 71.543 113.926 71.543 112.561 72.1835L91.2333 82.1896C89.5874 82.9622 88.4892 84.5532 88.371 86.3494C86.3708 116.896 106.198 128.025 112.697 130.836C113.987 131.394 115.451 131.394 116.74 130.836C123.24 128.025 143.067 116.896 141.067 86.3494Z" fill="url(#paint8_linear_1802_23313)"/>
<path d="M108.268 76.601C108.079 76.601 107.897 76.4955 107.81 76.3152C107.69 76.0659 107.798 75.7677 108.05 75.6493L113.089 73.2851C113.342 73.166 113.644 73.2727 113.763 73.522C113.883 73.7712 113.776 74.0694 113.524 74.1878L108.484 76.5521C108.414 76.5857 108.341 76.601 108.268 76.601Z" fill="white"/>
<path d="M90.0017 93.0878C89.7302 93.0878 89.5053 92.875 89.4964 92.6046C89.4284 90.611 89.4642 88.5332 89.602 86.4282C89.6903 85.0758 90.5183 83.8737 91.7621 83.2903L106.109 76.5595C106.362 76.4404 106.664 76.5471 106.783 76.7964C106.903 77.0456 106.796 77.3438 106.544 77.4623L92.1964 84.1931C91.2837 84.6209 90.677 85.5025 90.6119 86.4925C90.4765 88.5644 90.4413 90.6092 90.5081 92.5704C90.5177 92.8462 90.2987 93.0778 90.0196 93.0872C90.013 93.0878 90.007 93.0878 90.0017 93.0878Z" fill="white"/>
<path d="M135.91 87.542C135.887 87.0865 135.612 86.6799 135.195 86.4842L115.257 77.1305C114.916 76.9708 114.521 76.9708 114.181 77.1305L94.2432 86.4842C93.8262 86.6799 93.5517 87.0865 93.5279 87.542C92.9385 98.9364 95.6027 108.444 101.453 115.812C105.912 121.431 111.13 124.441 114.187 125.846C114.524 126.001 114.912 126.001 115.249 125.846C118.306 124.441 123.523 121.43 127.983 115.812C133.835 108.444 136.499 98.9364 135.91 87.542Z" fill="url(#paint9_linear_1802_23313)"/>
<path d="M102.058 100.032C103.706 99.0228 105.872 99.5496 106.858 101.2L111.492 108.96C111.957 109.737 113.119 109.659 113.472 108.828L123.899 84.3342C124.419 83.112 126.251 83.4774 126.264 84.8027C126.332 92.2177 124.685 106.353 112.984 118.432C112.984 118.432 106.316 116.053 100.713 104.639C99.9037 102.99 100.481 100.997 102.058 100.032Z" fill="url(#paint10_linear_1802_23313)"/>
<path d="M144.554 222.528C144.554 222.528 144.936 224.663 145.123 226.777C145.197 227.603 144.552 228.32 143.713 228.355C140.864 228.472 134.769 228.7 132.582 228.603C132.253 228.589 132.038 228.256 132.16 227.954C132.262 227.702 132.459 227.497 132.709 227.383L142.777 222.812L144.554 222.528Z" fill="url(#paint11_linear_1802_23313)"/>
<path d="M144.867 221.274L144.56 223.828C144.56 223.828 142.797 224.639 141.592 223.726L142.322 220.88L144.867 221.274Z" fill="url(#paint12_linear_1802_23313)"/>
<path d="M144.636 173.259C144.768 173.926 145.347 206.541 141.818 221.156C141.76 221.395 141.883 221.641 142.113 221.733C142.654 221.952 143.715 222.268 144.987 222.31C145.381 222.323 145.734 222.07 145.845 221.697C146.853 218.306 151.688 201.316 152.319 185.085C153.023 166.949 152.319 184.467 152.319 184.467L151.905 173.257L144.636 173.259Z" fill="url(#paint13_linear_1802_23313)"/>
<path d="M156.135 223.642C156.135 223.642 156.743 224.719 157.331 227.584C157.437 228.101 157.072 228.596 156.54 228.648C155.599 228.74 154.15 228.857 152.99 228.849C152.455 228.846 152.038 228.385 152.102 227.861C152.231 226.815 152.631 225.1 153.868 223.763L156.135 223.642Z" fill="url(#paint14_linear_1802_23313)"/>
<path d="M156.669 220.357L155.952 224.219C155.952 224.219 155.243 224.74 153.841 224.363L154.184 220.207L156.669 220.357Z" fill="url(#paint15_linear_1802_23313)"/>
<path d="M158.605 174.261C161.492 191.468 157.979 216.791 156.795 221.747C156.722 222.051 156.474 222.283 156.163 222.334C155.635 222.421 154.764 222.491 153.906 222.245C153.61 222.16 153.402 221.897 153.39 221.593C153.232 217.586 153.517 192.987 150.828 183.265C150.692 182.772 150.387 182.343 149.966 182.047L144.746 178.381L144.345 172.455L158.605 174.261Z" fill="url(#paint16_linear_1802_23313)"/>
<path d="M140.212 141.655C148.862 141.514 158.407 143.899 158.407 143.899C160.986 158.761 158.858 175.903 158.858 175.903C152.161 177.638 144.607 174.842 144.607 174.842C143.494 168.631 138.301 151.148 138.301 151.148C134.074 150.63 130.593 149.426 127.726 147.833C129.913 145.328 130.943 142.142 131.391 140.259C134.449 141.198 137.544 141.699 140.212 141.655Z" fill="url(#paint17_linear_1802_23313)"/>
<path d="M114.661 129.069C115.511 128.056 116.586 128.535 116.586 128.535C117.859 133.847 124.534 138.153 131.391 140.258C130.943 142.142 129.912 145.328 127.725 147.832C116.345 141.512 114.661 129.069 114.661 129.069Z" fill="url(#paint18_linear_1802_23313)"/>
<path d="M114.867 129.327C114.779 129.606 115.808 130.031 116.414 128.889C116.436 128.342 116.772 125.997 116.441 125.551C114.678 123.177 111.259 120.2 111.259 120.2C110.681 120.764 111.157 121.316 111.157 121.316L112.816 123.023C112.469 123.642 112.046 124.165 111.848 124.914C111.697 125.481 111.789 126.087 112.079 126.603C112.37 127.121 112.768 127.795 113.143 128.322C113.854 129.319 114.867 129.327 114.867 129.327Z" fill="url(#paint19_linear_1802_23313)"/>
<path d="M113.541 124.131L115.052 125.397L115.527 126.657L114.179 128.133C114.179 128.133 113.726 125.633 113.389 125.092C113.053 124.55 113.228 124.289 113.541 124.131Z" fill="url(#paint20_linear_1802_23313)"/>
<path d="M155.089 152.173L158.407 143.899C158.407 143.899 166.487 149.323 167.816 156.198C166.289 156.309 163.511 156.701 160.792 158.058C160.195 154.811 155.089 152.173 155.089 152.173Z" fill="url(#paint21_linear_1802_23313)"/>
<path d="M148.028 159.959C148.028 159.959 157.1 165.023 160.161 160.699C160.796 159.801 160.948 158.909 160.792 158.058C163.511 156.701 166.289 156.31 167.816 156.198C168.217 158.271 168.005 160.476 166.772 162.704C161.41 172.392 146.828 162.168 146.828 162.168L148.028 159.959Z" fill="url(#paint22_linear_1802_23313)"/>
<path d="M149.118 166.365L144.167 149.285C144.111 149.092 143.944 148.95 143.741 148.927C142.844 148.823 140.244 148.533 137.244 148.282C133.628 147.98 129.431 147.736 126.922 147.944C126.565 147.973 126.35 148.346 126.509 148.663C127.935 151.514 133.803 163.11 136.741 166.909C136.839 167.035 136.989 167.108 137.149 167.107L148.636 167.001C148.971 166.999 149.21 166.682 149.118 166.365Z" fill="url(#paint23_linear_1802_23313)"/>
<path d="M136.73 146.802L133.141 146.211C132.95 146.179 132.793 146.36 132.854 146.541L133.209 147.605C133.24 147.697 133.322 147.765 133.42 147.777L136.874 148.233C137.053 148.257 137.2 148.096 137.159 147.923L136.939 146.994C136.915 146.895 136.833 146.819 136.73 146.802Z" fill="url(#paint24_linear_1802_23313)"/>
<path d="M139.418 149.803L139.122 148.281C139.092 148.129 138.964 148.013 138.808 147.998L131.558 147.271C131.314 147.247 131.118 147.468 131.176 147.703L131.637 149.599C131.674 149.751 131.807 149.86 131.965 149.868L139.05 150.221C139.281 150.232 139.461 150.027 139.418 149.803Z" fill="url(#paint25_linear_1802_23313)"/>
<path d="M147.922 162.238C147.922 162.238 148.612 159.436 148.334 158.443C148.056 157.449 147.516 156.171 145.72 156.455C143.923 156.739 141.804 157.487 141.804 157.487C141.804 157.487 141.91 158.782 143.276 158.364L142.43 159.011C142.43 159.011 142.551 160.048 143.704 159.494L142.916 160.352C142.916 160.352 143.411 161.204 144.26 160.657C145.109 160.111 145.516 162.576 147.922 162.238Z" fill="url(#paint26_linear_1802_23313)"/>
<path d="M148.974 134.719L151.727 142.582C151.772 142.712 151.718 142.856 151.596 142.923C150.846 143.332 148.143 144.517 144.885 142.477C144.546 142.264 144.315 141.917 144.264 141.524L143.373 134.719H148.974Z" fill="url(#paint27_linear_1802_23313)"/>
<path d="M142.986 127.437C142.986 127.437 139.963 133.057 140.351 135.326C140.738 137.596 144.484 137.434 147.755 135.59L150.04 129.521L142.986 127.437Z" fill="url(#paint28_linear_1802_23313)"/>
<path d="M147.61 132.61C147.477 132.552 147.428 132.392 147.508 132.271C147.75 131.906 148.204 131.161 148.349 130.508C148.349 130.508 148.892 130.164 146.966 129.709C145.04 129.253 142.167 128.546 141.564 126.927C140.975 125.347 142.522 121.377 144.989 124.541C145.083 124.661 145.267 124.664 145.361 124.543C145.765 124.023 146.829 122.944 148.305 123.598C149.687 124.21 149.843 125.21 149.824 125.714C149.818 125.863 149.952 125.978 150.1 125.95C150.798 125.819 152.475 125.706 153.257 127.404C153.902 128.804 153.483 129.596 153.102 129.983C152.978 130.109 153.032 130.316 153.202 130.367C153.661 130.506 154.254 130.89 154.195 131.953C154.112 133.422 152.45 133.292 151.977 133.225C151.899 133.214 151.821 133.241 151.768 133.298C151.363 133.742 149.534 135.626 147.554 135.852C147.383 135.872 147.25 135.705 147.306 135.544L148.163 133.084C148.203 132.97 148.147 132.845 148.036 132.796L147.61 132.61Z" fill="url(#paint29_linear_1802_23313)"/>
<path d="M147.266 132.96C147.266 132.96 149.418 131.501 149.575 132.729C149.733 133.957 147.638 134.508 146.6 134.05L147.266 132.96Z" fill="url(#paint30_linear_1802_23313)"/>
</g>
<defs>
<linearGradient id="paint0_linear_1802_23313" x1="188.433" y1="277.964" x2="44.2202" y2="96.6498" gradientUnits="userSpaceOnUse">
<stop stop-color="#B37CFF"/>
<stop offset="1" stop-color="#F895E7"/>
</linearGradient>
<linearGradient id="paint1_linear_1802_23313" x1="-2.74576" y1="111.645" x2="70.8633" y2="133.001" gradientUnits="userSpaceOnUse">
<stop stop-color="#A737D5"/>
<stop offset="1" stop-color="#EF497A"/>
</linearGradient>
<linearGradient id="paint2_linear_1802_23313" x1="17.526" y1="205.3" x2="26.8302" y2="112.783" gradientUnits="userSpaceOnUse">
<stop stop-color="#CE1567"/>
<stop offset="1" stop-color="#7A1DBC"/>
</linearGradient>
<linearGradient id="paint3_linear_1802_23313" x1="32.9809" y1="145.758" x2="138.139" y2="143.426" gradientUnits="userSpaceOnUse">
<stop stop-color="#2B3582"/>
<stop offset="1" stop-color="#150E42"/>
</linearGradient>
<linearGradient id="paint4_linear_1802_23313" x1="44.9729" y1="86.7911" x2="263.991" y2="395.077" gradientUnits="userSpaceOnUse">
<stop stop-color="#FDF53F"/>
<stop offset="1" stop-color="#D93C65"/>
</linearGradient>
<linearGradient id="paint5_linear_1802_23313" x1="47.3405" y1="164.798" x2="87.3182" y2="24.9523" gradientUnits="userSpaceOnUse">
<stop stop-color="#FDF53F"/>
<stop offset="1" stop-color="#D93C65"/>
</linearGradient>
<linearGradient id="paint6_linear_1802_23313" x1="53.4439" y1="166.542" x2="93.4218" y2="26.6962" gradientUnits="userSpaceOnUse">
<stop stop-color="#FDF53F"/>
<stop offset="1" stop-color="#D93C65"/>
</linearGradient>
<linearGradient id="paint7_linear_1802_23313" x1="97.7359" y1="129.241" x2="75.0434" y2="224.223" gradientUnits="userSpaceOnUse">
<stop stop-color="#FDF53F"/>
<stop offset="1" stop-color="#D93C65"/>
</linearGradient>
<linearGradient id="paint8_linear_1802_23313" x1="189.973" y1="15.0161" x2="91.6939" y2="124.814" gradientUnits="userSpaceOnUse">
<stop stop-color="#53D8FF"/>
<stop offset="1" stop-color="#3840F7"/>
</linearGradient>
<linearGradient id="paint9_linear_1802_23313" x1="137.465" y1="67.8582" x2="39.3538" y2="194.484" gradientUnits="userSpaceOnUse">
<stop stop-color="#53D8FF"/>
<stop offset="1" stop-color="#3840F7"/>
</linearGradient>
<linearGradient id="paint10_linear_1802_23313" x1="76.6774" y1="135.499" x2="142.656" y2="77.851" gradientUnits="userSpaceOnUse">
<stop stop-color="#A737D5"/>
<stop offset="1" stop-color="#EF497A"/>
</linearGradient>
<linearGradient id="paint11_linear_1802_23313" x1="132.9" y1="219.577" x2="169.278" y2="259.634" gradientUnits="userSpaceOnUse">
<stop stop-color="#CB236D"/>
<stop offset="1" stop-color="#4C246D"/>
</linearGradient>
<linearGradient id="paint12_linear_1802_23313" x1="144.867" y1="222.52" x2="141.592" y2="222.52" gradientUnits="userSpaceOnUse">
<stop stop-color="#F9B776"/>
<stop offset="1" stop-color="#F47960"/>
</linearGradient>
<linearGradient id="paint13_linear_1802_23313" x1="152.632" y1="197.784" x2="141.804" y2="197.784" gradientUnits="userSpaceOnUse">
<stop stop-color="#2B3582"/>
<stop offset="1" stop-color="#150E42"/>
</linearGradient>
<linearGradient id="paint14_linear_1802_23313" x1="141.171" y1="212.066" x2="177.548" y2="252.123" gradientUnits="userSpaceOnUse">
<stop stop-color="#CB236D"/>
<stop offset="1" stop-color="#4C246D"/>
</linearGradient>
<linearGradient id="paint15_linear_1802_23313" x1="156.669" y1="222.353" x2="153.841" y2="222.353" gradientUnits="userSpaceOnUse">
<stop stop-color="#F9B776"/>
<stop offset="1" stop-color="#F47960"/>
</linearGradient>
<linearGradient id="paint16_linear_1802_23313" x1="159.716" y1="197.435" x2="144.344" y2="197.435" gradientUnits="userSpaceOnUse">
<stop stop-color="#2B3582"/>
<stop offset="1" stop-color="#150E42"/>
</linearGradient>
<linearGradient id="paint17_linear_1802_23313" x1="149.253" y1="146.03" x2="132.014" y2="192.967" gradientUnits="userSpaceOnUse">
<stop stop-color="#CE1567"/>
<stop offset="1" stop-color="#7A1DBC"/>
</linearGradient>
<linearGradient id="paint18_linear_1802_23313" x1="131.391" y1="138.127" x2="114.661" y2="138.127" gradientUnits="userSpaceOnUse">
<stop stop-color="#F9B776"/>
<stop offset="1" stop-color="#F47960"/>
</linearGradient>
<linearGradient id="paint19_linear_1802_23313" x1="118.388" y1="135.357" x2="129.385" y2="160.687" gradientUnits="userSpaceOnUse">
<stop stop-color="#F9B776"/>
<stop offset="1" stop-color="#F47960"/>
</linearGradient>
<linearGradient id="paint20_linear_1802_23313" x1="114.741" y1="126.954" x2="110.137" y2="119.789" gradientUnits="userSpaceOnUse">
<stop stop-color="#F9B776"/>
<stop offset="1" stop-color="#F47960"/>
</linearGradient>
<linearGradient id="paint21_linear_1802_23313" x1="162.668" y1="150.957" x2="145.43" y2="197.894" gradientUnits="userSpaceOnUse">
<stop stop-color="#CE1567"/>
<stop offset="1" stop-color="#7A1DBC"/>
</linearGradient>
<linearGradient id="paint22_linear_1802_23313" x1="168" y1="161.537" x2="146.828" y2="161.537" gradientUnits="userSpaceOnUse">
<stop stop-color="#F9B776"/>
<stop offset="1" stop-color="#F47960"/>
</linearGradient>
<linearGradient id="paint23_linear_1802_23313" x1="140.422" y1="146.666" x2="129.048" y2="194.645" gradientUnits="userSpaceOnUse">
<stop stop-color="#9CFFFB"/>
<stop offset="1" stop-color="#9BFFFA"/>
</linearGradient>
<linearGradient id="paint24_linear_1802_23313" x1="133.134" y1="139.113" x2="135.556" y2="149.881" gradientUnits="userSpaceOnUse">
<stop stop-color="#53D8FF"/>
<stop offset="1" stop-color="#3840F7"/>
</linearGradient>
<linearGradient id="paint25_linear_1802_23313" x1="134.431" y1="143.624" x2="135.589" y2="150.657" gradientUnits="userSpaceOnUse">
<stop stop-color="#53D8FF"/>
<stop offset="1" stop-color="#3840F7"/>
</linearGradient>
<linearGradient id="paint26_linear_1802_23313" x1="148.4" y1="159.343" x2="141.804" y2="159.343" gradientUnits="userSpaceOnUse">
<stop stop-color="#F9B776"/>
<stop offset="1" stop-color="#F47960"/>
</linearGradient>
<linearGradient id="paint27_linear_1802_23313" x1="151.743" y1="139.178" x2="143.372" y2="139.178" gradientUnits="userSpaceOnUse">
<stop stop-color="#F9B776"/>
<stop offset="1" stop-color="#F47960"/>
</linearGradient>
<linearGradient id="paint28_linear_1802_23313" x1="141.381" y1="133.917" x2="150.523" y2="128.272" gradientUnits="userSpaceOnUse">
<stop stop-color="#F9B776"/>
<stop offset="1" stop-color="#F47960"/>
</linearGradient>
<linearGradient id="paint29_linear_1802_23313" x1="155.457" y1="122.527" x2="143.679" y2="131.944" gradientUnits="userSpaceOnUse">
<stop stop-color="#2B3582"/>
<stop offset="1" stop-color="#150E42"/>
</linearGradient>
<linearGradient id="paint30_linear_1802_23313" x1="143.799" y1="135.985" x2="152.024" y2="130.906" gradientUnits="userSpaceOnUse">
<stop stop-color="#F9B776"/>
<stop offset="1" stop-color="#F47960"/>
</linearGradient>
<clipPath id="clip0_1802_23313">
<rect width="168" height="165" fill="white" transform="translate(0 65)"/>
</clipPath>
</defs>
</svg>
