<svg width="289" height="185" viewBox="0 0 289 185" fill="none" xmlns="http://www.w3.org/2000/svg">
<path opacity="0.2" d="M265.176 82.1698L273.415 69.393C277.755 62.6635 277.663 53.9942 273.18 47.3588L254.414 19.5765C248.859 11.3536 238.115 8.44691 229.172 12.7478L195.069 29.1491C189.86 31.6542 185.99 36.2903 184.455 41.8629L172.968 83.5738C168.766 98.8339 183.115 112.697 198.221 107.972L254.339 90.4187C258.805 89.0217 262.64 86.1027 265.176 82.1698Z" fill="#F2994A"/>
<path d="M45.1411 72.2317C45.1411 72.2317 49.4184 63.4968 59.6468 64.4674C59.6468 64.4674 74.4971 49.9086 90.3329 62.5261C90.3329 62.5261 107.166 59.3999 119.632 65.2329C127.944 69.1226 130.69 73.2023 130.69 73.2023L45.1411 72.2317Z" fill="#F8FCFF"/>
<path d="M165.056 57.3941C148.962 34.9583 126.123 61.2003 126.123 61.2003C126.123 61.2003 104.829 33.6527 87.4749 55.0977C70.121 76.5427 124.424 120.415 124.424 120.415C124.424 120.415 181.151 79.8289 165.056 57.3941Z" fill="#FF837B"/>
<path d="M158.768 65.5518C157.067 66.1071 155.208 65.4311 154.25 63.8992C153.224 62.2576 151.563 60.3736 149.148 59.8164C147.524 59.4412 146.506 57.7996 146.875 56.15C147.244 54.5004 148.86 53.4664 150.485 53.8416C155.719 55.0496 158.714 59.2632 160.175 62.0846C160.873 63.4325 160.197 65.0921 158.768 65.5518Z" fill="#FF837B"/>
<path d="M120.229 111.799C117.22 108.851 109.073 99.6772 109.073 99.6772C107.756 98.3826 105.849 95.2906 107.124 93.9528C108.398 92.615 112.089 96.0148 113.405 97.3094C113.405 97.3094 119.31 104.625 122.622 107.059C126.26 109.734 127.74 111.818 126.465 113.155C125.814 113.838 122.873 114.39 120.229 111.799Z" fill="#FF837B"/>
<g opacity="0.5">
<path opacity="0.5" d="M97.4943 141.999C97.4943 141.999 87.2887 132.165 76.4582 130.296C75.0192 130.047 74.0685 131.779 75.0242 132.9C75.04 132.919 75.0569 132.937 75.0727 132.956C76.7365 134.843 89.615 137.857 97.4943 141.999Z" fill="#AEC3FF"/>
<path opacity="0.5" d="M100.718 144.559C100.718 144.559 84.0789 135.544 69.7733 137.413C68.9008 137.527 68.2363 138.314 68.3155 139.203C68.368 139.782 68.7265 140.453 69.7416 141.117C72.4512 142.887 89.507 142.15 100.718 144.559Z" fill="#AEC3FF"/>
</g>
<g opacity="0.5">
<path opacity="0.5" d="M161.65 127.645C161.65 127.645 169.778 119.814 178.404 118.324C179.551 118.126 180.307 119.506 179.546 120.398C179.533 120.413 179.52 120.428 179.507 120.443C178.182 121.947 167.925 124.347 161.65 127.645Z" fill="#AEC3FF"/>
<path opacity="0.5" d="M159.082 129.685C159.082 129.685 172.334 122.506 183.727 123.994C184.421 124.085 184.951 124.711 184.888 125.42C184.846 125.881 184.561 126.415 183.752 126.943C181.595 128.354 168.011 127.766 159.082 129.685Z" fill="#AEC3FF"/>
</g>
<path opacity="0.3" d="M93.4643 151.715C93.4643 151.715 95.4995 160.516 93.8635 160.799C92.2274 161.083 92.2918 150.826 92.2918 150.826C92.2918 150.826 83.9956 147.227 80.8225 147.685C80.8225 147.685 86.2417 156.123 84.5868 155.988C82.9329 155.854 76.8928 147.34 76.8928 147.34C76.8928 147.34 68.4965 146.151 67.3804 151.224C66.2643 156.297 68.5332 158.705 69.781 158.963C71.0289 159.22 78.9398 158.756 78.7804 159.81C78.6209 160.863 73.3483 162.777 70.3257 161.972C70.3257 161.972 73.9781 170.071 78.2783 169.458C82.5774 168.844 83.7945 166.069 86.4586 165.739C89.1226 165.409 91.1083 166.051 89.803 166.843C88.4987 167.634 83.954 167.348 81.8762 169.31C79.7994 171.272 78.095 172.546 82.1486 173.153C93.2425 174.816 95.9709 166.563 95.9709 166.563C95.9709 166.563 103.489 161.827 99.6283 156.04C99.6293 156.039 96.5899 152.515 93.4643 151.715Z" fill="#AEC3FF"/>
<path opacity="0.5" d="M174.852 138.378C173.857 133.255 165.397 134.233 165.397 134.233C165.397 134.233 159.119 142.628 157.455 142.719C155.79 142.812 161.442 134.477 161.442 134.477C158.267 133.936 149.846 137.337 149.846 137.337C149.846 137.337 149.655 147.638 148.019 147.311C146.384 146.984 148.647 138.199 148.647 138.199C145.489 138.922 142.348 142.382 142.348 142.382C138.327 148.096 145.759 153.045 145.759 153.045C145.759 153.045 145.616 156.612 143.17 160.543C143.17 160.543 142.63 161.262 142.044 162.509L142.888 162.569C142.973 162.344 143.064 162.127 143.162 161.92C143.162 161.918 143.163 161.917 143.164 161.916C143.165 161.913 143.167 161.91 143.168 161.907C143.235 161.778 143.331 161.596 143.451 161.374C143.451 161.374 143.451 161.374 143.451 161.373C143.451 161.372 143.452 161.372 143.452 161.372C143.745 160.878 143.945 160.512 144.074 160.247C144.074 160.246 144.075 160.245 144.075 160.245C144.957 158.691 146.214 156.675 146.986 156.288C146.986 156.288 146.902 156.149 146.833 155.883C146.881 156.013 146.933 156.148 146.986 156.288C148.213 159.533 155.395 160.569 159.474 160.018C163.554 159.466 161.88 158.19 159.844 156.166C157.808 154.142 153.236 154.312 151.946 153.484C150.655 152.655 152.666 152.062 155.332 152.462C157.999 152.862 159.152 155.681 163.454 156.407C167.756 157.134 171.626 149.094 171.626 149.094C168.571 149.825 163.324 147.768 163.19 146.706C163.057 145.643 170.989 146.312 172.248 146.086C173.508 145.861 175.846 143.501 174.852 138.378Z" fill="#AEC3FF"/>
<path opacity="0.5" d="M119.643 171.53C120.103 172.594 126.185 173.099 129.143 171.387C129.143 171.387 127.546 180.959 122.849 181.544C118.153 182.129 116.102 179.555 113.206 179.971C110.309 180.386 108.398 181.63 109.991 182.09C111.583 182.551 116.288 180.947 119.02 182.419C120.275 183.096 121.403 183.631 121.859 184.192C120.661 184.192 119.457 184.192 118.251 184.191C113.378 184.189 108.45 184.187 103.536 184.183C103.474 183.781 103.419 183.562 103.419 183.562C103.419 183.562 94.1904 180.729 96.6475 173.529C96.6475 173.529 98.8689 168.949 101.938 167.213C101.938 167.213 102.237 177.061 104.039 176.891C105.839 176.721 102.925 165.943 102.925 165.943C102.925 165.943 110.66 159.778 114.128 159.351C114.128 159.351 110.766 169.785 112.469 169.171C114.174 168.555 118.169 157.863 118.169 157.863C118.169 157.863 126.678 154.207 129.261 159.229C131.844 164.249 130.123 167.435 128.882 168.062C127.64 168.69 119.182 170.466 119.643 171.53Z" fill="#AEC3FF"/>
<path d="M110.024 42.1941C110.024 42.1941 113.329 35.8763 121.231 36.5784C121.231 36.5784 132.703 26.049 144.937 35.1742C144.937 35.1742 157.941 32.913 167.572 37.1316C173.994 39.944 176.114 42.8952 176.114 42.8952L110.024 42.1941Z" fill="#F8FCFF"/>
<path d="M161.227 31.8495C161.227 31.8495 162.912 28.4095 166.939 28.7917C166.939 28.7917 172.787 23.0583 179.024 28.0273C179.024 28.0273 185.653 26.7961 190.562 29.0935C193.835 30.6254 194.917 32.2318 194.917 32.2318L161.227 31.8495Z" fill="#F8FCFF"/>
<path d="M38.7681 49.6591C38.7681 49.6591 40.4527 46.2191 44.4804 46.6013C44.4804 46.6013 50.3285 40.8679 56.5647 45.8368C56.5647 45.8368 63.1941 44.6057 68.1033 46.903C71.3764 48.435 72.4579 50.0413 72.4579 50.0413L38.7681 49.6591Z" fill="#F8FCFF"/>
<path d="M38.9532 127.751C34.7076 126.654 30.04 119.964 30.04 119.964L31.2354 118.911C32.4733 120.392 37.6192 122.945 37.6192 122.945C37.5915 121.589 37.6261 120.352 37.7113 119.225C38.2827 111.573 41.1231 109.023 41.8975 108.464C42.0223 108.373 42.0946 108.335 42.0946 108.335C42.0946 108.335 42.0976 108.39 42.1015 108.496C42.1124 108.723 42.1332 109.182 42.154 109.811C42.3125 114.495 42.5006 128.669 38.9532 127.751Z" fill="#FFB27D"/>
<path d="M42.3562 117.306C42.3463 117.725 42.3324 118.145 42.3156 118.567C42.1789 121.972 41.8144 125.356 40.9915 127.337C40.7884 127.823 40.5597 128.225 40.2982 128.521C39.9189 128.953 39.4733 129.163 38.9503 129.084C36.0823 128.659 35.3346 125.94 35.1831 123.918C35.088 122.66 35.2246 121.672 35.2246 121.672C35.2246 121.672 36.6686 122.477 36.8964 122.263C37.3658 121.823 37.5391 118.895 37.6649 116.549C37.8303 113.474 37.8738 110.018 38.163 109.423C38.99 107.722 42.1819 107.722 42.1819 107.722C42.1819 107.722 42.481 112.354 42.3562 117.306Z" fill="#4143E3"/>
<path d="M45.7381 99.9345C45.7381 99.9345 43.3731 101.35 44.824 104.091C44.824 104.091 42.7541 103.705 42.3065 103.078C42.3065 103.078 42.359 103.339 42.4353 103.471C42.4353 103.471 40.5318 103.033 39.9099 102.227C39.2869 101.42 42.3412 91.7578 47.288 94.2604C47.288 94.2604 51.8119 95.1134 50.0402 100.214C48.2684 105.315 49.9431 105.765 49.9431 105.765C49.9431 105.765 49.4162 105.873 49.1914 105.813C49.1914 105.813 48.8963 105.597 48.8795 105.395C48.8795 105.395 48.8686 105.702 48.929 105.818C48.929 105.818 47.076 105.506 46.3541 104.569C45.6321 103.634 45.2003 100.94 45.7381 99.9345Z" fill="#233862"/>
<path d="M42.3261 108.147C42.3227 108.149 42.3204 108.15 42.3169 108.151C42.2998 108.149 42.3032 108.147 42.3261 108.147Z" fill="#FFB27D"/>
<path d="M48.0712 106.467C48.1406 107.1 48.2237 107.667 48.2604 107.936C48.3436 108.542 42.6847 108.148 42.3242 108.147C42.5758 108.036 43.3433 105.563 43.5869 104.619C43.8811 103.474 44.1128 102.239 44.1128 102.239L48.1089 102.496L48.3465 102.511C48.199 103.064 48.094 103.586 48.0217 104.072C48.0118 104.137 48.0029 104.204 47.994 104.267C47.9207 104.806 47.9841 105.686 48.0712 106.467Z" fill="#FFB27D"/>
<path d="M43.5603 101.831C43.5603 101.831 42.9126 99.7435 43.0433 98.1442C43.1364 97.0016 44.7378 93.1048 48.5873 94.7635C48.5873 94.7635 49.7193 95.192 50.6165 96.2351C51.3296 97.0649 52.2486 98.6884 49.9263 101.841L49.2518 102.935L43.5603 101.831Z" fill="#233862"/>
<path d="M42.8325 117.633L42.6206 124.522C42.6206 124.522 41.8709 125.826 40.9915 127.336C40.7657 127.723 40.5309 128.125 40.2982 128.52C39.9189 128.953 39.4732 129.162 38.9503 129.083C36.0823 128.658 35.3346 125.939 35.1831 123.917C35.088 122.659 35.2246 121.671 35.2246 121.671C35.2246 121.671 36.4794 122.218 36.7072 122.004C37.1766 121.564 37.5401 118.894 37.6659 116.548L39.6238 115.425L42.3562 117.305L42.8325 117.633Z" fill="#0C0364"/>
<path d="M48.0715 106.466C45.2768 105.635 44.0903 102.355 44.0903 102.355C45.2728 102.391 46.8128 103.225 48.021 104.071C48.0111 104.137 48.0022 104.203 47.9933 104.267C47.921 104.806 47.9844 105.686 48.0715 106.466Z" fill="#ED975D"/>
<path d="M48.2683 105.315C48.2683 105.315 43.2185 104.048 44.0444 100.865C44.8704 97.6836 44.7743 95.3772 48.0336 96.0511C51.2928 96.7261 51.6018 98.1071 51.58 99.2377C51.5592 100.368 49.6033 105.563 48.2683 105.315Z" fill="#FFB27D"/>
<path d="M51.892 97.4287C50.3886 95.0136 48.5971 94.7622 48.5881 94.7622C47.3046 93.8881 45.6072 96.0326 45.6072 96.0326C44.6762 98.2244 42.7144 99.0964 42.7144 99.0964C42.7144 99.0964 43.4809 99.9182 45.7379 99.9343C46.4272 99.9393 47.1244 99.6285 47.7622 99.195C46.5282 100.421 45.0902 101.156 45.0902 101.156C47.7978 100.673 49.6924 97.642 50.0281 97.0706C50.3926 97.6661 50.755 98.3581 50.7739 98.7866C50.8135 99.6637 50.4916 101.362 50.9848 101.434C50.9848 101.435 52.9041 99.0552 51.892 97.4287Z" fill="#233862"/>
<path d="M47.48 103.275C47.48 103.275 47.5434 103.76 47.8474 103.873C48.1514 103.988 48.9596 104.195 49.0408 104.144C49.123 104.093 49.425 103.714 49.425 103.714C49.425 103.714 48.1534 103.22 47.48 103.275Z" fill="white"/>
<path d="M45.5945 151.948C45.5301 152.221 45.4658 152.49 45.4034 152.757C45.0231 154.363 44.6685 155.854 44.4447 157.1C44.1545 158.723 44.0862 159.93 44.4665 160.438C46.0342 162.526 44.4665 179.1 44.4665 179.1L42.6819 180.968C42.6819 180.968 39.5791 164.604 38.7373 162.04C38.354 160.874 37.7975 155.896 37.3043 150.815C37.2795 150.56 37.2547 150.306 37.231 150.052C37.1458 149.163 37.0636 148.278 36.9854 147.414C36.5437 142.606 36.2129 138.488 36.2129 138.488C36.2129 138.488 39.5038 136.137 42.4947 135.876C44.2565 135.72 45.9134 136.289 46.7314 138.488C47.9238 141.686 46.7166 147.209 45.5945 151.948Z" fill="#FFB27D"/>
<path d="M45.0925 153.048C42.789 150.497 41.2718 146.844 38.4601 141.73C38.2215 139.129 40.2408 136.656 42.4948 135.876C44.2567 135.72 45.9135 136.289 46.7316 138.488C47.924 141.686 46.2146 148.309 45.0925 153.048Z" fill="#ED975D"/>
<path d="M54.5125 120.345L66.5304 123.497V124.922C66.5304 124.922 54.5709 124.78 53.7994 123.427C53.0279 122.074 54.5125 120.345 54.5125 120.345Z" fill="#FFB27D"/>
<path d="M66.5305 167.322L65.969 169.678C65.969 169.678 49.7124 161.149 47.6099 159.512C46.7651 158.854 45.649 155.28 44.615 151.237C43.075 145.212 41.7183 138.145 41.7183 138.145C41.7183 138.145 43.9971 129.243 50.0976 134.691C53.7481 137.951 53.1806 144.233 52.7805 149.12C52.5141 152.398 52.323 155.049 53.5332 155.736C55.8942 157.074 62.8237 163.24 65.0173 167.483L66.5305 167.322Z" fill="#FFB27D"/>
<path d="M60.4102 120.344C61.1877 121.466 60.7598 123.64 59.1287 125.391C58.1156 126.478 56.7449 127.121 54.5127 126.787C53.5402 126.641 51.8239 125.537 50.9286 123.709C50.7949 123.436 50.4552 122.635 50.4552 122.635C50.4552 122.635 49.2173 123.893 49.1717 124.131C49.1509 124.238 49.044 125.19 49.0271 125.319C49.0083 125.476 49.1182 126.055 49.1182 126.055C49.1182 126.055 43.2049 128.681 38.3165 125.69C38.3165 125.69 37.1597 118.064 37.9233 111.54C38.0699 110.29 41.2113 108.584 42.1828 107.721C42.4007 107.527 42.6225 106.941 42.5631 106.565C42.5136 106.246 42.8741 105.71 43.1771 105.808C43.7614 105.998 45.4143 106.829 46.578 106.512C47.1573 106.356 47.8922 105.675 48.4537 105.831C49.14 106.021 48.4151 107.7 48.8043 107.721C49.3401 107.748 51.7486 107.786 52.4795 108.81C53.0777 109.649 53.3956 111.214 54.4394 114.175C54.4394 114.175 54.4404 114.177 54.4414 114.183C56.3983 119.741 59.2694 118.698 60.4102 120.344Z" fill="#4143E3"/>
<path d="M50.4551 122.636C50.4551 122.636 49.8599 121.224 49.4261 118.865C49.3033 118.199 44.2634 123.314 45.5261 125.391C46.7878 127.468 50.4551 122.636 50.4551 122.636Z" fill="#0C0364"/>
<path d="M57.7192 143.944C57.7192 143.944 56.1357 144.405 53.7568 144.914C48.8417 145.967 40.5287 147.229 35.7681 145.073C35.7681 145.073 36.0721 137.961 36.9 132.585C37.5616 128.284 38.1756 125.461 38.1756 125.461C38.1756 125.461 42.6015 126.588 47.0957 125.714C47.1383 125.706 47.1809 125.698 47.2235 125.688C47.8117 125.57 48.401 125.415 48.9804 125.219C48.9804 125.219 52.3733 130.159 54.1233 133.595C55.3345 135.972 57.7192 143.944 57.7192 143.944Z" fill="#B0D0FF"/>
<path d="M57.7194 143.944C57.7194 143.944 56.1358 144.405 53.757 144.914C53.2459 144.97 52.7141 145.022 52.1635 145.072C44.1862 134.727 47.1275 125.739 47.1275 125.739C47.1592 125.722 47.1919 125.705 47.2236 125.688C47.8119 125.57 48.4011 125.415 48.9805 125.219C48.9805 125.219 52.3734 130.159 54.1234 133.595C55.3346 135.972 57.7194 143.944 57.7194 143.944Z" fill="#98BAF4"/>
<path d="M66.5303 123.496C66.5303 123.496 68.7348 122.393 69.6113 122.286C70.4878 122.18 71.9604 122.144 71.9604 122.286C71.9604 122.429 70.3828 123.424 69.9619 123.496C69.541 123.569 68.7348 124.173 68.9804 124.245C69.226 124.316 70.5234 124.013 70.5403 124.245C70.5581 124.476 69.7509 124.619 69.6113 124.797C69.4707 124.975 68.9804 125.188 68.1911 125.082C67.4018 124.975 66.5293 124.922 66.5293 124.922V123.496H66.5303Z" fill="#FFB27D"/>
<path d="M69.744 168.237C69.744 168.237 69.7391 168.236 69.7292 168.234C69.6559 168.216 69.3221 168.103 69.1003 167.563C68.9547 167.207 68.9101 166.915 68.7764 166.563L68.2278 165.601C67.6534 164.833 67.4523 165.012 67.4523 165.012C67.4523 165.012 67.3018 165.207 67.08 165.466C66.7136 165.891 66.152 166.485 65.7549 166.637C65.4726 166.744 65.2954 166.922 65.1874 167.088C65.0488 167.297 65.0181 167.484 65.0181 167.484C65.0181 167.484 66.1966 167.693 66.0946 168.282C65.8945 169.424 65.9421 169.632 65.9619 169.669L65.9688 169.677C65.9688 169.677 67.9792 170.747 68.622 170.956C69.7658 171.328 70.364 172.118 70.7344 172.479C70.8849 172.625 71.0929 172.692 71.2969 172.659C71.599 172.611 71.9901 172.512 72.0753 172.324L69.744 168.237Z" fill="#2B478B"/>
<path d="M46.2608 181.798L45.2981 182.327C44.9485 182.453 44.6593 182.489 44.3048 182.627C43.767 182.836 43.3877 183.247 43.3699 183.322C43.0985 184.443 42.7004 184.409 42.7004 184.409H38.844C38.6618 184.316 38.9707 183.523 39.1193 183.375C39.4847 183.009 40.5801 183.193 40.9792 182.042C41.204 181.395 42.3142 179.386 42.3142 179.386L42.3221 179.379C42.3597 179.358 42.5657 179.317 43.6838 179.554C44.2612 179.675 44.5009 178.484 44.5009 178.484C44.5009 178.484 44.6851 178.522 44.8852 178.667C45.0446 178.782 45.2149 178.967 45.313 179.257C45.4516 179.665 46.0191 180.253 46.4271 180.636C46.6747 180.868 46.8629 181.026 46.8629 181.026C46.8629 181.026 47.0332 181.237 46.2608 181.798Z" fill="#2B478B"/>
<path d="M31.2354 118.91C31.2354 118.91 31.4136 117.67 31.0987 116.852C30.7659 115.99 30.6917 115.053 30.4262 115.425C30.1598 115.797 30.3847 116.847 30.1509 116.814C30.0479 116.799 29.733 116.618 29.6082 116.113C29.4508 115.471 29.834 114.629 29.3081 114.712C28.807 114.791 28.1346 117.157 28.4673 117.8C28.8001 118.442 30.04 119.963 30.04 119.963L31.2354 118.91Z" fill="#FFB27D"/>
<path d="M42.875 126.787C39.5969 126.787 38.2451 125.642 38.145 125.563L37.9331 123.995C37.9648 124.018 42.3639 126.702 49.1716 124.132L49.027 125.32C46.4085 126.309 44.5774 126.787 42.875 126.787Z" fill="#212429"/>
<path d="M72.1617 107.15C72.6588 109.379 73.6333 113.686 77.3363 118.884C80.0063 122.631 85.0838 128.174 90.0544 135.417C93.6384 140.64 95.7182 143.722 96.8611 145.433C97.6741 146.65 98.2357 148.005 98.5159 149.426L89.9167 175.662L110.36 177.478C110.36 177.478 118.062 150.15 118.068 138.688C118.068 138.684 118.067 138.68 118.069 138.678C118.068 137.349 118.081 135.933 118.114 134.419C118.26 127.405 120.266 121.879 100.303 121.686C100.219 121.686 100.143 121.626 100.053 121.593C99.2745 121.288 98.0861 120.736 96.3342 119.302C96.0391 119.062 95.7291 118.797 95.4042 118.506C93.4552 116.757 91.6062 115.379 89.8672 114.29C80.7916 108.591 71.7101 105.124 72.1617 107.15Z" fill="#FFB27D"/>
<path d="M70.7417 93.8463C71.0408 90.5501 73.4572 80.1816 73.4572 80.1816C73.4572 80.1816 75.8222 80.7339 76.6888 82.2718C79.2241 86.7731 78.3951 95.6468 78.2614 95.6991C78.2575 95.6991 82.3853 103.757 83.0855 108.939C83.0855 108.939 83.0864 108.943 83.0855 108.939C83.0855 108.939 94.0318 114.972 96.3374 119.302C96.477 119.565 96.5889 119.825 96.6701 120.074C96.9831 121.047 97.1158 122.379 97.0979 123.858C97.0207 129.103 94.9806 136.196 91.9313 135.65C91.1786 135.513 73.5672 115.516 72.8383 111.994C72.6669 111.164 70.5813 95.6055 70.7417 93.8463Z" fill="#FFB27D"/>
<path d="M99.1865 116.283C99.1865 116.283 99.7074 121.372 94.52 116.909L94.1011 122.757L101.326 126.665L103.778 122.374L99.1865 116.283Z" fill="#FFB27D"/>
<path d="M73.9665 85.3049C74.0655 85.1127 74.1329 84.9005 74.1656 84.6762C74.1656 84.6762 74.4419 82.6675 74.639 81.1939C74.7697 80.2222 74.1279 79.4356 73.7635 79.2888C73.5327 79.1962 72.1165 82.9632 72.061 86.5099C72.8929 86.524 73.609 86.0019 73.9665 85.3049Z" fill="#FFC69F"/>
<path d="M83.0845 108.94C85.4475 109.727 99.8422 119.669 100.621 119.976C102.42 122.284 102.724 125.704 101.845 126.084C100.657 126.601 98.014 125.565 96.2502 123.92C93.8852 121.717 93.1999 118.814 92.4938 117.198C92.1749 116.47 90.0803 115.413 89.287 114.35C87.2014 111.557 83.3548 109.157 83.0845 108.94Z" fill="#F6A56E"/>
<path d="M110.628 118.439C110.628 118.439 91.8876 103.113 89.8168 99.2217C89.8168 99.2217 86.5189 100.433 87.8351 105.517C89.1513 110.602 98.3665 119.73 98.9172 123.331C100.985 136.86 108.551 141.023 108.551 141.023C108.551 141.023 129.09 133.574 110.628 118.439Z" fill="#FFB27D"/>
<path d="M91.0219 104.884C90.8496 104.747 90.6971 104.58 90.5723 104.387C90.5723 104.387 89.4631 102.661 88.653 101.393C88.1192 100.557 88.2886 99.4708 89.0591 98.8311C89.2482 98.6742 89.3611 98.5957 89.3611 98.5957C90.2712 99.3934 92.6203 100.881 94.1861 104.099C93.3225 104.728 91.6468 105.382 91.0219 104.884Z" fill="#FFC69F"/>
<path d="M117.477 155.988C117.477 155.988 117.387 158.517 117.236 162.525C117.232 162.629 117.228 162.736 117.224 162.843C117.017 168.324 116.702 176.413 116.346 184.566C104.47 184.559 92.7225 184.549 81.5464 184.535C84.8443 177.843 90.4536 166.971 93.8565 160.412C95.4707 157.298 96.5869 155.156 96.7225 154.898C96.7315 154.881 96.7364 154.872 96.7364 154.872C96.9256 154.594 97.1355 154.342 97.3653 154.116C97.6802 153.801 98.0298 153.532 98.4121 153.307C101.556 151.431 106.779 152.323 110.963 153.562C112.891 154.133 114.597 154.776 115.78 155.256C116.584 155.584 117.147 155.836 117.369 155.938C117.441 155.97 117.477 155.988 117.477 155.988Z" fill="#4143E3"/>
<path d="M117.23 162.843C117.23 162.843 108.959 165.112 104.181 165.185L102.417 161.85L100.874 164.67C100.874 164.67 94.8369 162.808 93.6069 160.987L97.8139 153.294L117.414 153.692L117.23 162.843Z" fill="#0C0364"/>
<path d="M116.886 149.438C116.886 149.438 119.434 155.45 119.974 162.575C119.974 162.575 110.01 163.698 105.266 163.104L103.19 154.744L100.166 162.009C100.166 162.009 94.6774 161.286 92.77 159.782C92.77 159.782 96.3224 153.602 98.5596 149.507C98.5596 149.507 107.794 152.333 116.886 149.438Z" fill="#F3F8FF"/>
<path d="M110.86 160.958C111.106 160.497 110.916 159.929 110.436 159.691C109.955 159.453 109.365 159.634 109.119 160.095C108.872 160.557 109.062 161.124 109.543 161.363C110.024 161.601 110.613 161.42 110.86 160.958Z" fill="#4143E3"/>
<path d="M176.677 107.15C176.18 109.379 175.206 113.686 171.503 118.884C168.833 122.631 163.755 128.174 158.785 135.417C155.201 140.64 153.121 143.722 151.978 145.433C151.165 146.65 150.603 148.005 150.323 149.426L158.922 175.662L138.48 177.478C138.48 177.478 130.778 150.15 130.771 138.688C130.771 138.684 130.772 138.68 130.77 138.678C130.771 137.349 130.758 135.933 130.725 134.419C130.579 127.405 128.573 121.879 148.537 121.686C148.62 121.686 148.696 121.626 148.786 121.593C149.564 121.288 150.753 120.736 152.505 119.302C152.8 119.062 153.11 118.797 153.435 118.506C155.384 116.757 157.233 115.379 158.972 114.29C168.046 108.591 177.129 105.124 176.677 107.15Z" fill="#FFB27D"/>
<path d="M178.098 93.8463C177.799 90.5501 175.382 80.1816 175.382 80.1816C175.382 80.1816 173.017 80.7339 172.151 82.2718C169.615 86.7731 170.444 95.6468 170.578 95.6991C170.582 95.6991 166.454 103.757 165.754 108.939C165.754 108.939 165.754 108.943 165.754 108.939C165.754 108.939 154.808 114.972 152.502 119.302C152.362 119.565 152.251 119.825 152.169 120.074C151.856 121.047 151.724 122.379 151.742 123.858C151.82 129.103 153.86 136.196 156.909 135.65C157.661 135.513 175.273 115.516 176.002 111.994C176.172 111.164 178.257 95.6055 178.098 93.8463Z" fill="#FFB27D"/>
<path d="M149.653 116.283C149.653 116.283 149.132 121.372 154.319 116.909L154.739 122.757L147.515 126.665L145.062 122.374L149.653 116.283Z" fill="#FFB27D"/>
<path d="M174.872 85.3049C174.773 85.1127 174.706 84.9005 174.673 84.6762C174.673 84.6762 174.397 82.6675 174.199 81.1939C174.069 80.2222 174.71 79.4356 175.075 79.2888C175.306 79.1962 176.722 82.9632 176.777 86.5099C175.945 86.524 175.229 86.0019 174.872 85.3049Z" fill="#FFC69F"/>
<path d="M165.754 108.94C163.391 109.727 148.996 119.669 148.218 119.976C146.418 122.284 146.114 125.704 146.994 126.084C148.181 126.601 150.824 125.565 152.588 123.92C154.953 121.717 155.639 118.814 156.345 117.198C156.664 116.47 158.758 115.413 159.551 114.35C161.638 111.557 165.485 109.157 165.754 108.94Z" fill="#F6A56E"/>
<path d="M138.21 118.439C138.21 118.439 156.951 103.113 159.022 99.2217C159.022 99.2217 162.319 100.433 161.003 105.517C159.687 110.602 150.472 119.73 149.921 123.331C147.853 136.86 140.287 141.023 140.287 141.023C140.287 141.023 119.748 133.574 138.21 118.439Z" fill="#FFB27D"/>
<path d="M157.816 104.884C157.988 104.747 158.141 104.58 158.266 104.387C158.266 104.387 159.375 102.661 160.185 101.393C160.719 100.557 160.549 99.4708 159.78 98.8311C159.591 98.6742 159.478 98.5957 159.478 98.5957C158.568 99.3934 156.078 101.016 154.513 104.234C155.266 104.571 157.192 105.382 157.816 104.884Z" fill="#FFC69F"/>
<path d="M167.32 184.593C156.238 184.592 144.475 184.588 132.492 184.583C132.137 176.424 131.822 168.328 131.615 162.845C131.61 162.737 131.606 162.631 131.603 162.526C131.452 158.519 131.362 155.989 131.362 155.989C131.362 155.989 131.398 155.972 131.47 155.939C131.693 155.836 132.255 155.585 133.059 155.257C134.243 154.777 135.949 154.133 137.876 153.563C142.061 152.324 147.283 151.433 150.427 153.307C150.808 153.533 151.158 153.801 151.474 154.116C151.705 154.342 151.914 154.595 152.103 154.873C152.103 154.873 152.108 154.882 152.117 154.899C152.252 155.156 153.368 157.299 154.983 160.413C158.395 166.989 164.025 177.905 167.32 184.593Z" fill="#4143E3"/>
<path d="M131.609 162.843C131.609 162.843 139.879 165.112 144.657 165.185L146.421 161.85L147.964 164.67C147.964 164.67 154.001 162.808 155.231 160.987L151.024 153.294L131.424 153.692L131.609 162.843Z" fill="#0C0364"/>
<path d="M131.952 149.438C131.952 149.438 129.404 155.45 128.864 162.575C128.864 162.575 138.828 163.698 143.572 163.104L145.649 154.744L148.672 162.009C148.672 162.009 154.161 161.286 156.068 159.782C156.068 159.782 152.516 153.602 150.279 149.507C150.279 149.507 141.045 152.333 131.952 149.438Z" fill="#F3F8FF"/>
<path d="M137.978 160.958C137.732 160.497 137.921 159.929 138.402 159.691C138.883 159.453 139.473 159.634 139.719 160.095C139.966 160.557 139.776 161.124 139.295 161.363C138.815 161.601 138.225 161.42 137.978 160.958Z" fill="#4143E3"/>
<path d="M161.336 174.864C162.003 175.139 164.386 174.916 164.462 174.723C164.539 174.53 162.981 172.686 162.315 172.412C161.648 172.137 160.889 172.464 160.618 173.141C160.348 173.818 160.67 174.589 161.336 174.864Z" fill="#A8D29F"/>
<path d="M167.345 176.019C166.971 176.642 166.802 179.066 166.977 179.175C167.152 179.284 169.195 178.019 169.57 177.396C169.944 176.772 169.75 175.957 169.135 175.577C168.521 175.197 167.72 175.395 167.345 176.019Z" fill="#A8D29F"/>
<path d="M164.135 180.762C164.82 180.984 167.179 180.578 167.242 180.379C167.304 180.18 165.612 178.463 164.927 178.241C164.242 178.018 163.509 178.403 163.29 179.099C163.071 179.795 163.45 180.539 164.135 180.762Z" fill="#A8D29F"/>
<path d="M167.604 183.107C167.602 183.052 167.338 177.567 164.381 174.735L164.444 174.668C167.428 177.527 167.693 183.049 167.695 183.104L167.604 183.107Z" fill="#A8D29F"/>
<path d="M177.474 174.983C177.059 175.262 175.411 175.446 175.333 175.327C175.255 175.206 176.061 173.735 176.476 173.456C176.891 173.176 177.451 173.291 177.727 173.712C178.003 174.134 177.89 174.702 177.474 174.983Z" fill="#A8D29F"/>
<path d="M173.552 176.611C173.891 176.982 174.337 178.604 174.232 178.702C174.128 178.801 172.568 178.23 172.229 177.859C171.89 177.487 171.911 176.908 172.277 176.563C172.642 176.219 173.213 176.24 173.552 176.611Z" fill="#A8D29F"/>
<path d="M176.378 179.38C175.943 179.628 174.286 179.684 174.217 179.557C174.147 179.432 175.061 178.028 175.496 177.78C175.931 177.533 176.481 177.691 176.724 178.133C176.968 178.575 176.812 179.133 176.378 179.38Z" fill="#A8D29F"/>
<path d="M174.342 181.459C174.336 181.421 173.767 177.66 175.389 175.322L175.338 175.285C173.701 177.645 174.273 181.432 174.28 181.469L174.342 181.459Z" fill="#A8D29F"/>
<path d="M171.414 182.787L171.226 182.757C170.485 173.02 167.558 166.032 167.516 165.938L167.687 165.862C167.729 165.958 170.677 172.992 171.414 182.787Z" fill="#A8D29F"/>
<path d="M165.53 164.957C165.891 165.373 167.581 166.04 167.698 165.936C167.815 165.831 167.372 164.045 167.011 163.629C166.65 163.214 166.025 163.175 165.616 163.541C165.208 163.908 165.17 164.542 165.53 164.957Z" fill="#CCDBFD"/>
<path d="M168.121 163.509C167.795 163.954 167.499 165.772 167.624 165.866C167.749 165.961 169.379 165.153 169.706 164.708C170.031 164.264 169.941 163.635 169.504 163.304C169.066 162.973 168.447 163.065 168.121 163.509Z" fill="#CCDBFD"/>
<path d="M170.065 165.442C169.539 165.296 167.765 165.681 167.724 165.833C167.683 165.986 169.019 167.231 169.546 167.377C170.072 167.523 170.616 167.207 170.759 166.673C170.902 166.139 170.592 165.587 170.065 165.442Z" fill="#CCDBFD"/>
<path d="M168.867 167.852C168.814 167.301 167.831 165.752 167.676 165.768C167.522 165.783 166.848 167.494 166.901 168.045C166.953 168.596 167.436 169.001 167.979 168.947C168.522 168.894 168.919 168.403 168.867 167.852Z" fill="#CCDBFD"/>
<path d="M166.176 167.733C166.659 167.475 167.699 165.966 167.627 165.826C167.555 165.686 165.74 165.699 165.258 165.957C164.775 166.214 164.589 166.821 164.843 167.311C165.097 167.801 165.694 167.99 166.176 167.733Z" fill="#CCDBFD"/>
<path d="M167.306 165.775C167.335 165.595 167.501 165.472 167.679 165.5C167.856 165.529 167.977 165.698 167.949 165.878C167.92 166.058 167.754 166.181 167.577 166.153C167.399 166.124 167.278 165.955 167.306 165.775Z" fill="#163560"/>
<path d="M171.361 172.832C170.824 173.503 170.245 176.315 170.433 176.47C170.621 176.626 173.214 175.476 173.75 174.805C174.287 174.135 174.187 173.15 173.528 172.605C172.868 172.059 171.898 172.161 171.361 172.832Z" fill="#A8D29F"/>
<path d="M160.736 183.782L160.608 183.779C159.275 177.384 156.729 173.009 156.693 172.949L156.8 172.884C156.836 172.944 159.401 177.349 160.736 183.782Z" fill="#A8D29F"/>
<path d="M155.291 172.477C155.566 172.72 156.746 173.013 156.814 172.933C156.882 172.854 156.435 171.707 156.159 171.464C155.883 171.22 155.465 171.25 155.226 171.529C154.987 171.809 155.016 172.233 155.291 172.477Z" fill="#CCDBFD"/>
<path d="M156.886 171.285C156.707 171.609 156.669 172.841 156.759 172.893C156.85 172.945 157.862 172.264 158.039 171.94C158.218 171.616 158.103 171.206 157.784 171.026C157.466 170.844 157.063 170.961 156.886 171.285Z" fill="#CCDBFD"/>
<path d="M158.342 172.394C157.981 172.344 156.837 172.758 156.823 172.862C156.809 172.967 157.803 173.675 158.165 173.725C158.526 173.774 158.86 173.516 158.909 173.149C158.958 172.782 158.705 172.444 158.342 172.394Z" fill="#CCDBFD"/>
<path d="M157.755 174.099C157.673 173.738 156.886 172.799 156.784 172.822C156.682 172.846 156.384 174.041 156.466 174.402C156.549 174.763 156.904 174.988 157.26 174.905C157.616 174.821 157.838 174.461 157.755 174.099Z" fill="#CCDBFD"/>
<path d="M155.959 174.261C156.257 174.047 156.818 172.952 156.758 172.866C156.697 172.779 155.495 172.949 155.197 173.164C154.899 173.378 154.827 173.796 155.038 174.099C155.248 174.403 155.661 174.474 155.959 174.261Z" fill="#CCDBFD"/>
<path d="M156.54 172.86C156.543 172.738 156.643 172.642 156.763 172.645C156.883 172.648 156.978 172.749 156.975 172.872C156.972 172.994 156.872 173.09 156.752 173.087C156.632 173.084 156.537 172.983 156.54 172.86Z" fill="#163560"/>
<path d="M159.839 177.182C159.541 177.675 159.4 179.594 159.538 179.68C159.677 179.767 161.298 178.773 161.596 178.28C161.894 177.787 161.743 177.142 161.258 176.839C160.773 176.536 160.139 176.69 159.839 177.182Z" fill="#A8D29F"/>
<path d="M181.075 182.937L181.242 182.91C181.902 174.238 184.509 168.015 184.546 167.931L184.393 167.864C184.357 167.95 181.73 174.213 181.075 182.937Z" fill="#A8D29F"/>
<path d="M186.315 167.058C185.993 167.428 184.488 168.022 184.384 167.93C184.28 167.836 184.674 166.245 184.996 165.876C185.318 165.505 185.873 165.47 186.238 165.797C186.602 166.123 186.637 166.688 186.315 167.058Z" fill="#CCDBFD"/>
<path d="M184.008 165.768C184.298 166.164 184.561 167.783 184.45 167.868C184.339 167.952 182.887 167.232 182.596 166.837C182.306 166.441 182.386 165.881 182.776 165.586C183.167 165.292 183.717 165.373 184.008 165.768Z" fill="#CCDBFD"/>
<path d="M182.276 167.49C182.745 167.36 184.325 167.703 184.361 167.839C184.398 167.975 183.207 169.084 182.739 169.214C182.27 169.344 181.786 169.063 181.658 168.587C181.53 168.111 181.807 167.619 182.276 167.49Z" fill="#CCDBFD"/>
<path d="M183.343 169.636C183.39 169.145 184.265 167.766 184.404 167.779C184.541 167.792 185.141 169.316 185.094 169.808C185.047 170.299 184.617 170.659 184.133 170.612C183.651 170.564 183.296 170.127 183.343 169.636Z" fill="#CCDBFD"/>
<path d="M185.739 169.53C185.31 169.301 184.383 167.957 184.447 167.832C184.511 167.707 186.127 167.719 186.557 167.948C186.987 168.177 187.154 168.717 186.928 169.154C186.701 169.591 186.17 169.759 185.739 169.53Z" fill="#CCDBFD"/>
<path d="M184.733 167.786C184.708 167.625 184.56 167.517 184.401 167.542C184.243 167.567 184.136 167.718 184.161 167.879C184.186 168.039 184.334 168.148 184.493 168.123C184.651 168.097 184.759 167.946 184.733 167.786Z" fill="#163560"/>
<path d="M180.686 176.394C181.164 176.991 181.68 179.496 181.512 179.635C181.344 179.773 179.035 178.749 178.556 178.152C178.078 177.554 178.167 176.677 178.755 176.191C179.344 175.706 180.207 175.796 180.686 176.394Z" fill="#A8D29F"/>
<path d="M153.989 184.454C153.989 184.454 154.936 181.925 158.375 181.766C161.814 181.607 164.181 183.671 167.023 182.718C169.864 181.766 174.566 179.615 179.015 181.048C183.464 182.48 184.213 184.454 184.213 184.454H153.989Z" fill="#A8D29F"/>
<path d="M26.9634 184.434H32.9025C33.2204 184.159 32.6827 183.537 32.1192 183.496C31.8746 183.477 31.5656 183.529 31.213 183.604C31.1318 182.502 30.6643 177.545 28.9055 177.744C26.9277 177.967 28.9055 179.927 29.465 181.087C29.879 181.946 30.3157 183.179 30.5158 183.76C30.3554 183.795 30.189 183.831 30.0196 183.862C29.7572 183.044 28.7817 180.294 27.5418 180.455C26.085 180.643 26.6703 181.745 27.7032 182.399C28.4608 182.881 29.3908 183.564 29.8325 183.895C29.4581 183.957 29.0669 183.999 28.6708 183.989C27.6527 183.966 27.1555 184.27 26.9634 184.434Z" fill="#A8D29F"/>
<path d="M88.5769 184.262H94.516C94.8339 183.988 94.2962 183.365 93.7327 183.324C93.488 183.305 93.1791 183.357 92.8265 183.432C92.7453 182.33 92.2778 177.373 90.519 177.572C88.5412 177.796 90.519 179.755 91.0785 180.916C91.4925 181.775 91.9292 183.008 92.1293 183.589C91.9688 183.625 91.8025 183.66 91.6331 183.691C91.3707 182.873 90.3952 180.123 89.1552 180.284C87.6984 180.472 88.2847 181.575 89.3167 182.228C90.0743 182.71 91.0042 183.394 91.4459 183.724C91.0716 183.787 90.6804 183.828 90.2842 183.819C89.2662 183.795 88.77 184.098 88.5769 184.262Z" fill="#A8D29F"/>
<path d="M93.7734 183.627L93.924 183.603C94.5162 175.822 96.8554 170.237 96.8881 170.162L96.7514 170.102C96.7188 170.179 94.3617 175.8 93.7734 183.627Z" fill="#A8D29F"/>
<path d="M98.4754 169.379C98.1872 169.711 96.8363 170.246 96.7422 170.162C96.6491 170.079 97.0027 168.65 97.2919 168.318C97.5801 167.986 98.0792 167.954 98.406 168.248C98.7319 168.541 98.7636 169.047 98.4754 169.379Z" fill="#CCDBFD"/>
<path d="M96.4045 168.221C96.665 168.576 96.9017 170.029 96.8017 170.104C96.7016 170.18 95.3993 169.534 95.1388 169.179C94.8784 168.824 94.9507 168.322 95.3003 168.057C95.6499 167.793 96.1441 167.866 96.4045 168.221Z" fill="#CCDBFD"/>
<path d="M94.8508 169.766C95.2717 169.649 96.6889 169.957 96.7216 170.079C96.7543 170.201 95.6867 171.197 95.2658 171.313C94.8449 171.43 94.4111 171.177 94.2963 170.751C94.1824 170.322 94.4299 169.882 94.8508 169.766Z" fill="#CCDBFD"/>
<path d="M95.8083 171.691C95.8499 171.251 96.6363 170.013 96.7601 170.025C96.8838 170.038 97.4216 171.404 97.38 171.846C97.3384 172.287 96.9522 172.61 96.5184 172.567C96.0847 172.524 95.7668 172.132 95.8083 171.691Z" fill="#CCDBFD"/>
<path d="M97.9584 171.597C97.5722 171.39 96.7413 170.184 96.7987 170.073C96.8562 169.961 98.3061 169.971 98.6923 170.177C99.0785 170.384 99.2271 170.867 99.0241 171.26C98.822 171.652 98.3447 171.803 97.9584 171.597Z" fill="#CCDBFD"/>
<path d="M97.0563 170.032C97.0335 169.888 96.9008 169.79 96.7592 169.813C96.6176 169.836 96.5206 169.971 96.5434 170.115C96.5661 170.259 96.6988 170.357 96.8414 170.334C96.982 170.311 97.0791 170.176 97.0563 170.032Z" fill="#233862"/>
<path d="M94.3715 173.692C94.7468 174.16 95.1509 176.125 95.0192 176.234C94.8875 176.342 93.0761 175.539 92.7008 175.071C92.3255 174.602 92.3958 173.914 92.8573 173.533C93.3188 173.153 93.9962 173.223 94.3715 173.692Z" fill="#A8D29F"/>
<path d="M96.3164 177.536C95.6508 177.866 94.1802 179.87 94.2733 180.062C94.3654 180.255 96.8264 180.311 97.4909 179.982C98.1564 179.653 98.4327 178.839 98.1079 178.163C97.7831 177.488 96.9809 177.207 96.3164 177.536Z" fill="#A8D29F"/>
<path d="M241.255 184.221H235.315C234.997 183.947 235.535 183.324 236.098 183.283C236.342 183.264 236.651 183.316 237.004 183.391C237.086 182.289 237.553 177.332 239.311 177.531C241.289 177.755 239.311 179.714 238.752 180.874C238.338 181.733 237.901 182.966 237.701 183.547C237.862 183.583 238.028 183.618 238.198 183.649C238.461 182.831 239.436 180.081 240.676 180.242C242.133 180.43 241.547 181.533 240.515 182.186C239.757 182.668 238.827 183.351 238.386 183.682C238.76 183.744 239.151 183.786 239.547 183.777C240.565 183.754 241.061 184.058 241.255 184.221Z" fill="#A8D29F"/>
<path d="M52.237 183.799L52.1063 183.778C51.5903 177.001 49.5531 172.137 49.5244 172.071L49.6433 172.019C49.672 172.086 51.725 176.981 52.237 183.799Z" fill="#A8D29F"/>
<path d="M48.1418 171.388C48.3933 171.677 49.5699 172.143 49.6511 172.069C49.7323 171.997 49.4243 170.753 49.1728 170.464C48.9212 170.174 48.4874 170.147 48.2022 170.403C47.918 170.658 47.8902 171.1 48.1418 171.388Z" fill="#CCDBFD"/>
<path d="M49.9453 170.381C49.7185 170.689 49.5125 171.955 49.5986 172.021C49.6858 172.087 50.8207 171.524 51.0475 171.215C51.2743 170.907 51.2119 170.469 50.9069 170.238C50.6029 170.007 50.1721 170.072 49.9453 170.381Z" fill="#CCDBFD"/>
<path d="M51.2992 171.727C50.9328 171.625 49.6978 171.894 49.6691 171.999C49.6404 172.106 50.5713 172.973 50.9368 173.075C51.3032 173.176 51.6815 172.957 51.7805 172.585C51.8816 172.211 51.6657 171.827 51.2992 171.727Z" fill="#CCDBFD"/>
<path d="M50.4645 173.404C50.4278 173.019 49.7435 171.942 49.6355 171.952C49.5276 171.963 49.0591 173.154 49.0958 173.537C49.1324 173.922 49.4682 174.202 49.8465 174.165C50.2248 174.129 50.5011 173.788 50.4645 173.404Z" fill="#CCDBFD"/>
<path d="M48.5917 173.321C48.9274 173.142 49.6523 172.091 49.6018 171.994C49.5513 171.896 48.2886 171.905 47.9529 172.084C47.6172 172.263 47.4874 172.686 47.6637 173.027C47.84 173.37 48.2559 173.5 48.5917 173.321Z" fill="#CCDBFD"/>
<path d="M49.3779 171.958C49.3977 171.832 49.5136 171.746 49.6374 171.767C49.7612 171.787 49.8453 171.904 49.8255 172.03C49.8057 172.156 49.6898 172.241 49.5661 172.221C49.4423 172.2 49.3581 172.082 49.3779 171.958Z" fill="#233862"/>
<path d="M51.6211 173.951C51.2477 174.418 50.8446 176.375 50.9754 176.484C51.1061 176.592 52.9115 175.792 53.2848 175.325C53.6582 174.858 53.5889 174.172 53.1294 173.793C52.6698 173.414 51.9944 173.484 51.6211 173.951Z" fill="#A8D29F"/>
<path d="M50.7023 179.574C51.0905 179.766 51.9482 180.934 51.8937 181.047C51.8403 181.16 50.4052 181.193 50.017 181.001C49.6288 180.809 49.4683 180.334 49.6575 179.94C49.8466 179.545 50.3141 179.381 50.7023 179.574Z" fill="#A8D29F"/>
<path d="M55.9766 183.799L56.1271 183.775C56.7193 175.994 59.0585 170.409 59.0912 170.334L58.9546 170.273C58.9219 170.351 56.5658 175.972 55.9766 183.799Z" fill="#A8D29F"/>
<path d="M60.6785 169.551C60.3903 169.883 59.0394 170.417 58.9454 170.334C58.8523 170.25 59.2058 168.822 59.495 168.49C59.7832 168.158 60.2823 168.127 60.6091 168.419C60.936 168.712 60.9667 169.219 60.6785 169.551Z" fill="#CCDBFD"/>
<path d="M58.6086 168.393C58.8691 168.748 59.1058 170.201 59.0057 170.276C58.9057 170.352 57.6034 169.706 57.3419 169.351C57.0815 168.996 57.1538 168.494 57.5034 168.229C57.853 167.965 58.3481 168.038 58.6086 168.393Z" fill="#CCDBFD"/>
<path d="M57.0539 169.938C57.4748 169.821 58.892 170.129 58.9247 170.251C58.9574 170.373 57.8898 171.368 57.4689 171.485C57.048 171.602 56.6142 171.349 56.4993 170.923C56.3854 170.495 56.634 170.054 57.0539 169.938Z" fill="#CCDBFD"/>
<path d="M58.0126 171.863C58.0542 171.423 58.8406 170.185 58.9643 170.197C59.0881 170.209 59.6259 171.576 59.5843 172.018C59.5427 172.459 59.1565 172.781 58.7227 172.739C58.2879 172.696 57.97 172.304 58.0126 171.863Z" fill="#CCDBFD"/>
<path d="M60.1625 171.769C59.7763 171.562 58.9454 170.356 59.0028 170.245C59.0603 170.133 60.5101 170.143 60.8964 170.349C61.2826 170.555 61.4312 171.04 61.2281 171.432C61.0261 171.824 60.5488 171.975 60.1625 171.769Z" fill="#CCDBFD"/>
<path d="M59.2595 170.204C59.2367 170.06 59.104 169.962 58.9614 169.985C58.8198 170.008 58.7227 170.143 58.7455 170.288C58.7683 170.431 58.901 170.53 59.0436 170.507C59.1862 170.483 59.2823 170.348 59.2595 170.204Z" fill="#233862"/>
<path d="M56.0201 175.843C56.449 176.379 56.9125 178.627 56.7619 178.751C56.6114 178.876 54.5396 177.957 54.1107 177.422C53.6819 176.885 53.7621 176.098 54.289 175.662C54.8159 175.227 55.5903 175.307 56.0201 175.843Z" fill="#A8D29F"/>
<path d="M57.7396 178.947C57.2939 179.168 56.3095 180.509 56.3709 180.639C56.4333 180.768 58.0803 180.806 58.5259 180.586C58.9716 180.366 59.1568 179.819 58.9389 179.367C58.722 178.914 58.1852 178.726 57.7396 178.947Z" fill="#A8D29F"/>
<path d="M49.0938 184.433C49.0938 184.433 50.9229 181.978 53.5256 182.876C56.1272 183.775 59.5955 182.958 59.5865 184.188L49.0938 184.433Z" fill="#A8D29F"/>
<path d="M190.984 108.541C190.984 108.541 190.601 106.794 189.746 106.198C188.891 105.603 187.597 105.838 186.389 105.162C185.181 104.485 184.449 104.071 184.526 104.666C184.603 105.262 185.932 106.748 186.841 107.14C187.749 107.532 188.775 107.715 189.067 108.332C189.359 108.948 189.396 109.514 189.396 109.514L190.984 108.541Z" fill="#FFB27D"/>
<path d="M188.954 106.72C188.954 106.72 186.998 105.155 186.782 104.848C186.567 104.542 187.671 104.88 188.29 105.233C188.909 105.586 189.745 106.198 189.745 106.198L188.954 106.72Z" fill="#FFB27D"/>
<path d="M206.372 110.032C205.992 110.116 197.118 116.626 196.045 115.393C195.737 115.039 191.131 108.045 191.131 108.045C191.131 108.045 189.149 108.527 188.772 110.17C188.772 110.17 191.529 120.349 195.189 121.774C197.627 122.724 207.118 118.257 207.118 118.257L206.372 110.032Z" fill="#0C0364"/>
<path d="M227.831 177.45C227.831 177.45 229.305 178.815 229.018 179.786C228.731 180.757 227.401 181.404 227.22 182.59C227.04 183.776 226.322 184.423 225.674 184.423C225.028 184.423 222.59 184.423 222.59 184.423C222.59 184.423 222.113 183.588 223.263 183.337C224.413 183.085 224.847 181.691 224.775 180.398C224.703 179.103 224.883 177.378 224.883 177.378L227.327 176.803L227.831 177.45Z" fill="#305387"/>
<path d="M209.751 180.982C209.751 180.982 210.016 184.091 209.369 184.414L201.089 184.397C201.089 184.397 201.089 183.427 202.419 183.211C203.749 182.996 206.085 182.204 206.48 180.443C206.875 178.682 209.751 180.982 209.751 180.982Z" fill="#305387"/>
<path d="M202.761 137.07C202.761 137.07 203.197 142.519 203.71 149.069C204.408 157.967 205.247 168.896 205.33 170.966C205.473 174.561 206.049 180.313 206.049 180.313C206.049 180.313 207.414 181.679 210.147 181.104C210.147 181.104 212.582 172.894 213.277 164.207C213.288 164.064 213.299 163.921 213.31 163.778C213.957 154.935 214.963 136.314 214.963 136.314L202.761 137.07Z" fill="#AEC3FF"/>
<path d="M202.761 137.07C202.761 137.07 203.197 142.519 203.71 149.069L213.277 164.207C213.288 164.064 213.299 163.921 213.31 163.778C213.957 154.935 214.963 136.314 214.963 136.314L202.761 137.07Z" fill="#91B0F2"/>
<path d="M204.755 137.717C204.755 137.717 212.627 157.452 217.803 166.726C222.979 176 224.597 178.588 224.597 178.588C224.597 178.588 227.562 177.402 227.832 176.594C227.832 176.594 225.852 158.689 222.386 154.325C220.427 151.858 218.126 144.457 218.018 141.869C217.91 139.281 217.317 134.158 217.317 134.158L204.755 137.717Z" fill="#AEC3FF"/>
<path d="M214.878 109.138C214.878 109.138 209.349 111.268 206.373 110.032C206.373 110.032 206.853 109.516 207.687 109.004C208.223 108.675 208.545 108.079 208.512 107.445C208.502 107.248 208.495 107.061 208.492 106.887C208.454 105.817 208.557 105.064 208.557 105.064L210.693 103.763L212.769 102.37C212.237 106.758 214.878 109.138 214.878 109.138Z" fill="#FFB27D"/>
<path d="M218.16 136.279C218.18 136.609 217.492 137.003 217.188 137.153C214.934 138.223 212.826 138.984 210.422 139.277C207.585 139.643 204.204 139.076 203.048 139.129C202.931 139.131 202.822 139.088 202.726 139.006C202.64 138.95 202.502 135.467 202.455 131.086C202.451 130.91 202.446 130.731 202.455 130.555L202.454 130.495C202.437 128.782 202.454 126.987 202.493 125.19C202.519 123.791 202.563 122.409 202.631 121.116C202.713 119.495 202.833 118.012 202.997 116.798C203.072 116.244 203.157 115.748 203.252 115.319C203.681 113.423 204.497 111.985 205.415 110.868C205.882 110.302 206.436 109.819 207.047 109.421L207.711 108.989C208.78 109.175 209.681 109.054 210.79 108.473C212.002 107.839 213.311 107.158 213.526 107.32C215.161 108.473 216.31 111.126 216.97 114.536C217.335 116.432 217.549 118.554 217.603 120.782C217.604 120.86 217.607 120.939 217.608 121.018C217.625 121.736 217.625 122.471 217.609 123.201C217.607 123.335 217.602 123.47 217.598 123.604C217.535 125.341 217.547 126.99 217.599 128.5C217.607 128.722 217.615 128.942 217.624 129.158C217.72 131.428 217.899 133.34 218.028 134.687C218.092 135.372 218.14 135.901 218.16 136.279Z" fill="#4143E3"/>
<path d="M212.659 104.056C212.659 104.056 211.105 106.419 208.491 106.887C208.403 105.533 208.69 103.453 208.69 103.453L210.692 103.763L212.659 104.056Z" fill="#ED985F"/>
<path d="M207.142 103.9C207.142 103.9 211.672 106.384 213.143 103.544C214.615 100.704 216.191 99.112 213.36 97.4061C210.53 95.7001 209.402 96.4837 208.68 97.3095C207.958 98.1353 206.001 103.18 207.142 103.9Z" fill="#FFB27D"/>
<path d="M216.901 98.247C216.962 98.2118 217.076 98.2058 217.304 98.2722C217.304 98.2722 217.163 98.0961 216.926 98.0056C216.987 97.6727 217.013 97.0561 216.523 96.7312C216.523 96.7312 216.758 96.9877 216.681 97.3377C216.281 96.4727 215.112 95.5352 211.332 94.5374C206.349 93.2227 206.874 96.9384 207.374 97.5349C207.875 98.1313 209.806 97.6556 210.944 98.1605C212.082 98.6655 211.719 100.461 212.036 100.836C212.353 101.211 212.338 100.74 212.959 100.682C213.58 100.624 213.324 101.546 212.968 102.079C212.612 102.612 213.087 103.646 213.087 103.646C213.087 103.646 213.087 103.646 214.11 103.093C215.133 102.54 217.012 99.3323 216.924 98.4763C216.916 98.4009 216.909 98.3245 216.901 98.247Z" fill="#2C3A64"/>
<path d="M222.464 135.83C222.424 135.923 221.098 137.841 221.29 139.402C221.415 140.408 223.655 142.997 223.569 141.607C223.383 138.591 223.999 138.919 224.419 136.579L222.464 135.83Z" fill="#FFB27D"/>
<path d="M222.039 136.562C222.039 136.562 220.152 137.842 220.429 138.06C220.706 138.28 221.844 137.529 221.844 137.529L222.039 136.562Z" fill="#FFB27D"/>
<path d="M217.599 123.604C217.537 125.341 217.548 126.99 217.6 128.5L217.599 128.504C214.55 125.955 211.983 118.262 211.924 118.117L217.604 120.782C217.605 120.86 217.608 120.94 217.609 121.018C217.626 121.736 217.626 122.472 217.61 123.201C217.608 123.336 217.603 123.47 217.599 123.604Z" fill="#0C0364"/>
<path d="M209.857 111.578C210.231 108.703 213.529 107.318 214.657 108.446C214.698 108.487 221.701 115.57 224.06 122.376C225.722 127.171 224.736 136.652 224.736 136.652C224.736 136.652 222.65 136.954 221.9 136.011C221.9 136.011 220.815 128.263 219.677 126.142C218.909 124.71 209.074 116.56 209.512 113.953C209.629 113.264 209.746 112.431 209.857 111.578Z" fill="#4143E3"/>
<path d="M204.021 84.1696C198.654 78.2913 192.983 86.6068 192.983 86.6068C192.983 86.6068 185.952 79.442 181.694 86.1924C177.435 92.9427 194.48 103.648 194.48 103.648C194.48 103.648 209.389 90.0479 204.021 84.1696Z" fill="#FF837B"/>
<path d="M202.491 86.7272C202.022 86.9455 201.466 86.8158 201.141 86.4094C200.791 85.9739 200.252 85.491 199.54 85.4146C199.062 85.3633 198.715 84.9278 198.766 84.4419C198.816 83.9561 199.245 83.6041 199.723 83.6554C201.265 83.8213 202.266 84.9258 202.779 85.6842C203.024 86.0463 202.886 86.5452 202.491 86.7272Z" fill="#FF837B"/>
<path d="M192.988 101.323C192.026 100.582 189.382 98.2322 189.382 98.2322C188.961 97.9063 188.31 97.0855 188.631 96.6581C188.952 96.2306 190.125 97.0775 190.546 97.4034C190.546 97.4034 192.485 99.2974 193.516 99.8808C194.649 100.523 195.143 101.069 194.822 101.496C194.658 101.715 193.833 101.975 192.988 101.323Z" fill="#FF837B"/>
<path d="M254.078 185H3.65132C3.47999 185 3.33936 184.858 3.33936 184.684V184.506C3.33936 184.332 3.47999 184.189 3.65132 184.189H254.079C254.25 184.189 254.39 184.332 254.39 184.506V184.684C254.39 184.857 254.249 185 254.078 185Z" fill="#233862"/>
<path d="M234.502 66V62.304H224.614V61.236L234.346 46.2H237.466V59.544H239.77V62.304H237.466V66H234.502ZM228.838 59.544H234.502V50.448L228.838 59.544Z" fill="#212429"/>
</svg>
