<svg width="264" height="214" viewBox="0 0 264 214" fill="none" xmlns="http://www.w3.org/2000/svg">
<path opacity="0.2" d="M217.985 113.163L149.883 125.715C147.296 126.192 144.639 126.145 142.071 125.578C130.183 122.952 123.508 110.271 128.071 98.9849L148.479 48.5143C150.949 42.4059 156.269 37.906 162.703 36.4833L203.7 27.4178C213.234 25.3095 222.897 30.3945 226.559 39.4469L240.483 73.8729C242.886 79.8134 242.296 86.5455 238.898 91.9782L231.316 104.1C228.34 108.858 223.503 112.146 217.985 113.163Z" fill="#139FAC"/>
<path d="M188.591 88.384C187.415 88.384 186.343 88.176 185.375 87.76C184.415 87.344 183.615 86.764 182.975 86.02C182.343 85.268 181.919 84.388 181.703 83.38L184.655 82.072C184.687 82.776 184.871 83.396 185.207 83.932C185.543 84.46 186.003 84.876 186.587 85.18C187.171 85.476 187.843 85.624 188.603 85.624C189.675 85.624 190.531 85.328 191.171 84.736C191.819 84.136 192.143 83.348 192.143 82.372C192.143 81.684 191.983 81.064 191.663 80.512C191.351 79.96 190.931 79.524 190.403 79.204C189.875 78.884 189.287 78.724 188.639 78.724C188.311 78.724 188.035 78.764 187.811 78.844V76.696H188.627C189.235 76.696 189.783 76.548 190.271 76.252C190.767 75.948 191.159 75.548 191.447 75.052C191.735 74.556 191.879 74.02 191.879 73.444C191.879 72.876 191.735 72.364 191.447 71.908C191.167 71.444 190.783 71.08 190.295 70.816C189.815 70.544 189.283 70.408 188.699 70.408C188.107 70.408 187.559 70.548 187.055 70.828C186.551 71.1 186.139 71.476 185.819 71.956C185.499 72.428 185.311 72.964 185.255 73.564L182.723 72.46C182.899 71.548 183.267 70.744 183.827 70.048C184.395 69.352 185.103 68.812 185.951 68.428C186.807 68.036 187.739 67.84 188.747 67.84C189.899 67.84 190.927 68.084 191.831 68.572C192.743 69.06 193.459 69.72 193.979 70.552C194.507 71.384 194.771 72.328 194.771 73.384C194.771 73.992 194.671 74.564 194.471 75.1C194.279 75.628 193.999 76.104 193.631 76.528C193.271 76.952 192.843 77.3 192.347 77.572C192.939 77.836 193.455 78.2 193.895 78.664C194.343 79.12 194.691 79.66 194.939 80.284C195.195 80.9 195.323 81.588 195.323 82.348C195.323 83.5 195.043 84.532 194.483 85.444C193.923 86.356 193.139 87.076 192.131 87.604C191.123 88.124 189.943 88.384 188.591 88.384Z" fill="#212429"/>
<g clip-path="url(#clip0_1802_23315)">
<g opacity="0.3">
<path opacity="0.3" d="M119.293 95.0557C118.981 94.9615 118.643 95.1165 118.513 95.4238C118.231 96.0959 117.974 96.7899 117.749 97.4867C117.64 97.8257 117.826 98.1894 118.165 98.299C118.168 98.3001 118.173 98.3012 118.177 98.3028C118.512 98.4041 118.868 98.2185 118.976 97.8838C119.19 97.2215 119.435 96.562 119.702 95.9239C119.84 95.5953 119.686 95.2173 119.357 95.0793C119.336 95.0694 119.315 95.0618 119.293 95.0557ZM117.709 100.448C117.685 100.441 117.66 100.435 117.635 100.43C117.284 100.368 116.949 100.602 116.887 100.953C116.76 101.674 116.661 102.407 116.595 103.132C116.563 103.487 116.823 103.8 117.179 103.833C117.534 103.865 117.847 103.603 117.879 103.249C117.941 102.559 118.035 101.863 118.156 101.178C118.214 100.853 118.017 100.541 117.709 100.448ZM117.351 106.055C117.282 106.034 117.208 106.024 117.133 106.028C116.777 106.045 116.503 106.348 116.52 106.704C116.556 107.433 116.624 108.17 116.722 108.894C116.77 109.247 117.095 109.494 117.447 109.447C117.8 109.399 118.047 109.074 117.999 108.721C117.906 108.034 117.842 107.334 117.808 106.641C117.795 106.361 117.604 106.131 117.351 106.055ZM118.254 111.602C118.141 111.568 118.016 111.564 117.894 111.599C117.551 111.695 117.351 112.052 117.448 112.395C117.646 113.098 117.876 113.801 118.133 114.486C118.259 114.819 118.63 114.987 118.964 114.862C119.297 114.737 119.465 114.365 119.34 114.032C119.096 113.382 118.877 112.714 118.689 112.045C118.627 111.825 118.459 111.664 118.254 111.602ZM120.372 116.809C120.212 116.761 120.035 116.774 119.877 116.86C119.564 117.03 119.449 117.422 119.619 117.735C119.967 118.375 120.348 119.01 120.75 119.621C120.946 119.918 121.346 120.001 121.643 119.805C121.94 119.609 122.022 119.209 121.826 118.911C121.444 118.33 121.082 117.727 120.751 117.119C120.667 116.963 120.529 116.856 120.372 116.809ZM123.587 121.417C123.381 121.354 123.148 121.397 122.975 121.549C122.707 121.785 122.681 122.193 122.916 122.46C123.398 123.008 123.909 123.543 124.436 124.048C124.693 124.295 125.101 124.287 125.348 124.029C125.594 123.772 125.586 123.364 125.328 123.117C124.828 122.637 124.342 122.129 123.884 121.608C123.802 121.514 123.699 121.45 123.587 121.417ZM145.759 129.723C145.673 129.697 145.581 129.689 145.487 129.702C144.801 129.794 144.101 129.857 143.407 129.89C143.051 129.907 142.777 130.208 142.794 130.564C142.81 130.92 143.112 131.195 143.468 131.178C144.198 131.143 144.936 131.077 145.659 130.98C146.012 130.933 146.259 130.608 146.212 130.255C146.178 129.996 145.994 129.794 145.759 129.723ZM127.741 125.195C127.485 125.118 127.197 125.206 127.032 125.435C126.823 125.724 126.888 126.127 127.177 126.335C127.769 126.763 128.386 127.17 129.012 127.545C129.318 127.726 129.714 127.628 129.897 127.323C130.08 127.017 129.98 126.621 129.675 126.438C129.08 126.082 128.494 125.695 127.932 125.289C127.872 125.246 127.807 125.215 127.741 125.195ZM140.144 129.836C140.103 129.824 140.06 129.816 140.016 129.811C139.326 129.747 138.63 129.652 137.946 129.53C137.596 129.467 137.26 129.7 137.198 130.051C137.135 130.401 137.367 130.738 137.718 130.799C138.437 130.928 139.17 131.028 139.896 131.096C140.251 131.129 140.565 130.868 140.598 130.513C140.628 130.203 140.431 129.924 140.144 129.836ZM132.633 127.949C132.321 127.855 131.983 128.01 131.853 128.316C131.715 128.644 131.869 129.022 132.197 129.162C132.868 129.445 133.561 129.704 134.256 129.93C134.26 129.932 134.265 129.933 134.269 129.934C134.604 130.036 134.96 129.851 135.068 129.517C135.178 129.177 134.993 128.814 134.654 128.704C133.994 128.489 133.336 128.243 132.698 127.973C132.677 127.964 132.655 127.956 132.633 127.949Z" fill="#7D97F4"/>
<path opacity="0.3" d="M150.174 128.718C150.052 128.681 149.919 128.68 149.789 128.722C149.473 128.825 149.149 128.923 148.827 129.014C148.484 129.11 148.284 129.466 148.38 129.809C148.477 130.152 148.833 130.353 149.175 130.256C149.514 130.16 149.854 130.057 150.187 129.949C150.525 129.839 150.711 129.475 150.601 129.137C150.533 128.927 150.369 128.777 150.174 128.718Z" fill="#7D97F4"/>
</g>
<g opacity="0.3">
<path opacity="0.3" d="M165.009 115.815C164.711 115.726 164.384 115.862 164.243 116.151C164.098 116.45 163.944 116.752 163.785 117.046C163.617 117.36 163.734 117.751 164.048 117.92C164.362 118.089 164.752 117.971 164.921 117.657C165.087 117.347 165.25 117.03 165.402 116.715C165.558 116.395 165.424 116.009 165.104 115.853C165.073 115.837 165.042 115.825 165.009 115.815Z" fill="#7D97F4"/>
<path opacity="0.3" d="M149.716 80.7733C149.432 80.6873 149.146 80.6062 148.857 80.5295C148.513 80.4381 148.16 80.6429 148.068 80.9875C147.977 81.332 148.183 81.6869 148.526 81.7768C149.193 81.9542 149.851 82.158 150.489 82.3859C150.825 82.5053 151.193 82.3306 151.313 81.9948C151.433 81.659 151.258 81.2898 150.922 81.1704C150.528 81.0291 150.122 80.896 149.716 80.7733ZM145.515 79.8821C145.481 79.8717 145.445 79.864 145.408 79.8596C144.694 79.7704 143.969 79.7106 143.252 79.6822C142.896 79.6679 142.596 79.9451 142.582 80.3006C142.567 80.6566 142.844 80.9579 143.2 80.971C143.881 80.9984 144.57 81.0554 145.249 81.1397C145.602 81.1841 145.924 80.9327 145.968 80.5794C146.007 80.2628 145.811 79.9708 145.515 79.8821ZM154.032 82.5294C153.74 82.4412 153.419 82.5699 153.274 82.8493C153.11 83.1653 153.233 83.5548 153.549 83.7197C154.153 84.0341 154.752 84.3786 155.329 84.744C155.63 84.934 156.028 84.8447 156.219 84.5435C156.409 84.2422 156.32 83.8434 156.019 83.6534C155.41 83.2683 154.78 82.9057 154.143 82.5743C154.107 82.5557 154.069 82.5403 154.032 82.5294ZM139.988 79.806C139.909 79.7824 139.825 79.7736 139.739 79.7819C139.023 79.852 138.302 79.9533 137.596 80.0831C137.246 80.1478 137.014 80.4841 137.079 80.8341C137.143 81.1847 137.479 81.4164 137.829 81.3517C138.5 81.2285 139.185 81.1321 139.864 81.0658C140.218 81.0313 140.478 80.7158 140.443 80.3608C140.417 80.093 140.23 79.8794 139.988 79.806ZM158.62 85.6061C158.382 85.5338 158.112 85.6045 157.941 85.8077C157.711 86.0799 157.746 86.4869 158.018 86.717C158.538 87.1563 159.046 87.6246 159.53 88.1077C159.781 88.3597 160.19 88.3597 160.442 88.1077C160.693 87.8557 160.693 87.4477 160.442 87.1957C159.933 86.6868 159.398 86.1939 158.85 85.731C158.78 85.6724 158.702 85.6308 158.62 85.6061ZM162.423 89.6162C162.232 89.5587 162.017 89.5899 161.847 89.7197C161.563 89.935 161.507 90.3398 161.723 90.6235C162.136 91.168 162.53 91.736 162.896 92.3117C163.087 92.613 163.485 92.7017 163.786 92.5105C164.087 92.3194 164.176 91.9212 163.985 91.6199C163.6 91.0135 163.185 90.4159 162.75 89.843C162.665 89.7312 162.549 89.6546 162.423 89.6162ZM165.262 94.3609C165.117 94.317 164.956 94.3236 164.807 94.3921C164.483 94.5405 164.341 94.9234 164.49 95.2471C164.774 95.8688 165.036 96.5091 165.267 97.1511C165.388 97.4863 165.757 97.66 166.093 97.5389C166.428 97.4179 166.601 97.0487 166.48 96.7129C166.237 96.0381 165.961 95.3638 165.662 94.7092C165.582 94.5345 165.433 94.4123 165.262 94.3609ZM166.999 99.6116C166.898 99.5815 166.789 99.5749 166.679 99.5985C166.331 99.6724 166.109 100.015 166.183 100.364C166.324 101.032 166.439 101.714 166.524 102.391C166.569 102.745 166.891 102.996 167.244 102.951C167.598 102.907 167.848 102.584 167.803 102.231C167.714 101.518 167.593 100.8 167.444 100.096C167.393 99.8565 167.217 99.6773 166.999 99.6116ZM167.542 105.118C167.485 105.101 167.425 105.091 167.363 105.09C167.008 105.085 166.715 105.371 166.71 105.727C166.702 106.409 166.663 107.099 166.597 107.779C166.562 108.134 166.823 108.449 167.176 108.484C167.53 108.518 167.846 108.259 167.881 107.904C167.951 107.189 167.991 106.462 168 105.744C168.004 105.45 167.81 105.199 167.542 105.118ZM166.864 110.605C166.851 110.601 166.838 110.598 166.825 110.595C166.479 110.512 166.131 110.727 166.05 111.074C165.934 111.564 165.802 112.055 165.657 112.535C165.604 112.709 165.55 112.883 165.493 113.054C165.383 113.393 165.568 113.757 165.907 113.867C166.247 113.986 166.609 113.793 166.72 113.454C166.779 113.274 166.836 113.092 166.891 112.909C167.044 112.403 167.183 111.886 167.304 111.371C167.382 111.037 167.187 110.703 166.864 110.605Z" fill="#7D97F4"/>
<path opacity="0.3" d="M134.564 80.9555C134.441 80.9182 134.307 80.9171 134.176 80.9604C133.845 81.07 133.509 81.1888 133.179 81.3132C132.846 81.4386 132.678 81.8111 132.803 82.1441C132.929 82.4777 133.3 82.6458 133.633 82.5204C133.947 82.4021 134.266 82.2893 134.58 82.1852C134.918 82.0734 135.101 81.7086 134.99 81.3701C134.921 81.1636 134.758 81.0146 134.564 80.9555Z" fill="#7D97F4"/>
</g>
<path d="M133.234 88.3697C133.341 88.2979 133.481 88.3017 133.584 88.379L136.513 90.5875C138.114 89.979 139.824 89.6218 141.585 89.555L143.421 86.3802C143.485 86.269 143.613 86.2104 143.739 86.2351L148.057 87.077C148.184 87.1016 148.28 87.2035 148.298 87.3311L148.808 90.9627C150.416 91.6858 151.866 92.6591 153.122 93.8247L156.665 92.8777C156.79 92.8443 156.921 92.8936 156.993 93.0004L159.451 96.6506C159.523 96.7574 159.52 96.8976 159.442 97.0006L157.235 99.9316C157.843 101.534 158.2 103.244 158.266 105.007L161.439 106.844C161.55 106.908 161.608 107.036 161.584 107.163L160.742 111.483C160.718 111.609 160.616 111.706 160.488 111.724L156.859 112.235C156.137 113.843 155.164 115.295 153.999 116.552L154.946 120.097C154.978 120.222 154.93 120.353 154.823 120.425L151.175 122.885C151.068 122.956 150.928 122.953 150.825 122.875L147.896 120.667C146.295 121.275 144.586 121.633 142.824 121.699L140.989 124.874C140.924 124.985 140.797 125.044 140.67 125.019L136.352 124.177C136.226 124.153 136.129 124.051 136.111 123.923L135.601 120.292C133.994 119.569 132.543 118.595 131.287 117.43L127.744 118.377C127.62 118.41 127.488 118.361 127.416 118.254L124.958 114.604C124.886 114.497 124.89 114.357 124.967 114.254L127.174 111.323C126.566 109.721 126.209 108.01 126.143 106.247L122.97 104.411C122.859 104.347 122.8 104.218 122.825 104.092L123.666 99.7712C123.691 99.6446 123.793 99.5482 123.92 99.5301L127.55 99.0196C128.272 97.4109 129.245 95.9593 130.41 94.7028L129.464 91.1572C129.43 91.0328 129.48 90.9014 129.586 90.8291L133.234 88.3697Z" fill="#91B3FA"/>
<path d="M143.48 101.391C141.417 100.767 139.147 101.736 138.203 103.744C137.165 105.952 138.116 108.593 140.322 109.632C141.391 110.135 142.591 110.192 143.702 109.791C144.814 109.39 145.703 108.581 146.205 107.511C147.243 105.303 146.292 102.662 144.086 101.624C143.888 101.53 143.685 101.453 143.48 101.391ZM141.231 108.878C141.072 108.83 140.915 108.77 140.761 108.698C139.07 107.902 138.341 105.876 139.137 104.184C139.933 102.491 141.956 101.761 143.648 102.558C145.339 103.354 146.068 105.38 145.272 107.072C144.887 107.892 144.206 108.513 143.353 108.82C142.661 109.069 141.923 109.087 141.231 108.878Z" fill="#BDD0FB"/>
<path d="M145.414 95.2993C145.06 95.192 144.698 95.1021 144.329 95.0304C144.213 95.0079 144.097 94.9871 143.981 94.9679C143.405 94.8748 142.824 94.8277 142.245 94.8271C142.237 94.8271 142.229 94.8271 142.221 94.8271C142.199 94.8271 142.176 94.8271 142.154 94.8277C142.11 94.8277 142.067 94.8288 142.023 94.8293C141.909 94.8315 141.813 94.9082 141.781 95.0123C141.774 95.0375 141.77 95.0649 141.77 95.0923C141.773 95.2347 141.891 95.3475 142.033 95.3448C142.766 95.33 143.505 95.3946 144.23 95.5359C147.833 96.2376 150.636 98.7403 151.89 101.928C152.588 103.7 152.806 105.685 152.415 107.69C152.347 108.042 152.262 108.387 152.159 108.725C151.472 111.002 150.035 112.956 148.038 114.303C145.744 115.849 142.985 116.41 140.27 115.881C134.662 114.787 130.993 109.335 132.084 103.727C132.151 103.381 132.236 103.04 132.337 102.704C132.775 101.252 133.527 99.9125 134.541 98.7836C134.568 98.7545 134.586 98.7211 134.597 98.6855C134.625 98.593 134.599 98.4878 134.522 98.4188C134.416 98.324 134.253 98.3317 134.158 98.4379C133.093 99.6233 132.304 101.03 131.844 102.554C131.738 102.906 131.649 103.264 131.578 103.627C130.432 109.516 134.288 115.24 140.171 116.386C143.022 116.942 145.918 116.353 148.326 114.729C150.422 113.315 151.931 111.264 152.653 108.874C152.76 108.519 152.85 108.157 152.922 107.788C153.477 104.935 152.889 102.037 151.266 99.6266C149.854 97.5309 147.803 96.0213 145.414 95.2993Z" fill="#BDD0FB"/>
<g opacity="0.3">
<path opacity="0.3" d="M103.145 72.4144C102.98 72.3645 102.796 72.4264 102.697 72.5782C102.512 72.8614 102.333 73.1539 102.165 73.448C102.056 73.6392 102.122 73.8824 102.313 73.9914C102.504 74.1015 102.747 74.0341 102.856 73.8429C103.016 73.563 103.187 73.2837 103.363 73.0136C103.484 72.8296 103.432 72.5825 103.248 72.462C103.215 72.4412 103.18 72.4253 103.145 72.4144Z" fill="#7D97F4"/>
<path opacity="0.3" d="M101.712 75.1235C101.519 75.0649 101.309 75.1613 101.23 75.3519C101.006 75.8893 100.806 76.4447 100.638 77.0023C100.603 77.1195 100.569 77.2378 100.536 77.3567C100.476 77.5687 100.614 77.7839 100.812 77.848C101.024 77.9072 101.243 77.7834 101.302 77.5714C101.334 77.458 101.366 77.3446 101.4 77.2329C101.561 76.7016 101.751 76.1719 101.964 75.6592C102.049 75.456 101.953 75.2226 101.75 75.1377C101.738 75.1323 101.724 75.1273 101.712 75.1235ZM100.6 79.1084C100.582 79.1029 100.563 79.0985 100.544 79.0958C100.327 79.0629 100.124 79.2125 100.09 79.4305C99.9848 80.1283 99.9213 80.8393 99.9016 81.5432C99.8956 81.7634 100.07 81.9463 100.289 81.9523C100.509 81.9584 100.692 81.7853 100.698 81.5651C100.716 80.8941 100.776 80.216 100.878 79.5499C100.908 79.3511 100.787 79.1648 100.6 79.1084ZM100.488 83.2439C100.44 83.2292 100.388 83.2237 100.334 83.2286C100.115 83.25 99.9553 83.445 99.9766 83.6641C100.045 84.3657 100.158 85.0707 100.313 85.7598C100.361 85.975 100.573 86.1092 100.789 86.061C101.004 86.0128 101.138 85.7998 101.09 85.585C100.942 84.9283 100.834 84.2562 100.769 83.5868C100.753 83.4214 100.637 83.2894 100.488 83.2439ZM101.395 87.2809C101.316 87.2568 101.229 87.2573 101.146 87.2875C100.939 87.362 100.831 87.5904 100.906 87.7974C101.144 88.4624 101.426 89.1175 101.744 89.7463C101.843 89.9424 102.083 90.0208 102.278 89.9216C102.475 89.8225 102.553 89.5825 102.454 89.3859C102.151 88.7872 101.882 88.1617 101.655 87.5279C101.611 87.4041 101.512 87.3165 101.395 87.2809ZM103.259 90.9738C103.149 90.9404 103.025 90.9552 102.922 91.0242C102.74 91.1469 102.691 91.394 102.813 91.5769C103.206 92.1625 103.638 92.7299 104.099 93.2624C104.242 93.4294 104.494 93.4475 104.66 93.3034C104.827 93.1594 104.845 92.9074 104.701 92.7414C104.262 92.2331 103.849 91.6919 103.475 91.1332C103.421 91.0538 103.344 90.9996 103.259 90.9738ZM105.963 94.1015C105.82 94.0582 105.659 94.0977 105.552 94.216C105.405 94.3792 105.417 94.6312 105.58 94.7785C106.104 95.2512 106.661 95.696 107.237 96.0992C107.418 96.2252 107.666 96.1813 107.792 96.0011C107.918 95.8209 107.874 95.5722 107.694 95.4462C107.144 95.0612 106.613 94.6378 106.114 94.187C106.07 94.1464 106.018 94.1179 105.963 94.1015ZM109.347 96.4722C109.169 96.418 108.971 96.4963 108.881 96.6672C108.778 96.8616 108.852 97.1027 109.046 97.2056C109.667 97.5343 110.317 97.8284 110.978 98.0798C111.185 98.1549 111.413 98.0541 111.492 97.8487C111.57 97.6433 111.466 97.4132 111.261 97.3349C110.63 97.0955 110.01 96.8151 109.419 96.5018C109.396 96.4892 109.372 96.4793 109.347 96.4722ZM115.251 98.3094C115.229 98.3028 115.206 98.2979 115.182 98.2951C114.606 98.2272 114.023 98.1259 113.45 97.9949C113.363 97.9758 113.278 97.9555 113.193 97.9347C112.979 97.8821 112.764 98.0125 112.711 98.2266C112.658 98.4408 112.788 98.6632 113.002 98.7092C113.093 98.7311 113.183 98.753 113.274 98.7733C113.873 98.9102 114.485 99.016 115.089 99.0872C115.308 99.1129 115.506 98.9568 115.531 98.7382C115.554 98.5427 115.433 98.3641 115.251 98.3094Z" fill="#7D97F4"/>
</g>
<g opacity="0.3">
<path opacity="0.3" d="M122.294 65.5883C122.086 65.5253 121.866 65.6414 121.799 65.8495C121.733 66.0593 121.849 66.2834 122.059 66.3496C122.69 66.5496 123.315 66.7895 123.915 67.0628C124.115 67.1516 124.351 67.0661 124.443 66.8656C124.534 66.6651 124.446 66.4291 124.246 66.3376C123.616 66.0511 122.962 65.7992 122.3 65.5899C122.298 65.5894 122.296 65.5888 122.294 65.5883ZM120.319 65.0915C120.305 65.0871 120.291 65.0838 120.277 65.081C119.596 64.9523 118.899 64.8641 118.208 64.8181C117.989 64.8039 117.799 64.9699 117.784 65.1895C117.77 65.4092 117.937 65.5987 118.155 65.614C118.815 65.6578 119.479 65.7422 120.129 65.8649C120.345 65.906 120.553 65.7635 120.594 65.5472C120.632 65.3445 120.511 65.1495 120.319 65.0915ZM125.994 67.2753C125.825 67.2244 125.637 67.2907 125.54 67.4484C125.425 67.6358 125.483 67.8812 125.671 67.9962C126.236 68.3435 126.784 68.7269 127.3 69.1383C127.473 69.2746 127.723 69.2467 127.86 69.0742C127.997 68.9022 127.968 68.6513 127.796 68.5144C127.254 68.0838 126.68 67.6812 126.088 67.3175C126.058 67.2994 126.026 67.2852 125.994 67.2753ZM116.259 64.8247C116.216 64.8116 116.17 64.8055 116.122 64.8083C115.429 64.8472 114.732 64.9299 114.05 65.0531C113.834 65.092 113.69 65.2996 113.729 65.516C113.768 65.7318 113.975 65.8758 114.191 65.8369C114.842 65.7192 115.506 65.6409 116.167 65.6036C116.386 65.591 116.554 65.4031 116.542 65.1835C116.532 65.012 116.415 64.8718 116.259 64.8247ZM129.176 69.8076C129.041 69.7671 128.889 69.7994 128.781 69.9051C128.624 70.0596 128.623 70.3121 128.777 70.4687C129.241 70.9398 129.68 71.4443 130.084 71.9685C130.218 72.1432 130.468 72.1755 130.642 72.0408C130.816 71.9066 130.849 71.6563 130.714 71.4821C130.291 70.9327 129.83 70.4036 129.344 69.9095C129.296 69.8602 129.238 69.8262 129.176 69.8076ZM131.659 73.0295C131.555 72.9983 131.44 73.0087 131.34 73.0684C131.151 73.1807 131.089 73.4255 131.201 73.6145C131.539 74.1847 131.846 74.7801 132.112 75.3843C132.201 75.5859 132.436 75.6768 132.637 75.5881C132.838 75.4993 132.929 75.2643 132.84 75.0628C132.561 74.429 132.24 73.8051 131.886 73.2075C131.833 73.1188 131.751 73.0574 131.659 73.0295ZM133.298 76.7542C133.225 76.7323 133.146 76.7307 133.068 76.7548C132.857 76.8183 132.738 77.0407 132.802 77.2516C132.994 77.8859 133.149 78.5372 133.261 79.1879C133.299 79.4043 133.505 79.55 133.722 79.5122C133.938 79.4744 134.084 79.2684 134.046 79.0515C133.927 78.3695 133.765 77.6859 133.564 77.0204C133.524 76.8879 133.421 76.7915 133.298 76.7542Z" fill="#7D97F4"/>
<path opacity="0.3" d="M112.238 65.5523C112.165 65.5298 112.084 65.5287 112.005 65.5534C111.679 65.6547 111.356 65.7659 111.042 65.8842C110.836 65.962 110.732 66.1921 110.81 66.398C110.888 66.6034 111.117 66.7075 111.324 66.6303C111.622 66.5174 111.932 66.4112 112.242 66.3142C112.452 66.249 112.569 66.0255 112.504 65.8152C112.463 65.6843 112.361 65.589 112.238 65.5523Z" fill="#7D97F4"/>
</g>
<path d="M111.068 70.5763C111.139 70.5281 111.233 70.5308 111.302 70.5823L113.262 72.0601C114.333 71.6531 115.477 71.4138 116.656 71.3694L117.884 69.2452C117.927 69.1707 118.012 69.1318 118.096 69.1483L120.986 69.7113C121.07 69.7278 121.134 69.7963 121.147 69.8812L121.488 72.3115C122.564 72.7957 123.534 73.4465 124.375 74.2265L126.746 73.5927C126.829 73.5708 126.917 73.6037 126.965 73.6749L128.61 76.1173C128.658 76.1885 128.656 76.2827 128.604 76.3518L127.127 78.3133C127.534 79.3852 127.773 80.53 127.818 81.7093L129.94 82.9379C130.015 82.9812 130.054 83.0667 130.037 83.151L129.475 86.0421C129.458 86.1264 129.39 86.1916 129.305 86.2031L126.876 86.5449C126.393 87.6212 125.741 88.5924 124.962 89.4332L125.596 91.8061C125.618 91.8893 125.585 91.9775 125.514 92.0252L123.072 93.6712C123.001 93.7194 122.907 93.7166 122.839 93.6652L120.878 92.1873C119.807 92.5943 118.663 92.8337 117.484 92.878L116.256 95.0022C116.213 95.0767 116.127 95.1156 116.043 95.0992L113.154 94.5361C113.07 94.5196 113.005 94.4512 112.993 94.3663L112.652 91.9359C111.576 91.4522 110.605 90.8004 109.765 90.0209L107.394 90.6547C107.311 90.6772 107.222 90.6437 107.174 90.5725L105.529 88.1301C105.481 88.0589 105.484 87.9647 105.535 87.8957L107.012 85.9342C106.606 84.8622 106.366 83.7174 106.322 82.5381L104.199 81.3095C104.125 81.2662 104.086 81.1808 104.102 81.0964L104.665 78.2054C104.681 78.121 104.75 78.0564 104.835 78.0443L107.264 77.7025C107.747 76.6262 108.398 75.655 109.177 74.8137L108.544 72.4414C108.521 72.3581 108.555 72.2699 108.626 72.2217L111.068 70.5763Z" fill="#91B3FA"/>
<path d="M117.935 79.2372C117.32 79.0516 116.665 79.0674 116.049 79.2893C115.292 79.5621 114.687 80.1136 114.345 80.8422C113.638 82.3457 114.285 84.1446 115.788 84.8523C117.294 85.5578 119.089 84.9114 119.796 83.4078C120.139 82.6793 120.177 81.861 119.905 81.1034C119.632 80.3459 119.081 79.7401 118.353 79.3972C118.216 79.3331 118.077 79.28 117.935 79.2372ZM116.431 84.2475C116.329 84.2163 116.227 84.178 116.127 84.1309C115.022 83.61 114.546 82.2871 115.066 81.1807C115.317 80.645 115.763 80.2391 116.32 80.0386C116.877 79.8381 117.478 79.8666 118.014 80.118C118.549 80.37 118.955 80.8159 119.155 81.3729C119.356 81.9305 119.328 82.532 119.075 83.0682C118.602 84.0745 117.465 84.5603 116.431 84.2475Z" fill="#BDD0FB"/>
<path d="M119.276 74.9949C119.034 74.9221 118.788 74.8607 118.535 74.8114C118.034 74.7134 117.522 74.6668 117.013 74.6723C116.99 74.6729 116.967 74.6729 116.944 74.6734C116.768 74.6767 116.62 74.795 116.571 74.956C116.559 74.9949 116.554 75.0371 116.554 75.0798C116.559 75.3 116.741 75.4737 116.96 75.4698C117.435 75.4605 117.914 75.5022 118.382 75.5936C118.408 75.5986 118.434 75.604 118.46 75.609C119.566 75.8357 120.574 76.3298 121.416 77.0391C121.872 77.4242 122.28 77.8734 122.627 78.379C122.63 78.3828 122.632 78.3872 122.635 78.391C122.644 78.4036 122.652 78.4162 122.661 78.4288C123.662 79.9149 124.024 81.7022 123.682 83.461C123.637 83.6889 123.582 83.9124 123.516 84.1315C123.071 85.6049 122.141 86.8702 120.847 87.7422C119.362 88.7435 117.576 89.1062 115.818 88.7638C114.062 88.4209 112.541 87.4141 111.54 85.9281C110.539 84.442 110.176 82.6547 110.519 80.8959C110.562 80.6718 110.618 80.4511 110.683 80.2342C110.967 79.2943 111.453 78.4266 112.11 77.6959C112.15 77.651 112.179 77.5995 112.195 77.5447C112.238 77.4018 112.199 77.2396 112.08 77.1334C111.916 76.9866 111.665 76.9992 111.517 77.1635C110.782 77.9813 110.238 78.9514 109.92 80.003C109.847 80.2457 109.786 80.4927 109.737 80.7431C109.354 82.7111 109.759 84.7104 110.879 86.3734C111.999 88.0358 113.697 89.1637 115.665 89.546C117.632 89.9294 119.63 89.5235 121.291 88.4028C122.738 87.4273 123.779 86.0119 124.276 84.3637C124.35 84.1189 124.413 83.8685 124.462 83.6144C125.205 79.8042 122.912 76.0937 119.276 74.9949Z" fill="#BDD0FB"/>
<path d="M29.7278 286.683C41.4705 273.803 70.3762 245.76 102.126 234.118C104.767 233.15 106.917 231.172 108.134 228.634L112.883 218.727C112.883 218.727 136.034 213.298 150.298 228.244C150.298 228.244 149.429 242.459 131.513 247.656C114.79 252.508 65.2334 272.206 36.0037 294.278C35.3332 294.784 34.4031 294.808 33.7397 294.293C31.416 292.489 29.9599 290.238 29.3409 288.651C29.0776 287.979 29.2412 287.217 29.7278 286.683Z" fill="url(#paint0_linear_1802_23315)"/>
<path d="M152.814 228.054C152.814 228.054 148.091 230.122 139.994 226.377C131.898 222.632 109.883 222.259 109.883 222.259C109.883 222.259 117.015 195.549 101.166 176.44C101.166 176.44 88.401 200.349 79.4303 203.917L75.4118 204.101V187.045C75.4118 187.045 78.8194 165.989 100.374 150.265L107.085 144.212C107.085 144.212 130.683 139.451 146.731 167.62C162.779 195.789 152.814 228.054 152.814 228.054Z" fill="url(#paint1_linear_1802_23315)"/>
<path d="M74.0557 154.402C73.8313 153.219 73.7465 150.45 76.6006 147.075C80.4186 142.56 85.3172 144.862 85.3172 144.862C89.6575 147.294 91.4907 155.236 91.4907 155.236L86.9019 152.785C86.2067 154.805 79.43 156.983 79.43 156.983L79.3923 156.969C79.3266 161.362 79.4328 174.173 82.5463 183.083C83.7659 186.574 86.2467 193.059 78.0561 204.173L73.5434 203.988C73.5434 203.988 63.4308 186.811 74.0557 154.402Z" fill="url(#paint2_linear_1802_23315)"/>
<path d="M96.9954 128.364L109.562 146.12C110.379 147.274 110.267 148.84 109.301 149.872C107.608 151.681 104.753 154.229 101.675 154.81C100.719 154.991 99.7471 154.59 99.2161 153.774L92.533 143.509C92.533 143.509 91.2537 127.383 96.9954 128.364Z" fill="url(#paint3_linear_1802_23315)"/>
<path d="M88.6506 116.822C88.4409 117.102 81.6428 139.16 81.6428 139.16L94.3122 142.777L103.86 122.828C103.859 122.828 92.1566 112.147 88.6506 116.822Z" fill="url(#paint4_linear_1802_23315)"/>
<path d="M98.8311 126.103L94.799 136.553C94.7109 136.781 94.5899 136.991 94.4383 137.182C93.7611 138.032 91.7927 140.035 89.613 137.891C87.9615 136.268 86.4047 134.776 84.9213 134.03C83.6146 133.372 82.0316 134.089 81.615 135.492C80.9904 137.595 80.0068 141.206 79.4933 144.647C79.3077 145.891 80.1223 147.067 81.3523 147.324C83.931 147.864 88.4317 148.652 92.3746 148.56C93.2488 148.54 94.0332 148.024 94.4213 147.239C95.8807 144.288 99.5455 136.961 100.924 135.009C102.192 133.215 105.055 133.225 106.515 133.363C107.193 133.427 107.861 133.2 108.357 132.733C109.521 131.64 111.081 129.436 108.86 126.698C108.088 125.746 108.152 124.392 109.002 123.509C110.231 122.232 111.249 120.194 109.308 117.633C107.252 114.921 104.471 115.068 102.598 115.606C101.684 115.869 100.751 115.468 100.151 114.73C99.9763 114.516 99.7283 114.351 99.3774 114.294C98.2323 114.11 97.3521 113.228 97.3198 112.068C97.2716 110.354 96.5315 108.36 93.7042 107.389C88.1788 105.49 84.5452 110.779 84.0838 114.791C83.6223 118.803 89.7296 120.521 93.355 120.355C95.8675 120.24 97.7204 122.546 98.6215 123.972C99.0243 124.61 99.1032 125.398 98.8311 126.103Z" fill="url(#paint5_linear_1802_23315)"/>
<path d="M99.3539 138.961C99.3539 138.961 100.457 132.004 103.371 131.747C106.283 131.489 109.04 133.959 106.039 137.794C102.308 142.564 99.3539 138.961 99.3539 138.961Z" fill="url(#paint6_linear_1802_23315)"/>
<path d="M130.883 146.791C130.883 146.791 156.213 162.957 161.759 181.727C167.305 200.495 154.894 204.188 143.076 205.851L142.187 191.519C142.187 191.519 150.465 191.519 145.184 183.685C139.904 175.851 125.713 170.628 125.713 170.628C125.713 170.628 89.7565 136.68 130.883 146.791Z" fill="url(#paint7_linear_1802_23315)"/>
<path d="M142.187 191.845C142.332 191.845 145.753 191.82 146.907 189.649C147.694 188.168 147.206 186.099 145.455 183.502C140.175 175.671 126.409 170.536 125.825 170.322C125.656 170.26 125.468 170.346 125.406 170.516C125.344 170.685 125.431 170.872 125.599 170.935C125.741 170.987 139.753 176.212 144.914 183.868C146.518 186.248 146.995 188.09 146.331 189.341C145.363 191.167 142.218 191.193 142.187 191.193C142.006 191.193 141.861 191.339 141.861 191.52C141.861 191.699 142.007 191.845 142.187 191.845Z" fill="url(#paint8_linear_1802_23315)"/>
<path d="M143.077 205.851C143.077 205.851 146.777 199.73 141.904 192.418L109.19 197.838C109.19 197.838 93.5304 195.187 92.7815 195.241C92.0327 195.294 81.8129 201.593 81.8129 201.593C81.8129 201.593 82.1561 202.324 84.5881 202.189C87.0202 202.054 85.4235 202.483 85.4235 202.483L85.5116 203.712C85.5116 203.712 87.2047 204.1 88.5628 202.655C89.9209 201.209 93.6957 200.509 93.6957 200.509C93.6957 200.509 101.719 206.442 109.601 203.571L143.077 205.851Z" fill="url(#paint9_linear_1802_23315)"/>
<path d="M95.4787 309.114C95.7349 309.114 95.9949 309.062 96.2456 308.951C97.2315 308.517 97.6869 307.345 97.2627 306.335L56.5126 209.237C56.0883 208.227 54.947 207.761 53.9601 208.194C52.9742 208.629 52.5188 209.8 52.943 210.811L93.6931 307.909C94.009 308.663 94.726 309.114 95.4787 309.114Z" fill="url(#paint10_linear_1802_23315)"/>
<path d="M49.5722 309.114C50.3254 309.114 51.0419 308.662 51.3577 307.909L92.1079 210.811C92.5321 209.8 92.0767 208.629 91.0908 208.194C90.1055 207.759 88.9626 208.226 88.5383 209.236L47.7882 306.334C47.364 307.344 47.8194 308.516 48.8053 308.951C49.0554 309.061 49.316 309.114 49.5722 309.114Z" fill="url(#paint11_linear_1802_23315)"/>
<path d="M19.4291 206.337C19.37 205.735 19.4504 205.112 19.6491 204.639C19.8473 204.166 20.1429 203.893 20.4544 203.893H126.045C126.455 203.893 126.837 204.303 127.058 204.983C127.279 205.662 127.309 206.516 127.137 207.248L125.993 212.119C125.731 213.234 125.163 213.948 124.538 213.948H21.1802C20.5989 213.948 20.0996 213.138 19.9891 212.015L19.4291 206.337Z" fill="url(#paint12_linear_1802_23315)"/>
<path d="M65.1008 89.0574C78.9247 95.6611 88.0065 109.405 77.2721 108.763C57.1193 107.558 70.7209 118.791 60.1223 118.46C49.5231 118.129 33.1172 115.867 22.3823 104.736C11.6473 93.6054 22.0823 90.945 26.433 91.3755C40.7583 92.7947 21.8004 68.372 65.1008 89.0574Z" fill="#BDD0FB"/>
<path d="M69.7844 123.93C69.7554 125.497 68.6036 128.067 66.0172 128.02C63.4308 127.972 60.3889 125.323 60.4179 123.757C60.4469 122.19 62.567 120.96 65.1534 121.007C67.7399 121.055 69.8128 122.363 69.7844 123.93Z" fill="#BDD0FB"/>
<path d="M73.6669 130.242C73.6532 131.001 72.9865 131.604 72.178 131.589C71.3695 131.574 69.7706 130.768 69.7848 130.009C69.7985 129.25 70.8013 128.492 71.6098 128.507C72.4177 128.522 73.6806 129.484 73.6669 130.242Z" fill="#BDD0FB"/>
<path d="M43.8292 101.5C43.8506 101.237 44.1188 101.009 44.5726 100.827C44.0788 100.555 43.8057 100.263 43.8292 99.9763C43.8993 99.1098 46.6406 98.6245 49.9529 98.8918C53.2652 99.1591 55.8938 100.078 55.8243 100.944C55.8029 101.207 55.5347 101.434 55.0809 101.617C55.5747 101.889 55.8478 102.181 55.8243 102.468C55.8029 102.73 55.5347 102.958 55.0809 103.14C55.5747 103.412 55.8478 103.704 55.8243 103.991C55.8029 104.254 55.5347 104.481 55.0809 104.663C55.5747 104.936 55.8478 105.228 55.8243 105.514C55.7936 105.897 55.2391 106.206 54.3447 106.408C54.3562 106.691 54.3496 107.002 54.3222 107.344C54.1925 108.94 52.3981 110.192 50.0246 110.192C47.6511 110.192 45.5968 108.485 45.5738 106.884C45.5683 106.491 45.5847 106.146 45.6203 105.839C44.4845 105.459 43.7931 104.996 43.8292 104.546C43.8506 104.283 44.1188 104.056 44.5726 103.874C44.0788 103.601 43.8057 103.309 43.8292 103.023C43.8506 102.76 44.1188 102.533 44.5726 102.35C44.0788 102.078 43.8062 101.786 43.8292 101.5Z" fill="url(#paint13_linear_1802_23315)"/>
<path d="M51.4859 106.752C52.4695 106.752 53.3694 106.68 54.1133 106.538C54.1566 106.53 54.1845 106.488 54.1763 106.445C54.1681 106.401 54.1265 106.373 54.0832 106.382C52.9195 106.605 51.3654 106.654 49.7068 106.52C48.3498 106.41 47.0804 106.191 46.036 105.886C45.9939 105.874 45.9495 105.898 45.9375 105.94C45.9254 105.982 45.9495 106.027 45.9917 106.039C47.046 106.347 48.3263 106.568 49.6942 106.678C50.3101 106.728 50.9122 106.752 51.4859 106.752Z" fill="url(#paint14_linear_1802_23315)"/>
<path d="M51.4693 105.228C52.7475 105.228 53.8899 105.107 54.6951 104.878C54.7373 104.866 54.7619 104.822 54.7499 104.779C54.7378 104.737 54.694 104.712 54.6513 104.724C53.5035 105.051 51.6549 105.153 49.7062 104.996C47.7788 104.84 45.9817 104.449 44.8979 103.949C44.8579 103.93 44.8108 103.948 44.7922 103.988C44.7736 104.028 44.7911 104.075 44.8311 104.093C45.9308 104.601 47.7481 104.997 49.693 105.154C50.3006 105.204 50.8984 105.228 51.4693 105.228Z" fill="url(#paint15_linear_1802_23315)"/>
<path d="M51.4856 103.706C52.8656 103.706 54.0732 103.564 54.8861 103.296C54.9277 103.282 54.9506 103.237 54.937 103.196C54.9233 103.154 54.8784 103.131 54.8368 103.145C53.7059 103.518 51.7878 103.641 49.7072 103.473C47.7798 103.317 45.9827 102.926 44.8988 102.426C44.8589 102.408 44.8118 102.425 44.7932 102.465C44.7746 102.505 44.7921 102.552 44.8321 102.571C45.9318 103.078 47.7491 103.475 49.694 103.632C50.3098 103.682 50.9125 103.706 51.4856 103.706Z" fill="url(#paint16_linear_1802_23315)"/>
<path d="M51.4746 102.182C52.5694 102.182 53.5651 102.093 54.3392 101.921C54.3818 101.912 54.4092 101.869 54.3994 101.826C54.3901 101.784 54.3474 101.756 54.3047 101.766C53.1409 102.025 51.4648 102.092 49.7066 101.95C47.7967 101.796 46.0084 101.409 44.9229 100.914C44.8829 100.896 44.8358 100.914 44.8178 100.954C44.7997 100.994 44.8172 101.041 44.8572 101.059C45.9585 101.561 47.7666 101.953 49.694 102.108C50.3027 102.158 50.9026 102.182 51.4746 102.182Z" fill="url(#paint17_linear_1802_23315)"/>
<path d="M58.0473 93.811C58.4497 92.3852 59.1328 91.0525 60.053 89.8918C62.0247 87.405 65.2418 82.3476 65.6375 75.4453C66.2134 65.4056 57.3149 60.3788 49.1949 61.0613C41.0748 61.7438 33.0626 67.7938 33.9395 77.1341C34.4793 82.8811 37.6941 87.2401 40.0873 89.7439C41.6069 91.3335 42.6913 93.2807 43.2781 95.4011C43.9963 97.9963 45.7058 101.23 49.7686 101.427C55.0268 101.682 57.2104 96.7781 58.0473 93.811Z" fill="url(#paint18_linear_1802_23315)"/>
<path d="M48.4263 99.4244L45.5853 80.9328C45.5268 80.551 45.339 80.2941 45.1655 80.3599C44.9925 80.4256 44.8995 80.7882 44.9586 81.1705C44.9602 81.181 44.9624 81.1936 44.9641 81.2034L48.2003 99.523C48.2243 99.6605 48.2944 99.7476 48.3563 99.7175C48.4165 99.6873 48.4466 99.5575 48.4263 99.4244Z" fill="url(#paint19_linear_1802_23315)"/>
<path d="M51.3757 99.5719L54.2167 81.0803C54.2753 80.6985 54.463 80.4416 54.6366 80.5073C54.8101 80.5731 54.9026 80.9357 54.8435 81.3175C54.8418 81.3279 54.8396 81.3405 54.838 81.3503L51.6018 99.6699C51.5777 99.8074 51.5076 99.8945 51.4458 99.8644C51.3856 99.8348 51.3555 99.705 51.3757 99.5719Z" fill="url(#paint20_linear_1802_23315)"/>
<path opacity="0.79" d="M45.6058 79.3457C45.678 79.2296 45.845 79.1863 45.9785 79.2488L47.5605 79.9882L48.1095 78.4227C48.1386 78.3411 48.2059 78.2688 48.3017 78.2288C48.4834 78.1538 48.7013 78.2212 48.7878 78.3789L48.7905 78.3838L50.0917 80.7578L51.2992 77.3787L51.3014 77.3732C51.331 77.2905 51.3934 77.2166 51.4842 77.1673C51.6868 77.0566 51.9539 77.1092 52.0814 77.2851L53.9004 79.7905C53.9743 79.8929 53.9491 80.0309 53.8364 80.1065C53.716 80.1876 53.543 80.169 53.4494 80.0644L51.8477 78.2765L50.4059 81.4913L50.4048 81.4934C50.3818 81.5449 50.338 81.5898 50.2778 81.6178C50.1426 81.6813 49.9734 81.6375 49.9006 81.5203L48.5091 79.286L47.9853 80.416L47.9809 80.4259C47.9771 80.4341 47.9727 80.4418 47.9678 80.45C47.8955 80.5661 47.7291 80.6094 47.595 80.5469L45.7169 79.6689C45.5839 79.607 45.5335 79.4618 45.6058 79.3457Z" fill="white"/>
<path opacity="0.79" d="M40.026 87.2761C40.0835 87.2761 40.1409 87.2586 40.1908 87.2214C40.3139 87.1304 40.3391 86.9568 40.2482 86.8336C39.7627 86.179 39.3176 85.502 38.9251 84.8222C38.8491 84.6896 38.6794 84.6442 38.5469 84.7209C38.4144 84.7976 38.369 84.9668 38.4456 85.0994C38.8485 85.7978 39.3056 86.4923 39.8037 87.1638C39.8579 87.2378 39.9417 87.2761 40.026 87.2761Z" fill="white"/>
<path opacity="0.79" d="M37.6887 83.2628C37.7254 83.2628 37.7632 83.2551 37.7987 83.2398C37.9389 83.179 38.0035 83.0157 37.9422 82.8755C34.9298 75.9338 37.5294 70.0816 37.5562 70.023C37.6197 69.8839 37.5584 69.7196 37.4194 69.656C37.2804 69.5925 37.1161 69.6533 37.0526 69.7924C37.0247 69.8527 34.3195 75.919 37.4342 83.0963C37.4802 83.2003 37.582 83.2628 37.6887 83.2628Z" fill="white"/>
<path d="M39.7813 151.03C42.024 145.681 50.1479 129.467 64.5186 134.475C64.7299 134.549 64.7058 134.857 64.4852 134.898C61.3163 135.486 49.5747 138.453 40.1585 151.242C40.0047 151.45 39.6812 151.268 39.7813 151.03Z" fill="#91B3FA"/>
<path d="M39.9037 151.364C43.1345 148.317 52.7543 136.528 65.5299 141.915C65.6701 141.975 65.6422 142.183 65.4905 142.199C62.3332 142.533 46.6569 144.52 39.9651 151.622C39.7877 151.811 39.716 151.541 39.9037 151.364Z" fill="#91B3FA"/>
<path d="M40.2077 150.025C40.5148 145.994 42.3146 130.775 52.1097 127.636C52.1814 127.613 52.2422 127.694 52.1989 127.756C51.0187 129.421 42.4318 141.727 40.3604 150.05C40.3375 150.142 40.2001 150.121 40.2077 150.025Z" fill="#91B3FA"/>
<path d="M39.2325 154.644C39.1465 154.691 39.0623 154.579 39.1318 154.51C40.8621 152.785 48.0263 146.447 57.1218 149.568C67.4259 153.104 49.3833 149.133 39.2325 154.644Z" fill="#91B3FA"/>
<path d="M39.4699 151.486C39.4907 151.788 39.9188 151.824 39.9861 151.529C41.0727 146.748 43.3756 133.565 36.6733 130.212C28.7405 126.243 38.3927 135.854 39.4699 151.486Z" fill="#91B3FA"/>
<path d="M39.9334 151.452C38.8074 148.517 34.4672 139.401 25.4341 144.327C25.2819 144.41 25.3312 144.642 25.5047 144.653C27.5372 144.78 34.2942 145.658 39.6428 151.626C39.7703 151.77 40.0018 151.632 39.9334 151.452Z" fill="#91B3FA"/>
<path d="M39.6893 152.19C39.2738 150.377 37.1133 146.741 26.1177 150.071C26.0521 150.091 26.069 150.19 26.1374 150.183C28.298 149.958 35.5986 149.462 39.1775 152.502C39.4074 152.698 39.7566 152.484 39.6893 152.19Z" fill="#91B3FA"/>
<path d="M36.5248 201.807L36.5209 201.436V201.037L36.527 200.238L36.5374 198.64L36.5839 195.444C36.6124 193.313 36.6545 191.183 36.6994 189.053C36.7963 184.794 36.9183 180.537 37.1127 176.283C37.3032 172.031 37.5659 167.782 37.9748 163.549C38.1845 161.434 38.4374 159.323 38.7778 157.228C39.1123 155.132 39.5431 153.047 40.2427 151.046L40.0527 150.968C39.6362 151.956 39.2716 152.969 38.9968 154.005L38.7822 154.78C38.7149 155.039 38.6569 155.301 38.5939 155.561L38.4078 156.343L38.243 157.129C37.8183 159.228 37.4898 161.344 37.2326 163.467C36.9687 165.589 36.7733 167.718 36.5992 169.847C36.4366 171.977 36.3146 174.11 36.2084 176.242C36.1159 178.376 36.0469 180.509 35.9971 182.643C35.9637 184.777 35.9308 186.911 35.9423 189.046C35.9445 191.18 35.9768 193.314 36.0305 195.447L36.1438 198.646L36.2138 200.246L36.2615 201.046L36.2883 201.446C36.2998 201.581 36.3031 201.705 36.3294 201.873L36.5248 201.807Z" fill="#91B3FA"/>
<path d="M32.8076 164.127C31.3055 160.544 25.8634 149.683 16.2364 153.037C16.0946 153.086 16.111 153.293 16.2588 153.32C18.3816 153.714 26.2471 155.702 32.5552 164.269C32.6581 164.409 32.8749 164.287 32.8076 164.127Z" fill="#91B3FA"/>
<path d="M32.7256 164.35C30.5612 162.309 24.1173 154.412 15.5588 158.021C15.4647 158.06 15.4838 158.2 15.5851 158.21C17.7002 158.434 28.2014 159.765 32.684 164.523C32.8034 164.65 32.8515 164.469 32.7256 164.35Z" fill="#91B3FA"/>
<path d="M32.5223 163.454C32.3165 160.754 31.1111 150.559 24.549 148.456C24.5013 148.44 24.4603 148.495 24.4893 148.536C25.2797 149.652 31.0323 157.895 32.4199 163.47C32.4353 163.533 32.5267 163.518 32.5223 163.454Z" fill="#91B3FA"/>
<path d="M33.1752 166.549C33.2327 166.58 33.2891 166.506 33.2426 166.459C32.0832 165.303 27.2842 161.058 21.1911 163.148C14.2885 165.517 26.375 162.857 33.1752 166.549Z" fill="#91B3FA"/>
<path d="M33.0158 164.433C33.0022 164.635 32.7153 164.658 32.6704 164.461C31.9424 161.258 30.3999 152.427 34.8896 150.181C40.2036 147.522 33.7373 153.96 33.0158 164.433Z" fill="#91B3FA"/>
<path d="M32.7057 164.41C33.46 162.444 36.3677 156.337 42.4186 159.637C42.5204 159.693 42.4876 159.848 42.3715 159.855C41.0102 159.941 36.4838 160.529 32.9005 164.526C32.8151 164.622 32.6597 164.53 32.7057 164.41Z" fill="#91B3FA"/>
<path d="M32.8693 164.905C33.1474 163.69 34.5953 161.254 41.961 163.485C42.0054 163.498 41.9933 163.565 41.9479 163.56C40.5006 163.41 35.6096 163.077 33.2126 165.114C33.0582 165.245 32.8239 165.102 32.8693 164.905Z" fill="#91B3FA"/>
<path d="M34.2879 201.872C34.3092 201.737 34.3103 201.647 34.3191 201.546L34.3383 201.246L34.3722 200.648C34.3946 200.249 34.4089 199.85 34.4242 199.452L34.5036 197.059C34.5561 195.464 34.5599 193.868 34.5703 192.272C34.5736 190.677 34.5764 189.08 34.5457 187.484C34.5123 185.888 34.474 184.291 34.405 182.696C34.3339 181.1 34.249 179.505 34.1368 177.911C34.0142 176.317 33.8724 174.724 33.6754 173.135L33.5221 171.945L33.3409 170.757C33.2128 169.966 33.0782 169.176 32.9063 168.392C32.828 167.999 32.7393 167.608 32.6397 167.219C32.5899 167.024 32.5445 166.829 32.4914 166.635L32.3239 166.056C32.1071 165.283 31.8301 164.524 31.5044 163.789L31.3145 163.867C31.5564 164.621 31.7754 165.38 31.9347 166.156L32.0578 166.737C32.0961 166.931 32.1273 167.127 32.1618 167.322L32.268 167.907L32.3605 168.494C32.4218 168.885 32.4831 169.276 32.5319 169.67C32.5833 170.064 32.6452 170.455 32.6868 170.85C32.7815 171.638 32.8647 172.428 32.9473 173.217C33.2511 176.379 33.4717 179.553 33.6283 182.732C33.7832 185.911 33.8888 189.094 33.971 192.279C34.0131 193.871 34.0246 195.464 34.0585 197.057L34.0875 199.447L34.0947 200.642L34.0974 201.239L34.0941 201.807L34.2879 201.872Z" fill="#91B3FA"/>
<path d="M43.4905 170.753C45.4097 167.618 51.9767 158.258 59.4695 162.995C59.58 163.065 59.528 163.257 59.3989 163.259C57.5394 163.283 50.5535 163.876 43.6772 170.929C43.5655 171.044 43.4051 170.893 43.4905 170.753Z" fill="#91B3FA"/>
<path d="M43.5187 170.978C45.7138 169.406 52.583 163.007 59.1293 167.809C59.201 167.862 59.16 167.99 59.0724 167.984C57.2507 167.849 48.1656 167.391 43.5215 171.149C43.3989 171.248 43.3912 171.07 43.5187 170.978Z" fill="#91B3FA"/>
<path d="M43.8541 170.166C44.5208 167.651 47.3984 158.229 53.3076 157.316C53.3508 157.309 53.3754 157.367 53.3431 157.401C52.4739 158.325 46.1241 165.164 43.9373 170.198C43.9132 170.254 43.8382 170.225 43.8541 170.166Z" fill="#91B3FA"/>
<path d="M42.7392 172.979C42.685 172.999 42.651 172.919 42.6987 172.883C43.886 171.982 48.7025 168.759 53.4506 171.726C58.8298 175.089 49.1393 170.605 42.7392 172.979Z" fill="#91B3FA"/>
<path d="M43.2597 171.009C43.2345 171.202 43.4715 171.271 43.5454 171.092C44.7431 168.189 47.6558 160.108 44.2861 157.256C40.2972 153.879 44.5652 161.01 43.2597 171.009Z" fill="#91B3FA"/>
<path d="M43.5245 171.038C43.2486 169.06 41.9163 162.823 36.2185 164.948C36.1221 164.984 36.1221 165.136 36.2185 165.162C37.3494 165.465 41.053 166.759 43.3395 171.116C43.3942 171.221 43.5415 171.159 43.5245 171.038Z" fill="#91B3FA"/>
<path d="M43.2969 171.477C43.2843 170.286 42.5108 167.752 35.901 168.654C35.8616 168.66 35.8589 168.724 35.8988 168.727C37.1453 168.821 41.3235 169.306 42.9701 171.619C43.0757 171.768 43.299 171.671 43.2969 171.477Z" fill="#91B3FA"/>
<path d="M35.4825 202.491L35.6691 201.508L35.8678 200.5L36.2762 198.486L37.1192 194.464C37.4066 193.125 37.7027 191.788 38.0076 190.453C38.3048 189.116 38.6119 187.782 38.93 186.45C39.5688 183.788 40.2656 181.142 41.0205 178.516L41.3078 177.532L41.6067 176.553C41.8065 175.901 42.0101 175.249 42.2357 174.605C42.6884 173.32 43.1575 172.037 43.7881 170.832L43.6124 170.727C43.239 171.309 42.9035 171.917 42.6106 172.541C42.4601 172.852 42.3107 173.164 42.1809 173.483C42.0446 173.801 41.9133 174.119 41.7906 174.441C41.2854 175.723 40.8365 177.026 40.4347 178.341C39.6279 180.971 38.9699 183.639 38.3448 186.312C38.0355 187.65 37.7377 188.989 37.4493 190.331C37.1728 191.675 36.9057 193.021 36.6479 194.369C36.3906 195.716 36.1371 197.065 35.9122 198.418L35.5761 200.448L35.4179 201.465L35.344 201.975L35.3084 202.231C35.298 202.318 35.2838 202.393 35.2777 202.512L35.4825 202.491Z" fill="#91B3FA"/>
<path d="M40.242 189.161H31.4897C30.916 189.161 30.4918 190.026 30.6204 190.932C31.1804 194.865 31.8515 198.855 33.2249 202.905C33.4784 203.653 33.9617 204.122 34.4883 204.122H37.3441C37.8624 204.122 38.3387 203.66 38.5845 202.92C39.6847 199.606 40.7428 195.655 41.2656 191.172C41.3871 190.13 40.8972 189.161 40.242 189.161Z" fill="url(#paint21_linear_1802_23315)"/>
</g>
<defs>
<linearGradient id="paint0_linear_1802_23315" x1="36.9122" y1="243.535" x2="118.885" y2="266.556" gradientUnits="userSpaceOnUse">
<stop stop-color="#CB236D"/>
<stop offset="1" stop-color="#4C246D"/>
</linearGradient>
<linearGradient id="paint1_linear_1802_23315" x1="146.51" y1="215.187" x2="85.2062" y2="160.936" gradientUnits="userSpaceOnUse">
<stop stop-color="#4F52FF"/>
<stop offset="1" stop-color="#4042E2"/>
</linearGradient>
<linearGradient id="paint2_linear_1802_23315" x1="91.4912" y1="174.224" x2="69.197" y2="174.224" gradientUnits="userSpaceOnUse">
<stop stop-color="#FEBBBA"/>
<stop offset="1" stop-color="#FF928E"/>
</linearGradient>
<linearGradient id="paint3_linear_1802_23315" x1="115.509" y1="151.307" x2="89.5887" y2="136.298" gradientUnits="userSpaceOnUse">
<stop stop-color="#FEBBBA"/>
<stop offset="1" stop-color="#FF928E"/>
</linearGradient>
<linearGradient id="paint4_linear_1802_23315" x1="92.7123" y1="120.064" x2="92.8682" y2="163.981" gradientUnits="userSpaceOnUse">
<stop stop-color="#FEBBBA"/>
<stop offset="1" stop-color="#FF928E"/>
</linearGradient>
<linearGradient id="paint5_linear_1802_23315" x1="103.877" y1="138.874" x2="78.579" y2="119.905" gradientUnits="userSpaceOnUse">
<stop stop-color="#09005D"/>
<stop offset="1" stop-color="#1A0F91"/>
</linearGradient>
<linearGradient id="paint6_linear_1802_23315" x1="107.075" y1="165.534" x2="103.162" y2="135.356" gradientUnits="userSpaceOnUse">
<stop stop-color="#FEBBBA"/>
<stop offset="1" stop-color="#FF928E"/>
</linearGradient>
<linearGradient id="paint7_linear_1802_23315" x1="161.951" y1="197.739" x2="100.648" y2="143.488" gradientUnits="userSpaceOnUse">
<stop stop-color="#4F52FF"/>
<stop offset="1" stop-color="#4042E2"/>
</linearGradient>
<linearGradient id="paint8_linear_1802_23315" x1="130.384" y1="34.5603" x2="134.818" y2="142.403" gradientUnits="userSpaceOnUse">
<stop stop-color="#09005D"/>
<stop offset="1" stop-color="#1A0F91"/>
</linearGradient>
<linearGradient id="paint9_linear_1802_23315" x1="113.639" y1="207.966" x2="112.622" y2="193.815" gradientUnits="userSpaceOnUse">
<stop stop-color="#FEBBBA"/>
<stop offset="1" stop-color="#FF928E"/>
</linearGradient>
<linearGradient id="paint10_linear_1802_23315" x1="97.4214" y1="258.573" x2="52.7841" y2="258.573" gradientUnits="userSpaceOnUse">
<stop stop-color="#9CFFFB"/>
<stop offset="1" stop-color="#9BFFFA"/>
</linearGradient>
<linearGradient id="paint11_linear_1802_23315" x1="92.2669" y1="258.573" x2="47.6297" y2="258.573" gradientUnits="userSpaceOnUse">
<stop stop-color="#9CFFFB"/>
<stop offset="1" stop-color="#9BFFFA"/>
</linearGradient>
<linearGradient id="paint12_linear_1802_23315" x1="144.134" y1="292.371" x2="16.7525" y2="141.841" gradientUnits="userSpaceOnUse">
<stop stop-color="#09005D"/>
<stop offset="1" stop-color="#1A0F91"/>
</linearGradient>
<linearGradient id="paint13_linear_1802_23315" x1="43.2712" y1="97.4277" x2="20.6934" y2="76.5816" gradientUnits="userSpaceOnUse">
<stop stop-color="#09005D"/>
<stop offset="1" stop-color="#1A0F91"/>
</linearGradient>
<linearGradient id="paint14_linear_1802_23315" x1="56.1704" y1="120.205" x2="24.0254" y2="46.7252" gradientUnits="userSpaceOnUse">
<stop stop-color="#4F52FF"/>
<stop offset="1" stop-color="#4042E2"/>
</linearGradient>
<linearGradient id="paint15_linear_1802_23315" x1="56.5895" y1="120.022" x2="24.4437" y2="46.541" gradientUnits="userSpaceOnUse">
<stop stop-color="#4F52FF"/>
<stop offset="1" stop-color="#4042E2"/>
</linearGradient>
<linearGradient id="paint16_linear_1802_23315" x1="57.2374" y1="119.738" x2="25.091" y2="46.2574" gradientUnits="userSpaceOnUse">
<stop stop-color="#4F52FF"/>
<stop offset="1" stop-color="#4042E2"/>
</linearGradient>
<linearGradient id="paint17_linear_1802_23315" x1="57.5513" y1="119.601" x2="25.4056" y2="46.1204" gradientUnits="userSpaceOnUse">
<stop stop-color="#4F52FF"/>
<stop offset="1" stop-color="#4042E2"/>
</linearGradient>
<linearGradient id="paint18_linear_1802_23315" x1="49.5694" y1="71.0392" x2="51.5096" y2="110.647" gradientUnits="userSpaceOnUse">
<stop stop-color="#FF928E"/>
<stop offset="1" stop-color="#FE7062"/>
</linearGradient>
<linearGradient id="paint19_linear_1802_23315" x1="12.6243" y1="60.09" x2="59.43" y2="101.053" gradientUnits="userSpaceOnUse">
<stop stop-color="#E1473D"/>
<stop offset="1" stop-color="#E9605A"/>
</linearGradient>
<linearGradient id="paint20_linear_1802_23315" x1="15.2636" y1="57.0749" x2="62.0693" y2="98.0378" gradientUnits="userSpaceOnUse">
<stop stop-color="#E1473D"/>
<stop offset="1" stop-color="#E9605A"/>
</linearGradient>
<linearGradient id="paint21_linear_1802_23315" x1="31.313" y1="215.507" x2="34.5663" y2="198.364" gradientUnits="userSpaceOnUse">
<stop stop-color="#4F52FF"/>
<stop offset="1" stop-color="#4042E2"/>
</linearGradient>
<clipPath id="clip0_1802_23315">
<rect width="168" height="152.933" fill="white" transform="matrix(-1 0 0 1 168 61)"/>
</clipPath>
</defs>
</svg>
