<svg width="364" height="317" viewBox="0 0 364 317" fill="none" xmlns="http://www.w3.org/2000/svg">
    <g clip-path="url(#clip0_6675_22426)">
        <path d="M45.2568 316.419C8.95693 267.373 7.90899 241.736 13.9506 227.347C20.0105 212.924 31.916 212.855 39.4202 194.379C48.9702 170.872 35.1054 157.67 38.3586 127.861C41.1471 102.312 56.0096 69.2246 79.7479 59.6092C108.088 48.1313 125.607 79.6148 152.972 68.2859C179.681 57.2252 172.865 23.1441 203.378 6.97776C225.868 -4.9372 257.88 -1.42579 272.889 16.2306C284.015 29.3177 278.643 41.7442 289.87 60.7664C304.231 85.093 324.716 76.6149 332.849 93.7349C344.691 118.657 308.728 142.691 316.401 179.34C322.087 206.507 344.896 207.828 356.729 238.338C367.358 265.759 360.82 295.336 353.015 317C250.426 316.806 147.841 316.613 45.2568 316.419Z" fill="#C4E8E3"/>
        <path d="M162.585 222.504L172.963 290.207C172.963 290.207 167.424 303.769 167.834 304.238C171.486 308.41 185.385 290.661 185.385 290.661L185.379 227.386L162.585 222.504Z" fill="#FB9C98"/>
        <path d="M169.297 305.231C168.588 305.231 168.003 304.976 167.565 304.474C167.359 304.239 167.166 304.018 169.913 296.919C171.112 293.819 172.368 290.731 172.596 290.163L162.153 222.047L185.736 227.098L185.743 290.784L185.667 290.88C185.213 291.461 174.483 305.09 169.38 305.231C169.351 305.231 169.324 305.231 169.297 305.231ZM168.171 304.076C168.476 304.384 168.867 304.529 169.36 304.514C173.919 304.389 184.047 291.769 185.027 290.534L185.02 227.672L163.017 222.96L173.33 290.25L173.292 290.342C171.334 295.139 168.268 302.973 168.171 304.076Z" fill="#212429"/>
        <path d="M226.149 221.398H210.721C210.721 225.106 213.282 228.201 216.708 228.996V304.922H220.164V228.996C223.591 228.201 226.149 225.106 226.149 221.398Z" fill="#212429"/>
        <path d="M171.531 170.613C175.074 129.627 203.787 98.6237 235.666 101.368C267.544 104.113 284.258 139.495 280.715 180.481C277.172 221.467 251.102 224.832 219.224 222.087C187.346 219.343 167.986 211.598 171.531 170.613Z" fill="#45B4AD"/>
        <path d="M233.895 223.172C228.931 223.172 223.953 222.855 219.195 222.446C205.193 221.241 190.978 219.016 181.86 210.961C172.876 203.027 169.481 190.197 171.177 170.585C172.899 150.683 180.546 132.489 192.713 119.352C204.904 106.189 220.171 99.6795 235.699 101.015C243.508 101.687 250.628 104.318 256.863 108.838C262.792 113.134 267.815 119.048 271.79 126.417C279.55 140.801 282.846 160.013 281.074 180.516C279.426 199.567 272.781 211.83 260.76 218.005C252.996 221.989 243.473 223.172 233.895 223.172ZM171.531 170.614L171.887 170.646C170.213 190.014 173.53 202.654 182.332 210.425C191.296 218.342 205.377 220.539 219.256 221.734C233.094 222.927 248.808 223.337 260.431 217.368C272.215 211.316 278.735 199.241 280.36 180.454C282.121 160.089 278.853 141.018 271.159 126.757C263.027 111.683 250.744 103.027 235.637 101.727C220.33 100.41 205.274 106.841 193.237 119.836C181.178 132.856 173.595 150.902 171.889 170.646L171.531 170.614Z" fill="#212429"/>
        <path d="M133.491 225.117L106.595 290.362C106.595 290.362 101.053 303.924 101.465 304.393C105.118 308.564 119.017 290.815 119.017 290.815L157.048 225.816L133.491 225.117Z" fill="#FB9C98"/>
        <path d="M102.931 305.385C102.221 305.385 101.637 305.131 101.199 304.628C100.993 304.394 100.8 304.173 103.544 297.073C104.865 293.659 106.252 290.262 106.266 290.226L133.256 224.754L157.663 225.477L119.301 291.035C118.847 291.615 108.117 305.244 103.014 305.385C102.985 305.385 102.958 305.385 102.931 305.385ZM101.803 304.233C102.107 304.541 102.501 304.686 102.994 304.671C107.683 304.543 118.26 291.198 118.721 290.613L156.437 226.154L133.73 225.482L106.928 290.497C104.968 295.293 101.899 303.127 101.803 304.233Z" fill="#212429"/>
        <path d="M251.745 195.213H228.629C228.432 195.213 228.271 195.054 228.271 194.855C228.271 194.659 228.43 194.498 228.629 194.498H251.429C251.868 191.099 256.017 161.15 268.439 137.818C268.531 137.644 268.748 137.579 268.923 137.67C269.097 137.762 269.164 137.979 269.07 138.153C256.013 162.675 252.136 194.576 252.098 194.896L252.06 195.211H251.745V195.213Z" fill="#212429"/>
        <path d="M196.932 131.793L197.489 142.546C197.489 142.546 224.294 163.529 231.221 156.362C232.671 154.862 237.362 132.378 237.362 132.378L196.932 131.793Z" fill="#FB9C98"/>
        <path d="M227.071 158.201C217.042 158.201 198.203 143.558 197.268 142.826L197.14 142.725L196.556 131.43L237.801 132.026L237.713 132.45C237.23 134.762 232.957 155.079 231.478 156.611C230.399 157.725 228.877 158.201 227.071 158.201ZM197.836 142.363C199.848 143.913 224.575 162.721 230.961 156.113C231.957 155.084 235.034 141.727 236.921 132.727L197.308 132.153L197.836 142.363Z" fill="#212429"/>
        <path d="M125.181 239.718C125.181 239.718 131.649 218.996 133.451 213.219C138.429 197.272 193.602 157.17 193.602 157.17L195.737 143.523L238.645 145.437L234.842 153.919C234.842 153.919 249.923 172.691 245.017 191.686C241.628 204.809 189.125 227.516 189.125 227.516C188.819 233.351 191.71 242.279 191.71 242.279L125.181 239.718Z" fill="#212429"/>
        <path d="M227.555 16.8288C244.318 4.82541 220.032 -4.18324 214.768 2.0116C210.71 6.78838 213.622 11.1319 215.274 12.9631C211.064 12.7912 206.997 13.8743 203.709 16.5652C189.293 28.3587 199.318 43.714 199.318 43.714C199.318 43.714 206.988 70.9923 225.757 58.1113C226.171 57.8277 226.572 57.5419 226.966 57.2538C226.968 57.2605 226.968 57.2672 226.97 57.2739C227.076 57.7406 227.275 58.1359 227.452 58.482C227.736 59.0403 227.96 59.4825 227.76 60.081C227.642 60.4383 227.508 60.6482 227.375 60.8514C227.044 61.3718 226.847 61.7782 226.919 63.0422C226.93 63.232 227.087 63.3794 227.275 63.3794C227.281 63.3794 227.288 63.3794 227.295 63.3794C227.492 63.3682 227.644 63.2007 227.633 63.002C227.57 61.8742 227.74 61.6063 227.978 61.2355C228.116 61.0189 228.289 60.7487 228.436 60.3065C228.732 59.4244 228.403 58.7813 228.087 58.1582C227.922 57.8322 227.751 57.4972 227.666 57.1176C227.635 56.9813 227.631 56.863 227.64 56.7558C247.613 41.7488 240.187 24.4104 227.555 16.8288Z" fill="#212429"/>
        <path d="M225.601 50.1953C225.601 50.1953 225.858 71.2028 226.72 72.2636C229.665 75.8925 231.306 77.219 233.188 77.6188C233.909 77.7729 234.184 90.1179 229.775 95.3659C222.666 103.827 209.177 106.71 209.177 106.71L193.689 85.5711L199.987 81.1204C199.987 81.1204 204.864 78.3401 206.948 75.9551C209.029 73.5678 208.969 52.1851 208.969 52.1851L225.601 50.1953Z" fill="#FB9C98"/>
        <path d="M209.025 107.111L193.185 85.4943L199.808 80.8158C199.855 80.789 204.658 78.0377 206.675 75.7263C208.311 73.8527 208.624 58.1021 208.608 52.1908L208.606 51.8737L225.952 49.7969L225.956 50.1944C226.053 58.1534 226.424 71.126 227.002 72.0505C229.855 75.5656 231.435 76.8854 233.26 77.2739C233.537 77.332 233.636 77.6201 233.674 77.7295C234.314 79.5875 234.218 90.6351 230.048 95.5994C222.942 104.056 209.387 107.036 209.251 107.065L209.025 107.111ZM194.192 85.6573L209.327 106.312C211.113 105.888 223.054 102.815 229.502 95.1394C233.631 90.2219 233.472 79.123 232.998 77.9461C231.039 77.4906 229.363 76.0904 226.442 72.4905C225.578 71.4252 225.305 54.8841 225.249 50.5986L209.327 52.5057C209.329 55.8175 209.249 73.8661 207.216 76.1931C205.157 78.5536 200.535 81.2222 200.179 81.4254L194.192 85.6573Z" fill="#212429"/>
        <path d="M225.692 53.5057C228.074 51.7414 232.23 48.2063 232.176 44.9727C232.123 41.739 228.454 42.313 227.353 42.8824C226.621 43.2621 226.744 25.0639 226.744 25.0639L201.675 24.5234C201.675 24.5234 198.463 41.1383 199.83 49.9996C201.205 58.8988 205.437 60.9957 211.977 60.9421C215.216 60.9153 217.718 60.0824 219.674 58.9546L225.692 53.5057Z" fill="#FB9C98"/>
        <path d="M211.737 61.3002C208.116 61.3002 205.645 60.6213 203.743 59.1072C201.54 57.3542 200.146 54.393 199.477 50.0539C198.116 41.2328 201.292 24.6224 201.323 24.4549L201.381 24.1602L227.105 24.7162L227.102 25.0691C227.062 31.0741 227.14 40.6745 227.508 42.4276C228.418 42.0837 230.111 41.8358 231.281 42.5325C231.841 42.8653 232.51 43.5576 232.534 44.9689C232.59 48.3321 228.244 52.1084 225.744 53.9597C225.585 54.0781 225.361 54.0446 225.245 53.886C225.126 53.7275 225.16 53.5042 225.319 53.3858C227.709 51.6149 231.872 48.0239 231.82 44.9801C231.805 44.1114 231.5 43.4928 230.916 43.1444C229.846 42.508 228.15 42.872 227.521 43.198C227.393 43.265 227.243 43.2583 227.123 43.1846C226.858 43.0238 226.529 42.8228 226.415 33.8209C226.368 30.1808 226.382 26.5363 226.388 25.413L201.972 24.8859C201.552 27.1571 198.942 41.8894 200.186 49.9445C201.56 58.8437 205.889 60.6392 211.977 60.5856C214.777 60.5632 217.306 59.9089 219.497 58.6449C219.669 58.5467 219.887 58.6047 219.987 58.7745C220.086 58.9442 220.028 59.163 219.857 59.2635C217.559 60.59 214.911 61.2756 211.986 61.3002C211.899 61.3002 211.818 61.3002 211.737 61.3002Z" fill="#212429"/>
        <path d="M204.683 43.3287C204.665 43.3287 204.645 43.3286 204.627 43.3264C204.233 43.2952 203.938 42.9535 203.969 42.5582L204.034 41.7409C204.065 41.3478 204.408 41.053 204.802 41.0843C205.195 41.1156 205.491 41.4595 205.46 41.8503L205.395 42.6676C205.368 43.045 205.054 43.3287 204.683 43.3287Z" fill="#212429"/>
        <path d="M215.836 43.2268C215.818 43.2268 215.798 43.2268 215.78 43.2246C215.386 43.1933 215.09 42.8494 215.122 42.4563L215.184 41.639C215.216 41.246 215.56 40.9534 215.952 40.9825C216.346 41.0137 216.641 41.3554 216.61 41.7484L216.545 42.5658C216.518 42.9432 216.205 43.2268 215.836 43.2268Z" fill="#212429"/>
        <path d="M219.356 38.9295C219.298 38.9295 219.24 38.9161 219.184 38.8849C217.075 37.7281 214.855 38.4047 214.833 38.4114C214.645 38.4717 214.443 38.3668 214.383 38.1792C214.325 37.9916 214.43 37.7906 214.618 37.7325C214.721 37.699 217.154 36.9576 219.528 38.2596C219.701 38.3556 219.766 38.5722 219.669 38.7442C219.607 38.8625 219.484 38.9295 219.356 38.9295Z" fill="#212429"/>
        <path d="M202.308 38.8831C202.176 38.8831 202.049 38.8094 201.988 38.6844C201.901 38.508 201.972 38.2936 202.149 38.2065C202.245 38.1596 204.537 37.0475 206.843 37.8179C207.028 37.8804 207.131 38.0837 207.066 38.269C207.004 38.4566 206.802 38.5571 206.614 38.4946C204.589 37.8157 202.487 38.8362 202.467 38.8452C202.416 38.8697 202.36 38.8831 202.308 38.8831Z" fill="#212429"/>
        <path d="M198.579 37.255C198.579 37.255 200.358 27.6232 209.098 27.2548C213.709 27.0605 219.358 27.7729 222.109 29.9793C224.759 32.103 227.391 41.6968 227.391 41.6968L230.334 23.0452L201.63 20.582L198.579 37.255Z" fill="#212429"/>
        <path d="M226.764 50.2728C226.576 50.2728 226.418 50.1254 226.409 49.9356C226.337 48.6694 226.534 48.2629 226.865 47.7448C226.995 47.5416 227.129 47.3317 227.248 46.9744C227.449 46.3759 227.223 45.9337 226.939 45.3754C226.762 45.027 226.561 44.634 226.456 44.1673C226.196 43.006 227.004 42.3919 227.467 42.2311C227.653 42.1663 227.859 42.2624 227.924 42.45C227.989 42.6353 227.892 42.8385 227.709 42.9033C227.584 42.9502 226.977 43.2182 227.156 44.011C227.241 44.3906 227.411 44.7278 227.579 45.0516C227.897 45.6747 228.224 46.3178 227.928 47.1999C227.781 47.6421 227.608 47.9101 227.469 48.1267C227.232 48.4996 227.06 48.7676 227.125 49.8954C227.136 50.0919 226.984 50.2616 226.787 50.2728C226.778 50.2706 226.771 50.2728 226.764 50.2728Z" fill="#212429"/>
        <path d="M198.06 53.1559C198.044 53.1559 198.029 53.1559 198.013 53.1537C197.818 53.1269 197.68 52.9483 197.706 52.7517C197.908 51.2622 197.68 50.6101 197.415 49.8531C197.286 49.4779 197.149 49.0916 197.062 48.5891C196.878 47.5551 197.268 46.9097 197.644 46.2845C197.868 45.9115 198.1 45.5274 198.237 45.0316C198.597 43.7208 198.232 41.5635 198.228 41.5412C198.194 41.3469 198.326 41.1615 198.521 41.1303C198.716 41.0968 198.902 41.2263 198.933 41.4206C198.951 41.5144 199.327 43.7543 198.926 45.2192C198.763 45.811 198.494 46.2577 198.257 46.6529C197.906 47.2336 197.628 47.6936 197.765 48.464C197.845 48.9107 197.964 49.2546 198.091 49.6186C198.362 50.3913 198.64 51.1907 198.416 52.8478C198.389 53.0264 198.237 53.1559 198.06 53.1559Z" fill="#212429"/>
        <path d="M208.599 47.985C207.935 47.985 207.429 47.7103 207.185 47.5763L207.162 47.5652C207.138 47.5629 207.08 47.5875 207.035 47.6031C206.845 47.6701 206.399 47.8242 206.057 47.2793C205.665 46.6518 206.09 46.0801 206.372 45.8635C206.529 45.7429 206.755 45.7719 206.874 45.9283C206.995 46.0846 206.966 46.3057 206.811 46.4263C206.762 46.4665 206.522 46.6741 206.666 46.8997C206.683 46.9287 206.697 46.9466 206.708 46.9578C206.733 46.9511 206.773 46.9377 206.8 46.9287C206.957 46.8729 207.221 46.7813 207.507 46.9377C207.872 47.1364 208.586 47.525 209.513 47.0225C209.9 46.8126 210.242 46.9332 210.446 47.0069C210.462 47.0114 210.479 47.0181 210.495 47.0247C210.511 46.9533 210.522 46.8394 210.488 46.7367C210.459 46.6451 210.401 46.5826 210.303 46.5379C210.121 46.4575 210.041 46.2454 210.124 46.0667C210.204 45.8881 210.417 45.8077 210.598 45.8881C210.911 46.0287 211.124 46.29 211.198 46.6228C211.281 47.0024 211.164 47.391 211.014 47.563C210.741 47.8711 210.394 47.7483 210.206 47.6835C210.027 47.6188 209.951 47.6009 209.853 47.6523C209.398 47.8979 208.973 47.985 208.599 47.985Z" fill="#212429"/>
        <path d="M204.734 50.5571C204.325 51.0082 206.435 52.8327 208.159 52.8349C212.494 52.8394 213.835 49.7643 212.859 50.2467C212.492 50.4298 210.303 51.4079 208.159 51.2494C205.41 51.0484 205.198 50.0457 204.734 50.5571Z" fill="#212429"/>
        <path d="M122.929 68.5301C124.189 67.8691 127.934 73.0032 128.325 72.7464C128.547 72.6012 121.933 62.8467 123.178 61.4085C124.415 59.9815 130.693 71.0603 130.778 71.2077C129.941 69.439 124.265 57.228 127.889 58.7198C130.613 59.8408 133.057 70.3591 133.889 70.2765C134.136 70.2519 130.586 61.4018 132.432 59.9033C134.004 58.6282 136.866 68.9611 137.683 72.0585C137.766 72.3712 138.225 72.4471 138.413 72.1791C139.171 71.105 140.685 69.0639 142.321 67.4403C144.653 65.1268 141.246 75.7567 140.646 77.4584C140.049 79.1601 166.477 105.398 168.883 104.015C171.291 102.633 197.489 81.9783 197.489 81.9783V100.63C197.489 100.63 182.63 121.901 165.763 119.511C148.896 117.122 134.603 81.4669 132.522 79.5777C128.719 76.1341 121.192 69.4413 122.929 68.5301Z" fill="#FB9C98"/>
        <path d="M168.382 120.051C167.48 120.051 166.591 119.988 165.712 119.865C152.204 117.951 140.613 95.5481 135.042 84.7798C133.717 82.2183 132.669 80.195 132.28 79.8422L131.729 79.342C126.653 74.7483 122.114 70.4874 122.325 68.8416C122.36 68.5669 122.517 68.3413 122.763 68.2118C123.706 67.7183 125.169 69.1252 126.982 71.0457C126.969 71.0234 126.955 70.9988 126.94 70.9765C123.708 65.5498 122.014 62.2068 122.907 61.175C123.066 60.9919 123.292 60.9048 123.538 60.9294C124.583 61.0321 126.568 63.732 128.263 66.3538C128.09 65.9228 127.918 65.4851 127.754 65.0474C125.901 60.1232 126.25 58.9597 126.676 58.5153C126.888 58.292 127.296 58.0888 128.025 58.3903C129.592 59.0357 130.951 62.209 132.088 65.235C131.45 62.6601 131.217 60.4292 132.206 59.6274C132.43 59.4443 132.703 59.393 132.972 59.4801C134.57 60.0004 136.602 66.557 138.025 71.9658C138.03 71.9702 138.05 71.997 138.081 71.9836C138.086 71.9836 138.11 71.9836 138.117 71.9725C138.883 70.8894 140.411 68.8282 142.065 67.1868C142.222 67.0327 142.696 66.5615 143.14 66.8384C143.518 67.0773 143.827 67.6959 142.667 72.0417C142.061 74.3106 141.277 76.7336 140.995 77.5398C141.257 79.342 160.235 98.8153 167.202 103.072C168.413 103.813 168.695 103.708 168.708 103.704C171.063 102.35 197.006 81.9034 197.267 81.698L197.847 81.2424V100.743L197.782 100.834C197.744 100.888 193.975 106.247 188.185 111.236C181.45 117.04 174.662 120.051 168.382 120.051ZM123.215 68.8192C123.171 68.8192 123.13 68.8281 123.095 68.846C123.052 68.8683 123.039 68.8884 123.032 68.9331C122.851 70.3445 129.169 76.0637 132.206 78.8127L132.759 79.3129C133.222 79.735 134.033 81.2781 135.675 84.4515C138.269 89.4672 142.614 97.8595 147.862 105.03C154.14 113.608 160.179 118.36 165.812 119.157C174.389 120.372 182.451 115.231 187.706 110.707C193.022 106.129 196.614 101.236 197.133 100.517V82.7163C193.169 85.8383 171.296 103.045 169.064 104.327C168.52 104.639 167.339 104.443 162.708 100.604C158.76 97.3325 153.198 92.1113 148.189 86.9772C139.908 78.4867 140.212 77.6224 140.311 77.341C141.327 74.4513 142.99 68.6272 142.764 67.5284C142.717 67.5619 142.654 67.6133 142.573 67.6959C140.957 69.2994 139.456 71.3226 138.706 72.3856C138.536 72.6268 138.243 72.7407 137.94 72.6871C137.643 72.6335 137.412 72.428 137.338 72.1489C135.53 65.2819 133.686 60.4627 132.752 60.1589C132.721 60.1478 132.703 60.1455 132.658 60.1813C131.461 61.1549 133.198 66.6821 133.851 68.7634C134.29 70.1569 134.326 70.2708 134.196 70.4695L134.102 70.6102L133.925 70.6326C133.357 70.6862 133.03 69.8688 131.982 67.0103C130.913 64.0938 129.297 59.6877 127.752 59.0513C127.591 58.9843 127.305 58.8905 127.193 59.0089C126.497 59.7369 128.142 64.8062 131.101 71.0591L130.467 71.3874C130.407 71.2802 128.965 68.7411 127.343 66.2667C124.241 61.5368 123.48 61.6373 123.448 61.6418C123.377 61.7289 123.09 62.2916 124.536 65.2283C125.44 67.0617 126.662 69.1162 127.555 70.6169C127.891 71.1797 128.18 71.6643 128.374 72.0082C128.665 72.5241 128.842 72.8367 128.522 73.0466C128.126 73.3057 127.766 72.9216 126.566 71.6487C125.747 70.7777 123.9 68.8192 123.215 68.8192Z" fill="#212429"/>
        <path d="M190.464 104.359C190.464 104.359 192.917 93.3763 201.372 92.7175C206.332 92.3312 204.992 96.1097 210.482 97.0566C217.241 98.2223 220.625 91.2436 230.462 91.5697C238.508 91.8377 245.728 102.689 245.728 102.689L248.508 106.648L242.548 133.114L193.691 132.464L190.464 104.359Z" fill="#1A897E"/>
        <path d="M258.054 106.231C248.143 87.6514 233.188 76.5859 233.188 76.5859L232.604 81.3158L232.619 89.1476C232.619 89.1476 244.909 123.058 252.221 136.632C251.789 136.741 221.026 151.797 220.039 152.394C217.113 152.972 209.275 153.483 208.447 154.386C207.429 155.498 215.504 156.177 215.504 156.177C215.504 156.177 212.216 159.52 210.929 160.216C208.577 161.494 202.214 165.241 201.384 166.422C201.151 166.755 204.013 167.604 204.013 167.604C204.013 167.604 213.779 166.266 216.482 165.174C217.704 164.68 220.918 159.544 222.57 157.641C223.356 157.291 224.323 156.869 224.925 156.639C228.973 155.098 263.75 152.38 269.692 146.48C275.635 140.582 266.073 121.265 258.054 106.231Z" fill="#FB9C98"/>
        <path d="M203.987 167.966L203.913 167.943C201.227 167.148 201.091 166.755 201.039 166.608C200.992 166.474 201.012 166.331 201.093 166.217C202.08 164.812 209.446 160.616 210.762 159.902C211.682 159.401 213.736 157.427 214.714 156.46C212.087 156.21 208.4 155.699 208.045 154.788C207.96 154.569 208.011 154.334 208.186 154.142C208.774 153.501 211.406 153.144 215.675 152.633C217.342 152.432 218.92 152.244 219.925 152.05C221.465 151.268 248.032 138.13 251.727 136.456C244.464 122.793 232.409 89.6012 232.286 89.264L232.266 89.2059L232.25 81.2893L232.913 75.9297L233.408 76.2937C233.557 76.4054 248.542 87.6182 258.377 106.058C267.824 123.771 275.765 140.958 269.95 146.728C265.731 150.915 247.557 153.492 235.532 155.196C230.348 155.931 226.252 156.512 225.059 156.967C224.589 157.146 223.808 157.479 222.796 157.93C222.214 158.611 221.442 159.681 220.628 160.811C218.736 163.43 217.436 165.172 216.623 165.503C213.911 166.599 204.47 167.901 204.07 167.955L203.987 167.966ZM201.852 166.427C202.25 166.641 203.199 166.985 204.043 167.238C204.963 167.11 213.844 165.853 216.348 164.842C217.031 164.565 218.701 162.253 220.041 160.395C220.892 159.218 221.693 158.106 222.302 157.405L222.353 157.345L222.425 157.313C223.499 156.833 224.298 156.494 224.797 156.304C226.066 155.822 229.992 155.266 235.426 154.495C247.358 152.802 265.391 150.248 269.442 146.226C274.939 140.768 266.611 123.03 257.741 106.397C248.985 89.9809 236.127 79.3442 233.468 77.2495L232.962 81.3362L232.978 89.0831C233.56 90.6798 245.462 123.329 252.537 136.462L252.754 136.866L252.324 136.974C251.277 137.382 221.142 152.144 220.225 152.697L220.171 152.731L220.108 152.744C219.079 152.948 217.467 153.14 215.757 153.345C213.21 153.651 209.401 154.107 208.761 154.582C209.325 155.045 212.628 155.576 215.534 155.819L216.292 155.884L215.76 156.427C215.623 156.565 212.418 159.815 211.1 160.531C208.443 161.974 203.062 165.201 201.852 166.427Z" fill="#212429"/>
        <path d="M363.642 317H0.358107C0.161148 317 0 316.841 0 316.642C0 316.446 0.161148 316.285 0.358107 316.285H363.644C363.841 316.285 364.002 316.444 364.002 316.642C364 316.841 363.839 317 363.642 317Z" fill="#212429"/>
        <path d="M338.48 150.971H16.2333C13.5117 150.971 11.287 148.749 11.287 146.035C11.287 143.32 13.5117 141.098 16.2333 141.098H338.478C341.2 141.098 343.424 143.32 343.424 146.035C343.427 148.751 341.2 150.971 338.48 150.971Z" fill="#F5F5F5"/>
        <path d="M340.564 151.327H14.1474C12.3726 151.327 10.929 149.887 10.929 148.116V143.954C10.929 142.183 12.3726 140.742 14.1474 140.742H340.564C342.339 140.742 343.783 142.183 343.783 143.954V148.116C343.785 149.887 342.341 151.327 340.564 151.327ZM14.1474 141.455C12.7665 141.455 11.6452 142.576 11.6452 143.954V148.116C11.6452 149.494 12.7687 150.615 14.1474 150.615H340.564C341.945 150.615 343.069 149.494 343.069 148.116V143.954C343.069 142.576 341.945 141.455 340.564 141.455H14.1474Z" fill="#212429"/>
        <path d="M38.2325 316.49H28.3331L53.8929 150.969H63.7924L38.2325 316.49Z" fill="#F5F5F5"/>
        <path d="M38.539 316.849H27.9166L27.9815 316.438L53.5862 150.613H64.2085L64.1458 151.024L38.539 316.849ZM28.7515 316.137H37.9257L63.3737 151.33H54.1994L28.7515 316.137Z" fill="#212429"/>
        <path d="M313.16 316.49H323.059L297.5 150.969H287.6L313.16 316.49Z" fill="#F5F5F5"/>
        <path d="M323.476 316.849H312.853L312.806 316.545L287.184 150.613H297.806L297.853 150.917L323.476 316.849ZM313.467 316.137H322.641L297.193 151.33H288.019L313.467 316.137Z" fill="#212429"/>
        <path d="M70.9969 93.3789L81.7066 136.638H144.248L131.586 93.3789H70.9969Z" fill="#F5F5F5"/>
        <path d="M144.724 136.993H81.4268L81.3597 136.723L70.5404 93.0195H131.853L144.724 136.993ZM81.9864 136.278H143.771L131.318 93.7319H71.4536L81.9864 136.278Z" fill="#212429"/>
        <path d="M162.992 136.637H81.7625V140.726H162.992V136.637Z" fill="#45B4AD"/>
        <path d="M163.351 141.085H81.4044V136.281H163.348V141.085H163.351ZM82.1206 140.37H162.634V136.996H82.1206V140.37Z" fill="#212429"/>
        <path d="M107.996 123.121C105.223 123.121 102.806 120.524 102.513 117.137C102.365 115.435 102.772 113.785 103.654 112.489C104.554 111.172 105.836 110.381 107.269 110.258C110.196 110.008 112.826 112.686 113.131 116.228C113.435 119.769 111.302 122.856 108.372 123.106C108.249 123.115 108.121 123.121 107.996 123.121ZM107.651 110.955C107.546 110.955 107.439 110.96 107.331 110.969C106.118 111.071 105.022 111.755 104.247 112.891C103.457 114.05 103.095 115.535 103.227 117.074C103.497 120.225 105.78 122.612 108.314 122.393C110.848 122.177 112.692 119.437 112.421 116.288C112.161 113.271 110.058 110.955 107.651 110.955Z" fill="#212429"/>
        <path d="M86.9818 132.198C86.8207 132.198 86.6752 132.088 86.6349 131.925L78.4522 98.4922C78.4052 98.3001 78.5238 98.1081 78.7141 98.0612C78.9065 98.0143 79.099 98.1304 79.146 98.3225L87.3288 131.755C87.3758 131.947 87.2571 132.14 87.0669 132.186C87.0378 132.195 87.0087 132.198 86.9818 132.198Z" fill="white"/>
        <path d="M235.254 316.49H201.616C201.616 310.099 206.809 304.918 213.212 304.918H223.656C230.061 304.92 235.254 310.101 235.254 316.49Z" fill="#212429"/>
        <path d="M188.127 274.395C188.127 274.395 186.657 284.589 187.424 290.864C188.604 300.507 188.127 316.49 188.127 316.49H180.204V304.632L176.242 316.49H152.276V309.179L170.202 292.733L169.396 274.462L188.127 274.395Z" fill="#1A897E"/>
        <path d="M188.702 316.643L187.975 297.844C182.144 297.773 175.358 305.263 172.117 309.312H151.298V316.643H176.244L178.693 309.312L180.206 304.785V316.643H188.702Z" fill="#212429"/>
        <path d="M129.248 278.155C129.248 278.155 122.106 288.81 122.341 290.866C123.478 300.768 123.043 316.492 123.043 316.492H115.12V304.634L111.159 316.492H87.1924V309.181L105.118 292.736L110.554 274.441L129.248 278.155Z" fill="#1A897E"/>
        <path d="M123.616 316.643L122.889 297.844C117.056 297.773 110.27 305.263 107.031 309.312H86.2141V316.643H111.159L113.609 309.312L115.12 304.785V316.643H123.616Z" fill="#212429"/>
        <path d="M231.203 74.7852C231.203 74.7852 231.648 96.2349 230.46 103.473C229.271 110.71 236.456 105.415 236.456 105.415L235.572 76.5829L231.203 74.7852Z" fill="#1A897E"/>
        <path d="M195.363 81.7706C195.504 83.6085 196.728 98.0616 196.298 104.947C195.842 112.267 200.101 106.465 200.101 106.465L199.486 79.5039L195.363 81.7706Z" fill="#1A897E"/>
        <path d="M202.747 166.924L212.975 163.28L215.119 160.801L202.747 166.924Z" fill="#FB9C98"/>
        <path d="M202.747 167.282C202.599 167.282 202.462 167.191 202.411 167.045C202.344 166.86 202.442 166.655 202.628 166.59L212.767 162.976L214.848 160.569C214.978 160.419 215.204 160.404 215.352 160.531C215.502 160.661 215.518 160.886 215.39 161.036L213.186 163.586L202.87 167.262C202.829 167.275 202.787 167.282 202.747 167.282Z" fill="#212429"/>
    </g>
    <defs>
        <clipPath id="clip0_6675_22426">
            <rect width="364" height="317" fill="white"/>
        </clipPath>
    </defs>
</svg>
