<svg width="354" height="318" viewBox="0 0 354 318" fill="none" xmlns="http://www.w3.org/2000/svg">
    <path d="M34.5262 316.275C-1.97444 267.252 -3.02818 241.626 3.04686 227.244C9.14022 212.827 21.1116 212.758 28.6573 194.29C38.2601 170.794 24.3187 157.599 27.5898 127.803C30.3937 102.266 45.3385 69.1931 69.208 59.5821C97.7048 48.1094 115.321 79.5786 142.837 68.2549C169.693 57.1992 162.84 23.1336 193.522 6.97459C216.136 -4.93495 248.325 -1.42514 263.417 16.2232C274.605 29.3043 269.203 41.7252 280.492 60.7388C294.933 85.0543 315.531 76.5801 323.709 93.6923C335.616 118.604 299.455 142.626 307.17 179.258C312.888 206.413 335.822 207.734 347.72 238.23C358.409 265.638 351.835 295.201 343.987 316.856C240.83 316.662 137.678 316.469 34.5262 316.275Z" fill="#C4E8E3"/>
    <path d="M298.976 294.74C298.596 292.72 297.002 283.248 302.472 276.035C305.748 271.711 311.859 267.809 314.544 269.844C317.165 271.83 315.919 278.998 313.784 283.486C309.784 291.901 301.084 294.239 298.976 294.74Z" stroke="#6E798C" stroke-width="2.2465" stroke-miterlimit="10"/>
    <path d="M293.517 295.506C291.739 294.771 283.502 291.157 280.808 282.291C279.195 276.979 279.424 269.294 282.448 267.924C285.398 266.589 290.314 271.568 292.674 275.927C297.09 284.098 294.254 293.307 293.517 295.506Z" stroke="#6E798C" stroke-width="2.2465" stroke-miterlimit="10"/>
    <path d="M300.092 301.172C301.361 299.633 307.418 292.594 316.026 293.036C321.185 293.299 327.723 296.277 327.819 299.832C327.915 303.297 321.863 306.494 317.268 307.318C308.645 308.867 301.723 302.701 300.092 301.172Z" stroke="#6E798C" stroke-width="2.2465" stroke-miterlimit="10"/>
    <path d="M287.694 317.001C290.09 311.451 292.958 305.499 296.395 299.313C301.21 290.645 306.199 283.204 310.909 276.934" stroke="#6E798C" stroke-width="2.2465" stroke-miterlimit="10"/>
    <path d="M285.82 277.777C288.844 288.252 296.019 299.993 296.019 299.993C296.019 299.993 304.604 303.672 318.44 300.519" stroke="#6E798C" stroke-width="2.2465" stroke-miterlimit="10"/>
    <path d="M307.28 264.399H48.486C37.7562 264.399 29.0605 254.976 29.0605 243.35V50.8164H326.705V243.35C326.705 254.976 318.01 264.399 307.28 264.399Z" fill="#F5F5F5"/>
    <path d="M110.992 239.401H250.407C252.001 239.401 253.298 238.001 253.298 236.268V207.609C253.298 205.881 252.006 204.477 250.407 204.477H110.992C109.398 204.477 108.102 205.877 108.102 207.609V236.273C108.102 238.001 109.394 239.401 110.992 239.401Z" fill="white"/>
    <path d="M110.992 196.886H250.407C252.001 196.886 253.298 195.486 253.298 193.754V165.09C253.298 163.362 252.006 161.957 250.407 161.957H110.992C109.398 161.957 108.102 163.357 108.102 165.09V193.754C108.102 195.481 109.394 196.886 110.992 196.886Z" fill="white"/>
    <path d="M187.822 226.843C190.32 226.843 192.344 224.649 192.344 221.943C192.344 219.237 190.32 217.043 187.822 217.043C185.325 217.043 183.301 219.237 183.301 221.943C183.301 224.649 185.325 226.843 187.822 226.843Z" fill="#4F4F4F"/>
    <path d="M172.117 226.843C174.614 226.843 176.639 224.649 176.639 221.943C176.639 219.237 174.614 217.043 172.117 217.043C169.619 217.043 167.595 219.237 167.595 221.943C167.595 224.649 169.619 226.843 172.117 226.843Z" fill="#4F4F4F"/>
    <path d="M156.408 226.843C158.906 226.843 160.93 224.649 160.93 221.943C160.93 219.237 158.906 217.043 156.408 217.043C153.911 217.043 151.886 219.237 151.886 221.943C151.886 224.649 153.911 226.843 156.408 226.843Z" fill="#4F4F4F"/>
    <path d="M140.699 226.843C143.196 226.843 145.221 224.649 145.221 221.943C145.221 219.237 143.196 217.043 140.699 217.043C138.202 217.043 136.177 219.237 136.177 221.943C136.177 224.649 138.202 226.843 140.699 226.843Z" fill="#4F4F4F"/>
    <path d="M124.99 226.843C127.487 226.843 129.512 224.649 129.512 221.943C129.512 219.237 127.487 217.043 124.99 217.043C122.492 217.043 120.468 219.237 120.468 221.943C120.468 224.649 122.492 226.843 124.99 226.843Z" fill="#4F4F4F"/>
    <path d="M223.335 174.523H122.021C121.159 174.523 120.463 175.278 120.463 176.211V182.64C120.463 183.573 121.159 184.328 122.021 184.328H223.335C224.197 184.328 224.893 183.573 224.893 182.64V176.211C224.893 175.278 224.197 174.523 223.335 174.523Z" fill="#4F4F4F"/>
    <path d="M312.933 26.7188H42.8325C35.2272 26.7188 29.0605 33.4008 29.0605 41.6417V50.9002H326.705V41.6417C326.705 33.4008 320.539 26.7188 312.933 26.7188Z" fill="#1A897E"/>
    <path d="M310.333 43.0112C312.476 43.0112 314.213 41.1287 314.213 38.8064C314.213 36.4841 312.476 34.6016 310.333 34.6016C308.189 34.6016 306.452 36.4841 306.452 38.8064C306.452 41.1287 308.189 43.0112 310.333 43.0112Z" fill="#EFEEFE"/>
    <path d="M294.127 43.0112C296.27 43.0112 298.007 41.1287 298.007 38.8064C298.007 36.4841 296.27 34.6016 294.127 34.6016C291.983 34.6016 290.246 36.4841 290.246 38.8064C290.246 41.1287 291.983 43.0112 294.127 43.0112Z" fill="#EFEEFE"/>
    <path d="M277.923 43.0112C280.066 43.0112 281.803 41.1287 281.803 38.8064C281.803 36.4841 280.066 34.6016 277.923 34.6016C275.779 34.6016 274.042 36.4841 274.042 38.8064C274.042 41.1287 275.779 43.0112 277.923 43.0112Z" fill="#EFEEFE"/>
    <path d="M176.575 145.085C197.157 145.085 213.841 127.006 213.841 104.704C213.841 82.4031 197.157 64.3242 176.575 64.3242C155.994 64.3242 139.31 82.4031 139.31 104.704C139.31 127.006 155.994 145.085 176.575 145.085Z" fill="#EFEEFE"/>
    <path d="M176.575 145.085C197.157 145.085 213.841 127.006 213.841 104.704C213.841 82.4031 197.157 64.3242 176.575 64.3242C155.994 64.3242 139.31 82.4031 139.31 104.704C139.31 127.006 155.994 145.085 176.575 145.085Z" fill="white"/>
    <path d="M176.576 145.085C189.574 145.085 201.018 137.872 207.684 126.935C201.719 114.951 190.023 106.805 176.576 106.805C163.125 106.805 151.433 114.951 145.468 126.935C152.134 137.872 163.578 145.085 176.576 145.085Z" fill="#4F4F4F"/>
    <path d="M186.728 98.3021C192.335 92.2262 192.335 82.3753 186.728 76.2995C181.121 70.2236 172.03 70.2236 166.422 76.2995C160.815 82.3753 160.815 92.2262 166.422 98.3021C172.03 104.378 181.121 104.378 186.728 98.3021Z" fill="#4F4F4F"/>
    <path d="M76.1717 98.3207C70.2112 97.8987 64.6997 101.736 62.5739 107.783C59.967 115.205 56.8379 124.691 56.256 129.035C56.256 129.035 42.6078 143.462 37.0459 149.176L40.0009 151.946C40.0009 151.946 58.5788 138.86 64.2415 133.101C69.9042 127.352 76.1717 98.3207 76.1717 98.3207Z" fill="#F26D6D"/>
    <path d="M130.403 309.667L130.673 310.545L128.841 312.62L126.898 311.692L126.183 310.545L125.973 309.637L130.403 309.667Z" fill="#F6A19E"/>
    <path d="M65.2129 309.634L65.3229 310.547L64.4386 312.121L61.8409 311.858L61.0621 311.342L60.833 310.547L60.8376 309.391L65.2129 309.634Z" fill="#F6A19E"/>
    <path d="M90.242 159.002C89.5869 158.898 89.2066 157.155 89.454 155.755C89.8251 153.645 91.5661 152.524 91.8593 152.34C92.1204 152.911 92.5328 154.038 92.3449 155.443C92.1113 157.225 90.9705 159.121 90.242 159.002Z" fill="#47B27C"/>
    <path d="M90.163 158.021C90.3462 158.711 89.0359 159.808 87.7577 160.14C85.8335 160.642 84.1704 159.391 83.8955 159.177C84.2712 158.681 85.0455 157.812 86.3054 157.415C87.8951 156.909 89.9614 157.251 90.163 158.021Z" fill="#47B27C"/>
    <path d="M89.2753 157.173C88.8721 157.744 87.2823 157.262 86.2698 156.354C84.7442 154.983 84.6755 152.789 84.6709 152.422C85.2619 152.452 86.3706 152.606 87.4152 153.459C88.7438 154.537 89.7243 156.537 89.2753 157.173Z" fill="#47B27C"/>
    <path d="M92.3584 83.3801H93.8795C95.1989 83.3801 96.2664 82.2234 96.2664 80.7937V76.6484H92.3584V83.3801Z" fill="#2B3340"/>
    <path d="M101.379 150.043C101.379 150.043 112.416 165.358 131.118 309.668L125.528 309.638L81.4727 176.88V150.043H101.379Z" fill="#4F4F4F"/>
    <path d="M68.1128 141.82C68.1128 141.82 54.7945 153.174 54.8586 183.65C54.8861 197.302 60.842 309.388 60.842 309.388L65.2174 309.631C72.9738 266.957 78.5907 225.018 85.0002 181.615C85.9165 181.471 90.6171 181.103 91.4326 180.066C93.2193 177.792 91.4738 173.826 91.515 172.083C91.6662 165.103 91.7074 149.143 91.2905 143.255C86.1272 143.717 72.9555 142.332 68.1128 141.82Z" fill="#4F4F4F"/>
    <path d="M60.8372 309.388C60.8372 309.388 54.8812 197.302 54.8537 183.65C54.7896 153.169 68.108 141.82 68.108 141.82C69.2304 141.964 70.3758 142.093 71.5395 142.222L74.6732 144.387C74.6732 144.387 65.2491 204.113 65.4782 239.827C65.6065 259.675 65.5881 287.197 65.5515 307.74C65.437 308.37 65.327 309.001 65.2079 309.636L60.8372 309.388Z" fill="#2B3340"/>
    <path d="M65.8679 150.558C64.0399 150.077 62.78 148.27 62.8579 146.234C63.2565 135.953 64.4706 124.282 67.1599 111.667C68.3465 106.107 69.7026 100.89 71.155 96.0345C76.8818 94.6594 82.6087 93.2892 88.3355 91.9141L101.626 97.5536C102.593 105.78 103.271 115.083 103.326 125.285C103.381 134.538 102.918 143.047 102.181 150.682C102.107 151.457 101.558 152.082 100.848 152.201C96.2798 152.961 90.8324 153.482 84.7116 153.299C77.4224 153.085 71.0588 151.928 65.8679 150.558Z" fill="#F9E0D2"/>
    <path d="M64.3331 150.136C63.4031 149.873 62.7709 148.95 62.8029 147.907C63.1282 137.229 64.3286 124.967 67.1645 111.667C68.3511 106.107 69.2536 100.8 70.706 95.9501C74.3757 95.0714 78.5036 94.2771 82.1734 93.3984C83.3738 93.602 85.1101 94.1282 86.0722 95.6622C87.3413 97.6827 86.6129 100.393 86.3975 101.267C85.1605 106.207 81.839 125.602 77.3125 152.748C72.3874 152.157 68.0258 151.189 64.3331 150.136Z" fill="#FFC5AE"/>
    <path d="M93.9895 82.8356L92.4547 96.6117L84.2676 95.5643L85.9902 81.1328L93.9895 82.8356Z" fill="#FB9C98"/>
    <path d="M85.9897 81.1328L93.9889 82.8356L93.9019 83.6249C93.0635 87.378 89.6045 90.8531 86.3104 90.0836C85.8339 89.9744 85.3941 89.7758 84.9863 89.5177L85.9897 81.1328Z" fill="#F26D6D"/>
    <path d="M86.9559 72.5874C86.6581 72.7711 84.4086 74.2356 83.6069 77.1C82.544 80.9077 84.2666 86.3834 87.8447 87.2224C91.2717 88.0266 94.8773 84.2289 95.5233 80.312C96.096 76.8369 94.4696 72.5427 91.5695 71.6194C89.5399 70.969 87.5698 72.2052 86.9559 72.5874Z" fill="#FB9C98"/>
    <path d="M83.6397 69.0238C82.7967 70.7762 86.3657 74.286 86.7184 74.6286C89.7605 77.5774 94.7085 79.444 96.1471 77.7065C97.2054 76.4306 96.2296 73.3825 94.9468 71.5705C91.8268 67.177 84.6339 66.9586 83.6397 69.0238Z" fill="#2B3340"/>
    <path d="M96.509 79.9699C96.6831 78.9721 96.0784 78.014 95.1575 77.8253C94.2366 77.6367 93.3524 78.292 93.1783 79.2898C93.0042 80.2877 93.609 81.2458 94.5298 81.4344C95.4507 81.6231 96.3349 80.9678 96.509 79.9699Z" fill="#FB9C98"/>
    <path d="M84.8257 83.9037C84.7524 84.2413 85.3251 84.708 85.8153 84.8619C86.6721 85.1299 87.7304 84.5739 88.2847 83.4123C85.6046 83.2882 84.899 83.5761 84.8257 83.9037Z" fill="white"/>
    <path d="M40.0054 151.95L38.0582 153.955C37.875 154.561 37.4901 155.579 36.67 156.532C36.2806 156.984 34.6313 158.905 32.7162 158.503C31.3693 158.22 30.1185 156.83 30.3339 156.07C30.4026 155.817 30.6317 155.653 30.8562 155.544L37.0503 149.18L40.0054 151.95Z" fill="#F26D6D"/>
    <path d="M81.0693 93.6605C83.4929 93.0796 85.9165 92.4988 88.3356 91.918L96.2523 95.2788C94.7084 96.654 92.5597 97.8305 90.2277 98.0937C86.7 98.4958 83.2272 96.7632 81.0693 93.6605Z" fill="#FB9C98"/>
    <path d="M109.493 113.111C111.174 110.996 112.888 108.841 114.285 106.562C117.694 109.596 120.594 112.976 122.064 116.501C123.485 119.912 122.142 124.117 119.444 128.416C116.035 128.455 112.246 127.502 109.044 126.137C110.171 124.767 111.206 123.63 112.077 122.885C112.077 122.885 109.268 120.413 105.938 117.102C107.385 115.647 108.563 114.282 109.493 113.111Z" fill="#FB9C98"/>
    <path d="M65.3228 310.547C65.3228 310.547 67.4853 312.806 65.3228 315.149H55.9629V310.547H60.833C60.833 310.547 63.0642 311.962 65.3228 310.547Z" fill="#2B3340"/>
    <path d="M59.6141 315.149H52.3066V314.503C52.3066 312.319 53.9422 310.547 55.9581 310.547C57.9739 310.547 59.6095 312.319 59.6095 314.503V315.149H59.6141Z" fill="#2B3340"/>
    <path d="M51.9953 315.883H65.7031V315.143H51.9953V315.883Z" fill="#F9E0D2"/>
    <path d="M126.183 310.547C126.183 310.547 124.02 312.806 126.183 315.149H137.242L136.844 310.547H130.677C130.673 310.547 128.441 311.962 126.183 310.547Z" fill="#2B3340"/>
    <path d="M140.903 315.148H125.803V315.888H140.903V315.148Z" fill="#F9E0D2"/>
    <path d="M136.844 310.547C138.86 310.547 140.495 312.319 140.495 314.503V315.149H136.844V310.547Z" fill="#2B3340"/>
    <path d="M70.7055 95.9492C66.2156 96.952 62.7154 100.77 61.822 105.645L60.3926 113.454L69.6151 113.766L70.7055 95.9492Z" fill="#FFC5AE"/>
    <path d="M35.3958 150.977C35.3958 150.977 33.4487 151.026 33.1876 151.225C32.9264 151.423 31.9277 153.23 32.5049 154.268C33.0776 155.306 33.9802 152.381 33.9802 152.381L35.3958 150.977Z" fill="#F26D6D"/>
    <path d="M105.938 117.107C101.604 112.798 96.3857 107.069 95.3274 103.515C93.4582 97.235 97.5769 95.9492 97.5769 95.9492C97.5769 95.9492 106.433 98.1534 114.29 106.563C112.888 108.842 111.179 110.996 109.498 113.111C108.563 114.283 107.386 115.648 105.938 117.107Z" fill="#F9E0D2"/>
    <path d="M114.807 106.3L106.111 117.822L104.562 116.075L113.666 105.039L114.807 106.3Z" fill="#FFC5AE"/>
    <path d="M68.7083 112.515L59.7744 112.188V114.193L68.4609 114.402L68.7083 112.515Z" fill="#FFC5AE"/>
    <path d="M96.2569 95.2824C96.2569 95.2824 88.221 102.903 81.0693 93.6641" stroke="#FFC5AE" stroke-width="3.3197" stroke-miterlimit="10" stroke-linecap="round"/>
    <path d="M95.3132 125.157C88.6242 124.869 80.5425 123.911 71.5903 121.509C65.3687 119.841 59.8709 117.785 55.1611 115.695C50.3735 117.572 44.8024 119.379 38.5258 120.769C29.4911 122.765 21.3773 123.36 14.6838 123.35C13.8087 129.184 10.533 155.048 26 178.683C35.4058 193.05 47.4139 199.995 53.5622 202.964C59.8159 200.273 72.0805 193.874 82.0269 179.934C98.3828 157.014 96.092 131.025 95.4369 125.157" fill="#1A897E"/>
    <path d="M88.1478 124.611C83.1173 124.065 77.5462 123.107 71.5903 121.509C65.3687 119.841 59.8709 117.785 55.1611 115.695C50.3735 117.572 44.8024 119.379 38.5258 120.769C29.4911 122.765 21.3773 123.36 14.6838 123.35C13.8087 129.184 10.533 155.048 26 178.683C32.3408 188.374 39.8727 194.688 45.989 198.68C52.2519 195.979 64.4936 189.575 74.4171 175.665C88.4089 156.051 88.7479 134.188 88.1478 124.611Z" fill="#45B4AD"/>
    <path d="M39.5605 149.953L54.4412 166.758L70.1465 150.42" stroke="white" stroke-width="8.5803" stroke-miterlimit="10" stroke-linecap="round" stroke-linejoin="round"/>
    <path d="M100.482 148.151C99.4004 149.03 98.4474 149.785 97.6777 150.38C97.5495 150.48 97.4258 150.574 97.3066 150.663C96.2483 151.477 95.6207 151.934 95.6207 151.934L95.3595 150.326L94.8418 147.109C94.8418 147.109 100.165 138.277 105.31 131.069C105.43 130.9 105.549 130.736 105.668 130.567C106.144 129.902 106.621 129.257 107.088 128.636C107.981 127.445 108.852 126.348 109.663 125.395C111.711 125.772 113.841 126.387 115.999 127.018C117.264 127.385 118.45 127.797 119.554 128.234C115.504 134.787 108.256 141.598 102.795 146.225C101.98 146.92 101.201 147.565 100.482 148.151Z" fill="#FB9C98"/>
    <path d="M93.1239 148.727C89.6099 148.806 88.7761 149.223 88.7211 149.615C88.6432 150.156 89.9489 151.248 91.3142 150.911C92.2717 150.678 92.9956 149.799 93.1239 148.727Z" fill="#FB9C98"/>
    <path d="M97.3517 150.633L95.6199 151.939C95.4091 152.535 94.9785 153.527 94.1126 154.436C93.7002 154.868 91.9593 156.695 90.0717 156.183C88.7431 155.826 87.5565 154.371 87.8084 153.617C87.8909 153.364 88.1291 153.215 88.3536 153.12L95.794 145.555L97.3517 150.633Z" fill="#FB9C98"/>
    <path d="M254.24 316.297C254.24 316.297 257.058 288.591 268.136 262.999C279.214 237.403 293.284 219.109 293.284 219.109" stroke="#6E798C" stroke-width="2.2465" stroke-miterlimit="10"/>
    <path d="M279.04 241.452C278.554 237.347 278.069 233.246 277.583 229.141" stroke="#6E798C" stroke-width="2.2465" stroke-miterlimit="10"/>
    <path d="M285.861 230.145C289.05 229.172 292.234 228.203 295.423 227.23" stroke="#6E798C" stroke-width="2.2465" stroke-miterlimit="10"/>
    <path d="M269.451 259.92C269.451 259.92 250.378 228.972 270.77 230.427C270.77 230.427 270.445 191.005 282.421 210.058C282.421 210.058 308.572 179.344 302.863 222.38C302.863 222.38 316.612 224.251 294.658 238.464C294.653 238.464 315.563 251.114 269.451 259.92Z" stroke="#6E798C" stroke-width="2.2465" stroke-miterlimit="10"/>
</svg>
